<?xml version="1.0" encoding="utf-8"?>
<!-- Generator: Adobe Illustrator 23.1.0, SVG Export Plug-In . SVG Version: 6.00 Build 0)  -->
<svg version="1.1" id="icons" xmlns="http://www.w3.org/2000/svg" xmlns:xlink="http://www.w3.org/1999/xlink" x="0px" y="0px"
	 viewBox="0 0 47 47" style="enable-background:new 0 0 47 47;" xml:space="preserve">
<style type="text/css">
	.st0{fill:#6A9923;}
	.st1{fill:#618C20;}
	.st2{fill:#88B337;}
	.st3{fill:#595959;}
</style>
<title>activityintheforest</title>
<g id="Forest">
	<path class="st0" d="M25.9,21.6c0-2-1.1-4.1-2.8-5.1c1.9-2.4,1.5-5.8-0.9-7.7c-1-0.7-2.1-1.2-3.4-1.2h-0.2c0.9-2.9-0.7-6-3.6-6.9
		S9,1.4,8.2,4.4l0,0c-0.3,1.1-0.3,2.1,0,3.2H7.9c-3,0-5.5,2.5-5.5,5.5l0,0c0,1.3,0.4,2.5,1.2,3.4c-2.9,1.9-3.6,5.8-1.7,8.7
		c0.4,0.6,1.1,1.3,1.7,1.7c-1.9,2.4-1.5,5.8,0.9,7.7c1,0.7,2.1,1.2,3.4,1.2h10.9c3,0,5.5-2.5,5.5-5.5c0-1.3-0.4-2.5-1.2-3.4
		C24.9,25.6,25.9,23.6,25.9,21.6z"/>
	<path class="st1" d="M19.4,17.8c-0.3-0.3-0.7-0.3-1.1,0l-4.2,4.1V10.6c0-0.4-0.3-0.7-0.7-0.7s-0.7,0.3-0.7,0.7v5.6l-3.5-3.5
		c-0.3-0.3-0.7-0.3-1.1,0s-0.3,0.7,0,1.1l4.7,4.7v10.7l-3.5-3.4c-0.3-0.3-0.7-0.3-1.1,0s-0.3,0.7,0,1.1l4.5,4.5v14.6
		c0,0.4,0.3,0.7,0.7,0.7s0.7-0.3,0.7-0.7V24.1l5.2-5C19.7,18.7,19.7,18.2,19.4,17.8L19.4,17.8L19.4,17.8z"/>
	<path class="st0" d="M46.3,21.6c0-2-1.1-4.1-2.8-5.1c1.9-2.4,1.5-5.8-0.9-7.7c-1-0.7-2.1-1.2-3.4-1.2H39c0.9-2.9-0.9-6-3.7-6.7
		s-6,0.9-6.7,3.7c-0.3,1-0.3,2,0,3.1h-0.2c-3,0-5.5,2.5-5.5,5.5c0,1.3,0.4,2.5,1.2,3.4c-2.9,1.9-3.6,5.9-1.7,8.7
		c0.4,0.6,1,1.2,1.7,1.7c-1.9,2.4-1.5,5.8,0.9,7.7c1,0.7,2.1,1.2,3.4,1.2h10.9c3,0,5.5-2.4,5.6-5.5c0-1.3-0.4-2.5-1.2-3.4
		C45.2,25.6,46.3,23.6,46.3,21.6L46.3,21.6z"/>
	<path class="st1" d="M39.8,17.8c-0.3-0.3-0.7-0.3-1.1,0l0,0L34.6,22V10.6c0-0.4-0.3-0.7-0.7-0.7c-0.4,0-0.7,0.3-0.7,0.7v5.6
		l-3.5-3.5c-0.3-0.3-0.9-0.2-1.1,0.1s-0.2,0.7,0,1.1l4.7,4.7v10.7l-3.6-3.5c-0.3-0.3-0.7-0.3-1.1,0s-0.3,0.7,0,1.1l4.5,4.5v14.6
		c0,0.4,0.3,0.7,0.7,0.7c0.4,0,0.7-0.3,0.7-0.7V24.2c0.1,0,0.1-0.1,0.1-0.1l5.1-5C40.1,18.7,40.1,18.2,39.8,17.8z"/>
	<path class="st2" d="M36.1,21.6c0-2-1.1-4.1-2.8-5.1c1.9-2.4,1.5-5.8-0.9-7.7c-1-0.7-2.1-1.2-3.4-1.2h-0.2c0.9-2.9-0.9-6-3.7-6.7
		s-6,0.9-6.7,3.7c-0.3,1-0.3,2,0,3.1h-0.2c-3,0-5.5,2.5-5.5,5.5c0,1.3,0.4,2.5,1.2,3.4c-2.9,1.9-3.6,5.8-1.7,8.7
		c0.4,0.6,1.1,1.3,1.7,1.7c-1.9,2.4-1.5,5.8,0.9,7.7c1,0.7,2.1,1.2,3.4,1.2H29c3,0,5.5-2.5,5.5-5.5c0-1.3-0.4-2.5-1.2-3.4
		C35,25.6,36.1,23.6,36.1,21.6z"/>
	<path class="st0" d="M29.6,17.8c-0.3-0.3-0.7-0.3-1.1,0L24.3,22V10.6c0-0.4-0.3-0.7-0.7-0.7c-0.4,0-0.7,0.3-0.7,0.7v5.6l-3.5-3.5
		c-0.3-0.3-0.7-0.3-1.1,0l0,0c-0.3,0.3-0.3,0.7,0,1.1l0,0l4.7,4.7v10.7l-3.5-3.4c-0.3-0.3-0.7-0.3-1.1,0s-0.3,0.7,0,1.1l4.5,4.5
		v14.6c0,0.4,0.3,0.7,0.7,0.7c0.4,0,0.7-0.3,0.7-0.7V24.2c0.1,0,0.1-0.1,0.1-0.1l5.1-5C29.9,18.7,29.9,18.2,29.6,17.8L29.6,17.8z"/>
	<path class="st3" d="M36.9,46.5H10.3c-0.4,0-0.7-0.3-0.7-0.7s0.3-0.7,0.7-0.7h26.6c0.4,0,0.7,0.3,0.7,0.7
		C37.7,46.2,37.3,46.5,36.9,46.5z"/>
</g>
</svg>
