<?xml version="1.0" encoding="utf-8"?>
<!-- Generator: Adobe Illustrator 23.1.0, SVG Export Plug-In . SVG Version: 6.00 Build 0)  -->
<svg version="1.1" id="icons" xmlns="http://www.w3.org/2000/svg" xmlns:xlink="http://www.w3.org/1999/xlink" x="0px" y="0px"
	 viewBox="0 0 47 47" style="enable-background:new 0 0 47 47;" xml:space="preserve">
<style type="text/css">
	.st0{fill:#FF7C21;}
	.st1{fill:#FEC397;}
	.st2{fill:#222730;}
	.st3{fill:#9BB725;}
	.st4{fill:#EFAA6C;}
	.st5{fill:#8BA012;}
</style>
<title>aerobics</title>
<g id="aerobic">
	<polygon class="st0" points="39,46.4 8,46.4 11.1,43.2 35.1,43.2 	"/>
	<g>
		<path class="st1" d="M28.8,20c-0.2-0.9-1.1-2.7-1.2-3.4c-0.4-2.2-1.5-2.6-1.5-2.6s-0.9,2.6-1.1,3.2c0.9,1.4,2.1,3.2,2.1,3.2
			c-1,0.3-1.8,0.6-2.8,0.8c-0.1-0.1-0.1-0.1-0.2-0.2l-0.1,0.1l-0.4,0.2l-0.1,0.1l0,0l-0.1,0.2l1.2,0.9c0,0,2.3-0.2,3.5-0.5
			C29.1,21.8,29.1,21.7,28.8,20z"/>
		<path class="st1" d="M17.3,42.4c-0.2,1.2-1.9,1.8-2.3,2.5c-0.3,1,1.2,0.8,1.7,0.6c1.1-0.4,0.8-0.5,1.5-1.2
			c0.8-0.6,0.8-0.9,0.6-2.3C18.6,41.7,17.4,41.6,17.3,42.4z"/>
		<path class="st1" d="M28.9,41.9c0.3,0.4,0.6,1,0.8,1.6c0.3,1.2,0,1.3,0.2,1.7c0.5,0.6,1.1,0.1,2.5,0.2c1.9,0.2,1.9,0,2.5-0.1
			c1-0.2,1.6-0.4,0.9-0.6c-0.4-0.1-2.6-0.8-3-1c-0.9-0.4-1.5-1.1-1.9-1.9L28.9,41.9z"/>
		<path class="st2" d="M26.4,28.4c-0.9-2.2-2.5-6.7-2.5-6.7l-3.4-4.4c0,0-3.2,3-3.7,6.5c-0.4,3.7-0.6,7.4-0.5,11
			c0,1.7,0.9,4.1,1,7.6c0.6,0.6,1.6,0,1.6,0c0.1-1.6,0.3-2.4,0.3-3.1c0-1.6,0.1-3.6,0.1-4.4c0.1-2.4,1.1-5.7,1.6-8.3
			c1.5,2.1,2.8,4.2,4,6.4c0.4,1.1,0.4,1.8,1.1,3.9c0.3,1.1,3.4,5.8,3.4,5.8c0.6,0.2,1.4,0,1.9-0.4C29.1,35.5,27.3,30.5,26.4,28.4z"
			/>
		<path class="st3" d="M24.1,12l-1.5-0.8c-0.5,1-1.3,1.8-1.9,2.7c-1.1,1.3-3.2,8.2-3.2,8.2c1.1,0.5,2.4,0.9,3.6,1
			c1.1,0,2.3-0.3,3.2-0.9c0,0-1.2-1.5-0.6-2.6c0.2-0.4,0.5-0.9,1-1.1c0.6-0.3,1.2-1.1,1.2-1.8c0.1-0.6,0.3-2.6,0.3-2.6L24.1,12z"/>
		<path class="st4" d="M24.7,13.2c0.2,0.1,0.4,0.2,0.6,0.2c0.2-0.3,0.5-0.6,1-1l-1.1-1.2c-0.3,0.3-0.5,0.5-0.9,0.8
			C24.1,12.5,24.4,12.9,24.7,13.2z"/>
		<g>
			<path class="st2" d="M25,10.4c-0.3-0.8-0.1-1.6,0.5-2.2c1-0.9,2.7-1.4,3.2-0.2c0.6,0.3,1,1.1,0.8,1.7c-0.9,0.1-1.7,0-2.6-0.1
				C26.3,9.4,25,10.4,25,10.4z"/>
			<path class="st2" d="M29.6,9.9c0,0-0.4,2.9-1.7,3.1s-1.6-0.5-1.6-0.5s1,0.6,1.6,0.1c0.6-0.8,1.1-1.7,1.4-2.7H29.6z"/>
			<path class="st1" d="M28.7,9.1c-0.8-0.6-1.8-0.6-2.6,0c0-0.1-0.2-0.3-0.4-0.2c-0.3,0.2-0.5,0.5-0.4,1l0,0
				c-0.1,0.1-0.2,0.3-0.3,0.5c-0.3,0.6-0.3,1.5,0,2.2c0.8,0.4,1.6,0.4,2.4,0C29.9,11.1,29.2,9.8,28.7,9.1z"/>
			<path class="st2" d="M26,9c0.4-0.5,1-0.9,1.6-1c1,0,1.8,0.8,1.9,1.7c-0.1,0.9-0.5,1.6-1.3,2.1c0.3-0.4,0.4-1.1,0.1-1.6
				C27.5,10.1,26.6,9.7,26,9z"/>
			<path class="st2" d="M28.5,10.3c0.1,0.9,0.1,1.6,0,2.5c-0.1,0.8-0.4,1.5-1,2.2c0,0,1-0.2,1.3-2.2C29.1,11.9,28.9,11.1,28.5,10.3z
				"/>
		</g>
		<path class="st1" d="M20.3,14.6c0.2-1.1,0.2-2.4,0.4-3.9c0.4-2.4,0.6-3.8,0.9-5s1-1.3,1.5-1.7c1.5-1.3,4.2-2.3,5.5-2.9
			c0.8-0.5,1.8-0.6,2.7-0.4c0.6,0.2,1.5,1,0.9,1.2c-0.4,0.1-0.5-0.1-1.4-0.1S30,2.2,30.1,2.3c0.6,0.3,1.1,0.5,0.8,0.6
			c-0.5,0.1-1,0-1.4-0.3c-0.3-0.2-0.8-0.2-1.1-0.1c-0.5,0.2-3.8,3.1-4.8,3.8c-0.1,1.3-0.2,2.7-0.1,4.1c0.1,0.6,0.1,1.3-0.1,1.9
			C23.1,13.2,22,15.6,20.3,14.6z"/>
		<path class="st5" d="M21.2,17c0.5,0,1.2,0.2,1.6,0.4c0.9,0.4,1.7,0.8,1.7,0.8c-0.5,0.1-1.2,0-1.7-0.2L21.2,17z"/>
		<path class="st1" d="M23.7,20.7c0,0-0.9-0.4-1.1,0.3c-0.2,0.8,0.5,0.4,1,1.1c0.4,0.6,0.6,0.6,1.2,0.3S24.1,21,23.7,20.7z"/>
	</g>
</g>
</svg>
