<?xml version="1.0" encoding="utf-8"?>
<!-- Generator: Adobe Illustrator 23.1.0, SVG Export Plug-In . SVG Version: 6.00 Build 0)  -->
<svg version="1.1" id="icons" xmlns="http://www.w3.org/2000/svg" xmlns:xlink="http://www.w3.org/1999/xlink" x="0px" y="0px"
	 viewBox="0 0 47 47" style="enable-background:new 0 0 47 47;" xml:space="preserve">
<style type="text/css">
	.st0{fill:#ED1C24;}
	.st1{fill:#FFFFFF;}
	.st2{fill:#FF0000;}
</style>
<title>AnimalCare</title>
<g id="animal_care">
	<path class="st0" d="M23.6,7C5-5-3.6,13.9,2.7,23.4C8.2,31.3,15,38.2,22.9,43.7c0.3,0.2,0.9,0.2,1.2,0c7.9-5.6,14.8-12.4,20.1-20.3
		C50.7,13.9,42.1-5,23.6,7z"/>
	<g>
		<path class="st1" d="M23.6,19.3c-4.3,0-7.7,3.4-7.7,7.7c0,3.9,2.9,6.2,7.7,6.2s7.7-2.4,7.7-6.2C31.3,22.8,27.8,19.3,23.6,19.3z"/>
		<path class="st1" d="M19.4,18.6c1.7,0,3.2-1.5,3.2-3.2c0-1.6-1.3-4-3.2-4s-3.2,2.4-3.2,4C16.1,17.2,17.6,18.6,19.4,18.6
			C19.3,18.6,19.4,18.6,19.4,18.6z"/>
		<path class="st1" d="M27.8,18.6c1.8,0,3.2-1.4,3.2-3.2l0,0c0-1.6-1.3-4-3.2-4c-2,0-3.2,2.4-3.2,4C24.6,17.2,26,18.6,27.8,18.6
			L27.8,18.6z"/>
		<path class="st1" d="M35.6,17.3c-1.9,0-3.2,2.4-3.2,4c0,1.8,1.5,3.2,3.2,3.2c1.8,0,3.2-1.5,3.2-3.2l0,0
			C38.8,19.6,37.5,17.3,35.6,17.3z"/>
		<path class="st1" d="M14.8,21.3c0-1.6-1.3-4-3.2-4s-3.2,2.4-3.2,4c0,1.8,1.5,3.2,3.2,3.2S14.8,23.1,14.8,21.3L14.8,21.3z"/>
	</g>
	<path class="st2" d="M25.7,25.6h-1.1v-1.2c0.1-0.6-0.2-1.2-0.9-1.4c-0.6-0.2-1.2,0.2-1.4,0.9c0,0.2,0,0.3,0,0.5v1.2h-1.2
		c-0.6-0.1-1.2,0.2-1.4,0.9c-0.1,0.6,0.2,1.2,0.9,1.4c0.2,0,0.3,0,0.5,0h1.2v1.1c0.1,0.6,0.7,1,1.4,0.9c0.4-0.1,0.7-0.4,0.9-0.9
		v-1.2h1.1c0.6-0.1,1-0.7,0.9-1.4C26.5,26,26.2,25.7,25.7,25.6L25.7,25.6z"/>
</g>
</svg>
