<?xml version="1.0" encoding="utf-8"?>
<!-- Generator: Adobe Illustrator 23.1.0, SVG Export Plug-In . SVG Version: 6.00 Build 0)  -->
<svg version="1.1" id="icons" xmlns="http://www.w3.org/2000/svg" xmlns:xlink="http://www.w3.org/1999/xlink" x="0px" y="0px"
	 viewBox="0 0 47 47" style="enable-background:new 0 0 47 47;" xml:space="preserve">
<style type="text/css">
	.st0{fill:#A1A1A1;}
	.st1{fill:#F78B05;}
</style>
<title>arctrainer</title>
<g id="arc_trainer">
	<path class="st0" d="M14.3,40.3h9.5c0,0,1.4,0.9,0,2.2h-9.5c-0.6-0.5-0.7-1.4-0.2-2C14.1,40.4,14.2,40.3,14.3,40.3z"/>
	<path class="st0" d="M25.9,37.4h9.5c0,0,1.4,0.9,0,2.2h-9.5c-0.6-0.5-0.7-1.4-0.2-2C25.8,37.6,25.8,37.5,25.9,37.4z"/>
	<path class="st0" d="M40.3,21.2c0,0-3.3-4.6-1.2-12.5c0,0-1.8-2.5-2.8,4.5c-0.2,2.6,0.2,5.2,1.3,7.6c0,0-29.4,1.9-29,25.2h2
		c0,0-1.4-21.6,29.6-23.2C40.3,22.7,41.2,22.7,40.3,21.2z"/>
	<path class="st1" d="M36.5,13l-6.3,2.1c0,0-7-8.1-10.7-3.8c-1.7,2.1-1,22.1-1,22.1l-1.5,6.9h4.2c1.4-4.5,1.9-9.2,1.6-13.9l5.2,3.9
		v7h4.2v-5.9c0,0,0.4-3.7-7.2-8.4v-6.8c0,0,3.4,3.9,7,2.3c1.5-0.7,3-1.3,4.6-1.7L36.5,13z"/>
	<path class="st0" d="M8.3,27.1c0,0,29.3-6.4,30.3,19.3c0.7-0.1,1.5-0.3,2.2-0.5c1.7-0.5-2.5-26.7-32.4-21.1
		C4.4,25.5,5.9,27.5,8.3,27.1z"/>
	<circle class="st0" cx="23.2" cy="4.6" r="3.9"/>
</g>
</svg>
