<?xml version="1.0" encoding="utf-8"?>
<!-- Generator: Adobe Illustrator 23.1.0, SVG Export Plug-In . SVG Version: 6.00 Build 0)  -->
<svg version="1.1" id="icons" xmlns="http://www.w3.org/2000/svg" xmlns:xlink="http://www.w3.org/1999/xlink" x="0px" y="0px"
	 viewBox="0 0 47 47" style="enable-background:new 0 0 47 47;" xml:space="preserve">
<style type="text/css">
	.st0{fill:#EDEDED;}
	.st1{fill:#1D1D1B;}
	.st2{fill:#C29F6C;}
</style>
<title>AutoRacing</title>
<path class="st0" d="M44.6,29c-1.9,0.9-4,1.5-6,1.9c-2.1,0.2-4.1,0.2-6.2,0c-2.3-0.2-3.9-0.8-6-1.1c-1.9-0.3-4-0.9-5.9-1.4
	c-1.8-0.5-3.7-0.9-5.6-1c-1.7-0.1-3.5,0-5.2,0.3c-1.7,0.3-3.5,1.2-4.8,2.4c-0.2-9.3-0.5-18.6-1-27.8c2.9-1.8,6.6-2.6,11.3-1.9
	c1.9,0.2,3.8,0.6,5.7,1.2c5.2,1.3,9.7,3.8,16.6,2.9c1.9-0.1,3.7-0.9,5.2-2.1c0,3.6,0,7.8,0.2,11.2c0.1,2.1,0.2,2.9,0.4,4.9
	C43.6,22,44.2,25.6,44.6,29z"/>
<path class="st1" d="M3.9,2.4c1.7-1.1,3.6-1.8,5.6-2.1c0,2.4,0,3.3,0,5.5C7.6,6.1,5.7,6.7,4.1,7.9C4,5.9,4,4.7,3.9,2.4z"/>
<path class="st1" d="M15.2,0.5c1.9,0.2,3.8,0.6,5.7,1.2c-0.1,2.4-0.2,3.5-0.2,5.6c-1.8-0.5-3.7-1-5.6-1.3C15,3.8,15.1,2.7,15.2,0.5z
	"/>
<path class="st1" d="M26.6,3.4c1.8,0.5,3.7,1,5.6,1.2C32.1,6.9,32,8,32,10.2c-1.9-0.3-3.8-0.8-5.6-1.3C26.3,6.8,26.3,5.8,26.6,3.4z"
	/>
<path class="st1" d="M37.5,4.6c1.8-0.2,3.7-1,5.2-2.2c0,2.5,0,3.7,0,5.8c-1.6,1.1-3.3,1.8-5.3,1.9C37.4,8.1,37.4,7,37.5,4.6z"/>
<path class="st1" d="M9.5,5.9c1.8-0.3,3.8-0.3,5.6,0c0,2.1-0.1,3.1-0.1,5.1c-1.8-0.3-3.6-0.3-5.4,0C9.5,8.9,9.5,7.9,9.5,5.9z"/>
<path class="st1" d="M20.6,7.2c2.3,0.6,3.3,1.1,5.6,1.7c0,2.1,0,3.1,0,5.1c-2.3-0.6-3.5-1.1-5.6-1.7C20.5,10.3,20.6,9.3,20.6,7.2z"
	/>
<path class="st1" d="M31.9,10.2c1.8,0.3,3.7,0.4,5.5,0.1c0,2.2,0,3.1,0.1,5.2c-1.8,0.3-3.8,0.2-5.6-0.1
	C31.7,13.3,31.7,12.3,31.9,10.2z"/>
<path class="st1" d="M4.4,13c1.5-1.1,3.2-1.8,5.2-2.1c0,2.1,0,3,0,5.1c-1.8,0.2-3.6,1-5,2.2C4.5,16,4.4,14.9,4.4,13z"/>
<path class="st1" d="M14.9,10.9c1.9,0.3,3.8,0.8,5.6,1.3c0,1.9,0,2.9-0.1,5c-1.8-0.5-3.7-1-5.6-1.3C14.9,14,14.9,13,14.9,10.9z"/>
<path class="st1" d="M26.2,14c1.8,0.6,3.8,1.1,5.6,1.4c0,1.9,0,2.9,0.1,5c-1.9-0.3-3.9-0.8-5.7-1.4C26.1,17,26.1,16,26.2,14z"/>
<path class="st1" d="M37.4,15.5c1.9-0.2,3.8-0.9,5.4-1.8c0.1,2.1,0.2,3,0.4,5c-1.7,1.1-3.6,1.6-5.6,1.8
	C37.5,18.5,37.5,17.5,37.4,15.5z"/>
<path class="st1" d="M9.5,16c1.7-0.3,3.6-0.3,5.3,0c0,2.1,0,3.1,0,5.3c-1.7-0.3-3.6-0.2-5.3,0.1C9.5,19.1,9.5,18.1,9.5,16z"/>
<path class="st1" d="M20.4,17.2c2.3,0.6,3.5,1.1,5.7,1.7c0,1.9,0,3,0,5.2c-2.4-0.6-3.5-1-5.8-1.6C20.4,20.2,20.4,19.3,20.4,17.2z"/>
<path class="st1" d="M31.9,20.2c1.9,0.3,3.9,0.4,5.7,0.2c0.1,1.9,0.2,2.9,0.3,5.1c-1.9,0.2-4,0.2-5.9-0.1C32,23.3,32,22.3,31.9,20.2
	z"/>
<path class="st1" d="M4.7,23.7c1.3-1.2,3-1.9,4.8-2.3c0,2.3,0,3.6,0,6.2C7.8,27.9,6,28.8,4.7,30C4.7,27.2,4.7,26.1,4.7,23.7z"/>
<path class="st1" d="M14.8,21.3c1.8,0.2,3.8,0.6,5.6,1.2c0,2.2,0,3.3,0,5.8c-1.8-0.5-3.7-0.9-5.6-1C14.8,24.8,14.8,23.6,14.8,21.3z"
	/>
<path class="st1" d="M26.2,24c1.9,0.5,3.9,1,5.9,1.3c0.1,2.1,0.1,3.1,0.3,5.5c-2.1-0.2-4.1-0.6-6-1.1C26.2,27.4,26.2,26.2,26.2,24z"
	/>
<path class="st1" d="M38,25.5c2.1-0.2,4.1-0.8,5.8-1.8c0.2,2.1,0.4,3.1,0.8,5.3c-1.8,1.1-4,1.7-6,1.9C38.2,28.5,38.2,27.6,38,25.5z"
	/>
<path class="st2" d="M5.5,46.7c-0.3,0-0.6-0.2-0.6-0.6L3.2,2.4c0-0.3,0.3-0.6,0.6-0.6s0.6,0.3,0.6,0.6L6.3,46
	C6.1,46.4,5.9,46.7,5.5,46.7L5.5,46.7z"/>
</svg>
