<?xml version="1.0" encoding="utf-8"?>
<!-- Generator: Adobe Illustrator 23.1.0, SVG Export Plug-In . SVG Version: 6.00 Build 0)  -->
<svg version="1.1" id="icons" xmlns="http://www.w3.org/2000/svg" xmlns:xlink="http://www.w3.org/1999/xlink" x="0px" y="0px"
	 viewBox="0 0 47 47" style="enable-background:new 0 0 47 47;" xml:space="preserve">
<style type="text/css">
	.st0{fill:#D8DCDD;}
	.st1{fill:#C1C5C3;}
	.st2{fill:#D5DDDE;}
	.st3{fill:#CBD3D4;}
	.st4{fill:#DAD9BC;}
	.st5{fill:#A7AAB4;}
	.st6{fill:#020202;}
	.st7{fill:#EDEBE4;}
	.st8{fill:#EDEFEF;}
	.st9{fill:#F4F4F4;}
	.st10{fill:#CED2D0;}
</style>
<title>badminton</title>
<g id="badminton">
	<path class="st0" d="M29.5,31.7c2.3-1.4,4.6-2.9,6.9-4.3c2.2-1.5,4.6-2.9,6.8-4.5l1.9-1.5l-1.4,2c-2.5,3.4-8.3,9.6-17.7,10.3l0,0
		L29.5,31.7z"/>
	<path class="st1" d="M38,23.1c2.3-1,4.8-1.5,7.2-1.7l-1.9,1.5c-2.2,1.5-4.6,2.9-6.9,4.3c-2.3,1.4-4.7,2.7-7,4L26.1,33
		c0.9-1.1,1.7-2,2.6-3C32.3,28.5,35.5,26.1,38,23.1L38,23.1z"/>
	<path class="st0" d="M28.5,30c-1.5,0.6-3,1.2-4.5,1.6c1.3-1,2.7-2,3.9-3c2.2-1.9,4.6-3.7,6.8-5.6c2.2-1.9,4.5-3.8,6.5-6l1.1-1.5
		c0,0-0.3,1.2-0.4,1.5c-1,2.2-2.3,4.4-3.9,6.2l0,0C35.3,26,32.1,28.4,28.5,30z"/>
	<path class="st1" d="M42.4,15.4l-1.1,1.4c-2.1,2-4.5,3.9-6.7,5.8c-2.2,1.8-4.7,3.6-7,5.3c-1.5,1.1-3,2.1-4.5,3.2
		c0.6-1.7,1.5-3.3,2.5-4.8c3.6-2,6.8-4.8,9.2-8.2l0,0C37.2,16.9,39.7,15.9,42.4,15.4z"/>
	<path class="st0" d="M25.5,26.2c-1.4,0.7-2.8,1.4-4.3,1.9l3.4-3.6l6.2-6.6c2-2.2,4.2-4.5,6-6.7L38.3,9c-0.1,0.9-0.2,1.6-0.4,2.5
		c-0.7,2.3-1.8,4.6-3.2,6.5l0,0C32.4,21.4,29.3,24.3,25.5,26.2z"/>
	<path class="st1" d="M24.2,24L20,28c0.4-2,1.2-3.9,1.9-5.9c2.6-2.1,4.5-4.9,5.8-8l0,0c3.1-2.7,6.8-4.5,10.8-5.1
		c-0.2,0.4-0.4,0.7-0.7,1.2l-0.9,1.1c-2,2.2-4.3,4.3-6.4,6.4L24.2,24z"/>
	<path class="st0" d="M22,22.1c-1.6,1.4-3.4,2.6-5.3,3.5c1-1.7,1.9-3.4,2.8-5.1l4.5-7.9c1.5-2.7,3-5.2,4.5-7.8l0,0l0.9-1.7l0.1,1.7
		c0.1,3.2-0.4,6.4-1.6,9.4l0,0C26.5,17.3,24.6,19.9,22,22.1z"/>
	<path class="st1" d="M23.5,12.4L18.7,20l-3,4.9c0.1-1.8,0.3-3.5,0.7-5.2c2.5-3.1,4.3-6.5,5.4-10.2c2.1-2.5,4.6-4.6,7.2-6.4
		l-0.9,1.7l0,0C26.8,7.3,25.2,9.8,23.5,12.4z"/>
	<path class="st0" d="M18.3,10c1.2-2.7,2.3-5.4,3.7-8l0.6-1.8c0,0,0.3,1.3,0.3,1.7c0.1,2.6-0.2,5.1-1,7.5c-1.2,3.7-3,7.1-5.3,10.2
		c-1.2,1.5-2.3,2.9-3.6,4.3c0.6-1.9,1.4-3.7,2-5.6C16,15.5,17.1,12.8,18.3,10z"/>
	<path class="st1" d="M22,2c-1.5,2.6-2.8,5.2-4,7.9c-1.3,2.7-2.5,5.4-3.6,8.1c-0.7,1.8-1.5,3.7-2.3,5.5c-0.1-1.6,0-3.1,0.2-4.7
		c2.1-3.5,3.5-7.4,4.2-11.4c1.7-2.8,3.8-5.2,6.3-7.2L22,2z"/>
	<path class="st2" d="M16.3,0.3c0.4,2.3,0.5,4.8,0.1,7.1c-0.5,4-1.9,7.9-4,11.4c-0.5,0.9-1.2,1.8-1.8,2.7c0.3-1.4,0.6-2.8,1.1-4.2
		c0.6-2.7,1.3-5.2,2-7.9c0.6-2.7,1.4-5.2,2.2-7.8L16.3,0.3z"/>
	<path class="st3" d="M10.7,17.4l-1.1,3.9C9,12.1,11.4,6.9,13.2,4.4c0.6-1,1.3-1.8,1.8-2.5l1.3-1.5l-0.6,1.4c-1,2.6-1.7,5.1-2.5,7.7
		C12.3,12.2,11.6,14.7,10.7,17.4z"/>
	<path class="st4" d="M15,39c3.6-2,7.4-4,10.9-6l3.3-1.8c2.3-1.3,4.7-2.7,7-4s4.7-2.8,6.9-4.3c-2.2,1.5-4.5,3-6.8,4.5
		c-2.3,1.5-4.6,2.9-6.9,4.3l-3.2,2.1c-3.4,2.1-6.9,4.2-10.4,6.3l0.1-0.2c0,0-0.4-0.2-1.1-0.5C14.8,39.2,14.9,39.1,15,39L15,39z"/>
	<path class="st4" d="M24.1,31.6c-3.3,2.5-6.7,4.9-10.1,7.2c-0.4-0.2-0.9-0.5-1.3-0.9c0.1-0.1,0.1-0.1,0.2-0.2l0,0
		c3.5-2.1,6.9-4.4,10.2-6.6c1.5-1.1,3-2.1,4.5-3.2c2.3-1.7,4.7-3.5,7-5.3c2.3-1.8,4.7-3.7,6.7-5.8c-2,2.1-4.3,4-6.5,6
		c-2.2,1.9-4.5,3.8-6.8,5.6L24.1,31.6z"/>
	<path class="st4" d="M20,28l4.2-4l6.5-6.3c2.1-2.1,4.3-4.3,6.4-6.4c-1.9,2.2-4,4.5-6,6.7l-6.2,6.6l-3.4,3.6c-3,3.2-6,6.4-8.9,9.6
		c-0.4-0.3-0.9-0.6-1.4-1c0-0.1,0.1-0.1,0.1-0.1l0,0C14.1,33.8,17.1,30.9,20,28z"/>
	<path class="st4" d="M9.3,35.5c2.1-3.5,4.3-7,6.4-10.4l3-4.9l4.8-7.7c1.6-2.6,3.2-5.1,4.9-7.6c-1.5,2.6-3,5.2-4.5,7.8l-4.5,7.9
		c-1,1.7-1.9,3.4-2.8,5.1l0,0c-1.9,3.5-3.8,7.1-5.9,10.8c0,0.1-0.1,0.1-0.1,0.2L9.3,35.5z"/>
	<path class="st4" d="M12.9,23.9c-1.3,3.6-2.5,7.4-3.5,11.1c0,0.1-0.1,0.2-0.1,0.3c-0.4-0.3-0.7-0.7-1.2-1.1
		c1.2-3.6,2.5-7.1,3.9-10.7c0.7-1.9,1.5-3.7,2.3-5.5c1.2-2.7,2.3-5.4,3.6-8.1s2.6-5.3,4-7.9c-1.4,2.7-2.6,5.3-3.7,8
		c-1.2,2.7-2.2,5.4-3.3,8.3C14.3,20.2,13.5,22,12.9,23.9z"/>
	<path class="st4" d="M9.7,21.3l1.1-3.9c0.7-2.6,1.5-5.2,2.3-7.8s1.6-5.2,2.6-7.8c-0.9,2.6-1.5,5.2-2.2,7.8c-0.7,2.6-1.4,5.2-2,7.9
		c-0.3,1.4-0.6,2.8-1.1,4.2c-1,3.8-1.9,7.8-2.8,11.6c0,0.1-0.1,0.2-0.2,0.3c-0.4-0.5-0.7-0.9-0.7-0.9l-0.2,0.2
		C7.5,29,8.6,25.3,9.7,21.3z"/>
	<path class="st5" d="M10.1,37.7c-1.5-1.2-3-2.6-4.2-4L6.5,33l0.1-0.3c0,0,0.3,0.3,0.9,0.9l0.6,0.6c0.3,0.3,0.7,0.6,1.2,1.1l0.2,0.2
		c0.4,0.3,0.9,0.7,1.3,1.1l0.2,0.2l0,0l0.1,0.1c0.4,0.3,1,0.6,1.4,1l0.2,0.1c0.4,0.3,0.9,0.5,1.3,0.9l0.9,0.5
		c0.6,0.4,1.1,0.5,1.1,0.5l-0.1,0.2l-0.5,0.7C13.4,39.9,11.7,38.8,10.1,37.7L10.1,37.7z"/>
	<path class="st6" d="M4.3,35.7L4.3,35.7l1.6-2.1c1.3,1.5,2.7,2.9,4.2,4l0,0c1.6,1.2,3.3,2.1,5,3l-1.6,2.1c-1.9-0.6-3.6-1.6-5.1-2.9
		C6.8,38.8,5.4,37.4,4.3,35.7z"/>
	<path class="st5" d="M8.4,40c1.5,1.3,3.3,2.2,5.1,2.9c0,0-3.8,6.6-9.3,2.5s-0.2-9.4,0-9.6l0,0C5.4,37.4,6.8,38.9,8.4,40z"/>
	<path class="st7" d="M15.6,1.8c-0.9,2.6-1.5,5.2-2.2,7.9c-0.7,2.7-1.4,5.3-2,8l-1.9,8l-1,3.9l-0.4,2l-0.2,1l-0.1,0.5
		c0,0.2-0.1,0.3-0.2,0.4l0,0c0.1-0.1,0.2-0.3,0.2-0.4l0.1-0.5v-1l0.4-2l0.9-4c0.5-2.7,1.3-5.3,1.8-8c0.6-2.7,1.3-5.2,2.1-7.9
		l1.2-3.9C14.7,4.5,15.1,3.1,15.6,1.8L15.6,1.8z"/>
	<path class="st7" d="M43.2,22.8c-2.2,1.6-4.5,3-6.7,4.5c-2.2,1.5-4.5,2.9-6.8,4.3c-4.6,2.9-9.2,5.6-13.9,8.3l0,0l3.4-2.2l3.4-2.2
		c2.2-1.5,4.6-2.9,6.8-4.3l6.9-4.3l3.4-2C40.9,24.3,42.1,23.6,43.2,22.8L43.2,22.8z"/>
	<path class="st7" d="M22,2c-1.4,2.7-2.6,5.3-3.7,8.1c-1.2,2.8-2.2,5.4-3.3,8.2s-2,5.5-3,8.4c-0.5,1.4-1,2.8-1.4,4.3l-0.5,2.1
		l-0.3,1.1l-0.2,0.5c0,0.2-0.1,0.3-0.2,0.5l0,0c0.1-0.1,0.1-0.3,0.2-0.5l0.1-0.5l0.3-1.1l0.5-2.1c0.4-1.5,0.9-2.9,1.3-4.3
		c0.9-2.9,1.9-5.6,2.9-8.4s2.2-5.5,3.4-8.2c0.6-1.4,1.3-2.7,1.9-4C20.6,4.7,21.3,3.4,22,2L22,2z"/>
	<path class="st7" d="M28.5,4.7c-3.1,5.2-6,10.4-8.9,15.9l-4.4,8l-2.2,4c-0.7,1.3-1.4,2.7-2.2,3.9l0,0c0.7-1.3,1.4-2.7,2-4l2.1-4
		c1.4-2.7,2.9-5.3,4.3-8c1.5-2.7,3-5.3,4.5-7.9L26,8.6C26.8,7.3,27.6,6,28.5,4.7L28.5,4.7z"/>
	<path class="st7" d="M36.9,11.3c-1.9,2.2-4,4.5-6.1,6.7l-6.2,6.6c-4.2,4.4-8.3,8.7-12.4,13.2l0,0l2.9-3.5l3-3.4
		c2-2.2,4-4.5,6.1-6.6s4.2-4.4,6.3-6.5l3.2-3.2C34.8,13.4,35.9,12.4,36.9,11.3L36.9,11.3z"/>
	<path class="st7" d="M41.3,16.9c-2,2.1-4.3,4-6.4,6c-2.2,1.9-4.5,3.8-6.7,5.6c-4.6,3.6-9.4,7-14.2,10.2l0,0
		c1.2-0.9,2.3-1.7,3.5-2.7l3.5-2.8c2.3-1.8,4.7-3.5,6.9-5.3c2.2-1.8,4.5-3.6,6.8-5.5c1.2-1,2.2-1.9,3.3-2.9c1.1-1,2.2-1.9,3.3-2.9
		L41.3,16.9z"/>
	<path class="st8" d="M16.3,0.3c0.3,1.8,0.4,3.7,0.3,5.6s-0.5,3.7-1.1,5.5c-1.1,3.6-2.9,7-5.1,10.1l0,0c0.5-0.7,1-1.6,1.5-2.5
		s1-1.6,1.3-2.5c0.9-1.7,1.5-3.4,2-5.2c0.5-1.8,0.9-3.6,1.1-5.5c0.1-0.9,0.2-1.8,0.2-2.8S16.4,1.3,16.3,0.3L16.3,0.3z"/>
	<path class="st9" d="M29.3,3c0.3,2.3,0.2,4.6-0.2,6.9c-0.4,2.2-1.2,4.5-2.3,6.5c-1.2,2-2.6,3.8-4.3,5.3c-1.7,1.5-3.6,2.8-5.6,3.8
		l0,0c1-0.5,2-1.2,2.9-1.8c1-0.6,1.8-1.4,2.7-2.1c1.7-1.6,3.1-3.3,4.2-5.3s1.8-4.2,2.2-6.4c0.2-1.1,0.4-2.2,0.4-3.4
		C29.3,5.2,29.3,4.2,29.3,3L29.3,3z"/>
	<path class="st9" d="M42.4,15.4c-0.6,2-1.6,3.9-2.9,5.6c-1.2,1.7-2.7,3.3-4.3,4.7c-3.3,2.8-7.1,4.7-11.3,5.8l0,0
		c1.1-0.3,2-0.7,3-1.2c1-0.4,1.9-0.9,2.9-1.4c1.8-1,3.6-2.1,5.2-3.5s3-2.9,4.3-4.6c0.6-0.9,1.2-1.7,1.7-2.7
		C41.6,17.3,42.1,16.3,42.4,15.4L42.4,15.4z"/>
	<path class="st10" d="M24.1,35c-5.6-2.9-10.8-6.7-15-11.4l-0.4,1.7c2.1,2.2,4.5,4.4,6.9,6.3c2.2,1.7,4.6,3.2,7,4.5L24.1,35z"/>
	<path class="st10" d="M19.8,37.5c-6-2.3-11.1-8.3-12-9.5l-0.5,1.7c1.8,2,3.8,3.9,6,5.6c1.6,1.2,3.2,2.2,5,3L19.8,37.5z"/>
</g>
</svg>
