<?xml version="1.0" encoding="utf-8"?>
<!-- Generator: Adobe Illustrator 23.1.0, SVG Export Plug-In . SVG Version: 6.00 Build 0)  -->
<svg version="1.1" id="icons" xmlns="http://www.w3.org/2000/svg" xmlns:xlink="http://www.w3.org/1999/xlink" x="0px" y="0px"
	 viewBox="0 0 47 47" style="enable-background:new 0 0 47 47;" xml:space="preserve">
<style type="text/css">
	.st0{fill:#BABABA;}
	.st1{fill:#7A7A7A;}
	.st2{fill:#DCDCDC;}
	.st3{fill:#B3B3B3;}
	.st4{fill:#F68A21;}
	.st5{fill:#1A1A1A;}
	.st6{fill:none;stroke:#7A7A7A;stroke-miterlimit:10;}
</style>
<title>BarreClass</title>
<g id="barre">
	<path class="st0" d="M12.6,19.7c1.3-0.3,2.2-1.2,2.9-2.4C16.4,15.5,4.7,4.5,4.7,4.5v1.7c0,0,2.9,4.6,4.9,5.5S12.6,19.7,12.6,19.7z"
		/>
	<path class="st1" d="M8,21c0,0-0.6,4.9,1.1,7.7l-0.6,0.4c0,0,0.7,2.2-0.6,6.3V38H5.5c0,0-0.6-1.2,0-3.6c0.6-2.5-4.3-8.9,0-10.8
		c0,0-2,1.3-2.6-2s-4.1-4.7-2-8.2l3,0.6l-0.6,1.4L8,21z"/>
	<path class="st0" d="M5.5,38h2.4c0,0,0,4.9,1.6,6c0,0,6.5,1.6-2.2,1L5.5,38z"/>
	<path class="st0" d="M1,13.3C2.5,9.7,3.2,5.8,3.2,1.9c0-1.3,4.2,2,1.5,6.7H4c0,0,0.6,4.5-0.1,5.2C3.1,14.7,1,13.3,1,13.3z"/>
	<circle class="st2" cx="2.9" cy="5.4" r="1.1"/>
	<path class="st3" d="M17.4,13.9c0,0,2.2-2.5,3.7-0.5s0.6,5.4-0.3,5.6c-0.5,0.2-1.1,0-1.4-0.4c-0.3,0.3-0.6,0.6-0.7,1.2
		s-2.1-0.5-1.4-2L17.4,13.9z"/>
	<path class="st0" d="M18.7,19.6c0,0-2.9,0.2-2.1,3c0.2,0.9,1.1,1.5,1.9,1.3c0.4-0.1,0.9-0.3,1.1-0.7c0,0,5,0.5,7.4-0.1
		c0,0,6.7,1.4,10.1-0.2l-0.4-0.3c0,0-5.2,0.4-7.8-0.6C26.2,20.8,20.8,22.1,18.7,19.6z"/>
	<path class="st4" d="M18.6,20.6c0,0-0.1-1.1-0.4-1.2c-0.4-0.1-1.3-0.7-2.1-3.1c-1,1.4-2.4,2.5-3.9,3.1c0,0,0.9,2.5-4.2,1.6
		c0,0-0.3,5.2,1.5,7.9c0,0,7.2-2.7,9.1-4.9c0,0-2.6,0.3-0.1-4.3L18.6,20.6z"/>
	<polyline class="st5" points="17.6,13.9 15.4,14.5 15.6,15 17.8,14.8 	"/>
	<path class="st5" d="M16.1,14.4c-0.3,1.6-0.3,3.1-0.2,4.7C16.1,20.4,12.3,13.7,16.1,14.4z"/>
	<line class="st6" x1="46.9" y1="38.5" x2="25.9" y2="6.4"/>
	<circle class="st2" cx="36.6" cy="22.5" r="0.5"/>
</g>
</svg>
