<?xml version="1.0" encoding="utf-8"?>
<!-- Generator: Adobe Illustrator 23.1.0, SVG Export Plug-In . SVG Version: 6.00 Build 0)  -->
<svg version="1.1" id="icons" xmlns="http://www.w3.org/2000/svg" xmlns:xlink="http://www.w3.org/1999/xlink" x="0px" y="0px"
	 viewBox="0 0 47 47" style="enable-background:new 0 0 47 47;" xml:space="preserve">
<style type="text/css">
	.st0{fill:#E6E6E6;}
	.st1{fill:#BC8F80;}
	.st2{fill:#9B7267;}
	.st3{fill:#DB4545;}
	.st4{fill:#BC3333;}
</style>
<g id="Playing_Catc">
	<ellipse class="st0" cx="23.7" cy="23.4" rx="23" ry="22.9"/>
	<path class="st1" d="M0.8,23.1c0.5-1.9,1.3-3.6,2.1-5.2c0.9-1.6,2.2-3.1,3.8-4.2c1.6-0.8,3.4-1.6,5.2-2c1.9-0.4,3.7-0.6,5.6-0.6
		c1.9-0.1,3.7,0,5.6,0c1.9,0,3.7-0.1,5.5-0.4c1.9-0.2,3.6-0.7,5.2-1.6c0.7-0.4,1.5-0.9,2.1-1.7c0.5-0.7,0.8-1.6,0.9-2.5l0,0
		c0,0.9-0.2,1.9-0.7,2.7c-0.5,0.7-1.3,1.5-2.1,2c-1.6,0.8-3.5,1.5-5.4,1.7c-2,0.2-3.7,0.4-5.6,0.2c-1.9,0-3.7-0.2-5.6-0.2
		s-3.5,0.2-5.3,0.5c-1.7,0.4-3.5,1.3-5,2.2C4.2,16.5,2.3,19.9,0.8,23.1L0.8,23.1z"/>
	<path class="st2" d="M11.3,42.4c3.4,0.4,6.8,0,10-1.2c3.3-1.3,6.1-3.3,8.3-5.8c1.3-1.3,2.2-2.6,3.5-3.8c1.2-1.3,2.5-2.5,3.7-3.5
		c1.4-1.2,2.8-2,4.6-2.6c0.8-0.4,1.7-0.5,2.6-0.6c0.8-0.1,1.7,0.1,2.5,0.6l0,0c-0.7-0.4-1.6-0.5-2.5-0.4c-0.8,0.1-1.6,0.4-2.3,0.7
		c-1.5,0.7-2.9,1.6-4.3,2.6c-1.4,1.2-2.6,2.2-3.7,3.4c-1.3,1.3-2.3,2.5-3.6,3.7c-2.5,2.5-5.4,4.4-8.4,6.1
		C18.3,42.9,14.6,43.3,11.3,42.4L11.3,42.4z"/>
	<path class="st3" d="M34.5,4.9c0.5,0.2,0.9,0.6,1.3,0.9c0.4,0.5,0.5,1.2,0.4,1.6L35.8,7c0.4-0.1,0.8-0.1,1.3-0.1s0.7,0.1,1.2,0.4
		c-0.4,0-0.7,0-1.2,0c-0.4,0-0.7,0.1-0.9,0.2l-0.5,0.2V7.4c0-0.2,0-0.4,0-0.6s-0.1-0.5-0.3-0.6C35.1,5.6,34.9,5.3,34.5,4.9z"/>
	<path class="st3" d="M32.3,6.7c0.5,0.4,0.7,0.8,0.9,1.5c0.1,0.2,0.1,0.6,0.1,0.8c0,0.4,0,0.6-0.1,0.8l-0.4-0.4
		c0.5-0.1,1.2-0.1,1.6,0c0.5,0.2,0.9,0.5,1.5,0.8c-0.5-0.1-0.9-0.1-1.5-0.2c-0.5,0-0.9,0-1.4,0.1l-0.6,0.1l0.1-0.5
		c0.1-0.2,0.1-0.5,0.1-0.7c0-0.2,0-0.5,0-0.7C32.8,7.8,32.5,7.1,32.3,6.7z"/>
	<path class="st3" d="M29.5,7.5c0.5,0.5,0.7,0.9,0.8,1.7c0,0.6-0.1,1.4-0.5,1.9l-0.2-0.5c0.2,0,0.6,0,0.8,0.1
		c0.2,0.1,0.5,0.2,0.6,0.4c0.4,0.4,0.7,0.7,0.8,1.3c-0.4-0.4-0.7-0.6-1.2-0.8c-0.2,0.1-0.4,0-0.6-0.1c-0.2,0-0.4-0.1-0.6-0.1h-0.6
		l0.2-0.5c0.2-0.5,0.5-0.9,0.5-1.5C30,8.8,29.9,8.2,29.5,7.5z"/>
	<path class="st3" d="M26.7,8.8c0.2,0.4,0.2,0.9,0.1,1.5c0,0.5-0.2,0.9-0.6,1.4v-0.5c0.4,0.4,0.6,0.7,0.9,1.2
		c0.2,0.4,0.5,0.8,0.5,1.4c-0.4-0.8-0.9-1.5-1.9-1.9l-0.2-0.4l0.4-0.2C26.6,10.6,26.9,9.6,26.7,8.8z"/>
	<path class="st3" d="M23.7,9.4c0.1,0.4,0.1,0.8,0,1.3c0,0.2-0.1,0.4-0.2,0.6c-0.1,0.2-0.4,0.4-0.5,0.5l0.1-0.5
		c0.4,0.4,0.6,0.7,0.7,1.3c0.2,0.5,0.2,0.9,0.2,1.5c-0.4-0.8-0.8-1.6-1.5-2.3l-0.2-0.4l0.4-0.1c0.1-0.1,0.2-0.1,0.4-0.2
		c0.1-0.1,0.2-0.2,0.2-0.4C23.3,10.2,23.5,9.8,23.7,9.4z"/>
	<path class="st3" d="M19.9,9.1C20,9.5,20,9.9,20,10.3c-0.1,0.4-0.2,0.7-0.6,1.2V11c0.2,0.5,0.2,0.9,0.4,1.5c0,0.5,0,0.9-0.2,1.5
		c-0.1-0.8-0.4-1.9-0.6-2.7v-0.1L19,11c0.2-0.2,0.4-0.5,0.6-0.7C19.8,9.9,19.9,9.5,19.9,9.1z"/>
	<path class="st3" d="M16.7,9c0.2,0.5,0.2,0.9,0.1,1.4c-0.1,0.2-0.1,0.5-0.4,0.6c-0.1,0.2-0.4,0.4-0.5,0.5l0.1-0.4
		c0.2,0.5,0.4,0.9,0.5,1.5c0.1,0.5,0,0.9-0.2,1.5c0-0.5-0.1-0.8-0.2-1.4c-0.1-0.4-0.2-0.8-0.5-1.3l-0.1-0.2l0.2-0.1
		c0.1-0.1,0.2-0.2,0.4-0.4c0.2-0.2,0.2-0.4,0.4-0.5C16.6,9.9,16.7,9.5,16.7,9z"/>
	<path class="st3" d="M12.7,9.2c0.2,0.4,0.5,0.8,0.5,1.4c0,0.2-0.1,0.5-0.1,0.7c-0.2,0.2-0.4,0.5-0.6,0.6l0.1-0.4
		c0.2,0.5,0.2,0.8,0.4,1.4c0,0.5,0,0.9-0.2,1.4c0-0.5,0-0.8-0.1-1.4c-0.2-0.2-0.4-0.7-0.6-1.2v-0.2l0.1-0.1c0.1-0.1,0.2-0.2,0.4-0.4
		c0.1-0.1,0.1-0.4,0.2-0.5C12.7,10.2,12.7,9.8,12.7,9.2z"/>
	<path class="st3" d="M9.3,9.9c0.4,0.4,0.6,0.9,0.6,1.4s-0.1,1.2-0.3,1.7v-0.2c0.2,0.4,0.4,0.7,0.5,1.3c0.1,0.4,0.1,0.8,0,1.4
		C10,14.8,9.9,14.4,9.7,14c-0.1-0.4-0.4-0.7-0.6-0.9L9,12.8l0.1-0.1c0.2-0.5,0.4-0.8,0.4-1.4C9.6,10.9,9.4,10.4,9.3,9.9z"/>
	<path class="st3" d="M6.3,11.3c0.4,0.2,0.7,0.7,0.8,1.3c0.1,0.5,0.1,1.2,0,1.6L7,13.8c0.4,0.4,0.7,0.7,0.9,1.2
		c0.2,0.5,0.2,0.9,0.2,1.5c0-0.3-0.3-0.7-0.6-1.1c-0.2-0.4-0.6-0.6-0.9-0.8l-0.1-0.1v-0.2c0.1-0.5,0.1-0.8,0.1-1.4
		C6.5,12.3,6.4,11.8,6.3,11.3z"/>
	<path class="st3" d="M3.7,13.5c0.4,0.2,0.7,0.6,0.9,1.2c0.2,0.5,0.2,0.9,0.2,1.5L4.8,16c0.4,0.4,0.7,0.7,0.9,1.2
		c0.4,0.4,0.5,0.8,0.5,1.4c-0.2-0.4-0.5-0.7-0.8-1.2c-0.2-0.2-0.6-0.6-0.9-0.8l-0.1-0.1v-0.3c0-0.5,0-0.8-0.1-1.3
		C4.2,14.4,4.1,13.9,3.7,13.5z"/>
	<path class="st3" d="M2.2,16.5c0.4,0,0.7,0.4,0.9,0.7c0.1,0.4,0.2,0.8,0.2,1.3v-0.3c0.4,0.2,0.7,0.5,0.9,0.8
		c0.2,0.4,0.5,0.7,0.6,1.2c-0.4-0.2-0.6-0.5-0.8-0.7c-0.5-0.4-0.7-0.6-1.2-0.7l-0.2-0.1v-0.2c0-0.4,0-0.6,0-0.9
		C2.7,16.9,2.4,16.7,2.2,16.5z"/>
	<path class="st3" d="M1.5,21c0.4,0.1,0.7,0.2,1.2,0.4c0.2,0.1,0.6,0.4,0.8,0.7c-0.5-0.4-1.3-0.6-1.9-0.5L1.5,21z"/>
	<path class="st3" d="M0.8,24.1c0.4,0,0.8,0,1.3,0c0.4,0.1,0.7,0.2,0.9,0.5c-0.6-0.4-1.4-0.4-2,0L0.8,24.1z"/>
	<path class="st4" d="M44.7,22.5c0.2,0.4,0.2,0.8,0.2,1.3c0,0.4-0.1,0.8-0.4,1.3l-0.1-0.4c0.4,0.2,0.6,0.5,0.7,0.8
		c0.2,0.4,0.2,0.7,0.1,1.2c-0.1-0.2-0.4-0.6-0.5-0.8c-0.2-0.2-0.5-0.4-0.7-0.6L43.8,25l0.1-0.2c0.1-0.4,0.2-0.7,0.4-0.9
		C44.6,23.4,44.7,22.9,44.7,22.5z"/>
	<path class="st4" d="M40.9,22.9c0.4,0.4,0.5,0.8,0.6,1.4c0,0.2,0,0.5,0,0.7s-0.1,0.5-0.4,0.7v-0.5c0.4,0.2,0.6,0.5,0.8,0.8
		c0.2,0.4,0.5,0.7,0.5,1.2c-0.5-0.5-1.2-0.9-1.7-1.5l-0.2-0.1l0.1-0.2c0.1-0.1,0.1-0.4,0.2-0.5c0-0.2,0.1-0.4,0.1-0.6
		C41.1,23.8,41.1,23.4,40.9,22.9z"/>
	<path class="st4" d="M37.9,23.8c0.5,0.4,0.7,0.8,0.8,1.5s0.1,1.2,0,1.7l-0.2-0.3c0.2,0.1,0.4,0.1,0.5,0.2c0.1,0.1,0.2,0.2,0.4,0.4
		c0.2,0.2,0.4,0.6,0.5,0.9c-0.2-0.2-0.5-0.5-0.8-0.6c-0.1-0.1-0.2-0.1-0.4-0.2c-0.2-0.1-0.2-0.1-0.4-0.1h-0.2V27
		c0.1-0.5,0.1-0.9,0.1-1.5C38.3,24.8,38.1,24.3,37.9,23.8z"/>
	<path class="st4" d="M35,25.6c0.2,0.2,0.4,0.5,0.5,0.7c0.1,0.2,0.2,0.6,0.2,0.8c0.1,0.6,0.1,1.3,0.1,1.9l-0.2-0.4
		c0.5,0,0.9,0.2,1.4,0.5c0.4,0.2,0.7,0.6,0.8,1.2c-0.4-0.4-0.7-0.6-1.2-0.7c-0.4-0.1-0.8-0.2-1.3-0.2h-0.2v-0.2c0-0.6,0-1.2,0-1.7
		C35.4,26.7,35.2,26.2,35,25.6z"/>
	<path class="st4" d="M32.1,27.2c0.5,0.5,0.8,1.2,1.2,1.9c0.2,0.7,0.4,1.5,0.4,2.2l-0.2-0.2c0.5,0.1,0.9,0.2,1.4,0.5
		c0.5,0.2,0.8,0.5,1.2,0.9c-0.4-0.2-0.7-0.5-1.3-0.6c-0.5-0.1-1.1-0.2-1.6-0.2h-0.2v-0.2c0-0.7-0.1-1.4-0.2-2.1
		C32.5,28.6,32.3,27.9,32.1,27.2z"/>
	<path class="st4" d="M30,30.7c0.5,0.2,0.8,0.6,1.2,1.2c0.2,0.5,0.5,0.9,0.6,1.5l-0.2-0.2c0.4,0.1,0.8,0.2,1.3,0.5
		c0.4,0.2,0.7,0.5,0.8,0.8c-0.6-0.4-1.4-0.7-2.2-0.8h-0.1v-0.1c-0.1-0.5-0.4-0.9-0.5-1.4C30.6,31.6,30.3,31.1,30,30.7z"/>
	<path class="st4" d="M27.5,33.2c0.5,0.1,0.9,0.5,1.3,0.9c0.4,0.5,0.5,0.9,0.6,1.5L29,35.5c0.5-0.1,0.9,0,1.6,0.1
		c0.5,0.1,0.9,0.4,1.3,0.7c-0.5-0.1-0.8-0.2-1.4-0.4c-0.5,0-0.8,0-1.4,0h-0.2v-0.2c-0.1-0.5-0.2-0.8-0.5-1.4
		C28.2,34,28,33.5,27.5,33.2z"/>
	<path class="st4" d="M25.7,35c0.5,0.4,0.7,0.8,0.9,1.4c0.2,0.5,0.2,1.2,0.2,1.8l-0.2-0.4c0.5,0,0.9,0.1,1.5,0.4
		c0.5,0.1,0.8,0.4,1.3,0.7c-0.8-0.2-1.9-0.5-2.7-0.5h-0.2v-0.2c0-0.5,0-0.9-0.1-1.5C26,36.1,25.8,35.6,25.7,35z"/>
	<path class="st4" d="M22.9,37c0.5,0.4,0.8,0.8,0.9,1.5c0.1,0.6,0.1,1.2,0.1,1.7l-0.3-0.3c0.5,0,0.8,0.1,1.4,0.2
		c0.4,0.1,0.7,0.5,0.9,0.7c-0.4-0.1-0.8-0.2-1.3-0.4c-0.4-0.1-0.7-0.1-1.2-0.1h-0.4v-0.2c0-0.5,0-1.2,0-1.6
		C23.1,38.1,23.1,37.5,22.9,37z"/>
	<path class="st4" d="M19.9,38.6c0.4,0.5,0.6,0.9,0.7,1.6c0.1,0.6,0,1.3-0.1,1.7l-0.2-0.4c0.5,0.1,0.9,0.2,1.5,0.5s0.8,0.6,1.2,0.9
		c-0.4-0.2-0.8-0.5-1.4-0.6c-0.5-0.1-0.8-0.2-1.4-0.2h-0.4l0.1-0.4c0.1-0.5,0.2-0.9,0.2-1.5C20.2,39.8,20.1,39.1,19.9,38.6z"/>
	<path class="st4" d="M16.7,39.5c0.2,0.5,0.5,1.2,0.5,1.6c0,0.2,0,0.6-0.1,0.8c-0.1,0.4-0.2,0.6-0.4,0.8l-0.1-0.5
		c0.5,0.2,0.8,0.5,1.3,0.8c0.4,0.2,0.7,0.6,0.9,1.2c-0.4-0.2-0.7-0.5-1.3-0.7l-1.3-0.5l-0.2-0.2l0.2-0.4c0.1-0.1,0.2-0.4,0.4-0.6
		c0.2-0.2,0.1-0.5,0.1-0.7C16.8,40.5,16.8,39.9,16.7,39.5z"/>
	<path class="st4" d="M12.6,42.5c0.2-0.4,0.4-0.8,0.5-1.3c0.1-0.5,0.1-0.8,0-1.4c0.2,0.5,0.4,0.9,0.2,1.4c0,0.5-0.1,0.9-0.2,1.4
		L12.6,42.5z"/>
	<path class="st4" d="M9.4,41.3C9.7,40.6,10,40,10,39.5c0.1,0.7,0.1,1.4,0,2.1L9.4,41.3z"/>
</g>
</svg>
