<?xml version="1.0" encoding="utf-8"?>
<!-- Generator: Adobe Illustrator 23.1.0, SVG Export Plug-In . SVG Version: 6.00 Build 0)  -->
<svg version="1.1" id="Layer_1" xmlns="http://www.w3.org/2000/svg" xmlns:xlink="http://www.w3.org/1999/xlink" x="0px" y="0px"
	 viewBox="0 0 47 47" style="enable-background:new 0 0 47 47;" xml:space="preserve">
<style type="text/css">
	.st0{fill:#FF7F00;}
	.st1{fill:#57290E;}
</style>
<title>basketball</title>
<g>
	<g id="icons">
		<g id="basketball">
			<circle class="st0" cx="23.7" cy="23.4" r="23.1"/>
			<path class="st1" d="M25.1,24.7c6.5,2.8,13.3,5.1,20.2,6.7c0.2-0.4,0.3-0.9,0.4-1.3c-7-1.6-13.7-3.9-20.2-6.7
				c1.2-2.6,2.3-5.2,3.3-7.8c2.9,0.8,6,1.2,9.1,1c2.5,0,5-0.5,7.3-1.5c-0.2-0.4-0.3-0.9-0.5-1.3c-2.2,1-4.6,1.4-7,1.4
				c-2.8,0.1-5.6-0.2-8.4-1c1.5-3.9,3-7.7,4.5-11.6C33.4,2.3,33,2.1,32.5,2l0,0c-1.3,4-2.8,7.9-4.5,12l-0.3-0.1
				c-3.2-1.1-6-2.7-8.6-4.9c-2.3-1.7-4-4-5.1-6.6c-0.3,0.2-0.8,0.4-1.2,0.7c1.1,2.5,2.8,4.7,4.9,6.5c2.7,2.5,6,4.5,9.5,5.6l0.3,0.1
				c-1.1,2.6-2.1,5.1-3.3,7.7C17,20,9.8,17,2.5,13.9c-0.1,0.2-0.2,0.4-0.2,0.5L2,15.1c7.2,3,14.4,6.1,21.7,9
				c-1.2,2.6-2.4,5.3-3.6,7.9c-5.9-2.2-12.3-2.4-18.3-0.7c0.1,0.4,0.3,0.9,0.5,1.3c5.6-1.5,11.6-1.3,17.2,0.7
				c-1.7,3.7-3.5,7.5-5.3,11.2l0.4,0.2c0.3,0.1,0.7,0.2,1,0.3c1.8-3.7,3.6-7.4,5.3-11.2l0.3,0.1c5,2.2,9.1,5.9,12.1,10.4
				c0.4-0.2,0.9-0.4,1.3-0.7c-3-4.7-7.3-8.5-12.3-10.9l-0.9-0.3C22.8,30,23.9,27.4,25.1,24.7z"/>
		</g>
	</g>
</g>
</svg>
