<?xml version="1.0" encoding="utf-8"?>
<!-- Generator: Adobe Illustrator 23.1.0, SVG Export Plug-In . SVG Version: 6.00 Build 0)  -->
<svg version="1.1" id="icons" xmlns="http://www.w3.org/2000/svg" xmlns:xlink="http://www.w3.org/1999/xlink" x="0px" y="0px"
	 viewBox="0 0 47 47" style="enable-background:new 0 0 47 47;" xml:space="preserve">
<style type="text/css">
	.st0{fill:#FFCF9F;}
	.st1{fill:#6E4020;}
	.st2{fill:#F2C394;}
	.st3{fill:#E6B07C;}
	.st4{fill:#3D4545;}
	.st5{fill:#F5C08C;}
	.st6{fill:#047985;}
	.st7{fill:#0593A1;}
	.st8{fill:#F6F6F6;}
	.st9{fill:#A15E2E;}
	.st10{fill:#884F27;}
	.st11{fill:#EC7500;}
	.st12{fill:#F68A21;}
</style>
<title>beachbody</title>
<g>
	<path class="st0" d="M25.6,10.2c-0.2,1.4-1,2.5-2.2,2.5c-1.2,0-1.9-1.1-2.2-2.5h-2.4l1.5,11.6l2.9,0.1l2.9-0.1l1.5-11.6
		C28,10.2,25.6,10.2,25.6,10.2z"/>
	<path class="st1" d="M27.3,4.7L27.3,4.7L27.3,4.7c0-0.3,0-0.4-0.1-0.6l0,0c-0.3,0.1-0.6,0.2-1,0.3c0,0.1,0,0.1,0,0.2
		c0,0.2,0,0.3,0,0.4c0.1-0.2,0.2-0.2,0.3-0.2c0.2,0,0.4,0.4,0.3,0.9c0,0.3-0.2,0.5-0.4,0.8h-0.1l0,0C26.2,7,26,7.5,25.7,8
		c-0.3,0.3-0.5,0.5-0.8,0.8l0,0v1.5c0.8,0,1.5,1.1,3.8-0.4c-0.4,0.1-1-0.2-0.6-0.3c0.6-0.1,1.3-0.4,1.9-1c-0.5,0.1-1.9-0.1-0.8-0.5
		C27.8,8.1,27.5,6.6,27.3,4.7z"/>
	<path class="st2" d="M22.2,8.9v1.4c0,0.1,0,0.2,0,0.2c0.1,0.6,0.5,1,1.1,1h0.2c0.5,0,1.1-0.4,1.2-1c0-0.1,0-0.2,0-0.2V8.9H22.2z"/>
	<rect x="21.5" y="10.2" class="st2" width="4.2" height="4.2"/>
	<g>
		<path class="st3" d="M13.8,6.8L12.1,7l-0.2-2.6c-0.3-0.1-0.4-0.3-0.6-0.8l-0.3-1.3c0.8-0.3,1.5-0.5,2.4-0.5l0.1,0.9l0.4-0.1l0,0
			v0.9c0,0.2-0.1,0.4-0.3,0.6l-0.3,0.1L13.8,6.8z"/>
		<g>
			<path class="st4" d="M14.3,2.7c-1.2,0.3-2.5,0.5-3.8,0.5l-0.1-0.8c1.2-0.3,2.6-0.5,3.8-0.5L14.3,2.7z"/>
			<path class="st4" d="M10.9,2.8c0.1,0.6-0.4,1.3-1.1,1.4C9.1,4.3,8.5,3.8,8.3,3.1s0.4-1.3,1.1-1.4C10.2,1.5,10.8,2,10.9,2.8
				L10.9,2.8z"/>
			<path class="st4" d="M16.2,1.9c0.1,0.6-0.4,1.3-1.1,1.4c-0.6,0.1-1.3-0.4-1.4-1.1s0.3-1.3,1.1-1.4C15.5,0.6,16.1,1.1,16.2,1.9
				L16.2,1.9z"/>
		</g>
		<path class="st5" d="M12.7,2.3c0,0.2,0.1,0.3,0.2,0.3H13c0.1,0,0.1,0,0.1-0.1s0-0.2,0-0.3V1.5c0-0.1,0-0.1-0.1-0.2
			c-0.1,0-0.1-0.1-0.2-0.1l0,0c-0.1,0.1-0.2,0.2-0.2,0.3l0,0L12.7,2.3z"/>
		<path class="st5" d="M12.1,2.4c0,0.2,0.2,0.3,0.3,0.3s0.2-0.2,0.2-0.3V1.5c0-0.1,0-0.1-0.1-0.2c-0.1,0-0.1-0.1-0.2,0l0,0
			c-0.1,0-0.3,0.1-0.3,0.2v0.1L12.1,2.4z"/>
		<path class="st5" d="M11.6,2.5c0,0.2,0.1,0.3,0.2,0.3h0.1c0.1,0,0.3-0.2,0.2-0.3L12,1.8c0-0.1-0.1-0.2-0.3-0.2l0,0
			c-0.1,0-0.1,0-0.2,0.1c0,0.1,0,0.1,0,0.2L11.6,2.5z"/>
		<path class="st5" d="M11,2.6c0,0.1,0.1,0.2,0.2,0.2l0,0c0.1,0,0.2-0.1,0.2-0.2l0,0V2c0-0.1-0.1-0.2-0.3-0.2H11
			c-0.1,0-0.2,0.1-0.2,0.2L11,2.6z"/>
		<path class="st0" d="M12.5,4.8l-0.1-0.6c-0.1-0.5,0.1-1.1,0.6-1.2c0,0,0.1-0.2,0-0.3l-0.2-0.2c-0.2-0.2-0.3-0.4-0.2-0.5l0,0
			c0.1-0.1,0.2-0.1,0.3,0l0,0l0.2,0.2l0.4,0.3l0.2,0.1l0,0v0.9c0,0.2-0.1,0.4-0.3,0.6l-0.3,0.2l0.5,2.5l-1,0.2L12.5,4.8z"/>
	</g>
	<g>
		<path class="st3" d="M33.3,6.8l1.5,0.3l0.2-2.6c0.3-0.1,0.4-0.3,0.6-0.8l0.4-1.4c-0.6-0.3-1.4-0.5-2.4-0.5l-0.1,0.9l-0.4-0.1l0,0
			v0.9c0,0.2,0.1,0.4,0.3,0.6L34,4.2L33.3,6.8z"/>
		<g>
			<path class="st4" d="M32.7,2.7c1.2,0.3,2.5,0.5,3.8,0.5l0.1-0.9c-1.2-0.3-2.5-0.5-3.7-0.5L32.7,2.7z"/>
			<path class="st4" d="M36,2.8c-0.1,0.6,0.4,1.3,1.1,1.4c0.6,0.1,1.3-0.4,1.4-1.1c0.1-0.6-0.3-1.3-1.1-1.4C36.9,1.5,36.2,2,36,2.8z
				"/>
			<path class="st4" d="M30.8,1.9c-0.1,0.6,0.4,1.3,1.1,1.4c0.6,0.1,1.3-0.4,1.4-1.1S32.8,1,32.2,0.9C31.6,0.6,31,1.1,30.8,1.9
				C30.9,1.9,30.9,1.9,30.8,1.9z"/>
		</g>
		<path class="st5" d="M34.4,2.3c0,0.2-0.1,0.3-0.2,0.3H34c-0.1,0-0.1,0-0.1-0.1s0-0.2,0-0.3V1.5c0-0.1,0-0.1,0.1-0.2
			c0.1,0,0.1-0.1,0.2-0.1h0.1c0.1,0,0.2,0.1,0.2,0.3L34.4,2.3z"/>
		<path class="st5" d="M35,2.4c0,0.1,0,0.1-0.1,0.2c-0.1,0.1-0.2,0.1-0.2,0.1c-0.1,0-0.2-0.2-0.2-0.3l0,0V1.5c0-0.1,0-0.1,0.1-0.2
			c0.1,0,0.1-0.1,0.2,0h0.1c0.1,0,0.2,0.1,0.2,0.3L35,2.4z"/>
		<path class="st5" d="M35.5,2.5c0,0.2-0.1,0.3-0.3,0.3l0,0c-0.1,0-0.1,0-0.2-0.1c0-0.1,0-0.1,0-0.2l0.1-0.6c0-0.1,0.1-0.2,0.3-0.2
			h0.1c0.1,0,0.1,0,0.2,0.1c0,0.1,0,0.1,0,0.2L35.5,2.5z"/>
		<path class="st5" d="M36,2.6c0,0.1-0.1,0.2-0.2,0.2l0,0c-0.1,0-0.2-0.1-0.2-0.3L35.7,2c0-0.1,0.1-0.2,0.3-0.2h0.1
			c0.2,0,0.3,0.1,0.3,0.2l0,0L36,2.6z"/>
		<path class="st0" d="M34.5,4.8l0.1-0.6c0.2-0.5-0.1-1.1-0.5-1.2C34,3,34,2.7,34,2.7l0.3-0.2c0.2-0.2,0.2-0.4,0.2-0.5l0,0
			c-0.1-0.1-0.2-0.1-0.2,0l0,0l-0.2,0.2l-0.4,0.3l-0.1,0.1l0,0v0.9c0,0.2,0.1,0.4,0.3,0.6L34,4.3l-0.5,2.5L34.3,7L34.5,4.8z"/>
	</g>
	<path class="st0" d="M13.5,44.7c-0.2,0.3-0.5,0.5-1,0.3c-0.2-0.1-0.3-0.3-0.4-0.5c1.1-5.9,1.4-10.1,4.3-11.7
		c0.5-0.3,1.2-0.3,1.8-0.1l0,0c0.6,0.3,1,1.2,0.5,1.9l0,0C17.1,39.7,14.6,42.8,13.5,44.7z"/>
	<path class="st0" d="M33.7,44.7c0.2,0.3,0.5,0.4,0.9,0.3c0.2-0.1,0.3-0.3,0.3-0.5c-1.1-5.9-1.3-10.1-4.3-11.7
		c-0.5-0.3-1.2-0.3-1.8-0.1l0,0c-0.6,0.3-1,1.2-0.5,1.9l0,0C29.7,38.2,31.4,41.6,33.7,44.7z"/>
	<path class="st0" d="M27.7,12.8l5.9-0.8c0.5-0.1,1-0.6,1-1.2l0,0l0,0c0-0.6-0.5-1.1-1.2-1l0,0l-6.2,0.4v2
		C27.2,12.7,27.4,12.9,27.7,12.8C27.7,12.9,27.7,12.9,27.7,12.8z"/>
	<path class="st0" d="M13.6,12.2L13.6,12.2c-0.6,0-1.1-0.4-1.1-1.1L12,4.5l1.3-0.3l1.4,6.8C14.7,11.5,14.3,12.2,13.6,12.2L13.6,12.2
		z"/>
	<path class="st0" d="M33.6,12.2L33.6,12.2c0.6,0,1.1-0.4,1.1-1.1l0.5-6.6l-1.3-0.3L32.5,11C32.3,11.5,32.9,12.2,33.6,12.2
		L33.6,12.2z"/>
	<g>
		<path class="st6" d="M13.4,45.9h-1l-0.1-1.7c0.1-0.4,1.2-0.4,1.2,0.1L13.4,45.9z"/>
		<path class="st7" d="M14.6,46.2c0,0.1,0,0.1-0.1,0.2c-1.2,0.3-2.5,0.3-3.6,0l0,0c-0.3-0.5,0.3-1.7,1.3-2.5
			c0.1,0.1,0.2,0.2,0.3,0.2c0.1,0.1,0.2,0.2,0.2,0.4c0,0.5-0.1,1,0.2,1s0.2-0.4,0.2-1c0-0.2,0.1-0.3,0.3-0.3c0.1,0,0.2-0.1,0.3-0.2
			C14.3,44.8,14.5,45.6,14.6,46.2z"/>
		<path class="st8" d="M13.3,45.6c-0.3,0-0.5,0-0.9,0c0,0-0.1,0-0.1-0.1l0,0l0,0c0-0.1,0-0.1,0.1-0.1l0,0c0.3,0,0.6,0,1,0
			c0.1,0,0.1,0.1,0.1,0.1l0,0C13.4,45.6,13.4,45.6,13.3,45.6z"/>
		<path class="st8" d="M13.3,45.2c-0.3-0.1-0.5-0.1-0.9,0c-0.1,0-0.1,0-0.1-0.1l0,0c0,0,0-0.1,0.1-0.1l0,0c0.3,0,0.6,0,1,0
			c0.1,0,0.1,0.1,0.1,0.1l0,0l0,0C13.4,45.2,13.4,45.2,13.3,45.2z"/>
		<path class="st8" d="M13.3,44.9c-0.3-0.1-0.5-0.1-0.9,0c-0.1,0-0.1,0-0.1-0.1l0,0c0,0,0-0.1,0.1-0.1l0,0c0.3-0.1,0.6-0.1,1,0
			c0.1,0,0.1,0.1,0.1,0.1l0,0l0,0C13.4,44.9,13.4,44.9,13.3,44.9z"/>
	</g>
	<g>
		<path class="st6" d="M33.8,45.9h1v-1.7c-0.1-0.4-1.2-0.4-1.2,0.1L33.8,45.9z"/>
		<path class="st7" d="M32.5,46.2c0,0.1,0,0.1,0.1,0.2c1.2,0.3,2.5,0.3,3.6,0l0,0c0.3-0.5-0.3-1.7-1.3-2.5c-0.1,0.1-0.2,0.2-0.3,0.2
			c-0.1,0.1-0.2,0.2-0.2,0.4c0,0.5,0.1,1-0.2,1S34,45.2,34,44.7c0-0.2-0.1-0.3-0.3-0.3c-0.1,0-0.2-0.1-0.3-0.2
			C32.9,44.8,32.5,45.6,32.5,46.2z"/>
		<path class="st8" d="M33.8,45.6c0.3,0,0.5,0,0.9,0c0.1,0,0.1,0,0.1-0.1l0,0c0-0.1,0-0.1-0.1-0.1c-0.3,0-0.6,0-1,0
			c-0.1,0-0.1,0.1-0.1,0.1l0,0l0,0C33.7,45.6,33.8,45.6,33.8,45.6L33.8,45.6z"/>
		<path class="st8" d="M33.8,45.2c0.3-0.1,0.5-0.1,0.9,0c0.1,0,0.1,0,0.1-0.1l0,0c0-0.1,0-0.1-0.1-0.1l0,0c-0.3-0.1-0.6-0.1-1,0
			c0,0-0.1,0-0.1,0.1l0,0l0,0C33.7,45.2,33.8,45.2,33.8,45.2z"/>
		<path class="st8" d="M33.8,44.9c0.3-0.1,0.5-0.1,0.9,0c0.1,0,0.1,0,0.1-0.1l0,0l0,0c0-0.1,0-0.1-0.1-0.1c-0.3-0.1-0.6-0.1-1,0
			c0,0-0.1,0-0.1,0.1l0,0l0,0C33.7,44.9,33.8,44.9,33.8,44.9z"/>
	</g>
	<path class="st9" d="M19.9,4.6V4.3V4.6z"/>
	<path class="st10" d="M28.5,2.4C28.7,2,28.9,1.5,29,1.1c-0.4,0.4-1,0.5-1.5,0.4c0,0,0.2-0.3,0.1-0.3c-0.5,0.1-1.1,0.1-1.5,0l0,0
		C25.7,1.1,25.3,1,24.9,1c0.2-0.2,0-0.6,0-0.5c-0.3,0.4-0.8,0.4-1.8,0.6c-1.7,0.1-3,1.3-3.3,3c0,0.1,0,0.1,0,0.2l0,0v0.3l0,0l0,0
		v0.1c-0.3,2.7,0.8,4.4,2.6,5.2V8.8l0,0c-0.2-0.2-0.4-0.4-0.8-0.8c-0.3-0.4-0.5-0.9-0.6-1.4l0,0h-0.1c-0.2-0.1-0.4-0.4-0.4-0.8
		c-0.1-0.4,0-0.8,0.2-0.9c0.1,0,0.2,0,0.2,0.1c0-0.1,0-0.3,0-0.4c0-0.3,0.1-0.6,0.1-0.9c0-0.2,0.1-0.4,0.2-0.5
		c1.7-0.3,3.2,1.5,5.1,1.3c0.3,0,0.6-0.1,1-0.3l0,0c0.8-0.4,1.3-1,1.9-1.7C29,2.5,28.5,2.5,28.5,2.4z"/>
	<path class="st0" d="M26.6,4.8c-0.1,0-0.2,0-0.2,0.1c0-0.1,0-0.2,0-0.4c0-0.1,0-0.1,0-0.2c-1.9,0.2-3.4-1.5-5.1-1.3
		c-0.1,0.2-0.2,0.3-0.2,0.5s-0.1,0.5-0.1,0.9c0,0.1,0,0.3,0,0.4c-0.1,0-0.2-0.1-0.3,0c-0.2,0-0.4,0.4-0.3,0.9c0,0.3,0.2,0.5,0.4,0.6
		h0.1l0,0c0.1,0.5,0.3,1.1,0.6,1.5c0.3,0.3,0.5,0.5,0.8,0.8l0,0c0.2,0.5,0.8,0.8,1.3,0.8l0,0c0.4,0,0.9-0.2,1.2-0.5
		c0.2-0.2,0.4-0.4,0.8-0.8c0.3-0.4,0.5-1,0.6-1.5l0,0h0.1c0.3-0.2,0.5-0.5,0.5-0.8C26.9,5.4,26.8,5.1,26.6,4.8z"/>
	<path class="st11" d="M27.3,15.8l-0.2,1.5c-2.4,0.6-4.7,0.6-7.1,0l-0.2-1.5c0.4,0.4,1,0.6,1.5,0.6c1.1,0.1,2.2-0.8,2.3-1.9l0,0
		c0.1,1.1,1,2,2.2,1.9C26.3,16.5,26.9,16.3,27.3,15.8z"/>
	<path class="st12" d="M28.1,10.2l-0.4,3.3l-0.3,2.3c-0.4,0.4-1,0.6-1.5,0.6c-1.1,0.1-2.2-0.8-2.2-1.9c-0.1,1.1-1,2-2.3,1.9l0,0
		c-0.5,0-1.1-0.2-1.5-0.5l-0.3-2.3l-0.4-3.3h2.5c0.2,1.4,1,2.5,2.2,2.5c1.1,0,1.9-1.1,2.2-2.5h2.4C28.1,10.3,28.1,10.2,28.1,10.2z"
		/>
	<path class="st0" d="M19.2,12.8l-5.8-0.8c-0.5-0.1-1-0.5-1-1.2l0,0l0,0c0-0.6,0.5-1.1,1.2-1l0,0l6.8,0.4
		C20.5,10.2,21.2,12.6,19.2,12.8z"/>
	<path class="st7" d="M23.5,26.3l-4.4,8c-0.8,1.3-3.2,0.9-2.9-1.4c0-4.2,1.5-8.4,4.3-11.6c1.9,0.8,4.1,0.8,6,0
		c2.7,3.2,4.2,7.3,4.3,11.6c0.3,2.4-2,2.8-2.8,1.4L23.5,26.3z"/>
	<path class="st12" d="M23.6,15.1c0,1.1-1,2-2.2,1.9l0,0c-0.5,0-1.1-0.2-1.5-0.6c-0.3-0.3-0.5-0.8-0.5-1.3c0-0.3,0.1-0.6,0.2-0.9
		c0.3-0.6,1.1-1,1.8-1C22.6,13,23.5,13.9,23.6,15.1L23.6,15.1z"/>
	<path class="st12" d="M27.6,15.1c0,0.4-0.2,1-0.5,1.3c-0.4,0.4-0.9,0.6-1.4,0.6c-1.1,0.1-2-0.6-2.2-1.8c-0.1-1.2,0.6-2,1.8-2.2
		c0.1,0,0.2,0,0.3,0c0.6,0,1.4,0.3,1.8,1C27.5,14.3,27.6,14.6,27.6,15.1z"/>
	<path class="st0" d="M27.8,12.8l5.8-0.8c0.5-0.1,1-0.6,1-1.2l0,0l0,0c0-0.6-0.5-1.1-1.2-1l0,0l-6.8,0.4
		C26.7,10.2,25.9,12.6,27.8,12.8z"/>
</g>
</svg>
