<?xml version="1.0" encoding="utf-8"?>
<!-- Generator: Adobe Illustrator 23.1.0, SVG Export Plug-In . SVG Version: 6.00 Build 0)  -->
<svg version="1.1" id="icons" xmlns="http://www.w3.org/2000/svg" xmlns:xlink="http://www.w3.org/1999/xlink" x="0px" y="0px"
	 viewBox="0 0 47 47" style="enable-background:new 0 0 47 47;" xml:space="preserve">
<style type="text/css">
	.st0{fill:#686868;}
	.st1{fill:#3A3A3A;}
	.st2{fill:#C9C9C9;}
	.st3{fill:#3C3C3B;}
	.st4{fill:#8C8C8C;}
	.st5{fill:#DADADA;}
	.st6{fill:#E35300;}
	.st7{fill:#F07934;}
</style>
<title>Bicycling</title>
<g id="Bicycling">
	<g>
		<path class="st0" d="M22.4,26.1l0.8,1.4l1.1,2.3c0.1,0.1,0.2,0.2,0.3,0.2s0.1,0,0.1,0c0.2-0.1,0.2-0.3,0.2-0.5l-1.1-2.3l-0.5-1.1
			H22.4z"/>
		<path class="st1" d="M23.9,26.1c0.2,0,0.3-0.1,0.3-0.3l0,0c0-0.2-0.1-0.4-0.3-0.4h-2.4c-0.2,0-0.3,0.1-0.3,0.3
			c0,0.2,0.1,0.3,0.3,0.3L23.9,26.1L23.9,26.1z"/>
	</g>
	<g>
		<path class="st2" d="M26.9,30.1c0,1.4-1.1,2.5-2.5,2.5c-1.4,0.1-2.5-1.1-2.5-2.5c0-1.4,1.1-2.5,2.5-2.5l0,0
			C25.8,27.6,26.9,28.8,26.9,30.1L26.9,30.1z"/>
		<path class="st3" d="M24.4,32.7c-1.4,0.1-2.6-1-2.8-2.5c-0.1-1.4,1.1-2.7,2.5-2.8c0.1,0,0.2,0,0.3,0v0.2c-1.4-0.1-2.5,0.9-2.5,2.2
			c-0.1,1.4,0.9,2.5,2.2,2.5c0.1,0,0.2,0,0.2,0v0.4H24.4z"/>
		<path class="st2" d="M36.7,30.1c0.1-1,1-1.6,1.8-1.5c0.9,0.1,1.4,0.8,1.5,1.5c0.1,1-0.5,1.7-1.5,1.8c-1,0.1-1.7-0.5-1.8-1.5
			C36.7,30.3,36.7,30.2,36.7,30.1z"/>
		<path class="st3" d="M38.5,31.9v-0.2c0.9,0.1,1.6-0.5,1.7-1.4s-0.5-1.6-1.4-1.7c-0.1,0-0.1,0-0.2,0v-0.2c1,0.1,1.7,1,1.7,2.1
			C40.1,31.2,39.3,31.9,38.5,31.9z"/>
		<polygon class="st3" points="38.5,28.5 24.4,27.7 24.4,27.5 38.5,28.2 		"/>
		<polygon class="st3" points="24.4,32.7 24.4,32.5 38.5,31.6 38.5,31.9 		"/>
	</g>
	<g>
		<path class="st4" d="M33,25.4l4.8,4.1l-6.2-1.3c0,0.1-0.1,0.1-0.1,0.2c0,0.1,0,0.1,0,0.2l6.2,1.3l-3.7,1.2l-2.3,0.8
			c0,0.1,0.1,0.2,0.1,0.5l2.9-1l3-1.1l-1.4,1.8l-2.8,3c0.1,0.1,0.2,0.2,0.3,0.2l2.9-3.2l1.3-1.4l-0.4,1.7L36.7,37l0.2,0.1h0.2
			l0.9-4.4l0.3-1.8l0.8,2.3l1.3,3.8l0.4-0.1l-1-3.2L39,30.9l4.4,3.9l0.3,0.3c0.1-0.1,0.1-0.1,0.1-0.1c0.1-0.1,0.1-0.1,0.2-0.2
			l-4.8-4.1l6.2,1.2c0-0.1,0-0.1,0-0.2c0-0.1,0-0.1,0-0.2l-6.2-1.3l6.1-2.2c0-0.1-0.1-0.2-0.1-0.5l-6,2.1l4.2-4.8l-0.3-0.2l-4.1,4.8
			l1.3-6.2L40.2,23c-0.1,0-0.1,0-0.2,0l-1.3,6.2l-2.1-6.1c-0.1,0-0.2,0.1-0.4,0.1l1.4,4.2l1.1,1.5l0.2,0.3l0.1,0.2l0.1,0.1l0,0
			c0.1,0.1,0.1,0.2,0,0.3c0,0.1,0,0.1,0,0.2l0,0l0,0c-0.1,0-0.1,0-0.2,0s-0.1,0-0.2-0.1c-0.1,0-0.1,0-0.1-0.1v0.2l-0.3-0.8l-1.1-1.3
			L33.6,25C33.1,25.2,33,25.3,33,25.4z"/>
		<path class="st5" d="M31.8,26.9c1.7-3.7,6.2-5.3,9.8-3.6c3.7,1.7,5.3,6.2,3.6,9.8c-1.7,3.7-6.2,5.3-9.8,3.6
			c-1.2-0.5-2.2-1.4-2.9-2.5C30.8,32.1,30.6,29.3,31.8,26.9z M33.5,33.5c2.1,2.8,5.7,3.5,8.5,1.5c2.8-1.9,3.5-5.7,1.5-8.5
			c-1.9-2.8-5.7-3.5-8.4-1.5c-0.9,0.5-1.5,1.4-2.1,2.4C32,29.5,32.2,31.8,33.5,33.5z"/>
		<path class="st3" d="M30.9,26.5c2.1-4.1,6.9-6,11-3.9s6,6.9,3.9,11s-6.9,6-11,3.9c-1.4-0.5-2.5-1.5-3.2-2.8
			C30,32.3,29.7,29.2,30.9,26.5z M32.5,34.3c2.4,3.2,6.8,4.1,10.1,1.7c3.2-2.4,4.1-6.8,1.7-10.1s-6.8-4.1-10.1-1.7
			c-1.1,0.8-1.8,1.7-2.5,2.9C30.7,29.3,31,32.1,32.5,34.3z"/>
	</g>
	<path class="st6" d="M7.3,21.3c3-0.3,6.2,1.1,7.9,3.6c1.5,2.4,2.1,5.4,1.1,8.2c-0.2,0.5,0.1,1.3,0.5,1.6l0,0
		c0.1-0.2,0.2-0.3,0.2-0.5c2.3-5,0-10.8-5-13.1C9.7,20,7,19.9,4.6,20.8l0,0c0.3,0.5,1,0.9,1.5,0.8C6.7,21.4,7,21.3,7.3,21.3z"/>
	<path class="st6" d="M39.7,21.3c-3-0.5-6.2,0.8-8.1,3.2c-1.6,2.4-2.2,5.3-1.4,8.1c0.1,0.5-0.1,1.3-0.8,1.5l0,0
		c-0.1-0.2-0.1-0.3-0.2-0.5c-2.1-4.9,0.4-10.7,5.5-12.8c2.5-1,5.2-1,7.6,0.1l0,0c-0.2,0.5-0.9,0.9-1.5,0.8
		C40.5,21.5,40.1,21.4,39.7,21.3z"/>
	<path class="st4" d="M31.6,14.6l-1.1,2.2h0.2c0.1,0,0.2,0.1,0.2,0.1l0,0L31,17l1.2-2.4L31.6,14.6L31.6,14.6z"/>
	<path class="st1" d="M28.1,13.7c0,0.3,1.5,0.8,3.6,0.8h0.9c1.7,0,1.7,0.2,2.4,0c0.3-0.1,2.2-2.1-0.1-2.1S28.1,13.4,28.1,13.7z"/>
	<g>
		<path class="st4" d="M9.2,22.9l-1.1,6.2l-2.2-5.8l-0.2,0.1l-0.2,0.1l2.2,6l-3-2.5l-1.8-1.5c-0.1,0-0.2,0.2-0.2,0.3l2.4,2.1L7.4,30
			l-2.2-0.3l-4-0.8c0,0.1,0,0.3-0.1,0.5l4.2,0.8l2.1,0.2l-1.7,0.5l-4.3,1.4c0,0.1,0,0.1,0.1,0.2s0.1,0.1,0.1,0.2l4.1-1.5l1.7-0.8
			l-1.5,1.8l-2.5,3c0.1,0.1,0.2,0.2,0.3,0.2L6,33l1.7-2.2l-1,5.7l-0.1,0.5h0.2h0.4l1.1-6.2l2.2,6l0.2-0.1l0.2-0.1l-2.3-6l4.9,3.9
			c0-0.1,0-0.1,0.1-0.2l-4.8-3.9l6.2,1.1c0-0.1,0.1-0.3,0.1-0.5L9,30l6.1-2.2c0-0.1,0-0.1-0.1-0.2c-0.1-0.1-0.1-0.1-0.1-0.2l-6,2.2
			l4-4.9l-0.2-0.2l-3,3.6l-0.9,1.7l-0.1,0.3l0,0.1l-0.1,0.1l0,0c-0.1,0.1-0.1,0.2-0.2,0.2c-0.1,0-0.1,0-0.1,0H8.2l0,0
			c-0.1,0-0.1-0.1-0.1-0.1c0-0.1,0-0.1,0-0.2c0-0.1,0-0.1,0-0.1V30l0.2-0.8L9,27.7l0.8-4.8C9.6,22.9,9.4,22.9,9.2,22.9z"/>
		<path class="st5" d="M7.3,22.7c4-0.5,7.8,2.4,8.2,6.4c0.5,4-2.4,7.8-6.4,8.2c-4.1,0.4-7.8-2.4-8.3-6.5c-0.1-1.3,0-2.6,0.5-3.8
			C2.4,24.8,4.7,23.2,7.3,22.7z M2.6,27.6c-1.4,3.1,0.1,6.8,3.2,8.1s6.7-0.1,8.1-3.2s-0.2-6.7-3.2-8c-1-0.4-2.2-0.5-3.1-0.4
			C5.4,24.2,3.4,25.6,2.6,27.6z"/>
		<path class="st3" d="M7.2,22c4.5-0.5,8.5,2.6,9.2,7.1c0.5,4.5-2.6,8.5-7.1,9.2c-4.5,0.5-8.7-2.7-9.2-7.1c-0.1-1.4,0-2.9,0.5-4.1
			C1.8,24.1,4.3,22.3,7.2,22z M1.5,27.3c-1.5,3.7,0.2,7.9,3.9,9.5s8-0.1,9.5-3.8s-0.2-8-3.9-9.5c-1.2-0.5-2.5-0.8-3.8-0.5
			C4.7,23.2,2.6,24.9,1.5,27.3L1.5,27.3z"/>
	</g>
	<path class="st7" d="M8.3,30.6c-0.1,0-0.1,0-0.2,0c-0.2-0.1-0.3-0.3-0.2-0.5l0,0l2.8-6.4l2.3-12.4c0.1-0.2,0.2-0.4,0.5-0.3
		c0.2,0.1,0.4,0.2,0.3,0.5l-2.4,12.2v0.1l-2.7,6.4C8.6,30.5,8.4,30.6,8.3,30.6z"/>
	<path class="st7" d="M38.5,30.6H24.4c-0.1,0-0.2-0.1-0.2-0.1L11.4,19.6c-0.1-0.1-0.2-0.2-0.1-0.4l0.3-1.6c0.1-0.2,0.2-0.3,0.5-0.3
		h18.6c0.1,0,0.2,0.1,0.4,0.2L39,29.9c0.2,0.2,0.1,0.5,0,0.8C38.7,30.5,38.7,30.6,38.5,30.6L38.5,30.6z M24.6,29.6h13L30.5,18H12.4
		l-0.1,0.9L24.6,29.6z"/>
	<path class="st7" d="M31,15.5l-7,14.4c-0.1,0.2,0,0.5,0.2,0.8l0,0c0.1,0,0.1,0,0.2,0c0.1,0,0.3-0.1,0.4-0.2l7.2-14.8H31V15.5z"/>
	<path class="st7" d="M15,11.9h-1.7c-0.2,0-0.5-0.2-0.5-0.5c0-0.3,0.2-0.5,0.5-0.5H15c0.2,0,0.3-0.1,0.4-0.2L16,9.7
		C16.2,9.3,16.7,9,17.3,9h2.5c0.2,0,0.5,0.2,0.5,0.5c0,0.2-0.2,0.5-0.5,0.5l0,0h-2.5c-0.1,0-0.2,0.1-0.3,0.2l-0.6,0.9
		C16,11.6,15.5,11.9,15,11.9z"/>
	<path class="st1" d="M21.4,9.6c0,0.3-0.3,0.8-0.9,0.8h-2.4c-0.5,0-0.9-0.2-0.9-0.8l0,0c0-0.3,0.3-0.8,0.9-0.8h2.4
		C20.9,9,21.4,9.2,21.4,9.6z"/>
	<path class="st2" d="M37.1,30.1c0-0.8,0.5-1.4,1.4-1.4c0.8,0,1.4,0.5,1.4,1.4c0,0.8-0.5,1.4-1.4,1.4C37.7,31.4,37.1,30.8,37.1,30.1
		L37.1,30.1z"/>
	<g>
		<path class="st0" d="M26.7,33.5l-0.8-1.4l-1.1-2.3c-0.1-0.1-0.2-0.2-0.3-0.2c-0.1,0-0.1,0-0.1,0c-0.2,0.1-0.2,0.3-0.2,0.5l1.1,2.3
			l0.5,1.1H26.7z"/>
		<path class="st1" d="M25.3,33.5C25.1,33.6,25,33.8,25,34c0,0.1,0.1,0.2,0.3,0.3h2.4c0.2,0,0.4-0.2,0.4-0.4l0,0
			c0-0.2-0.1-0.3-0.3-0.3l0,0C27.5,33.5,25.3,33.5,25.3,33.5z"/>
	</g>
</g>
</svg>
