<?xml version="1.0" encoding="utf-8"?>
<!-- Generator: Adobe Illustrator 23.1.0, SVG Export Plug-In . SVG Version: 6.00 Build 0)  -->
<svg version="1.1" id="icons" xmlns="http://www.w3.org/2000/svg" xmlns:xlink="http://www.w3.org/1999/xlink" x="0px" y="0px"
	 viewBox="0 0 43.9 43.9" style="enable-background:new 0 0 43.9 43.9;" xml:space="preserve">
<style type="text/css">
	.st0{fill:#9D9D9D;}
	.st1{fill:#3E494D;}
	.st2{fill:#C8C8C8;}
	.st3{fill:#4DB3C5;}
	.st4{opacity:0.2;enable-background:new    ;}
	.st5{fill:#2A3B44;}
	.st6{fill:#96969A;}
	.st7{opacity:0.3;fill:#FFFFFF;enable-background:new    ;}
	.st8{fill:#616161;}
</style>
<title>Bicycling Dual Action</title>
<g id="dual_bycicle">
	<circle class="st0" cx="15.7" cy="35" r="0.9"/>
	<path class="st0" d="M13.7,18.4c0,0,2-6.7-1.1-13L13.8,5c0,0,3,7.3,1,13.2L13.7,18.4z"/>
	<g>
		<rect x="17.7" y="6.8" class="st1" width="1.1" height="1.2"/>
		<g>
			<path class="st2" d="M19.6,8.5c-0.2,0-0.4-0.1-0.5-0.2l-2.3-2.4c-0.3-0.3-0.3-0.7,0-1c0.3-0.3,0.7-0.3,1,0l2.3,2.4
				c0.3,0.3,0.3,0.7,0,1C19.9,8.4,19.7,8.5,19.6,8.5z"/>
			<rect x="18.6" y="4.9" transform="matrix(0.7142 -0.6999 0.6999 0.7142 0.9309 14.974)" class="st3" width="0.5" height="3"/>
		</g>
		<polygon class="st2" points="20,8.3 19.7,9.1 13.4,25.2 12.8,26.9 10,25.8 10.4,24.8 14.8,13.6 15.2,12.5 16.5,9.1 16.8,8.3 
			16.8,8.3 		"/>
		<polygon class="st2" points="38.2,18.3 38.1,18.4 38,18.7 36.6,23.2 36.5,23.8 34.1,23.5 34.4,22.7 35.8,18.7 35.9,18.4 36,18.3 
					"/>
		<polygon class="st4" points="20,8.3 19.7,9.1 16.5,9.1 16.8,8.3 		"/>
		<rect x="12.3" y="7.9" class="st1" width="7.9" height="0.8"/>
		<rect x="36.2" y="16.7" class="st5" width="2" height="1.1"/>
		<polygon class="st6" points="30.2,27.3 30.8,28 32.8,25.9 32.1,25.3 		"/>
		<polygon class="st4" points="13.4,25.2 12.8,26.9 10,25.8 10.4,24.8 		"/>
		<path class="st1" d="M6.7,35.7c-0.2-3,1.6-8.3,2.9-10.3l3.9,0.6c0.3,1.3,0.7,4.6,2.1,5.4C14.2,32.4,6.7,35.7,6.7,35.7z"/>
		<path class="st7" d="M10.7,25.6l-1.1-0.2c-1.1,2-2.8,7.3-2.6,10.3l1.1-0.5C8.5,31.9,9.4,28.6,10.7,25.6z"/>
		<path class="st8" d="M30.9,28.5L30.9,28.5c-0.2-0.1-0.3-0.2-0.2-0.3l0.6-1.6c0.1-0.1,0.2-0.2,0.3-0.2c0.1,0,0.2,0.2,0.2,0.3
			c0,0,0,0,0,0l-0.6,1.6C31.1,28.4,31,28.5,30.9,28.5z"/>
		<path class="st2" d="M40.1,18.6c0,0.1,0,0.1,0,0.2c-0.2,0.2-0.5,0.4-0.8,0.3c-0.3,0-0.6-0.1-0.8-0.3c0-0.1-0.1-0.1-0.1-0.2
			c0,0,0-0.1,0-0.1c0.2-0.3,0.5-0.4,0.8-0.4c0.3,0,0.6,0.1,0.8,0.4C40.1,18.5,40.1,18.5,40.1,18.6z"/>
		<path class="st2" d="M39.2,32.1c-1.8,0.6-2.8,4.1-1.4,7.2c0,0.1,0.1,0.2,0.1,0.3c-1.1,0-2.3,0.8-2.4,2.8H5.6v-6.2
			c3.6-2.9,15.2-7.3,18.5-8.1c5-0.8,10-1,15-0.8C39.2,28.8,39.3,30.4,39.2,32.1z"/>
		<polygon class="st4" points="36.6,23.2 36.5,23.8 34.1,23.5 34.4,22.7 		"/>
		<path class="st1" d="M31.4,27.5l2.6-4.3l2.7,0.7c0,0,0,2.8,0.7,3.7L31.4,27.5z"/>
		<polygon class="st4" points="35.9,18.4 38.1,18.4 38,18.7 35.8,18.7 		"/>
		<path class="st4" d="M40.1,18.6c0,0.1,0,0.1,0,0.2h-1.6c0-0.1-0.1-0.1-0.1-0.2c0,0,0-0.1,0-0.1H40C40,18.5,40.1,18.5,40.1,18.6z"
			/>
		<rect x="34.7" y="17.7" class="st5" width="5.5" height="0.9"/>
		<g>
			<path class="st1" d="M32.7,35.2c0,3-2.4,5.4-5.4,5.4s-5.4-2.4-5.4-5.4c0-3,2.4-5.4,5.4-5.4C30.2,29.8,32.6,32.2,32.7,35.2
				C32.7,35.2,32.7,35.2,32.7,35.2z"/>
			<path class="st6" d="M27.2,41.1c-3.2,0-5.8-2.6-5.8-5.8c0-3.2,2.6-5.8,5.8-5.8c3.2,0,5.8,2.6,5.8,5.8
				C33,38.5,30.4,41.1,27.2,41.1z M27.2,30.2c-2.8,0-5.1,2.3-5.1,5.1c0,2.8,2.3,5.1,5.1,5.1c2.8,0,5.1-2.3,5.1-5.1c0,0,0,0,0,0
				C32.2,32.5,30,30.2,27.2,30.2L27.2,30.2z"/>
		</g>
		<path class="st6" d="M27.2,36.8c-0.9,0-1.6-0.7-1.6-1.6c0-0.9,0.7-1.6,1.6-1.6c0.9,0,1.6,0.7,1.6,1.6c0,0,0,0,0,0
			C28.8,36.1,28.1,36.8,27.2,36.8C27.2,36.8,27.2,36.8,27.2,36.8z M27.2,33.9c-0.7,0-1.3,0.6-1.3,1.3c0,0.7,0.6,1.3,1.3,1.3
			s1.3-0.6,1.3-1.3l0,0C28.5,34.5,27.9,33.9,27.2,33.9z"/>
		<path class="st2" d="M33.3,17.4c0.1,0.7,1.2,0.3,2,0c1-0.3,2-0.4,3.1-0.6c0.3,0,1.4-0.3,1.4-1.1s0.1-2-0.9-1.9
			c-1.1,0.1-2.2,1.7-3.1,1.9C34.7,16,33.1,16.7,33.3,17.4z"/>
		<path class="st4" d="M37.8,39.5c-1.1,0-2.3,0.8-2.4,2.8h-0.1c-0.1-0.3-0.2-0.6-0.2-0.9c0-1.2,1-2.2,2.2-2.2c0,0,0,0,0,0h0.3
			C37.7,39.3,37.8,39.4,37.8,39.5z"/>
		<path class="st1" d="M39.4,41.5c0,1.1-0.9,2-2,2c-1.1,0-2-0.9-2-2c0-1.1,0.9-2,2-2h0C38.5,39.5,39.4,40.4,39.4,41.5z"/>
		<path class="st4" d="M7.9,41.5c0,0.3-0.1,0.6-0.2,0.9H5.6v-3.1C6.9,39.2,7.9,40.2,7.9,41.5L7.9,41.5z"/>
		<path class="st1" d="M7.6,41.5c0,1.1-0.9,2-2,2s-2-0.9-2-2c0-1.1,0.9-2,2-2c0,0,0,0,0,0C6.7,39.5,7.6,40.4,7.6,41.5z"/>
		<path class="st4" d="M18,13c0,0.3-0.2,0.6-0.5,0.6c0,0,0,0,0,0c-0.1,0-0.9,0-1.6,0c-0.4,0-0.7,0-1.1,0h-0.1l0.4-1.1
			c0.7,0,1.5,0,2.2,0C17.7,12.5,17.9,12.7,18,13C18,13,18,13,18,13z"/>
		<path class="st1" d="M15.9,14.1c-0.4,0-0.7,0-1.1,0c-0.4-0.1-1.2-0.4-3.5-2.7C11,11,10.8,10.5,10.9,10c0.2-1.1,0.9-2.1,1.8-2.8
			C13,7,13.3,7,13.5,7.3c0.2,0.2,0.2,0.6-0.1,0.8c0,0-0.1,0-0.1,0.1c-0.6,0.4-1.1,1.1-1.3,1.8c0,0.2,0,0.4,0.1,0.5
			c2.1,2.1,2.7,2.4,2.8,2.4c0.8,0,1.6,0,2.4,0c0.3,0,0.6,0.2,0.6,0.5c0,0,0,0,0,0c0,0.3-0.2,0.6-0.5,0.6
			C17.3,14,16.6,14.1,15.9,14.1z"/>
		
			<rect x="29" y="33.3" transform="matrix(9.497701e-02 -0.9955 0.9955 9.497701e-02 -8.7019 61.3536)" class="st8" width="0.8" height="4.4"/>
		<polygon class="st2" points="29.9,36.4 30.4,37.2 32.9,35.4 32.3,34.6 		"/>
	</g>
	<path class="st0" d="M16,34.5l-1.2-16c0,0,0.2-4.4-4.2-10.7l-0.6,1.1c2.4,2.9,3.8,6.5,4,10.3c0.3,6.4,1.4,15.3,1.4,15.3H16z"/>
	<path d="M11.9,9.3c0,0-3-5.3-4.5-5.7s-0.9,1.8,0,1.6c0.9-0.1,3.4,5,3.4,5L11.9,9.3z"/>
	<circle class="st1" cx="15.8" cy="34.7" r="0.7"/>
	<path d="M14.5,6.7c0,0-1.3-5.2-2.5-6s-1.1,1.1-0.4,1.4c0.8,0.3,1.6,5.3,1.7,5.1L14.5,6.7z"/>
</g>
</svg>
