<?xml version="1.0" encoding="utf-8"?>
<!-- Generator: Adobe Illustrator 23.1.0, SVG Export Plug-In . SVG Version: 6.00 Build 0)  -->
<svg version="1.1" id="Layer_1" xmlns="http://www.w3.org/2000/svg" xmlns:xlink="http://www.w3.org/1999/xlink" x="0px" y="0px"
	 viewBox="0 0 43.9 43.9" style="enable-background:new 0 0 43.9 43.9;" xml:space="preserve">
<style type="text/css">
	.st0{fill:#303030;}
	.st1{fill:#FDFDFD;}
</style>
<title>biliard</title>
<g>
	<g id="icons">
		<g id="biliard">
			<path class="st0" d="M16.5,1.5c-11.3,3-18.1,14.7-15,26s14.7,18.1,26,15s18.1-14.7,15-26c0,0,0,0,0,0C39.4,5.1,27.8-1.6,16.5,1.5
				z"/>
			<path class="st1" d="M21.8,5.6c-5.2,3.3-6.4,10.8-2.7,16.6s11,8,16.2,4.7s5.1-11,1.8-16.2S27,2.3,21.8,5.6z"/>
			<path class="st0" d="M30.9,13.1c0.1-1.2-0.2-2.4-0.8-3.4c-1.2-2.2-4-3-6.3-1.8c-2.1,1.5-2.5,4.4-1,6.4c0.6,1,1.5,1.8,2.7,2.2
				c-0.6,1.9-0.3,3.9,0.8,5.6c1.6,2.9,5.2,3.9,8,2.3c2.6-1.9,3.2-5.6,1.3-8.3C34.5,14.5,32.8,13.3,30.9,13.1z M27.4,13.5
				c-0.9,0.4-2,0.1-2.4-0.8c-0.4-0.8-0.2-1.7,0.5-2.2c0.8-0.5,1.9-0.2,2.3,0.7c0,0,0,0,0,0C28.3,11.9,28.1,13,27.4,13.5L27.4,13.5z
				 M32.5,21.7c-1.5,0.7-3.3,0.1-4.1-1.4c-0.6-1.3-0.3-2.8,0.8-3.7c1.5-0.7,3.3-0.1,4.1,1.4C34,19.2,33.7,20.8,32.5,21.7z"/>
		</g>
	</g>
</g>
</svg>
