<?xml version="1.0" encoding="utf-8"?>
<!-- Generator: Adobe Illustrator 23.1.0, SVG Export Plug-In . SVG Version: 6.00 Build 0)  -->
<svg version="1.1" id="icons" xmlns="http://www.w3.org/2000/svg" xmlns:xlink="http://www.w3.org/1999/xlink" x="0px" y="0px"
	 viewBox="0 0 43.9 43.9" style="enable-background:new 0 0 43.9 43.9;" xml:space="preserve">
<style type="text/css">
	.st0{fill:#7ACFEA;}
	.st1{opacity:0.26;fill:#262262;enable-background:new    ;}
	.st2{fill:#2E3192;}
	.st3{fill:#FFBE2C;}
	.st4{fill:#FF9000;}
</style>
<title>boating</title>
<g>
	<path class="st0" d="M42.5,22.2v2.3c0,0.7-0.1,1.5-0.4,2.1c-1.1,2.7-3.7,4.5-6.7,4.5H8.9c-1.9-1.3-3.5-2.8-5-4.5
		c-1.2-1.4-2.2-2.9-3.1-4.5H42.5z"/>
	<path class="st1" d="M42.1,26.7c-1.1,2.7-3.7,4.5-6.7,4.5H8.9c-1.9-1.3-3.5-2.8-5-4.5L42.1,26.7z"/>
	<path class="st2" d="M43.2,32.1h-0.5v0.1c0,1.2-1,2.2-2.2,2.2c-1.2,0-2.2-1-2.2-2.2c0,0,0,0,0,0v-0.1h-0.5v0.1c0,1.2-1,2.2-2.3,2.2
		c-1.1,0-2.1-0.9-2.2-2c0-0.1,0-0.1,0-0.2s0-0.1,0-0.1h-0.5v0.1c0,0.1,0,0.1,0,0.2c-0.2,1.2-1.3,2.1-2.6,1.9c-1-0.2-1.8-1-1.9-2.1
		v-0.1h-0.5c0,0,0,0.1,0,0.1c0,1.2-1,2.3-2.2,2.3s-2.3-1-2.3-2.2l0,0v-0.1h-0.5v0.1c-0.2,1.2-1.3,2.1-2.5,1.9c-1-0.1-1.8-1-1.9-2
		v-0.1h-0.5v0.1c0,1.2-1,2.2-2.3,2.2c-1.1,0-2.1-0.9-2.2-2c0-0.1,0-0.1,0-0.2s0-0.1,0-0.1h-0.5v0.1c0,0.1,0,0.1,0,0.2
		c-0.2,1.2-1.3,2.1-2.5,1.9c-1.1-0.1-1.9-1-2-2.1v-0.1H7.6c0,0,0,0.1,0,0.1c0,1.2-1,2.2-2.2,2.2c-1.2,0-2.2-1-2.2-2.2c0,0,0,0,0,0
		v-0.1H2.6v0.1c0,1.5,1.3,2.8,2.8,2.8c1,0,2-0.6,2.5-1.5c0.7,1.4,2.4,1.9,3.8,1.2c0.5-0.3,0.9-0.7,1.2-1.2c0.7,1.4,2.5,1.9,3.8,1.2
		c0.5-0.3,0.9-0.7,1.2-1.2c0.7,1.4,2.4,1.9,3.8,1.2c0.5-0.3,0.9-0.7,1.2-1.2c0.7,1.4,2.5,1.9,3.8,1.2c0.5-0.3,0.9-0.7,1.2-1.2
		c0.7,1.4,2.4,1.9,3.8,1.2c0.5-0.3,0.9-0.7,1.2-1.2c0.7,1.4,2.4,1.9,3.8,1.2c0.5-0.3,0.9-0.7,1.2-1.2c0.7,1.4,2.3,2,3.7,1.3
		C42.6,34.2,43.2,33.2,43.2,32.1L43.2,32.1z"/>
	<path class="st3" d="M20.1,11.6c0,1.1-0.9,2-2,2s-2-0.9-2-2s0.9-2,2-2S20.1,10.5,20.1,11.6z"/>
	<path class="st3" d="M28,22L28,22c0.3-0.3,0.2-0.7,0-1l-7.7-6.9c-0.3-0.3-0.7-0.2-1,0.1l-0.5,0.5l8.3,7.4
		C27.3,22.3,27.8,22.3,28,22C28,22,28,22,28,22z"/>
	<g>
		<polygon class="st2" points="27.1,20 27.9,20.5 21,31 20.2,30.5 		"/>
		<polygon class="st2" points="21.8,31.2 22.1,29.5 21.3,28.9 18.5,30.7 18.1,31.2 		"/>
	</g>
	<path class="st3" d="M26.6,22.5l-6.5-5.9c-0.1-0.9-0.2-1.8-0.2-2.8l-2.1-0.5l-1.5,0.4c-0.6,0.1-0.8,0.6-0.9,1.2
		c0.1,2.6,0.7,5.1,1.9,7.3h4.3c-0.5-1.1-0.9-2.2-1.2-3.3l5.2,4.6c0.3,0.3,0.8,0.2,1-0.1S26.9,22.7,26.6,22.5L26.6,22.5z"/>
	<path class="st2" d="M7.3,25c0,0.6-0.4,1-1,1s-1-0.4-1-1s0.4-1,1-1S7.3,24.5,7.3,25z"/>
	<path class="st4" d="M20.9,10.8l-1-0.7l-0.4-1.2h-2.6l-0.4,1.2l-1,0.7c-0.1,0-0.1,0.1,0,0.2c0,0,0.1,0.1,0.1,0.1h5.3
		c0.1,0,0.1-0.1,0.1-0.2C21,10.9,21,10.8,20.9,10.8z"/>
</g>
</svg>
