<?xml version="1.0" encoding="utf-8"?>
<!-- Generator: Adobe Illustrator 23.1.0, SVG Export Plug-In . SVG Version: 6.00 Build 0)  -->
<svg version="1.1" id="icons" xmlns="http://www.w3.org/2000/svg" xmlns:xlink="http://www.w3.org/1999/xlink" x="0px" y="0px"
	 viewBox="0 0 43.9 43.9" style="enable-background:new 0 0 43.9 43.9;" xml:space="preserve">
<style type="text/css">
	.st0{fill:#5D5860;}
	.st1{fill:#713775;}
	.st2{fill:#66BAED;}
	.st3{fill:#F74F4F;}
	.st4{fill:#FFE152;}
</style>
<title>bootcamp</title>
<g id="bootcamp">
	<path class="st0" d="M43.2,21.9c0,0.5,0,1,0,1.5c-0.3,4.9-2.4,9.5-5.7,13.1l0,0L37,37c-8.2,8.2-21.4,8.3-29.8,0.4l-0.4-0.4
		l-0.4-0.4c-7.8-8.2-7.9-21-0.2-29.3l0,0l0.5-0.5c8.3-8.3,21.9-8.3,30.2,0C40.9,10.8,43.2,16.2,43.2,21.9z"/>
	<path class="st1" d="M43.2,21.9c0,0.5,0,1,0,1.5c-0.3,4.9-2.4,9.5-5.7,13.1l0,0L37,37c-8.2,8.2-21.4,8.3-29.8,0.4l-0.7-0.7
		c-7.8-8.2-7.9-21-0.2-29.3l0,0l0.5-0.5c8.3-8.3,21.9-8.3,30.2,0C40.9,10.8,43.2,16.2,43.2,21.9z"/>
	<path class="st2" d="M43.2,23.3c-0.3,4.9-2.4,9.5-5.7,13.1l0,0L37,37c-8.2,8.2-21.4,8.3-29.8,0.4l-0.4-0.4l24.9-24.9l0.1-0.1
		L43.2,23.3z"/>
	<path class="st3" d="M21,35.8c-1.9,2.1-5.2,2.2-7.3,0.3c-1.2-1.1-1.8-2.8-1.6-4.4l-5.3,5.3l0,0l-0.4-0.4c-7.8-8.2-7.9-21-0.2-29.3
		l0,0l0.5-0.5l5.2,5.2c-2.8-0.2-5.4,1.9-5.6,4.7C6.1,19.5,8.2,22,11,22.3c2.8,0.2,5.4-1.9,5.6-4.7c0-0.3,0-0.6,0-0.9l5.2,5.2l0,0
		l-5.3,5.3c2.8-0.4,5.4,1.6,5.8,4.4C22.5,33.1,22,34.7,21,35.8z"/>
	<path class="st4" d="M43.2,21.9c0,0.5,0,1,0,1.5c-0.3,4.9-2.4,9.5-5.7,13.1l0,0L36.9,37l-5.2-5.2c2.8,0.2,5.4-1.9,5.6-4.7
		c0.2-2.8-1.9-5.4-4.7-5.6c-2.8-0.2-5.4,1.9-5.6,4.7c0,0.3,0,0.6,0,0.9l-5.2-5.2l5.3-5.3l0,0c-2.8,0.3-5.4-1.7-5.8-4.5
		s1.7-5.4,4.5-5.8c2.8-0.3,5.4,1.7,5.8,4.5c0,0.4,0,0.8,0,1.2l0,0l0.1-0.1L37,6.7l0.9,0.9C41.3,11.5,43.2,16.6,43.2,21.9z"/>
</g>
</svg>
