<?xml version="1.0" encoding="utf-8"?>
<!-- Generator: Adobe Illustrator 23.1.0, SVG Export Plug-In . SVG Version: 6.00 Build 0)  -->
<svg version="1.1" id="Layer_1" xmlns="http://www.w3.org/2000/svg" xmlns:xlink="http://www.w3.org/1999/xlink" x="0px" y="0px"
	 viewBox="0 0 47 47" style="enable-background:new 0 0 47 47;" xml:space="preserve">
<style type="text/css">
	.st0{fill:#F1F1F1;}
	.st1{fill:#A25400;}
	.st2{fill:#C4C4C4;}
	.st3{fill:#303030;}
</style>
<title>Bowling</title>
<g>
	<g id="icons">
		<g id="bowling">
			<g>
				<path class="st0" d="M15.2,9.2c0-4.1-3.3-4.1-3.3-4.1s-3.3,0-3.3,4.1c0,3.4,1.2,3.4,1.2,6.1s-4,9.4-3.9,17.1s2.1,10.3,2.1,10.3
					v0.8h7.8v-0.8c0,0,2-2.6,2.1-10.3s-4-14.4-4-17.1S15.2,12.7,15.2,9.2z"/>
				<g>
					<path class="st1" d="M9.7,16.9c-0.1,0.6-0.5,1.4-0.7,2.2h6.1c-0.2-0.8-0.5-1.5-0.7-2.2H9.7z"/>
					<path class="st1" d="M10,14.7h4.1c0.1-0.7,0.2-1.5,0.6-2.2H9.4C9.7,13.3,9.9,14,10,14.7z"/>
				</g>
				<path class="st2" d="M15.2,9.2C15.4,8,14.9,6.8,14.2,6c0.4,1.8,0.2,3.5-0.2,5.2c-0.8,2.2-2.3,2.2-2,5.7
					c0.4,3.5,2.6,6.1,2.7,13.2S13.7,41,13.3,41.7S9.7,42.3,8,42.3l0.1,0.1v0.8h7.8v-0.8c0,0,2-2.6,2.1-10.3c0.1-7.7-4-14.2-4-16.9
					S15.2,12.7,15.2,9.2z"/>
			</g>
			<g>
				<path class="st0" d="M38.2,9.2c0-4.1-3.3-4.1-3.3-4.1s-3.2,0.1-3.2,4.1c0,3.4,1.2,3.4,1.2,6.1s-4,9.4-4,17.1s2.1,10.3,2.1,10.3
					v0.8h7.8v-0.8c0,0,2.1-2.6,2.1-10.3S37,18,37,15.3S38.2,12.7,38.2,9.2z"/>
				<g>
					<path class="st1" d="M32.7,16.9c-0.1,0.6-0.5,1.4-0.7,2.2h6.1c-0.2-0.8-0.6-1.5-0.7-2.2H32.7z"/>
					<path class="st1" d="M32.9,14.7H37c0-0.7,0.2-1.5,0.6-2.2h-5.3C32.7,13.3,32.9,14,32.9,14.7z"/>
				</g>
				<path class="st2" d="M38.2,9.2C38.3,8,37.8,6.8,37.1,6c0.4,1.8,0.2,3.5-0.2,5.2c-0.8,2.2-2.3,2.2-2,5.7s2.7,6.3,2.7,13.5
					S36.7,41.3,36.2,42c-0.5,0.7-3.5,0.6-5.3,0.6l0.1,0.1v0.8h7.8v-0.8c0,0,2.1-2.6,2.1-10.3S37,18,37,15.3S38.2,12.7,38.2,9.2z"/>
			</g>
			<g>
				<path class="st0" d="M27.2,5.8c0-4.6-3.6-4.6-3.6-4.6s-3.6,0-3.6,4.6c0,3.9,1.3,3.7,1.3,6.8s-4.6,10.5-4.5,19.3
					s2.3,11.6,2.3,11.6v0.9h8.8v-1.1c0,0,2.2-2.9,2.3-11.5s-4.6-16.3-4.6-19.2S27.2,9.7,27.2,5.8z"/>
				<g>
					<path class="st1" d="M20.9,14.3c-0.2,0.7-0.5,1.5-0.8,2.5h6.8c-0.4-0.9-0.6-1.8-0.8-2.5C26,14.3,20.9,14.3,20.9,14.3z"/>
					<path class="st1" d="M21.2,12h4.7c0.1-0.8,0.2-1.6,0.6-2.5h-6C20.9,10.2,21.1,11.2,21.2,12z"/>
				</g>
				<path class="st2" d="M27.2,5.8c0.1-1.3-0.4-2.6-1.3-3.5c0.4,2,0.2,4-0.2,5.9c-0.8,2.5-2.6,2.6-2.1,6.4c0.5,3.9,2.9,6.9,2.9,15
					s-1.1,12.3-1.5,13c-0.5,0.7-4,0.6-5.9,0.7c0,0,0,0.1,0.1,0.1v0.9H28v-0.9c0,0,2.2-2.9,2.3-11.5c0.1-8.5-4.6-16.3-4.6-19.2
					S27.2,9.7,27.2,5.8z"/>
			</g>
			<g>
				<path class="st1" d="M24.6,19.7c-7.1,0-12.9,5.7-12.9,12.9s5.7,12.9,12.9,12.9s12.9-5.7,12.9-12.9v-0.1
					C37.4,25.3,31.6,19.7,24.6,19.7z"/>
				<path class="st3" d="M27.3,28.2c-0.5,0.7-0.4,1.8,0.4,2.2c0.6,0.4,1.3,0.4,1.8,0.1c0.5-0.7,0.4-1.8-0.4-2.2
					C28.6,27.9,27.9,27.8,27.3,28.2z"/>
				<path class="st3" d="M33.4,27.1c0.5-0.7,0.4-1.8-0.5-2.2c-0.5-0.4-1.2-0.4-1.8-0.1c-0.5,0.7-0.4,1.8,0.4,2.2
					C32.1,27.3,32.8,27.3,33.4,27.1z"/>
				<path class="st3" d="M32.5,29.8c-0.6,0.7-0.4,1.8,0.4,2.2c0.6,0.4,1.3,0.5,1.9,0.1c0.6-0.7,0.4-1.8-0.4-2.2
					C33.7,29.6,33,29.4,32.5,29.8z"/>
			</g>
		</g>
	</g>
</g>
</svg>
