<?xml version="1.0" encoding="utf-8"?>
<!-- Generator: Adobe Illustrator 23.1.0, SVG Export Plug-In . SVG Version: 6.00 Build 0)  -->
<svg version="1.1" id="icons" xmlns="http://www.w3.org/2000/svg" xmlns:xlink="http://www.w3.org/1999/xlink" x="0px" y="0px"
	 viewBox="0 0 47 47" style="enable-background:new 0 0 47 47;" xml:space="preserve">
<style type="text/css">
	.st0{fill:#88171A;}
	.st1{fill:#24282B;}
	.st2{fill:#AB282A;}
	.st3{fill:#13171A;}
</style>
<title>Boxing</title>
<path class="st0" d="M34.1,42.3c0.7,0.2,1.5,0.2,2.2,0c0.7-0.3,1.3-0.8,1.7-1.4c0.7-0.7,1.3-1.5,1.9-2.2c0.9-1.4,1.7-2.9,2.3-4.4
	c0.7-1.2,1-2.6,0.9-4c-0.2-1.3-1.2-2.2-2.4-2.4L34.1,42.3z"/>
<path class="st1" d="M39.4,25.3c1,0.9,2.7,1.7,3.1,3.1c0.2,0.9,0.2,1.9-0.1,2.8c-0.2,0.8-0.3,1.7-0.6,2.6c-0.5,1.3-1,2.4-1.7,3.6
	c-0.5,0.7-1,1.4-1.6,2.1c-0.9,1-2.1,1.9-3.1,2.9c-0.8,0.8-2.1,1-3.1,0.6c-0.8-0.6-1.5-1.2-2.1-2c-0.8-0.7-1.7-1.4-2.7-2
	c-0.5-0.3-0.9-0.7-1.4-1.2l0,0c-1.4-1.6,0.9-3.1,2-4.3C31,30.4,34,27,35.4,23c0.1-0.5,0.3-0.9,0.8-0.8c0.2,0.1,0.5,0.2,0.6,0.5
	C37.6,23.4,38.4,24.5,39.4,25.3z"/>
<path class="st2" d="M25.4,34.9c-0.5,0.3-0.5,0.9-0.1,1.4c0,0,0,0,0.1,0.1c0.5,0.3,1,0.5,1.5,0.2c0.5-0.2,0.9-0.5,1.3-0.8
	c3.5-3.1,6-7.1,7.6-11.4c0.3-0.7,0.3-1.6,0.1-2.3c-1.3,0-2.4,0.5-3.4,1.4L25.4,34.9z"/>
<path class="st0" d="M24.6,35.1c0.3,0.3,0.8,0.6,1.3,0.5c0.5-0.1,0.9-0.3,1.3-0.6c3.4-2.3,5.7-5.9,7.6-9.5c0.5-0.8,0.8-1.7,0.9-2.7
	s-0.2-1.9-1-2.4c-4.2,3.3-7.1,7.7-8.5,12.8L24.6,35.1z"/>
<path class="st2" d="M26.3,8.2c1,1.2,2.1,2.3,3,3.6l4.3,5.5c0.8,0.8,1.3,1.9,1.6,2.9c0.1,1.5-0.3,3-1.2,4.3c-1.3,2.8-3,5.2-5.1,7.4
	c-1.6,1.5-3.5,3.6-5.8,2.9c-2.7-0.7-5.3-1.5-8-2.6c-1-0.3-2-0.8-2.9-1.3c-1-0.7-2-1.5-2.9-2.2c-1.9-1.3-3.5-2.8-4.8-4.5
	c-0.3-0.5-0.6-0.9-0.7-1.4v-0.1c-0.1-0.5,0-0.9,0.2-1.3c0.1-0.2,0.2-0.6,0.2-0.9c0-0.3,0-0.6-0.1-0.8c-0.2-0.5-0.3-0.9-0.5-1.4
	c-0.5-2.8,0-5.6,1.4-7.9c2.3-4.2,6.3-7,11-7.8c0.6,0,1.2,0,1.7,0c0.7,0.2,1.4,0.5,2.1,0.9C22.2,4.8,24.3,6.5,26.3,8.2z"/>
<path class="st0" d="M10.5,25.6c-0.5-0.8-1.2-1.5-2.1-1.7c-0.8-0.3-1.9-0.6-2.7-1C5,22.4,4.5,21.9,4,21.2c0.1-0.2,0.2-0.6,0.2-0.9
	s0-0.6-0.1-0.8c0.7,0.7,1.4,1.4,2.1,2C7,22,7.9,22.6,8.8,23.2C9.6,23.9,10.3,24.7,10.5,25.6z"/>
<path class="st3" d="M39.8,33.4c0.3,0.3,0.6,0.8,0.7,1.3c0.1,0.6,0.1,1.2-0.1,1.6c-0.1,0.3-0.2,0.6-0.3,0.9c-0.5,0.7-1,1.4-1.6,2.1
	c-0.9,1-2.1,1.9-3.1,2.9c-0.8,0.8-2.1,1-3.1,0.6c-0.8-0.6-1.5-1.2-2.1-2c-0.8-0.7-1.7-1.4-2.7-2c-0.5-0.3-0.9-0.7-1.4-1.2
	c0-0.3,0.7-0.2,1-0.2s0.8-0.2,1.2-0.5c1.9-1.2,3.4-2.9,4.4-4.8c0.6-1,1.3-2.2,2.6-2.3C36.9,29.7,38.7,32.2,39.8,33.4z"/>
<path class="st1" d="M39.7,33.6c0.3,0.3,0.6,0.8,0.7,1.3c0.1,0.6,0.1,1.2-0.1,1.7c-0.8,2.7-3.1,4.6-5.5,6.3
	c-0.5,0.3-0.9,0.6-1.5,0.7c-0.7,0.1-1.4-0.1-2-0.6c-0.1-0.1-0.2-0.2-0.5-0.3c-0.6-0.6-1.2-1.3-1.7-1.9c-0.7-0.6-1.7-0.8-2.4-1.4
	c-0.2-0.1-0.5-0.3-0.6-0.6c-0.1-0.1-0.2-0.2-0.3-0.5c-0.2-0.6,0.3-0.5,0.7-0.5c0.6,0,1.2-0.2,1.6-0.6c1.2-0.7,2.2-1.5,3-2.4
	c0.8-0.9,1.3-2,2-2.9c0.2-0.2,0.3-0.5,0.6-0.7c0.3-0.5,0.9-0.8,1.6-0.8c0.2,0,0.5,0,0.6,0.1c0.2,0,0.5,0.1,0.6,0.2
	c0.2,0.1,0.6,0.3,0.8,0.5C38.3,31.9,39,32.6,39.7,33.6z"/>
<path class="st2" d="M26,38.8c-0.1-0.1-0.1-0.1-0.2-0.2L26,38.8z"/>
<path class="st2" d="M38.9,34c0.2,0.3,0.5,0.8,0.6,1.3c0.1,0.6,0,1.3-0.3,1.9c-0.9,1.7-2.3,3.1-4,4.3c-0.8,0.6-1.6,1.2-2.6,1.5
	c-0.5,0.1-0.8,0.2-1.3,0.2c-0.1-0.1-0.2-0.2-0.5-0.3c-0.6-0.6-1.2-1.3-1.7-1.9c-0.7-0.6-1.7-0.8-2.4-1.4c-0.2-0.1-0.5-0.3-0.6-0.6
	c0.3,0.1,0.7,0.2,1.2,0.1c1.4-0.3,2.7-1.2,3.7-2.3c0.8-0.8,1.6-1.7,2.2-2.8c0.5-0.7,1-1.4,1.6-1.9c0.3-0.2,0.7-0.3,1-0.3
	c0.2,0,0.5,0.1,0.7,0.2C37.5,32.4,38.3,33.1,38.9,34z"/>
</svg>
