<?xml version="1.0" encoding="utf-8"?>
<!-- Generator: Adobe Illustrator 23.1.0, SVG Export Plug-In . SVG Version: 6.00 Build 0)  -->
<svg version="1.1" id="icons" xmlns="http://www.w3.org/2000/svg" xmlns:xlink="http://www.w3.org/1999/xlink" x="0px" y="0px"
	 viewBox="0 0 47 47" style="enable-background:new 0 0 47 47;" xml:space="preserve">
<style type="text/css">
	.st0{fill:#6D2200;}
	.st1{fill:#F9BDA4;}
	.st2{fill:#FFE7CE;}
	.st3{fill:#FFCCB3;}
	.st4{fill:#FFEAD6;}
	.st5{fill:#6FBDC9;}
	.st6{fill:#5EA1B0;}
	.st7{fill:#8D3B26;}
</style>
<title>Breastfeeding</title>
<g id="Breastfeeding">
	<g>
		<path class="st0" d="M14,1.5c-4.7,0.9-2.8,8.1-2.6,11.7s1.1,7.3-0.5,8c-1.3,0.6-2.8-0.8-2.8-0.8s-1.1,2.3,0,3.7
			c1.1,1.4,5.3,2.8,5.8,1.1c0.6-1.7,2.5-8.5,1.6-11.9c-0.9-3.4,2.5-9.1,2.5-9.1C17.9,2.5,16.3,1.1,14,1.5z"/>
		<path class="st1" d="M28.3,22.1c-1.1-0.6-3.2-1.7-4.3,0.1c-3.2,5.2,12.3,14.3,13.9,15.1c1.6,0.8,4.1-1.8,3.8-2.7
			C41.4,33.7,29.4,22.8,28.3,22.1z"/>
		<path class="st1" d="M20.3,20.2c-0.5-1.5-0.6-3.1-0.5-4.7l-6.2-3.9c0,0,0.3,7.9-0.5,9.1c-0.8,1.1-6.2,2.9-6.4,6.8
			c-0.1,3.9,6.5,16.1,9.5,17.3s7.7-0.4,9.3-1.2c1.7-0.8,6-17.8,2.9-21.3C26.5,20.1,21,21.9,20.3,20.2z"/>
		<path class="st2" d="M22.6,2c-3.4-1.1-7.4,1.5-9,6.1s3.1,10.4,5.4,10.7c2,0.2,5.2-2.4,6.8-6.5C27.6,7.9,26,3.2,22.6,2z"/>
		<path class="st2" d="M25.7,25c0,0-1-0.6-1-1.1c0-0.6,2.9-1.2,3.6-0.6c0.1,0.1,0.5,0.1,0.4-0.2c-0.1-0.2-0.2-0.5-0.4-0.7
			c-1.9-2.2-7.4-0.4-8.1-2c-0.2-0.3-0.3-0.6-0.3-1c-0.9,1.1-3.2-0.7-3.2-0.7c0.1,0.7,0.1,1.3,0.1,2c-0.1,1-4.7,3.2-5.3,3.9
			c-0.7,0.6,1.6,2.1,2.9,3.1c-0.1,1-0.2,2.1-0.1,3.1c0.1,2.3,2.3,5.9,5.3,5.8s4.9-3.2,4.7-4.9c-0.1-1-2.1-3.3-4.2-5l0,0
			c-0.4-0.3-0.5-0.8-0.2-1.2c0.1-0.1,0.1-0.1,0.2-0.2c0.5-0.1,1,0.1,1.4,0.5l0,0c0.5,0.7,3.3,4.5,5.1,5.3c2.8,1.2,4.5,0.3,4.9-0.4
			c0.2-0.5,0.2-1-0.1-1.5C30.8,28,27.8,26.2,25.7,25z"/>
		<g>
			<path class="st3" d="M35.2,26c-1.8-0.5-3.7,0.5-4.2,2.3c-0.8,1.7,0,3.7,1.7,4.5c0,0,0,0,0.1,0c1.8,0.5,3.7-0.5,4.2-2.3
				C37.6,28.7,36.9,26.7,35.2,26z"/>
			<path class="st4" d="M34.3,27.3c-0.6,0.2-1.1,1.2-1.1,2.3c0.1,1.1,0.8,2,1.8,2.3c0.6,0,1.7-1.3,1.8-2.4c0.2-1.1-0.5-2.2-1.6-2.4
				C34.9,27.2,34.6,27.2,34.3,27.3z"/>
			<path class="st5" d="M24.1,33.9c-4.3,3-6.4,7.6-4.6,10.1s6.8,2.1,11.1-0.9s6.4-7.6,4.6-10.1C33.4,30.5,28.4,30.9,24.1,33.9z"/>
			<path class="st6" d="M34.9,32.7c-0.3-0.1-0.7-0.1-1.1-0.1l0,0c-1-0.3-2.1-0.5-3.2-0.4c-0.5,0-0.7,0.5-1.2,0.7
				c-1.2,0.1-2.5,0.1-3.8,0l-1.1,0.6c0.9,0.4,1.8,0.7,2.8,1c0.9,0.2,2.1-0.5,2.4-0.2s0.3,0.4,0.3,0.4c-1,0.9-2.2,1.7-3.5,2.3
				c-4.6,1.9-7.6,1.4-7.6,5.9c0.1,0.4,0.3,0.8,0.5,1.1c1.8,2.5,6.8,2.1,11.1-0.9c4.3-3,6.4-7.6,4.6-10.2
				C35.1,32.9,35,32.8,34.9,32.7z"/>
			<path class="st1" d="M23.2,31.2c0-0.1-0.1-0.4-0.1-0.5s-0.2,0.1-0.2,0.2c0,0.3,0.2,0.5,0.2,0.7c-0.1,0.2-0.5,0-0.6,0
				s-0.5-0.2-0.6-0.2c-0.1,0-0.3-0.1-0.4,0c-0.1,0.1,0.2,0.2,0.3,0.3s0.6,0.2,0.6,0.3c0,0.1-1.1-0.3-1.2-0.1s1.1,0.4,1.1,0.5
				C22,32.5,21,32.3,21,32.6s1,0.1,1.1,0.3s-0.8,0.2-0.8,0.3c0,0.1,0.7-0.1,1.2,0.1c0.2,0,0.5,0,0.7,0c0.2-0.4,0.3-0.7,0.4-1.1
				c0-0.2,0-0.3-0.1-0.4C23.4,31.5,23.3,31.4,23.2,31.2z"/>
			<path class="st5" d="M29.7,31.4c-0.9,0.2-1.9,1.1-3.1,1s-3-0.5-3-0.5l-0.5,1.5c0.9,0.4,1.8,0.7,2.8,0.9c1.4,0.4,2.4-0.2,4.1-0.5
				C30.8,33.7,31.8,31,29.7,31.4z"/>
		</g>
		<g>
			<path class="st1" d="M25.4,41.5c-0.9,0.3-1-0.5-1.3-0.8c-0.6-0.5-1.2-1-1.7-1.6c-0.2-0.4-0.6-1.3-0.8-1.5
				c-0.2-0.2-0.7,0.4-0.6,0.8c0.1,0.9,1.1,1.6,1,2.1c-0.2,0.5-1.9,0.2-2.3,0.1c-0.5-0.1-1.1-0.3-1.6-0.4c-0.5-0.1-1.8-1.2-1.9-0.8
				c-0.2,0.4,1.1,1.6,1.5,1.7c0.4,0.1,1.6,0.4,1.5,0.7c-0.1,0.3-0.8-0.2-1.7-0.6c-0.5-0.2-1.1-1.3-1.3-1.1c-0.2,0.3,0.6,1.5,1.3,2
				c0.7,0.4,1.3,0.9,1.3,1.1c0,0.2-0.6-0.1-1.3-0.6c-0.4-0.3-0.9-1.4-1.3-1.3c-0.4,0.1,0.5,1.8,1.4,2.4c0.7,0.5,1.4,0.7,1.3,0.9
				c-0.1,0.2-0.3,0-1-0.3c-0.7-0.3-1-1-1.1-0.9c-0.2,0.2,0.5,1.3,1.3,1.7c0.8,0.3,1.7,0.6,2.5,0.7c0.3,0,2.5-0.4,3.7-0.5
				C24.8,45.1,25.6,41.4,25.4,41.5z"/>
			<path class="st1" d="M38.7,34.1c-1.1,0.2-14.7,6.9-16.2,8.6c-1.5,1.7,0.1,2.3,0.9,2.5s7.4-1.4,12.9-4c4.5-2.1,6-4.7,5.6-6.1
				C41.5,33.7,39.5,34,38.7,34.1z"/>
		</g>
		<path class="st7" d="M21.7,1.6c-2.7-0.2-5.4,1-6.9,3.3c-1.5,2.1-1.9,4.7-1.1,7.1c1.6-1.9,2.7-1.9,4-2.6c1-0.5,1.9-3.6,6.7-3.1
			c1.2,0.1,2.3,2.3,2.3,2.3S26.7,2,21.7,1.6z"/>
		<g>
			<path class="st2" d="M7.8,25.5c-5.1,3.4,5.2,18.2,6.3,19.6c1.1,1.4,4.5,0.1,4.6-0.8s-6.2-16-6.9-17C11.1,26.2,9.6,24.4,7.8,25.5z
				"/>
			<g>
				<path class="st2" d="M33,35.8c-2.2-0.1-16.4,5.5-17.3,6.1c-0.7,0.5-2.2,1.9-1.5,3s3.6,1.9,8.2,0c5.7-2.3,11.4-6.1,11.8-6.8
					C34.6,37.4,35.2,35.9,33,35.8z"/>
				<path class="st2" d="M38.9,32.2c-0.2,0,0,0.8-0.3,1.4c-0.3,0.6-0.5,0.9-0.6,0.9s0.2-0.7,0.5-1.5c0.4-1,0.1-2.9-0.4-2.7
					s0,1.3-0.2,1.8c-0.3,0.8-0.5,1.4-0.7,1.3c0-0.6,0.1-1.1,0.3-1.6c0.3-0.8,0.2-2.3-0.2-2.4C37,29.3,37.2,30.6,37,31
					c-0.4,0.9-0.8,1.6-0.9,1.5c-0.2-0.1,0.6-1.1,0.8-1.5s0.5-2.1,0.1-2.3c-0.4-0.1-0.7,1.5-1,1.9s-0.6,0.9-1,1.3s-1.4,1.7-1.9,1.4
					c-0.5-0.4-0.1-1.4-0.6-2.3c-0.2-0.4-0.9-0.5-1-0.2c0,0.3,0.3,1.2,0.3,1.7c-0.1,0.8-0.2,1.5-0.3,2.3c-0.1,0.4,0.4,1.1-0.5,1.4
					c-0.2,0.1,2.7,2.4,3.1,2.2c1-0.7,3-1.7,3.2-1.9c0.6-0.6,1.1-1.4,1.5-2.2C39.3,33.6,39.2,32.3,38.9,32.2z"/>
			</g>
		</g>
	</g>
</g>
</svg>
