<?xml version="1.0" encoding="utf-8"?>
<!-- Generator: Adobe Illustrator 23.1.0, SVG Export Plug-In . SVG Version: 6.00 Build 0)  -->
<svg version="1.1" id="icons" xmlns="http://www.w3.org/2000/svg" xmlns:xlink="http://www.w3.org/1999/xlink" x="0px" y="0px"
	 viewBox="0 0 47 47" style="enable-background:new 0 0 47 47;" xml:space="preserve">
<style type="text/css">
	.st0{fill:#FFC477;}
	.st1{fill:#FFAF50;}
	.st2{fill:#F15A24;}
	.st3{fill:#706F7A;}
	.st4{fill:#FFFFFF;}
	.st5{fill:#FFA5B5;}
	.st6{fill:#FF929F;}
</style>
<title>broomball</title>
<g id="boomball">
	<path class="st0" d="M28.4,33.4l-0.4-2c-0.2-0.9-0.7-1.8-1.4-2.4L3.7,6.2c-0.9-0.9-0.9-2.4,0-3.3c0,0,0,0,0,0C4.6,2,6.1,1.9,7,2.8
		c0,0,0,0,0,0l22.8,22.8c0.7,0.7,1.5,1.1,2.5,1.4l2,0.5c0.8,0.2,1.5,0.5,2.2,0.9l6.5,3.9c1.3,0.8,1.7,2.4,0.9,3.7
		c-0.1,0.2-0.3,0.4-0.4,0.5l-6,6c-1.1,1.1-2.8,1.1-3.9,0c-0.2-0.2-0.3-0.3-0.4-0.5l-3.9-6.5C28.9,34.9,28.6,34.1,28.4,33.4z"/>
	<path class="st1" d="M26,21.7l-8.9-8.9c-0.4,1.6-1.1,3.2-2,4.6l8.3,8.2c0.6-0.8,1.2-1.6,1.7-2.5C25.3,22.7,25.6,22.2,26,21.7z"/>
	<path class="st2" d="M28.3,24.1l1.6,1.6c0.7,0.7,1.5,1.1,2.4,1.4l2,0.5c0.8,0.2,1.5,0.5,2.2,0.9l6.5,3.9c1.3,0.8,1.7,2.4,0.9,3.7
		c-0.1,0.2-0.3,0.4-0.4,0.5l-6,6c-1.1,1.1-2.8,1.1-3.9,0c-0.2-0.2-0.3-0.3-0.4-0.5l-3.9-6.5c-0.4-0.7-0.7-1.4-0.9-2.2l-0.4-2
		c-0.2-0.9-0.7-1.8-1.4-2.4L25,27.3L28.3,24.1z"/>
	<g>
		<path class="st3" d="M7.9,10.4L3.7,6.2c-0.9-0.9-0.9-2.4,0-3.3c0,0,0,0,0,0C4.6,2,6.1,1.9,7,2.8c0,0,0,0,0,0L11.2,7L7.9,10.4z"/>
		<path class="st4" d="M34.4,30.2c2,0.7,3.8,1.7,5.4,3c0.7,0.4,1,1.3,0.6,2c-0.1,0.2-0.3,0.4-0.5,0.5c-0.5,0.5-1.3,0.5-1.8,0
			c0,0,0,0,0,0l-4.5-4.5c-0.2-0.3-0.2-0.7,0.1-1C34,30.2,34.2,30.2,34.4,30.2z"/>
		<path class="st4" d="M31.2,33.5c0.7,2,1.7,3.8,3,5.4c0.4,0.7,1.3,1,2,0.6c0.2-0.1,0.4-0.3,0.5-0.5c0.5-0.5,0.5-1.3,0-1.8
			c0,0,0,0,0,0l-4.5-4.5c-0.3-0.3-0.7-0.3-1,0C31.2,33,31.1,33.2,31.2,33.5z"/>
	</g>
	<path class="st5" d="M24.3,39.2c0,2.3-1.9,4.2-4.2,4.2c-2.3,0-4.2-1.9-4.2-4.2s1.9-4.2,4.2-4.2c0,0,0,0,0,0
		C22.4,35,24.3,36.9,24.3,39.2C24.3,39.2,24.3,39.2,24.3,39.2z"/>
	<path class="st6" d="M19.5,39.2c0-1.6,0.9-3,2.3-3.7c-2.1-1-4.5-0.1-5.6,1.9c-1,2.1-0.1,4.5,1.9,5.6c0.6,0.3,1.2,0.4,1.9,0.4
		c0.6,0,1.2-0.1,1.8-0.4C20.4,42.2,19.5,40.8,19.5,39.2z"/>
</g>
</svg>
