<?xml version="1.0" encoding="utf-8"?>
<!-- Generator: Adobe Illustrator 23.1.0, SVG Export Plug-In . SVG Version: 6.00 Build 0)  -->
<svg version="1.1" id="icons" xmlns="http://www.w3.org/2000/svg" xmlns:xlink="http://www.w3.org/1999/xlink" x="0px" y="0px"
	 viewBox="0 0 47 47" style="enable-background:new 0 0 47 47;" xml:space="preserve">
<style type="text/css">
	.st0{fill:#333333;}
	.st1{fill:#FF9100;}
	.st2{fill:#4A4A4A;}
</style>
<path class="st0" d="M2.3,34.4c-0.8,0-1.5-0.5-1.7-1.3c-0.2-0.9,0.3-1.9,1.2-2.1c0.1,0,7.6-2,15.2-4.9c13.7-5,15.4-8,15.7-8.8
	c0.3-0.9,1.3-1.5,2.3-1.2c0.9,0.2,1.5,1.2,1.3,2.1c-0.6,2.1-3.2,5.7-17.9,11.2c-7.8,2.9-15.4,4.9-15.5,4.9
	C2.6,34.4,2.4,34.5,2.3,34.4z"/>
<path class="st1" d="M21.1,24.5c0,0-2.8-3.8,0.5-4.4s11.9-6.2,11.9-6.2S38,18,21.1,24.5z"/>
<path class="st2" d="M34.5,33.9c-0.9,0-1.7-0.7-1.7-1.6l0,0V17.4c0.1-0.9,0.9-1.6,1.8-1.5c0.8,0.1,1.5,0.7,1.5,1.5v14.7
	C36.3,33.1,35.4,33.9,34.5,33.9z"/>
<circle class="st0" cx="42" cy="16" r="4.6"/>
</svg>
