<?xml version="1.0" encoding="utf-8"?>
<!-- Generator: Adobe Illustrator 23.1.0, SVG Export Plug-In . SVG Version: 6.00 Build 0)  -->
<svg version="1.1" id="icons" xmlns="http://www.w3.org/2000/svg" xmlns:xlink="http://www.w3.org/1999/xlink" x="0px" y="0px"
	 viewBox="0 0 47 47" style="enable-background:new 0 0 47 47;" xml:space="preserve">
<style type="text/css">
	.st0{fill:#F15824;}
	.st1{fill:#4D4D4D;}
	.st2{stroke:#FFFFFF;stroke-width:0.5;stroke-miterlimit:10;}
</style>
<title>Calisthenics</title>
<g id="Calisthenics">
	<path class="st0" d="M26.7,21c-1,0-1.8-0.8-1.9-1.8c0-0.6,0.3-1.2,0.8-1.6c0.2-0.2,0.5-0.3,0.8-0.3l17.1-1.5h0.1
		c1,0,1.9,0.8,1.9,1.8c0,0.6-0.3,1.3-0.8,1.6c-0.3,0.2-0.5,0.2-0.8,0.3L26.9,21H26.7z"/>
	<path class="st0" d="M26.4,25.9c-1-0.2-1.7-1.1-1.5-2.1c0.1-0.6,0.5-1.2,1.1-1.4c0.3-0.1,0.6-0.2,0.9-0.1L44,23.8h0.1
		c1,0.2,1.7,1.1,1.5,2.1c-0.1,0.6-0.5,1.2-1.1,1.4c-0.3,0.1-0.6,0.2-0.9,0.1l-17.1-1.5L26.4,25.9z"/>
	<polygon class="st1" points="13.3,27.2 13.3,17.4 28.4,17.4 28.4,26.1 15.1,26.1 	"/>
	<rect x="1.9" y="4.5" width="1.6" height="38"/>
	<path class="st1" d="M18.8,24.7c-0.1,0.1-0.2,0.3-0.4,0.3L3.1,32.8c-0.5,0.3-1.2,0.1-1.5-0.4c0,0,0,0,0,0c-0.2-0.3-0.1-0.8,0.1-1.1
		C1.7,31.1,1.9,31,2,30.9l15.3-7.8c0.5-0.3,1.2-0.1,1.5,0.4C19,23.9,19,24.3,18.8,24.7z"/>
	<path class="st1" d="M17.5,20.6c-0.2,0-0.3,0-0.5-0.1L2,12.2c-0.5-0.3-0.7-0.9-0.4-1.5c0.2-0.4,0.6-0.6,1-0.6
		c0.2,0,0.3,0.1,0.5,0.1l15.1,8.3c0.5,0.3,0.7,0.9,0.4,1.5c0,0,0,0,0,0C18.3,20.4,17.9,20.6,17.5,20.6z"/>
	<ellipse class="st2" cx="13.1" cy="21.7" rx="3.7" ry="3.7"/>
</g>
</svg>
