<?xml version="1.0" encoding="utf-8"?>
<!-- Generator: Adobe Illustrator 23.1.0, SVG Export Plug-In . SVG Version: 6.00 Build 0)  -->
<svg version="1.1" id="Layer_1" xmlns="http://www.w3.org/2000/svg" xmlns:xlink="http://www.w3.org/1999/xlink" x="0px" y="0px"
	 viewBox="0 0 47 47" style="enable-background:new 0 0 47 47;" xml:space="preserve">
<style type="text/css">
	.st0{fill:#A0E8F9;}
	.st1{fill:#048BB5;}
	.st2{fill:#E0BC90;}
	.st3{fill:#EFAC14;}
	.st4{fill:#FFBE00;}
	.st5{fill:#BA0024;}
	.st6{fill:#10081D;}
	.st7{fill:#FFDFB2;}
	.st8{fill:#040306;}
	.st9{fill:#FFFDFA;}
</style>
<title>Canoeing</title>
<g>
	<g id="icons">
		<path class="st0" d="M39.8,25.1c-0.7-0.3-0.2-1.3-0.9-1.6c-0.3-0.2-0.8,0.3-1.1,0.1c-0.3-0.2-0.2-0.8-0.5-0.9
			c-0.9-0.6-1.3,0.5-1.6,1.1c-0.3,0.7-0.8,1.3-1.5,1.5c-0.3,0.2-0.7,0.2-1,0.5c-0.3,0.3-0.3,0.8-0.7,1c-0.8,0.4-1.6,0.6-2.4,0.7
			c-0.9,0.2-1.3,1.3-2,1.7c-0.7,0.5-1.5,0.8-2.3,1c-0.9,0-0.8-1-1.8-1.1c-1.3-0.1-0.7,0.8-1.1,1.5c-0.2,0.3-0.6,0.3-0.8,0.5
			c-0.4,0.4-0.3,0.6-1.1,0.7c-0.5-0.1-1.1,0-1.6,0.1c-0.4,0.2-0.6,0.6-0.9,0.8c-0.8,0.5-2.1,0.5-3,0.9c-0.6,0.3-1.2,0.7-1.8,0.8
			c-1.6,0.7-3.3,1.3-4.9,1.8c-0.3,0.1-0.7,0.2-1,0.2c-0.3-0.1-0.6-0.3-0.8-0.4c-0.5-0.1-0.3,0.1-0.7,0.3c-0.2,0.1,0,0.3-0.2,0.3
			c-0.2-0.1-0.7-0.3-0.8-0.3c-0.6-0.1-1.2-0.2-1.8-0.3C3,35.8,2.6,35.3,2,35.5c-0.6,0.1-1,0.6-0.9,1.2c0.1,1.3,2,1,2.8,1
			c0.9-0.1,1.8,0,2.8,0.1C7.8,38.1,9,38,10,37.5c0.3-0.2,1.4-0.8,1.8-0.5c0.3,0.3-0.4,0.9-0.6,1.2c-0.2,0.3-0.8,1-0.8,1.3
			c0.3,0.8,2.6,0.3,3.1,0.2c1.7-0.5,3.3-1.1,4.9-1.8c1-0.4,2-1.5,3-1.7c0.6,0,1.2,0.1,1.8,0.2c1,0.1,2.1,0.1,3.1-0.1
			c1.3-0.2,2.6-1,3.3-2.1c0.7-0.8,1.7-0.4,2.8-0.4c1.8,0,2.8-0.4,3.6-2.3c0.3-0.9,0.2-1.1,1-1c1.3,0.3,2.5,0.1,3.7-0.4
			c0.8-0.3,5.5-2.2,3.4-3.6c0.8-0.5,1.9-1,1.9-2.3c0-1.3-1.2-1.2-2.1-1.2c-1,0-2,0.4-2.8,1.1C40.8,24.5,40.5,25.1,39.8,25.1
			L39.8,25.1z"/>
		<path class="st1" d="M25.9,11.1L25.9,11.1c-0.6-0.2-1.3,0.4-1.8,0.7c-0.5,0.2-1.1,0.4-1.7,0.6s-1.1,0.6-1.5,1.1
			c-0.9,0.1-1.7,0.7-2,1.6c-0.2,0.7-0.1,1.3-0.5,1.9l0,0l0,0c0.6-0.3,1.3-0.2,1.8,0.2c0.1,0.1,0.1,0.1,0.2,0.2v-0.1
			c0.5-0.6,2.4-1.5,2.4-2.4l0.5,0.1c0.5,0.1,1,0,1.5-0.3c0.7-0.4,1.2-1.2,1.4-2C26.4,12.2,26.5,11.2,25.9,11.1z"/>
		<path class="st1" d="M20.6,17.5L20.6,17.5L20.6,17.5z"/>
		<path class="st1" d="M21.1,17.7c0.3-0.1-0.4-0.1-0.5-0.2C20.8,17.7,20.9,17.8,21.1,17.7z"/>
		<path class="st1" d="M18.5,17.1L18.5,17.1z"/>
		<path class="st1" d="M18.5,17.1L18.5,17.1L18.5,17.1z"/>
		<path class="st2" d="M20.1,18.4c0.2,0.2,0.6,0.3,0.8,0c0-0.1,0.1-0.4,0-0.5s-0.3,0-0.4-0.1C20.4,18,20.4,18.2,20.1,18.4L20.1,18.4
			z"/>
		<path class="st3" d="M19.9,23.3c-1.1,0.2-2.5,1.6-3.5,2.2c-1.8,1.2-3.7,2.3-5.7,3.3c-3.1,1.3-6,2.9-8.7,4.8
			c-1.6,1.2-1.5,2.6,0.4,3.3c1.5,0.4,3,0.4,4.5,0c2.6-0.6,5.2-1.5,7.7-2.3c3.5-1.2,7.1-2.5,10.5-3.9c2.8-1,5.5-2.1,8.1-3.4
			c2.8-1.4,5.4-3.2,7.8-5.3c0.9-0.8,3.8-3.3,3.5-4.8c-1.8-0.7-4.2,0.2-6,0.7c-3.1,0.8-6.2,1.8-9.2,2.7c-2.1,0.7-4.2,1.3-6.3,1.9
			c-1.1,0.5-2.2,0.8-3.3,0.9L19.9,23.3z"/>
		<path class="st4" d="M24,21.4c-1,0.2-2,0.6-2.9,1.1c-0.8,0.3-1.5,0.9-1.8,1.7c-0.5,1.7,0.4,3.5,2,4.1c2.2,1,4.8,0.6,7.1,0
			c2.1-0.6,4.9-1.6,5.7-4c0.8-2.4-2-2.4-3.6-2.6c-2-0.2-4.3-0.9-6.2-0.3L24,21.4z"/>
		<path class="st5" d="M26.9,11.2c-0.9-0.1-1.6,1.7-1.9,2.4c-0.7,1.5-1.1,3-1.3,4.6c-0.2,1.5-0.2,2.8,1,3.8c1.2,0.9,2.6,1.3,4.1,1.2
			c1.2,0,2.7-0.6,2.8-2c0.1-1.1,0.1-2.2,0-3.4c0-1.1,0-2.2,0-3.3c0.1-0.8,0.2-0.8-0.2-1.5c-0.2-0.4-0.3-1-0.8-1.1
			c-0.1,0-0.3,0-0.4,0c-0.2,0.8-3.6,2-3.6,2C26.8,13,26.9,12.1,26.9,11.2L26.9,11.2z"/>
		<path class="st6" d="M31.6,13.8c-1.2,1-3.1,1.3-4.6,0.6c-0.3-0.2-0.5-0.5-0.8-0.5c-0.4,0-0.8,0-1.2-0.3c-0.2,0.3-0.7,0.9-0.6,1.3
			c0.1,0.4,0.6,0.6,0.9,0.9c0.5,0.3,1.1,0.5,1.7,0.7c1.2,0.2,2.4,0.2,3.5,0c0.3,0,0.6-0.1,0.8-0.3c0.3-0.1,0.2-0.3,0.2-0.6
			C31.6,15.1,31.6,14.5,31.6,13.8L31.6,13.8z"/>
		<path class="st6" d="M31.7,18.1c-0.3,0.2-0.5,0.5-0.8,0.8c-0.5,0.4-1.1,0.6-1.7,0.6c-1.1,0.1-2.1,0-3.1-0.3
			c-0.9-0.2-2-0.7-2.2-1.6c0,0.7-0.2,1.1,0.2,1.7c0.6,0.7,1.5,1.2,2.4,1.3c1.1,0.2,2.3,0.2,3.5,0c0.6-0.1,1.2-0.3,1.7-0.6
			c0.3-0.2,0.2-0.6,0.2-1S31.9,18.3,31.7,18.1L31.7,18.1z"/>
		<path class="st1" d="M26.9,11.3L26.9,11.3c-0.5,0.9-0.7,2-0.5,3c0.7,0,1.4-0.7,2-1c0.7-0.4,1.3-0.8,1.9-1.3
			c-0.2-0.1-0.4-0.1-0.5-0.3c-0.1-0.1-0.3-0.4-0.4-0.5c-0.2,0.2-0.3,0.5-0.5,0.6c-0.2,0.1-0.5,0.2-0.8,0.2s-0.5,0-0.7-0.2
			C27.4,11.7,27.1,11.3,26.9,11.3L26.9,11.3z"/>
		<path class="st7" d="M29.7,8.8c0.1-0.2,0.3-0.4,0.5-0.1S30,9.3,29.9,9.6c0,0.6-0.2,1.1-0.6,1.4c-0.4,0.3-0.8,0.6-1.3,0.7
			c-0.4-0.2-0.8-0.5-1.1-0.9c-0.3-0.5-0.4-1-0.4-1.6c-0.3-0.1-0.1-0.4-0.1-0.6c0-0.3-0.1-0.6-0.1-0.8c0-0.7,0.4-1.3,1.1-1.5
			c0.7-0.3,1.6,0,2.1,0.6c0.3,0.4,0.7,1.2,0.5,1.6c0,0-0.1,0,0-0.1L29.7,8.8z"/>
		<path class="st6" d="M29.9,9.7c0,0.5-0.1,1.1-0.5,1.4c-0.4,0.4-0.8,0.6-1.3,0.6c-1-0.1-1.3-1.5-1.5-2.3c-0.6-1.2,0.2,1.5,0.4,1.8
			c0.2,0.5,0.7,0.8,1.2,0.9c0.5,0,1-0.3,1.3-0.8c0.3-0.4,0.4-0.9,0.4-1.4C29.9,9.8,29.9,9.8,29.9,9.7L29.9,9.7z"/>
		<path class="st6" d="M29.4,11.2c0.3,0,0.9-0.7,1-1c0.3-0.7,0.5-1.5,0.5-2.2c0-1.4-1.2-2.6-2.7-2.6c-0.2,0-0.3,0-0.5,0.1
			c-1,0.3-1.7,1.3-1.6,2.3C26,8.6,26.2,9.3,26.6,10c-0.2-0.5-0.3-1-0.1-1.5c0.3-0.8,0.7-0.3,1.2-0.3s1.6-0.5,1.8,0.1
			c0.1,0.5,0.2,1,0.3,1.4C29.7,10.2,29.6,10.7,29.4,11.2z"/>
		<path class="st4" d="M26.1,8.7c-0.1-0.1-0.5,0-0.5-0.4c0-0.4,0.3-0.4,0.5-0.6c0.7-0.3,1.4-0.4,2.1-0.3c0.8,0,1.6,0.2,2.2,0.7
			c0.2,0.2,0.3,0.5,0.4,0.7c0.1,0.3,0.1,0.4-0.1,0.6c-0.1,0-0.1,0-0.2,0c0,0.1,0,0.2,0,0.4C31,9.9,31.6,9.9,32,9.5
			c0.3-0.4,0.4-1,0.3-1.5c-0.4-1.8-1.5-2.9-4.5-2.8c-1.4,0-2.6,0.8-3,2.1C24.6,8,25.5,8.6,26,8.7H26.1z"/>
		<path class="st5" d="M26.4,9.8c-0.4-0.3-0.7,0.7-0.7,1c0,0.6,0.1,1.1,0.2,1.7c0.4,0.8,0.6,1.7,0.6,2.7c0.2-0.5,0.2-1,0.2-1.5
			s0-1,0.1-1.5c0.1-0.6,0.3-0.7,0.1-1.2C26.8,10.6,26.6,10.1,26.4,9.8L26.4,9.8z"/>
		<path class="st6" d="M29.4,8.1c0.3,0.9,0.2,1.8-0.1,2.7c-0.1,0.4-0.4,0.7-0.7,0.9c-0.2,0.1-0.4,0.2-0.6,0.2c0.2,0.2,0.8,0,1-0.1
			c0.3-0.2,0.6-0.5,0.9-0.8c0.3-0.5,0.5-1.1,0.4-1.7c0-0.4-0.2-1-0.7-1.1L29.4,8.1L29.4,8.1z"/>
		<path class="st5" d="M29.6,11.2c-0.1,0.5-0.4,0.9-0.8,1.2c-0.3,0.3-0.7,0.6-1,0.9c-0.5,0.5-1.2,1-1.3,1.8c0.2,0,0.6-0.4,0.8-0.5
			c0.4-0.2,0.8-0.4,1.2-0.5c0.9-0.3,1.7-0.8,2.4-1.4c0.5-0.3,0.7-0.9,0.5-1.4c-0.2-0.3-0.5-0.6-0.9-0.7l-0.2-0.1
			C30.1,10.8,29.9,11,29.6,11.2L29.6,11.2z"/>
		<path class="st6" d="M24.4,21.5c0,0.3,0,0.5,0.1,0.8c0.2,0.3,0.5,0.5,0.7,0.6c0.7,0.5,1.6,0.8,2.5,0.9c0.8,0.1,1.7,0,2.4-0.3
			c0.4-0.2,1.1-0.5,1-1.1c-1.3,0.6-2.9,0.8-4.3,0.4c-0.6-0.1-1.2-0.3-1.7-0.6c-0.1-0.1-0.3-0.2-0.4-0.4
			C24.6,21.7,24.3,21.6,24.4,21.5L24.4,21.5z"/>
		<path class="st6" d="M24.4,21.7c-0.6,0.3-0.9,0.8-1.4,1.2s-0.7,1,0,1.3c2,1,4.2,1.2,6.4,0.6c0.7-0.2,1.8-0.4,2.1-1.2
			c0.1-0.3,0-0.9-0.4-0.9c-0.1,0-0.4,0.3-0.6,0.4c-0.3,0.1-0.6,0.2-0.9,0.2c-0.6,0.1-1.2,0.1-1.7,0.1c-0.7-0.1-1.4-0.3-2.1-0.6
			c-0.5-0.2-1.2-0.5-1.4-1L24.4,21.7z"/>
		<path class="st4" d="M30.6,27.5c-1.4,0.1-2.7,0.1-4.1,0c-1.2-0.1-2.4-0.5-3.5-1.1c-1.2-0.8-2.1-2-2.5-3.4c-0.6,0.3-1,0.8-1.2,1.4
			c-0.5,1.7,0.4,3.5,2,4.1c2.2,1,4.8,0.7,7.1,0c1-0.3,2-0.6,3-1.1C31.1,27.4,30.9,27.5,30.6,27.5z"/>
		<path class="st3" d="M44.7,17.2c-0.8-0.3-1.6-0.3-2.4-0.2c-0.1,1-0.5,1.9-1.2,2.6c-0.9,1.2-1.9,2.3-3.1,3.2
			c-2.3,2-4.9,3.6-7.8,4.8c-3.5,1.5-7.2,2.8-10.9,3.8c-3.3,1-6.5,2-9.9,2.8c-2.4,0.6-5.6,1.2-7.8-0.3c-1.2,1.1-1,2.4,0.8,3
			c1.5,0.4,3,0.4,4.5,0c2.6-0.6,5.2-1.5,7.7-2.3c3.5-1.2,7.1-2.5,10.5-3.9c2.8-1,5.5-2.1,8.1-3.4c2.8-1.4,5.4-3.2,7.8-5.3
			C42.1,21.2,44.9,18.6,44.7,17.2z"/>
		<path class="st1" d="M29.9,13.6c-0.6,0-0.7,1.5-0.7,1.9c-0.1,0.7-0.1,1.3-0.2,2c-0.1,0-0.2-0.2-0.3-0.1c-0.1,0.1,0,0.4-0.2,0.4
			l0,0l-0.1,0.1c-0.1-0.3,0-0.3-0.3-0.4c-0.2-0.1-0.4-0.1-0.6-0.3c-0.4-0.2-0.7-0.5-1-0.8c-0.1,0.1-0.3,0.3-0.5,0.5
			c-0.2,0.2-0.3,0.3-0.4,0.5c-0.2,0.4,0.9,1.4,1.1,1.6c0.6,0.5,1.3,0.9,2,1c0.2,0.1,0.5,0.1,0.7-0.1c0.4-0.3,0.7-0.7,0.9-1.2
			c0.4-0.8,0.8-1.7,1-2.6c0.2-0.7,0.3-1.4,0.2-2.1c-0.1-0.5-0.5-0.8-1-0.7c-0.2,0-0.8,0-0.9,0.3H29.9z"/>
		<polygon class="st8" points="38.4,11.7 38.4,12.4 12.8,20.4 12.9,19.6 		"/>
		<path class="st8" d="M10.4,18.4c1.7-0.5,4.8-0.3,4.9,1c0.1,1.3-2.7,3.2-4.5,3.7s-3.4-0.6-3.5-1.3C7.3,20.8,8.8,18.9,10.4,18.4z"/>
		<path class="st8" d="M40.3,9c-1.7,0.5-4.6,2.5-4.5,3.8s3.2,1.4,4.9,1c1.5-0.5,2.6-1.8,3.1-3.3C43.8,9.6,41.9,8.5,40.3,9z"/>
		<path class="st7" d="M26.6,16.6c-0.1-0.1-0.2-0.2-0.2-0.4c-0.1-0.4-0.2-1-0.5-1.1c-0.1,0-0.1-0.1-0.2-0.1c0-0.1-0.1-0.1-0.2-0.1
			s-0.1,0-0.1,0l0,0c0,0,0,0,0,0.1s-0.1,0-0.1,0s-0.1,0.1-0.1,0.2l-0.1,0.1c-0.1,0-0.1-0.1-0.2,0s-0.1,0.2,0,0.3l0,0
			c-0.1-0.1-0.4,0.1-0.4,0.3V16c0,0-0.1,0.1-0.1,0.2c0.1,0,0.2,0.1,0.3,0.2c0.1,0.1,0.2,0,0.3,0.2c0.1,0.1,0.2,0.2,0.3,0.3
			c0.1,0.3,0.3,0.5,0.5,0.7c0.3,0.2,0.7-0.2,0.9-0.4C26.9,17,26.8,16.8,26.6,16.6z"/>
		<path class="st7" d="M18.3,17.5c0,0.4,0.6,2.1,0.8,1h0.1c0,0.4,0.5,0.3,0.5,0c0.2,0,0.2,0.2,0.4,0.1c0.2-0.1,0.1-0.2,0.2-0.2
			s0.1,0.2,0.3,0.1c0.2-0.1,0-1.1-0.1-1.4c-0.4-0.5-0.8-0.2-1.2-0.1c-0.2,0-1.1,0.3-0.9,0.7L18.3,17.5z"/>
		<path class="st9" d="M33.3,27.9c-0.1,0.1-0.3,0.1-0.4,0c0.2-0.7-0.6-0.6-0.8-0.2c-0.5-0.4-0.6,0-0.9,0.3s-0.4,0.4-0.6,0.5
			c-0.6-0.9-1.6,1-2.3,0.8c-0.3-0.6-2,1.1-2.6,1c0-0.3,0-0.7-0.1-1c0-0.4,0.1-0.8-0.4-1c-0.9-0.6-1.4,0.7-0.7,1
			c-0.1,0.2,0,0.5,0.1,0.7c-0.5,0-0.5,0.5-0.4,0.8c-0.3,0.1-0.6-0.1-0.9,0s-0.5,0.6-1,0.7c-0.3-0.5-0.8-0.2-1,0.1
			c-0.1,0.2,0,0.3-0.2,0.5c-0.2,0.2-0.4,0-0.6,0.1C20,32,20,32.3,19.7,32.5c-0.2,0.1-0.5,0.2-0.7,0.3c-0.3,0.1-0.7,0.2-1,0.4
			c-0.3,0.1-0.7,0.2-1.1,0.3c-0.6,0.1-1.3,0.6-1.9,0.8c-0.6,0.2-1.4,0.6-2.2,0.8c1.3,0.5,2.5-0.6,3.7-0.7c-0.4,0.4-0.1,1,0.5,0.8
			c0.4-0.1,0.3-0.5,0.8-0.5c-0.1,0.9,0.5,0.7,1,0.5c0.5-0.3,0.8-0.8,0.9-1.3c0.7-0.1,1.3-0.3,1.9-0.6c0,0.8,0.8,0.3,0.9-0.1
			c0.1,0,0.3-0.1,0.4-0.1c0.3,0.5-0.3,0.8-0.5,1.2c-0.2,0.8,0.4,1,1,1.1c0.6,0.1,1.2-0.2,1.3-0.8c0-0.1,0-0.1,0-0.2
			c0.1-0.6,0.1-1,0.1-1.5c0.4,0.1,0.5-0.3,0.7-0.5c0.3,0.3,0.6-0.1,0.9-0.2c0.3-0.1,0.3,0,0.5-0.2c0.2-0.2,0.3-0.4,0.3-0.7
			c0.4,0.5,0.6-0.3,0.9-0.5s0.3-0.1,0.5-0.2c0.2-0.2,0.4-0.4,0.5-0.5c0.6-0.3,1.4,0.7,1.5-0.5c0.3,0.1,0.3-0.2,0.6-0.3
			s0.6,0.2,0.8-0.3c0.3,0.1,0.6,0,0.7-0.2v-0.1c0.2,0.1,0.5,0,0.5-0.3c0.4,0.4,0.5-0.1,0.8-0.4c0.3-0.3,0.5-0.5,0.4-0.8
			C34.3,27.1,33.7,27.6,33.3,27.9L33.3,27.9z"/>
		<path class="st9" d="M8.9,36.3c-0.1-0.2-0.3,0.1-0.5,0.1c0-0.3-0.5-0.4-0.7-0.2c-0.2,0.2,0,0.2-0.2,0.3s-0.3,0-0.4,0
			c-0.5,0.1-1,0.3-1.6,0.3c-0.3,0-0.6,0-0.8,0.2c-0.1,0.2-0.4,0.2-0.6,0.2c-0.6,0.1-1.2,0-1.8-0.2c0.5,0.3,1,0.4,1.6,0.4
			c0.5,0,1-0.2,1.5-0.2c-0.1,0.1-0.3,0.2-0.3,0.4c0.3,0,0.5,0,0.7-0.1c-0.1,0.2-1,0.5-0.2,0.7c0.4,0.1,0.5-0.4,0.9-0.5
			c0,0.1,0,0.2,0,0.3c0.2,0,0.4-0.2,0.5-0.3C7.1,38,7.4,38,7.5,37.7c0.4-0.1,0.2,0.3,0.4,0.4s0.4-0.3,0.6-0.3s0.4,0.3,0.6,0.1
			S9,37.5,8.9,37.4c0.3,0,0.4-0.2,0.6-0.2s0.4,0.3,0.6-0.1c0.2,0.2,0.6,0,0.5-0.3c0.5,0.6,1.1-0.6,0.6-0.7c0.3-0.2,0.3-0.8-0.1-0.8
			c-0.2,0-0.8,0.6-0.9,0.8C9.9,35.4,9.1,36.1,8.9,36.3L8.9,36.3z"/>
	</g>
</g>
</svg>
