<?xml version="1.0" encoding="utf-8"?>
<!-- Generator: Adobe Illustrator 23.1.0, SVG Export Plug-In . SVG Version: 6.00 Build 0)  -->
<svg version="1.1" id="Layer_1" xmlns="http://www.w3.org/2000/svg" xmlns:xlink="http://www.w3.org/1999/xlink" x="0px" y="0px"
	 viewBox="0 0 47 47" style="enable-background:new 0 0 47 47;" xml:space="preserve">
<style type="text/css">
	.st0{fill:#87AAA9;}
	.st1{fill:#C9D6D6;}
	.st2{fill:#D32D00;}
	.st3{opacity:0.34;}
</style>
<title>Carpentry</title>
<g>
	<g id="icons">
		<g id="Carpentry">
			<path class="st0" d="M20.7,37.3L44.6,2.4l-1.1-1.1C42.2,0,40,0,38.7,1.4c0,0,0,0,0,0L13.2,26.8L20.7,37.3z"/>
			<path class="st1" d="M21.7,38.1c0.4-0.6-0.6-1-0.2-1.6c0.4-0.6,1.4-0.1,1.8-0.7c0.4-0.6-0.6-1-0.2-1.6s1.4-0.1,1.8-0.7
				c0.4-0.6-0.6-1-0.2-1.6c0.4-0.6,1.4-0.1,1.8-0.7s-0.6-1-0.2-1.6s1.4-0.1,1.8-0.7s-0.6-1-0.2-1.6c0.4-0.6,1.4-0.1,1.8-0.7
				c0.4-0.6-0.6-1-0.2-1.6c0.4-0.6,1.4-0.1,1.8-0.7c0.4-0.6-0.6-1-0.2-1.6c0.4-0.6,1.4-0.1,1.8-0.7c0.4-0.6-0.6-1-0.2-1.6
				s1.4-0.1,1.8-0.7c0.4-0.6-0.6-1-0.2-1.6c0.4-0.6,1.4-0.1,1.8-0.7s-0.6-1-0.2-1.6c0.4-0.6,1.4-0.1,1.8-0.7c0.4-0.6-0.6-1-0.2-1.6
				c0.4-0.6,1.4-0.1,1.8-0.7c0.4-0.6-0.6-1-0.2-1.6s1.4-0.1,1.8-0.7c0.4-0.6-0.6-1-0.2-1.6C41,8,41.9,8.4,42.4,7.8
				c0.5-0.6-0.6-1-0.2-1.6s1.4-0.1,1.8-0.7s-0.6-1-0.2-1.6s1.4-0.1,1.8-0.7l-1-0.7l-1.2-0.2L19.9,35.3l-0.1,3.7L21.7,38.1z"/>
			<path class="st2" d="M3.6,38.6C2.9,39.2,2,39,1.4,38.4l-0.1-0.2c-0.5-0.7-0.4-1.6,0.2-2.2c0.1,0,0.1-0.1,0.2-0.1h0.1
				c1.1-0.8,2.1-1.8,2.7-3c0.1-0.2,0.3-0.5,0.5-0.7l5.3-5.3c1.7-1.7,4.3-1.7,6-0.1l3.9,3.6c1,0.9,1.4,2.2,1.2,3.4l-0.8,5.4
				c-0.1,0.6-0.4,1.2-0.8,1.6l-3.1,3.1c-0.5,0.5-1.2,0.8-1.9,0.8c-0.5,0.6-0.9,1.2-1.3,1.9c-0.3,0.5-1,0.7-1.5,0.4
				c0,0-0.1,0-0.1-0.1c-0.4-0.3-0.7-0.5-1.1-0.8c-0.4-0.4-0.5-1-0.2-1.4l0,0c0.7-0.9,0.6-2.1-0.2-2.9l-2.9-2.9
				C6.5,37.8,4.8,37.7,3.6,38.6L3.6,38.6z M17.2,37.6l0.1-0.7c0.4-2.5-0.5-5-2.3-6.7l0,0c-0.9-0.8-2.3-0.8-3.1,0l-1.6,1.6
				c-0.2,0.3-0.4,0.5-0.6,0.8c-0.8,1.1-0.7,2.5,0.2,3.5l2.9,3c1,1,2.7,1,3.7,0l0,0C16.9,38.7,17.1,38.1,17.2,37.6z"/>
			<g class="st3">
				<path class="st1" d="M37.4,13.2c0.4-0.6,1.4-0.1,1.8-0.7c0.4-0.6-0.2-0.8-0.3-1.3H28.8l-2.2,2.2h10.8
					C37.3,13.4,37.3,13.3,37.4,13.2z"/>
			</g>
			<g class="st3">
				<path class="st1" d="M35.8,15.5c0.4-0.6,1.4-0.1,1.8-0.7c0.1-0.1,0.1-0.2,0.1-0.3H25.5L24,16h11.7
					C35.7,15.9,35.7,15.7,35.8,15.5z"/>
			</g>
		</g>
	</g>
</g>
</svg>
