<?xml version="1.0" encoding="utf-8"?>
<!-- Generator: Adobe Illustrator 23.1.0, SVG Export Plug-In . SVG Version: 6.00 Build 0)  -->
<svg version="1.1" id="icons" xmlns="http://www.w3.org/2000/svg" xmlns:xlink="http://www.w3.org/1999/xlink" x="0px" y="0px"
	 viewBox="0 0 47 47" style="enable-background:new 0 0 47 47;" xml:space="preserve">
<style type="text/css">
	.st0{fill:#404141;}
</style>
<title>Carrying Heavy Loads</title>
<path class="st0" d="M17.1,6.9c-0.3-2,1.1-3.8,3.1-4.1s3.8,1.1,4.1,3.1s-1.1,3.8-3.1,4.1c0,0,0,0,0,0C19.2,10.2,17.4,8.9,17.1,6.9z
	 M24.3,20.7c-2.5-1.1-4.2-3.3-4.7-5.9c1-1.3,0.7-3.2-0.6-4.3c-1.3-1-3.2-0.7-4.3,0.6l0,0c-3.2,4.3-4.1,10.8-2.3,16.6
	c0.1,0.3,0.3,0.7,0.5,1c1,1.3,4.2,6.4,0.6,15c-0.4,1,0.1,2.1,1.1,2.5c0,0,0,0,0,0c0.3,0.1,0.7,0.2,1,0.1c0.7-0.1,1.3-0.5,1.6-1.2
	c1.9-4.2,2.4-9,1.4-13.5c1.5,1.9,2.9,6.3,1.8,12.4c-0.2,1.1,0.5,2.1,1.5,2.3c0,0,0,0,0,0c0.2,0,0.4,0,0.6,0c0.9-0.1,1.6-0.7,1.7-1.6
	c1-5.5,0.4-11-1.9-14.5c-1-1.6-2.3-2.9-4-3.9c-0.8-2.7-0.9-5.6-0.3-8.3c0.7,1.4,1.7,2.5,3,3.5c1,0.8,2.1,1.4,3.3,1.9v3
	c0,0.9,0.7,1.6,1.6,1.6c0,0,0,0,0,0h7.4c0.9,0,1.6-0.7,1.6-1.6c0,0,0,0,0,0v-7.5H24.3V20.7z M27.3,16.1h4c0.6-0.1,1-0.6,0.9-1.2
	v-3.5c0.1-0.6-0.3-1.1-0.9-1.2h-4c-0.6,0.1-1,0.6-0.9,1.2v3.5C26.4,15.5,26.8,16,27.3,16.1L27.3,16.1z M28.8,5.8v2.6
	c0,0.6,0.5,1.2,1.2,1.2h3c0.6,0,1.2-0.5,1.2-1.2V5.8c0-0.6-0.5-1.2-1.2-1.2h-3C29.3,4.6,28.8,5.2,28.8,5.8z M28.6,4.2h2.1
	c0.6,0,1.2-0.5,1.2-1.2V1.6c0-0.6-0.5-1.2-1.2-1.2h-2.1c-0.6,0-1.2,0.5-1.2,1.2V3C27.4,3.6,27.9,4.1,28.6,4.2L28.6,4.2z M23.9,18.4
	h11.5c0-0.9-0.7-1.6-1.6-1.6c0,0,0,0,0,0h-8.4C24.6,16.7,23.9,17.4,23.9,18.4C23.9,18.3,23.9,18.4,23.9,18.4L23.9,18.4z"/>
</svg>
