<?xml version="1.0" encoding="utf-8"?>
<!-- Generator: Adobe Illustrator 23.1.0, SVG Export Plug-In . SVG Version: 6.00 Build 0)  -->
<svg version="1.1" id="icons" xmlns="http://www.w3.org/2000/svg" xmlns:xlink="http://www.w3.org/1999/xlink" x="0px" y="0px"
	 viewBox="0 0 47 47" style="enable-background:new 0 0 47 47;" xml:space="preserve">
<style type="text/css">
	.st0{fill:#F49F60;}
	.st1{fill:#2758BA;}
	.st2{fill:#DD7F37;}
	.st3{fill:#040501;}
	.st4{fill:#FFCE45;}
</style>
<title>CheerleadingCompetitive</title>
<path class="st0" d="M26.5,26c0.7-0.3,2.2-1.5,2.9-1.8s0.6-1,1.1-1.3c0.1,0.3,2.6,4.2,3.1,5.2c1.2,2.4,1.9,4.9,2,7.5
	c0.1,1.8,0.3,3.9,0.4,5.2l-1.2,1c-0.2-2-2.6-6.3-3.1-7.7c-0.2-0.9-0.2-1.9,0-2.8C31,30.1,27.5,27.4,26.5,26z"/>
<path class="st1" d="M36.4,39.5c0,0-1.1-0.7-1.3,0.9c0,0.2-0.7,0.4-0.7,0.4s-0.4,1.1-0.1,1.5c0.6,0.4,1.1,0.9,1.8,1.2
	c0.7,0.4,0.7,1.6,2.4,0.9c0.8-0.3,0.8-1.1,0-1.8C37.6,41.7,36.9,40.6,36.4,39.5z"/>
<path class="st1" d="M34.9,16.8c0.2-0.3,0.3-0.7,0.3-1c-0.4-0.6-1-1-1.5-1.5c-0.7,0.1-1.5,0.2-2.1,0.1c-0.3-0.1-0.8,0-1.1,0.2
	c0.3,0.2,3,2.6,3.4,2.8C34.3,17.5,34.7,17.3,34.9,16.8z"/>
<path class="st0" d="M35.4,9.2c-0.1-0.4-0.2-0.8-0.3-1.2c-0.3-0.8-0.2-1.2,0.9-1.6c1.1-0.2,3,1.5,2.7,1.8c-0.3,0.3-1.7,0.7-1.7,1.2
	C36.9,10,35.1,10,35.4,9.2z"/>
<path class="st0" d="M11.7,11.8c-0.7,0.1-1.3,0.3-1.9,0.6c0,0.6,0,1.2,0.1,1.8c0.3,0,1.2-0.8,1.6-0.8h0.4
	C11.9,12.8,11.9,12.2,11.7,11.8z"/>
<path class="st0" d="M24,20.6c-0.9,1.6-1.6,3.3-2.1,4.9l1.7,0.3c2.6,0.2,5.2-0.3,7.5-1.5c-0.2-0.8-0.6-1.5-0.9-2.1
	c-0.4-1-1.7-2.2-0.4-4.5c0.2-0.3,0.4-0.8,0.6-1.2c-1.6-1.6-2.9-3.3-4.2-5.1c0.4,1.8,0.4,4.2-2.2,4.9h-0.1
	C24.2,17.8,24.4,19.2,24,20.6z"/>
<path class="st0" d="M26.1,25.8c-0.7-0.3-1.8-1.2-2.5-1.7s-0.6-1-1.1-1.3c-0.1,0.3-2.6,4.2-3,5.2c-1.2,2.4-1.9,4.9-2.1,7.5
	c-0.1,1.8-0.3,3.9-0.4,5.2l1.2,1c0.2-2,2.2-6.3,2.8-7.7c0.3-0.9,0.4-1.9,0.3-2.8C22.1,30.1,25.1,27.1,26.1,25.8z"/>
<path class="st0" d="M26.8,10.4h-0.4c-0.1,0.2-0.2,0.3-0.4,0.4c0,0.1,0.1,0.3,0.1,0.4c0,0,0,0,0-0.1C26.3,10.9,26.5,10.5,26.8,10.4z
	"/>
<path class="st1" d="M25.6,4.1l-0.1-1.6c0,0,1.8,0,2.2,0.9C28.5,3,29.3,2.9,30.2,3l-0.9,2L25.6,4.1z"/>
<path class="st2" d="M27.6,10.8c0.2,0,0.4-0.1,0.7-0.3c-0.1-0.4-0.1-1,0-1.5h-1.8c0,0.4-0.1,0.9-0.1,1.3
	C26.7,10.6,27.2,10.9,27.6,10.8z"/>
<path class="st0" d="M30,6.9c0-0.3-0.3-0.2-0.4-0.2c-0.1-1.2-0.8-2.1-1.8-2.2c-1-0.1-1.8,0.7-2,2c-0.2-0.1-0.3,0-0.4,0.1l0,0
	c-0.1,0.4,0,0.8,0.4,1l0,0c0,0.2,0.1,0.4,0.1,0.7c0.3,0.9,1.1,1.7,1.7,1.7c0.6,0,1.2-0.6,1.8-1.5c0.1-0.2,0.2-0.3,0.2-0.6l0,0
	C29.7,7.8,30,7.4,30,6.9z"/>
<path class="st3" d="M29.4,4c-0.4-0.4-1.1-0.6-1.7-0.4c-2.6-1.2-3.1,2.6-2.6,3.7c1,0,2.1-1.7,2.4-2.1c0.3,0.9,1.2,1.6,2.1,1.6
	C30.1,5.8,30,4.8,29.4,4z"/>
<path class="st1" d="M10.5,12.3c0,0,0,0.7-1.3,1.6c-1.3,0.9-2.1,1-2.7,1.8c-0.6,1-0.6,2.2-0.1,3.3c0.4,1.1-0.4,1.7-0.9,0.2
	c-0.2-0.9-0.3-1.9-0.2-2.8c-0.3,0.6-0.7,1.3-0.8,2c-0.1,1.1,0.1,2.4-0.7,1.6c-0.3-0.3-0.1-1.7,0-2c0.2-0.7,0.7-2,0.7-2
	s-1.3,1.6-2.1,1.7s-1.7,0-1.5-0.6C1,16.7,2,17,2.7,16.6c0.8-0.4,1.2-1.2,1.5-2.1c0,0-2.5,0.8-3,0.4c-0.6-0.3-0.8-1.5-0.2-1.1
	c0.6,0.4,1.2,0.6,1.9,0.3c0.6-0.2,1.2-0.4,1.8-0.7C4,13.1,3.5,13,2.8,12.9c-0.7,0.1-1.2,1-1.7,0.4c-0.2-0.2,0.3-0.6,0.6-0.9
	c0.7-0.4,1.5-0.8,2.2-1.1c-0.4-0.2-1.1-0.3-0.2-1c0.9-0.7,2.8-0.2,4.2,0.6C8.6,11.4,9.5,11.9,10.5,12.3z"/>
<path class="st1" d="M10.2,12.7c0.2,0.2,0.3,0.6,0.2,0.9c-0.1,0.7-0.6,1.1-0.6,1.5c-0.1,0.8,0.4,1.5,1.2,1.6c0.1,0,0.2,0,0.3,0
	c0.9-0.1,1,0.2,0.4,0.6c-0.7,0.3-1.5,0.1-2-0.4c-0.3-0.4-0.6-1-0.7-1.6c0,0-1,1.2-0.3,2.1c0.6,0.8,1.6,0.7,1.6,1.1s-0.7,0.1-1.1-0.2
	c-0.4-0.3-1.6-0.2-1.7-1.7c-0.1,0.4-0.2,1-0.2,1.6c0,0.3-0.1,0.7-0.3,1c0,0-0.9-0.4-0.7-2.1s0.7-2,1.9-2.8
	C9.1,13.8,9.6,13.2,10.2,12.7z"/>
<path class="st4" d="M10.5,12.3c-1.3,0.1-2.7,0.1-4-0.2c-1.5-0.4-2.9-0.2-4.2,0.7c-1,0.8-1.1,0.2-0.3-0.7c1.1-1,2.8-1.3,4.3-0.7
	C7.7,11.8,9.1,12.1,10.5,12.3z"/>
<path class="st4" d="M10.5,12.3c-0.9,1-2,1.6-3.3,1.9c-2.1,0.4-2.8,0.2-3.8,1s-1.9,1.7-1.9,0.9s0.6-1.2,1.9-1.8
	c1.2-0.4,2.6-0.7,3.9-0.8C8.5,13.2,9.5,12.8,10.5,12.3z"/>
<path class="st4" d="M9.9,13.3c-1,0.4-2,0.9-2.9,1.6c-1,0.8-1.6,2.1-1.1,3.4c0.4,1.3,1.3,1.6,1.7,1.6s0.2-0.3-0.2-1.1
	c-0.4-0.6-0.7-1.3-0.7-2.1c0.2-0.9,0.9-1.7,1.7-2.1C8.9,14.2,9.4,13.8,9.9,13.3z"/>
<path class="st1" d="M16.6,39.5c0,0,1.1-0.7,1.3,0.9c0,0.2,0.7,0.4,0.7,0.4s0.4,1.1,0.1,1.5c-0.6,0.4-1.1,0.9-1.8,1.2
	c-0.7,0.4-0.7,1.6-2.4,0.9c-0.8-0.3-0.8-1.1,0-1.8C15.5,41.7,16.2,40.6,16.6,39.5z"/>
<path class="st1" d="M28.8,14.8c0,0,1.1-0.9,1.6-1.2c0.4-0.3,0.8-0.2,1.5-0.2c0.3,0,0.7,0,1-0.1c-0.4-0.4-0.8-0.9-1-1.1
	c-0.9-0.9-2.2-0.7-3.1-0.9c-0.2,0-0.4,0-0.7,0.1c-0.4,0.3-1.9-0.3-1.9-0.1c0,0,0,0,0,0.1v0.1C26.8,12.7,27.8,13.8,28.8,14.8z"/>
<path class="st4" d="M31.8,14.6c0.7,0,1.5,0,2.1-0.1l-1-1.1c-0.3,0-0.8,0-1.1,0c-0.6,0-0.9-0.1-1.3,0.3c-0.4,0.4-1.6,1.2-1.6,1.2
	l1.6,0.1c0,0,0.2-0.3,0.2-0.2C31,14.5,31.3,14.5,31.8,14.6z"/>
<path class="st1" d="M21.7,10.5c-1.5,0.2-2.9,0.3-4.3,0.4c-1.9,0.1-3.8,0.3-5.7,0.9c0.2,0.4,0.3,1,0.2,1.6c1.7-0.1,3.4-0.1,4.9-0.1
	c2.9-0.1,5.7-0.4,8.6-1C25,11.4,22.3,11.2,21.7,10.5z"/>
<path class="st4" d="M30.9,14.9c-0.2-1.2-0.6-2.4-1-3.5L29,11.3c0,0-0.9,1.2-1.7,2.2c-0.4-0.8-0.8-1.5-1.1-1.9
	c-0.1-0.2-0.1-0.6-0.2-0.8h-0.1l-0.6-0.3c-2-0.2-4-0.1-6,0.3c1.7,1.1,1.6,0.9,3.4,2c0.1,0.8,0.3,1.6,0.7,2.4l0,0
	c0.3,0.7,0.6,1.5,0.8,2.1c1.9-0.6,3.9-0.3,5.7,0.4C30.4,16.9,30.9,15.9,30.9,14.9z"/>
<path class="st1" d="M29.7,21.3c-2.2,0.7-3.9,0.9-5.8-0.4c-1.7,2.4-3.9,4.9-3.9,4.9c1.8,1.5,4,2.4,6.4,2.6c1.1,0,2.2-0.1,3.4-0.3
	c0-0.8,0-3.6,0-3.6s0.6,1.3,1.1,3.1c0.7-0.2,3-1.2,3-1.2S30.9,22.5,29.7,21.3z"/>
<path class="st4" d="M23.9,21l-0.6,0.8c1.1,0.6,2.5,0.9,3.7,0.9c1.1,0,2.1-0.2,3-0.8l-0.4-0.7c-1,0.2-2.1,0.4-3.3,0.3
	C25.5,21.5,24.7,21.3,23.9,21z"/>
<path class="st4" d="M20.1,25.8l-0.4,0.4c1.5,1.1,3.3,1.8,5.1,2.1c1.7,0.2,3.4,0.2,4.9-0.1l0.1-2.8l0.9,2.7l3.4-1.2l-0.4-0.6
	L31,27.5l-1.6-3.4l-0.3,3.6c-1.3,0.2-2.8,0.2-4.3,0.1C23.1,27.5,21.4,26.8,20.1,25.8z"/>
<path class="st1" d="M29.1,11.3c0,0-0.7-0.3-0.8-0.8c-0.3,0.2-0.3,0.2-1,0.1c-0.3,0-0.7-0.1-1-0.3c-0.1,0.2-0.4,0.4-0.7,0.4
	c-0.3-0.1-0.7-0.3-1-0.4c-1.2-0.2-2.5-0.1-3.7,0.2c1.1,0.8,2.2,0.9,2.9,2c0.9,1.1,1.9,2.1,3.1,3c1.2-0.6,2.4-1.3,3.5-2.1
	c0.4-0.4,0.8-0.9,1.3-1.2C31.9,12.2,31.2,11.2,29.1,11.3z"/>
<path class="st1" d="M24,17.6c0.9-0.1,1.9-0.1,2.8,0s1.8,0.2,2.7,0.4l0.2-0.3c-0.9-0.3-1.9-0.7-2.9-0.8c-1,0-1.9,0-2.9,0.1L24,17.6z
	"/>
<path class="st4" d="M24.7,11.2c0.1,0.8,0.6,1.6,1.2,2.1c0.6,0.3,0.9,0.8,1.2,1.3c0.6-0.6,1.2-1,1.9-1.3c0.6-0.2,1-0.6,1.3-1
	c-0.7,0.2-1.5,0.3-2.2,0.1c-0.3-0.2-0.7-0.6-0.9-0.9c0,0-0.6,0.9-1,0.8S24.7,11.2,24.7,11.2z"/>
<path class="st1" d="M25.2,11.9c0.1,0.3,0.4,0.7,0.7,1c0.4,0.3,0.9,0.8,1.2,1.2c0.3-0.3,0.7-0.7,1.1-0.9c0.6-0.2,1-0.6,1-0.6
	s-1.1,0.3-1.6,0c-0.4-0.3-0.7-0.6-0.7-0.6s-0.4,0.6-0.9,0.4C25.9,12.4,25.6,12.2,25.2,11.9z"/>
<path class="st1" d="M34,13.1c0.8-2.6,1.3-3.9,1.3-3.9c0.2,0.2,0.4,0.3,0.8,0.3c0.2,0,0.6,0,0.8,0c0,2.1-0.3,4.3-0.8,6.3
	c-0.3,1-1.1,1.7-2.1,1.7C33.6,16.1,33.6,14.6,34,13.1z"/>
<path class="st4" d="M35.4,6.6c0,0,0.2,0.7,1.8,0.9c1.6,0.2,2.4,0.1,3.3,0.7c0.9,0.8,1.3,1.9,1.3,3c0,1.2,1.1,1.3,0.9-0.2
	c-0.1-0.9-0.3-1.8-0.8-2.7c0.6,0.4,1.1,1,1.5,1.6c0.4,1,0.8,2.2,1.2,1.2c0-0.2-0.7-1.3-0.9-1.7c-0.4-0.6-1.3-1.6-1.3-1.6
	s1.9,0.9,2.6,0.8c0.7-0.1,1.6-0.6,1.1-1.1c-0.2-0.2-1,0.4-1.8,0.2c-0.9-0.2-1.7-0.7-2.1-1.5c0,0,2.6-0.1,2.9-0.7
	c0.3-0.6,0.1-1.7-0.2-1.1c-0.3,0.6-0.9,1-1.7,1.1c-0.7,0-1.2,0-1.9,0c0,0,0.8-1,1.5-1.1s1.6,0.4,1.7-0.2c0.1-0.3-0.4-0.4-0.9-0.7
	c-0.8-0.1-1.7-0.2-2.5-0.2c0.6-0.3,1-0.7,0-0.9c-1-0.2-2.7,0.6-3.6,1.9C36.8,5.1,36,5.9,35.4,6.6z"/>
<path class="st4" d="M35.8,6.8c-0.2,0.3-0.1,0.7,0.1,1c0.3,0.6,0.9,0.9,1,1.1c0.4,0.7,0.2,1.5-0.4,1.9C36.4,11,36.3,11,36.1,11
	c-0.9,0.2-0.8,0.7-0.2,0.8c0.8,0,1.5-0.4,1.7-1.1c0-0.6,0-1.1,0-1.7c0,0,1.3,0.8,1.1,1.9c-0.2,0.9-1.1,1.2-1,1.7
	c0.1,0.4,0.6-0.2,1-0.7c0.4-0.4,1.3-0.8,1-2.1c0.3,0.4,0.6,0.9,0.8,1.3c0.1,0.3,0.3,0.6,0.7,0.8c0,0,0.7-0.8-0.1-2.2
	c-0.8-1.5-1.6-1.6-3-1.9C37.3,7.4,36.5,7.2,35.8,6.8z"/>
<path class="st1" d="M35.4,6.6c1.3-0.3,2.6-0.9,3.7-1.7c1.1-1,2.7-1.3,4.2-0.9c1.2,0.3,1.1-0.2,0-0.8c-1.6-0.6-3.1-0.2-4.3,0.9
	C37.8,5.1,36.6,5.9,35.4,6.6z"/>
<path class="st1" d="M35.4,6.6c1.1,0.6,2.5,0.8,3.7,0.6c2.1-0.3,2.7-0.8,3.9-0.4c1.2,0.3,2.4,0.9,2,0.1c-0.3-0.8-1-1-2.5-1
	c-1.3,0.1-2.7,0.3-3.9,0.8C37.6,6.7,36.5,6.7,35.4,6.6z"/>
<path class="st1" d="M36.3,7.3c1.1,0,2.1,0.1,3.3,0.3c1.2,0.3,2.1,1.5,2.2,2.8c0.2,0.8-0.1,1.7-0.9,2.1c-0.3,0.2-0.3-0.3-0.2-1.1
	c0.2-0.8,0.2-1.6-0.1-2.2c-0.6-0.8-1.5-1.2-2.4-1.3C37.6,7.8,36.9,7.6,36.3,7.3z"/>
<path class="st3" d="M27.6,5C26.9,6.2,26,7.2,25,7.9c-1,0.7-1,1.1-0.9,1.7c0,0.3,0.1,0.7,0.3,1c0,0-0.8-0.2-0.9-0.8
	c-0.2-0.7,0-1.3,0.4-1.8c2.8-2.1,2.8-3.7,2.8-3.7L27.6,5z"/>
</svg>
