<?xml version="1.0" encoding="utf-8"?>
<!-- Generator: Adobe Illustrator 23.1.0, SVG Export Plug-In . SVG Version: 6.00 Build 0)  -->
<svg version="1.1" id="icons" xmlns="http://www.w3.org/2000/svg" xmlns:xlink="http://www.w3.org/1999/xlink" x="0px" y="0px"
	 viewBox="0 0 47 47" style="enable-background:new 0 0 47 47;" xml:space="preserve">
<style type="text/css">
	.st0{fill:none;stroke:#334A61;stroke-miterlimit:10;}
	.st1{fill:#464646;stroke:#334A61;stroke-miterlimit:10;}
	.st2{fill:#334A61;stroke:#334A61;stroke-miterlimit:10;}
</style>
<title>Children&amp;apos;sGamesAdultsPlaying</title>
<g id="Adult_Play">
	<circle class="st0" cx="8.1" cy="8.8" r="7.3"/>
	<circle class="st1" cx="6.2" cy="6.9" r="1"/>
	<circle class="st1" cx="10.2" cy="6.9" r="1"/>
	<circle class="st1" cx="10.2" cy="11" r="1"/>
	<circle class="st1" cx="6.2" cy="11" r="1"/>
	<circle class="st0" cx="38.1" cy="8.8" r="7.3"/>
	<circle class="st2" cx="36.2" cy="7" r="1"/>
	<circle class="st2" cx="40.2" cy="7" r="1"/>
	<circle class="st2" cx="40.2" cy="11" r="1"/>
	<circle class="st2" cx="36.3" cy="11" r="1"/>
	<circle class="st0" cx="8.1" cy="38.9" r="7.3"/>
	<circle class="st2" cx="6.2" cy="37.1" r="1"/>
	<circle class="st2" cx="10.2" cy="37.1" r="1"/>
	<circle class="st2" cx="10.2" cy="41.1" r="1"/>
	<circle class="st2" cx="6.2" cy="41.1" r="1"/>
	<circle class="st0" cx="38.2" cy="38.8" r="7.3"/>
	<circle class="st2" cx="36.3" cy="36.9" r="1"/>
	<circle class="st2" cx="40.3" cy="37" r="1"/>
	<circle class="st2" cx="40.3" cy="41" r="1"/>
	<circle class="st2" cx="36.3" cy="41" r="1"/>
	<path class="st2" d="M23.3,45.6c-0.1,0-0.2-0.1-0.2-0.2V2c0-0.1,0.1-0.2,0.2-0.2l0,0c0.1,0,0.2,0.1,0.2,0.2c0,0,0,0,0,0v43.5
		C23.5,45.6,23.4,45.6,23.3,45.6C23.3,45.6,23.3,45.6,23.3,45.6z"/>
	<path class="st2" d="M26.8,45.6h-7.4c-0.1,0-0.2-0.1-0.2-0.2V14.8c0-0.1,0.1-0.2,0.2-0.2h0c0.1,0,0.2,0.1,0.2,0.2v0v30.5h7.1v-6
		c0-0.1,0.1-0.2,0.2-0.2c0.1,0,0.2,0.1,0.2,0.2v6.1C27,45.6,27,45.6,26.8,45.6C26.9,45.7,26.8,45.7,26.8,45.6z"/>
	<path class="st2" d="M26.8,32.9c-0.1,0-0.2-0.1-0.2-0.2v0V2.3h-7.1v6.1c0,0.1-0.1,0.2-0.2,0.2l0,0c-0.1,0-0.2-0.1-0.2-0.2v0V2.1
		C19.2,2,19.3,2,19.4,2l0,0h7.4c0.1,0,0.2,0.1,0.2,0.2v30.6C26.9,32.8,26.9,32.9,26.8,32.9z"/>
	<path class="st2" d="M44.9,27.8H14.8c-0.1,0-0.2-0.1-0.2-0.2c0-0.1,0.1-0.2,0.2-0.2h29.9v-7.2H16.3c-0.1,0-0.2-0.1-0.2-0.2
		c0-0.1,0.1-0.2,0.2-0.2h28.6c0.1,0,0.2,0.1,0.2,0.2v7.6C45.1,27.7,45,27.8,44.9,27.8z"/>
	<path class="st2" d="M44.4,24H1.9c-0.1,0-0.2-0.1-0.2-0.2c0-0.1,0.1-0.2,0.2-0.2c0,0,0,0,0,0h42.5c0.1,0,0.2,0.1,0.2,0.2
		c0,0,0,0,0,0C44.6,23.9,44.5,24,44.4,24z"/>
	<path class="st2" d="M8.1,27.8H1.9c-0.1,0-0.2,0-0.2-0.1c0,0,0,0,0,0V20c0-0.1,0.1-0.2,0.2-0.2c0,0,0,0,0,0h7.8
		c0.1,0,0.2,0.1,0.2,0.2c0,0.1-0.1,0.2-0.2,0.2H2.1v7.3h6c0.1,0,0.2,0.1,0.2,0.2C8.3,27.7,8.2,27.8,8.1,27.8
		C8.1,27.8,8.1,27.8,8.1,27.8z"/>
	<circle class="st2" cx="19.5" cy="11.8" r="1"/>
	<circle class="st2" cx="12.9" cy="20.2" r="1"/>
	<circle class="st2" cx="11" cy="27.6" r="1"/>
	<circle class="st2" cx="27" cy="36.3" r="1"/>
</g>
</svg>
