<?xml version="1.0" encoding="utf-8"?>
<!-- Generator: Adobe Illustrator 23.1.0, SVG Export Plug-In . SVG Version: 6.00 Build 0)  -->
<svg version="1.1" id="icons" xmlns="http://www.w3.org/2000/svg" xmlns:xlink="http://www.w3.org/1999/xlink" x="0px" y="0px"
	 viewBox="0 0 47 47" style="enable-background:new 0 0 47 47;" xml:space="preserve">
<style type="text/css">
	.st0{fill:#FFB69E;}
	.st1{fill:#595959;}
	.st2{fill:#F46300;}
	.st3{fill:#E89F87;}
	.st4{fill:#FF6700;}
	.st5{fill:#7F7F7F;}
	.st6{fill:#007015;}
</style>
<title>ChildCare</title>
<path class="st0" d="M40.6,25.8l-6-5c-0.1-0.1-0.2-0.1-0.2-0.2l-5.8-7c-0.5-0.8-0.2-1.9,0.6-2.4c0.7-0.4,1.5-0.3,2.1,0.2l5.7,6.8
	l5.8,4.9c0.7,0.7,0.7,1.8,0,2.5C42.3,26.2,41.3,26.3,40.6,25.8z"/>
<path class="st1" d="M36.1,13.3c0.1-1.4-0.9-2.7-2.3-2.8l-4.7-0.4c-1.4-0.1-2.7,0.9-2.8,2.3l-1.1,12.8c0,0.3,0,0.6,0,0.9l1.2,7.9
	l-3.2,8.8c-0.4,1.1,0.2,2.3,1.3,2.7c1.1,0.4,2.2-0.2,2.6-1.2l3.5-9.3c0.1-0.3,0.2-0.7,0.1-1.1l-1.1-8.4l5.5,0.5L36.1,13.3z"/>
<path class="st1" d="M36.3,44.1L34,33.9l-3.6-8.1c-0.5-1.1,0-2.3,1-2.8c1.1-0.5,2.3,0,2.8,1l3.7,8.2c0.1,0.1,0.1,0.3,0.1,0.4
	l2.3,10.4c0.2,1.1-0.5,2.2-1.6,2.4C37.6,45.8,36.5,45.1,36.3,44.1L36.3,44.1z"/>
<path class="st2" d="M35,26l-9.8-0.9l1.1-12.7c0.1-1.4,1.4-2.4,2.8-2.3l4.7,0.4c1.4,0.1,2.4,1.4,2.3,2.8L35,26z"/>
<circle class="st0" cx="32.5" cy="5.2" r="3.8"/>
<path class="st3" d="M20.8,28c-0.9-0.4-1.3-1.4-1-2.3c0,0,0,0,0,0l2.9-7.2c0.1-0.2,0.2-0.3,0.3-0.5l5.5-6.6c0.6-0.7,1.8-0.8,2.5-0.2
	c0.7,0.6,0.8,1.8,0.2,2.5l-5.4,6.4l-2.8,7C22.7,27.9,21.7,28.3,20.8,28z"/>
<path class="st4" d="M28.7,16.7l2.6-3c0.7-0.7,0.6-1.8-0.1-2.5c-0.7-0.7-1.8-0.6-2.5,0.1c0,0-0.1,0.1-0.1,0.1l-2.7,3.2L28.7,16.7z"
	/>
<path class="st5" d="M11.4,44.1l0.7-6.1l-0.9-5.3c-0.1-0.8,0.5-1.5,1.3-1.6c0.7-0.1,1.4,0.4,1.6,1.1l0.9,5.5c0,0.1,0,0.3,0,0.4
	l-0.7,6.3c0,0.8-0.7,1.4-1.5,1.4c-0.8,0-1.4-0.7-1.4-1.5C11.3,44.2,11.3,44.1,11.4,44.1L11.4,44.1z"/>
<path class="st5" d="M4,43.8c-0.6-0.6-0.6-1.5,0-2.1l3.8-4.2L8,33.2c0.2-0.8,1-1.2,1.8-1l0,0c0.8,0.2,1.2,1,1,1.8c0,0,0,0,0,0
	l-0.6,4.7c0,0.3-0.2,0.6-0.4,0.8L6,43.8C5.4,44.3,4.5,44.4,4,43.8z"/>
<path class="st6" d="M14.4,34H8v-0.3l0.7-8.8c0.1-1,1-1.8,2-1.7c0,0,0,0,0,0l2.4,0.2c1.1,0.1,1.8,1,1.8,2L14.4,34z"/>
<circle class="st0" cx="12" cy="18.3" r="3.1"/>
<path class="st0" d="M15.6,28.2l-4.5-1.9c-0.6-0.3-0.9-1-0.7-1.6c0.3-0.6,1-0.9,1.6-0.7l4.2,1.8l4.6-0.8c0.7-0.1,1.3,0.4,1.4,1
	c0.1,0.7-0.4,1.3-1,1.4l-4.9,0.8C16,28.3,15.8,28.3,15.6,28.2z"/>
<path class="st6" d="M15.6,28.2l-4.5-1.9c-0.6-0.3-0.9-1-0.7-1.6c0.3-0.6,1-0.9,1.6-0.7l4.2,1.8l4.6-0.8l0.4,2.4l-4.9,0.8
	C16,28.3,15.8,28.3,15.6,28.2z"/>
</svg>
