<?xml version="1.0" encoding="utf-8"?>
<!-- Generator: Adobe Illustrator 23.1.0, SVG Export Plug-In . SVG Version: 6.00 Build 0)  -->
<svg version="1.1" id="icons" xmlns="http://www.w3.org/2000/svg" xmlns:xlink="http://www.w3.org/1999/xlink" x="0px" y="0px"
	 viewBox="0 0 47 47" style="enable-background:new 0 0 47 47;" xml:space="preserve">
<style type="text/css">
	.st0{fill:#FDB171;}
	.st1{fill:#F09F5B;}
	.st2{fill:#37120B;}
	.st3{fill:#78113B;}
	.st4{fill:#878787;}
</style>
<title>CircuitTraining</title>
<g id="Circuit_Training">
	<path class="st0" d="M21.4,14.2c1,0.2,2-0.4,2-0.9c0-0.6,0-0.4,0-0.4h1v12.3l-1.8,0.6l-1-1.2c0,0,0.6-3.2-0.1-4c-0.6-0.9-1-2-1.2-3
		L21.4,14.2z"/>
	<path class="st0" d="M21.4,14.2c1,0.2,2-0.4,2-0.9c0-0.6,0-0.4,0-0.4h1v12.3l-1.8,0.6l-1-1.2c0,0,0.6-3.2-0.1-4c-0.6-0.9-1-2-1.2-3
		L21.4,14.2z"/>
	<path class="st0" d="M28.5,17.4c-0.2,1.1-0.6,2.1-1.2,3c-0.7,0.7-0.1,4-0.1,4l-0.4,0.8l-2.4-0.2V12.8h1c0,0,0-0.1,0,0.4
		c0,0.6,0.8,0.8,1.6,0.9L28.5,17.4z"/>
	<path class="st1" d="M25.1,13.6l0.4-0.4c0-0.5,0-0.4,0-0.4h-1h-1c0,0,0-0.1,0,0.4l0.4,0.4c0.2,0.2,0.4,0.1,0.5,0.1h0.2
		C24.7,13.7,25,13.7,25.1,13.6z"/>
	<path class="st0" d="M26.3,10.7L26.3,10.7c0-0.1,0-0.2,0-0.4C26.3,9.8,26.5,8,24.5,8s-1.9,1.8-1.8,2.4c0,0.1,0,0.2,0,0.4l0,0
		c-0.3-0.2-0.3,0.4-0.2,0.6c0.1,0.1,0.1,0.2,0.2,0.4c0,0.1,0.1,0.2,0.2,0.2c0,0.1,0,0.1,0,0.2c0,0.3,0.8,1,1,1.2
		c0.2,0.2,0.4,0.1,0.5,0.1h0.2c0.1,0,0.4,0.1,0.5-0.1c0.2-0.2,0.9-0.8,1-1.2c0-0.1,0-0.1,0-0.2c0.1,0,0.1,0,0.2-0.2
		c0-0.1,0.1-0.3,0.2-0.4C26.6,11.1,26.6,10.5,26.3,10.7z"/>
	<path class="st2" d="M25.9,7.6c0,0,0.1,0.2-1.7,0.2h-0.1c-0.9,0-1.6,0.7-1.6,1.5c0,0,0,0.1,0,0.1l0,0c0,0.4,0.1,0.8,0.2,1.2v-0.2
		c0-0.1,0-0.3,0.1-0.4l0,0c0-0.1,0-0.1,0.1-0.2c0.3-0.6,1-0.8,1.6-0.6c0.6-0.2,1.2,0.1,1.5,0.6c0,0.1,0.1,0.1,0.1,0.2l0,0
		c0,0.1,0.1,0.3,0.1,0.4v0.2c0-0.3,0.1-0.5,0.1-0.8l0,0C26.4,9.1,26.3,8.3,25.9,7.6z"/>
	<path class="st0" d="M24.5,13.7c0,0,1.4,0.1,1.4-0.3c0.1-0.6,0.3-1.1,0.6-1.6c0-1.2,0.2-2.5,0.4-3.7c-0.4-0.9-0.7-1.9-0.9-2.9
		C26,4.5,25.8,3.7,25.5,3l1-0.4c0,0,0.8,1.2,1,1.6c0.5,0.7,0.8,1.6,1,2.5c-0.1,0.8,0.1,1.6,0.4,2.4c0.4,1.3,0.5,2.6,0.2,3.9
		c-0.1,0.7-0.1,1.4,0,2.2c0,1.2-0.1,2.5-0.5,3.7c-0.4,1.2-0.8,2.4-1.1,3.7c0,0.7,0.5,3.2,0.5,3.2s-0.1,1.1-3.5,0.9L24.5,13.7z"/>
	<path class="st0" d="M22.4,2.8c0.2-0.3,0.3-0.7,0.4-1c0-0.2,1.4-0.6,1.4-0.6c0,0.3,0,0.6-0.1,0.9c-0.2,0.3-0.4,0.7-0.6,1
		C23.4,3.3,22.4,2.8,22.4,2.8z"/>
	<path class="st0" d="M26.6,2.8c-0.2-0.3-0.3-0.7-0.4-1c0-0.2-1.4-0.6-1.4-0.6c0,0.3,0.1,0.6,0.1,0.9c0.2,0.3,0.4,0.7,0.6,1
		C25.5,3.3,26.6,2.8,26.6,2.8z"/>
	<path class="st0" d="M24.5,13.7c0,0-1.4,0.1-1.4-0.3c-0.1-0.6-0.3-1.1-0.6-1.6c0-1.2-0.2-2.5-0.4-3.7c0.4-0.9,0.7-1.9,0.9-2.9
		C23,4.5,23.2,3.7,23.5,3l-1-0.4c0,0-0.8,1.2-1,1.6c-0.5,0.7-0.8,1.6-1,2.5c0.1,0.8-0.1,1.6-0.4,2.4c-0.4,1.3-0.5,2.6-0.2,3.9
		c0.1,0.7,0.1,1.4,0,2.2c0,1.2,0.1,2.5,0.5,3.7c0.4,1.2,0.8,2.4,1,3.7c0,0.7-0.5,3.2-0.5,3.2s0.1,1.1,3.5,0.9L24.5,13.7z"/>
	<path class="st3" d="M21,25.6c-0.4,0.7-0.7,1.4-0.9,2.2c-0.2,1.1-0.3,2.2-0.4,3.3c-0.1,0.7-0.1,1.4,0,2.1c0.1,0.6,0,1.1-0.3,1.6
		c-0.3,0.9-0.4,1.8-0.4,2.8c-0.1,1.7-0.3,3.4-0.6,5.1l1.2,0.9c0.2-1.2,0.6-2.3,1-3.4c0.7-1.2,1.1-2.5,1.3-3.8c0-0.9,0.2-1.9,0.6-2.7
		c0.4-0.8,1-2.3,1.8-4.2v-3.2L21,25.6z"/>
	<path class="st4" d="M18.2,42.9c-0.3,0.4-0.6,0.9-0.8,1.4c-0.2,0.6-1.6,1-1.2,1.7c0.4,0.8,2.1,0.4,2.4,0s0.2-0.6,0.4-0.6
		c0.3,0.1,0.6,0,0.8-0.3c0.1-0.6,0.1-1.2,0-1.8L18.2,42.9z"/>
	<path class="st4" d="M18.9,42.4c0.7,0.2,0.7,0.6,0.7,1l-1.3-0.5C18.2,42.9,18.2,42.2,18.9,42.4z"/>
	<path class="st2" d="M25.7,6.2c0.2,0,0.3-0.1,0.4-0.2c0.2-0.3,0.3-0.7,0.3-1.1c0.1-1.1-0.7-2-1.8-2.1c-1.1-0.1-2,0.7-2.1,1.8
		c0,0.1,0,0.2,0,0.3c0,0.4,0.1,0.7,0.3,1.1c0.1,0.1,0.2,0.2,0.4,0.2H25.7z"/>
	<path class="st2" d="M24.5,4.8c-1.2-0.2-2.1-1.2-2.1-2.4c0-0.9,0.8-1.5,2.1-1.5c1.3,0,2.1,0.5,2.1,1.5C26.6,3.6,25.7,4.6,24.5,4.8z
		 M24.5,1.4c-0.6,0-1.6,0.1-1.6,1c0,0.9,0.7,1.8,1.6,1.9c0.9-0.2,1.6-0.9,1.6-1.9C26.1,1.6,25.1,1.4,24.5,1.4z"/>
	<path class="st0" d="M22.8,1.2c0,0.3,0.5,0.1,0.8,0c0.3-0.1,0.7,0,0.7-0.4C24.3,0.4,22.7,0.7,22.8,1.2z"/>
	<path class="st3" d="M28,25.6c0.4,0.7,0.7,1.4,0.8,2.2c0.2,1.1,0.3,2.2,0.4,3.3c0.1,0.7,0.1,1.4,0,2.1c-0.1,0.6,0,1.1,0.3,1.6
		c0.3,0.9,0.4,1.8,0.4,2.8c0.1,1.7,0.3,3.4,0.6,5.1l-1.2,0.9c-0.2-1.2-0.6-2.3-1-3.4c-0.7-1.2-1.1-2.5-1.3-3.8
		c0-0.9-0.2-1.9-0.6-2.7c-0.4-0.8-1-2.3-1.9-4.2v-3.2L28,25.6z"/>
	<path class="st4" d="M30.7,42.9c0.3,0.4,0.6,0.9,0.8,1.4c0.2,0.6,1.6,1,1.2,1.7c-0.4,0.8-2.1,0.4-2.4,0c-0.3-0.4-0.2-0.6-0.4-0.6
		c-0.3,0.1-0.6,0-0.8-0.3c-0.1-0.6-0.1-1.2,0-1.8L30.7,42.9z"/>
	<path class="st4" d="M30.1,42.4c-0.7,0.2-0.7,0.6-0.7,1l1.3-0.5C30.7,42.9,30.8,42.2,30.1,42.4z"/>
	<path class="st0" d="M26.2,1.2c0,0.3-0.5,0.1-0.8,0c-0.3-0.1-0.7,0-0.7-0.4S26.3,0.7,26.2,1.2z"/>
	<path class="st0" d="M23.8,1.6c0-0.1,0.4-0.4,0.6-0.4c0.1,0,0,0.6-0.5,1.3s-0.2-0.2-0.2-0.2L23.8,1.6z"/>
	<path class="st0" d="M25.2,1.6c0-0.1-0.4-0.4-0.6-0.4c-0.1,0,0,0.6,0.5,1.3c0.5,0.7,0.2-0.2,0.2-0.2L25.2,1.6z"/>
	<path class="st4" d="M23.1,15.5c0-0.6,0.1-1.2,0.3-1.8c-0.2,0-0.3-0.1-0.3-0.2s0-0.1,0-0.2l0,0c0,0-1.1,3.1-3.1,3.6
		c0.1,0.6,0.2,1.2,0.4,1.9c0.4,1.2,0.8,2.4,1,3.7c0,0.7-0.5,3.2-0.5,3.2s-0.2,0.4,0.7,0.7l2.6,0.2h0.2v-9.9
		C24.5,16.8,23.1,16.8,23.1,15.5z"/>
	<path class="st4" d="M25.9,15.5c0-0.6-0.1-1.2-0.3-1.8c0.2,0,0.3-0.1,0.3-0.2c0-0.1,0-0.1,0-0.2l0,0c0,0,1.1,3.1,3,3.6
		c-0.1,0.6-0.2,1.2-0.4,1.9c-0.4,1.2-0.8,2.4-1.1,3.7c0,0.7,0.5,3.2,0.5,3.2s0.2,0.4-0.7,0.7l-2.6,0.2h-0.1v-9.9
		C24.5,16.8,25.9,16.8,25.9,15.5z"/>
</g>
</svg>
