<?xml version="1.0" encoding="utf-8"?>
<!-- Generator: Adobe Illustrator 23.1.0, SVG Export Plug-In . SVG Version: 6.00 Build 0)  -->
<svg version="1.1" id="icons" xmlns="http://www.w3.org/2000/svg" xmlns:xlink="http://www.w3.org/1999/xlink" x="0px" y="0px"
	 viewBox="0 0 47 47" style="enable-background:new 0 0 47 47;" xml:space="preserve">
<style type="text/css">
	.st0{fill:#362100;}
	.st1{fill:#FF4E00;}
	.st2{fill:#FDC882;}
	.st3{fill:#594A42;}
	.st4{fill:#654E60;}
	.st5{fill:#BDBBC9;}
	.st6{fill:#77767C;}
	.st7{fill:#50463A;}
	.st8{fill:#B03900;}
	.st9{fill:#EF4E00;}
	.st10{fill:#FDA014;}
	.st11{fill:#B8AAAA;}
	.st12{fill:#756654;}
	.st13{fill:#FFFFFF;}
	.st14{fill:#CCC2C2;}
</style>
<title>ClimbingHills</title>
<polygon class="st0" points="21.8,26.9 19.7,28.6 19.1,31.5 33.1,28.2 31.1,25.8 "/>
<polygon class="st1" points="31.9,12.8 27.4,12 24.3,6.7 25.8,5.5 29.1,9.9 34.5,10.8 35.1,12.3 "/>
<polygon class="st2" points="33.2,10.3 36.1,9.4 36,7.8 32.9,8.3 "/>
<path class="st2" d="M35,8c0,0-2.1,1-2.9,0.7c-0.8-0.3-1.3-2.4-1.1-3.3c0.3-0.9,0.7-1.7,1.1-2.5l3.6-0.5c0.4,0.8,0.8,1.6,1,2.5
	c-0.1,1-0.4,2-0.8,3L35,8z"/>
<path class="st3" d="M31.5,2.1c0,0,3.6-1,4.7,0c0.6,0.8,0.9,1.7,0.9,2.7C36.8,5.9,36.5,6.9,36,8L35.1,7l0.1-1.3c0,0,0.4-0.7,0.3-0.9
	c-0.1-0.2-0.7-0.2-0.9-0.1c-0.2,0.1-0.6,0.8-0.6,0.8L33.2,4l-1.4-0.8L31.5,2.1z"/>
<polygon class="st4" points="30.7,17.3 31.9,20.3 32.1,23.6 39.6,24.4 38.8,12.2 36.5,9.2 32.8,9.8 "/>
<path class="st1" d="M28.7,15.9l-5.1-1.7L23,15.8l5.2,2.6c1,0.4,2.1,0.3,2.9-0.3l4.6-3.6c0.3-0.5,0.5-1,0.6-1.5
	c-0.1-0.8-0.6-1.5-1.3-1.8c-0.6-0.1-1.8,0.9-1.8,0.9L28.7,15.9z"/>
<path class="st3" d="M30,29l-3.7-2.5l3.3,6.8l-2.1,1.8L22,27.8c-1-1.3-1.4-3-0.8-3.7l0.5-0.7c0.3-0.4,1.8-0.6,3.4-0.4l6.5,0.6
	l8.1,0.9l-1,2.5c-0.8,1.5-2.2,2.6-3.9,2.8C33.1,29.7,31.5,29.5,30,29z"/>
<path class="st2" d="M22.9,13.4c-0.4-0.4-0.8-0.5-0.8-0.2v0.6l-3-0.5l0.2,2.4l3.7,0.1l0.7-1.6L22.9,13.4z"/>
<path class="st2" d="M25.3,4.4c-0.2-0.6-0.5-1-0.7-1l-0.2,0.1l-1-0.8L21.4,4l2.9,2.6l1.4-1.2L25.3,4.4z"/>
<polygon class="st0" points="39.4,20.9 32,21.2 32,22.1 39.4,21.9 "/>
<path class="st5" d="M12.3,29.3l2.4-4.2l-3.9-8.4l4.4-3.9c0,0-3.2-3.6-6.4-6.9l12.8-4.2l2,1l-1.1,2.5L19,8.4l2.4,2.4L20.8,13
	l0.8,3.2l-2.2,1.3l3.8,2.9l-0.9,1.1l-2.1,0.9l-3.6,1.7l0.8,2.6l2.2,1.8l0.4,5.9l3.7,4.7l3.6,1.8l2.2,1.9l-1.7,3.4l-6.1-0.4
	l-7.6-10.8L12.3,29.3z"/>
<path class="st6" d="M8.7,5.9c3.2,3.4,6.4,6.9,6.4,6.9l-4.4,3.9l3.9,8.4l-2.4,4.2l1.9,5.7l7.6,10.8H18L3.2,46.3L3,2.3L8.7,5.9z"/>
<path class="st2" d="M31.2,5.2c0,0-1,1.7-0.1,1.4C32,6.2,31.2,5.2,31.2,5.2z"/>
<path class="st7" d="M33.3,8.9h-0.1c-0.1,0-0.2-0.1-0.2-0.3l-0.3-4.4h0.6l0.2,3.8l2.6-2.6l0.4,0.4l-3.1,3
	C33.5,8.9,33.4,8.9,33.3,8.9z"/>
<path class="st8" d="M35.6,4.3c0-0.2-0.1-0.3-0.1-0.5c0,0,0-0.1,0-0.1V3.6c-0.1-0.1-0.2-0.1-0.2-0.2l-0.1-0.1c0,0-0.1-0.1-0.1-0.1
	c-0.1,0-0.3-0.1-0.3-0.1h-0.2h-0.1h-0.1c-0.1,0-0.2,0.1-0.1,0h-0.1l-0.2,0.2l-0.4,0.4L33.2,4L33,4.3c0,0-0.1,0.3-0.1,0.3l0,0l0,0
	l0.4,0.2L33.7,5l0.1,0.1h0.1c0.1,0,0.6,0.1,0.2,0h0.1h0.1c0.3-0.1,0.7-0.2,1.1-0.2c0-0.1,0-0.1,0-0.2c0-0.1,0-0.3,0-0.3
	S35.5,3.9,35.6,4.3z M34.1,5.3c-0.2,0-0.4-0.3-0.4-0.6s0.2-0.6,0.4-0.6s0.4,0.3,0.4,0.6S34.3,5.3,34.1,5.3z"/>
<path class="st9" d="M36,1.5c-1-0.6-2.3-0.8-3.4-0.4c-1.4,0.5-2.3,1.9-2.2,3.4c3.2-0.5,2.8,0.8,3.3,1c0.4,0.2,1-0.4,1.8,0l0.5,0.8
	h1.5C37.4,3.1,36.9,2.1,36,1.5z M33.9,5.1c-0.2,0-0.4-0.3-0.4-0.6s0.2-0.6,0.4-0.6s0.4,0.3,0.4,0.6S34.2,5.1,33.9,5.1L33.9,5.1z"/>
<path class="st10" d="M32.9,8.5L33,8.4c0.2-0.2,0.5-0.2,0.6,0c0,0,0,0,0,0l0.1,0.1C34,8.7,34,9,33.8,9.2l-0.1,0.1
	c-0.2,0.2-0.5,0.2-0.6,0l-0.1-0.1C32.7,9,32.7,8.7,32.9,8.5C32.9,8.5,32.9,8.5,32.9,8.5z"/>
<path class="st0" d="M43,12.1l0.8,7.5c0.2,1.9-0.4,3.5-1.4,3.5h-1.7l-1.2-0.3l-0.8-11.7l2.4-0.5c0.8-0.2,1.7,0.3,1.9,1.2
	C43,12,43,12,43,12.1z"/>
<path class="st10" d="M43.2,10.2c0,1.3-1.1,2.4-2.4,2.4c-1.3,0-2.4-1.1-2.4-2.4s1.1-2.4,2.4-2.4S43.2,8.9,43.2,10.2
	C43.2,10.2,43.2,10.2,43.2,10.2z"/>
<path class="st3" d="M42.3,16.5c0.1,1.8-0.3,3.3-0.8,3.4c-0.6,0-1.1-1.4-1.2-3.2s0.3-3.3,0.8-3.4S42.2,14.7,42.3,16.5z"/>
<rect x="40.9" y="20.9" transform="matrix(0.9936 -0.1129 0.1129 0.9936 -2.1591 4.8447)" class="st3" width="1.7" height="1.3"/>
<path class="st11" d="M31.8,36.9l-4.6,3.4L27,40.2l4.8-3.7l0.1,0.1C32,36.8,32,36.8,31.8,36.9z"/>
<polygon class="st11" points="29.3,38.7 29.3,38.9 30.1,39.1 29.6,38.7 29.6,38.4 "/>
<polygon class="st11" points="27,40.1 27.1,41 27.3,40.4 27.8,40.6 27.6,40 "/>
<polygon class="st11" points="31.3,37 31.7,37.1 31.3,37.9 31.1,37.4 30.9,37.3 "/>
<polygon class="st11" points="28,39.7 28,40 28.8,40.1 28.3,39.7 28.3,39.5 "/>
<path class="st0" d="M30.5,36.7c0.3-0.2,0.6-0.4,0.9-0.6c0,0,0,0.1,0,0.1c0.1,0.2,0.3,0.3,0.4,0.5c0.1,0,0.1,0.1,0,0.2c0,0,0,0,0,0
	l-1.2,0.9c-0.1,0-0.2,0-0.3,0l-0.3-0.1c0,0.1,0,0.2-0.1,0.3c-0.3,0.3-0.6,0.5-0.9,0.8c-0.7,0.6-1.4,1.1-2.2,1.6c0,0-0.1,0-0.1,0
	c-0.2-0.1-0.3-0.2-0.4-0.4c0.4-0.3,1.1-0.8,1.9-1.2C29.1,38.1,29.8,37.4,30.5,36.7z"/>
<path class="st0" d="M27.7,34.9c0.6-0.5,1.2-1,1.8-1.5c0.1,0.2,0.2,0.4,0.4,0.6C29.5,34.4,28.3,35.7,27.7,34.9z"/>
<path class="st12" d="M26.4,38.6c0.3-0.5,0.7-1,1.2-1.4c0,0,0.9-0.7,0-2.3c0,0,0,0,0-0.1c0.7,0.9,1.9-0.5,2.2-0.9l0,0
	c0,0,0.8,0.9,1.1,1.2c0.2,0.3,0.4,0.5,0.6,0.8c-0.3,0.2-0.6,0.3-0.9,0.6c-0.7,0.7-1.5,1.4-2.3,2c-0.8,0.5-1.4,0.9-1.9,1.2
	C26.1,39.5,26.1,39,26.4,38.6z"/>
<path class="st0" d="M28.2,36c0,0.1,0.1,0.1,0.2,0c0,0,0,0,0,0c0,0,0-0.1,0-0.2c0-0.1-0.1-0.1-0.2,0c0,0,0,0,0,0
	C28.1,35.8,28.1,35.9,28.2,36C28.2,36,28.2,36,28.2,36z"/>
<path class="st0" d="M28.1,35.5c0,0.1,0.1,0.1,0.2,0c0,0,0,0,0,0c0,0,0-0.1,0-0.2c-0.1,0-0.1,0-0.2,0C28,35.4,28,35.5,28.1,35.5z"/>
<path class="st0" d="M28.2,36.4c0,0.1,0.1,0.1,0.2,0c0,0,0,0,0,0c0,0,0.1-0.1,0-0.2c0,0,0,0,0,0c0-0.1-0.1-0.1-0.2,0c0,0,0,0,0,0
	C28.2,36.3,28.2,36.4,28.2,36.4C28.2,36.4,28.2,36.4,28.2,36.4z"/>
<path class="st0" d="M28.1,36.9c0,0,0.1,0,0.2,0c0-0.1,0-0.1,0-0.2c0-0.1-0.1-0.1-0.2,0C28,36.7,28,36.8,28.1,36.9L28.1,36.9
	L28.1,36.9z"/>
<path class="st0" d="M28,37.3c0,0.1,0.1,0.1,0.2,0c0.1,0,0.1-0.1,0-0.2c0-0.1-0.1-0.1-0.2,0c0,0,0,0,0,0
	C27.9,37.2,27.9,37.2,28,37.3C27.9,37.3,27.9,37.3,28,37.3z"/>
<path class="st0" d="M27.6,37.5c0,0.1,0.1,0.1,0.2,0.1c0.1,0,0.1-0.1,0.1-0.2c0,0,0,0,0,0c0,0-0.1-0.1-0.2,0c0,0,0,0,0,0
	C27.6,37.4,27.6,37.5,27.6,37.5z"/>
<rect x="29.7" y="38.1" transform="matrix(0.7961 -0.6052 0.6052 0.7961 -17.0401 25.8492)" class="st0" width="0.3" height="0.3"/>
<polygon class="st0" points="29.3,38.7 29.6,38.5 29.5,38.4 29.2,38.6 "/>
<polygon class="st0" points="28.8,39.2 29.1,38.9 29,38.8 28.7,39 "/>
<polygon class="st0" points="28.3,39.6 28.6,39.3 28.4,39.2 28.2,39.4 "/>
<polygon class="st0" points="27.7,40 28,39.7 27.9,39.6 27.6,39.8 "/>
<polygon class="st0" points="27.2,40.3 27.5,40.2 27.3,40.1 27.1,40.2 "/>
<path class="st9" d="M27.7,37.5L27.7,37.5l-0.2-0.3c0,0,0-0.1,0-0.1c0,0,0,0,0,0c0,0,0.1,0,0.1,0L27.7,37.5
	C27.8,37.5,27.8,37.5,27.7,37.5L27.7,37.5z"/>
<path class="st9" d="M28,37.3L28,37.3L27.7,37c0,0-0.1-0.1,0-0.1c0,0,0.1-0.1,0.1,0c0,0,0,0,0,0l0.3,0.2
	C28.1,37.2,28.1,37.2,28,37.3C28.1,37.3,28.1,37.3,28,37.3L28,37.3z"/>
<path class="st9" d="M28.2,36.8L28.2,36.8l-0.3-0.1c0,0,0-0.1,0-0.1c0,0,0.1,0,0.1,0L28.2,36.8C28.3,36.8,28.3,36.8,28.2,36.8
	C28.3,36.9,28.2,36.9,28.2,36.8z"/>
<path class="st9" d="M28.3,36.4L28.3,36.4h-0.4c0,0-0.1,0-0.1-0.1c0,0,0.1,0,0.1,0L28.3,36.4C28.3,36.4,28.3,36.4,28.3,36.4
	C28.3,36.5,28.3,36.4,28.3,36.4z"/>
<path class="st9" d="M28,36C27.9,36,27.9,36,28,36C27.9,35.9,27.9,35.9,28,36L28,36l0.3-0.1l0,0c0,0,0,0,0.1,0c0,0,0,0.1-0.1,0.1
	l0,0H28L28,36z"/>
<path class="st9" d="M27.8,35.6C27.8,35.6,27.8,35.6,27.8,35.6C27.8,35.6,27.8,35.5,27.8,35.6l0.3-0.2h0.1c0,0,0,0.1,0,0.1
	L27.8,35.6L27.8,35.6z"/>
<path class="st9" d="M26.5,40l0.1,0.1c0.8-0.5,1.6-1,2.4-1.5c0.3-0.2,0.5-0.4,0.7-0.6c0.6-0.6,1.2-1.1,1.9-1.6c0,0-0.1-0.1-0.1-0.1
	c-0.7,0.5-1.4,1-1.9,1.6C28.6,38.6,27.6,39.4,26.5,40L26.5,40z"/>
<path class="st13" d="M27.6,40.2c0,0,0,0.1,0,0.1c0,0,0,0,0,0c0,0-0.1,0-0.1,0c0,0,0-0.1,0-0.1c0,0,0,0,0,0
	C27.5,40.2,27.6,40.2,27.6,40.2z"/>
<path class="st14" d="M27.5,40.3L27.5,40.3c0,0-0.4-0.4-0.7-0.7c-0.2,0.1-0.4,0.2-0.6,0.2 M26.3,39.7c0.2,0,0.4-0.1,0.5-0.2l0,0l0,0
	c0.3,0.4,0.7,0.8,0.7,0.8c0,0,0,0.1,0,0.1c0,0,0,0,0,0L26.3,39.7z"/>
<path d="M28,35.8c0,0,0.7,0.5,2.6-1l0.3,0.3c-0.8,0.6-1.8,0.9-2.8,1L28,35.8z"/>
<path class="st13" d="M31.4,37.4c0,0,0,0.1,0,0.1c0,0-0.1,0-0.1,0c0,0,0-0.1,0-0.1C31.3,37.3,31.4,37.3,31.4,37.4
	C31.4,37.3,31.4,37.3,31.4,37.4z"/>
</svg>
