<?xml version="1.0" encoding="utf-8"?>
<!-- Generator: Adobe Illustrator 23.1.0, SVG Export Plug-In . SVG Version: 6.00 Build 0)  -->
<svg version="1.1" id="icons" xmlns="http://www.w3.org/2000/svg" xmlns:xlink="http://www.w3.org/1999/xlink" x="0px" y="0px"
	 viewBox="0 0 47 47" style="enable-background:new 0 0 47 47;" xml:space="preserve">
<style type="text/css">
	.st0{fill:#545454;}
	.st1{fill:#303030;}
	.st2{fill:#9E9E9E;}
	.st3{fill:#696969;}
	.st4{fill:#FFD11A;}
	.st5{fill:#FFE01A;}
</style>
<title>CoachingSports</title>
<g id="Couching_Sport">
	<path class="st0" d="M6.9,13.2c-2.1,1.1-0.5,3.5-0.5,3.5l1.4-0.5C7.4,15.7,7.5,15,8,14.6c0.1,0,0.1-0.1,0.2-0.1
		c1.2-0.6,2.3,0.8,2.3,0.8l1.6-0.5C12.1,14.8,9.8,11.7,6.9,13.2z"/>
	<path class="st1" d="M7.9,14c-1.2,0.2-1,2-1,2c0.1,0.2,0.4,0.2,0.9,0c-0.3-0.5-0.1-1.2,0.5-1.5c0,0,0,0,0.1,0c0.4-0.2,1-0.2,1.4,0
		C9.2,14.1,8.5,13.9,7.9,14z"/>
	<path class="st0" d="M17.8,22.1c-2.9-0.6-5.8-0.9-8.8-0.7l3.6,10.9l9.8-3.5c1.5-0.3,3-1,4.1-2l0.2-0.1l1.1,0.7
		c-1.2-1.2-2.6-2.2-4.2-3C21.8,23.3,19.8,22.6,17.8,22.1z"/>
	<path class="st2" d="M25.2,11.7l-0.5-0.2l0,0c-2-0.7-4.2-0.7-6.2,0.2l0,0L7.1,15.8l1.5,4.5c4.3-0.4,8.7,0.2,12.8,1.7
		c2.2,0.8,4.2,2,6,3.5c1,0.7,1.8,1.6,2.3,2.7l3.2,0.7l6.9-3.5l2.5,1.2l2.6-5.7l-19.3-8.9L25.2,11.7z"/>
	<path class="st3" d="M13.9,15.7c-0.2-0.1-0.3-0.2-0.5-0.2C9,14,4.3,16.2,2.5,20.4C0.4,25,2.1,30.2,6.3,32.1c3,1.3,6.5,0.7,9-1.5
		c2.1-1.4,4.6-5.3,7.3-4.1l8.5,3.9l2.6-5.7l-19.3-8.9C14.2,15.8,14,15.8,13.9,15.7z"/>
	<polygon class="st0" points="31,30.5 42.4,26.5 45,20.8 33.7,24.8 	"/>
	<polygon class="st1" points="33.7,28.4 41.6,25.7 43.1,22.7 34.9,25.4 	"/>
	<polygon class="st1" points="18.7,16.6 23.5,19 31,15.9 26.4,13.8 	"/>
	<path class="st4" d="M12.5,18.8c-3.1-1.2-6.6,0.3-7.8,3.4c-1.1,2.8,0.1,6,2.7,7.4c3,1.3,6.6-0.1,7.9-3.1
		C16.5,23.6,15.3,20.2,12.5,18.8L12.5,18.8z"/>
	<path class="st5" d="M12,19.8c-2.5-1.1-5.4,0-6.5,2.4c-1.1,2.4-0.1,5.3,2.4,6.5c2.5,1.1,5.4,0,6.5-2.4C15.5,23.8,14.4,20.9,12,19.8
		z"/>
	<polygon class="st0" points="20,17.2 23.5,19 29.3,16.6 26.2,15.2 	"/>
</g>
</svg>
