<?xml version="1.0" encoding="utf-8"?>
<!-- Generator: Adobe Illustrator 23.1.0, SVG Export Plug-In . SVG Version: 6.00 Build 0)  -->
<svg version="1.1" id="icons" xmlns="http://www.w3.org/2000/svg" xmlns:xlink="http://www.w3.org/1999/xlink" x="0px" y="0px"
	 viewBox="0 0 47 47" style="enable-background:new 0 0 47 47;" xml:space="preserve">
<style type="text/css">
	.st0{fill:#F9A525;}
	.st1{fill:#FFC51E;}
</style>
<title>Construction</title>
<path class="st0" d="M43.3,21.4c0.4,1.4,0.7,2.8,0.8,4.2C27.3,36.4,4.5,28.4,4.5,28.4v-0.3c-1.8,0.6-5.2,2.3-3.5,4.7
	C3,35.5,8,38.4,18.4,40c3.5,0.4,7.1-0.1,10.3-1.4C38.1,35,43.8,30.1,46.3,25C47,23.5,45.4,22,43.3,21.4z"/>
<path class="st1" d="M46.6,23.3c-0.8-1.2-2.1-2.1-3.5-2.3l0.2,0.9c1,0.2,1.9,0.9,2.5,1.8c0.2,0.4,0.2,0.8,0,1.1
	c-2.7,5.5-8.6,10.2-17.4,13.4c-3.2,1.3-6.7,1.8-10.1,1.5c-11.6-1.8-15.6-5.2-17-7c-0.4-0.4-0.5-1-0.3-1.5c0.3-0.9,1.5-1.9,3.5-2.7
	v-0.7l-0.2,0.1c-1.6,0.6-3.7,1.6-4.1,3.1c-0.2,0.7,0,1.6,0.5,2.1c1.4,1.9,5.6,5.5,17.6,7.3c0.7,0.1,1.5,0.2,2.2,0.2
	c2.8-0.1,5.6-0.6,8.3-1.7c8.9-3.3,15.1-8,17.8-13.8C46.9,24.6,46.9,23.9,46.6,23.3z"/>
<path class="st1" d="M4.6,28.4c0,0,22.7,8,39.5-2.8c0,0-1-19.4-21.3-19.3C4.4,6.6,4.6,28.4,4.6,28.4z"/>
<path class="st0" d="M29.3,7.1c-1.5-0.4-3-0.6-4.5-0.7c-4.7,1.5-14.4,5.9-15.5,17.7C9.3,24.1,19.3,11.3,29.3,7.1z"/>
<path class="st1" d="M16.1,37.4c0,0,5.4,2.3,13.2-2C25.9,39.1,20.4,39.9,16.1,37.4z"/>
</svg>
