<?xml version="1.0" encoding="utf-8"?>
<!-- Generator: Adobe Illustrator 23.1.0, SVG Export Plug-In . SVG Version: 6.00 Build 0)  -->
<svg version="1.1" id="icons" xmlns="http://www.w3.org/2000/svg" xmlns:xlink="http://www.w3.org/1999/xlink" x="0px" y="0px"
	 viewBox="0 0 47 47" style="enable-background:new 0 0 47 47;" xml:space="preserve">
<style type="text/css">
	.st0{fill:#404141;}
</style>
<title>CoreFusion</title>
<path class="st0" d="M45.8,36.9H1.3c-0.5,0-0.9-0.6-0.9-1.3c0-0.7,0.4-1.3,0.9-1.3h44.5c0.5,0,0.9,0.6,0.9,1.3
	C46.7,36.4,46.3,36.9,45.8,36.9z"/>
<path class="st0" d="M18.7,20.9l-5.2-3.1l1-1.4c-0.7-1-1-2.2-0.8-3.4l-3.8,4.3c0,0-0.8,1.3,0.4,2c1.2,0.7,7.3,4.3,7.3,4.3h-1.5
	l2.6,10.4h6.9l6.8-5.2l5.4,5.2h5.6l-9.5-9.4c-0.7-0.6-1.8-0.6-2.5,0c-1.5,1.3-3,2.4-4.6,3.5l-2.1-8.1l4.7-7.3c0,0,0.7-1.4-1.2-2.1
	l-6.1-0.3c0.7,0.9,1.1,2,1,3.1l2.1,0.1l-2.7,4.2l-5.9,1.3L18.7,20.9z"/>
<circle class="st0" cx="18.5" cy="13.5" r="3.4"/>
</svg>
