<?xml version="1.0" encoding="utf-8"?>
<!-- Generator: Adobe Illustrator 23.1.0, SVG Export Plug-In . SVG Version: 6.00 Build 0)  -->
<svg version="1.1" id="icons" xmlns="http://www.w3.org/2000/svg" xmlns:xlink="http://www.w3.org/1999/xlink" x="0px" y="0px"
	 viewBox="0 0 47 47" style="enable-background:new 0 0 47 47;" xml:space="preserve">
<style type="text/css">
	.st0{fill:#EAEAE4;}
	.st1{fill:#D1D1CB;}
	.st2{fill:#EFBC4B;}
	.st3{fill:#D3A13D;}
	.st4{fill:#455256;}
	.st5{fill:#374447;}
	.st6{fill:#E22342;}
	.st7{fill:#C9183A;}
</style>
<title>Cricket</title>
<g id="Cricket">
	<polygon class="st0" points="42.9,6.7 39.4,10.2 38.3,11.3 36.5,13.2 35.4,14.3 32.7,16.9 30,14.3 34.4,9.9 40.3,4 	"/>
	<rect x="28.6" y="8.9" transform="matrix(0.7071 -0.7071 0.7071 0.7071 3.5709 28.203)" class="st1" width="14.5" height="1.9"/>
	<path class="st2" d="M34.4,20.8L19.5,35.7l-7,7l-1,1c-0.8,0.8-2.2,0.8-3,0l-5.3-5.3c-0.8-0.8-0.8-2.2,0-3c0,0,0,0,0,0l23-22.9
		c0.8-0.8,2.2-0.8,3,0c0,0,0,0,0,0l5.3,5.1C35.3,18.5,35.3,19.9,34.4,20.8C34.5,20.7,34.5,20.7,34.4,20.8z"/>
	<path class="st3" d="M4.4,36.7l23-22.9c0.8-0.8,2.1-0.8,3,0c0,0,0,0,0,0l-1.2-1.2c-0.8-0.8-2.2-0.8-3,0c0,0,0,0,0,0l-22.9,23
		c-0.8,0.8-0.8,2.2,0,3c0,0,0,0,0,0l1.2,1.2C4.1,39.1,5.3,37.8,4.4,36.7z"/>
	<path class="st4" d="M34.4,20.8l-0.6,0.7l-8.3-8.3l0.7-0.6c0.8-0.8,2.2-0.8,3,0c0,0,0,0,0,0l5.3,5.2C35.3,18.5,35.3,19.9,34.4,20.8
		C34.5,20.7,34.5,20.7,34.4,20.8z"/>
	<path class="st4" d="M44.2,5.5l-2.7-2.7c-0.5-0.5-1.2-0.5-1.7,0l0,0c-0.5,0.5-0.5,1.2,0,1.7l2.7,2.7c0.5,0.4,1.2,0.4,1.7,0l0,0
		C44.6,6.7,44.6,5.9,44.2,5.5z"/>
	<path class="st5" d="M41.1,4c0.5-0.5,1.2-0.5,1.7,0l-1.3-1.3c-0.5-0.5-1.2-0.5-1.7,0l0,0c-0.5,0.5-0.5,1.2,0,1.7l1.3,1.3
		C40.6,5.2,40.6,4.5,41.1,4z"/>
	<polygon class="st6" points="39.4,10.2 38.3,11.3 37.8,9.2 37.3,7 38.4,5.9 38.9,8.1 	"/>
	<polygon class="st6" points="36.5,13.2 35.4,14.3 34.9,12.1 34.4,9.9 35.5,8.8 36,11 	"/>
	<circle class="st6" cx="19.6" cy="39.5" r="5"/>
	<path class="st7" d="M17.8,39.5c0-2.1,1.4-4,3.4-4.7c-0.5-0.2-1-0.3-1.6-0.3c-2.7-0.1-5.1,2-5.2,4.7c-0.1,2.7,2,5.1,4.7,5.2
		c0.2,0,0.3,0,0.5,0c0.5,0,1.1-0.1,1.6-0.3C19.1,43.5,17.8,41.6,17.8,39.5z"/>
	<polygon class="st7" points="35.5,8.8 36,11 34.9,12.1 34.4,9.9 	"/>
	<polygon class="st7" points="38.9,8.1 37.8,9.2 37.3,7 38.4,5.9 	"/>
</g>
</svg>
