<?xml version="1.0" encoding="utf-8"?>
<!-- Generator: Adobe Illustrator 23.1.0, SVG Export Plug-In . SVG Version: 6.00 Build 0)  -->
<svg version="1.1" id="icons" xmlns="http://www.w3.org/2000/svg" xmlns:xlink="http://www.w3.org/1999/xlink" x="0px" y="0px"
	 viewBox="0 0 47 47" style="enable-background:new 0 0 47 47;" xml:space="preserve">
<style type="text/css">
	.st0{fill:#F1F3E0;}
	.st1{opacity:0.81;fill:#B5B6A8;enable-background:new    ;}
	.st2{fill:#EA7053;}
	.st3{opacity:0.15;fill:#B0543E;enable-background:new    ;}
	.st4{opacity:0.15;fill:#EA7053;enable-background:new    ;}
	.st5{fill:#F9D363;}
</style>
<title>croquet</title>
<g id="croquet">
	<circle class="st0" cx="41.7" cy="35.6" r="4.1"/>
	<path class="st1" d="M44.9,33c1,2,0.2,4.5-1.8,5.5c-1.7,0.9-3.8,0.4-5-1c1.1,2,3.6,2.7,5.5,1.6c2-1.1,2.7-3.6,1.6-5.5
		C45.2,33.4,45,33.2,44.9,33z"/>
	<path class="st2" d="M27.6,30.7c0,0.1,0,0.2,0,0.2C27.6,31,27.6,30.8,27.6,30.7z"/>
	<path class="st2" d="M27.5,30.2v0.2V30.2z"/>
	<path class="st2" d="M27.6,31.2L27.6,31.2z"/>
	<path class="st2" d="M27.4,29.8c0,0.1,0,0.1,0.1,0.2C27.5,29.9,27.5,29.8,27.4,29.8z"/>
	<path class="st2" d="M27.4,32.6c0,0,0,0.1-0.1,0.2S27.4,32.7,27.4,32.6z"/>
	<path class="st2" d="M27.5,32.1c0,0.1,0,0.1,0,0.2C27.5,32.2,27.5,32.2,27.5,32.1z"/>
	<path class="st2" d="M27.6,31.6c0,0.1,0,0.1,0,0.2C27.6,31.8,27.6,31.7,27.6,31.6z"/>
	<path class="st2" d="M27.3,29.4c0,0.1,0.1,0.1,0.1,0.2C27.4,29.7,27.3,29.4,27.3,29.4z"/>
	<path class="st2" d="M26.3,27.8c0.1,0.1,0.1,0.1,0.2,0.2C26.4,27.9,26.4,27.8,26.3,27.8z"/>
	<path class="st2" d="M26,27.4l0.2,0.2L26,27.4z"/>
	<path class="st2" d="M25.6,27.2c0.1,0,0.1,0.1,0.2,0.2C25.9,27.4,25.7,27.2,25.6,27.2z"/>
	<path class="st2" d="M26.6,28.1l0.1,0.2L26.6,28.1z"/>
	<path class="st2" d="M27.2,33.1c0,0.1,0,0.1-0.1,0.2C27.2,33.2,27.2,33.1,27.2,33.1z"/>
	<path class="st2" d="M26.9,28.5l0.1,0.2L26.9,28.5z"/>
	<path class="st2" d="M27.1,28.9l0.1,0.2L27.1,28.9z"/>
	<path class="st2" d="M3,29.1c-0.2-0.2-0.5-0.5-0.7-0.7C2.5,28.7,2.7,28.9,3,29.1z"/>
	<path class="st2" d="M3.8,29.8l-0.4-0.3L3.8,29.8z"/>
	<polygon class="st2" points="3.8,29.7 4.8,30.3 4.8,30.3 	"/>
	<path class="st2" d="M3.3,29.4L3,29.2L3.3,29.4z"/>
	<path class="st2" d="M10.6,18.2c-2.4-1.4-5.4-0.6-6.8,1.7L2,23c-1,1.7-0.9,3.9,0.3,5.5l0.4,0.3l1,0.6l0,0l13.6,8
		c2.4,1.4,5.4,0.6,6.8-1.7l1.8-3c1-1.7,0.9-3.9-0.3-5.5l-0.4-0.3l-5.2-3.1l0.2-0.3L19,22.7L29.4,5.1c-0.7-0.3-1.3-0.6-2-0.9
		L16.9,21.9L10.6,18.2z"/>
	<path class="st2" d="M27,28.7c0,0.1,0.1,0.1,0.1,0.2C27.1,28.8,27,28.8,27,28.7z"/>
	<path class="st2" d="M27.2,29.1c0,0.1,0.1,0.1,0.1,0.2C27.3,29.4,27.2,29.2,27.2,29.1z"/>
	<path class="st2" d="M27.4,29.6l0.1,0.2L27.4,29.6z"/>
	<path class="st2" d="M26.5,27.9l0.1,0.2L26.5,27.9z"/>
	<polygon class="st2" points="25.6,27.1 25.6,27.1 25.6,27.1 	"/>
	<path class="st2" d="M25.8,27.3l0.2,0.1L25.8,27.3z"/>
	<path class="st2" d="M27.2,33.2c-0.1,0.1-0.1,0.3-0.2,0.4C27,33.5,27.1,33.3,27.2,33.2z"/>
	<path class="st2" d="M26.2,27.6l0.1,0.2L26.2,27.6z"/>
	<path class="st2" d="M26.8,28.3c0,0.1,0.1,0.1,0.1,0.2C26.8,28.4,26.8,28.3,26.8,28.3z"/>
	<path class="st2" d="M2.3,28.4"/>
	<path class="st2" d="M3.4,29.5L3.4,29.5z"/>
	<path class="st2" d="M27.5,30c0,0.1,0,0.2,0,0.2C27.5,30.3,27.5,30.1,27.5,30z"/>
	<path class="st2" d="M27.6,31.4c0,0.1,0,0.2,0,0.3C27.6,31.5,27.6,31.5,27.6,31.4z"/>
	<path class="st2" d="M27.3,32.8c0,0.1-0.1,0.2-0.1,0.3C27.3,33,27.3,32.9,27.3,32.8z"/>
	<path class="st2" d="M27.6,31.8c0,0.1,0,0.2-0.1,0.3C27.5,32,27.6,31.9,27.6,31.8z"/>
	<path class="st2" d="M27.5,32.3c0,0.1,0,0.2-0.1,0.3C27.4,32.5,27.5,32.4,27.5,32.3z"/>
	<polygon class="st2" points="4.8,30.3 18.4,38.4 4.8,30.3 	"/>
	<path class="st2" d="M3,29.2L3,29.2z"/>
	<path class="st2" d="M27.6,30.9L27.6,30.9z"/>
	<path class="st2" d="M27.6,30.5c0,0.1,0,0.2,0,0.2C27.6,30.6,27.6,30.5,27.6,30.5z"/>
	<path class="st2" d="M25.9,32.6l-1.8,3c-1.4,2.3-4.4,3.1-6.7,1.7l-13.6-8l0,0l-1-0.6l-0.4-0.3l0,0c0.2,0.3,0.4,0.5,0.7,0.7l0,0
		l0.4,0.3l0,0l0.4,0.3l1,0.6l0,0l13.7,8.1c2.3,1.4,5.4,0.6,6.8-1.7c0,0,0,0,0,0l1.8-3c0.1-0.1,0.2-0.3,0.2-0.4c0,0,0-0.1,0.1-0.2
		c0-0.1,0.1-0.2,0.1-0.3c0-0.1,0-0.1,0.1-0.2c0-0.1,0.1-0.2,0.1-0.3c0-0.1,0-0.1,0-0.2c0-0.1,0-0.2,0.1-0.3c0-0.1,0-0.1,0-0.2
		c0-0.1,0-0.2,0-0.3v-0.5c0-0.1,0-0.1,0-0.2c0-0.1,0-0.2,0-0.2v-0.2c0-0.1,0-0.2,0-0.2c0-0.1,0-0.1-0.1-0.2l-0.1-0.2
		c0-0.1,0-0.2-0.1-0.2c-0.1-0.1,0-0.1-0.1-0.2l-0.1-0.2c0-0.1-0.1-0.1-0.1-0.2L27,28.5c0-0.1-0.1-0.1-0.1-0.2l-0.1-0.2l-0.1-0.2
		c-0.1-0.1-0.1-0.1-0.2-0.2l-0.1-0.2l-0.2-0.2l-0.2-0.1c-0.1-0.1-0.1-0.1-0.2-0.2l0,0C26.8,28.7,26.9,30.9,25.9,32.6z"/>
	<path class="st2" d="M29.4,5.1L19,22.7l1.3,0.7L30.7,5.8C30.2,5.6,29.8,5.3,29.4,5.1z"/>
	<path class="st3" d="M25.9,32.6l-1.8,3c-1.4,2.3-4.4,3.1-6.7,1.7l-13.6-8l0,0l-1-0.6l-0.4-0.3l0,0c0.2,0.3,0.4,0.5,0.7,0.7l0,0
		l0.4,0.3l0,0l0.4,0.3l1,0.6l0,0l13.7,8.1c2.3,1.4,5.4,0.6,6.8-1.7c0,0,0,0,0,0l1.8-3c0.1-0.1,0.2-0.3,0.2-0.4c0,0,0-0.1,0.1-0.2
		c0-0.1,0.1-0.2,0.1-0.3c0-0.1,0-0.1,0.1-0.2c0-0.1,0.1-0.2,0.1-0.3c0-0.1,0-0.1,0-0.2c0-0.1,0-0.2,0.1-0.3c0-0.1,0-0.1,0-0.2
		c0-0.1,0-0.2,0-0.3v-0.5c0-0.1,0-0.1,0-0.2c0-0.1,0-0.2,0-0.2v-0.2c0-0.1,0-0.2,0-0.2c0-0.1,0-0.1-0.1-0.2l-0.1-0.2
		c0-0.1,0-0.2-0.1-0.2c-0.1-0.1,0-0.1-0.1-0.2l-0.1-0.2c0-0.1-0.1-0.1-0.1-0.2L27,28.5c0-0.1-0.1-0.1-0.1-0.2l-0.1-0.2l-0.1-0.2
		c-0.1-0.1-0.1-0.1-0.2-0.2l-0.1-0.2l-0.2-0.2l-0.2-0.1c-0.1-0.1-0.1-0.1-0.2-0.2l0,0C26.8,28.7,26.9,30.9,25.9,32.6z"/>
	<path class="st4" d="M29.4,5.1L19,22.7l1.3,0.7L30.7,5.8C30.2,5.6,29.8,5.3,29.4,5.1z"/>
	<path class="st5" d="M25.2,26.9l-13.6-8L4.8,30.3l13.6,8l0.1,0.1l6.8-11.5L25.2,26.9z"/>
</g>
</svg>
