<?xml version="1.0" encoding="utf-8"?>
<!-- Generator: Adobe Illustrator 23.1.0, SVG Export Plug-In . SVG Version: 6.00 Build 0)  -->
<svg version="1.1" id="icons" xmlns="http://www.w3.org/2000/svg" xmlns:xlink="http://www.w3.org/1999/xlink" x="0px" y="0px"
	 viewBox="0 0 47 47" style="enable-background:new 0 0 47 47;" xml:space="preserve">
<style type="text/css">
	.st0{fill:#334A61;}
</style>
<title>CrossFit</title>
<path id="crossfit" class="st0" d="M46,39.2c-0.1-0.6-0.3-1.1-0.6-1.6c-0.1-0.1-0.3-0.2-0.4-0.2c0,0-1.6-4.1-1.8-4.7
	C43,32,42.6,31.4,42,31c-0.7-0.4-1.3-0.9-1.8-1.4c0-0.1,0-0.2,0-0.2c0-0.1-0.2-0.2-0.3-0.5c-0.1-0.3-1.8-5-1.8-5.1
	c0-0.1,0.2-0.2,0-0.6C38,23,38,22.8,38,22.6c0-0.2,0.1-0.4,0-0.6c-0.1-0.1,0-0.5-0.3-1.2c-0.2-0.4-0.4-0.8-0.7-1.2
	c-0.1-0.2-0.3-0.4-0.5-0.5L36.3,19c-0.1-0.1-0.2-0.3-0.4-0.4c-0.2-0.1-0.2-0.2-0.3-0.3c-0.3-0.5-0.4-1-0.3-1.6
	c0.1-0.8,0.1-1.6,0.1-1.6s1.1-0.1,1.4-0.1c0.3,0,0.5-0.1,0.5-0.4c0.1-0.3,0.2-0.7,0.2-1c-0.1-0.4-0.5-1.3-0.6-1.6
	c-0.2-0.4-0.4-0.8-0.8-1.1c-0.4-0.3-0.5-0.3-0.6-0.6c-0.1-0.3-0.3-1.5-0.9-1.9c-0.3-0.2-0.7-0.4-1.1-0.4c-0.2-0.3-0.6-0.5-0.9-0.6
	c-0.4-0.1-0.8-0.3-1.2-0.6c-0.2-0.3-0.3-0.7-0.3-1.1c0.1-0.3,0.1-0.7,0.1-0.7s0.4-2.2-0.7-2.9c-0.5-0.5-1.2-0.7-1.8-0.5
	c-0.4,0.1-0.9,0.2-1.3,0.4c-0.2,0.1-0.5,0.2-0.7,0.3c-0.2,0.1,0,0.7,0,0.7c-0.2,0.4-0.3,0.8-0.4,1.2c0,0.2-0.2,0.3,0,0.5L26.8,5
	c-0.1,0.3-0.2,0.5-0.3,0.8c0,0.1,0,0.3,0.1,0.3c0.1,0,0.2,0,0.3,0c0,0.1,0,0.2,0,0.3c0,0.1-0.1,0.2,0,0.2h0.1c0,0.1,0,0.1,0,0.2
	C27,6.9,27.1,7,27,7.1c0,0.1,0.1,0.6,0.3,0.7c0.4,0.1,0.8,0.1,1.2,0.1l0.6,1.3c0.1,0.2-0.4,0-0.6,0.2c-0.3,0.2-0.5,0.5-0.5,0.5
	c-1.3-1-2.8-1.9-4.3-2.7C22.1,6.7,20.5,6,20.4,6c-0.1,0-0.3,0-0.3,0.2c0,0.2-0.3,0-0.5,0c-0.2,0-0.1,0-0.3,0.2
	c-0.2,0.2-0.6,0.5-0.6,0.7c0,0.2,0,0.4-0.1,0.5c-0.1,0.1-0.3,0-0.6,0.1c-0.3,0.1-0.6,0.4-0.7,0.7c-0.4,0.6-0.8,1.2-1.3,1.8
	c-0.2,0.2-2,3.1-2.7,4c-0.7,0.9-3.9,6.3-4.6,7.5c-0.6,1.2-2.9,5.8-3.6,7c-0.7,1.2-1.3,2.5-1.9,3.8c0,0.1,0.2,0,0.1,0.2
	c-0.3,0.6-0.6,1.1-0.8,1.7c-0.2,0.4-0.4,0.9-0.6,1.3c-0.1,0.2-0.1,0.4,0,0.6c-0.1,0.3-0.2,0.6-0.3,0.9c-0.3,0.5-0.5,1-0.7,1.5
	c-0.1,0.2,0,0.3,0.1,0.3c0.1,0,0.2,0.2,0.2,0.2S0.8,40,0.9,40.2s0.4,0.3,0.5,0.5c0.2,0.2,2.8,1.8,4.1,2.7c1.3,0.9,4.9,0.9,5.4,1.1
	c0.6,0.1,1.2,0.1,1.8,0c0.5,0,1.2-1.2,1.4-1.7c0.2-0.5,0.2-0.6,0.5-0.7c0.6-0.1,1-0.4,1.4-0.9c0.5-0.7,1.1-2.4,1.4-2.6
	c0.3-0.2,0.6-0.5,0.7-0.8c0.1-0.2,0.7-0.3,0.9-0.5c0.1-0.2,0.9-1.6,1.1-2.2c0.2-0.4,0.4-0.8,0.6-1.2c0-0.1-0.1-0.1,0-0.3
	s0.2-0.1,0.4-0.3c0.1-0.1,0.6-1.5,0.8-1.5s0.3,0.1,0.4,0c0.4-0.6,0.7-1.2,1-1.8c-0.1-0.3,0-0.7,0.1-1c0.2-0.3,0.9-1.4,1-1.6
	c0.2-0.6,0.5-1.1,0.9-1.6c0.2-0.1,0.4,0,0.4-0.2c0.2-0.5,0.4-1,0.6-1.6c0-0.2-0.4-0.3-0.2-0.5c0.4-0.5,0.7-1,1-1.6
	c0-0.2-0.2-0.1,0-0.5c0.2-0.4,0.4-0.9,0.7-1.2c0.2-0.2,0.4-0.2,0.4-0.2s0.3-1.1,0.4-1.4c0-0.3-0.2-0.3-0.2-0.5
	c0.1-0.2,0.2-0.4,0.3-0.6c0-0.3,0-0.4,0-0.6c0-0.2,0.2,0,0.2,0s0.1,0.6,0.2,0.9c0.1,0.3-0.1,0.9,0.2,1.4c0.2,0.5,0.4,0.6,0.5,0.9
	c0.1,0.2,0.2,0.4,0.2,0.6c0,0-0.7-0.1-0.8,0.3c-0.1,0.3-0.2,0.7-0.4,0.9c-0.2,0.3-0.4,0.4-0.7,0.8s-0.4,0.4-0.6,0.7
	c-0.2,0.3-0.5,0.7-0.7,1c-0.2,0.3-1.1,1.8-1.3,2.2s-1.2,2.1-1.3,2.3c-0.2,0.4-0.2,0.9,0.1,1.3c0.4,0.5,0.7,1.1,0.8,1.8
	c0.3,1,0.8,2,1.3,2.9c0.6,1.1,1.5,2.6,1.6,2.9c0.1,0.3,0.1,0.6,0.1,0.9c0,0.1-0.2,0.2-0.2,0.4c0,0.2,0,0.3,0,0.5
	c-0.3,0.2-0.4,0.5-0.5,0.9c0,0.4,0,0.5-0.2,0.7c-0.2,0.1-0.4,0.3-0.5,0.4c-0.1,0.1-0.2,0.2-0.4,0.3c-0.1-0.1-0.3-0.1-0.4,0
	c0,0-0.1,0.1-0.1,0.1c-0.2,0.3-0.2,0.8,0.2,0.8h2.3c0.5-0.3,0.9-0.8,1.3-1.2c0.3-0.4,0.7-0.8,1.1-1.1c0.4-0.2,0.7-0.6,0.9-0.9
	c0.1-0.3,0.4-0.8,0.1-0.9L31,38.2c-0.2-0.1-0.5-0.3-0.6-0.5c-0.1-0.2-0.1-0.3-0.3-0.2c-0.4-0.9-0.7-1.9-1-2.9c0.1-0.9,0-1.8-0.3-2.6
	c-0.4-0.7-0.8-1.4-1.3-2.1c0.3,0,0.6,0,0.9,0.1c0.6,0.2,2.3,0.6,2.3,0.6l1.4-2.1l2,3.2c0.7,0,1.3,0,2-0.1c0.6-0.1,1.2-0.3,1.8-0.5
	c0.2,0.4,0.6,0.7,0.9,0.9c0.7,0.4,1.3,1,1.7,1.7c0.8,1.2,2.5,3.1,2.6,3.5c0.1,0.4,0.3,1.2,0.3,1.2s-0.2,0-0.1,0.3
	c0,0.4-0.1,0.9-0.3,1.3c-0.1,0.2-0.4,0.5-0.4,0.6c0,0.2,0,0.3-0.1,0.4c-0.1,0.1-0.6,0.3-0.6,0.5c-0.1,0.2-0.6,0.6,0,0.8
	c1.1,0.2,2.3,0.2,3.4,0c0.1-0.2-0.1-1.2,0.2-1.7C45.5,40.1,46,39.7,46,39.2z"/>
</svg>
