<?xml version="1.0" encoding="utf-8"?>
<!-- Generator: Adobe Illustrator 23.1.0, SVG Export Plug-In . SVG Version: 6.00 Build 0)  -->
<svg version="1.1" id="icons" xmlns="http://www.w3.org/2000/svg" xmlns:xlink="http://www.w3.org/1999/xlink" x="0px" y="0px"
	 viewBox="0 0 47 47" style="enable-background:new 0 0 47 47;" xml:space="preserve">
<style type="text/css">
	.st0{fill:#344957;}
	.st1{fill:#7D858D;}
	.st2{fill:#FFBD00;}
</style>
<title>Curling</title>
<path class="st0" d="M45.9,25.6v6.2c0,0.4,0,0.7-0.1,1.1c-0.5,4.5-4,8-8.2,8H9.5c-4.2,0-7.7-3.5-8.2-8c0-0.4-0.1-0.8-0.1-1.1v-6.2
	c0-0.5,0-0.9,0.1-1.4c0.4-4.2,3.9-7.5,8.2-7.7h28.2c4.3,0.2,7.8,3.5,8.2,7.7C45.9,24.7,45.9,25.2,45.9,25.6z"/>
<path class="st1" d="M45.9,25.6v6.2c0,0.4,0,0.7-0.1,1.1H1.3c0-0.4-0.1-0.8-0.1-1.1v-6.2c0-0.5,0-0.9,0.1-1.4h44.5
	C45.9,24.7,45.9,25.2,45.9,25.6z"/>
<path class="st2" d="M19.1,5l-7.5,11.6h23.9c0,0,7.3-6.1-15.7-4.2l1.9-3.1h14.2c0,0,8.8-2.3,1.5-4.6L19.1,5z"/>
</svg>
