<?xml version="1.0" encoding="utf-8"?>
<!-- Generator: Adobe Illustrator 23.1.0, SVG Export Plug-In . SVG Version: 6.00 Build 0)  -->
<svg version="1.1" id="icons" xmlns="http://www.w3.org/2000/svg" xmlns:xlink="http://www.w3.org/1999/xlink" x="0px" y="0px"
	 viewBox="0 0 47 47" style="enable-background:new 0 0 47 47;" xml:space="preserve">
<style type="text/css">
	.st0{fill:#5F6E9B;}
	.st1{fill:#A85A3B;}
	.st2{fill:#414B82;}
	.st3{fill:#BA6746;}
	.st4{fill:#F7A78D;}
	.st5{fill:#64AFFF;}
	.st6{fill:#FFB69E;}
	.st7{fill:#FA503C;}
</style>
<title>Dancing</title>
<g id="dancing">
	<path class="st0" d="M8.4,43.1c-1-0.2-1.7-1.2-1.5-2.2c0,0,0-0.1,0-0.1l1.7-8.2c0-0.2,0.1-0.3,0.2-0.4l2.7-5.6
		c0.4-0.9,1.6-1.4,2.5-0.9c0.9,0.4,1.4,1.6,0.9,2.5c0,0,0,0,0,0.1l-2.6,5.4l-1.6,8C10.4,42.6,9.4,43.2,8.4,43.1
		C8.4,43.1,8.4,43.1,8.4,43.1z"/>
	<path class="st1" d="M28.3,42.3l-4.8-6.9c-0.3-0.4-0.4-0.8-0.3-1.3l1.3-9.1c0.1-1,1-1.7,2-1.6c1,0.1,1.7,1,1.6,2c0,0.1,0,0.1,0,0.2
		L27,33.9l4.3,6.3c0.6,0.8,0.4,2-0.5,2.5C30,43.3,28.9,43.1,28.3,42.3L28.3,42.3L28.3,42.3z"/>
	<path class="st2" d="M19.1,41.2l-0.4-8.4L15.8,25c-0.3-1,0.3-2.1,1.3-2.4c0.9-0.3,1.9,0.2,2.3,1.1l3,8.1c0.1,0.2,0.1,0.4,0.1,0.6
		l0.4,8.7c0.1,1-0.6,2-1.7,2.1c-1,0.1-2-0.6-2.1-1.7C19.1,41.4,19.1,41.3,19.1,41.2L19.1,41.2z"/>
	<path class="st3" d="M23.6,42.9c-0.9-0.4-1.4-1.5-1-2.4c0,0,0,0,0,0L29.1,25c0.3-0.9,1.4-1.4,2.3-1.1c0.9,0.3,1.4,1.4,1.1,2.3
		c0,0.1-0.1,0.1-0.1,0.2L26,42C25.6,42.9,24.5,43.3,23.6,42.9z"/>
	<path class="st4" d="M30.2,20.6L30.2,20.6l-4.8-0.3c-0.3,0-0.6-0.1-0.8-0.3l-7.3-4.9c-0.7-0.5-0.9-1.5-0.4-2.2
		c0.5-0.7,1.5-0.9,2.2-0.4l6.9,4.6l4.2,0.2c0.9,0,1.6,0.8,1.6,1.7C31.9,20,31.1,20.7,30.2,20.6L30.2,20.6z"/>
	<path class="st5" d="M24.7,16.2l-5.5-3.7c-0.7-0.5-1.8-0.3-2.2,0.4c-0.5,0.7-0.3,1.8,0.4,2.2l5,3.3C23.2,17.8,23.9,17,24.7,16.2z"
		/>
	<path class="st6" d="M19.8,7.5c0,2-1.6,3.6-3.6,3.6s-3.6-1.6-3.6-3.6S14.3,4,16.2,4S19.8,5.6,19.8,7.5L19.8,7.5z"/>
	<path class="st3" d="M33.3,8.8c0,1.9-1.5,3.4-3.4,3.4c-1.9,0-3.4-1.5-3.4-3.4c0-1.9,1.5-3.4,3.4-3.4C31.7,5.4,33.3,6.9,33.3,8.8
		C33.3,8.8,33.3,8.8,33.3,8.8z"/>
	<path class="st3" d="M44,14.8l-11.8-1.4L25.5,13l-1.4,14.6l9,0.4l-0.7-11.4l11.3,1.3c0.9,0.1,1.6-0.5,1.7-1.4
		C45.5,15.7,44.9,14.9,44,14.8L44,14.8z"/>
	<path class="st3" d="M17.4,26.1c-0.4,0-0.8-0.1-1.1-0.4c-0.6-0.6-0.6-1.5-0.1-2.2l4-4.3l4-5.4c0.6-0.7,1.5-0.8,2.2-0.2
		c0.6,0.5,0.8,1.4,0.3,2.1l-4.1,5.5l-0.1,0.1l-4.1,4.3C18.2,25.9,17.8,26.1,17.4,26.1z"/>
	<path class="st7" d="M44.8,26.1c-2.5,0.4-6.8,0.8-9.9-1c-1.3-0.8-2.1-2.1-2.2-3.6l-0.3-4.9l2.6,0.3l0.4-3.1l-3.2-0.4l-1.7-0.1
		c0,0.8-0.7,1.5-1.6,1.4c-0.8,0-1.5-0.7-1.4-1.6l0,0v-0.1l-1.8-0.1h-0.2c-0.5,0-1,0.3-1.3,0.7l-2,2.7l2.5,1.9l0.3-0.4l-0.4,3.7
		c-0.1,1.1-0.6,2.1-1.3,2.9c-1.6,1.8-2.8,3.9-3.6,6.2c-0.2,0.4,0.1,0.9,0.5,1.1c0.2,0.1,0.4,0.1,0.5,0c2.4-0.7,7.2-1.5,11.6,0.8
		c4.8,2.6,10.5-2.6,13-5.4c0.2-0.3,0.2-0.8-0.1-1C45.2,26.1,45,26.1,44.8,26.1z"/>
	<path class="st6" d="M18.1,12.2l-6.7-0.4l0,0c-0.5,0-1,0.2-1.3,0.7L6,18.4l-4.2,4.5c-0.7,0.6-0.8,1.6-0.2,2.3
		c0.6,0.7,1.6,0.8,2.3,0.2C4,25.2,4.1,25.2,4.1,25l4.3-4.5c0.1-0.1,0.1-0.1,0.1-0.2l2.7-3.8l-0.6,11.6l5.8,0.3
		c1.8,0.1,3.4-1.3,3.5-3.2l0.5-10.6C20.5,13.4,19.5,12.3,18.1,12.2z"/>
	<path class="st5" d="M18.1,12.2h-0.6c0,1-0.8,1.7-1.8,1.7c-1,0-1.7-0.8-1.7-1.8V12l-2.6-0.1l0,0c-0.5,0-1,0.2-1.3,0.7l-2.5,3.5
		c0.7,0.7,1.8,1.7,2.4,2.3l1.3-1.8l-0.6,11.6l5.8,0.3c1.8,0.1,3.4-1.3,3.5-3.2l0.5-10.6C20.5,13.4,19.5,12.3,18.1,12.2z"/>
</g>
</svg>
