<?xml version="1.0" encoding="utf-8"?>
<!-- Generator: Adobe Illustrator 23.1.0, SVG Export Plug-In . SVG Version: 6.00 Build 0)  -->
<svg version="1.1" id="icons" xmlns="http://www.w3.org/2000/svg" xmlns:xlink="http://www.w3.org/1999/xlink" x="0px" y="0px"
	 viewBox="0 0 47 47" style="enable-background:new 0 0 47 47;" xml:space="preserve">
<style type="text/css">
	.st0{fill:#D9A955;}
	.st1{fill:#9C1722;}
	.st2{fill:#BE1E2D;}
	.st3{fill:#183E85;}
	.st4{fill:#E7B45B;}
</style>
<title>Darts</title>
<g id="dart">
	<polygon class="st0" points="3.8,44.6 2.9,45.2 3.4,44.3 8,39.3 8.4,39.7 	"/>
	<path class="st1" d="M38.3,7.4C39.6,6,41.6,6,42.9,7.2c0.4,0.3,0.6,0.7,0.8,1.2c0.4,1.4,0.1,2.9-0.8,4.1c-0.9,1.3-2.2,2.3-3.7,2.9
		c-3.8,1.5-7.7,2.7-11.7,3.7L38.3,7.4z"/>
	<path class="st2" d="M38.3,7.4C39.6,6,39.5,4,38.2,2.8c-0.3-0.3-0.8-0.6-1.2-0.7c-1.4-0.3-2.9,0.1-4,1.1c-1.2,1-2.1,2.4-2.7,3.9
		c-1.2,3.9-2.1,7.9-2.8,11.9L38.3,7.4z"/>
	<polygon class="st2" points="9.4,40.6 7.1,38.4 38.6,7.1 	"/>
	<path class="st3" d="M9.5,40.5c-0.6,0.8-1.8,1-2.6,0.5c-0.6-0.8-0.5-2,0.3-2.6c0.6-0.8,1.7-1,2.6-0.5C10.4,38.7,10.3,39.8,9.5,40.5
		z"/>
	<path class="st4" d="M14.8,32.5c-0.4-0.3-0.6-0.8-0.5-1.3l-7.1,7.1L7,38.4l0,0L7,38.5l0,0c-0.7,0.7-0.8,1.8-0.2,2.6
		c0.8,0.6,1.9,0.5,2.5-0.3l0.1-0.1l7-7.9C15.8,33,15.2,32.8,14.8,32.5z"/>
</g>
</svg>
