<?xml version="1.0" encoding="utf-8"?>
<!-- Generator: Adobe Illustrator 23.1.0, SVG Export Plug-In . SVG Version: 6.00 Build 0)  -->
<svg version="1.1" id="icons" xmlns="http://www.w3.org/2000/svg" xmlns:xlink="http://www.w3.org/1999/xlink" x="0px" y="0px"
	 viewBox="0 0 47 47" style="enable-background:new 0 0 47 47;" xml:space="preserve">
<style type="text/css">
	.st0{fill:#F15A24;}
	.st1{fill:#1E1E1E;}
</style>
<title>DiscGolf</title>
<g id="Disc_Golf">
	<polygon class="st0" points="24.3,10.5 37.4,10.5 37.4,3.6 9.6,3.6 9.6,10.5 22.7,10.5 	"/>
	<path class="st1" d="M38.5,1.5h-30c-0.6,0-1,0.5-1,1v0v9c0,0.6,0.5,1,1,1h1.1c0.7,2.8,3.1,11.9,8.3,16h-7.4c-0.3,0-0.7,0.2-0.9,0.5
		c-0.2,0.3-0.3,0.6-0.1,1l2.3,6.1c0.2,0.4,0.5,0.7,1,0.7h8.9v7.5c0,0.6,0.4,1.1,1,1.1c0,0,0.1,0,0.1,0h1.6c0.6,0,1-0.5,1-1l0,0v-7.6
		h8.9c0.4,0,0.8-0.3,1-0.7l2.3-6.1c0.1-0.3,0.1-0.7-0.1-1c-0.2-0.3-0.5-0.5-0.9-0.5h-7.5c5.2-4.1,7.6-13.2,8.3-16h1.1
		c0.6,0,1-0.4,1-1c0,0,0,0,0,0v-9C39.5,2,39,1.5,38.5,1.5z M29.3,12.6c-0.2,5-1.6,9.9-4,14.3V12.6H29.3z M37.4,10.6H9.6V3.6h27.9
		V10.6z M11.8,12.6h3.8c0.2,5,1.5,10,3.8,14.5C15,23.8,12.6,15.7,11.8,12.6z M13.5,34.8l-1.5-4h3.5l1,4H13.5z M21.6,34.8h-3l-1-4h4
		L21.6,34.8z M21.6,27c-2.4-4.4-3.8-9.3-4-14.3h4V27z M31.5,30.7H35l-1.5,4h-3L31.5,30.7z M29.4,30.7l-1,4h-3v-4.1L29.4,30.7z
		 M27.6,27.2c2.3-4.5,3.6-9.5,3.8-14.5h3.8C34.4,15.7,32.1,23.8,27.6,27.2L27.6,27.2z"/>
</g>
</svg>
