<?xml version="1.0" encoding="utf-8"?>
<!-- Generator: Adobe Illustrator 23.1.0, SVG Export Plug-In . SVG Version: 6.00 Build 0)  -->
<svg version="1.1" id="icons" xmlns="http://www.w3.org/2000/svg" xmlns:xlink="http://www.w3.org/1999/xlink" x="0px" y="0px"
	 viewBox="0 0 47 47" style="enable-background:new 0 0 47 47;" xml:space="preserve">
<style type="text/css">
	.st0{fill:#575756;}
	.st1{fill:#3C3C3B;}
	.st2{fill:#303030;}
	.st3{fill:#1D1D1B;}
	.st4{fill:#706F6F;}
	.st5{fill:#9D9D9C;}
</style>
<title>Driving</title>
<path class="st0" d="M42.7,17c0,0-14.3,2.7-19.2,2.7S4.3,17,4.3,17v5.9l4.8,1.4c5.6,1.6,9.9,7,11.2,13l1.1,5.3h4.4l1.1-5.4
	c1.3-6,5.6-11.4,11.2-13l4.5-1.3L42.7,17z"/>
<path class="st1" d="M23.5,44.5C11.7,44.5,2.2,35,2.3,23.2C2.3,11.5,11.8,2,23.5,2c11.7,0,21.2,9.5,21.2,21.3
	C44.7,35,35.2,44.5,23.5,44.5z M23.5,5.9c-9.6,0-17.4,7.8-17.3,17.4c0,9.6,7.8,17.4,17.4,17.3c9.6,0,17.3-7.8,17.3-17.4
	C40.9,13.7,33.1,5.9,23.5,5.9C23.5,5.9,23.5,5.9,23.5,5.9z"/>
<path class="st2" d="M33.2,21.2c0,3.6-4.4,12-9.7,12s-9.7-8.4-9.7-12c0-0.7,0.2-1.5,0.6-2.1c0.3-0.4,0.6-0.7,1.1-1
	c1.7-1.1,4.7-1.4,8-1.4s6.3,0.3,8,1.4c0.4,0.3,0.8,0.6,1.1,1C33,19.7,33.2,20.5,33.2,21.2z"/>
<path class="st3" d="M29.3,26.8c0,0.1,0,0.1,0,0.2c0,0.5-0.1,1-0.2,1.5c-1.5,2-3.5,3.6-5.6,3.6s-4.1-1.6-5.6-3.6
	c-0.1-0.5-0.2-1-0.2-1.5v-0.2c0-3.2,2.6-5.8,5.8-5.8C26.7,21,29.3,23.6,29.3,26.8L29.3,26.8z"/>
<path class="st0" d="M26.8,26.8c0,1.8-1.5,3.3-3.3,3.3c-1.8,0-3.3-1.5-3.3-3.3c0-1.8,1.4-3.2,3.2-3.3C25.3,23.5,26.7,25,26.8,26.8
	C26.8,26.8,26.8,26.8,26.8,26.8z"/>
<path class="st4" d="M32.5,19.1c-0.2-1.1-0.9-1.4-1.1-1c0.3,0.5,0.5,1,0.5,1.6c-0.3,2.6-1.2,5.1-2.7,7.3c-1.6,2.4-3.6,4.5-5.8,4.5
	s-4.3-2-5.8-4.5c-1.5-2.2-2.4-4.7-2.7-7.3c0-0.6,0.2-1.1,0.5-1.6c-0.3-0.2-1-0.1-1.1,1c0,0.2,0,0.4,0,0.6c0.4,3.2,1.6,6.2,3.5,8.7
	c1.5,2,3.5,3.6,5.6,3.6s4.1-1.6,5.6-3.6c1.9-2.5,3.2-5.6,3.5-8.7C32.6,19.6,32.6,19.4,32.5,19.1z"/>
<path class="st5" d="M27.1,19.3C27,19.7,26.6,20,26.2,20c-1.8-0.3-3.6-0.3-5.4,0c-0.4,0.1-0.8-0.2-0.9-0.6l0,0
	c-0.1-0.4,0.2-0.8,0.6-0.9c0,0,0,0,0.1,0c2-0.3,4-0.3,6,0C26.9,18.5,27.2,18.8,27.1,19.3C27.2,19.3,27.2,19.3,27.1,19.3L27.1,19.3z"
	/>
</svg>
