<?xml version="1.0" encoding="utf-8"?>
<!-- Generator: Adobe Illustrator 23.1.0, SVG Export Plug-In . SVG Version: 6.00 Build 0)  -->
<svg version="1.1" id="icons" xmlns="http://www.w3.org/2000/svg" xmlns:xlink="http://www.w3.org/1999/xlink" x="0px" y="0px"
	 viewBox="0 0 47 47" style="enable-background:new 0 0 47 47;" xml:space="preserve">
<style type="text/css">
	.st0{fill:#334A61;}
</style>
<title>ElderCare</title>
<path class="st0" d="M17.7,2.9c0-1.1-0.9-2-2-2c-1.1,0-2,0.9-2,2C14.9,2.2,16.5,2.2,17.7,2.9z"/>
<circle class="st0" cx="15.7" cy="6.8" r="4.1"/>
<path class="st0" d="M15.5,34.5c-1.3,0-2.5-0.1-3.8-0.3v9.7c0,1,0.8,1.9,1.9,1.9c1,0,1.9-0.8,1.9-1.9c0,0,0,0,0,0L15.5,34.5z"/>
<path class="st0" d="M16,43.8c0,1,0.8,1.9,1.9,1.9c1,0,1.9-0.8,1.9-1.9c0,0,0,0,0,0v-9.7c-1.2,0.2-2.5,0.3-3.8,0.3V43.8z"/>
<path class="st0" d="M15.7,33.9c5.3,0,8.2-1.7,8.2-1.7l-1.3-6.4c-0.1,0.7-0.3,1.5-0.4,2.4c-0.1,0.7-0.8,1.3-1.5,1.3h-0.2
	c-0.8-0.1-1.4-0.9-1.3-1.7c0.2-1.1,0.3-2,0.5-3c-3.2-0.6-6.3-1.7-9.2-3.3c-0.2-0.1-0.5-0.3-0.7-0.4L7.5,32.3
	C7.5,32.3,10.4,33.9,15.7,33.9z"/>
<path class="st0" d="M20.5,29.1h0.2c0.5,0,1-0.4,1.1-1c0.2-1.1,0.3-2.1,0.5-3c-0.2,0-0.3,0.1-0.5,0.1c-0.1,0-0.2,0-0.3,0L20,24.9
	c-0.2,0.9-0.3,1.9-0.5,2.9c-0.1,0.6,0.3,1.1,0.9,1.2C20.5,29.1,20.5,29.1,20.5,29.1z"/>
<path class="st0" d="M29.6,26.9c-1.6,0-3.2-0.4-4.7-1v0.1c-0.2,0.2-0.3,0.5-0.3,0.8c-0.1,0.7-0.3,2.2-0.5,4.1
	c-0.1,0.7-0.1,1.4-0.2,2.1C23.6,37,23.2,42,23.1,44c-0.1,1,0.7,1.8,1.7,1.9c0,0,0,0,0,0h0.1c1,0,1.7-0.8,1.8-1.7
	c0.1-2.3,0.7-9.2,1.1-13.5h3.7c0.4,4.3,1,11.2,1.1,13.5c0,0.9,0.8,1.7,1.8,1.7h0.1c1-0.1,1.8-0.9,1.7-1.9
	c-0.2-3.3-1.1-14.7-1.5-17.3c0-0.3-0.2-0.6-0.3-0.8v-0.1C32.8,26.5,31.2,26.9,29.6,26.9z"/>
<path class="st0" d="M29.6,16.4c-1.3-0.1-2.4-0.8-3-1.9c-0.5-0.2-1-0.2-1.5-0.1c-1.9,0.4-3.3,2.8-4.4,7.2l1.4,0.3
	c0.3,0.1,0.5,0.2,0.7,0.4c1-3.9,1.9-5.1,2.4-5.5c0,0.2,0,0.4,0,0.6c-0.2,2.7-0.3,6.5-0.3,7.8c2.9,1.5,6.4,1.5,9.4,0
	c0-1.4-0.1-5.7-0.4-8.4c0.7,0.6,2.2,2.7,3.4,10.8c-0.7,0.4-1.1,1.2-1.1,2c0,0.3,0.2,0.7,0.5,0.7c0.3,0,0.7-0.2,0.7-0.5
	c0-0.1,0-0.1,0-0.2c0-0.3,0.1-0.6,0.3-0.8c0.2,0.2,0.5,0.3,0.8,0.3h0.2c0.3,0,0.5-0.2,0.7-0.4c0.3,0.2,0.4,0.5,0.4,0.9v15.5
	c0,0.3,0.3,0.6,0.6,0.6c0.3,0,0.6-0.3,0.6-0.6v0V29.6c0-1-0.6-1.8-1.5-2.2c-1-6.6-2.3-10.5-4.1-12.2c0.6-0.2,1-0.9,0.8-1.5
	c-0.1-0.4-0.5-0.8-0.9-0.8c-0.7-0.2-1.3-0.3-1.9-0.4C33.1,14.4,31.5,16.4,29.6,16.4z"/>
<path class="st0" d="M29.6,16c2,0,3.6-2.4,3.6-4.4c0.1-2-1.4-3.6-3.4-3.8s-3.6,1.4-3.8,3.4c0,0.1,0,0.3,0,0.4
	C26,13.5,27.6,16,29.6,16z"/>
<path class="st0" d="M10.6,21.2c2.3,1.4,6,2.5,10.9,3.6h0.2c0.7,0,1.2-0.5,1.2-1.2c0-0.6-0.4-1.1-1-1.2C12.2,20.4,9.8,18,9.9,17l0,0
	c0-0.2,0.1-0.4,0.3-0.6c0.2-0.3,0.4-0.5,0.7-0.7l-0.4,1.8c0.6,0.9,3,2.5,9.8,4.1c0.2-0.9,0.5-1.8,0.9-2.7l-0.9-4.5l0.6-0.1
	c1.4-0.1,2.7-0.2,4.1-0.2H25c0.2-0.1,0.5-0.1,0.7-0.1c0.2,0,0.4,0,0.5,0c-0.4-0.7-0.6-1.5-0.7-2.4c-2-0.1-4,0-6,0.3h-0.3L16,13.8
	l0.9-2.1c-0.4,0-0.8-0.1-1.3-0.1c-0.4,0-0.9,0-1.3,0.1l0.9,2.1l-2.9-1.7c-0.5,0.2-1.1,0.4-1.6,0.6c-1.8,0.8-3.3,2.2-3.4,3.8
	c0,0.2,0,0.3,0,0.5C7.5,18.3,8.2,19.8,10.6,21.2z M19.4,17.3h-2.2v-0.7h2.2V17.3z"/>
</svg>
