<?xml version="1.0" encoding="utf-8"?>
<!-- Generator: Adobe Illustrator 23.1.0, SVG Export Plug-In . SVG Version: 6.00 Build 0)  -->
<svg version="1.1" id="Layer_1" xmlns="http://www.w3.org/2000/svg" xmlns:xlink="http://www.w3.org/1999/xlink" x="0px" y="0px"
	 viewBox="0 0 47 47" style="enable-background:new 0 0 47 47;" xml:space="preserve">
<style type="text/css">
	.st0{fill:#828282;}
	.st1{fill:url(#SVGID_1_);}
	.st2{fill:#8E8E8E;}
	.st3{fill:url(#SVGID_2_);}
	.st4{fill:#333333;}
	.st5{fill:#182326;}
	.st6{fill:url(#SVGID_3_);}
	.st7{fill:#27454C;}
	.st8{fill:#6D6D6D;}
	.st9{fill:url(#SVGID_4_);}
	.st10{fill:#4D4D4D;}
	.st11{fill:#2B3C42;}
	.st12{fill:#8B8B8B;}
	.st13{fill:url(#SVGID_5_);}
	.st14{opacity:0.5;fill:url(#SVGID_6_);enable-background:new    ;}
	.st15{fill:#1A2528;}
	.st16{opacity:0.4;fill:#182326;enable-background:new    ;}
	.st17{fill:url(#SVGID_7_);}
	.st18{fill:#5B5B5B;}
	.st19{opacity:0.5;fill:url(#SVGID_8_);enable-background:new    ;}
	.st20{opacity:0.2;fill:url(#SVGID_9_);enable-background:new    ;}
	.st21{opacity:0.4;fill:#A7A7A7;enable-background:new    ;}
	.st22{fill:#2E2F30;}
	.st23{fill:#929596;}
	.st24{fill:#727272;}
	.st25{fill:#8C8C8C;}
	.st26{fill:#6B6A6B;}
</style>
<title>Elliptical</title>
<g>
	<g id="icons">
		<path class="st0" d="M13.4,33.4l-1,0.3c0,0-2.5-5-4.1-9.3c-0.4-1.1-0.8-2.2-1.1-3.1C6,17,6.5,15.1,7.6,13c0.3-0.8,0.6-1.5,0.8-2.3
			C8.5,10,8.6,9.4,8.5,8.7c0-0.4-0.1-0.9-0.2-1.3c0-0.1,0-0.2-0.1-0.3C7.6,5.5,6,1.3,6,1.3l0.8-0.2c0.3,0.9,1.7,4.1,2.2,5.7v0.1
			C9.1,7.5,9.3,8.2,9.4,9c0.1,1,0.1,1.8-0.1,2.8c-0.4,1.7-2.2,4.1-1.4,7.8c0.4,1.8,0.9,3.7,1.6,5.4L13.4,33.4z"/>
		
			<linearGradient id="SVGID_1_" gradientUnits="userSpaceOnUse" x1="11.4058" y1="529.0179" x2="14.3796" y2="529.0179" gradientTransform="matrix(1 0 0 1 -5.43 -524.9291)">
			<stop  offset="1.000000e-02" style="stop-color:#222122"/>
			<stop  offset="0.98" style="stop-color:#29282B"/>
		</linearGradient>
		<path class="st1" d="M8.9,6.8L8.9,6.8L8.2,7.1C7.6,5.5,6,1.3,6,1.3l0.4-0.1l0.2-0.1C7,1.9,8.4,5.2,8.8,6.8
			C8.9,6.8,8.9,6.8,8.9,6.8z"/>
		<path class="st2" d="M12.2,33.9L11.6,34h-0.8c-0.2-0.9-0.4-2.3-0.6-3.9c-0.5-3-0.9-6.1-1-9.1c0.2,0.1,0.5,0.1,0.8,0.1
			c0.2,0,0.3,0,0.5-0.1c0.1,0,0.2-0.1,0.4-0.1c0,1.6,0,3.4,0.2,5C11.4,29.9,12.2,33.9,12.2,33.9z"/>
		
			<linearGradient id="SVGID_2_" gradientUnits="userSpaceOnUse" x1="15.2761" y1="570.4084" x2="20.0233" y2="566.0181" gradientTransform="matrix(1 0 0 1 -5.43 -524.9291)">
			<stop  offset="0" style="stop-color:#747777"/>
			<stop  offset="0.98" style="stop-color:#929596"/>
		</linearGradient>
		<path class="st3" d="M11.6,45.3c0.2-0.2,0.2-0.4,0.2-0.6c0-0.2-0.1-0.4-0.2-0.6c-0.2-0.2-0.5-0.4-0.9-0.4c-0.2,0-0.4,0-0.5,0.1
			l0,0l2.3-1.6l0.2-0.1l1,1.4L11.6,45.3z"/>
		<path class="st0" d="M41,43l-0.3,2.5l-1.8-0.3l-0.5-0.1l0.9-2.4c0.2,0,0.3-0.1,0.5-0.1C40.2,42.6,40.6,42.7,41,43z"/>
		<path class="st4" d="M38.2,41.6l0.1,0.3l0.5,1.5l-0.1,0.3L38.7,44c0,0-9.1,0.2-12.7,0.2h-1.7c-3.6,0-9.1-0.3-10.8-0.3h-0.3H13
			l-0.1-0.3c-0.3-1.2-0.5-2.4-0.6-3.7v-0.2c0-0.2,0-0.5,0-0.8l2.9-1.7c1.2-0.8,2.4-1.5,3.6-2.2l0.6-0.3c3.8-1.8,7.8-2.9,11.9-3.2
			h0.4c4.2-1.1,8.8,0.6,8.8,5.4S38.2,41.6,38.2,41.6z"/>
		<path class="st5" d="M40.5,38.6c-0.5,2.6-2.2,3.2-2.2,3.2c-3,1.6-7.9,2.1-9.8-1.9c-0.2-0.5-0.4-1.1-0.5-1.6
			c-0.5-2.7,0.8-5.5,3.2-6.8c4.9-2.2,9.4,0.6,9.4,5.4C40.7,37.4,40.6,38,40.5,38.6z"/>
		
			<linearGradient id="SVGID_3_" gradientUnits="userSpaceOnUse" x1="34.9474" y1="561.7837" x2="44.6474" y2="561.7837" gradientTransform="matrix(1 0 0 1 -5.43 -524.9291)">
			<stop  offset="1.000000e-02" style="stop-color:#17707F"/>
			<stop  offset="0.98" style="stop-color:#278690"/>
		</linearGradient>
		<path class="st6" d="M34.3,41.7c-2.7,0-4.9-2.2-4.9-4.9c0-2.7,2.2-4.9,4.9-4.9s4.9,2.2,4.9,4.9l0,0C39.2,39.6,37,41.7,34.3,41.7z
			 M34.3,32.3c-2.5,0-4.5,2.1-4.5,4.5s2.1,4.5,4.5,4.5c2.5,0,4.5-2.1,4.5-4.5C39,34.3,36.9,32.3,34.3,32.3L34.3,32.3z"/>
		<path class="st7" d="M35.7,34.8c-2.6,0.4-5.2,1-7.8,1.8c-4.1,1.3-13,3.8-13.9,3.8c-0.6-0.1-1.2-0.2-1.7-0.5v-0.2
			c0-0.2,0-0.5,0-0.8l2.9-1.7c1.3-0.9,2.7-1.7,4.2-2.4c-1.3,1.3-2.1,2.8,1,2.1c4.2-0.9,13.9-2.9,13.9-2.9L35.7,34.8z"/>
		<path class="st8" d="M32.4,34.4l-4.3,1l-6.4,1.4l-8.1,1.8l-0.2-0.4l-0.2-0.5c0.1,0,3.6-0.9,7.5-1.7l6.7-1.6l4.6-1.1l0,0h0.2
			L32.4,34.4z"/>
		
			<linearGradient id="SVGID_4_" gradientUnits="userSpaceOnUse" x1="14.3154" y1="540.9614" x2="16.251" y2="540.9614" gradientTransform="matrix(1 0 0 1 -5.43 -524.9291)">
			<stop  offset="1.000000e-02" style="stop-color:#222122"/>
			<stop  offset="0.98" style="stop-color:#29282B"/>
		</linearGradient>
		<path class="st9" d="M10.9,21c-0.5,0.5-1.7,0.2-1.7,0.2c-0.3-2.9-0.3-5.7-0.1-8.7c0.1-0.9,0.1-1.5,0.2-1.7l1.4,0.3
			c0,0.4,0,1.3,0,2.3C10.8,16.5,10.9,21,10.9,21z"/>
		<path class="st10" d="M32.4,34.4l-4.3,1l-6.4,1.4l-8.1,1.8l-0.2-0.4V38L32,33.2l0,0h0.2L32.4,34.4z"/>
		<path class="st11" d="M15.1,37.1L15.1,37.1l-2.5,0.5l-0.8,0.2c-0.5-1.2-0.9-2.5-1.1-3.8l0.8-0.1l0.6-0.1l1.2-0.4
			C13.8,34.7,14.3,35.9,15.1,37.1L15.1,37.1z"/>
		<path class="st12" d="M24.6,4.5c0.1,1.9-0.1,3.8-0.5,5.7c-0.1,0.3-0.2,0.5-0.3,0.8c-0.4,1.3-1.6,2.2-2.9,2.3
			c-1.7,0.2-4.4,0.6-5.7,2.4c-0.9,1.2-1.6,4.1-2.3,8.7c-0.6,4.5,0.8,13.1,0.8,13.1l-0.2,0.1l-0.6,0.1c-0.5-3.6-0.9-7.1-1-10.7
			c0.1-5.6,1.2-9.4,2.2-11.2c1.5-2.9,5.8-2.9,7-3.2c0.9-0.2,1.5-0.8,1.9-1.5c0.1-0.2,0.2-0.4,0.3-0.8c0.2-0.6,0.2-0.4,1.1-5.7
			L24.6,4.5L24.6,4.5z"/>
		
			<linearGradient id="SVGID_5_" gradientUnits="userSpaceOnUse" x1="28.2861" y1="532.6406" x2="30.1032" y2="532.6406" gradientTransform="matrix(1 0 0 1 -5.43 -524.9291)">
			<stop  offset="1.000000e-02" style="stop-color:#222122"/>
			<stop  offset="0.98" style="stop-color:#29282B"/>
		</linearGradient>
		<path class="st13" d="M24.7,4.6c0,1.9-0.2,3.8-0.6,5.6c-0.1,0.3-0.2,0.5-0.3,0.8c-0.3,0-0.6-0.1-1-0.1c0.1-0.2,0.2-0.4,0.3-0.8
			c0.2-0.6,0.1-0.4,1-5.7L24.7,4.6z"/>
		
			<linearGradient id="SVGID_6_" gradientUnits="userSpaceOnUse" x1="17.7102" y1="545.9415" x2="30.1136" y2="545.9415" gradientTransform="matrix(1 0 0 1 -5.43 -524.9291)">
			<stop  offset="1.000000e-02" style="stop-color:#666666"/>
			<stop  offset="0.98" style="stop-color:#929596"/>
		</linearGradient>
		<path class="st14" d="M24.7,4.6c0,1.9-0.2,3.8-0.6,5.6c-0.1,0.3-0.2,0.5-0.3,0.8c-0.4,1.3-1.6,2.2-2.9,2.3
			c-1.7,0.2-4.4,0.6-5.7,2.4c-0.9,1.2-1.6,4.1-2.3,8.7c-0.6,4.5,0.8,13.1,0.8,13.1l-0.2,0.1c-0.6-3.6-1.1-7.2-1.1-10.9
			c0-3.8,1-8.9,2.1-10.6s1.9-2.3,5-2.9c3-0.6,3.1-0.8,3.7-1.5c1.1-2.2,1.6-4.6,1.5-7L24.7,4.6z"/>
		<path class="st15" d="M40.7,45.3c0,0.1,0,0.2-0.1,0.3c-0.2,0.4-0.6,0.6-1.1,0.6c-0.5,0.1-1.1-0.3-1.2-1l0,0c0-0.1,0-0.1,0-0.2
			c0.2-0.4,0.6-0.8,1.2-0.8C40.2,44.2,40.7,44.6,40.7,45.3L40.7,45.3z"/>
		<path class="st15" d="M39.1,42.7v-0.3c0.3-0.1,0.8-0.2,1.1-0.1c0.3,0.1,0.5,0.2,0.8,0.4V43C40.5,42.7,39.7,42.5,39.1,42.7z"/>
		<path class="st11" d="M11.8,44.6c0,0.2-0.1,0.5-0.2,0.6c-0.1,0.1-0.2,0.1-0.3,0.2c-0.2,0.1-0.3,0.1-0.5,0.1c-0.5,0-1.1-0.4-1.1-1
			c0-0.3,0.2-0.6,0.4-0.9h0.1c0.2-0.1,0.3-0.1,0.5-0.1C11.3,43.7,11.8,44.1,11.8,44.6z"/>
		<path class="st5" d="M14.8,38.4l-1.6,0.3L11.7,39l0.1-1.9l0.9-0.3l0.9-0.3l0.5,0.9C14,37.8,14.3,38.3,14.8,38.4z"/>
		<path class="st16" d="M14.8,38.4l-1.6,0.3c-0.3-0.5-0.5-1.3-0.4-1.9l0.9-0.3l0.5,0.9C14,37.8,14.2,38.3,14.8,38.4z"/>
		
			<linearGradient id="SVGID_7_" gradientUnits="userSpaceOnUse" x1="-405.8121" y1="848.9094" x2="-406.396" y2="846.8331" gradientTransform="matrix(0.9137 -0.4064 0.4064 0.9137 32.8824 -938.6908)">
			<stop  offset="1.000000e-02" style="stop-color:#222122"/>
			<stop  offset="0.98" style="stop-color:#29282B"/>
		</linearGradient>
		<path class="st17" d="M6.4,1.4c-0.1,0-0.2,0-0.3,0C5.9,1.4,5.7,1.2,5.7,1s0.2-0.4,0.4-0.4l0,0c0.1-0.1,0.3-0.1,0.4,0
			c0.2,0,0.4,0.2,0.3,0.5C6.9,1.3,6.7,1.4,6.4,1.4z"/>
		<path class="st18" d="M36.6,36.7L36.6,36.7c0,1.3-1.1,2.4-2.4,2.4s-2.4-1.1-2.4-2.4l0,0c0-0.2,0-0.4,0.1-0.6
			c0.3-1.3,1.7-2.1,3-1.6C35.9,34.7,36.6,35.7,36.6,36.7L36.6,36.7z"/>
		<path class="st5" d="M13.5,43.8l-0.5,0.4c0-0.4-0.1-0.8-0.3-1.1c-0.2-0.2-0.4-0.4-0.6-0.5c0.2-0.2,0.4-0.4,0.6-0.5
			c0,0.1,0.1,0.2,0.2,0.4C13,43,13.5,43.8,13.5,43.8z"/>
		<path class="st16" d="M13.5,43.8l-0.5,0.4c0-0.4-0.1-0.8-0.3-1.1c0.1-0.2,0.2-0.4,0.2-0.6C13,43,13.5,43.8,13.5,43.8z"/>
		
			<linearGradient id="SVGID_8_" gradientUnits="userSpaceOnUse" x1="47.8111" y1="566.8659" x2="26.2051" y2="569.2017" gradientTransform="matrix(1 0 0 1 -5.43 -524.9291)">
			<stop  offset="1.000000e-02" style="stop-color:#2B3C42"/>
			<stop  offset="0.98" style="stop-color:#182326"/>
		</linearGradient>
		<path class="st19" d="M38.9,43.7l-0.1,0.2c0,0-9.1,0.2-12.7,0.2c-3,0-10.5-0.3-12.5-0.3H13l0,0l0.1-0.2c1.8-0.3,9.8-0.6,13.9-0.8
			C31.1,42.9,35,43.2,38.9,43.7z"/>
		
			<linearGradient id="SVGID_9_" gradientUnits="userSpaceOnUse" x1="47.8028" y1="564.3581" x2="37.3674" y2="565.4719" gradientTransform="matrix(1 0 0 1 -5.43 -524.9291)">
			<stop  offset="1.000000e-02" style="stop-color:#2B3C42"/>
			<stop  offset="0.98" style="stop-color:#182326"/>
		</linearGradient>
		<path class="st20" d="M40.5,38.6c-0.5,2.6-2.2,3.2-2.2,3.2c-3,1.6-7.9,2.1-9.8-1.9c-0.2-0.5-0.4-1.1-0.5-1.6
			c1.7,2.1,4.3,3.2,7,3.2c3.1-0.1,3.4-2.7,3.4-2.7C39.2,39,39.9,38.9,40.5,38.6z"/>
		<path class="st21" d="M37.9,34.6l-0.2,0.2c0.4,0.6,0.8,1.5,0.6,2.3h0.3C38.9,36.1,38.6,35.2,37.9,34.6z"/>
		<path class="st22" d="M10.1,11.7l-0.9-0.1c0,0-2.8-5.3-2.9-5.5h0.2l0.6,0.1l0,0L10.1,11.7z"/>
		<path class="st23" d="M11.3,10.8c0,0.1-1.1,0.9-1.1,0.9L7.3,6.1l1.3-0.3l0,0l1.8,3.4C10.9,10,11.2,10.7,11.3,10.8z"/>
		<polygon class="st24" points="7.3,6.1 8.5,5.8 7.3,5.8 6.4,6 		"/>
		<path class="st16" d="M8.9,9.4l1.2,2.3l-0.9-0.1L8.1,9.3C8.4,9.3,8.7,9.4,8.9,9.4z"/>
		<path class="st25" d="M11.3,10.8c0,0.1-1.1,0.9-1.1,0.9L9,9.4c0.4,0,1-0.1,1.4-0.2C10.9,10,11.2,10.7,11.3,10.8z"/>
		<polygon class="st26" points="7.8,6.6 9.1,9.2 10,9 8.6,6.5 		"/>
	</g>
</g>
</svg>
