<?xml version="1.0" encoding="utf-8"?>
<!-- Generator: Adobe Illustrator 23.1.0, SVG Export Plug-In . SVG Version: 6.00 Build 0)  -->
<svg version="1.1" id="icons" xmlns="http://www.w3.org/2000/svg" xmlns:xlink="http://www.w3.org/1999/xlink" x="0px" y="0px"
	 viewBox="0 0 47 47" style="enable-background:new 0 0 47 47;" xml:space="preserve">
<style type="text/css">
	.st0{fill:#853F27;}
	.st1{fill:#575757;}
	.st2{fill:#242424;}
</style>
<title>FarmWork</title>
<rect x="18.7" y="14.1" transform="matrix(0.7611 -0.6487 0.6487 0.7611 -10.6393 18.4705)" class="st0" width="2" height="19.1"/>
<path class="st1" d="M36.3,42.7l-0.6,0.5c-2.4,2-5.9,1.7-7.9-0.6l-4.3-5.1l9-7.7l4.4,5.1C38.9,37.2,38.6,40.7,36.3,42.7
	C36.3,42.7,36.3,42.7,36.3,42.7z"/>
<path class="st2" d="M32.6,38.8L32.6,38.8c-0.5,0.5-1.3,0.4-1.8-0.1c0,0,0,0,0,0l-3.7-4.3l2-1.7l3.6,4.3
	C33.2,37.5,33.2,38.3,32.6,38.8z"/>
<rect x="25.6" y="30.2" transform="matrix(0.7611 -0.6487 0.6487 0.7611 -14.3668 25.1169)" class="st1" width="2.6" height="3.8"/>
<rect x="11.9" y="14.7" transform="matrix(0.7611 -0.6487 0.6487 0.7611 -7.154 12.2695)" class="st1" width="2.4" height="2.2"/>
<path class="st2" d="M26.6,31.2c0.1,0.1,0.1,0.4,0,0.5c-0.1,0.1-0.4,0.1-0.5,0s-0.1-0.4,0-0.5l0,0C26.3,31.1,26.5,31.1,26.6,31.2z"
	/>
<path class="st2" d="M27.7,32.5c0.1,0.1,0.1,0.4,0,0.5c-0.1,0.1-0.4,0.1-0.5,0c-0.1-0.1-0.1-0.4,0-0.5
	C27.4,32.4,27.6,32.4,27.7,32.5z"/>
<path class="st2" d="M4.3,13.5l1.7,2c0.2,0.2,0.4,0.3,0.6,0.3h4.8l1.8-1.6L14,9.4c0-0.2,0-0.5-0.2-0.7l-1.6-2
	c-0.3-0.4-0.8-0.4-1.1-0.1c0,0,0,0-0.1,0l-6.6,5.6C4,12.6,4,13.1,4.3,13.5z M12.6,10.4l-0.5,2.9l-1.3,1.1h-3c-0.2,0-0.5-0.1-0.6-0.3
	l-1-1.1c-0.3-0.3-0.3-0.8,0-1.2c0,0,0,0,0.1,0l4-3.4c0.3-0.3,0.9-0.3,1.2,0.1c0,0,0,0,0,0l0.9,1.1C12.6,9.9,12.7,10.2,12.6,10.4
	L12.6,10.4z"/>
<polygon class="st1" points="28,15.4 27.2,14.8 36.1,2.8 "/>
<polygon class="st1" points="30.2,16.8 29.4,16.3 38.3,4.2 "/>
<rect x="4.5" y="29.5" transform="matrix(0.5677 -0.8232 0.8232 0.5677 -17.0186 28.5029)" class="st0" width="28.2" height="2"/>
<path class="st1" d="M29.9,17.6l-3.1-2.1c-2.1-1.4-2.6-4.2-1.2-6.3L31.8,1l-5.4,8.7c-1.1,1.6-0.7,3.8,0.9,4.9l3.1,2.2
	c1.6,1.1,3.8,0.7,4.9-0.9l6.2-8.2l-5.4,8.7C34.8,18.5,32,19,29.9,17.6C29.9,17.6,29.9,17.6,29.9,17.6z"/>
<rect x="25.6" y="16.3" transform="matrix(0.5677 -0.8232 0.8232 0.5677 -2.6427 30.2214)" class="st1" width="3.8" height="2.6"/>
<path class="st2" d="M26.7,18.1c0.1-0.2,0.3-0.2,0.5-0.1c0.2,0.1,0.2,0.3,0.1,0.5c-0.1,0.2-0.3,0.2-0.5,0.1
	C26.6,18.5,26.6,18.3,26.7,18.1z"/>
<path class="st2" d="M27.6,16.7c0.1-0.2,0.3-0.2,0.5-0.1c0.2,0.1,0.2,0.3,0.1,0.5c-0.1,0.2-0.3,0.2-0.5,0.1
	C27.6,17.1,27.5,16.9,27.6,16.7z"/>
</svg>
