<?xml version="1.0" encoding="utf-8"?>
<!-- Generator: Adobe Illustrator 23.1.0, SVG Export Plug-In . SVG Version: 6.00 Build 0)  -->
<svg version="1.1" id="icons" xmlns="http://www.w3.org/2000/svg" xmlns:xlink="http://www.w3.org/1999/xlink" x="0px" y="0px"
	 viewBox="0 0 47 47" style="enable-background:new 0 0 47 47;" xml:space="preserve">
<style type="text/css">
	.st0{fill:#334A61;}
</style>
<title>Fencing</title>
<path id="Fencing" class="st0" d="M42.6,42.2c-0.9,0.9-2.3,0.9-3.1,0l-4.1-4.1L33.6,40c-0.4,0.4-1.1,0.4-1.5,0c0,0,0,0,0,0
	c-1.7-2-1.7-4.9,0-6.8l-8.4-8.4l-8.5,8.5c0.6,0.9,1.1,1.9,1.2,3c0.2,1.4-0.3,2.8-1.2,3.8c-0.4,0.4-1.1,0.4-1.5,0c0,0,0,0,0,0
	l-1.9-1.8l-4.1,4.1c-0.9,0.9-2.3,0.9-3.1,0c-0.9-0.9-0.9-2.3,0-3.1l4.1-4.1l-1.8-1.8c-0.4-0.4-0.4-1.1,0-1.5c0,0,0,0,0,0
	c0.9-0.8,2-1.3,3.2-1.3c1.3,0,2.6,0.5,3.7,1.3l8.4-8.5L4.8,6c-0.4-0.4-0.5-1.1,0-1.6C5.2,4,5.9,4,6.3,4.4l0,0l17.3,17.3L40.8,4.4
	C41.3,4,42,4,42.4,4.5c0.4,0.4,0.4,1.1,0,1.6l0,0L25.1,23.2l8.4,8.4c1-0.8,2.3-1.2,3.6-1.2c1.2,0,2.4,0.4,3.2,1.3
	c0.4,0.4,0.4,1.1,0,1.5c0,0,0,0,0,0l-1.8,1.8l4.1,4.1C43.4,40,43.4,41.4,42.6,42.2z"/>
</svg>
