<?xml version="1.0" encoding="utf-8"?>
<!-- Generator: Adobe Illustrator 23.1.0, SVG Export Plug-In . SVG Version: 6.00 Build 0)  -->
<svg version="1.1" id="icons" xmlns="http://www.w3.org/2000/svg" xmlns:xlink="http://www.w3.org/1999/xlink" x="0px" y="0px"
	 viewBox="0 0 47 47" style="enable-background:new 0 0 47 47;" xml:space="preserve">
<style type="text/css">
	.st0{fill-rule:evenodd;clip-rule:evenodd;fill:#F62C00;}
	.st1{fill-rule:evenodd;clip-rule:evenodd;fill:#305694;}
	.st2{fill-rule:evenodd;clip-rule:evenodd;fill:#1D335D;}
	.st3{fill-rule:evenodd;clip-rule:evenodd;fill:#EF7600;}
</style>
<title>FieldHockey</title>
<path class="st0" d="M6.6,28.1c1.5-1,3.5-0.5,4.4,1s0.5,3.5-1,4.4s-3.5,0.5-4.4-1c0,0,0,0,0,0C4.6,31,5.1,29.1,6.6,28.1
	C6.6,28.1,6.6,28.1,6.6,28.1z"/>
<path class="st1" d="M43.4,2c0.1-0.2,0-0.6-0.4-0.9c-0.4-0.3-0.8-0.4-1-0.2l-0.3,0.4l1.4,1.1C43.1,2.3,43.4,2,43.4,2z"/>
<path class="st2" d="M41.7,1.3c-0.1,0.2,0,0.6,0.4,0.9s0.8,0.4,1,0.2c0.2-0.2,0-0.6-0.4-0.9S41.9,1.1,41.7,1.3z"/>
<path class="st3" d="M42,1.9l0.5,0.4L19.5,33.1c-1.5,2-3,4-4.6,6c-0.9,1.2-1.8,2.4-2.8,3.4c-0.4,0.4-0.8,0.9-1.2,1.3
	c-0.3,0.3-0.6,0.6-0.9,0.9c-0.6,0.5-1.4,0.9-2.2,1C6.9,45.9,6,45.6,5.3,45C4.7,44.5,4.2,43.8,4,43c-0.2-1,0.1-2,0.7-2.8
	c0.4-0.5,0.9-1.1,1.6-0.8c0.5,0.2,0.8,0.7,0.9,1.2c0,0.3,0,0.6-0.2,0.9c-0.2,0.3-0.2,0.6-0.2,0.9c0,0.1,0.1,0.2,0.2,0.3
	c0.8,0.6,1.4,0.2,2-0.5L42,1.9z"/>
<path class="st1" d="M29.9,19.7L42.8,2.4c0.3-0.4-0.8-1.2-1.1-0.8L28.1,18.3l0,0c-0.4,0.5-0.3,1.2,0.2,1.6
	C28.8,20.2,29.5,20.2,29.9,19.7z"/>
<path class="st2" d="M42.3,3.2l0.3-0.3c-0.1-0.2-0.3-0.4-0.5-0.6c-0.2-0.1-0.4-0.2-0.6-0.3l-0.3,0.4c0.2,0,0.4,0.1,0.6,0.2
	C42,2.8,42.2,3,42.3,3.2z M40.5,5.6l0.3-0.3c-0.2-0.2-0.4-0.5-0.6-0.6c-0.2-0.1-0.4-0.2-0.6-0.3l-0.3,0.3c0.2,0,0.4,0.1,0.6,0.3
	C40.1,5.1,40.3,5.3,40.5,5.6z M41.4,4.3L41.6,4c-0.2-0.3-0.4-0.5-0.6-0.7c-0.1-0.1-0.3-0.2-0.5-0.2l-0.3,0.3c0.2,0,0.3,0.1,0.5,0.2
	c0.2,0.2,0.4,0.4,0.6,0.7L41.4,4.3L41.4,4.3z M39.4,7l0.3-0.4c-0.2-0.2-0.4-0.5-0.6-0.6c-0.2-0.2-0.4-0.3-0.6-0.4L38.2,6
	c0.3,0,0.5,0.1,0.7,0.3C39.1,6.4,39.3,6.7,39.4,7L39.4,7z M38.2,8.5l0.3-0.4c-0.2-0.3-0.4-0.5-0.6-0.7c-0.2-0.2-0.4-0.3-0.7-0.4
	l-0.3,0.4c0.3,0,0.5,0.2,0.7,0.3C37.9,8,38.1,8.3,38.2,8.5z M37.1,10.1l0.2-0.3c-0.2-0.3-0.4-0.5-0.7-0.7c-0.2-0.2-0.4-0.3-0.7-0.4
	L35.7,9c0.3,0.1,0.5,0.2,0.7,0.3C36.7,9.5,36.9,9.8,37.1,10.1z M35.7,12l0.3-0.4c-0.2-0.3-0.4-0.6-0.7-0.8c-0.2-0.2-0.5-0.3-0.7-0.4
	l-0.3,0.4c0.3,0,0.6,0.2,0.8,0.4C35.3,11.4,35.5,11.6,35.7,12z M34.3,13.9l0.3-0.4c-0.2-0.3-0.5-0.6-0.8-0.8
	c-0.2-0.2-0.5-0.3-0.8-0.4l-0.3,0.4c0.3,0,0.6,0.2,0.8,0.4C33.9,13.2,34.2,13.5,34.3,13.9z M33.2,15.4l0.3-0.4
	c-0.2-0.3-0.5-0.6-0.8-0.8c-0.2-0.2-0.5-0.3-0.8-0.4l-0.3,0.3c0.3,0.1,0.6,0.2,0.9,0.4C32.7,14.7,33,15,33.2,15.4z M32,17l0.3-0.3
	c-0.2-0.3-0.5-0.6-0.8-0.9c-0.3-0.2-0.5-0.4-0.8-0.4l-0.3,0.3c0.3,0.1,0.6,0.2,0.9,0.4C31.5,16.3,31.8,16.6,32,17z M30.9,18.4
	l0.3-0.4c-0.2-0.4-0.5-0.7-0.8-0.9c-0.3-0.2-0.6-0.4-0.9-0.5L29.2,17c0.3,0.1,0.7,0.2,0.9,0.4C30.4,17.7,30.7,18,30.9,18.4z
	 M30,19.7l0.3-0.3c-0.2-0.4-0.5-0.7-0.9-1c-0.3-0.2-0.6-0.4-0.9-0.5l-0.3,0.3c0.4,0.1,0.7,0.2,1,0.4C29.5,19,29.7,19.3,30,19.7z"/>
</svg>
