<?xml version="1.0" encoding="utf-8"?>
<!-- Generator: Adobe Illustrator 23.1.0, SVG Export Plug-In . SVG Version: 6.00 Build 0)  -->
<svg version="1.1" id="icons" xmlns="http://www.w3.org/2000/svg" xmlns:xlink="http://www.w3.org/1999/xlink" x="0px" y="0px"
	 viewBox="0 0 47 47" style="enable-background:new 0 0 47 47;" xml:space="preserve">
<style type="text/css">
	.st0{fill:#999999;}
	.st1{fill:#DDE8C3;}
	.st2{fill:#687D54;}
</style>
<title>Fishing</title>
<path class="st0" d="M21,19.7c4.2-0.7,8.5-1,12.8-0.5c0,0-0.1-4.9-4.2-5.4C23.8,13,21,19.7,21,19.7z"/>
<path class="st0" d="M10.9,24.3l10-3.6c0,0-0.5-2.8-4.7-1.5c-4.2,1.4-5.6,2.1-5.7,2.8C10.5,22.8,10.7,23.5,10.9,24.3z"/>
<path class="st1" d="M41.1,26.3c2.8-0.9,5.6-1.9,4.1-3.2c-1.5-1.4-5.1-1.6-9.6-3.8s-10-2.2-16.4,0.2s-6.5,4.3-9.1,4.1
	c-2.6-0.2-3.7,0.5-3.8,1.9c-0.1,1.4,1,2.3,3.6,2.5c2.6,0,11.7,4.4,18.9,4.7c7.2,0.2,16.3-5.2,17.4-6.9L41.1,26.3z"/>
<path class="st0" d="M8.2,23.8l-3.1-1.4c0,0-3.5-2.1-3.8-1.5c-0.4,1.4-0.2,3,0.5,4.2c0.7,1.2-1.9,3.6-1.2,5.3
	c0.4,1.7,7.2-3.2,7.2-3.2L8.2,23.8z"/>
<path class="st0" d="M14.3,27.7c-2.2-0.1-4.8,0.9-3.7,2.3c1.1,1.5,4.7,0,4.9-0.9C15.7,28.3,14.3,27.7,14.3,27.7z"/>
<path class="st2" d="M30.2,17.7c-0.7,2.6-1,5.2-0.9,7.8c1.1-2.5,2.6-4.8,4.2-7C32.5,18.1,31.4,17.8,30.2,17.7z"/>
<path class="st2" d="M24.7,17.8c-0.4,2.8-0.4,5.7,0.1,8.5c1-3.1,2.3-6.1,4-8.8C27.5,17.6,26.1,17.7,24.7,17.8z"/>
<path class="st2" d="M20.3,25.7c0.9-2.6,2-5.2,3.3-7.5c-1.2,0.2-2.3,0.6-3.5,1C19.8,21.4,19.9,23.6,20.3,25.7z"/>
<path class="st2" d="M15.9,25.8c0.7-2.1,1.5-4.1,2.6-6.1c-1,0.4-1.9,0.7-2.7,1.2C15.5,22.6,15.7,24.2,15.9,25.8z"/>
<path class="st2" d="M11.9,26c0,0,0.6-1.9,1.5-3.7c-0.5,0.4-1.1,0.7-1.7,1C11.7,24.1,11.8,25,11.9,26z"/>
<path class="st2" d="M36.6,19.8l-1-0.5c-0.4-0.1-0.7-0.2-1-0.4c-0.6,1.6-1,3.5-1.1,5.2C34.4,22.5,35.5,21.2,36.6,19.8z"/>
<path class="st2" d="M42.4,23.9c0,0.4-0.4,0.7-0.9,0.6c-0.4,0-0.7-0.4-0.6-0.9c0-0.4,0.4-0.7,0.9-0.6C42.2,23,42.4,23.4,42.4,23.9
	L42.4,23.9z"/>
<path class="st0" d="M31.7,30.4c-2.6,1.2-4,3.7-3,5.3c1,1.6,2.2,1.7,3.2,0.4s2.1-5.4,0.6-5.6L31.7,30.4z"/>
</svg>
