<?xml version="1.0" encoding="utf-8"?>
<!-- Generator: Adobe Illustrator 23.1.0, SVG Export Plug-In . SVG Version: 6.00 Build 0)  -->
<svg version="1.1" id="icons" xmlns="http://www.w3.org/2000/svg" xmlns:xlink="http://www.w3.org/1999/xlink" x="0px" y="0px"
	 viewBox="0 0 47 47" style="enable-background:new 0 0 47 47;" xml:space="preserve">
<style type="text/css">
	.st0{fill:#FF9700;}
	.st1{fill:#FFFFFF;}
</style>
<title>FocusT25</title>
<g>
	<circle class="st0" cx="23.5" cy="23.5" r="21.9"/>
	<path class="st1" d="M3.8,19.7H7v1.2h-2V22h2v1.2h-2v2.9H3.8V19.7z"/>
	<path class="st1" d="M10.2,21.2c0.4,0,0.9,0.1,1.3,0.3c0.4,0.2,0.7,0.5,0.9,0.9c0.2,0.4,0.3,0.8,0.3,1.2c0,0.4-0.1,0.9-0.3,1.3
		c-0.2,0.4-0.5,0.7-0.9,0.9c-0.4,0.2-0.8,0.3-1.3,0.3c-0.7,0-1.3-0.3-1.8-0.7C8,25,7.7,24.4,7.8,23.7c0-0.7,0.3-1.4,0.8-1.9
		C9,21.5,9.6,21.2,10.2,21.2z M10.2,22.3c-0.4,0-0.7,0.1-0.9,0.4c-0.3,0.3-0.4,0.6-0.4,1c0,0.4,0.1,0.7,0.4,1
		c0.2,0.3,0.6,0.4,0.9,0.4c0.4,0,0.7-0.1,0.9-0.4c0.3-0.3,0.4-0.6,0.4-1c0-0.4-0.1-0.7-0.4-1C10.9,22.5,10.6,22.3,10.2,22.3
		L10.2,22.3z"/>
	<path class="st1" d="M18.5,22.3l-1,0.6c-0.2-0.2-0.3-0.3-0.6-0.4c-0.2-0.1-0.4-0.1-0.6-0.1c-0.4,0-0.8,0.1-1.1,0.4
		c-0.3,0.3-0.4,0.6-0.4,1c0,0.4,0.1,0.7,0.4,1c0.3,0.3,0.7,0.4,1.1,0.4c0.5,0,0.9-0.2,1.2-0.5l0.9,0.6c-0.5,0.7-1.3,1.1-2.2,1
		c-0.7,0-1.5-0.2-2-0.8c-0.5-0.5-0.7-1.1-0.7-1.7c0-0.9,0.5-1.8,1.3-2.2c0.4-0.2,0.9-0.4,1.4-0.4c0.4,0,0.9,0.1,1.3,0.3
		C17.9,21.7,18.2,22,18.5,22.3z"/>
	<path class="st1" d="M19.5,21.3h1.2v2.2c0,0.3,0,0.6,0.1,0.9c0.1,0.2,0.2,0.3,0.3,0.4c0.1,0.1,0.3,0.1,0.5,0.1c0.2,0,0.4,0,0.5-0.1
		c0.1-0.1,0.2-0.2,0.3-0.4c0.1-0.3,0.1-0.6,0.1-0.9v-2.3h1.2v2c0,0.6,0,1.2-0.2,1.7c-0.1,0.4-0.4,0.7-0.7,0.9
		c-0.4,0.2-0.8,0.3-1.2,0.3c-0.4,0-0.9-0.1-1.3-0.4c-0.3-0.2-0.6-0.6-0.7-1c-0.1-0.5-0.2-1.1-0.1-1.6L19.5,21.3z"/>
	<path class="st1" d="M27.8,22L27,22.8c-0.2-0.3-0.5-0.4-0.8-0.4c-0.1,0-0.2,0-0.3,0.1c-0.1,0-0.1,0.1-0.1,0.2c0,0.1,0,0.1,0.1,0.2
		c0.1,0.1,0.2,0.2,0.4,0.2l0.4,0.2c0.4,0.1,0.7,0.4,0.9,0.7c0.2,0.2,0.3,0.5,0.3,0.8c0,0.4-0.2,0.8-0.5,1.1
		c-0.3,0.3-0.8,0.4-1.2,0.4c-0.7,0-1.3-0.3-1.7-0.8l0.7-0.8c0.1,0.2,0.3,0.3,0.5,0.4c0.2,0.1,0.3,0.1,0.5,0.2c0.1,0,0.3,0,0.4-0.1
		c0.1-0.1,0.1-0.2,0.1-0.3c0-0.2-0.2-0.4-0.5-0.5L25.8,24c-0.8-0.4-1.1-0.9-1.1-1.5c0-0.4,0.2-0.7,0.4-1c0.3-0.3,0.7-0.4,1.1-0.4
		c0.3,0,0.6,0.1,0.9,0.2C27.4,21.6,27.6,21.8,27.8,22z"/>
	<path class="st1" d="M30.8,19.7h3.6v1.2h-1.2v5.2h-1.3v-5.2h-1.1V19.7z"/>
	<path class="st1" d="M36,21.8h-1.2c0-0.6,0.2-1.2,0.7-1.6c0.4-0.4,1-0.6,1.6-0.6c0.4,0,0.7,0.1,1,0.2c0.3,0.2,0.5,0.4,0.7,0.7
		c0.2,0.3,0.3,0.6,0.3,0.9c0,0.4-0.1,0.9-0.3,1.2c-0.3,0.6-0.7,1.1-1.2,1.5L36.8,25h2.2v1.1h-4.5v-0.6l2-2c0.4-0.4,0.7-0.7,1-1.2
		c0.1-0.2,0.2-0.5,0.2-0.8c0-0.2-0.1-0.5-0.2-0.6c-0.2-0.2-0.4-0.3-0.6-0.2c-0.2,0-0.5,0.1-0.7,0.3C36.1,21.2,36,21.5,36,21.8z"/>
	<path class="st1" d="M41,19.7h3v1.1h-2.1l-0.3,1.1h0.2h0.2c0.5,0,1.1,0.2,1.5,0.6c0.4,0.4,0.6,1,0.6,1.5c0,0.6-0.2,1.2-0.7,1.6
		c-0.4,0.4-1,0.7-1.6,0.6c-0.5,0-1-0.2-1.4-0.5c-0.4-0.3-0.7-0.8-0.8-1.3H41c0.1,0.2,0.2,0.3,0.4,0.5c0.2,0.1,0.3,0.2,0.5,0.2
		c0.3,0,0.5-0.1,0.7-0.3c0.2-0.2,0.3-0.5,0.3-0.8c0-0.3-0.1-0.5-0.3-0.7c-0.2-0.2-0.4-0.3-0.6-0.3c-0.1,0-0.3,0-0.4,0.1
		c-0.1,0.1-0.3,0.2-0.4,0.3l-1-0.2L41,19.7z"/>
</g>
</svg>
