<?xml version="1.0" encoding="utf-8"?>
<!-- Generator: Adobe Illustrator 23.1.0, SVG Export Plug-In . SVG Version: 6.00 Build 0)  -->
<svg version="1.1" id="Layer_1" xmlns="http://www.w3.org/2000/svg" xmlns:xlink="http://www.w3.org/1999/xlink" x="0px" y="0px"
	 viewBox="0 0 47 47" style="enable-background:new 0 0 47 47;" xml:space="preserve">
<style type="text/css">
	.st0{fill:#FF3700;}
	.st1{fill:#FF8242;}
	.st2{fill:#FFFFFF;}
	.st3{opacity:0.4;fill:#FF3700;enable-background:new    ;}
</style>
<title>Football</title>
<g>
	<g id="icons">
		<path class="st0" d="M13.6,9.8C-2.9,22.9,0.8,39.6,2.2,41.4c1.2,1.6,18.3,8.2,34.2-6.4c15-13.6,9.9-29.1,8.2-30.9
			C43.2,3,30.3-3.5,13.6,9.8z"/>
		<path class="st1" d="M13.6,9.8C-1.8,22,0.2,37.2,1.8,40.9c0.3-3.3,0.8-6.6,1.7-9.7c0.9-3.4,2.4-6.8,4.1-9.8c2.1-3.7,4.9-7,8.1-9.8
			c3.2-2.6,6.8-4.8,10.6-6.2c3-1.2,6.2-1.9,9.5-2c2.5-0.1,5.2-0.1,7.7,0.3C39.8,1.7,28.2-1.7,13.6,9.8z"/>
		<path class="st1" d="M35.9,4c-7.3,0.5-14.2,3.3-19.7,8.2C10.3,17.3,6.2,24,4.2,31.4c-0.9,3.3-1.5,6.6-1.7,9.9
			c4.1-0.4,8.1-1.1,12.2-2c6.4-1.6,15.2-4.6,20.4-10.7c4.1-4.8,7.2-10.3,8.6-16.6c0.7-2.5,0.9-5,0.9-7.7C41.7,4,38.8,3.7,35.9,4z"/>
		<path class="st1" d="M44.4,12.3c-1.5,6.2-4.5,11.9-8.7,16.8c-2.8,2.9-6.1,5.3-9.7,7c-3.6,1.7-7.3,3-11.1,4S7,41.7,3,42.1
			c3.6,2,18.9,6.4,33.4-6.9C49.7,23,47.3,9.5,45.3,5.4C45.1,7.8,44.9,10,44.4,12.3z"/>
		<path class="st0" d="M12.8,27.9c-0.3-0.3-0.7-0.3-0.9,0c-0.3,0.3-0.3,0.7,0,0.9l0,0l2.6,2.5c0.1,0.1,0.3,0.1,0.5,0.3
			c0.3,0,0.4,0,0.5-0.3c0.3-0.3,0.3-0.7,0-0.9L12.8,27.9z"/>
		<path class="st0" d="M15.3,25.1c-0.3-0.3-0.7-0.3-0.9,0l0,0c-0.3,0.3-0.3,0.7,0,0.9l2.8,2.5c0.1,0.1,0.3,0.1,0.5,0.1
			c0.1,0,0.4-0.1,0.5-0.3c0.3-0.3,0.3-0.7,0-0.9l0,0L15.3,25.1z"/>
		<path class="st0" d="M18.1,22.4c-0.3-0.3-0.8-0.1-0.9,0.1c-0.3,0.3-0.1,0.7,0,0.9l2.9,2.5c0.1,0.1,0.3,0.1,0.5,0.1
			c0.1,0,0.4-0.1,0.5-0.3c0.3-0.3,0.3-0.7,0-0.9L18.1,22.4z"/>
		<path class="st0" d="M20.9,20c-0.3-0.3-0.8-0.1-0.9,0.1c-0.3,0.3-0.1,0.7,0.1,0.9l2.9,2.5c0.1,0.1,0.3,0.1,0.4,0.1
			c0.3,0,0.4-0.1,0.5-0.3c0.3-0.3,0.3-0.7-0.1-0.9L20.9,20z"/>
		<path class="st0" d="M24,17.5c-0.3-0.3-0.8-0.1-0.9,0.3c-0.1,0.3-0.1,0.7,0.1,0.8l2.9,2.5c0.1,0.1,0.3,0.1,0.4,0.1
			c0.3,0,0.4-0.1,0.5-0.3c0.3-0.3,0.3-0.8-0.1-0.9L24,17.5z"/>
		<path class="st0" d="M26.9,14.9c-0.3-0.3-0.8-0.3-0.9,0.1l0,0c-0.3,0.3-0.1,0.8,0.1,0.9l3,2.4c0.1,0.1,0.3,0.1,0.4,0.1
			c0.4,0,0.7-0.3,0.7-0.7c0-0.3-0.1-0.4-0.3-0.5L26.9,14.9z"/>
		<path class="st0" d="M29.8,12.6c-0.3-0.3-0.8-0.1-0.9,0.1c-0.3,0.3-0.1,0.8,0.1,0.9l3,2.4c0.3,0.3,0.7,0.3,0.9-0.1l0,0
			c0.3-0.3,0.1-0.8-0.1-0.9L29.8,12.6z"/>
		<path class="st0" d="M33.1,10.3c-0.3-0.3-0.8-0.1-0.9,0.1c-0.3,0.3-0.1,0.8,0.1,0.9l0,0l3.2,2.4c0.1,0.1,0.3,0.1,0.4,0.1
			c0.4,0,0.7-0.3,0.7-0.7c0-0.3-0.1-0.4-0.3-0.5L33.1,10.3z"/>
		<path class="st2" d="M12.3,27.8c-0.3-0.3-0.7-0.3-0.9,0c-0.3,0.3-0.3,0.7,0,0.9l2.6,2.6c0.1,0.1,0.3,0.1,0.5,0.1
			c0.1,0,0.4-0.1,0.5-0.3c0.3-0.3,0.3-0.7,0-0.9L12.3,27.8z"/>
		<path class="st2" d="M14.8,25c-0.3-0.3-0.7-0.3-0.9,0c-0.3,0.3-0.3,0.7,0,0.9l0,0l2.8,2.5c0.1,0.1,0.3,0.1,0.5,0.1
			c0.1,0,0.4-0.1,0.5-0.3c0.3-0.3,0.3-0.7,0-0.9l0,0L14.8,25z"/>
		<path class="st2" d="M17.6,22.2c-0.3-0.3-0.7-0.3-0.9,0c-0.3,0.3-0.3,0.7,0,0.9c0,0,0,0,0.1,0.1l2.9,2.5c0.1,0.1,0.3,0.1,0.5,0.1
			c0.1,0,0.4-0.1,0.5-0.3c0.3-0.3,0.3-0.7,0-0.9L17.6,22.2z"/>
		<path class="st2" d="M20.2,19.8c-0.3-0.3-0.7-0.3-0.9,0.1c-0.3,0.3-0.3,0.7,0.1,0.9l2.9,2.5c0.1,0.1,0.3,0.1,0.4,0.1
			c0.4,0,0.7-0.3,0.7-0.7c0-0.3-0.1-0.4-0.3-0.5L20.2,19.8z"/>
		<path class="st2" d="M23.3,17.2c-0.3-0.3-0.7-0.3-0.9,0.1c-0.3,0.3-0.3,0.7,0,0.9l0,0l2.9,2.5c0.1,0.1,0.3,0.1,0.4,0.1
			c0.3,0,0.4-0.1,0.5-0.3c0.3-0.3,0.3-0.7-0.1-0.9l0,0L23.3,17.2z"/>
		<path class="st2" d="M26.2,14.8c-0.3-0.3-0.8-0.3-0.9,0.1l0,0c-0.3,0.3-0.1,0.8,0.1,0.9l3,2.4c0.1,0.1,0.3,0.1,0.4,0.1
			c0.4,0,0.7-0.3,0.7-0.7c0-0.3-0.1-0.4-0.3-0.5L26.2,14.8z"/>
		<path class="st2" d="M29.1,12.4c-0.3-0.3-0.7-0.1-0.9,0.1l0,0c-0.3,0.3-0.1,0.8,0.1,0.9l0,0l3,2.4c0.1,0.1,0.3,0.1,0.4,0.1
			c0.3,0,0.4-0.1,0.5-0.3c0.3-0.3,0.1-0.7-0.1-0.9l0,0L29.1,12.4z"/>
		<path class="st2" d="M32.4,10.2c-0.3-0.3-0.7-0.3-0.9,0c-0.3,0.3-0.3,0.7,0,0.9l0.1,0.1l3.2,2.4c0.3,0.3,0.8,0.1,0.9-0.1
			c0.3-0.3,0.1-0.7-0.1-0.9l0,0L32.4,10.2z"/>
		<path class="st3" d="M32.6,29.7C21.4,39.9,9.9,41.4,1.7,40.7c0.3,0.3,0.4,0.5,0.5,0.8c1.2,1.6,18.3,8.2,34.2-6.4
			c13.4-12.2,10.7-26,8.9-29.8C44.8,12.4,41.8,21.3,32.6,29.7z"/>
	</g>
</g>
</svg>
