<?xml version="1.0" encoding="utf-8"?>
<!-- Generator: Adobe Illustrator 23.1.0, SVG Export Plug-In . SVG Version: 6.00 Build 0)  -->
<svg version="1.1" id="icons" xmlns="http://www.w3.org/2000/svg" xmlns:xlink="http://www.w3.org/1999/xlink" x="0px" y="0px"
	 viewBox="0 0 47 47" style="enable-background:new 0 0 47 47;" xml:space="preserve">
<style type="text/css">
	.st0{fill:#FEDBBC;}
	.st1{fill:#F4BB91;}
	.st2{fill:#FF1D25;}
	.st3{fill:#F72B2B;}
	.st4{fill:#C1272D;}
	.st5{fill:#D0F4EF;}
</style>
<title>FrisbeeUltimate</title>
<title>Frisbee</title>
<g id="frisbee">
	<path class="st0" d="M14.6,26.9L3.8,37.7c-0.3,0.3-0.3,0.9,0,1.2l6.6,6.6c0.3,0.3,0.9,0.3,1.2,0l0,0l10.8-10.8L14.6,26.9z"/>
	<path class="st1" d="M22.5,34.9l-3.9,3.9l-6-6c-0.7-0.7-1.1-1.6-1.4-2.5l3.4-3.4L22.5,34.9z"/>
	<path class="st1" d="M12.7,29.7l-1.1-1.1c-1.4-1.2-1.4-3.4,0-4.7l0,0l5.2-5.2l3.5,3.5L12.7,29.7z"/>
	<path class="st2" d="M38.9,27.5c-1.4,1.4-2.8,2.4-4.5,3.2c-5.9,2.6-12.8,1.4-17.4-3.2c-6-6.1-6-15.8,0-21.9s15.8-6,21.9,0
		C45,11.7,45,21.4,38.9,27.5z"/>
	<path class="st3" d="M34.4,30.6c-5.9,2.6-12.8,1.4-17.4-3.2c-1-1-1.8-2.1-2.6-3.4l5.7-5.7c1.5-1.5,3.7-1.5,5.1,0
		c0.8,0.8,1.1,1.8,1,2.8c2,0.3,3.4,2.1,3,4.2l0,0c1.7,0.3,2.9,1.8,2.8,3.6c0,0.2,0,0.3,0,0.6c0.7,0.1,1.4,0.6,1.9,1L34.4,30.6z"/>
	<path class="st4" d="M28,28.2c-6.4,0-11.6-5.2-11.6-11.6S21.6,5,28,5s11.6,5.2,11.6,11.6c0,3-1.2,6-3.4,8.2
		C34.1,26.9,31,28.2,28,28.2z"/>
	<path class="st5" d="M35.4,24c-1.1,1.1-2.5,1.9-3.9,2.5C26,28.4,20,25.6,18.1,20.1S19,8.6,24.5,6.6S36,7.5,37.9,13.1
		C39.3,16.9,38.2,21.1,35.4,24z"/>
	<path class="st3" d="M33,21.5c-2.7,2.7-7.2,2.7-9.9,0s-2.7-7.2,0-9.9s7.2-2.7,9.9,0C35.8,14.3,35.8,18.7,33,21.5
		C33.1,21.4,33.1,21.5,33,21.5z"/>
	<path class="st5" d="M30.8,14.8c0-1-1.4-1.9-2.9-1.9c-1.6,0-3,0.9-3,1.9c0,1,1.4,1.9,2.9,1.9S30.8,15.8,30.8,14.8z"/>
	<path class="st0" d="M24.8,22.4c1.2-0.6,2.7-0.1,3.4,1.1c0.5,1,0.3,2.1-0.5,2.9l0,0c1.2-0.6,2.8,0,3.4,1.2c0.5,1,0.2,2.1-0.6,2.8
		l0,0c1.2-0.6,2.8,0,3.4,1.2c0.5,1,0.2,2.1-0.6,2.8l-4.3,4.3c-2.5,2.5-6.4,2.5-8.8,0l-7-7c-1.5-1.5-1.5-3.7,0-5.2l0,0l7.8-7.8
		c0.9-1,2.5-1.1,3.6-0.2C25.7,19.8,25.9,21.4,24.8,22.4L24.8,22.4z"/>
	<path class="st1" d="M31.7,30.4l-6,6c-0.2,0.2-0.7,0.2-1,0c-0.2-0.2-0.2-0.7,0-1l6.4-6.4c0,0.7-0.3,1.2-0.8,1.7l0,0
		C30.9,30.4,31.4,30.4,31.7,30.4z"/>
	<path class="st1" d="M28.9,26.3l-6,6.1c-0.1,0.1-0.3,0.2-0.5,0.2c-0.3,0-0.7-0.3-0.7-0.7c0-0.2,0.1-0.3,0.2-0.5l6.5-6.5
		c0,0.7-0.3,1.2-0.8,1.7l0,0C28.1,26.4,28.6,26.3,28.9,26.3z"/>
	<path class="st1" d="M26.1,22.2l-6,6c-0.1,0.1-0.3,0.2-0.5,0.2c-0.2,0-0.3-0.1-0.5-0.2c-0.2-0.2-0.2-0.7,0-1l6.2-6.2
		c0,0.6-0.2,1-0.5,1.5C25.3,22.3,25.6,22.2,26.1,22.2z"/>
</g>
</svg>
