<?xml version="1.0" encoding="utf-8"?>
<!-- Generator: Adobe Illustrator 23.1.0, SVG Export Plug-In . SVG Version: 6.00 Build 0)  -->
<svg version="1.1" id="icons" xmlns="http://www.w3.org/2000/svg" xmlns:xlink="http://www.w3.org/1999/xlink" x="0px" y="0px"
	 viewBox="0 0 47 47" style="enable-background:new 0 0 47 47;" xml:space="preserve">
<style type="text/css">
	.st0{fill-rule:evenodd;clip-rule:evenodd;fill:#666666;}
	.st1{fill-rule:evenodd;clip-rule:evenodd;fill:#7D7B7E;}
	.st2{fill-rule:evenodd;clip-rule:evenodd;fill:#FFB217;}
	.st3{fill-rule:evenodd;clip-rule:evenodd;fill:#FFC654;}
</style>
<title>Gardening</title>
<path class="st0" d="M31.3,25.4l-15.5-6.1C27.2-9.3,42.5-2.7,31.3,25.4z"/>
<path class="st1" d="M27.1,16l-5.2,13.7c-1,2.4-1.9,5-2.8,7.5L17,36.3c1-2.4,1.9-5,2.9-7.5l5.3-13.7C25.9,13.6,27.6,14.4,27.1,16z"
	/>
<path class="st2" d="M14.6,45.6L14.6,45.6c0.7,0.2,1.4,0.2,2.1,0s1.1-0.7,1.3-1.3c0.8-2.3,1.6-4.7,2.3-7c0.8-2.3,1.6-4.7,2.3-7
	l-2.1-0.8l-2.1-0.8l-2.9,6.8c-1,2.3-1.9,4.6-2.9,6.9c-0.2,0.7-0.2,1.3,0.1,1.9C13.3,44.8,14,45.3,14.6,45.6z"/>
<path class="st3" d="M18.5,27.7l2.6,1l2.6,1c0.4,0.2,0.7,0.7,0.6,1.2l0,0c-0.1,0.4-0.6,0.8-1,0.7h-0.1l-2.6-0.9l-2.7-1
	c-0.4-0.2-0.7-0.7-0.4-1.1l0,0l0,0C17.4,27.8,18,27.4,18.5,27.7z"/>
</svg>
