<?xml version="1.0" encoding="utf-8"?>
<!-- Generator: Adobe Illustrator 23.1.0, SVG Export Plug-In . SVG Version: 6.00 Build 0)  -->
<svg version="1.1" id="Layer_1" xmlns="http://www.w3.org/2000/svg" xmlns:xlink="http://www.w3.org/1999/xlink" x="0px" y="0px"
	 viewBox="0 0 47 47" style="enable-background:new 0 0 47 47;" xml:space="preserve">
<style type="text/css">
	.st0{fill:#FFFFFF;}
	.st1{fill:#DBDBDB;}
	.st2{opacity:0.7;fill:#C4C4C4;enable-background:new    ;}
</style>
<title>Golf</title>
<g>
	<g id="icons">
		<path class="st0" d="M23.5,0.6C10.8,0.6,0.6,10.9,0.6,23.5s10.3,22.9,22.9,22.9s22.9-10.1,22.9-22.9l0,0
			C46.4,10.9,36.1,0.6,23.5,0.6z"/>
		<path class="st1" d="M18.5,26.9c-1.4,0-2.5,1.1-2.6,2.5c0,1.4,1.1,2.5,2.5,2.6c1.4,0.1,2.5-1.1,2.6-2.5l0,0
			C21,28,19.9,26.9,18.5,26.9z"/>
		<path class="st1" d="M21.2,20.8c-1.4,0-2.5,1.1-2.5,2.5c0,1.4,1.1,2.5,2.5,2.5c1.4,0,2.5-1.1,2.5-2.5l0,0
			C23.7,22,22.6,20.9,21.2,20.8z"/>
		<path class="st1" d="M16.5,34.8c-1.4,0-2.5,1.1-2.5,2.5s1.1,2.5,2.5,2.5c1.4,0,2.5-1.1,2.5-2.5S17.9,34.8,16.5,34.8L16.5,34.8z"/>
		<path class="st1" d="M10.4,35.6c-1,0-1.8,0.7-1.8,1.7c0,1,0.7,1.8,1.7,1.8s1.8-0.7,1.8-1.7l0,0C12.1,36.4,11.4,35.6,10.4,35.6
			L10.4,35.6z"/>
		<path class="st1" d="M14.4,22.1c-1.4,0-2.5,1.1-2.5,2.5c0,1.4,1.1,2.5,2.5,2.5s2.5-1.1,2.5-2.5l0,0C16.9,23.4,15.8,22.3,14.4,22.1
			z"/>
		<path class="st1" d="M21.1,39.1c-1,0-1.7,0.7-1.7,1.7c0,1,0.7,1.7,1.7,1.7s1.7-0.7,1.7-1.7l0,0C22.8,39.8,21.9,39.1,21.1,39.1z"/>
		<path class="st1" d="M12.4,28.8c-1.4,0-2.5,1.1-2.6,2.5c0,1.4,1.1,2.5,2.5,2.6c1.4,0.1,2.5-1.1,2.6-2.5c0,0,0,0,0-0.1
			C14.9,29.9,13.7,28.8,12.4,28.8z"/>
		<path class="st1" d="M27.5,38.1c-1,0-1.7,0.8-1.7,1.7s0.8,1.7,1.7,1.7l0,0c1,0,1.7-0.8,1.7-1.7C29.2,38.8,28.3,38.1,27.5,38.1z"/>
		<path class="st1" d="M33.3,24.4c-1.4,0-2.5,1.1-2.5,2.5c0,1.4,1.1,2.5,2.5,2.5c1.4,0,2.5-1.1,2.5-2.5l0,0
			C35.8,25.5,34.7,24.4,33.3,24.4z"/>
		<path class="st1" d="M26.4,25.9c-1.4,0-2.5,1.1-2.5,2.5c0,1.4,1.1,2.5,2.5,2.5s2.5-1.1,2.5-2.5C28.9,27,27.8,25.9,26.4,25.9
			L26.4,25.9z"/>
		<path class="st1" d="M23.2,32.1c-1.4,0-2.5,1.1-2.5,2.5s1.1,2.5,2.5,2.5c1.4,0,2.5-1.1,2.5-2.5l0,0C25.7,33.3,24.6,32.1,23.2,32.1
			z"/>
		<path class="st1" d="M27.9,19.6c-1.4,0-2.5,1.1-2.5,2.5c0,1.4,1.1,2.5,2.5,2.5c1.4,0,2.5-1.1,2.5-2.5l0,0
			C30.4,20.8,29.3,19.6,27.9,19.6z"/>
		<path class="st1" d="M35.4,37.1c-1.3,0-2.2,1-2.2,2.2c0,1.3,1,2.2,2.2,2.2s2.2-1,2.2-2.2C37.6,38.1,36.7,37.1,35.4,37.1L35.4,37.1
			z"/>
		<path class="st1" d="M23.5,0.6c-1,0-1.9,0-2.9,0.1c0,0,0,0.1,0,0.3c0.1,0.8,0.8,1.5,1.7,1.4l0,0c0.8,0.1,1.7-0.6,1.7-1.4l0,0
			c0-0.1,0-0.3-0.1-0.4C23.7,0.6,23.5,0.6,23.5,0.6z"/>
		<path class="st1" d="M38.1,40.8c0,0.1,0,0.3,0,0.4c0.7-0.7,1.5-1.3,2.1-2.1c-0.1,0-0.3-0.1-0.4-0.1C38.8,39.1,38.1,39.8,38.1,40.8
			z"/>
		<path class="st1" d="M16.7,1.6c-0.6,0.1-1,0.3-1.5,0.6c-0.6,0.4-0.8,1.1-0.7,1.8c0.4,1.1,1.5,1.7,2.6,1.3C18.2,5.1,19,4.1,18.9,3
			C18.5,2.1,17.5,1.6,16.7,1.6z"/>
		<path class="st1" d="M31.8,3.2c-0.3,0.8,0.4,1.8,1.5,2.2c1,0.6,2.1,0.1,2.6-0.8c0-0.1,0-0.3,0-0.4c-1.1-0.7-2.2-1.4-3.5-1.9
			C32.2,2.6,31.9,2.8,31.8,3.2z"/>
		<path class="st1" d="M9.2,5.6C8.1,6.4,7.1,7.4,6.1,8.5c0.7,0.7,1.7,0.8,2.5,0.3c1-0.4,1.5-1.4,1.3-2.5C9.7,6,9.4,5.7,9.2,5.6z"/>
		<path class="st1" d="M3.2,12.8c1,0.1,1.9-0.4,2.2-1.4c0.3-0.7,0.3-1.4,0-1.9C4.6,10.5,3.9,11.6,3.2,12.8z"/>
		<path class="st1" d="M6.1,31.3c-1,0.1-1.7,1-1.5,1.9c0.1,0.8,0.7,1.4,1.5,1.5c1-0.1,1.7-1,1.5-1.9C7.5,32,6.9,31.4,6.1,31.3z"/>
		<path class="st1" d="M30.7,41.9c-1.1,0.1-1.9,1.1-1.8,2.2c0.1,0.7,0.6,1.3,1.3,1.4c1-0.3,1.9-0.7,2.9-1.1c0.1-0.3,0.3-0.7,0.1-1
			C32.9,42.3,31.8,41.6,30.7,41.9L30.7,41.9z"/>
		<path class="st1" d="M1.2,29.1c0.3,1.4,0.8,2.6,1.4,4c0.6-0.6,0.7-1.3,0.7-1.9C3.3,30.1,2.4,29.1,1.2,29.1L1.2,29.1z"/>
		<path class="st1" d="M6.8,24.4c-1.4,0.1-2.4,1.4-2.2,2.8c0.1,1.3,1.1,2.1,2.2,2.2C8.2,29.2,9.2,28,9,26.6
			C9,25.5,8.1,24.5,6.8,24.4z"/>
		<path class="st1" d="M0.6,23.4v0.1c0,1.4,0.1,2.8,0.4,4.2c1-0.3,1.7-1.1,1.7-2.2C2.6,24.4,1.7,23.4,0.6,23.4L0.6,23.4z"/>
		<path class="st1" d="M24.4,43.1c-1.1-0.1-2.1,0.8-2.2,1.9c0,0.6,0.3,1.1,0.8,1.4h0.4c0.8,0,1.7,0,2.6-0.1c0.4-0.3,0.6-0.7,0.6-1.3
			C26.7,43.9,25.6,43.1,24.4,43.1L24.4,43.1z"/>
		<path class="st1" d="M17.6,42.6c-1.1-0.1-2.1,0.7-2.2,1.8c0,0.3,0,0.4,0.1,0.7c1.1,0.4,2.1,0.7,3.2,1c0.6-0.3,1-0.8,1.1-1.5
			C19.7,43.3,18.7,42.4,17.6,42.6L17.6,42.6z"/>
		<path class="st1" d="M31.4,32c-1.4,0-2.5,1.1-2.5,2.5S30,37,31.4,37c1.4,0,2.5-1.1,2.5-2.5l0,0C33.9,33.1,32.8,32,31.4,32z"/>
		<path class="st1" d="M11,10.2c-1.4,0-2.5,1.1-2.6,2.5c0,1.4,1.1,2.5,2.5,2.6s2.5-1.1,2.6-2.5c0,0,0,0,0-0.1
			C13.5,11.3,12.4,10.2,11,10.2z"/>
		<path class="st1" d="M13.3,5.6c-1,0-1.7,0.8-1.7,1.7c0,1,0.8,1.7,1.7,1.7S15,8.1,15,7.3l0,0C15.1,6.3,14.3,5.6,13.3,5.6z"/>
		<path class="st1" d="M9.6,17.1c-1.4,0-2.5,1.1-2.6,2.5c0,1.4,1.1,2.5,2.5,2.6c1.4,0.1,2.5-1.1,2.6-2.5c0,0,0,0,0-0.1
			C12.1,18.3,11,17.1,9.6,17.1L9.6,17.1z"/>
		<path class="st1" d="M18.2,8.8c-1.4,0-2.5,1.1-2.5,2.5s1.1,2.5,2.5,2.5c1.4,0,2.5-1.1,2.5-2.5l0,0C20.7,9.9,19.6,8.8,18.2,8.8z"/>
		<path class="st1" d="M5.7,14.1c-1,0.1-1.7,1-1.5,1.9c0.1,0.8,0.7,1.4,1.5,1.5c1-0.1,1.7-1,1.5-1.9C7.1,14.8,6.5,14.1,5.7,14.1z"/>
		<path class="st1" d="M16.2,15.8c-1.4,0-2.5,1.1-2.5,2.5s1.1,2.5,2.5,2.5s2.5-1.1,2.5-2.5l0,0C18.7,16.9,17.6,15.8,16.2,15.8z"/>
		<path class="st1" d="M41.5,12.4c0,1,0.7,1.7,1.7,1.7c0.4,0,0.7-0.1,1-0.3c-0.6-1-1.1-2.1-1.7-2.9C41.9,11,41.5,11.7,41.5,12.4z"/>
		<path class="st1" d="M44.4,20.8c-1.1,0-1.9,1-1.9,2.1c-0.3,1.1,0.4,2.1,1.5,2.4c1.1,0,1.9-1,1.9-1.9C46.3,22,45.6,20.9,44.4,20.8z
			"/>
		<path class="st1" d="M21.2,3.8c-1,0-1.7,0.8-1.7,1.7c0,1,0.8,1.7,1.7,1.7c0.8,0,1.7-0.8,1.7-1.7l0,0C23.1,4.6,22.2,3.8,21.2,3.8z"
			/>
		<path class="st1" d="M4.7,20.5c-1,0.3-1.5,1.1-1.4,2.1c0.1,0.7,0.7,1.3,1.4,1.4c1-0.3,1.5-1.1,1.4-2.1C6,21.2,5.4,20.6,4.7,20.5z"
			/>
		<path class="st1" d="M1.8,16.2c-0.4,1.4-0.8,2.8-1,4.2c0.1,0,0.3,0,0.4,0c1.1-0.1,1.9-1.1,1.9-2.2C3.1,17.4,2.5,16.6,1.8,16.2z"/>
		<path class="st1" d="M4.9,36.6l-0.1,0.1c0.8,1.1,1.8,2.2,2.8,3.2c0.4-0.7,0.4-1.5,0.1-2.2C7.2,36.7,6,36.2,4.9,36.6z"/>
		<path class="st1" d="M12.4,40.6c-1.1-0.3-2.1,0.4-2.5,1.4c1.1,0.8,2.2,1.5,3.5,2.1c0.4-0.3,0.8-0.7,1-1.3
			C14.3,41.7,13.5,40.8,12.4,40.6L12.4,40.6z"/>
		<path class="st1" d="M37.5,6.9c-1,0.6-1.4,1.8-1,2.8c0.6,1,1.7,1.3,2.6,0.7s1.3-1.7,0.7-2.6C39.4,6.7,38.5,6.4,37.5,6.9z"/>
		<circle class="st1" cx="42.2" cy="17.1" r="2.2"/>
		<path class="st1" d="M37.2,30.2c-1,0-1.7,0.7-1.7,1.7s0.7,1.7,1.7,1.7c1,0,1.7-0.7,1.7-1.7l0,0C38.9,31,38.2,30.2,37.2,30.2z"/>
		<path class="st1" d="M43.8,27.8c-1.1-0.6-2.5,0-2.9,1.1c-0.4,1.1,0,2.5,1.1,2.9c1.1,0.4,2.5,0,2.9-1.1v-0.1
			C45.3,29.5,44.9,28.4,43.8,27.8L43.8,27.8z"/>
		<path class="st1" d="M36.4,12.1c-1,0-1.7,0.7-1.8,1.7c0,1,0.7,1.7,1.7,1.8c1,0,1.7-0.7,1.8-1.7l0,0C38.1,13,37.4,12.1,36.4,12.1z"
			/>
		<path class="st1" d="M39.3,23.8c-1,0-1.7,0.7-1.7,1.7s0.7,1.7,1.7,1.7s1.7-0.7,1.7-1.7l0,0C41,24.6,40.3,23.8,39.3,23.8z"/>
		<path class="st1" d="M41.1,33.4c-1.3,0-2.2,1-2.2,2.2c0,1,0.6,1.8,1.4,2.1c1.3,0,2.2-1,2.2-2.2C42.5,34.6,41.9,33.8,41.1,33.4z"/>
		<path class="st1" d="M32.2,7.3c-1,0-1.7,0.8-1.7,1.7c0,1,0.8,1.7,1.7,1.7c1,0,1.7-0.8,1.7-1.7C33.9,8.1,33.2,7.3,32.2,7.3
			L32.2,7.3z"/>
		<path class="st1" d="M25.7,7.3c-1.4,0-2.5,1.1-2.5,2.5s1.1,2.5,2.5,2.5s2.5-1.1,2.5-2.5l0,0C28.2,8.4,27.1,7.3,25.7,7.3z"/>
		<path class="st1" d="M27.5,1.6c-1.3,0-2.2,1-2.2,2.2s1,2.2,2.2,2.2s2.2-1,2.2-2.2l0,0C29.6,2.7,28.6,1.6,27.5,1.6z"/>
		<path class="st1" d="M30,13.2c-1.4,0-2.5,1.1-2.5,2.5s1.1,2.5,2.5,2.5c1.4,0,2.5-1.1,2.5-2.5l0,0C32.5,14.4,31.4,13.2,30,13.2z"/>
		<path class="st1" d="M36.4,17.8c-1.4,0-2.5,1.1-2.5,2.5c0,1.4,1.1,2.5,2.5,2.5s2.5-1.1,2.5-2.5l0,0C38.9,19.1,37.8,17.8,36.4,17.8
			z"/>
		<path class="st1" d="M23.2,13.9c-1.4,0-2.5,1.1-2.5,2.5s1.1,2.5,2.5,2.5c1.4,0,2.5-1.1,2.5-2.5l0,0C25.7,15.1,24.6,13.9,23.2,13.9
			z"/>
		<path class="st2" d="M41.7,11.3c0,15.6-12.6,28.2-28.3,28.2c-2.4,0-4.9-0.3-7.1-1c8.5,9.4,22.9,10.1,32.4,1.7
			c8.8-7.9,10.1-21.4,2.9-30.8C41.7,10.1,41.7,10.7,41.7,11.3z"/>
	</g>
</g>
</svg>
