<?xml version="1.0" encoding="utf-8"?>
<!-- Generator: Adobe Illustrator 23.1.0, SVG Export Plug-In . SVG Version: 6.00 Build 0)  -->
<svg version="1.1" id="icons" xmlns="http://www.w3.org/2000/svg" xmlns:xlink="http://www.w3.org/1999/xlink" x="0px" y="0px"
	 viewBox="0 0 47 47" style="enable-background:new 0 0 47 47;" xml:space="preserve">
<style type="text/css">
	.st0{fill:#A0312B;}
	.st1{fill:#F15A24;}
	.st2{fill:#F7BD3C;}
	.st3{fill:#36C9AD;}
</style>
<title>Gymnastics</title>
<g id="gymnastics">
	<rect x="10.7" y="1.7" class="st0" width="25.7" height="2"/>
	<path class="st1" d="M15.4,32.7c-3.5,0-6.3,2.8-6.3,6.3c0,3.5,2.8,6.3,6.3,6.3s6.3-2.8,6.3-6.3l0,0C21.6,35.5,18.8,32.7,15.4,32.7z
		 M15.4,44.2c-2.9,0-5.2-2.3-5.2-5.2c0-2.9,2.3-5.2,5.2-5.2c2.9,0,5.2,2.3,5.2,5.2C20.5,41.8,18.2,44.2,15.4,44.2
		C15.4,44.2,15.3,44.2,15.4,44.2L15.4,44.2z"/>
	<path class="st2" d="M15.4,33.8c-2.9,0-5.2,2.3-5.2,5.1c0,2.9,2.3,5.2,5.1,5.2s5.2-2.3,5.2-5.1c0,0,0-0.1,0-0.1
		C20.5,36.1,18.2,33.8,15.4,33.8z M15.4,43.8c-2.7,0-4.8-2.2-4.8-4.8c0-2.7,2.2-4.8,4.8-4.8c2.7,0,4.8,2.2,4.8,4.8
		C20.2,41.6,18,43.8,15.4,43.8C15.4,43.8,15.3,43.8,15.4,43.8L15.4,43.8z"/>
	<path class="st3" d="M14.8,1.1V34c0,0.3,0.3,0.6,0.6,0.6c0,0,0,0,0,0l0,0c0.3,0,0.6-0.3,0.6-0.6l0,0V1.1H14.8z"/>
	<path class="st1" d="M32.4,32.7c-3.5,0-6.3,2.8-6.3,6.3c0,3.5,2.8,6.3,6.3,6.3c3.5,0,6.3-2.8,6.3-6.3c0,0,0,0,0,0
		C38.7,35.5,35.9,32.7,32.4,32.7z M32.4,44.2c-2.9,0-5.2-2.3-5.2-5.2c0-2.9,2.3-5.2,5.2-5.2c2.9,0,5.2,2.3,5.2,5.2l0,0
		C37.6,41.8,35.3,44.2,32.4,44.2z"/>
	<path class="st2" d="M32.4,33.8c-2.8,0-5.1,2.4-5.1,5.2c0,2.8,2.4,5.1,5.2,5.1c2.8,0,5.1-2.3,5.1-5.1
		C37.6,36.1,35.3,33.8,32.4,33.8z M32.4,43.8c-2.7,0-4.8-2.2-4.8-4.8c0-2.7,2.2-4.8,4.8-4.8s4.8,2.2,4.8,4.8l0,0
		C37.3,41.6,35.1,43.8,32.4,43.8C32.4,43.8,32.4,43.8,32.4,43.8z"/>
	<path class="st3" d="M31.9,1.1V34c0,0.3,0.3,0.6,0.6,0.6l0,0c0.3,0,0.6-0.3,0.6-0.6V1.1H31.9z"/>
	<rect x="14.4" y="30.1" class="st0" width="1.7" height="1.7"/>
	<rect x="31.6" y="30.1" class="st0" width="1.7" height="1.7"/>
</g>
</svg>
