<?xml version="1.0" encoding="utf-8"?>
<!-- Generator: Adobe Illustrator 23.1.0, SVG Export Plug-In . SVG Version: 6.00 Build 0)  -->
<svg version="1.1" id="icons" xmlns="http://www.w3.org/2000/svg" xmlns:xlink="http://www.w3.org/1999/xlink" x="0px" y="0px"
	 viewBox="0 0 47 47" style="enable-background:new 0 0 47 47;" xml:space="preserve">
<style type="text/css">
	.st0{fill:#FF8400;}
</style>
<title>Hackysack</title>
<g id="HackySack">
	<path class="st0" d="M21.4,1.5c-0.8,0-1.5,0-2.2,0.1C16.1,1.8,13.3,3,11,4.9c1.7,6.8,4.7,10.8,8,13.4c0.5,0.4,1.1,0.8,1.6,1.2
		l0.3-0.3c3.1-2.6,5.7-7.5,7-15.3C26,2.4,23.8,1.6,21.4,1.5z M29.5,5.7c-1.5,7.2-4,12-7.2,14.8l1,0.4c0.3-0.3,0.7-0.7,1-1
		c2.2-2.2,4.8-3.6,7.8-4.3C32.5,12.1,31.6,8.5,29.5,5.7L29.5,5.7z M9.4,6.5C6.7,10,7,14.8,8.9,18.7c0.9-0.2,1.7-0.4,2.6-0.4
		c1.9-0.1,3.6,0.2,5.3,0.8C13.3,15.7,10.7,11.3,9.4,6.5L9.4,6.5z M34.3,16.6c-4.4,0.2-8.4,2.4-10.9,5.9c0.8,0.5,1.4,1.3,2,2.1
		c1.2-1.4,2.7-2.6,4.4-3.6c2.9-1.6,6.2-2.7,9.5-3.2C37.7,16.9,36.1,16.6,34.3,16.6z M41.5,19.4c-3.7,0.3-7.4,1.4-10.7,3.2
		c-1.6,1-3.2,2.2-4.4,3.7c0.8,1.6,1,3.5,0.8,5.3c0,0.4-0.1,0.9-0.2,1.3c2.4,2.3,5.6,3.6,8.8,3.5c3.2-0.1,6.4-1.6,9.7-3.7
		c0.3-1.7,0.3-3.5-0.1-5.2C45,24.4,43.6,21.6,41.5,19.4L41.5,19.4z M12.2,19.7c-6.8,0-11.1,5.9-10.9,12.2c1.9-3.1,4.4-5.7,7.4-7.6
		c3.3-1.9,7.1-2.7,10.9-2.4h0.1v-0.1c-2.1-1.2-4.5-2-7-2.1C12.6,19.6,12.4,19.6,12.2,19.7L12.2,19.7z M18.4,23.7
		c-3.1-0.1-6.1,0.5-8.7,2.1c-3.1,1.9-5.3,4.9-7.8,8.9C2.3,36.4,2.9,38,4,39.3c1.3,2,3.2,3.4,5.2,4.4l0.2-0.1
		c4.4-1.1,7.8-4.1,9.5-8.4c1.3-3.7,1.6-7.6,1.2-11.6C19.4,23.6,18.8,23.6,18.4,23.7L18.4,23.7z M21.9,24c0.4,4,0,8.2-1.3,12.1
		c-1.4,3.7-4.3,6.6-7.7,8.3c9.2-0.2,17.8-13.5,10.4-20.3L21.9,24z M26.4,35c-0.4,1.2-1.1,2.4-1.7,3.5c5.7,4.8,16.1,3.6,19.8-2.9
		C41.8,37,39,38,36,38.2C32.5,38.4,29.1,37.2,26.4,35L26.4,35z"/>
</g>
</svg>
