<?xml version="1.0" encoding="utf-8"?>
<!-- Generator: Adobe Illustrator 23.1.0, SVG Export Plug-In . SVG Version: 6.00 Build 0)  -->
<svg version="1.1" id="icons" xmlns="http://www.w3.org/2000/svg" xmlns:xlink="http://www.w3.org/1999/xlink" x="0px" y="0px"
	 viewBox="0 0 47 47" style="enable-background:new 0 0 47 47;" xml:space="preserve">
<style type="text/css">
	.st0{fill:#334A61;}
	.st1{fill:#F15A24;}
</style>
<title>Handball</title>
<path class="st0" d="M41,11.4c-0.3-0.2-0.6-0.3-0.7-0.6c-0.1-0.3-0.1-0.4-0.1-0.6c-0.1-0.4-0.4-0.7-0.7-0.9
	c-0.8-0.5-1.8-0.6-2.7-0.4C36.8,8.6,37,8.4,37,8.1c0.1-0.2,0.1-0.5,0.2-0.7c0.1-0.3,0.1-0.7,0.2-1c0-0.5,0.2-1,0.4-1.4
	c0.4-1,0.1-2.2-0.8-2.9c-1-0.7-2.2-0.7-3.2-0.1c-1,0.5-1.9,1.7-1.6,2.9c-0.2,0-0.3,0-0.4,0.2c-0.2,0.3,0.1,0.6,0,0.9s-0.2,0.5,0,0.7
	c0.1,0.1,0.2,0.2,0.3,0.1c-0.2,1.3-0.2,2.5-0.1,3.8c-0.4,0.1-0.7,0.3-1,0.3c-0.7,0.1-1.4-0.1-2,0c-0.2,0-0.5,0-0.5,0.3
	c0,0,0,0.1,0,0.1c-0.5,0-1.6,0-1.2,0.5c0.1,0.3,0.6,0.3,0.8,0.4c0.3,0,0.7,0,1,0C29,12.4,29,12.6,29,12.7l0,0.3
	c-0.3,0-0.6,0.2-0.9,0.4c-0.1,0.1-0.2,0.3-0.1,0.4c0,0,0.1,0.1,0.1,0.1L27.9,14c-1-0.3-2-0.6-3-1c-0.6-0.2-1.2-0.5-1.7-0.7
	c-0.6-0.2-1.1-0.5-1.6-0.8c-0.6-0.5-0.6-1.4-1.3-1.7c-0.4-0.2-0.9-0.2-1.3,0c-0.3-0.3-0.8-0.4-1.2-0.3C17.4,9.5,17,9.7,17,10
	c-1.5,0.5-2.4,2.1-1.9,3.6c0.1,0.3,0.3,0.6,0.5,0.9c1,1.3,2.9,1.5,4.2,0.5c0.3-0.2,0.6-0.5,0.8-0.9c0.1,0.1,0.2,0.2,0.3,0.2
	c0.1,0.1,0.3,0.1,0.4,0c1.1,1.3,2.5,2.4,4,3.1c1,0.5,2.4,1.2,3.5,0.7c-0.1,0.3-0.1,0.6-0.1,0.9c-0.1,0.7-0.2,1.4-0.3,2.1
	c-0.2,0.6-0.4,1.2-0.7,1.7c-0.2,0.3-0.2,0.6-0.2,1l0,0c-0.2,0-0.3,0.1-0.4,0.3c-0.1,0.1-0.1,0.2-0.1,0.3c-0.6,0.3-1.1,0.7-1.6,1.3
	c-0.4,0.3-0.6,0.7-0.7,1.2c-1.5,0.1-3,0.8-4,1.9c-0.6,0.7-1.3,1.3-2.1,1.8c-0.7,0.5-1.5,0.9-2.3,1.3c-1.4,0.9-2.7,1.9-3.8,3.2
	c-1.1,1.3-2.3,2.5-3.5,3.6l0,0c-0.6-0.2-1.3,0.2-1.5,0.8c-0.2-0.1-0.4-0.1-0.6-0.1c-0.2,0-0.6,0-0.7,0.2c0,0.1,0,0.3,0.2,0.3
	c-1.4,0.1-4,0.7-3.3,2.3C3.2,43,4,43.6,4.9,43.9c0.7,0.2,1.5,0,1.9-0.6C7.3,43.8,8,44,8.7,43.9c0.7-0.3,0.9-1.3,1.3-1.9
	c1-1.8,2.5-3.3,4.4-4.2c1.7-0.8,3.9-0.9,4.5-3c0.1-0.6,0.6-1.1,1.2-1.2c0.5-0.1,0.9-0.1,1.4-0.1c0.4,0,0.8,0,1.2-0.1
	c0.7,0.4,1.6,0.6,2.5,0.4l0,0c0.6,0.3,0.8,0.5,1.4,0.3c0.7-0.2,1.5-0.3,2.3-0.3c0,0,0,0.1,0,0.1c0.3,1.3,0.5,2.6,0.7,3.9
	c0,0.4,0.1,0.8,0.4,1c0.3,0.3,0.6,0.1,0.9,0.1c-0.1,0.4-0.1,0.9,0,1.3c0,0.6,0,1.1,0,1.7s-0.1,1.3,0.4,1.6c0,0.8,0.3,1.5,0.8,2
	c0.6,0.4,1.4,0.6,2.1,0.6c0.7,0,1-0.5,1.2-1.2c0.1-0.5,0.1-0.9,0.3-1.4c0.1-0.5,0.5-0.9,0.7-1.4c0.4-1.7,0.6-3.4,0.6-5.1
	c0-0.4,0-0.8,0.1-1.2c0.3-2.3,0.8-4.6,1.6-6.8c0.4,0,0.7-0.1,1-0.3c0.4-0.4,0.6-0.9,0.7-1.4c0.1-0.5,0.1-1.1,0-1.7
	c-0.1-0.2-0.2-0.4-0.3-0.6c-0.2-0.4,0.1-0.6,0.2-0.9c0.2-0.5,0.2-1.1,0-1.6c-0.1-0.3-0.3-0.6-0.5-0.8c-0.2-0.5-0.3-1-0.2-1.5
	c0.2-1.8,0.5-3.5,0.8-5.2c0.8-0.2,1.6-0.5,1.7-1.4C42.1,12.8,41.7,12,41,11.4z"/>
<circle class="st1" cx="18" cy="12.7" r="3"/>
</svg>
