<?xml version="1.0" encoding="utf-8"?>
<!-- Generator: Adobe Illustrator 23.1.0, SVG Export Plug-In . SVG Version: 6.00 Build 0)  -->
<svg version="1.1" id="icons" xmlns="http://www.w3.org/2000/svg" xmlns:xlink="http://www.w3.org/1999/xlink" x="0px" y="0px"
	 viewBox="0 0 47 47" style="enable-background:new 0 0 47 47;" xml:space="preserve">
<style type="text/css">
	.st0{fill:#FFDD00;}
	.st1{fill:#ED1C24;}
	.st2{fill:#EE9248;}
	.st3{fill:#90A9B3;}
	.st4{fill:#7A6356;}
	.st5{fill:#7BBAB5;}
	.st6{fill:#FFE0D6;}
	.st7{fill:#333940;}
	.st8{fill:#303030;}
	.st9{fill:#F7931E;}
	.st10{opacity:0.1;fill:url(#SVGID_1_);enable-background:new    ;}
</style>
<title>HangGliding</title>
<g id="Hang_Gidding">
	<path class="st0" d="M8.6,12.2L0.4,34.6c0,0,1.8,0,2.5-0.1s15.7-11,16.8-11.4c1.2-0.4,22.4-7.2,24.2-7.1c1.1-0.1,2.1-0.5,3-1.3
		c0.1-0.1,0.1-0.2,0-0.3c0,0-0.1-0.1-0.2-0.1L10,11.2C9.4,11.1,8.8,11.5,8.6,12.2z"/>
	<path class="st1" d="M5.7,20.3c0.7-1,1.6-1.8,2.5-2.6c0.5-0.4,1.1-1,1.6-1.4c0.2-0.2,0.5-0.5,0.7-0.7c0.1-0.1,0.2-0.1,0.3-0.1
		l0.5-0.1l4.2-0.8c3.3-0.6,6.6-1.3,9.8-2L10,11.2c-0.6,0-1.3,0.3-1.5,1l-3.1,8.5L5.7,20.3z"/>
	<path class="st2" d="M25.6,12.5c-3.6,0.8-7.1,1.5-10.7,2.2l-4.2,0.8c-0.2,0-0.3,0.3-0.5,0.4l-0.3,0.3c-0.2,0.2-0.4,0.4-0.7,0.6
		c-0.5,0.4-1.1,1-1.6,1.4c-0.5,0.4-0.8,1-1.3,1.5c-0.3,0.3-0.6,0.7-1,1.1l-0.1,0.1l-3.4,9.6c0.3-0.4,0.6-0.8,1-1.2c1-1,1.9-2,2.9-3
		c2.1-2,4.3-3.9,6.5-5.8c0.5-0.5,1.1-1,1.6-1.5l0.4-0.4c0.1,0,0.2-0.1,0.3-0.1c0.3-0.1,0.6-0.1,1-0.2c1.4-0.4,2.8-0.8,4.1-1.3
		c2.9-0.7,5.8-1.3,8.8-1.9c2.5-0.5,5.1-1.2,7.6-1.9L25.6,12.5z"/>
	<path class="st3" d="M14.5,21.4L14.5,21.4C14.5,21.4,14.5,21.3,14.5,21.4s-0.2,0.3-0.2,0.5l0,0l0,0V22c-0.1,0.3-0.1,0.5-0.2,0.7
		l-0.6,1.9c-0.4,1.2-0.7,2.4-1.1,3.6l0,0l0,0h0.1l0,0c0.1,0,0.1-0.3,0.2-0.4c0.3-1,0.6-1.8,0.8-2.8c0.2-1,0.4-1.6,0.6-2.3
		C14.3,22.2,14.5,21.8,14.5,21.4C14.6,21.4,14.5,21.4,14.5,21.4z"/>
	<path class="st3" d="M18.7,23.3L18.7,23.3L18.7,23.3c0-0.1-0.2-0.1-0.3-0.2l0,0l-0.5-0.2l-1.2-0.5c-0.7-0.3-1.5-0.6-2.2-1l0,0l0,0
		l0,0c0,0,0,0,0,0.1s0.2,0.1,0.3,0.1c0.5,0.2,1.2,0.5,1.7,0.7c0.5,0.2,1,0.4,1.5,0.6L18.7,23.3L18.7,23.3z"/>
	<path class="st4" d="M22.5,31.4L22.5,31.4L22.5,31.4l-0.6-0.6c-0.2-0.3-0.4-0.5-0.6-0.7c-0.7-0.7-1.2-1.8-1.9-2.6
		c-0.1-0.2-0.3-0.3-0.5-0.5s-0.4,0-0.6,0.1c-0.5,0.3-1.1,0.7-1.5,1.2c1.2,1.5,3.3,2.9,4.7,4.3l0,0c0,0.1-0.1,0.3-0.1,0.4V33
		c0,0.1,0,0.1,0.1,0.1l0,0c0.1,0,0.1-0.1,0.2-0.1l0.4-0.4v-0.1v-0.1l-0.1-0.1l0,0c-0.5-1-2.5-2.6-3.2-3.5c0.3,0.3,1.6,1.6,2,2
		l0.6,0.5l0.3,0.3c0.1,0.1,0.2,0.2,0.3,0.3l0,0c0,0.1,0,0.3,0,0.4v0.1c0,0.1,0.1,0.1,0.2,0.1l0,0c0.1,0,0.1-0.1,0.1-0.2l0.2-0.5
		v-0.1C22.5,31.5,22.5,31.4,22.5,31.4z"/>
	<path class="st5" d="M14.2,27c0.2,0,0.5,0,0.6-0.2c0-0.2,0-0.5-0.1-0.7c0-0.1-0.1-0.2-0.1-0.3c0-0.1,0-0.2,0-0.3
		c0-0.1,0.1-0.1,0.2-0.1c0.1,0,0.1,0.1,0.1,0.1c0.1,0.1,0.2,0.2,0.2,0.3c0,0.1,0,0.2,0,0.3c0,0.1,0,0.3,0,0.5c0,0.2,0,0.4-0.2,0.5
		c-0.1,0.1-0.2,0.1-0.4,0.1s-0.4,0-0.7,0c-0.2,0-0.3-0.1-0.5-0.2c0.1-0.2,0.1-0.1,0.3,0C14,27.1,14.1,27.1,14.2,27z"/>
	<path class="st5" d="M15.2,24.8c0.1-0.2,0.2-0.3,0.4-0.5l0.1-0.1h0.1c0.5,0.2,1,0.5,1.5,0.8c0.2,0.2,0.4,0.4,0.6,0.5l0.7,0.7
		c0.1,0.1,0.2,0.2,0.1,0.3c0,0.1,0,0.1-0.1,0.2c-0.2,0.2-0.3,0.4-0.5,0.5c-0.2,0.2-0.5,0.4-0.7,0.6l-0.5,0.3h-0.1
		c-0.1,0-0.2-0.1-0.3-0.2c-0.1-0.1-0.1-0.2-0.2-0.4c-0.3-0.7-0.8-1.5-1.3-2.2c-0.1-0.1-0.3-0.4-0.2-0.5s0.1-0.1,0.2-0.1
		C15.1,25,15.2,24.9,15.2,24.8z"/>
	<path class="st6" d="M14.2,24.6c0,0.1,0.1,0.1,0.2,0.2c0.2,0.1,0.3,0.1,0.5,0c0.1,0,0.2-0.1,0.3-0.2c0-0.1,0-0.2,0-0.3
		c0-0.1,0-0.2,0-0.3c0-0.2-0.1-0.4-0.2-0.5c-0.1-0.2-0.4-0.4-0.6-0.4c-0.1,0-0.2,0-0.4,0.1c-0.1,0-0.2,0.1-0.3,0.2
		c0,0-0.1,0.2,0,0.3C13.6,24.1,13.8,24.4,14.2,24.6z"/>
	<path class="st3" d="M13.7,18.2L13.7,18.2L13.7,18.2c-0.1,0-0.1,0.2-0.1,0.2l0,0l0,0l0,0l0.1,0.4l0.2,0.8c0.1,0.5,0.3,1.2,0.4,1.7
		l0,0l0,0c0,0,0,0,0.1,0l0,0v-0.2c-0.1-0.4-0.2-0.8-0.3-1.4S14,19,13.8,18.7C13.7,18.4,13.7,18.3,13.7,18.2L13.7,18.2z"/>
	<path class="st7" d="M14.4,23.7c0.1,0,0.1-0.1,0.2-0.1h0.1c0.2,0.1,0.3,0.2,0.3,0.4c0.1,0.2,0,0.3-0.1,0.5
		c-0.1,0.1-0.2,0.1-0.2,0.3s0,0,0,0l0,0c0.1,0,0.2,0,0.3,0c0.1,0,0.1,0,0.2-0.1c0.1-0.1,0.1-0.2,0.1-0.3c0-0.2,0.1-0.5,0.1-0.7v-0.1
		c0-0.1,0-0.1-0.1-0.2c-0.1-0.2-0.2-0.3-0.3-0.4c-0.2-0.2-0.4-0.3-0.6-0.3s-0.4,0.1-0.6,0.2c-0.2,0.1-0.3,0.4-0.4,0.6
		c0,0.2,0.1,0.5,0.3,0.6c0.1,0,0.1,0.1,0.2,0S14,24,14,23.9C14.2,23.8,14.3,23.8,14.4,23.7z"/>
	<path class="st5" d="M16.3,24.3c0.2,0.1,0.4,0.1,0.5,0.2c0.1,0.1,0.2,0.1,0.4,0.1c0.2,0,0.3-0.1,0.4-0.2v-0.1
		c0-0.1-0.1-0.2-0.1-0.3l-0.1-0.2l0.1-0.1h0.1c0.1,0.1,0.1,0.2,0.2,0.4c0,0.1,0.1,0.2,0.1,0.3c0,0.1,0,0.1,0,0.2
		c-0.1,0.2-0.2,0.4-0.4,0.4c-0.2,0.1-0.4,0.1-0.6,0c-0.1,0-0.3,0-0.4-0.1c-0.1,0-0.2-0.1-0.3-0.2s-0.1-0.2-0.1-0.4
		C15.9,24.2,16.1,24.2,16.3,24.3z"/>
	<path class="st3" d="M18.6,23.1L18.6,23.1C18.5,23.1,18.5,23,18.6,23.1C18.5,23,18.5,23,18.6,23.1c-0.2-0.1-0.4,0.1-0.5,0.2l0,0
		l0,0l0,0l-0.7,0.6l-1.7,1.4c-1.1,1-2.2,1.8-3.3,2.8l0,0l0,0v0.1c0,0,0,0,0.1,0.1c0.1,0,0.3-0.2,0.4-0.3l2.5-2.1
		c0.7-0.6,1.4-1.2,2-1.8L18.6,23.1C18.6,23,18.6,23.1,18.6,23.1L18.6,23.1z"/>
	<path class="st6" d="M17.3,23.6c0,0,0.1-0.1,0.1,0h0.1l0.1,0.1v0.1c0,0,0,0.1-0.1,0.1h-0.1l0,0l0,0h-0.1
		C17.2,23.9,17.2,23.7,17.3,23.6z"/>
	<path class="st6" d="M13.5,26.9L13.4,27c0,0.1-0.1,0.1-0.1,0.2c0,0,0,0,0,0.1h0.1c0.1,0,0.2-0.1,0.2-0.1l0.1-0.1l0,0V27l0,0
		C13.6,26.9,13.5,26.8,13.5,26.9z"/>
	<path class="st3" d="M24.2,30.6c-0.4-0.8-1.1-1.7-1.6-2.4c-0.6-0.8-1.3-1.6-1.9-2.3c-1.3-1.6-2.6-3-4-4.4c-2.9-3-5.4-6.1-7.6-9.5H9
		c0,0,0,0,0,0.1c2.1,3.4,4.6,6.6,7.3,9.4c1.4,1.5,2.8,3,4,4.4c0.6,0.8,1.4,1.6,2,2.4s1.2,1.6,1.7,2.4C24.1,30.9,24.3,30.7,24.2,30.6
		z"/>
	<path class="st3" d="M28,12.7c-0.4-0.1-1,0.2-1.3,0.4L25,13.7l-3.4,1.2c-2.1,0.7-4.2,1.6-6.2,2.4c-4.3,2-8,5-11.8,7.8v0.1
		c1.8-1.4,3.7-2.6,5.5-4c1.8-1.3,3.8-2.4,5.8-3.3c2-1,4.2-1.8,6.4-2.5l3.3-1.2l1.6-0.5l0.8-0.3l0.5-0.2c0.1-0.1,0.3-0.1,0.5-0.1
		C28.1,13,28.1,12.8,28,12.7z"/>
	<path class="st8" d="M4.1,24.5c0-0.1-0.2-0.1-0.2,0L3.6,25c-0.1,0.1-0.1,0.2,0,0.3c0.1,0.1,0.2,0.1,0.3,0c0.1,0,0.1-0.1,0.2-0.1
		c0-0.1,0-0.1,0-0.2l0.1-0.1C4.2,24.6,4.2,24.6,4.1,24.5z"/>
	<path class="st8" d="M28.2,12.5c-0.2,0.1-0.4,0.2-0.6,0.3c-0.1,0.1,0,0.2,0.1,0.2c0.1-0.1,0.3-0.1,0.5-0.1c0.1,0,0.2,0,0.3-0.1
		c0,0,0,0,0-0.1C28.5,12.6,28.4,12.5,28.2,12.5L28.2,12.5z"/>
	<path class="st8" d="M13.5,18.3c-0.1,0-0.1,0-0.2,0l-0.1,0.1L13,18.5c-0.2,0.1,0,0.4,0.2,0.3c0.2-0.1,0.3-0.1,0.4-0.2l0.1-0.1
		C13.6,18.4,13.5,18.3,13.5,18.3z"/>
	<path class="st8" d="M14.5,17.8c-0.2,0-0.5,0.1-0.7,0.2c-0.1,0.1-0.1,0.2-0.1,0.3s0.1,0.1,0.2,0.1c0.2,0,0.4-0.1,0.6-0.2
		c0.1,0,0.1-0.1,0.1-0.1C14.6,18,14.6,17.9,14.5,17.8C14.5,17.9,14.5,17.8,14.5,17.8z"/>
	<path class="st9" d="M10.4,11.4c-0.4-0.1-1-0.4-1.4-0.1c-0.1,0.1-0.1,0.1-0.2,0.2c-0.1,0-0.1,0.1-0.2,0.2c-0.2,0.3-0.3,0.6-0.3,1
		c0,0.2,0.1,0.3,0.2,0.4c0,0,0,0,0.1,0c0.2,0,0.3,0.1,0.5,0.1l0.1,0.1c0,0.1,0.1,0.1,0.2,0.1c0.1,0.2,0.2,0.3,0.4,0.2
		c0.1,0,0.2-0.1,0.2-0.2l0.6-1.6C10.7,11.6,10.6,11.4,10.4,11.4L10.4,11.4z"/>
	<path class="st8" d="M24.4,30.5c-0.1-0.1-0.2-0.2-0.3-0.3c-0.1-0.1-0.2-0.1-0.3,0c-0.1,0.1-0.1,0.2,0,0.3c0,0.1,0,0.1,0,0.2v0.1
		c0,0.1,0.1,0.1,0.2,0.2c0.1,0.1,0.2,0.1,0.3,0c0.1,0,0.1-0.1,0.1-0.2C24.4,30.7,24.5,30.6,24.4,30.5L24.4,30.5z"/>
	<g>
		
			<linearGradient id="SVGID_1_" gradientUnits="userSpaceOnUse" x1="34.8106" y1="543.9043" x2="34.8106" y2="543.9043" gradientTransform="matrix(1 0 0 1 0 -530.48)">
			<stop  offset="0" style="stop-color:#000000"/>
			<stop  offset="0.99" style="stop-color:#000000"/>
		</linearGradient>
		<path class="st10" d="M34.8,13.4L34.8,13.4L34.8,13.4z"/>
	</g>
</g>
</svg>
