<?xml version="1.0" encoding="utf-8"?>
<!-- Generator: Adobe Illustrator 23.1.0, SVG Export Plug-In . SVG Version: 6.00 Build 0)  -->
<svg version="1.1" id="Layer_1" xmlns="http://www.w3.org/2000/svg" xmlns:xlink="http://www.w3.org/1999/xlink" x="0px" y="0px"
	 viewBox="0 0 47 47" style="enable-background:new 0 0 47 47;" xml:space="preserve">
<style type="text/css">
	.st0{fill:#0A0A09;}
	.st1{fill:#FFC200;}
	.st2{fill:#474349;}
	.st3{fill:#888689;}
	.st4{fill:#6E6B70;}
	.st5{fill:#7A747F;}
	.st6{fill:#615C63;}
	.st7{fill:#5E5A60;}
	.st8{fill:#1A171C;}
	.st9{fill:#D1CBD8;}
	.st10{fill:#A29DAA;}
	.st11{fill:#2E2A35;}
	.st12{opacity:0.43;fill:#FDFAFF;enable-background:new    ;}
	.st13{fill:#444441;}
	.st14{fill:#ED423E;}
</style>
<title>HeavyToolUse</title>
<g>
	<g id="icons">
		<g id="Heavy_Tool_Use">
			<path class="st0" d="M22.2,18.9h-1.4v-9c0-0.9,0.7-1.6,1.6-1.6c0,0,0,0,0,0h9.4c0.8,0,1.5,0.7,1.5,1.5c0,0,0,0,0,0v4H32v-2.6
				c0-0.8-0.7-1.5-1.5-1.5c0,0,0,0,0,0h-6.6c-0.9,0-1.6,0.7-1.6,1.6c0,0,0,0,0,0L22.2,18.9z"/>
			<path class="st0" d="M5.3,23.7c0-0.5-0.1-0.9-0.2-1.3c0.3-3,0.8-5.8,0.8-5.8l-3.2,0.7c0,0,0.1,14,0.2,14.1C3,31.5,5.7,32,5,28.8
				c0.5-1,0.4-2.3-0.1-3.2C5.2,25,5.3,24.4,5.3,23.7z"/>
			<path class="st1" d="M14.4,17.2l-4-1.4H4.8c-1.9,0-3.4,1.5-3.4,3.4c0,0,0,0,0,0v10.1c0,1.9,1.5,3.4,3.4,3.5c0,0,0,0,0,0H29V19.1
				L14.4,17.2z M7.1,29.2c0,1.1-0.9,2-2,2h0l0,0c-1.1,0-2-0.9-2-2v-9.9c0-1.1,0.9-2,2-2c0,0,0,0,0,0l0,0c1.1,0,2,0.9,2,2V29.2z"/>
			<path class="st1" d="M29,19.1v13.7H8.2c3-5.2,6.2-10.3,9.8-15.1l5.5,0.7L29,19.1z"/>
			<path class="st1" d="M29,19.1v13.7H14.1c2.8-5,6-9.8,9.4-14.4L29,19.1z"/>
			<path class="st2" d="M41.5,32c0,0,0,0.1,0,0.1c0.3,0.2,0.8,0.7,1.1,0.9c-0.5,0-1-0.1-1.5-0.3c0,0-0.1,0-0.1,0l-0.4,0.4
				c0,0,0,0.1,0,0.1c0.3,0.3,0.7,0.8,0.9,1.1c-0.5-0.1-1-0.3-1.4-0.6c0,0-0.1,0-0.1,0l-0.5,0.4c0,0,0,0.1,0,0.1
				c0.2,0.3,0.5,0.9,0.7,1.2c-0.5-0.2-0.9-0.5-1.3-0.8c0,0-0.1,0-0.1,0L38,35c0,0,0,0.1,0,0.1c0.1,0.3,0.4,1,0.5,1.3
				c0,0-1.1-0.7-1.2-1c0,0-0.1,0-0.1,0l-0.6,0.2c0,0,0,0.1,0,0.1c0,0,0,0,0,0c0.1,0.4,0.2,1.1,0.3,1.4c0,0-0.9-0.8-1.1-1.2
				c0,0,0-0.1-0.1-0.1l-0.6,0.1c0,0-0.1,0-0.1,0.1c0,0,0,0,0,0c0,0.4,0,1.1,0,1.4c-0.3-0.4-0.6-0.8-0.8-1.3c0,0,0-0.1-0.1-0.1h-0.6
				c0,0-0.1,0-0.1,0.1c0,0.4-0.1,1.1-0.1,1.4c-0.3-0.4-0.5-0.9-0.6-1.4c0,0,0-0.1-0.1-0.1c0,0,0,0,0,0l-0.6-0.1c0,0-0.1,0-0.1,0.1
				c-0.1,0.4-0.3,1.1-0.4,1.3c-0.2-0.5-0.3-1-0.4-1.5c0,0,0-0.1-0.1-0.1l-0.6-0.2c0,0-0.1,0-0.1,0c-0.1,0.3-0.4,1-0.6,1.3
				c-0.1-0.5-0.2-1-0.1-1.5c0,0,0-0.1,0-0.1c0,0,0,0,0,0l-0.5-0.3c0,0-0.1,0-0.1,0c-0.2,0.3-0.6,0.9-0.8,1.2c-0.1-0.5,0-1,0.1-1.5
				c0,0,0-0.1,0-0.1L28,34c0,0-0.1,0-0.1,0c-0.2,0.3-0.7,0.8-0.9,1.1c0-0.5,0.1-1,0.3-1.5c0,0,0-0.1,0-0.1L26.8,33c0,0-0.1,0-0.1,0
				c-0.3,0.3-0.8,0.7-1.1,0.9c0.1-0.5,0.3-1,0.6-1.4c0,0,0-0.1,0-0.1l-0.5-0.5c0,0-0.1,0-0.1,0c-0.3,0.2-0.9,0.5-1.2,0.7
				c0.2-0.5,0.5-0.9,0.8-1.3c0,0,0-0.1,0-0.1l-0.3-0.5c0,0-0.1,0-0.1,0c-0.3,0.1-1,0.4-1.3,0.5c0,0,0.7-1.1,1-1.2
				c0,0,0.1-0.1,0.1-0.1l-0.2-0.6c0,0-0.1-0.1-0.1-0.1c-0.4,0.1-1.1,0.2-1.4,0.3c0,0,0.8-0.9,1.2-1.1c0,0,0.1,0,0.1-0.1L24,27.6
				c0,0,0-0.1-0.1-0.1c0,0,0,0,0,0c-0.4,0-1.1,0.1-1.4,0.1c0.4-0.3,0.8-0.6,1.3-0.8c0,0,0.1,0,0.1-0.1v-0.6c0,0,0-0.1-0.1-0.1
				c-0.4,0-1.1-0.1-1.4-0.1c0.4-0.3,0.9-0.5,1.4-0.6c0,0,0.1,0,0.1-0.1c0,0,0,0,0,0l0.1-0.6c0,0,0-0.1-0.1-0.1
				c-0.4-0.1-1.1-0.3-1.3-0.4c0.5-0.2,1-0.3,1.5-0.4c0,0,0.1,0,0.1-0.1l0.2-0.6c0,0,0-0.1-0.1-0.1c-0.3-0.1-1-0.4-1.3-0.6
				c0.5-0.1,1-0.1,1.5-0.1c0,0,0.1,0,0.1,0c0,0,0,0,0,0l0.3-0.5c0,0,0-0.1,0-0.1c-0.3-0.2-0.9-0.6-1.2-0.8c0.5-0.1,1,0,1.5,0.1
				c0,0,0.1,0,0.1,0l0.3-0.5c0,0,0-0.1,0-0.1c-0.3-0.2-0.8-0.7-1.1-0.9c0.5,0,1,0.1,1.5,0.3c0,0,0.1,0,0.1,0l0.4-0.4
				c0,0,0-0.1,0-0.1c-0.3-0.3-0.7-0.8-0.9-1.1c0.5,0.1,1,0.3,1.4,0.6c0,0,0.1,0,0.1,0l0.5-0.4c0,0,0-0.1,0-0.1
				c-0.2-0.3-0.5-0.9-0.7-1.2c0.5,0.2,0.9,0.5,1.3,0.8c0,0,0.1,0,0.1,0l0.5-0.3c0,0,0-0.1,0-0.1c-0.1-0.3-0.4-1-0.5-1.3
				c0,0,1.1,0.7,1.2,1c0,0,0.1,0.1,0.1,0.1l0.6-0.2c0,0,0.1-0.1,0.1-0.1c-0.1-0.4-0.2-1.1-0.3-1.4c0,0,0.9,0.8,1.1,1.2
				c0,0,0,0.1,0.1,0.1l0.6-0.1c0,0,0.1,0,0.1-0.1c0,0,0,0,0,0c0-0.4-0.1-1.1-0.1-1.4c0.3,0.4,0.6,0.8,0.8,1.3c0,0,0,0.1,0.1,0.1h0.6
				c0,0,0.1,0,0.1-0.1c0-0.4,0.1-1.1,0.1-1.4c0.3,0.4,0.5,0.9,0.6,1.4c0,0,0,0.1,0.1,0.1c0,0,0,0,0,0l0.6,0.1c0,0,0.1,0,0.1-0.1
				c0.1-0.4,0.3-1.1,0.4-1.3c0.2,0.5,0.3,1,0.4,1.5c0,0,0,0.1,0.1,0.1l0.6,0.2c0,0,0.1,0,0.1-0.1c0.1-0.3,0.4-1,0.6-1.3
				c0.1,0.5,0.2,1,0.1,1.5c0,0,0,0.1,0,0.1c0,0,0,0,0,0l0.5,0.3c0,0,0.1,0,0.1,0c0.2-0.3,0.6-0.9,0.8-1.2c0.1,0.5,0,1-0.1,1.6
				c0,0,0,0.1,0,0.1l0.5,0.3c0,0,0.1,0,0.1,0c0.2-0.3,0.7-0.8,0.9-1.1c0,0.5-0.1,1-0.3,1.5c0,0,0,0.1,0,0.1l0.4,0.4c0,0,0.1,0,0.1,0
				c0.3-0.3,0.8-0.7,1.1-0.9c-0.1,0.5-0.3,1-0.6,1.4c0,0,0,0.1,0,0.1l0.4,0.5c0,0,0.1,0,0.1,0c0.3-0.2,0.9-0.5,1.2-0.7
				c-0.2,0.5-0.4,0.9-0.7,1.3c0,0,0,0.1,0,0.1l0.3,0.5c0,0,0.1,0,0.1,0c0.3-0.1,1-0.4,1.3-0.5c0,0-0.7,1.1-1,1.2
				c0,0-0.1,0.1-0.1,0.1l0.2,0.6c0,0,0.1,0.1,0.1,0.1c0.4-0.1,1.1-0.2,1.4-0.3c0,0-0.8,0.9-1.2,1.1c0,0-0.1,0-0.1,0.1l0.1,0.6
				c0,0,0,0.1,0.1,0.1c0,0,0,0,0,0c0.4,0,1.1-0.1,1.4-0.1c-0.4,0.3-0.8,0.6-1.3,0.8c0,0-0.1,0-0.1,0.1v0.6c0,0,0,0.1,0.1,0.1
				c0.4,0,1.1,0.1,1.4,0.1c-0.4,0.3-0.9,0.5-1.4,0.6c0,0-0.1,0-0.1,0.1c0,0,0,0,0,0l-0.1,0.6c0,0,0,0.1,0.1,0.1
				c0.4,0.1,1.1,0.3,1.3,0.4c-0.5,0.2-1,0.3-1.5,0.4c0,0-0.1,0-0.1,0.1l-0.2,0.6c0,0,0,0.1,0.1,0.1c0.3,0.1,1,0.4,1.3,0.6
				c-0.5,0.1-1,0.2-1.5,0.1c0,0-0.1,0-0.1,0c0,0,0,0,0,0l-0.3,0.5c0,0,0,0.1,0,0.1c0.3,0.2,0.9,0.6,1.2,0.8c-0.5,0.1-1,0-1.6-0.1
				c0,0-0.1,0-0.1,0L41.5,32z"/>
			<path class="st3" d="M38.5,20.2c-3.3-2.7-8.1-2.2-10.8,1.1c-2.7,3.3-2.2,8.1,1.1,10.8s8.1,2.2,10.8-1.1c0,0,0,0,0,0
				C42.3,27.8,41.8,22.9,38.5,20.2z"/>
			<path class="st4" d="M38.8,20c-3.5-2.8-8.6-2.3-11.4,1.2s-2.3,8.6,1.2,11.4c3.5,2.8,8.5,2.3,11.4-1.2
				C42.7,27.9,42.2,22.8,38.8,20C38.8,20,38.8,20,38.8,20z"/>
			<path class="st5" d="M39.1,19.6c-3.7-3-9.1-2.4-12,1.2c-3,3.7-2.4,9.1,1.2,12c3.7,3,9.1,2.4,12-1.2C43.3,28,42.7,22.6,39.1,19.6
				C39.1,19.6,39.1,19.6,39.1,19.6z"/>
			<path class="st4" d="M38.8,20c-3.5-2.8-8.6-2.3-11.4,1.2s-2.3,8.6,1.2,11.4c3.5,2.8,8.5,2.3,11.4-1.2
				C42.7,27.9,42.2,22.8,38.8,20C38.8,20,38.8,20,38.8,20z"/>
			<circle class="st6" cx="33.6" cy="26.3" r="6.7"/>
			<path class="st3" d="M35.8,23.6c-1.5-1.2-3.6-1-4.8,0.5c-1.2,1.5-1,3.6,0.5,4.8c1.5,1.2,3.6,1,4.8-0.5
				C37.5,27,37.3,24.8,35.8,23.6C35.8,23.6,35.8,23.6,35.8,23.6z"/>
			<path class="st7" d="M35.1,24.5c-1-0.8-2.4-0.6-3.1,0.4s-0.6,2.4,0.4,3.1c0.9,0.7,2.3,0.6,3.1-0.3C36.2,26.7,36.1,25.3,35.1,24.5
				C35.1,24.5,35.1,24.5,35.1,24.5z"/>
			<path class="st8" d="M34.8,24.9c-0.8-0.6-1.9-0.5-2.5,0.3c-0.6,0.8-0.5,1.9,0.3,2.5c0.8,0.6,1.9,0.5,2.5-0.3
				C35.6,26.6,35.5,25.5,34.8,24.9z"/>
			<path class="st9" d="M36.1,14c-6.4-1.3-12.8,2.6-14.5,8.9h4.1c1.8-4.4,6.8-6.5,11.2-4.7c2.1,0.9,3.8,2.6,4.7,4.7h4.1
				C44.4,18.4,40.7,15,36.1,14z"/>
			<path class="st10" d="M33.6,16.1c-4.3,0-8.2,2.7-9.7,6.8h1.7c1.8-4.4,6.8-6.5,11.2-4.7c2.1,0.9,3.8,2.6,4.7,4.7h1.7
				C41.9,18.8,38,16.1,33.6,16.1z"/>
			<path class="st11" d="M33.6,16c-4.4,0-8.3,2.8-9.8,6.9h0.2c1.9-5.3,7.7-8,12.9-6.1c2.8,1,5.1,3.3,6.1,6.1h0.2
				C42,18.8,38,16,33.6,16z"/>
			<path class="st12" d="M42,17.1l-1.2,4.5c-0.2-0.4-0.5-0.7-0.8-1.1l1.1-4.2C41.5,16.5,41.7,16.8,42,17.1z"/>
			<path class="st9" d="M41.3,30.1c-2.1,4.2-7.3,6-11.5,3.8c-1.7-0.8-3-2.2-3.8-3.8h-4.2c2.1,6.6,9.1,10.2,15.7,8.1
				c3.8-1.2,6.8-4.2,8.1-8.1H41.3z"/>
			<path class="st10" d="M34,36.4c4-0.1,7.6-2.6,9.1-6.4h-1.8c-2.1,4.2-7.3,6-11.5,3.8c-1.7-0.8-3-2.2-3.8-3.8h-1.8
				C25.8,34,29.7,36.5,34,36.4z"/>
			<path class="st11" d="M43,30.1c-2.2,5.2-8.1,7.6-13.2,5.4c-2.5-1-4.4-3-5.4-5.4h-0.2c2.2,5.3,8.2,7.8,13.5,5.7
				c2.6-1,4.6-3.1,5.7-5.7H43z"/>
			<path class="st12" d="M41,36.3l-1.3-4.1c-0.5,0.5-1,0.9-1.6,1.3l1.2,3.8C39.9,37,40.5,36.7,41,36.3z"/>
			<path class="st12" d="M42.4,35.2L41,30.7c-0.2,0.4-0.5,0.7-0.8,1.1l1.3,4.2C41.8,35.7,42.1,35.4,42.4,35.2z"/>
			<path class="st5" d="M32.4,12.5h0.7c0.5,0,1,0.4,1,1l0,0v0.5l0,0h-2.6l0,0v-0.4c0-0.5,0.3-1,0.9-1.1
				C32.3,12.5,32.4,12.5,32.4,12.5z"/>
			<rect x="13.5" y="29.5" class="st0" width="1.9" height="1.7"/>
			<rect x="15.4" y="29.5" class="st13" width="1.9" height="1.7"/>
			<path class="st14" d="M15.8,28.3c0,0.2-0.2,0.4-0.4,0.4S15,28.5,15,28.3c0,0,0,0,0,0c0-0.2,0.2-0.4,0.4-0.4
				C15.6,27.9,15.8,28.1,15.8,28.3z"/>
		</g>
	</g>
</g>
</svg>
