<?xml version="1.0" encoding="utf-8"?>
<!-- Generator: Adobe Illustrator 23.1.0, SVG Export Plug-In . SVG Version: 6.00 Build 0)  -->
<svg version="1.1" id="icons" xmlns="http://www.w3.org/2000/svg" xmlns:xlink="http://www.w3.org/1999/xlink" x="0px" y="0px"
	 viewBox="0 0 47 47" style="enable-background:new 0 0 47 47;" xml:space="preserve">
<style type="text/css">
	.st0{fill:#334A61;}
	.st1{fill:#002438;}
</style>
<title>Hiking</title>
<g id="Hiking">
	<path class="st0" d="M35.1,42c-0.4-4.7-1.1-9.4-1.7-14.1c-0.4-3.3-0.8-6.6-1.3-9.9c-0.2-1.6-0.4-3.3-0.7-4.9c0-0.1,0-0.3-0.1-0.3
		s-1.1,0.1-1.1,0.4c0,0.2,0,0.3,0,0.5l0.2,1.2l0.1,0.9c0,0.2,0.2,0.8,0.1,1c-0.1,0-0.2,0.1-0.3,0.1l-0.2,0.1L30,16.9
		c-0.2,0-0.5,0-0.7,0C28.6,17,28,17,27.3,17.1c-0.3,0-0.2,0-0.3-0.2c-0.1-0.2-0.3-0.5-0.4-0.8c-0.5-1.1-0.9-2.3-1.1-3.5
		c-0.2-0.5-0.5-1-1-1.2c-0.1-0.1-0.7-0.3-0.7-0.4c0-0.4,0.1-0.7,0.2-1.1c0.3,0.1,1-0.1,1.3-0.3s0.5-0.6,0.7-1s0.9-0.3,0.9-0.9
		c0-0.5-0.3-0.9-0.3-1.3c-0.1-1-0.5-1.9-1.3-2.5c-0.4-0.3-0.9-0.4-1.3-0.4c-0.5,0-1.1,0.1-1.5,0.4c0-0.2,0-0.4-0.1-0.6
		c-0.1-0.2-0.3-0.2-0.5-0.3s-0.1-0.3-0.1-0.4c-0.1-0.2-0.2-0.4-0.4-0.4c-0.4-0.1-0.8,0-1,0.3c-0.1,0.2-0.2,0.3-0.3,0.5
		C19.8,3,19.6,3,19.5,3.2s0,0.6-0.3,0.9S18.7,4.7,19,5.1c0.1,0.2,0.3,0.2,0.5,0.3c0.2,0.1,0.3,0.2,0.4,0.4c0.2,0.4,0.4,0.6,0.9,0.5
		C20.7,7.3,21.1,8.3,22,9c0.4,0.5,0.3,0.7,0.2,1.3c0,0.3,0,0.3-0.3,0.4c-0.3,0.1-0.7,0.1-1,0.3c0-0.6,0.3-1.1,0.1-1.7
		c-0.2-0.6-0.8-0.5-1.1-0.9c-0.2-0.2-0.2-0.5-0.4-0.8c-0.2-0.2-0.4-0.3-0.7-0.4C18.2,7,17.6,6.9,17,6.9c-1,0-2.4,0.5-2.8,1.5
		C14,9,14,9.6,14.2,10.2c0.1,0.3,0.1,0.5,0.1,0.8c-0.1,0.3-0.4,0.5-0.6,0.7c0.2-0.1-0.2,0.3-0.2,0.3c-0.1,0.2-0.2,0.4-0.3,0.6
		c-0.1,0.4-0.1,0.8-0.1,1.2c0,0.4,0.1,0.7,0.1,1.1s-0.1,0.4-0.4,0.6c-0.8,0.3-1.2,1.2-0.9,2c0.3,0.8,0.7,1.5,1.3,2.1
		c0.5,0.6,0.7,1.5,0.4,2.2c-0.2,0.8-0.2,1.7,0.1,2.5c0.7,1.6,2.5,2.4,4.1,1.8c0.1,0.3,0.2,0.6,0.4,0.9c0.1,0.1,0.2,0.2,0.3,0.4
		c0.1,0.1,0.1,0.1,0.1,0.4c-0.2,0.7-0.2,1.4-0.3,2.1c-0.4,1.3-1,2.6-1.8,3.8c-0.3,0.6-0.7,1.2-1.1,1.7c-0.4,0.5-1,1-1.4,1.5
		c-0.5,0.5-0.8,1.1-1.1,1.8c-0.1,0.3-0.2,0.6-0.3,0.9s-0.1,0.4-0.1,0.6c0,0.2,0,0.4-0.1,0.6c-0.1,0.2-0.3,0.3-0.4,0.5
		c-0.1,0.3-0.1,0.6,0,0.8c0.2,0.5,0.9,0.7,1.2,1.2s0.4,1,0.9,1.3c0.5,0.2,1.1,0.2,1.6,0c0.5-0.2,0.5-0.8,0.2-1.2
		c-0.2-0.2-0.4-0.3-0.6-0.5c-0.2-0.3-0.4-0.6-0.4-0.9c-0.1-0.7,0.3-1.1,0.7-1.7c0.4-0.6,0.8-1.2,1.1-1.8c0.9-1.4,2-2.7,2.9-4
		c1-1.1,1.8-2.4,2.4-3.7c0.4,0.5,0.6,1.1,0.7,1.7c0,0.6,0,1.3,0,1.9c0.1,1.3,0.6,2.5,1.3,3.6c0.3,0.6,0.6,1.1,1,1.6
		c0.2,0.2,0.3,0.5,0.3,0.8c0,0.3,0,0.7,0.1,1c0.1,0.6,0.2,1.3,0.3,1.9c0,0.5,0.2,1,0.6,1.3c1.1,0.6,2.7,0.2,3.8,0
		c0.5-0.1,1-0.2,1.1-0.7c0.1-0.5-0.3-1-0.8-1.1c0,0,0,0,0,0c-0.5-0.1-1.1,0.1-1.5-0.3c-0.1-0.2-0.3-0.4-0.3-0.6
		c-0.1-0.1-0.1-0.2-0.2-0.3c0-0.1,0-0.3,0-0.5c-0.3-1.2-0.9-2.4-1.2-3.6c-0.3-1.5-0.5-3-0.5-4.5c0-0.7-0.1-1.5-0.3-2.2
		c-0.2-0.6-0.4-1.3-0.7-1.9c0.1,0.2-0.2-0.4-0.2-0.4c-0.1-0.2-0.3-0.4-0.4-0.6c-0.2-0.4-0.4-0.7-0.6-1.1c-0.4-0.7-0.6-1.6-0.5-2.4
		c0.1-0.1,0.2-0.3,0.3-0.5s0.2-0.4,0.3-0.6c0.1-0.4,0.3-0.8,0.4-1.1c0.2-0.9,0.4-1.9,0.5-2.8c0.2,0.4,0.4,1.1,0.9,1.4
		s1.2-0.2,1.7-0.3c0.7-0.2,3.1-0.2,2.6-1.5c0.2,0.1,0.3,0.1,0.4,0.2c0.1,0.2,0.1,0.4,0.1,0.6l0.2,1.2l0.4,2.5c0.2,1.3,0.4,2.7,0.6,4
		c0.1,0.9,0.3,1.9,0.4,2.8c0.6,3.5,1.2,7,1.7,10.6c0.1,0.6,0.2,1.2,0.3,1.8c0,0.2,0,0.4,0.2,0.5C35.4,43.4,35.1,42.2,35.1,42z"/>
	<path class="st1" d="M23.5,37.2"/>
	<path class="st1" d="M25.9,29.6L25.9,29.6L25.9,29.6z"/>
</g>
</svg>
