<?xml version="1.0" encoding="utf-8"?>
<!-- Generator: Adobe Illustrator 23.1.0, SVG Export Plug-In . SVG Version: 6.00 Build 0)  -->
<svg version="1.1" id="icons" xmlns="http://www.w3.org/2000/svg" xmlns:xlink="http://www.w3.org/1999/xlink" x="0px" y="0px"
	 viewBox="0 0 47 47" style="enable-background:new 0 0 47 47;" xml:space="preserve">
<style type="text/css">
	.st0{fill:#334A61;}
</style>
<title>HIIT(High Intensity Interval Training)</title>
<ellipse class="st0" cx="23.4" cy="5.2" rx="3.7" ry="3.7"/>
<path class="st0" d="M42.6,9.5H4.2C3.4,9.5,2.9,10.2,3,10.9c0.1,0.6,0.6,1.2,1.2,1.2H19v13.5l-5.5,4.9c-0.7,0.7-1.2,1.6-1.2,2.6
	v10.4c-0.1,1.1,0.7,2.1,1.8,2.1c1.1,0.1,2.1-0.7,2.1-1.8c0-0.1,0-0.2,0-0.3v-9.4c0-0.5,0.2-0.9,0.5-1.2l5-4.4h3.3l4.9,4.4
	c0.3,0.3,0.5,0.7,0.5,1.2v9.5c0,1.1,0.9,2,2,2c1.1,0,2-0.9,2-2V33.2c0-1-0.4-2-1.2-2.7l-5.5-4.9V12.1h14.7c0.7,0,1.3-0.6,1.3-1.3
	C44,10.1,43.4,9.5,42.6,9.5z"/>
</svg>
