<?xml version="1.0" encoding="utf-8"?>
<!-- Generator: Adobe Illustrator 23.1.0, SVG Export Plug-In . SVG Version: 6.00 Build 0)  -->
<svg version="1.1" id="icons" xmlns="http://www.w3.org/2000/svg" xmlns:xlink="http://www.w3.org/1999/xlink" x="0px" y="0px"
	 viewBox="0 0 47 47" style="enable-background:new 0 0 47 47;" xml:space="preserve">
<style type="text/css">
	.st0{fill:#910000;}
	.st1{fill:#333333;}
	.st2{fill:#006691;}
	.st3{fill:#FFFFFF;}
</style>
<title>Hockey</title>
<path class="st0" d="M32.1,39.4L3,3.2L3.2,3L2.7,2.4L1.1,3.7l0.5,0.6l0.2-0.2L30.6,40C31.2,40.2,31.9,39.9,32.1,39.4z"/>
<path class="st1" d="M30.6,40l2.3,2.8c0.6,0.5,1.3,0.9,2.1,1l0,0H35l0.4,0.1h0.1l0.6,0.1l0,0h0.4l0,0l0.8,0.1h0.1H38l0,0h0.6H39
	c0.3,0,0.6,0,0.9,0h0.6c0.6,0,1.2,0,1.7,0h0.1h0.6l0,0h0.5h0.1c0.6-0.1,1.1-0.2,1.6-0.5c1.3-1.2,1.3-3.4-0.3-3.1
	c-0.3,0-0.7,0.1-1.3,0.2l-0.5,0.1l0,0h-0.6l0,0l-0.9,0.1l0,0h-0.4h-0.1h-0.7h-0.4h-0.9h-1.7h-0.7h-0.2l0,0l-0.5,0.2l0,0L35,40.9l0,0
	c-1.1-0.2-2.1-0.8-2.9-1.6L30.6,40z"/>
<path class="st2" d="M15,39.4L44.2,3.2L44,3l0.5-0.6l1.6,1.3l-0.5,0.6l-0.2-0.2L16.5,40C15.9,40.2,15.3,39.9,15,39.4z"/>
<path class="st1" d="M15,39.4c-0.8,0.8-1.8,1.3-2.8,1.6l0,0l-0.6,0.2l0,0L11,41.2l0,0h-0.3h-0.7H8.2H7.3H6.9H6.2H6.1H5.7l0,0
	l-0.9-0.1l0,0H4.2l0,0L3.7,41c-0.6,0-1-0.1-1.3-0.2c-1.6-0.3-1.7,1.9-0.3,3.1c0.5,0.3,1.1,0.5,1.6,0.5h0.1h0.5l0,0h0.6H5
	c0.5,0,1.1,0,1.7,0h0.6c0.3,0,0.6,0,0.9,0h0.3H9l0,0h0.6h0c0.3,0,0.5-0.1,0.8-0.1l0,0h0.4l0,0l0.6-0.1h0.2l0.4-0.1h0.1l0,0
	c0.8-0.1,1.5-0.5,2.1-1l2.3-2.8L15,39.4z"/>
<path d="M27,42.9c0,0.7-1.5,1.3-3.4,1.3c-1.9,0-3.4-0.6-3.4-1.3s1.5-1.3,3.4-1.3C25.4,41.6,27,42.2,27,42.9z"/>
<rect x="20.2" y="41.6" width="6.8" height="1.3"/>
<path d="M27,41.6c0,0.7-1.5,1.3-3.4,1.3c-1.9,0-3.4-0.6-3.4-1.3s1.5-1.3,3.4-1.3C25.4,40.3,27,40.8,27,41.6z"/>
<path class="st3" d="M25.2,40.9c0,0,0.6,0.5,0.2,0.8c-0.9,0.4-1.9,0.7-2.9,0.8c0,0,4.1,0.2,4-0.7C26.5,41.1,25.5,40.9,25.2,40.9z"/>
</svg>
