<?xml version="1.0" encoding="utf-8"?>
<!-- Generator: Adobe Illustrator 23.1.0, SVG Export Plug-In . SVG Version: 6.00 Build 0)  -->
<svg version="1.1" id="icons" xmlns="http://www.w3.org/2000/svg" xmlns:xlink="http://www.w3.org/1999/xlink" x="0px" y="0px"
	 viewBox="0 0 47 47" style="enable-background:new 0 0 47 47;" xml:space="preserve">
<style type="text/css">
	.st0{fill:#BBBDBF;}
	.st1{fill:#FDBD10;}
	.st2{fill:#929497;}
	.st3{fill:#E07E1C;}
</style>
<title>HomeRepair</title>
<path class="st0" d="M36.4,9.8L36,7.3l3-5.3c0,0-3.8-0.4-8.9,5.6L36.4,9.8z"/>
<path class="st1" d="M8.6,43.8l22.7-23.9l-4.9-4.8l-24,22.5l0,0c-1.7,1.7-1.7,4.5,0,6.2C4,45.5,6.8,45.5,8.6,43.8L8.6,43.8z"/>
<path class="st0" d="M45.9,12.8c-0.5-2.9-1.3-5.8-2.2-8.6l-2.6,5.5l-3.1,0.7l-9.5-3.7l-2.3,8.3l4.9,4.8l11.7-3.4
	C42.9,16.5,46.2,15.6,45.9,12.8z"/>
<polygon class="st2" points="34.3,16.7 28.4,14.5 30.3,9.5 36.2,11.7 "/>
<path class="st0" d="M29.8,14.3c-0.1,0.2-0.3,0.3-0.4,0.2c0,0,0,0,0,0l0,0c-0.2-0.1-0.3-0.3-0.2-0.4c0,0,0,0,0,0l1.4-3.7
	c0.1-0.2,0.3-0.3,0.5-0.2c0,0,0,0,0,0l0,0c0.2,0.1,0.3,0.3,0.2,0.4L29.8,14.3z"/>
<path class="st0" d="M30.9,14.8c-0.1,0.2-0.3,0.3-0.4,0.2c0,0,0,0,0,0l0,0c-0.2-0.1-0.3-0.3-0.2-0.4c0,0,0,0,0,0l1.4-3.7
	c0.1-0.2,0.3-0.3,0.5-0.2l0,0c0.2,0.1,0.3,0.3,0.2,0.5L30.9,14.8z"/>
<path class="st0" d="M31.9,15.2c-0.1,0.2-0.3,0.3-0.5,0.2l0,0c-0.2-0.1-0.3-0.3-0.2-0.4l1.4-3.7c0.1-0.2,0.3-0.3,0.5-0.2l0,0
	c0.2,0.1,0.3,0.3,0.2,0.4c0,0,0,0,0,0L31.9,15.2z"/>
<path class="st0" d="M33,15.6c-0.1,0.2-0.3,0.3-0.4,0.2c0,0,0,0,0,0l0,0c-0.2,0-0.3-0.2-0.2-0.4c0,0,0-0.1,0-0.1l1.5-3.6
	c0.1-0.2,0.3-0.3,0.5-0.2l0,0c0.2,0.1,0.3,0.3,0.2,0.5L33,15.6z"/>
<path class="st0" d="M34.1,16c-0.1,0.2-0.3,0.3-0.5,0.2l0,0c-0.2-0.1-0.3-0.3-0.2-0.4l1.4-3.7c0.1-0.2,0.3-0.3,0.5-0.2l0,0
	c0.2,0.1,0.3,0.3,0.2,0.4L34.1,16z"/>
<path class="st3" d="M8,42.5c-0.7,0.7-2.2,2.3-4.3,0.2l0,0c-1.9-1.9-0.5-3.6,0.2-4.3l21.3-19.7c0.7-0.7,1.8-0.7,2.5,0l0,0
	c0.7,0.7,0.7,1.8,0,2.5c0,0,0,0,0,0L8,42.5z"/>
<path class="st1" d="M26.5,20c-0.3-0.3-0.9-0.3-1.2,0L5.1,38.7c-1,1-1.1,1.8-0.2,2.7l0.2,0.2c0.3,0.3,0.6,0.4,1,0.5
	c0.6-0.1,1.1-0.4,1.4-0.8l1.4-1.4l17.4-18.6C26.8,20.9,26.8,20.4,26.5,20C26.5,20,26.5,20,26.5,20z"/>
</svg>
