<?xml version="1.0" encoding="utf-8"?>
<!-- Generator: Adobe Illustrator 23.1.0, SVG Export Plug-In . SVG Version: 6.00 Build 0)  -->
<svg version="1.1" id="icons" xmlns="http://www.w3.org/2000/svg" xmlns:xlink="http://www.w3.org/1999/xlink" x="0px" y="0px"
	 viewBox="0 0 47 47" style="enable-background:new 0 0 47 47;" xml:space="preserve">
<style type="text/css">
	.st0{fill:#3F2B2B;}
	.st1{fill:#433435;}
	.st2{fill:#CCCCCC;}
	.st3{fill:#564A4E;}
	.st4{fill:#BAAE98;}
	.st5{fill:#285A70;}
	.st6{fill:#8E5151;}
	.st7{fill:#FFFFFF;}
	.st8{fill:#EDAA98;}
	.st9{fill:#FFBFA9;}
	.st10{fill:#447799;}
	.st11{fill:#366A87;}
	.st12{fill:#EDE6CF;}
</style>
<title>HorsebackRiding</title>
<g id="Horseback_Riding">
	<path class="st0" d="M2.2,14.3c-0.1-0.8-0.1-1.6,0-2.4C2.5,10.7,2.6,10,2.6,10c0.5,0.5,0.8,1.2,0.8,1.9c0.1,0.8,0.1,1.6,0,2.4
		L2.2,14.3z"/>
	<path class="st0" d="M37,21.5c0.8-0.3,1.7-0.3,2.5,0c2.2,0.9,3.9,2.9,4.2,5.3c0.2,2.6,0.2,5.2,0.7,6.3c0.4,0.7,1,1.3,1.7,1.7h-1.5
		l1.5,1.1c-0.9,0.9-2.5,0.9-3.4,0c-0.4-0.4-3.2,0.6-2.7-9.2c0-0.7,0.5-2.8-0.4-3.4c-0.7-0.4-1.4-0.6-2.2-0.6L37,21.5z"/>
	<path class="st1" d="M31.7,42.4c-0.5,0.4-0.8,1.1-0.8,1.8h2c0.2-0.4,0.3-0.8,0.5-1.1l0,0c-0.5-0.2-1-0.5-1.4-0.8
		C31.9,42.3,31.8,42.3,31.7,42.4z"/>
	<path class="st1" d="M37.1,27.6c0.5-1.5,0.8-3.1,0.9-4.7l-7.6,3.6c0,0,0.5,2.1,1,4.5c0.5,1.8,1.4,3.5,2.6,5c0.1,0.5,0.1,1,0,1.5
		l2.3,0.4c0.3-0.9,0.6-1.9,0.3-2.4c-0.3-0.6-0.6-1.1-1-1.7C35,33,34.9,31.9,35.3,31C36,29.9,36.6,28.8,37.1,27.6z"/>
	<path class="st2" d="M33.3,40.4c-0.2,0.7-0.6,1.3-1.2,1.7c0.4,0.3,0.9,0.6,1.4,0.8c0.3-0.4,0.8,0,1.3-0.9c0.5-1,0.9-2,1.1-3.1
		c0.1-0.3,0.2-0.7,0.3-1.1L34,37.4C33.8,38.5,33.4,39.9,33.3,40.4z"/>
	<path class="st1" d="M9.8,37.5c0.3,0.4,0.6,0.9,0.9,1.3c0.3,0.2,0.7,0.4,1.1,0.4v-2.3c-0.3-0.1-0.6-0.2-0.8-0.4
		C10.7,36.9,10.3,37.3,9.8,37.5z"/>
	<path class="st1" d="M12,30.1c0.7-0.8,1.3-1.7,1.8-2.6l-2.7-1.9c-0.7,1.4-1.5,2.8-2.4,4.1c-0.9,1.2-1.7,2.1-2.1,2.5
		c-0.3,0.5-0.4,1.1,0.3,1.7c0.1,0.1,0.2,0.2,0.2,0.3c0.6-0.1,1.2-0.4,1.6-0.9c-0.1-0.2-0.2-0.4-0.1-0.4C9,32.6,11,31.1,12,30.1z"/>
	<path class="st2" d="M9.3,37c0.2,0.2,0.4,0.4,0.5,0.5c0.4-0.3,0.8-0.6,1.1-0.9c0.2-0.5,0.1-1.1-0.3-1.5c-0.7-0.5-1.3-1.2-1.8-1.8
		c-0.4,0.4-1,0.7-1.6,0.9C7.8,35.2,8.5,36.1,9.3,37z"/>
	<path class="st3" d="M33.5,18.1c-3.4-1-7.2,0-9.3,0c-2.8-0.4-5.6-0.9-8.3-1.5l0,0c-2-1.5-4.2-2.7-6.5-3.7c-1.5-0.4-3.1-0.5-4.7-0.2
		c-1.6,0.3-3,1-3.3,2.2C1.1,15.4,1,15.9,1,16.4c0,0.6,0.1,1.2,0.3,1.7c0.2,0.8,0.5,4.3,0.7,5.3c0.2,1,1.5,0.9,1.8,0.6
		c0.3,0.2,0.7,0.1,1-0.2c0,0,0,0,0,0c0.3-0.4,0.4-0.9,0.4-1.4c0-0.7,0.5-1.1,0.9-2.4c0.2-0.6,0.3-1.2,0.4-1.8
		c0.7,0.7,1.3,1.6,1.6,2.6C8,22,8.3,23.3,8.6,24.5c0.3,1.3,1,2.6,2,3.5c2.1,1.4,6.7,2.3,10.1,2.4c2.5,0.2,4.9-0.2,7.2-1
		c1.3-0.5,4.5,0.9,5.9,0.5c1.5-0.4,2.6-2.4,3.9-5.5C38.8,21.8,36.9,19.1,33.5,18.1z"/>
	<path class="st4" d="M18.1,13.1l-0.9,0.2c-0.5,0.1-0.6,0.2-0.6,0.7c0.1,0.5,1.8-0.5,1.8-0.5L18.1,13.1z"/>
	<path class="st3" d="M15.4,35.8c0.4-1.7,0.6-3.5,0.6-5.3c0-1.5,0-3.8,0-3.8h-2.8c-0.1,1.1-0.1,2.1,0,3.2c0.2,1.7,0.4,3.3,0.5,5
		c0,0.5,0,1.5,0,2.5h1.6C15.2,36.9,15.3,36.4,15.4,35.8z"/>
	<path class="st3" d="M12.2,42.7c-0.3,0.4-0.5,0.9-0.6,1.5h2.1c0.1-0.3,0.2-0.6,0.4-0.8c-0.6-0.3-1.1-0.6-1.6-0.9
		C12.4,42.5,12.3,42.6,12.2,42.7z"/>
	<path class="st2" d="M14.2,43.2c0.5-0.4,1.2-1,1.2-1.8c0-0.6-0.1-2.4-0.1-3.9h-1.6c0,1,0,2,0,2.7c0,0.9-0.4,1.7-1.1,2.3
		c0.5,0.4,1,0.7,1.6,0.9C14.1,43.3,14.2,43.3,14.2,43.2z"/>
	<path class="st3" d="M29.7,26.8l-1.2,2.4c0,1,0.2,2,0.6,2.9c0.5,1.1,0.9,2.2,1.1,3.4l0,0l1.9,1.7c0.4-0.3,0.6-0.5,0.6-0.8
		c0-0.3-0.6-2.9-0.7-3.5c-0.4-0.8-0.1-1.8,0.7-2.2c1.1-0.9,2.5-1.1,3.5-3.1C37.2,25.6,29.7,26.8,29.7,26.8z"/>
	<path class="st3" d="M25.5,39.8c-0.1,0.6-0.1,1.3,0.1,1.9c0.7-0.3,1.4-0.6,2.1-0.8c-0.1-0.4-0.2-0.7-0.3-1.1
		c-0.5-0.2-0.9-0.5-1.4-0.8C25.8,39.2,25.6,39.5,25.5,39.8z"/>
	<path class="st2" d="M27,38c-0.4,0.3-0.7,0.6-1,0.9c0.4,0.3,0.9,0.6,1.4,0.8c0,0,2.2-1.2,3.1-1.7c0.6-0.3,1.2-0.6,1.7-0.9l-1.9-1.7
		C29.2,36.4,28.1,37.3,27,38z"/>
	<path class="st5" d="M21,11.5c0-0.1-3.1,1.4-3.1,1.4l0.1,0.6l3.3-1.1L21,11.5z"/>
	<path class="st6" d="M13.8,15.1c0,0,1.2-0.3,1.7-0.5c0.5-0.2,1-0.4,1.6-0.5c0.3,0-0.1,0.4-0.1,0.4c-0.6,0.3-1.1,0.5-1.7,0.7
		L14,15.4L13.8,15.1z"/>
	<path class="st0" d="M3.5,12.5l0.9-0.5c0.3-0.3,0.8-0.2,1.1,0.1c0.4,0.4,0.8-0.2,1.5-0.2c0.4,0,0.8,0.8,1,0.6
		c0.2-0.2,1.1-0.7,1.5,0.1c0.4,0.6,0.5,0.6,1.1,0.6c0.6,0,1-0.2,1.3,0.5c0.2,0.7,0.4,0.8,1,0.8c0.7-0.1,1.1-0.1,1.4,0.7
		c0.2,0.6,0.3,0.9,1,0.6c0.7-0.3,1.2-0.1,1.5,0.6C17,16.7,17,17,17,17.4c-1.2-0.3-2.4-0.8-3.5-1.4c-1.8-1.2-3.8-2.1-5.8-2.6
		c-1.1-0.2-2.3-0.2-3.5-0.2L3.5,12.5z"/>
	<path class="st3" d="M2.9,14.3c-0.1-0.8-0.1-1.6,0-2.4C3.2,10.7,3.2,10,3.2,10s0.7,0.2,0.9,1.7c0.1,0.9,0.1,1.8-0.1,2.6H2.9z"/>
	<path class="st0" d="M2.1,13.1c-0.4,0.3-0.7,0.7-1,1.1c-0.3,0.7-0.5,1.5-0.4,2.3h0.6c0.1-0.6,0.2-1.2,0.3-1.7
		c0.3-0.6,0.7-1.1,1.1-1.6L2.1,13.1z"/>
	<path class="st7" d="M17,16.8c0,0,0.1,3,0,4.7c-0.1,1.7,0.4,3.1,3.1,3.5c1.6,0.3,3.2,0.4,4.8,0.1c1.5-0.3,1.9-1.1,2-3.1
		c0.1-1.4,0.1-2.8,0-4.2c-1.3-0.2-2.6-0.4-4-0.5C20.6,17.3,17,16.8,17,16.8z"/>
	<path class="st4" d="M18.3,21.6c0,0-0.2,1.8,1.4,2.1c1.6,0.2,3.2,0.2,4.8,0c1.1-0.2,1.1-2,1.1-3.5c0-1.4,0-2.9,0-2.9l-7.3-0.8
		L18.3,21.6z"/>
	<path class="st0" d="M18,16.8c0,0-0.1,2.1-0.1,3.2s-0.2,2.7,1.8,3c2.4,0.4,2.6-2.3,2.6-2.9l0.1-0.8c0.6,0.1,1.2,0.2,1.8,0.2
		c1.1,0,1.6-2.1,1.6-2.1s-4.3-0.7-5.2-0.9C19.6,16.2,18.7,16.4,18,16.8z"/>
	<path class="st0" d="M2.2,18.1c-0.1-0.2,0-0.5,0.1-0.6c0.2-0.2,0.5-0.3,0.8-0.3c0,0,0.2,0.5-0.1,0.8C2.8,18.1,2.5,18.1,2.2,18.1z"
		/>
	<path class="st0" d="M1.8,22.5c0.5-0.1,1.1-0.2,1.6-0.3c0.5,0,1.1,0.1,1.6,0.2l0.1-0.5c-0.6-0.1-1.3-0.2-1.9-0.1
		c-0.5,0-1,0.1-1.5,0.3L1.8,22.5z"/>
	<path class="st0" d="M0.7,16c0.5-0.1,1-0.2,1.4-0.3c0.8,0,1.7,0.1,2.5,0.2v-0.7c-0.9-0.1-1.8-0.1-2.8-0.1c-0.4,0-0.8,0.1-1.1,0.2
		L0.7,16z"/>
	<path class="st7" d="M4.3,22.7c-0.4,0-0.7-0.3-0.7-0.7c0,0,0,0,0,0c0-0.4,0.3-0.7,0.7-0.7C4.7,21.3,5,21.6,5,22
		C5,22.4,4.7,22.7,4.3,22.7C4.3,22.7,4.3,22.7,4.3,22.7z M4.3,21.5c-0.3,0-0.5,0.2-0.5,0.5c0,0.3,0.2,0.5,0.5,0.5
		c0.3,0,0.5-0.2,0.5-0.5c0,0,0,0,0,0C4.8,21.8,4.6,21.5,4.3,21.5C4.3,21.5,4.3,21.5,4.3,21.5L4.3,21.5z"/>
	<path class="st0" d="M4.3,13.5c0,0.7,0.2,1.8,0.1,3.1s-0.4,5-0.4,5h0.5c0,0,0.3-3.2,0.5-4.8c0.2-1.3-0.1-2.7-0.7-3.9
		C4.2,13.1,4.2,13.3,4.3,13.5z"/>
	<polygon class="st0" points="19.9,22.6 19.9,24.8 20.3,24.8 20.3,22.9 	"/>
	<path class="st0" d="M19.6,24.3c0,0-0.1,2.7-0.3,3.6c-0.2,0.8-0.4,1.5-0.8,2.3l1.1,0.1c0.4-0.7,0.7-1.5,0.9-2.3
		c0.2-1.1,0.2-2.3,0.2-3.5L19.6,24.3z"/>
	<path class="st1" d="M22.9,5.4c0,0,0,1,0.5,1.2c0.5,0.3,1.1-0.4,1.1-0.7c0-0.5-0.3-0.9-0.7-1L22.9,5.4z"/>
	<path class="st8" d="M22.1,8c0.1-0.5,0.1-1.1,0-1.6c0.1-0.3,1-0.8,1-0.8v0.7c0.1,0.5,0.2,0.9,0.4,1.3C23.3,8,22.5,7.9,22.1,8z"/>
	<path class="st9" d="M23.3,5.4c-0.2,0.7-0.9,1.2-1.7,1.2c-0.6-0.5-0.9-1.3-0.6-2c0.3-0.9,1-1.4,1.7-1.2C23.5,3.7,23.7,4.6,23.3,5.4
		z"/>
	<path class="st3" d="M23.1,6.3c-0.3-0.6,0.1-1.1,0.1-1.3c0-0.2-0.1-0.4-0.2-0.4s-0.4,0.2-0.4,0.2c-0.2-0.1-0.4-0.3-0.5-0.5
		c-0.2-0.3-0.8-0.1-0.8-0.4c0-0.2-0.2-1,1.3-1c0.6-0.1,1.1,0.2,1.3,0.8c0.1,0.6,0.1,1.2-0.2,1.7C23.5,5.7,23.3,6,23.1,6.3z"/>
	<path class="st7" d="M20.9,13.6c-0.2,0.5-0.3,1.1-0.2,1.6l-2,3.6c-0.3,0.5-0.4,1.1-0.2,1.6c0.2,0.5,1.4,0.3,1.4,0.3s2-1.7,2.8-2.5
		c0.8-0.8,1.6-1.2,1.6-2.8C24.3,13.9,21.6,13,20.9,13.6z"/>
	<path class="st10" d="M20.7,9.3c0.5-0.6,1-1.1,1.6-1.6c0.4-0.2,0.8-0.4,1.2-0.5c0.3,0.3,0.5,0.6,0.6,1c0.1,0.8,0,1.5-0.3,2.3
		c-0.6,2.7,0.3,2.1,0.9,4.1c0.5,1.3,1.5,2.3,2.8,2.8c-0.1,0.3-0.5,1-1.1,1c-1.5-0.7-2.9-1.6-4-2.8l-1.8-1.6c0.2-1,0.2-2.1,0.2-3.1
		C20.6,10.1,20.3,9.8,20.7,9.3z"/>
	<path class="st3" d="M20.8,4.1c0.3,0.2,0.6,0.3,1,0.4c0.3,0.1,0.6,0.2,1,0.4l-0.1-0.7l-1.1-0.8C21.2,3.5,20.9,3.8,20.8,4.1z"/>
	<path class="st11" d="M23.2,6.7C22.6,7,22,7.5,21.4,8c-0.4,0.4-0.7,0.9-0.8,1.4l1.1-1c0.5-0.4,1.1-0.8,1.7-1.1L23.2,6.7z"/>
	<path class="st6" d="M20.8,26.4c0,0-0.6-2-0.9-3.3h-0.3c0.2,1.2,0.5,2.3,0.9,3.4C20.8,27,20.8,26.4,20.8,26.4z"/>
	<path class="st10" d="M19.9,19.4c-0.2,0.2-0.4,0.7-0.6,0.8c-0.2,0.1-0.5,0.2-0.8,0.2c0.3,0.9,0.7,1.7,1.2,2.6
		c0.4,0.7,1.1,2.3,1.2,2.5c0.2,0.4-0.1,0.8-0.4,1.1c-0.3,0.3-0.6,0.6-0.8,0.8c-0.1,0.2-0.1,0.4,0,0.6c0.5,0,1-0.2,1.5-0.5
		c0.5-0.4,0.9-0.9,1-0.8c0.1,0.1,0.8-0.5,0.8-0.5s-0.3-0.8-0.6-1.3s-0.7-2.6-0.9-3.4c-0.2-0.6-0.5-1.2-0.7-1.7
		C20.4,19.2,20,19.3,19.9,19.4z"/>
	<path class="st12" d="M20.3,26.2c0.1,0.4,0.3,0.8,0.5,1.1c0.1,0.2,0.2,0.4,0.3,0.6l0.6-0.5l-0.9-1.6L20.3,26.2z"/>
	<path class="st6" d="M4.7,22c0,0,6.6-3.4,9.1-4.7c1.4-0.8,2.8-1.7,4-2.9L17,14.6c-1.1,0.9-2.3,1.8-3.5,2.6
		c-1.3,0.8-8.8,4.6-8.8,4.6L4.7,22z"/>
	<path class="st7" d="M18.2,13.3l-0.8,0.2c-0.3,0.1-0.5,0.2-0.7,0.4c-0.1,0.1-0.1,0.2,0,0.3c0,0,0,0,0,0c-0.1,0-0.1,0.1-0.1,0.2
		c0,0.1,0.1,0.3,0.2,0.4l0.3-0.1c0.2,0.1,0.4,0.1,0.6,0c0.3-0.2,0.6-0.4,0.8-0.6L18.2,13.3z"/>
	<path class="st11" d="M22.2,8.7c0.1-0.3,0.4-1,1.1-0.7s0.6,1.3,0.4,2c-0.3,1-0.6,1.9-1,2.9c-0.6,0.4-1.3,0.7-2.1,0.9
		c-0.6,0.1-2.2,0.6-2.2,0.6l-0.4-1.1l1.9-1c0.5-0.3,1-0.5,1.6-0.7C21.5,11.5,22,9.3,22.2,8.7z"/>
</g>
</svg>
