<?xml version="1.0" encoding="utf-8"?>
<!-- Generator: Adobe Illustrator 23.1.0, SVG Export Plug-In . SVG Version: 6.00 Build 0)  -->
<svg version="1.1" id="icons" xmlns="http://www.w3.org/2000/svg" xmlns:xlink="http://www.w3.org/1999/xlink" x="0px" y="0px"
	 viewBox="0 0 47 47" style="enable-background:new 0 0 47 47;" xml:space="preserve">
<style type="text/css">
	.st0{fill:#FFBD39;}
	.st1{fill:#703C03;}
	.st2{fill:#AA5F13;}
	.st3{fill:#F2C58B;}
</style>
<title>HouseCleaning</title>
<path class="st0" d="M24.6,28.3c0.2,0,0.5,0.1,0.7,0.1c0.2,0.1,0.4,0.1,0.7,0.1c0.2,0,0.4-0.1,0.6-0.2c0.2-0.1,0.5-0.2,0.8-0.2
	c0.3,0,0.5,0,0.8,0.1c0.2,0.1,0.5,0.1,0.7,0.1c0.2,0,0.4-0.1,0.6-0.2c0.2-0.1,0.5-0.2,0.7-0.3c0.3,0,0.5,0,0.8,0c0.2,0,0.5,0,0.7,0
	c0.2-0.1,0.4-0.2,0.6-0.3l0,0c-0.9-2.8-2.9-5.2-5.6-6.4c-0.7,0.1-1.4,0.2-2.1,0.2L24.6,28.3z"/>
<path class="st0" d="M18,27.9c0.3,0,0.6,0,0.9,0c0.2,0,0.5,0.1,0.7,0.2c0.2,0.1,0.4,0.2,0.7,0.2c0.2,0,0.4,0,0.6-0.1
	c0.3-0.1,0.5-0.1,0.8-0.1c0.2,0,0.5,0.1,0.7,0.2c0.2,0.1,0.4,0.2,0.7,0.2c0.2,0,0.4,0,0.7-0.1c0.3-0.1,0.5-0.1,0.8-0.1l0,0v-6.9
	h-0.3c-0.7,0-1.3,0-2-0.2c-2.7,1.2-4.7,3.6-5.6,6.4c0.2,0.1,0.4,0.2,0.6,0.2C17.6,28,17.8,27.9,18,27.9z"/>
<path class="st0" d="M24.6,21.1v-6.6h-0.3c-0.5,0-1,0-1.4-0.1c-1.2,2-1.3,4.5-0.3,6.6C23.3,21.1,24,21.1,24.6,21.1z"/>
<path class="st0" d="M24.6,21.1c0.6,0,1.3-0.1,1.9-0.2c1.1-2.1,0.9-4.6-0.3-6.6c-0.6,0.1-1.1,0.1-1.6,0.1L24.6,21.1z"/>
<path class="st0" d="M24.6,9c0.7,0,1.3-0.1,2-0.2c0.6-1.3,0.7-2.8,0.2-4.1c-0.7,0.1-1.4,0.2-2.1,0.2V9z"/>
<path class="st0" d="M24.6,9V4.9h-0.3c-0.6,0-1.3,0-1.9-0.1c-0.5,1.3-0.5,2.8,0.1,4.1C23.3,9,23.9,9,24.6,9z"/>
<path class="st0" d="M17.4,29.9c0.2,0,0.4,0,0.6,0c0.3,0,0.6,0,0.9,0c0.2,0.1,0.5,0.1,0.7,0.2c0.2,0.1,0.5,0.2,0.7,0.2
	c0.2,0,0.4,0,0.6-0.1c0.3-0.1,0.5-0.1,0.8-0.1c0.2,0,0.5,0.1,0.7,0.2c0.2,0.1,0.4,0.2,0.7,0.2c0.2,0,0.4,0,0.7-0.1
	c0.3-0.1,0.5-0.1,0.8-0.1l0,0v-1.6l0,0c-0.2,0-0.5,0-0.7,0.1c-0.3,0.1-0.5,0.1-0.8,0.1c-0.3,0-0.6-0.1-0.8-0.2
	c-0.2-0.1-0.4-0.1-0.6-0.2c-0.2,0-0.5,0-0.7,0.1c-0.3,0.1-0.5,0.1-0.8,0.1c-0.3-0.1-0.6-0.1-0.8-0.3c-0.2-0.1-0.4-0.2-0.5-0.2
	c-0.3,0-0.5,0-0.8,0c-0.2,0-0.5,0-0.7,0c-0.2,0-0.4-0.1-0.6-0.2c-0.1,0.4-0.2,0.9-0.2,1.4l0.2,0.2C16.9,29.7,17.2,29.8,17.4,29.9z"
	/>
<path class="st0" d="M31,28.3c-0.2,0-0.4-0.1-0.6-0.1c-0.2,0-0.4,0.1-0.6,0.2c-0.2,0.1-0.5,0.2-0.8,0.3c-0.3,0-0.6,0-0.8,0
	c-0.2-0.1-0.4-0.1-0.6-0.1c-0.2,0-0.4,0.1-0.6,0.2c-0.3,0.1-0.5,0.2-0.8,0.2l0,0c-0.3,0-0.5-0.1-0.8-0.1c-0.2-0.1-0.4-0.1-0.6-0.1
	v1.6c0.2,0,0.5,0.1,0.7,0.1c0.2,0.1,0.4,0.1,0.7,0.1c0.2,0,0.4-0.1,0.6-0.2c0.2-0.1,0.5-0.2,0.8-0.2c0.3,0,0.5,0,0.8,0.1
	c0.2,0.1,0.5,0.1,0.7,0.1c0.2,0,0.4-0.1,0.6-0.2c0.2-0.1,0.5-0.2,0.7-0.3c0.3,0,0.5,0,0.8,0c0.2,0,0.5,0,0.7,0
	c0.2-0.1,0.4-0.2,0.6-0.3l0.4-0.2c0-0.5-0.1-0.9-0.2-1.4c-0.2,0.1-0.4,0.2-0.6,0.3C31.6,28.4,31.3,28.4,31,28.3z"/>
<path class="st0" d="M24.6,14.1c0.6,0,1.1,0,1.7-0.1c0.8-1.5,0.9-3.2,0.2-4.8c-0.6,0.1-1.3,0.1-2,0.2L24.6,14.1z"/>
<path class="st0" d="M24.6,14.1V9.3h-0.2c-0.6,0-1.2,0-1.8-0.1c-0.6,1.6-0.5,3.3,0.3,4.8C23.5,14.1,24,14.1,24.6,14.1z"/>
<path class="st0" d="M32.8,29.8l-0.2,0.1c-0.2,0.2-0.5,0.3-0.7,0.3c-0.3,0-0.6,0-0.9,0c-0.2,0-0.4,0-0.6,0c-0.2,0-0.4,0.1-0.6,0.2
	c-0.2,0.1-0.5,0.2-0.8,0.3c-0.3,0-0.6,0-0.9-0.1c-0.2-0.1-0.4-0.1-0.6-0.1c-0.2,0-0.4,0.1-0.6,0.2c-0.3,0.1-0.5,0.2-0.8,0.2l0,0
	c-0.3,0-0.5-0.1-0.8-0.1c-0.2-0.1-0.4-0.1-0.6-0.1v9.8l0.3,5.6h2.2l-0.5-9.9l1.1,9.9h2.2l-0.6-8.9l1.3,8.9H33l-1.5-11.3l2.2,11.3
	h1.9C35.5,41,33.3,31.7,32.8,29.8z"/>
<path class="st0" d="M24.6,40.5v-9.8l0,0c-0.2,0-0.5,0-0.7,0.1c-0.3,0.1-0.5,0.1-0.8,0.1c-0.3,0-0.6-0.1-0.8-0.2
	c-0.2-0.1-0.4-0.1-0.6-0.2c-0.2,0-0.5,0-0.7,0.1c-0.3,0.1-0.5,0.1-0.8,0.1c-0.3,0-0.6-0.1-0.8-0.3c-0.2-0.1-0.4-0.2-0.5-0.2
	c-0.3,0-0.5,0-0.8,0c-0.2,0-0.5,0-0.7,0c-0.3,0-0.6-0.2-0.9-0.4l0,0c-0.6,2-2.8,11.2-2.8,16.2h1.9l2.2-11.3l-1.6,11.3h2.3l1.3-8.9
	l-0.6,8.9h2.2l1.1-9.9L22,46.1h2.3l0.2-6.3L24.6,40.5z"/>
<path class="st0" d="M26.9,4.3c0.5-1.1,0.8-2.2,0.8-3.4h-3.1v3.6C25.4,4.5,26.2,4.4,26.9,4.3z"/>
<path class="st0" d="M24.6,4.5V0.9h-3.2c0,1.2,0.3,2.4,0.9,3.5C23.1,4.5,23.9,4.5,24.6,4.5z"/>
<path class="st1" d="M24.6,4.9c0.7,0,1.4-0.1,2.1-0.2l-0.1-0.1c0.1-0.1,0.2-0.2,0.2-0.3c-0.8,0.1-1.5,0.2-2.3,0.2L24.6,4.9z"/>
<path class="st2" d="M24.6,4.9V4.5c-0.7,0-1.5,0-2.2-0.2c0.1,0.1,0.1,0.1,0.2,0.2l-0.1,0.2c0.6,0.1,1.2,0.1,1.9,0.1H24.6z"/>
<path class="st1" d="M24.6,9.3c0.7,0,1.3-0.1,2-0.2c0-0.1,0-0.1-0.1-0.2c0-0.1,0.1-0.1,0.1-0.2c-0.7,0.1-1.3,0.1-2,0.2V9.3z"/>
<path class="st2" d="M24.6,9.3V9c-0.7,0-1.4,0-2-0.1L22.7,9c0,0.1-0.1,0.2-0.1,0.2c0.6,0.1,1.2,0.1,1.8,0.1L24.6,9.3z"/>
<path class="st2" d="M24.6,14.5v-0.4c-0.6,0-1.1,0-1.7-0.1c0,0.1,0.1,0.1,0.1,0.2c0,0.1-0.1,0.1-0.1,0.2c0.5,0.1,0.9,0.1,1.4,0.1
	L24.6,14.5z"/>
<path class="st1" d="M24.6,14.5c0.5,0,1,0,1.6-0.1l-0.1-0.1l0.2-0.3c-0.6,0.1-1.1,0.1-1.7,0.1L24.6,14.5z"/>
<path class="st2" d="M24.6,21.5v-0.4c-0.7,0-1.3,0-1.9-0.1c0,0.1,0,0.1,0.1,0.2l-0.4,0.2c0.7,0.1,1.3,0.2,2,0.2L24.6,21.5z"/>
<path class="st1" d="M24.6,21.5c0.7,0,1.4-0.1,2.1-0.2l-0.3-0.1c0-0.1,0.1-0.1,0.1-0.2c-0.6,0.1-1.3,0.1-1.9,0.2V21.5z"/>
<path class="st1" d="M31.7,28c-0.2,0-0.5,0-0.7,0c-0.3,0-0.5,0-0.8,0c-0.3,0.1-0.5,0.1-0.7,0.3c-0.2,0.1-0.4,0.2-0.6,0.2
	c-0.2,0-0.5,0-0.7-0.1c-0.3-0.1-0.5-0.1-0.8-0.1c-0.3,0-0.5,0.1-0.8,0.2c-0.2,0.1-0.4,0.1-0.6,0.2c-0.2,0-0.5,0-0.7-0.1
	c-0.2-0.1-0.5-0.1-0.7-0.1v0.4c0.2,0,0.4,0.1,0.6,0.1c0.3,0.1,0.5,0.1,0.8,0.1l0,0c0.3,0,0.5-0.1,0.8-0.2c0.2-0.1,0.4-0.1,0.6-0.2
	c0.2,0,0.4,0,0.6,0.1c0.3,0.1,0.6,0.1,0.9,0.1c0.3,0,0.5-0.1,0.8-0.3c0.2-0.1,0.4-0.2,0.7-0.3c0.2,0,0.4,0,0.6,0c0.3,0,0.6,0,0.9,0
	c0.2-0.1,0.4-0.2,0.6-0.3l-0.1-0.4l0,0C32.2,27.8,32,27.9,31.7,28z"/>
<path class="st2" d="M18.1,28.3c0.3,0,0.5,0,0.8,0c0.2,0,0.4,0.1,0.5,0.2c0.3,0.1,0.5,0.2,0.8,0.3c0.3,0,0.5,0,0.8-0.1
	c0.2-0.1,0.5-0.1,0.7-0.1c0.2,0,0.4,0.1,0.6,0.2c0.3,0.1,0.5,0.2,0.8,0.2c0.3,0,0.5,0,0.8-0.1c0.2-0.1,0.4-0.1,0.7-0.1l0,0v-0.4l0,0
	c-0.3,0-0.5,0.1-0.8,0.1c-0.2,0.1-0.4,0.1-0.7,0.1c-0.2,0-0.5-0.1-0.7-0.2c-0.2-0.1-0.5-0.2-0.7-0.2c-0.3,0-0.6,0-0.8,0.1
	c-0.2,0.1-0.4,0.1-0.6,0.1c-0.2,0-0.5-0.1-0.7-0.2c-0.2-0.1-0.4-0.2-0.7-0.2c-0.3,0-0.6,0-0.9,0c-0.2,0-0.4,0-0.6,0
	c-0.2,0-0.4-0.1-0.6-0.2c0,0.1-0.1,0.3-0.1,0.4c0.2,0.1,0.4,0.2,0.6,0.2C17.6,28.3,17.8,28.3,18.1,28.3z"/>
<path class="st1" d="M31.7,29.9c-0.2,0-0.5,0-0.7,0c-0.3,0-0.5,0-0.8,0c-0.3,0-0.5,0.1-0.7,0.3c-0.2,0.1-0.4,0.2-0.6,0.2
	c-0.2,0-0.5,0-0.7-0.1c-0.3-0.1-0.5-0.1-0.8-0.1c-0.3,0-0.5,0.1-0.8,0.2c-0.2,0.1-0.4,0.1-0.6,0.2c-0.2,0-0.5,0-0.7-0.1
	c-0.2-0.1-0.5-0.1-0.7-0.1v0.4c0.2,0,0.4,0.1,0.6,0.1c0.3,0.1,0.5,0.1,0.8,0.1l0,0c0.3,0,0.5-0.1,0.8-0.2c0.2-0.1,0.4-0.1,0.6-0.2
	c0.2,0,0.4,0,0.6,0.1c0.3,0.1,0.6,0.1,0.9,0.1c0.3,0,0.5-0.1,0.8-0.3c0.2-0.1,0.4-0.2,0.6-0.2c0.2,0,0.4,0,0.6,0c0.3,0,0.6,0,0.9,0
	c0.3-0.1,0.5-0.2,0.7-0.3l0.2-0.1l-0.1-0.3l0,0l-0.4,0.2C32.1,29.8,31.9,29.9,31.7,29.9z"/>
<path class="st2" d="M17.3,30.2c0.2,0,0.5,0,0.7,0c0.3,0,0.5,0,0.8,0c0.2,0,0.4,0.1,0.5,0.2c0.3,0.1,0.5,0.2,0.8,0.3
	c0.3,0,0.5,0,0.8-0.1c0.2-0.1,0.5-0.1,0.7-0.1c0.2,0,0.4,0.1,0.6,0.2c0.3,0.1,0.5,0.2,0.8,0.2c0.3,0,0.5,0,0.8-0.1
	c0.2-0.1,0.4-0.1,0.7-0.1l0,0v-0.4l0,0c-0.3,0-0.5,0-0.8,0.1c-0.2,0.1-0.4,0.1-0.7,0.1c-0.2,0-0.5-0.1-0.7-0.2
	c-0.2-0.1-0.5-0.2-0.7-0.2c-0.3,0-0.6,0-0.8,0.1c-0.2,0.1-0.4,0.1-0.6,0.1c-0.2,0-0.5-0.1-0.7-0.2c-0.2-0.1-0.4-0.2-0.7-0.2
	c-0.3,0-0.6,0-0.9,0c-0.2,0-0.4,0-0.6,0c-0.2,0-0.5-0.1-0.7-0.3l-0.2-0.2l0,0l-0.1,0.4l0,0C16.7,30.1,17,30.2,17.3,30.2z"/>
<polygon class="st3" points="24.6,39.7 24.3,46.1 24.6,46.1 24.6,46.1 24.6,40.5 "/>
</svg>
