<?xml version="1.0" encoding="utf-8"?>
<!-- Generator: Adobe Illustrator 23.1.0, SVG Export Plug-In . SVG Version: 6.00 Build 0)  -->
<svg version="1.1" id="icons" xmlns="http://www.w3.org/2000/svg" xmlns:xlink="http://www.w3.org/1999/xlink" x="0px" y="0px"
	 viewBox="0 0 47 47" style="enable-background:new 0 0 47 47;" xml:space="preserve">
<style type="text/css">
	.st0{fill:#AF8066;}
	.st1{fill:#FDD7AD;}
	.st2{fill:#59474E;}
	.st3{fill:#FF9D00;}
	.st4{fill:#E64C3C;}
	.st5{fill:#C03A2B;}
</style>
<title>HulaHooping</title>
<path class="st0" d="M25.6,41.8v2.2c0,1.1-0.9,2-2,2.1c0,0,0,0-0.1,0c-1-0.1-1.8-1-1.8-2v-2.3H25.6z"/>
<path class="st0" d="M17.8,41.8v2.2c0,0.5-0.2,1-0.5,1.4c-0.4,0.4-0.9,0.6-1.5,0.6c-1.1,0-1.9-0.9-1.9-1.9v-2.3H17.8z"/>
<path class="st1" d="M33.3,5c0,2.1-1.7,3.9-3.9,3.9S25.6,7.2,25.6,5s1.7-3.9,3.9-3.9c0,0,0,0,0,0C31.6,1.1,33.3,2.9,33.3,5z"/>
<path class="st1" d="M15.4,3.6L14.8,5l-1.6,0.8L12,4.6c-0.6-0.6-0.6-1.6,0-2.2c0,0,0,0,0,0l0,0c0.6-0.6,1.5-0.6,2.1,0c0,0,0,0,0,0
	L15.4,3.6z"/>
<path class="st1" d="M42.8,10.2c0,0.6-0.3,1.1-0.8,1.3l-1.5,0.9l-1.1-1.3l-0.3-1.4l1.4-0.8c0.7-0.4,1.7-0.2,2.1,0.5c0,0,0,0,0,0
	C42.8,9.7,42.8,10,42.8,10.2z"/>
<path class="st0" d="M16,21.8l1.7-4.3L17.5,16l1.4-1.6l0.4-1.1c0.2-0.6,0.1-1.2-0.3-1.7l-5.9-5.8l2.2-2.2l5.8,5.8l2.8,1
	c0.1,0,0.2,0.1,0.2,0.3l1.2,3.9c0,0.1,0.1,0.2,0.2,0.2c0.1,0.1,0.2,0.1,0.3,0l3.8-2.2c0.1-0.1,0.2-0.1,0.3,0l1.7,0.6
	c0.4,0.2,0.9,0.1,1.3-0.1l6-3.5l1.4,2.8l-5.1,3l-0.8,1.6l-3.2,0.7l0,0c-0.3,0.2-0.5,0.4-0.7,0.8l-1.4,3.4l-6.1,0.9L16,21.8z"/>
<path class="st2" d="M14.8,24.7l-0.2,0.5c-0.4,1-0.7,2.1-0.7,3.2v13.8h3.9V31.6c0-1.1,0.9-1.9,1.9-1.9c0.6,0,1.1,0.2,1.4,0.6
	c0.4,0.3,0.6,0.8,0.6,1.3v10.5h3.9v-9.4c0-1,0.2-2,0.5-2.9l2-4.9L14.8,24.7z"/>
<path class="st3" d="M35.4,15.4c4.9,1,8,2.6,8,4.3c0,2.6-6.5,4.7-15.3,5.3c-1.5,0.1-3.2,0.1-4.9,0.1c-2.8,0-5.7-0.2-8.5-0.5
	c-6.9-0.9-11.7-2.7-11.7-4.9c0-2.6,6.8-4.8,15.8-5.3l-0.7,1.7l-0.6,1.4C11.4,17.9,7,18.7,7,19.7c0,1,3.7,1.7,9,2.1
	c2.2,0.2,4.7,0.2,7.3,0.2c2.2,0,4.2-0.1,6.1-0.2c6-0.3,10.2-1.1,10.2-2.2c0-1-3.3-1.5-8.1-2l0,0l2.2-1.3L35.4,15.4z"/>
<path class="st4" d="M9.3,29c-0.2,0-4.2,0-6.7-2.6c-0.3-0.3-0.3-0.8,0-1.1c0.3-0.3,0.8-0.3,1.1,0c2.1,2.1,5.6,2.1,5.6,2.1
	c0.4,0,0.8,0.3,0.8,0.8C10.1,28.7,9.7,29,9.3,29C9.3,29,9.3,29,9.3,29L9.3,29z"/>
<path class="st4" d="M3.1,29c-0.4,0-0.7-0.2-0.8-0.6l-0.8-3.1c-0.1-0.2,0-0.5,0.1-0.7c0.1-0.2,0.4-0.3,0.6-0.3h3.1
	c0.4,0.1,0.7,0.4,0.7,0.9c0,0.4-0.3,0.6-0.7,0.7H3.3l0.5,2.1c0.1,0.4-0.1,0.8-0.6,0.9c0,0,0,0,0,0L3.1,29z"/>
<path class="st5" d="M4.7,14.3c-0.3,0-0.6-0.2-0.7-0.5c-0.1-0.3-0.1-0.6,0.2-0.8c0.1-0.1,3.2-3.4,6.7-3.4c0.4,0,0.8,0.3,0.8,0.8
	c0,0.4-0.3,0.8-0.8,0.8c-2.9,0-5.6,2.8-5.6,2.9C5.1,14.2,4.9,14.3,4.7,14.3z"/>
<path class="st5" d="M9.3,13.5c-0.4,0-0.8-0.3-0.8-0.8c0-0.2,0.1-0.4,0.2-0.6l1.6-1.6L8.2,9.6C7.8,9.4,7.7,8.9,7.8,8.5
	C7.9,8.4,8,8.3,8.1,8.2c0.2-0.1,0.5-0.1,0.8,0L12,9.8c0.4,0.2,0.5,0.7,0.3,1.1c0,0.1-0.1,0.1-0.1,0.2l-2.3,2.3
	C9.7,13.5,9.5,13.6,9.3,13.5z"/>
<path class="st4" d="M38.2,29H38c-0.2,0-0.4-0.1-0.5-0.2c-0.1-0.2-0.2-0.3-0.2-0.5c0-0.2,0.1-0.4,0.2-0.5c0.1-0.1,0.3-0.2,0.5-0.2
	c1.8,0,3.6-0.8,4.8-2.1c0.3-0.3,0.8-0.2,1.1,0.1c0.2,0.3,0.2,0.6,0,0.9C42.4,28,40.4,29,38.2,29z"/>
<path class="st4" d="M38.8,31.4c-0.2,0-0.4-0.1-0.5-0.2l-2.3-2.3c-0.3-0.3-0.3-0.8,0-1.1c0,0,0,0,0,0l2.3-2.3c0.3-0.3,0.8-0.3,1.1,0
	c0,0,0,0,0,0c0.3,0.3,0.3,0.8,0,1.1c0,0,0,0,0,0l-1.8,1.8l1.8,1.8c0.2,0.2,0.3,0.6,0.2,0.9C39.4,31.2,39.1,31.4,38.8,31.4z"/>
</svg>
