<?xml version="1.0" encoding="utf-8"?>
<!-- Generator: Adobe Illustrator 23.1.0, SVG Export Plug-In . SVG Version: 6.00 Build 0)  -->
<svg version="1.1" id="icons" xmlns="http://www.w3.org/2000/svg" xmlns:xlink="http://www.w3.org/1999/xlink" x="0px" y="0px"
	 viewBox="0 0 47 47" style="enable-background:new 0 0 47 47;" xml:space="preserve">
<style type="text/css">
	.st0{fill:#8E604C;}
	.st1{fill:#C18A6F;}
	.st2{fill:#966950;}
	.st3{fill:#7F513D;}
	.st4{fill:#A57A63;}
	.st5{fill:#D49877;}
	.st6{fill:#DDB9A4;}
	.st7{fill:#B58772;}
	.st8{fill:#492E22;}
	.st9{fill:#2B1405;}
	.st10{fill:#C6861E;}
</style>
<title>Hunting</title>
<g id="Hunting">
	<g id="XMLID_2790_">
		<path id="XMLID_1145_" class="st0" d="M27.5,13.1l-2,2c-0.3,0.3-0.6,0.6-1,0.8l-3.1,1.8l-1.5-2.1l2.8-2.4c0.4-0.3,0.6-0.5,1.1-0.6
			l2.6-1.1c0.5-0.3,1,0,1.3,0.4l0,0C27.9,12.2,27.8,12.7,27.5,13.1z"/>
		<path id="XMLID_1148_" class="st1" d="M26.4,12.9l-1,1c-0.1,0.1-0.3,0.3-0.5,0.4l-1,0.6c-0.3,0.3-0.6,0.3-0.8,0
			c-0.1-0.3,0-0.5,0.3-0.8l0.9-0.8c0.1-0.1,0.4-0.3,0.5-0.4l1.3-0.6c0.3-0.1,0.4-0.1,0.5,0C26.6,12.6,26.5,12.8,26.4,12.9z"/>
		<path id="XMLID_1109_" class="st2" d="M34,30.4v0.9c0,0.5-0.4,0.9-0.9,0.9h-7.7l-3.4-1.8c-2.9-1.5-4.8-4.4-4.8-7.7v-6l8.2,5l0,0
			C30.1,21.7,34,25.6,34,30.4z"/>
		<path id="XMLID_1995_" class="st3" d="M34,30.4v0.9c0,0.5-0.4,0.9-0.9,0.9h-4.6H28h-5c-0.5,0-0.9-0.4-0.9-0.9l0,0
			c0-1,0.8-1.8,1.8-1.8h3.8c0.3,0,0.4-0.1,0.5-0.4c0.4-1.6,1.8-2.8,3.5-2.8h1.3C33.7,27.5,34,28.9,34,30.4z"/>
		<path id="XMLID_1102_" class="st2" d="M34,30.9v0.5c0,0.5-0.4,0.9-0.9,0.9h-0.5c-0.8,0-1.4-0.6-1.4-1.4l0,0c0-0.8,0.6-1.4,1.4-1.4
			C33.4,29.5,34,30.1,34,30.9z"/>
		<path id="XMLID_1201_" class="st3" d="M22.2,19.8l-5-3v6c0,1.1,0.3,2.3,0.6,3.3l-1.4,3.4H15c-1,0-1.8,0.8-1.8,1.8l0,0
			c0,0.5,0.4,0.9,0.9,0.9h1.4h1.8l0,0l0,0c0.5,0,1-0.4,1.3-0.9l1.9-4.8c0.1-0.1,0.3-0.3,0.4-0.3l0,0c0.8,0,1.4-0.6,1.4-1.4v-5H22.2z
			"/>
		<path id="XMLID_1108_" class="st4" d="M29.3,15.6l-2.5,1.5c-0.4,0.3-0.8,0.4-1.1,0.5l-3.1,0.8c-0.3,0-0.4,0.3-0.4,0.5v1.3
			c0,1.5-1.3,2.8-2.8,2.8h-3.6c-1.5,0-2.8-1.3-2.8-2.8v-0.8c0-0.1,0-0.3,0.1-0.4l2.9-2.6c0.6-0.6,1.5-0.9,2.4-0.9h3.9l2-1
			c0.4-0.1,0.8-0.3,1.3-0.4l2.9-0.4c0.5-0.1,1,0.3,1.1,0.6l0,0C29.9,14.8,29.8,15.3,29.3,15.6z"/>
		<path id="XMLID_1106_" class="st5" d="M28.1,15.3l-1.3,0.6c-0.1,0.1-0.4,0.1-0.5,0.3l-1.1,0.3c-0.4,0.1-0.6,0-0.8-0.3
			c-0.1-0.3,0.1-0.5,0.4-0.6l1-0.5c0.1-0.1,0.4-0.1,0.6-0.1l1.4-0.3c0.3,0,0.4,0,0.5,0.1C28.4,14.9,28.3,15.2,28.1,15.3z"/>
		<path id="XMLID_1105_" class="st6" d="M14.1,18.5V19c0,0.4-0.3,0.8-0.6,0.9c-0.1,0-0.3,0-0.3-0.3v-0.3c0-0.1,0-0.3,0.1-0.4
			l0.6-0.5C14,18.3,14.1,18.3,14.1,18.5z"/>
		<path id="XMLID_2304_" class="st7" d="M18.4,19.1c-0.6,0-1.1-0.5-1.1-1.1s0.5-1.1,1.1-1.1s1.1,0.5,1.1,1.1S19,19.1,18.4,19.1z"/>
		<path id="XMLID_2301_" class="st0" d="M14.7,21.5C14.7,21.5,14.7,21.6,14.7,21.5c-0.1,0.1-0.3,0-0.3,0
			C14.5,21.3,14.6,21.3,14.7,21.5C14.7,21.3,14.7,21.3,14.7,21.5z"/>
		<path id="XMLID_991_" class="st0" d="M14.1,20.8C14.1,20.8,14.1,21,14.1,20.8c-0.1,0.1,0,0.3,0,0.3S14.2,21.1,14.1,20.8
			C14.2,21,14.2,20.8,14.1,20.8z"/>
		<path id="XMLID_1203_" class="st0" d="M14.6,20.5C14.6,20.5,14.5,20.5,14.6,20.5c-0.1,0.1,0,0.3,0,0.3S14.7,20.6,14.6,20.5
			C14.7,20.5,14.7,20.5,14.6,20.5z"/>
		<path id="XMLID_2300_" class="st0" d="M15.1,20.8C15,20.8,15,21,15.1,20.8c-0.1,0.1,0,0.3,0,0.3S15.2,21.1,15.1,20.8
			C15.2,21,15.1,20.8,15.1,20.8z"/>
		<path id="XMLID_924_" class="st8" d="M18.7,17.9c0,0.3-0.3,0.5-0.5,0.5c-0.3,0-0.5-0.3-0.5-0.5c0-0.3,0.3-0.5,0.5-0.5
			C18.5,17.4,18.7,17.7,18.7,17.9z"/>
	</g>
	<path class="st9" d="M23.5,3C12.2,3,2.9,12.2,2.9,23.6s9.3,20.6,20.6,20.6s20.6-9.3,20.6-20.6S34.9,3,23.5,3L23.5,3z M23.5,43.3
		c-10.9,0-19.7-8.8-19.7-19.7S12.6,3.9,23.5,3.9s19.7,8.8,19.7,19.7l0,0C43.2,34.5,34.4,43.3,23.5,43.3z"/>
	<path class="st10" d="M23.5,5.5c-10,0-18.1,8-18.1,18.1s8.2,18.1,18.1,18.1c10,0,18.1-8,18.1-18.1l0,0C41.6,13.6,33.5,5.5,23.5,5.5
		z M23.5,39.2c-8.5,0-15.6-6.9-15.6-15.6S15,8,23.5,8s15.6,6.9,15.6,15.6l0,0C39.1,32.1,32.2,39.2,23.5,39.2z"/>
	<rect x="23.2" y="1" class="st9" width="0.6" height="45.2"/>
	<rect x="0.9" y="23.2" class="st9" width="45.2" height="0.6"/>
	<path class="st9" d="M23.5,4.4C13,4.4,4.4,13.1,4.4,23.6S13,42.8,23.5,42.8s19.2-8.5,19.2-19.1l0,0C42.7,13.1,34.2,4.4,23.5,4.4z
		 M23.5,41.2c-9.7,0-17.6-7.9-17.6-17.6S13.8,6,23.5,6s17.6,7.9,17.6,17.6S33.3,41.2,23.5,41.2L23.5,41.2z"/>
	<rect x="22.7" y="5.5" class="st9" width="1.6" height="8.4"/>
	<rect x="22.7" y="33.3" class="st9" width="1.6" height="8.4"/>
	<rect x="5.4" y="22.8" class="st9" width="8.4" height="1.6"/>
	<rect x="33.2" y="22.8" class="st9" width="8.4" height="1.6"/>
</g>
</svg>
