<?xml version="1.0" encoding="utf-8"?>
<!-- Generator: Adobe Illustrator 23.1.0, SVG Export Plug-In . SVG Version: 6.00 Build 0)  -->
<svg version="1.1" id="Layer_1" xmlns="http://www.w3.org/2000/svg" xmlns:xlink="http://www.w3.org/1999/xlink" x="0px" y="0px"
	 viewBox="0 0 44 44" style="enable-background:new 0 0 44 44;" xml:space="preserve">
<style type="text/css">
	.st0{fill:#575756;}
	.st1{fill:#00B0C2;}
	.st2{fill:#B1B1B1;}
	.st3{fill:#CCCCCC;}
	.st4{fill:#D9D9D9;}
	.st5{fill:#C6C6C5;}
	.st6{fill:#8F8F8E;}
	.st7{fill:#636362;}
	.st8{fill:#0C3853;}
	.st9{fill:#008D9B;}
	.st10{fill:#00646D;}
</style>
<title>IceSkating</title>
<g>
	<g id="icons">
		<path class="st0" d="M29.2,33.1c0,0,1.1,2.4,1.4,3h6.9c1.5-2.3,2.2-5.1,2-7.7C39.5,28.4,40.5,33.9,29.2,33.1z"/>
		<path class="st1" d="M22.1,1.9l16.9,2.2C38.8,5,39,3.6,38.9,4.5c-0.4,2.6-0.6,5.2-0.7,7.7c-0.2,2.4-0.2,4.8,0,7.1
			c0.2,2.4,0.9,4.7,1.3,7.1c0.2,1.1,0.1,2.2-0.3,3.2c-1.7,3.8-6.6,2.8-9.9,2.7c-0.8,0-1.7,0.2-2.3,0.6c-9.5,5.6-23.8,0.3-23.8,0.3
			c-1.7-4.2,1.5-5.8,1.5-5.8c2.9,0,5.6-0.4,8.4-1.1c1.8-0.4,3.6-1.3,5-2.7c2.2-2.3,3.8-4.1,4.3-7.2C22.3,16.5,23.5,6.9,22.1,1.9z"/>
		<path class="st2" d="M10.8,26.8c1.3-0.3,2.2-0.6,2.2-0.6c1.8-0.4,3.6-1.3,5-2.7c2.2-2.3,3.8-4.1,4.3-7.2c0,0,1.1-9.6-0.3-14.6
			l0.5,0.1c0.2,0.5,0.5,0.8,0.7,1.3c0.3,0.9,0.6,1.8,0.6,2.8c0.3,2.9,0.2,5.8-0.2,8.7c0-0.4,0.1-0.7,0.2-1.1l-0.3,1.8
			c-0.2,1.4-0.6,2.7-1,4c-0.7,1.7-1.7,3.3-2.7,4.9c-0.4,0.5-0.8,0.9-1.3,1.3c-1,0.7-2.1,1.4-3.3,1.8c-0.7,0.3-1.6,0.5-2.4,0.6
			c-0.4,0-0.6,0-1,0C11.9,28,8.8,27.6,10.8,26.8z"/>
		<path class="st3" d="M36.7,39.3l2.9,0.1c1.5,0.6,2.6,1.8,3.2,3.3L1.1,41.5c-0.4-0.8-0.4-1.7,0-2.6c0.5,0.7,1.7,0.5,1.7,0.5
			c-0.5-1.5-0.3-3,0.5-4.3l1,0.4c-1.6,2,1.1,2.4,1.1,2.4c3,0.6,2.4-1.6,2.4-1.6l2.9,0.7c-1.5,1.7,0.7,2.5,0.7,2.5h19.1
			c3.4,0.2,1.9-3.1,1.9-3.1h4.1c-0.8,0.7-0.8,1.9-0.2,2.8C36.5,39.1,36.6,39.2,36.7,39.3z"/>
		<path class="st4" d="M39.6,39.3h-0.6c-0.2,0.2-0.4,0.3-0.6,0.4c-0.5,0.3-0.9,0.4-1.4,0.4c-0.7,0-1.4-0.3-1.8-0.7
			c-0.5-0.5-0.7-1.2-0.7-1.8c0-0.5,0.1-0.8,0.3-1.2h-2.2c0,0,1.6,3.3-1.9,3.1H11.4c0,0-2.2-0.7-0.7-2.5l-2.1-0.6c0,0.1,0,0.3,0,0.4
			c0,1.5-1.2,2.7-2.7,2.7l0,0c-0.7,0-1.4-0.3-1.9-0.8c-0.5-0.5-0.7-1.2-0.7-1.8c0-0.6,0.2-1.1,0.5-1.6L3.2,35
			c-0.7,1.3-0.9,2.9-0.5,4.3c0,0-1.3,0.3-1.7-0.5c-0.2,0.6-0.3,1.1-0.2,1.7h40.5C40.8,40.1,40.3,39.7,39.6,39.3z"/>
		<path class="st5" d="M14.6,27.7c0,0.5-0.4,0.8-0.8,0.8c-0.5,0-0.8-0.4-0.8-0.8c0-0.5,0.4-0.8,0.8-0.8l0,0
			C14.2,26.9,14.6,27.3,14.6,27.7z"/>
		<path class="st5" d="M14.4,27.7c0,0.4-0.3,0.7-0.7,0.7c-0.4,0-0.7-0.3-0.7-0.7c0-0.4,0.3-0.7,0.7-0.7C14,27,14.4,27.4,14.4,27.7z"
			/>
		<path class="st6" d="M14.1,27.7c0,0.3-0.2,0.5-0.5,0.5s-0.6-0.2-0.6-0.5s0.2-0.5,0.5-0.5C13.9,27.3,14.1,27.5,14.1,27.7L14.1,27.7
			z"/>
		<path class="st7" d="M13.6,27.3c-0.1,0-0.2,0-0.3,0.1h0.1c0.2,0,0.5,0.1,0.5,0.4c0,0.2-0.1,0.5-0.4,0.5h-0.1h-0.1
			c0.1,0.1,0.2,0.1,0.3,0.1c0.3,0,0.6-0.2,0.6-0.5S14,27.3,13.6,27.3C13.7,27.3,13.7,27.3,13.6,27.3L13.6,27.3z"/>
		<path class="st5" d="M17.4,26.8c0,0.5-0.4,0.8-0.8,0.8c-0.5,0-0.8-0.4-0.8-0.8c0-0.5,0.4-0.8,0.8-0.8l0,0
			C17.1,26,17.4,26.4,17.4,26.8z"/>
		<path class="st5" d="M17.1,26.8c0,0.4-0.3,0.7-0.7,0.7c-0.5,0-0.7-0.3-0.7-0.7c0-0.4,0.3-0.7,0.7-0.7l0,0
			C16.9,26.1,17.1,26.5,17.1,26.8z"/>
		<path class="st6" d="M17,26.8c0,0.3-0.2,0.5-0.5,0.5l0,0c-0.3,0-0.5-0.2-0.5-0.5s0.2-0.5,0.5-0.5l0,0C16.8,26.3,17,26.5,17,26.8z"
			/>
		<path class="st7" d="M16.5,26.3c-0.1,0-0.2,0-0.3,0.1h0.1c0.2,0,0.5,0.1,0.5,0.4s-0.1,0.5-0.4,0.5h-0.1h-0.1
			c0.1,0.1,0.2,0.1,0.3,0.1c0.3,0,0.5-0.2,0.5-0.5C17,26.5,16.8,26.4,16.5,26.3C16.5,26.4,16.5,26.4,16.5,26.3L16.5,26.3z"/>
		<path class="st5" d="M19.9,25c0,0.5-0.4,0.8-0.8,0.8c-0.5,0-0.8-0.4-0.8-0.8c0-0.5,0.4-0.8,0.8-0.8l0,0
			C19.5,24.2,19.9,24.6,19.9,25z"/>
		<path class="st5" d="M19.7,25c0,0.4-0.3,0.7-0.7,0.7s-0.7-0.3-0.7-0.7c0-0.4,0.3-0.7,0.7-0.7l0,0C19.4,24.3,19.7,24.6,19.7,25z"/>
		<path class="st6" d="M19.5,25c0,0.3-0.2,0.5-0.5,0.5s-0.5-0.2-0.5-0.5s0.2-0.5,0.5-0.5l0,0C19.3,24.5,19.5,24.7,19.5,25z"/>
		<path class="st7" d="M19,24.5c-0.1,0-0.2,0-0.3,0.1h0.1c0.2,0,0.4,0.2,0.4,0.4c0,0.2-0.2,0.4-0.4,0.4h-0.1
			c0.1,0.1,0.2,0.1,0.3,0.1c0.3,0,0.5-0.2,0.5-0.5C19.5,24.8,19.3,24.5,19,24.5L19,24.5z"/>
		<path class="st5" d="M22.2,22.6c0,0.5-0.4,0.8-0.8,0.8c-0.5,0-0.8-0.4-0.8-0.8c0-0.5,0.4-0.8,0.8-0.8l0,0
			C21.8,21.8,22.2,22.1,22.2,22.6z"/>
		<path class="st5" d="M22,22.6c0,0.4-0.3,0.7-0.7,0.7c-0.4,0-0.7-0.3-0.7-0.7c0-0.4,0.3-0.7,0.7-0.7l0,0C21.7,21.8,22,22.2,22,22.6
			z"/>
		<path class="st6" d="M21.8,22.6c0,0.3-0.2,0.6-0.5,0.6s-0.6-0.2-0.6-0.5c0-0.1,0-0.1,0-0.2c0-0.3,0.2-0.6,0.5-0.6s0.6,0.2,0.6,0.5
			C21.8,22.5,21.8,22.6,21.8,22.6z"/>
		<path class="st7" d="M21.3,22c-0.1,0-0.2,0-0.3,0.1h0.1c0.2,0,0.4,0.3,0.4,0.5c0,0.2-0.2,0.3-0.4,0.4H21c0.1,0.1,0.2,0.1,0.3,0.1
			c0.3,0,0.5-0.2,0.5-0.5l0,0C21.8,22.3,21.6,22,21.3,22L21.3,22z"/>
		<path class="st8" d="M13.4,28.2c0,0,0.6,0,0.4-0.6c-0.3-0.5-0.6-1-0.7-1.6c-0.3-0.2-0.6-0.1-0.7,0.2c0,0,0,0,0,0.1
			C12.3,26.3,12.8,27.9,13.4,28.2z"/>
		<path class="st8" d="M16.3,27.3c0,0,0.6-0.1,0.3-0.7c-0.4-0.4-0.7-0.8-1.1-1.3c-0.3-0.1-0.6,0.1-0.6,0.4l0,0
			C14.8,25.6,15.8,27.1,16.3,27.3z"/>
		<path class="st8" d="M18.9,25.4c0,0,0.6-0.3,0.1-0.7c-0.5-0.4-0.9-0.7-1.3-1.1c-0.3,0-0.6,0.2-0.6,0.6l0,0
			C17.1,24.2,18.3,25.4,18.9,25.4z"/>
		<path class="st8" d="M21.2,23c0,0,0.6-0.3,0.1-0.7c-0.5-0.3-0.9-0.6-1.4-1c-0.3,0-0.6,0.3-0.6,0.6c0,0,0,0,0,0.1
			C19.4,21.9,20.6,23,21.2,23z"/>
		<path class="st0" d="M29.6,34.1c0.4,0.7,0.7,1.7,0.9,2.1h6.9c1.3-1.9,2-4.2,2.1-6.5l0,0c0-0.4,0-0.8-0.1-1.2
			c-0.1,0.4-0.2,0.7-0.3,1.1c-1.7,3.8-6.6,2.8-9.9,2.7c-0.8,0-1.6,0.2-2.3,0.6C17.4,38,4.6,33.7,4.6,33.7C3,33,2.8,32.3,2.8,31.9
			c-0.2,1.1-0.1,2.2,0.4,3.2c0,0,14.4,5.3,23.8-0.3c0.6-0.5,1.5-0.6,2.3-0.6L29.6,34.1z M39.5,30.6L39.5,30.6z M39.6,29.9L39.6,29.9
			z"/>
		<path class="st0" d="M39.5,28.4L39.5,28.4z"/>
		<path class="st5" d="M39.5,28.4c0,0.1,0,0.3-0.1,0.4c-0.2,2.2-0.8,4.3-2.1,6.2h-6.8c-0.2-0.4-0.6-1.3-0.9-2h-0.3
			c-0.8,0-1.7,0.2-2.3,0.6c-9.5,5.5-23.8,0.2-23.8,0.2c-0.2-0.6-0.4-1-0.5-1.6c-0.1,1,0.1,2,0.5,2.9c0,0,14.4,5.3,23.8-0.3
			c0.6-0.5,1.5-0.6,2.3-0.6h0.3c0.4,0.7,0.7,1.7,0.9,2.1h6.9c1.3-1.9,2-4.2,2.1-6.5l0,0C39.6,29.2,39.5,28.8,39.5,28.4z"/>
		<path class="st9" d="M39.1,4.1C39,4.9,35,5,30.3,4.3S21.9,2.5,22,1.7c0.1-0.8,4.1-0.9,8.7-0.3S39.3,3.2,39.1,4.1z"/>
		<path class="st10" d="M38.5,3.9c-0.1,0.6-3.6,0.7-7.8,0.2S23,2.4,23.1,1.8C23.2,1.1,26.7,1,31,1.6S38.6,3.2,38.5,3.9z"/>
		<path class="st5" d="M24,19.7c0,0.5-0.4,0.8-0.8,0.8c-0.5,0-0.8-0.4-0.8-0.8c0-0.5,0.4-0.8,0.8-0.8l0,0C23.6,18.9,24,19.3,24,19.7
			z"/>
		<path class="st5" d="M23.8,19.7c0,0.4-0.4,0.7-0.7,0.7s-0.7-0.4-0.7-0.7c0-0.4,0.3-0.7,0.7-0.7C23.4,19,23.8,19.3,23.8,19.7z"/>
		<path class="st6" d="M23.5,19.7c0,0.3-0.2,0.5-0.5,0.6c-0.3,0-0.5-0.2-0.6-0.5c0-0.3,0.2-0.5,0.5-0.6l0,0
			C23.3,19.2,23.5,19.5,23.5,19.7z"/>
		<path class="st7" d="M23,19.2c-0.1,0-0.2,0-0.3,0.1h0.1c0.2,0,0.4,0.3,0.4,0.5c0,0.2-0.2,0.3-0.4,0.4h-0.1
			c0.1,0.1,0.2,0.1,0.3,0.1c0.3,0,0.6-0.2,0.6-0.5S23.4,19.2,23,19.2L23,19.2L23,19.2z"/>
		<path class="st5" d="M24.9,15.7c0,0.5-0.4,0.8-0.8,0.8c-0.5,0-0.8-0.4-0.8-0.8c0-0.5,0.4-0.8,0.8-0.8l0,0
			C24.5,14.8,24.9,15.2,24.9,15.7z"/>
		<path class="st5" d="M24.7,15.7c0,0.4-0.3,0.7-0.7,0.7c-0.4,0-0.7-0.3-0.7-0.7c0-0.4,0.3-0.7,0.7-0.7l0,0
			C24.4,14.9,24.7,15.3,24.7,15.7z"/>
		<path class="st6" d="M24.5,15.7c0,0.3-0.2,0.5-0.5,0.5s-0.5-0.2-0.5-0.5c0-0.3,0.2-0.5,0.5-0.5C24.2,15.1,24.5,15.4,24.5,15.7z"/>
		<path class="st7" d="M24.1,15.1c-0.1,0-0.2,0-0.3,0.1h0.1c0.2,0,0.5,0.1,0.5,0.4c0,0.2-0.1,0.5-0.4,0.5h-0.1h-0.1
			c0.1,0.1,0.2,0.1,0.3,0.1c0.3,0,0.5-0.2,0.5-0.5l0,0C24.5,15.4,24.3,15.2,24.1,15.1z"/>
		<path class="st5" d="M25.3,11.7c0,0.5-0.4,0.8-0.8,0.8c-0.5,0-0.8-0.4-0.8-0.8c0-0.5,0.4-0.8,0.8-0.8l0,0
			C25,10.9,25.3,11.3,25.3,11.7z"/>
		<path class="st5" d="M25.2,11.7c0,0.4-0.3,0.7-0.7,0.7c-0.4,0-0.7-0.3-0.7-0.7c0-0.4,0.3-0.7,0.7-0.7l0,0
			C24.8,11,25.2,11.3,25.2,11.7z"/>
		<path class="st6" d="M24.9,11.7c0,0.3-0.2,0.5-0.5,0.5S24,12,24,11.7c0-0.3,0.2-0.5,0.5-0.5S24.9,11.4,24.9,11.7L24.9,11.7z"/>
		<path class="st7" d="M24.4,11.3c-0.1,0-0.2,0-0.3,0.1l0,0c0.2,0,0.4,0.2,0.4,0.4l0,0c0,0.2-0.2,0.4-0.4,0.4l0,0l0,0
			c0.2,0.2,0.6,0.1,0.7-0.1c0.2-0.2,0.1-0.6-0.1-0.7C24.6,11.3,24.5,11.3,24.4,11.3L24.4,11.3z"/>
		<path class="st5" d="M25.3,7.3c0,0.5-0.4,0.8-0.8,0.8c-0.5,0-0.8-0.4-0.8-0.8s0.4-0.8,0.8-0.8l0,0C25,6.5,25.3,6.8,25.3,7.3z"/>
		<path class="st5" d="M25.2,7.3c0,0.4-0.3,0.7-0.6,0.7c-0.4,0-0.7-0.3-0.7-0.6c0-0.4,0.3-0.7,0.6-0.7l0,0
			C24.8,6.6,25.2,6.8,25.2,7.3z"/>
		<path class="st6" d="M24.9,7.3c0,0.3-0.2,0.5-0.5,0.6c-0.3,0-0.5-0.2-0.6-0.5c0-0.3,0.2-0.5,0.5-0.6l0,0C24.7,6.7,24.9,7,24.9,7.3
			z"/>
		<path class="st7" d="M24.4,6.7c-0.1,0-0.2,0-0.3,0.1l0,0c0.2,0,0.5,0.1,0.5,0.4s-0.1,0.5-0.4,0.5h-0.1l0,0c0,0.1,0.2,0.1,0.3,0.1
			c0.3,0,0.6-0.2,0.6-0.5S24.8,6.8,24.4,6.7L24.4,6.7L24.4,6.7z"/>
		<path class="st8" d="M23,20.1c0,0,0.6-0.4,0-0.7c-0.6-0.3-1-0.6-1.5-0.8c-0.3,0-0.6,0.3-0.5,0.6l0,0C21,19.1,22.4,20.2,23,20.1z"
			/>
		<path class="st8" d="M24.1,16c0,0,0.5-0.5-0.3-0.7c-0.6-0.1-1.1-0.2-1.7-0.4c-0.3,0.1-0.4,0.5-0.3,0.7l0,0
			C21.9,15.7,23.6,16.3,24.1,16z"/>
		<path class="st8" d="M24.5,12c0,0,0.4-0.6-0.3-0.6c-0.6,0-1.1-0.1-1.7-0.3c-0.3,0.2-0.4,0.5-0.2,0.7l0,0
			C22.3,11.9,24.1,12.4,24.5,12z"/>
		<path class="st8" d="M24.5,7.6c0,0,0.4-0.6-0.4-0.6c-0.6,0-1.1,0-1.7-0.1c-0.3,0.2-0.4,0.5-0.2,0.7c0,0,0,0,0,0.1
			C22.3,7.6,24.1,7.9,24.5,7.6z"/>
	</g>
</g>
</svg>
