<?xml version="1.0" encoding="utf-8"?>
<!-- Generator: Adobe Illustrator 23.1.0, SVG Export Plug-In . SVG Version: 6.00 Build 0)  -->
<svg version="1.1" id="icons" xmlns="http://www.w3.org/2000/svg" xmlns:xlink="http://www.w3.org/1999/xlink" x="0px" y="0px"
	 viewBox="0 0 47 47" style="enable-background:new 0 0 47 47;" xml:space="preserve">
<style type="text/css">
	.st0{fill:#32B1F0;}
	.st1{fill:#52C6FF;}
	.st2{fill:#ADF0FF;}
	.st3{fill:#BE1622;}
	.st4{fill:#EBAF6E;}
	.st5{fill:#575756;}
	.st6{fill:#3C3C3B;}
	.st7{fill:#FFBE78;}
</style>
<title>IndoorSurfing</title>
<g id="Indoor_Surfing">
	<path class="st0" d="M6.9,10.2C6.7,10,7.4,9.5,7.5,9.4c0.4-0.4,0.8-0.7,1.3-1c0.9-0.6,1.9-1.1,2.9-1.5c2-0.8,4.1-1.2,6.2-1.2
		c4.5-0.1,8.9,1.5,12.3,4.5c3.3,3,5.3,7.2,5.7,11.6s-1.1,8.8-4.1,12.1c-2.9,3.3-7.2,5.1-11.6,5c-0.5,0-1-0.1-1.5-0.2
		c-0.3-0.1-1.1-0.2-1.1-0.5c-0.1-0.3,2.2-0.4,2.5-0.5c2.1-0.3,4.2-1.1,6-2.2c3.8-2.3,6.3-6.2,6.8-10.6c0.4-4.5-1.2-8.9-4.3-12.2
		C25.7,9.8,21.9,8.2,17.8,8c-2-0.1-3.9,0.1-5.9,0.6C11,8.8,10,9.1,9.1,9.5L7.8,10C7.7,10,7,10.4,6.9,10.2z"/>
	<path class="st1" d="M10.2,6.2C10,6,10.5,5.5,10.7,5.4c0.4-0.4,0.7-0.7,1.2-1C12.6,4,13.3,3.6,14,3.3c2-0.8,4.1-1.2,6.2-1.3
		c4.6-0.3,9.1,1.2,12.6,4c3.3,2.8,5.5,6.6,6.3,10.8c0.6,4-0.2,8.1-2.3,11.5c-1,1.7-2.3,3.1-3.8,4.3c-0.6,0.5-1.4,1-2.1,1.3
		c-0.2,0.1-0.9,0.4-1.1,0.2c-0.1-0.2,0.5-0.8,0.7-0.9c1.4-1.3,2.6-2.8,3.6-4.4c1.1-1.8,1.8-3.7,2.2-5.7c0.8-4.2-0.2-8.6-2.7-12.1
		c-1.3-1.8-2.9-3.3-4.8-4.4c-2-1.1-4.2-1.9-6.5-2.1c-2.3-0.3-4.7-0.3-7,0.1c-0.9,0.2-1.8,0.4-2.6,0.7c-0.5,0.2-0.9,0.3-1.3,0.5
		C11,6,10.4,6.4,10.2,6.2z"/>
	<path class="st2" d="M30.7,3.2c0-0.3,0.8-0.2,1-0.2c0.5,0,1,0.1,1.5,0.3c1,0.3,2,0.8,2.9,1.3c1.6,1.1,3,2.5,4.1,4.2
		c2.5,3.7,3.4,8.2,2.5,12.6c-1.8,8.8-9.5,15.2-18,17.3c-1,0.3-2,0.5-3,0.6c-0.1,0-1.5,0.2-1.4-0.2c0.1-0.3,0.4-0.3,0.5-0.4
		c0.4-0.3,0.9-0.4,1.4-0.7l2.9-1.3c4-1.8,7.5-4.3,10.4-7.5c3.1-3.4,4.8-7.9,4.7-12.5c-0.3-4.2-2.3-8.2-5.5-10.9
		c-0.7-0.6-1.4-1.1-2.2-1.5c-0.4-0.2-0.7-0.4-1.1-0.6C31.2,3.6,30.7,3.4,30.7,3.2z"/>
	<path class="st3" d="M12.5,36.2c-2.3,1.5-4.4,3.3-6.2,5.4c-0.6,0.8-1.2,1.6-1.7,2.4c-0.2,0.4-0.4,0.7-0.6,1.1
		c5.8-0.9,11.3-2.8,16.5-5.6c2.8-1.6,5.4-3.4,7.8-5.4c1.1-0.8,2-1.8,2.7-2.9c0.3-0.5,0.5-1.1-0.2-1.5c-0.2-0.2-0.3-0.2-0.4-0.2
		c-1.1-0.2-2.2-0.2-3.3,0.2c-1.8,0.5-3.6,1.1-5.3,1.8C18.6,32.7,15.5,34.3,12.5,36.2z"/>
	<path class="st4" d="M21.7,27.6L21.7,27.6c-0.1,0.6-0.7,1.1-1.3,1l-1.3-0.2c-0.2-0.8,0-1.6,0.4-2.3l1.2,0.2
		C21.3,26.3,21.8,26.9,21.7,27.6L21.7,27.6z"/>
	<path class="st4" d="M19.3,34.4c-0.3-0.1-0.8-0.1-0.7-0.9l0.8-6.4c0.1-0.6,0.7-1,1.4-0.9l0,0c0.6,0.1,1,0.8,0.9,1.4l-1.6,6.1
		C19.9,34.7,19.3,34.4,19.3,34.4z"/>
	<path class="st4" d="M18.9,32.8c-0.4,0.7-0.6,1.7-0.1,1.7h3.6c0.1,0,0.2-0.1,0.2-0.2c0-0.1,0-0.2-0.1-0.3
		C21.4,33.4,20.2,33,18.9,32.8z"/>
	<path class="st5" d="M19,28.4l-4.3-0.6c-0.6-0.1-1.1-0.7-1-1.3l0,0c0.1-0.6,0.7-1.1,1.3-1l0,0l4.4,0.7C19,26.7,18.9,27.6,19,28.4z"
		/>
	<path class="st6" d="M13.5,28.8l-1.2-0.9c-1-0.8-1.3-2.2-0.6-3.4l2.4-4c1-1.2,2.4-1.8,4-1.7l2.1,0.8C18.3,22.9,16.1,26,13.5,28.8z"
		/>
	<path class="st7" d="M14.3,36.9c-0.3-0.2-0.8-0.4-0.4-1.1l2.9-6c0.3-0.6,1.1-0.7,1.6-0.4l0,0c0.6,0.3,0.7,1.1,0.4,1.6l0,0l-3.4,5.5
		C14.8,37.4,14.3,36.9,14.3,36.9z"/>
	<path class="st7" d="M18.8,31.1L18.8,31.1c-0.4,0.5-1.1,0.6-1.7,0.3l-1-0.6c0.3-0.8,0.8-1.4,1.6-1.8l0.8,0.6
		C19.1,29.9,19.2,30.6,18.8,31.1z"/>
	<path class="st7" d="M12.2,23.5L11,24.1c-0.5,0.2-1.1,0-1.3-0.5l0,0c-0.2-0.5,0-1,0.5-1.3l1.2-0.6C11.7,22.2,12,22.8,12.2,23.5z"/>
	<path class="st7" d="M7.4,28.2L7.4,28.2C7.2,28,7.2,27.4,7.5,27l2.1-4.2c0.3-0.5,0.9-0.6,1.4-0.4l0,0l0,0c0.5,0.3,0.6,0.9,0.4,1.4
		l0,0l-2.8,4C8.2,28.2,7.9,28.5,7.4,28.2z"/>
	<path class="st7" d="M14,35.8c-0.5,0.7-0.7,1.7-0.2,1.7h3.7c0.1,0,0.2-0.1,0.2-0.2c0-0.1-0.1-0.2-0.2-0.2
		C16.5,36.5,15.2,36,14,35.8z"/>
	<path class="st7" d="M7,27.6c0.1-0.3,0.5-0.4,0.8-0.3l0.5,0.2c0.2,0.2,0.3,0.5,0.2,0.7l-1.1,2.3c-0.1,0.1-0.1,0.2-0.3,0.2
		c-0.1,0-0.2,0-0.3-0.1l-0.3-0.4c-0.3-0.3-0.4-0.7-0.2-1.1L7,27.6z"/>
	<path class="st7" d="M8.2,28.3L8.2,28.3c0.1,0,0.3-0.5,0.4-0.4l0.2,1.6c0,0.1,0,0.3-0.2,0.3l0,0l0,0c-0.1,0-0.3,0-0.3-0.2l0,0
		L8,28.5C8,28.5,8,28.3,8.2,28.3L8.2,28.3z"/>
	<path class="st6" d="M21.8,19.4L21.8,19.4c0-0.6-0.2-1.2-0.4-1.7h0.1c0.5-0.1,0.9,0.2,1.1,0.6l0,0l0,0
		C22.6,18.8,22.3,19.2,21.8,19.4L21.8,19.4z"/>
	<path class="st4" d="M26.3,20.8L26.3,20.8c-0.2,0.4-0.6,0.2-1,0l-3.9-1.6C21,19,20.8,18.5,21,18l0,0c0.2-0.4,0.7-0.6,1.2-0.4l0,0
		l3.6,2.2C26.2,20.1,26.5,20.3,26.3,20.8z"/>
	<path class="st4" d="M26.4,20c-0.2-0.1-0.5,0-0.7,0.2l0,0l-0.2,0.4c-0.1,0.2,0,0.5,0.2,0.6l0,0l2,1c0.1,0,0.2,0,0.3,0
		c0.1,0,0.2-0.1,0.2-0.2l0.1-0.4c0-0.4-0.1-0.7-0.5-0.9L26.4,20z"/>
	<path class="st4" d="M26,21.1L26,21.1c-0.1,0-0.5-0.2-0.4-0.1l0.7,1.3c0,0.1,0.2,0.2,0.3,0.1l0,0c0.1,0,0.2-0.2,0.1-0.3l-0.4-0.9
		C26.3,21.2,26.1,21.1,26,21.1z"/>
	<path class="st5" d="M15.3,22l-3.2,1.5c-0.1-0.7-0.4-1.3-0.9-1.8l3.2-1.5c0.5-0.2,1.1,0,1.3,0.5l0,0C16,21.1,15.8,21.7,15.3,22
		L15.3,22z"/>
	<path class="st6" d="M17.8,28.9c-0.7,0.4-1.3,1.1-1.6,1.9l-3.7-2.6c-0.5-0.4-0.7-1.1-0.3-1.7l0,0l0,0c0.4-0.5,1.1-0.6,1.6-0.3
		L17.8,28.9z"/>
	<path class="st6" d="M21.7,19.4l-4,0.9c-0.5,0.1-0.9-0.2-1.1-0.7l0,0l0,0c-0.1-0.5,0.2-1,0.7-1.1l4.1-0.9
		C21.6,18.2,21.7,18.8,21.7,19.4z"/>
	<path class="st7" d="M17.7,21.2L17.7,21.2c0.4,0.1,0.8-0.1,1.1-0.4c0.1-0.1,0.3-0.4,0.5-0.6c0.2-0.3,0.3-0.6,0.4-1l0,0h0.1
		c0.2-0.1,0.2-0.3,0.3-0.6c0.1-0.3,0-0.7-0.2-0.7c-0.1,0-0.3,0.1-0.3,0.2V17c0-0.4-0.4-0.8-0.8-0.8h-2.1c-0.4,0-0.9,0.3-0.9,0.7v0.9
		c-0.1-0.1-0.1,0-0.2,0c-0.1,0-0.2,0.4-0.2,0.7c0.1,0.4,0.1,0.5,0.3,0.6h0.1l0,0c0.1,0.3,0.2,0.7,0.4,1c0.2,0.3,0.3,0.5,0.5,0.6
		C16.7,21.1,17.2,21.3,17.7,21.2z"/>
	<path class="st5" d="M19.5,16.7c0,0.1,0.1,0.1,0.1,0.2V17v1.1V18v0.1c0.1-0.1,0.1-0.2,0.2-0.2l0,0l0.1-0.1L20,17
		c0-0.2,0-0.4-0.1-0.6C19.7,16.5,19.6,16.6,19.5,16.7z"/>
	<path class="st6" d="M18.1,15.1c0.1-0.1,0-0.4,0-0.4c-0.3,0.3-0.6,0.2-1.5,0.5l0,0c-0.3,0.1-0.5,0.3-0.7,0.5l-0.1,0.1
		c-0.2,0.3-0.4,0.7-0.3,1.1l0.1,0.9h0.1c0.1,0.1,0.1,0.2,0.1,0.2c0-0.5,0-1,0.1-1.5c0.5-1.2,2.5,1.8,4.6-0.7c0,0-0.3,0-0.3-0.1
		c0.2-0.2,0.3-0.4,0.4-0.7c-0.3,0.2-0.6,0.3-0.9,0.3l0.1-0.2c-0.3,0.1-0.6,0.1-0.9,0l0,0C18.6,15.2,18.3,15.1,18.1,15.1z"/>
</g>
</svg>
