<?xml version="1.0" encoding="utf-8"?>
<!-- Generator: Adobe Illustrator 23.1.0, SVG Export Plug-In . SVG Version: 6.00 Build 0)  -->
<svg version="1.1" id="icons" xmlns="http://www.w3.org/2000/svg" xmlns:xlink="http://www.w3.org/1999/xlink" x="0px" y="0px"
	 viewBox="0 0 47 47" style="enable-background:new 0 0 47 47;" xml:space="preserve">
<style type="text/css">
	.st0{fill:#4B6975;}
	.st1{fill:#608796;}
	.st2{fill:none;stroke:#608796;stroke-width:1.96;stroke-miterlimit:10;}
	.st3{fill:#FF2626;}
	.st4{fill:#FFFFFF;}
	.st5{fill:#FFD119;}
	.st6{fill:#DBDBDB;}
</style>
<title>Insanity</title>
<g id="Insanity">
	<rect x="13.3" y="12.4" transform="matrix(0.8618 -0.5072 0.5072 0.8618 -5.4381 9.2679)" class="st0" width="1.9" height="4.5"/>
	<path class="st1" d="M12.2,11.7l0.5-0.3c0.4-0.2,1-0.1,1.2,0.3l1.8,3.1l0,0l-2,1.2l0,0l-1.8-3.1C11.6,12.5,11.7,12,12.2,11.7z"/>
	<rect x="30.5" y="13.8" transform="matrix(0.5072 -0.8618 0.8618 0.5072 3.4469 35.5021)" class="st0" width="4.5" height="1.9"/>
	<path class="st1" d="M33.2,16l-2-1.2l0,0l1.8-3.1c0.2-0.4,0.7-0.5,1.2-0.3l0.5,0.3c0.4,0.2,0.5,0.7,0.3,1.2L33.2,16L33.2,16z"/>
	<circle class="st2" cx="23.5" cy="6.8" r="5.8"/>
	<rect x="21.7" y="10.2" class="st0" width="3.6" height="4.7"/>
	<circle class="st3" cx="23.5" cy="29.8" r="16.1"/>
	<circle class="st4" cx="23.5" cy="29.8" r="13.5"/>
	<path class="st5" d="M31.9,24.6l1.6-1c-1-1.6-2.4-2.9-3.8-3.8l-1,1.6C30,22.2,31.1,23.3,31.9,24.6z"/>
	<path class="st5" d="M28.2,21l1-1.6c-1.6-0.9-3.4-1.4-5.3-1.4V20C25.3,20,26.8,20.3,28.2,21z"/>
	<path class="st5" d="M33.4,29.5h1.9c-0.1-1.8-0.5-3.6-1.4-5.2l-1.6,1C33,26.5,33.4,28,33.4,29.5z"/>
	<path class="st5" d="M33.4,30.2c0,1.5-0.4,3-1.2,4.4l1.6,1c0.9-1.6,1.4-3.4,1.4-5.2h-1.8V30.2z"/>
	<path class="st5" d="M15.1,35.1l-1.6,1c1,1.6,2.2,2.9,3.8,3.8l0.9-1.7C16.9,37.5,15.8,36.4,15.1,35.1z"/>
	<path class="st5" d="M23.8,39.8v1.9c1.8,0,3.6-0.5,5.2-1.4l-1-1.6C26.8,39.4,25.3,39.7,23.8,39.8z"/>
	<path class="st5" d="M28.7,38.4l1,1.6c1.6-1,2.9-2.2,3.8-3.8l-1.6-1C31.2,36.4,30,37.5,28.7,38.4z"/>
	<path class="st5" d="M13.6,30.2h-1.9c0,1.8,0.5,3.6,1.4,5.2l1.6-1C14,33.1,13.6,31.7,13.6,30.2z"/>
	<path class="st5" d="M18.8,38.7l-1,1.6c1.6,0.9,3.4,1.4,5.2,1.4v-1.9C21.6,39.7,20.2,39.3,18.8,38.7z"/>
	<path class="st6" d="M14.7,25.2l-1.6-1c-0.9,1.6-1.4,3.4-1.4,5.2h1.9C13.6,28,14,26.5,14.7,25.2z"/>
	<path class="st6" d="M18.3,21.4l-1-1.6c-1.6,1-2.9,2.2-3.8,3.8l1.6,1C15.8,23.3,17,22.2,18.3,21.4z"/>
	<path class="st6" d="M23.2,19.9v-1.9c-1.8,0.1-3.6,0.5-5.2,1.5l1,1.6C20.2,20.4,21.6,20,23.2,19.9z"/>
	<path class="st1" d="M20.8,7.9h5.4c0.5,0,1.1,0.4,1.1,1.1v0.7c0,0.5-0.4,1.1-1.1,1.1h-5.4c-0.5,0-1.1-0.4-1.1-1.1V9
		C19.8,8.3,20.2,7.9,20.8,7.9z"/>
	<path class="st1" d="M23.5,27.3c-1.7,0-3.1-1.4-3.1-3.1s1.4-3.1,3.1-3.1c1.7,0,3.1,1.4,3.1,3.1l0,0C26.6,26,25.2,27.3,23.5,27.3z
		 M23.5,21.8c-1.4,0-2.6,1.2-2.6,2.6c0,1.4,1.2,2.6,2.6,2.6c1.4,0,2.6-1.2,2.6-2.6C26.1,22.9,24.9,21.8,23.5,21.8L23.5,21.8
		L23.5,21.8z"/>
	<polygon class="st0" points="23.5,22.1 23.7,24.8 23.3,24.8 	"/>
	<path class="st0" d="M23.5,30.7c0.3,0,0.6-0.2,0.7-0.5l8.8-0.6h-8.8c-0.1-0.3-0.4-0.4-0.7-0.4s-0.5,0.2-0.7,0.4h-1.6v1l1.6-0.1
		C23,30.6,23.3,30.8,23.5,30.7z M23.3,30.2C23.1,30.1,23,30,23,29.8c0-0.2,0.1-0.3,0.2-0.4c0.1,0,0.1,0,0.2-0.1c0.1,0,0.1,0,0.2,0.1
		s0.2,0.2,0.2,0.3c0,0.1-0.1,0.3-0.2,0.4c-0.1,0-0.1,0.1-0.2,0.1C23.5,30.3,23.4,30.2,23.3,30.2z"/>
</g>
</svg>
