<?xml version="1.0" encoding="utf-8"?>
<!-- Generator: Adobe Illustrator 23.1.0, SVG Export Plug-In . SVG Version: 6.00 Build 0)  -->
<svg version="1.1" id="icons" xmlns="http://www.w3.org/2000/svg" xmlns:xlink="http://www.w3.org/1999/xlink" x="0px" y="0px"
	 viewBox="0 0 47 47" style="enable-background:new 0 0 47 47;" xml:space="preserve">
<style type="text/css">
	.st0{fill:#334A61;}
	.st1{fill:#F15A24;}
</style>
<title>JaiAlai</title>
<g id="Jai_Alai">
	<path class="st0" d="M12.2,40.6c0,0-2.4,2.9,1.1,3.5c1.6,0.3,8-2.2,8-2.2l2.4-4.8c0,0-2.2-0.5-2.7-2.2l-2.4,4.2L12.2,40.6z"/>
	<path class="st0" d="M28.3,43.7c0,0-1.8,2.3-3.3-1l2.5-5.6c0,0-7.4-1.2-5.2-5.7s3.5-7.5,3.5-7.5l-7.6-4.6c0,0-12.6-6.8-10.1-15.4
		c0.8-2.7,6.2-1.6,7.3,5.2s8.4,10.1,8.4,10.1s9.3,3.9,7.8,7.3s-3.1,7.2-3.1,7.2s4.2,0.5,3.3,3S28.3,43.7,28.3,43.7z"/>
	<path class="st0" d="M32.8,27c0,0-2.2,3.6-1.3,5c0.9,1.4,6.9,0,7.6-1.3s-0.7-2.5-3-1.8c-0.8,0.3-1.7,0.5-2.5,0.9L32.8,27z"/>
	<circle class="st0" cx="32.3" cy="18.3" r="3.6"/>
	<circle class="st1" cx="20.9" cy="5.6" r="2.2"/>
</g>
</svg>
