<?xml version="1.0" encoding="utf-8"?>
<!-- Generator: Adobe Illustrator 23.1.0, SVG Export Plug-In . SVG Version: 6.00 Build 0)  -->
<svg version="1.1" id="icons" xmlns="http://www.w3.org/2000/svg" xmlns:xlink="http://www.w3.org/1999/xlink" x="0px" y="0px"
	 viewBox="0 0 47 47" style="enable-background:new 0 0 47 47;" xml:space="preserve">
<style type="text/css">
	.st0{fill:#334A61;}
	.st1{opacity:0.2;fill:#334A61;enable-background:new    ;}
	.st2{opacity:0.3;fill:#334A61;enable-background:new    ;}
</style>
<title>Jazzercise</title>
<g id="Jazzercise">
	<path class="st0" d="M25.3,43.9c-0.4-0.2-2.4-1-2.6-1.7c0-0.3,0-0.5,0-0.8l-1.3-0.1c0,0.2,0,0.4,0,0.6c-0.1,0.5-0.5,1.5-0.3,1.9
		s1,0.4,1.2,0.4s2.5,0.2,2.8,0.3S25.7,44.1,25.3,43.9z"/>
	<path class="st0" d="M22.9,42.5c0.4,0.3,0.9,0.6,1.4,0.8c0.3,0.1,1,0.4,1.1,0.5c0.3,0.2,0.1,0.7-0.3,1c-0.7,0.3-1.6,0.3-2.3,0
		c-0.2-0.1-0.5-0.5-0.6-0.4c-0.2,0.2-0.4,0.2-0.6,0.2s-1-0.3-1-0.5c0-0.5,0.2-0.9,0.5-1.3c0.2,0.1,0.3,0.2,0.5,0.2
		c0.4,0.1,0.9,0,1.2-0.3C22.8,42.6,22.8,42.5,22.9,42.5z"/>
	<path class="st0" d="M25,44.8c-0.7,0.3-1.6,0.3-2.3,0c-0.2-0.1-0.5-0.5-0.6-0.4c-0.2,0.2-0.4,0.2-0.6,0.2s-1-0.3-1-0.5V44
		c0.1,0.2,0.7,0.4,1,0.5c0.2,0,0.4-0.1,0.6-0.2c0.1-0.1,0.4,0.3,0.6,0.4C23.4,45,24.3,45,25,44.8c0.3-0.2,0.5-0.5,0.5-0.8
		C25.6,44.4,25.4,44.7,25,44.8z"/>
	<path class="st0" d="M28,32.6c-0.3-0.4-1.5-2.2-1.3-2.9c0.1-0.2,0.3-0.5,0.4-0.7l-1-0.8c-0.1,0.2-0.2,0.4-0.4,0.5
		c-0.4,0.4-1.3,1-1.4,1.5s0.6,0.9,0.9,1c0.2,0.1,2,1.6,2.2,1.8C27.7,33.2,28.3,33,28,32.6z"/>
	<path class="st0" d="M24,30.1L24,30.1c-0.1,0.2,0.3,0.8,0.5,1c0.2,0.1,0.4,0.2,0.6,0.1c0.1,0,0.1,0.4,0.3,0.7l0,0
		c0.1,0.2,0.3,0.4,0.4,0.5c0.4,0.4,0.9,0.7,1.5,0.8c0.2,0,0.5,0,0.7-0.1c0.1,0,0.1-0.1,0.1-0.2c0,0,0,0,0-0.1c0-0.1,0-0.2,0-0.3
		c-0.2-0.3-0.4-0.7-0.7-1c-0.2-0.3-0.4-0.7-0.6-1c0,0,0,0,0-0.1c-0.1-0.1-0.1-0.2-0.1-0.4l0,0c0,0-0.1,0-0.2,0.1h0h-0.3
		c-0.4,0-0.7-0.2-1-0.4c-0.1-0.1-0.2-0.3-0.2-0.5l0,0C24.7,29.4,24.3,29.7,24,30.1z"/>
	<path class="st0" d="M27.4,33.3c-0.8-0.2-1.5-0.6-2-1.3c-0.2-0.2-0.1-0.7-0.3-0.7c-0.2,0-0.4,0-0.6-0.1c-0.2-0.2-0.7-0.8-0.5-1l0,0
		c0,0.2,0.4,0.8,0.5,0.9c0.2,0.1,0.4,0.2,0.6,0.1c0.2,0,0.2,0.5,0.3,0.7c0.5,0.7,1.2,1.1,2,1.3c0.3,0.1,0.6,0,0.8-0.3
		C28,33.2,27.7,33.3,27.4,33.3z"/>
	<path class="st0" d="M24.5,19.8L24.5,19.8c0,0,0,0.1,0,0.2c-0.1,0.7-0.3,2.9-0.4,5l0,0c-0.2,2.5-0.4,4.9-0.4,5.3c0,0.2,0,0.5,0,0.8
		c0,0.7,0,1.4-0.2,2.1c-0.5,2.8-0.7,5.7-0.8,8.6l0,0L21.2,42l0,0c0-0.5-0.1-1.1-0.2-1.8c-0.2-1.8-0.5-3.9-0.5-5.1v-0.4
		c0-0.9,0.2-1.8,0.4-2.6c0.1-0.3,0.2-0.6,0.3-0.7c0-0.1,0-0.3,0-0.4c0-1-0.4-4.5-0.9-5.3c-0.5-0.9-0.8-2-0.7-3
		c0.1-0.4,0.2-0.8,0.4-1.1c0.7-1.4,1.5-1.5,1.5-1.5S24.1,19.4,24.5,19.8L24.5,19.8z"/>
	<path class="st1" d="M24.5,20c-0.1,0.7-0.3,2.9-0.4,5c-1.4,0.4-2.9,0.7-3.8-0.5c-0.4-0.5-0.5-1.1-0.3-1.7c0.1-0.4,0.1-0.8,0.3-1.2
		c0.2-0.7,0.7-1.2,1.4-1.4c0.7-0.2,1.4-0.3,2.1-0.3C24,19.9,24.2,19.9,24.5,20z"/>
	<path class="st0" d="M32.1,21.2c-1.1-0.7-2.4-1.1-3.7-1.1c-0.6-0.1-3.5-0.3-4-0.4h-0.2l0,0c-1-0.2-2-0.1-2.9,0.2
		c-0.7,0.2-1.2,0.7-1.4,1.4c-0.1,0.4-0.2,0.8-0.3,1.2c-0.2,0.6,0,1.2,0.3,1.6c1,1.3,2.8,0.7,4.2,0.4c1-0.3,1.9-0.8,2.6-0.9
		c0.9-0.2,1.8-0.3,2.7-0.4c-0.9,0.3-1.9,2.2-2.4,3.1c-0.3,0.4-0.9,1.9-1,2l0.8,0.7l0.2,0.1c0.1-0.1,0.5-0.5,1-0.9s1.1-1,1.4-1.3
		c0.6-0.5,3.5-3.3,3.4-4.2C33,22.1,32.6,21.6,32.1,21.2z"/>
	<path class="st1" d="M32.1,21.2c-1.1-0.7-2.4-1.1-3.7-1.1c-0.6-0.1-3.5-0.3-4-0.4c0,0,3,0.5,3.6,0.6c1.3,0.1,2.6,0.5,3.7,1.1
		c0.5,0.4,0.8,0.9,0.8,1.5c0.1,0.9-2.8,3.6-3.4,4.2c-0.3,0.3-0.9,0.8-1.4,1.3L27,29l0.1,0.1c0.1-0.1,0.5-0.5,1-0.9s1.1-1,1.4-1.3
		c0.6-0.5,3.5-3.3,3.4-4.2C32.9,22.1,32.6,21.6,32.1,21.2z"/>
	<path class="st1" d="M20.8,34.3c0,0.1,0,0.3,0,0.4c0,1.4,0.3,3.7,0.5,5.5c0.1,0.7,0.1,1.2,0.2,1.7h-0.3l0,0c0-0.5-0.1-1.1-0.2-1.8
		c-0.2-1.7-0.4-3.8-0.4-5.1v-0.5c0-0.9,0.2-1.8,0.4-2.6C21,32.7,21,33.5,20.8,34.3z"/>
	<path class="st0" d="M19.6,8.7c-0.3-0.3-1.5,0.9-2,1.6c-0.5,0.7-2.8,4.3-3.1,4.7c-0.3,0.5-0.5,1.1-0.4,1.7c0.1,0.4,1.2,4.6,1.2,4.9
		s-0.1,1.6-0.1,2c0.1,0.4,0.4,0.8,0.7,1c0.2,0.1,1.2,0.2,1.4,0s0.5-1.2,0.2-1.5c-0.4-0.4-0.7-0.9-0.9-1.4c-0.3-1.8-0.5-3.7-0.5-5.6
		c0.1-0.6,2.2-2.8,2.6-3.3c0.5-0.6,0.9-1.4,1.2-2.1C20,10.1,19.9,9.4,19.6,8.7z"/>
	<path class="st0" d="M23.7,10c1-0.1,2-0.2,3.1-0.4c0.8-0.1,1.6-0.3,2.4-0.6c-0.7-0.6-2.6-2.9-3-3.1s-1.7,0.4-1.9,0s-0.3-1.4,0-1.6
		C24.8,4,25.4,4,26,4.2c0.4,0.3,0.6,0.7,0.8,0.9s3.8,3,4.4,3.6c0.3,0.4-0.1,1.5-0.8,1.8c-1.9,0.6-3.7,1.1-5.7,1.5
		c-0.6,0-1.1-0.9-1.1-0.9L23.7,10z"/>
	<path class="st0" d="M23.2,12.1c-0.1,0.4-1.2-0.3-1.6-0.7c-0.3-0.5-1.1-1.8-1.1-1.8c-0.1-0.3-0.1-0.6,0-0.9
		c0.1-0.2,0.1-0.4,0.2-0.6c0-0.1,0-0.2,0-0.3c0,0,1.5,0.5,1.4,0.7c0,0.1,0,0.3,0,0.4c0,0.2,0,0.3,0.1,0.4c0.2,0.2,0.5,0.4,0.8,0.5
		c0.2,0.1,0.2,0.1,0.4,0.2C23.4,10.7,23.3,11.4,23.2,12.1z"/>
	<path class="st0" d="M20.1,20.7c0.2-1.4,0.3-2.9,0.2-4.3c-0.4-1.2-1-2.4-1.7-3.5c0.5-0.6,0.9-1.3,0.9-2.1c0.1-0.7,0-1.5-0.2-2.1
		c0,0,0.8,0,1.1,0c0.2,0.4,0.6,1.4,1,2s1.1,1.1,1.6,0.9c0.3-0.1,0.2-1.1,0-1.7l0.7,0.2c0.1,0.5,0.5,1.7,1.2,2
		c0.3,0.4,0.5,0.9,0.5,1.5c0,0.5-0.2,0.9-0.6,1.3c0,0.8-0.2,5-0.2,5S21.3,21,20.1,20.7z"/>
	<path class="st1" d="M20.3,20.7c0.2-1.5,0.3-3,0.2-4.5c-0.4-1.3-0.9-2.5-1.6-3.7c-0.1,0.1-0.2,0.2-0.2,0.3c0.7,1.1,1.3,2.3,1.7,3.5
		c0,1.4,0,2.9-0.2,4.3L20.3,20.7z"/>
	<path class="st2" d="M24.9,11.9c-0.7-0.3-1-1.5-1.2-2h-0.2c0.2,0.6,0.5,1.7,1.2,1.9c0.3,0.5,0.5,1,0.5,1.6c0,0.5-0.2,1-0.6,1.3
		c0,0.7-0.1,4.2-0.2,5.1l0.3-0.1c0,0,0.2-4.3,0.2-5c0.3-0.3,0.5-0.8,0.6-1.3C25.4,12.9,25.2,12.3,24.9,11.9z"/>
	<path class="st1" d="M22.1,8.9c-0.4,0.1-0.8,0-1.1-0.4l-0.3-0.4c0-0.1,0-0.2,0-0.3c0,0,1.5,0.5,1.4,0.7C22.1,8.6,22.1,8.7,22.1,8.9
		z"/>
	<path class="st0" d="M19.3,4.7c0-1.5,1.3-2.7,2.8-2.7s2.7,1.3,2.7,2.8c0,0.2,0,0.5-0.1,0.7c-0.3,1.9-1.4,1.2-2.9,1S19,6.6,19.3,4.7
		z"/>
	<path class="st0" d="M24.7,5.4c-0.2,1.4-0.9,2.7-2,3.6c0.5-1.3,0.6-2.7,0.2-4L24.7,5.4z"/>
	<path class="st0" d="M19.3,4.7c-0.2,1.4,0.1,2.9,1,4c-0.1-1.4,0.2-2.8,0.8-4H19.3z"/>
	<path class="st0" d="M23.8,5.6c0.1-0.1,0.1-0.3,0.2-0.2s-0.3,1.3-0.5,1.4C23.6,6.4,23.7,6,23.8,5.6z"/>
	<path class="st0" d="M20.1,5.1c0-0.2,0-0.3-0.1-0.3s-0.1,1.4,0.1,1.5C20.1,5.9,20.1,5.5,20.1,5.1z"/>
	<path class="st0" d="M24,4.6c0-0.4,0.1-1.6-1.7-1.9l0,0c-1.8-0.2-2.1,1-2.2,1.4c-0.1,1-0.1,2.1,0,3.1c0.2,0.6,0.7,1.1,1.3,1.4l0,0
		c0.7-0.1,1.3-0.4,1.7-1C23.6,6.6,23.8,5.6,24,4.6z"/>
	<path class="st0" d="M24.1,5.1l0.2-1.5c-0.2-0.3-0.4-0.6-0.7-0.8l-2.7-0.4c-0.1,0.1-0.2,0.1-0.3,0.2c0.2,0.7,0.6,1.3,1.2,1.6
		l0.1,0.1c0.4,0.3,0.9,0.5,1.4,0.7L24.1,5.1z"/>
	<path class="st0" d="M21.1,2.5C22.3,2.6,21,4.2,20,4.7c-0.4-0.7-0.2-1.6,0.5-2C20.7,2.6,20.9,2.5,21.1,2.5z"/>
</g>
</svg>
