<?xml version="1.0" encoding="utf-8"?>
<!-- Generator: Adobe Illustrator 23.1.0, SVG Export Plug-In . SVG Version: 6.00 Build 0)  -->
<svg version="1.1" id="icons" xmlns="http://www.w3.org/2000/svg" xmlns:xlink="http://www.w3.org/1999/xlink" x="0px" y="0px"
	 viewBox="0 0 47 47" style="enable-background:new 0 0 47 47;" xml:space="preserve">
<style type="text/css">
	.st0{fill:#4B6975;}
	.st1{fill:#608796;}
	.st2{fill:none;stroke:#608796;stroke-width:1.96;stroke-miterlimit:10;}
	.st3{fill:#FF2626;}
	.st4{fill:#FFFFFF;}
	.st5{fill:#FFD119;}
	.st6{fill:#DBDBDB;}
</style>
<title>JennaWolfeFitness</title>
<g id="Insanity">
	<rect x="13.8" y="12.8" transform="matrix(0.8618 -0.5072 0.5072 0.8618 -5.5882 9.5176)" class="st0" width="1.8" height="4.3"/>
	<path class="st1" d="M12.6,12.2l0.5-0.3c0.4-0.2,0.9-0.1,1.1,0.3l1.8,3l0,0l-1.9,1.1l0,0l-1.8-3C12.1,13,12.2,12.4,12.6,12.2z"/>
	<rect x="30.2" y="14.1" transform="matrix(0.5072 -0.8618 0.8618 0.5072 3.0433 35.2393)" class="st0" width="4.3" height="1.8"/>
	<path class="st1" d="M32.9,16.4L31,15.2l0,0l1.8-3c0.2-0.4,0.7-0.5,1.1-0.3l0.5,0.3c0.4,0.2,0.5,0.7,0.3,1.1L32.9,16.4L32.9,16.4z"
		/>
	<circle class="st2" cx="23.5" cy="7.5" r="5.6"/>
	<rect x="21.7" y="10.8" class="st0" width="3.5" height="4.4"/>
	<circle class="st3" cx="23.5" cy="29.6" r="15.5"/>
	<circle class="st4" cx="23.5" cy="29.6" r="12.9"/>
	<path class="st5" d="M31.6,24.4l1.6-0.9c-0.9-1.4-2.2-2.8-3.7-3.7l-0.9,1.6C29.8,22.3,30.8,23.3,31.6,24.4z"/>
	<path class="st5" d="M27.9,21.1l0.9-1.6c-1.6-0.8-3.3-1.3-5.1-1.3V20C25.3,20.1,26.7,20.4,27.9,21.1z"/>
	<path class="st5" d="M33,29.2h1.9c-0.1-1.8-0.5-3.5-1.3-5.1L32,25.1C32.6,26.3,33,27.7,33,29.2z"/>
	<path class="st5" d="M33,29.9c0,1.4-0.4,2.9-1.1,4.1l1.6,0.9c0.8-1.6,1.3-3.3,1.3-5.1H33z"/>
	<path class="st5" d="M15.4,34.6l-1.7,0.9c0.9,1.4,2.2,2.8,3.7,3.7l0.9-1.6C17.2,36.8,16.2,35.8,15.4,34.6z"/>
	<path class="st5" d="M23.8,39.1V41c1.8,0,3.5-0.5,5.1-1.3l-0.9-1.6C26.7,38.7,25.3,39.1,23.8,39.1z"/>
	<path class="st5" d="M28.6,37.7l0.9,1.6c1.6-0.9,2.8-2.2,3.7-3.7l-1.6-0.9C30.8,35.9,29.8,36.9,28.6,37.7z"/>
	<path class="st5" d="M14,29.9h-1.9c0,1.8,0.5,3.5,1.3,5.1L15,34C14.4,32.7,14,31.4,14,29.9z"/>
	<path class="st5" d="M19,38L18,39.5c1.6,0.8,3.3,1.3,5.1,1.3v-1.8C21.7,39.1,20.3,38.7,19,38z"/>
	<path class="st6" d="M15,25.1l-1.6-0.9c-0.8,1.6-1.3,3.3-1.3,5.1H14C14,27.7,14.4,26.4,15,25.1z"/>
	<path class="st6" d="M18.4,21.4l-0.9-1.6c-1.6,0.9-2.8,2.2-3.7,3.7l1.6,0.9C16.2,23.3,17.2,22.3,18.4,21.4z"/>
	<path class="st6" d="M23.2,20v-1.9c-1.8,0.1-3.5,0.5-5.1,1.4l0.9,1.6C20.3,20.5,21.7,20.1,23.2,20z"/>
	<path class="st1" d="M20.9,8.5h5.2c0.5,0,1,0.4,1,1v0.7c0,0.5-0.4,1-1,1h-5.2c-0.5,0-1-0.4-1-1V9.5C19.9,8.9,20.4,8.5,20.9,8.5z"/>
	<path class="st1" d="M23.5,27.2c-1.7,0-3-1.3-3-2.9c0-1.7,1.3-3,2.9-3c1.7,0,3,1.3,3,2.9l0,0C26.4,25.9,25.2,27.2,23.5,27.2z
		 M23.5,21.8c-1.3,0-2.5,1.1-2.5,2.5s1.1,2.5,2.5,2.5s2.5-1.1,2.5-2.5C26,22.9,24.8,21.8,23.5,21.8L23.5,21.8L23.5,21.8z"/>
	<polygon class="st0" points="23.5,22.2 23.7,24.7 23.3,24.7 	"/>
	<path class="st0" d="M23.5,30.3c0.3,0,0.6-0.2,0.7-0.5l8.4-0.6h-8.4c-0.1-0.3-0.4-0.4-0.7-0.4c-0.3,0-0.5,0.2-0.7,0.4h-1.6v0.9
		l1.6-0.1C23,30.3,23.3,30.4,23.5,30.3z M23.4,29.9c-0.2-0.1-0.3-0.2-0.3-0.4c0-0.2,0.1-0.3,0.2-0.4c0.1,0,0.1,0,0.2-0.1
		c0.1,0,0.1,0,0.2,0.1s0.2,0.2,0.2,0.3c0,0.1-0.1,0.3-0.2,0.4c-0.1,0-0.1,0.1-0.2,0.1C23.5,30,23.4,30,23.4,29.9z"/>
</g>
</svg>
