<?xml version="1.0" encoding="utf-8"?>
<!-- Generator: Adobe Illustrator 23.1.0, SVG Export Plug-In . SVG Version: 6.00 Build 0)  -->
<svg version="1.1" id="icons" xmlns="http://www.w3.org/2000/svg" xmlns:xlink="http://www.w3.org/1999/xlink" x="0px" y="0px"
	 viewBox="0 0 47 47" style="enable-background:new 0 0 47 47;" xml:space="preserve">
<style type="text/css">
	.st0{fill:#41D6E5;}
	.st1{fill:#B5B5B5;}
	.st2{fill:#2B2B2B;}
	.st3{fill:#FC5A00;}
	.st4{fill:#999999;}
</style>
<title>JetSkiing</title>
<g id="jet_skiing">
	<path class="st0" d="M18.6,31.5c-3,0-6.1-0.3-9.1-0.9c-2.2-0.7-4.6-0.5-6.7,0.3c-1.2,0.6-1.7,2-0.7,2.9c0.9,0.6,1.9,0.3,2.9,0
		c1.4-0.5,3-1,4.5-1.1c3,0.1,6,1,8.8-0.4C18.9,32.2,19.1,31.6,18.6,31.5z"/>
	<path class="st1" d="M7.4,19.9c-1.7,1.3-3.3,2.8-4.9,4.3c-2.2,2.2,1.2,2.5,4.5,2.9c5.3,0.6,17.6,0.9,23.5-0.3
		c4.2-0.9,13.8-1.5,13.8-1.5c-1.2-1.7-2.8-3.1-4.6-4.1c-2.7-1.3-1.5-1.1-3.6-0.1c-2,0.9-7,2.9-10,1.2c-2.8-1.5-5.8-2.8-8.8-3.7
		C15.7,18.2,9.1,19.2,7.4,19.9z"/>
	<path class="st2" d="M13.8,13.9C11.2,15.6,7.6,19,7,20.5c-0.4,1.6,0.4,0.9,3.3-0.2c2-0.7,8.6-2,9.4-3.2c0.5-0.7-0.3-3.5-1.2-2.6
		c-1.3,1.7-2.5,0.7-2.1,0C17.2,12.9,17.9,11.2,13.8,13.9z"/>
	<path class="st2" d="M18.4,11.3c-1.2-0.3-1.5,0.4-0.6,0.9c0.3,0.2,0.7,0.3,1.6,0.7c-0.2,1.1-0.7,2-1.7,2.7
		c-0.9,0.5,2.2,1.1,2.2,1.1c0.3-1.1,0.7-2.1,1.3-3.2c0.9,0.1,1.7,0.2,2.6,0.3c0.7,0,1-1-0.1-1.1C21.9,12.4,20.1,12,18.4,11.3z"/>
	<path class="st2" d="M39.7,19.1c0,0,1.7,0.3,3,0.7c1.3,0.4-1.7,2.5-3.8,2.9c-1.6,0.3-3.3,0.3-4.9,0L39.7,19.1z"/>
	<path class="st3" d="M9.1,21c0,0-0.3-0.6,2.2-1.4c1.6-0.4,3-1.3,4.3-2.3c2.2-2.6,4.2-1.8,5.3-0.9c1.2,0.9,1.5,2.3,3.2,3.5
		s4.5,1,7-0.2c2.7-1.2,6.5-2.1,9.2-1.3c1.9,0.5,0.7,1.2-1.6,2.9c-2.1,1.6-4.6,2.7-7.3,3c-2.1,0.3-4.2,1.1-6.1,2.2l-2.7,0.1
		c-0.6-3.1-3.1-5.4-6.2-6.1C12.9,19.5,9.7,21.8,9.1,21z"/>
	<path class="st2" d="M1.5,25.3c0,0,0.7,4.8,7.6,6.1c7,1.3,17.8,0.5,24.3-0.6c7.6-1.4,9.9-3.8,10.6-5.9c-3.5,0-7,0.2-10.6,0.9
		c-2.2,0.3-5.6,1.2-9.3,1.4C16.7,27.8,6.7,27.3,1.5,25.3z"/>
	<path class="st4" d="M2.8,23.8c0,0-1.4,1,2.6,1.5C9.9,26,23.2,27,29,26.1c7.3-1.2,12.8-2,14.7-1.6c1.4,0.3,0.6,1,0.2,1
		c-1.4,0-6.8,0.3-9.3,0.6c-4.6,0.9-9.3,1.4-13.9,1.5c-6.2,0-14.2,0.1-17.9-1.2C0.3,25.4,0.2,23.9,2.8,23.8z"/>
	<path class="st2" d="M18.4,22.1c-1.7,0.1-3.4,0.5-4.9,1.3c-0.7,0.3-1.5,0.7-2.2,1.3c0,0,6-1.6,8.2,0.1c0.6,0.4,1.2,1,1.7,1.6h1.4
		C21.7,24.5,20.2,23,18.4,22.1z"/>
	<path class="st0" d="M41.1,27c-0.9-0.4-2.2,0.4-2.9,1c-1,1-1.7,2.1-2.2,3.4c1.4-1.1,3-1.8,4.7-2.3C41.5,28.6,42.1,27.6,41.1,27z"/>
	<path class="st0" d="M43.8,28.2c-1.6,0.3-3,1.1-4.2,2.2c2.8-0.5,4.7,1.3,6.2,0.1C46.7,29.7,47.2,27.4,43.8,28.2z"/>
	<path class="st0" d="M13.2,31.3c0,0-0.5-1.8-1.7-2.1s-1.6,0.5-0.7,0.7C11.6,30.2,12.5,30.7,13.2,31.3z"/>
	<path class="st0" d="M13.9,30.7c-0.2-0.5-0.2-1.1-0.2-1.7c0.2-0.7,0.7-0.9,1-0.5C14.8,28.8,14.1,29.9,13.9,30.7z"/>
</g>
</svg>
