<?xml version="1.0" encoding="utf-8"?>
<!-- Generator: Adobe Illustrator 23.1.0, SVG Export Plug-In . SVG Version: 6.00 Build 0)  -->
<svg version="1.1" id="icons" xmlns="http://www.w3.org/2000/svg" xmlns:xlink="http://www.w3.org/1999/xlink" x="0px" y="0px"
	 viewBox="0 0 47 47" style="enable-background:new 0 0 47 47;" xml:space="preserve">
<style type="text/css">
	.st0{fill:#334A61;}
</style>
<title>Jogging</title>
<path id="Jogging" class="st0" d="M35.2,27.5c0-0.3-0.1-0.7-0.2-1c-0.2-0.2-0.4-0.4-0.6-0.6c-0.3-0.3-0.6-0.5-0.9-0.8
	c-0.3-0.2-0.6-0.4-0.9-0.7c-0.1-0.1-0.3-0.2-0.4-0.3c-0.2-0.1-0.4-0.2-0.6-0.3c-0.2-0.1-0.4-0.1-0.6-0.1h-0.1
	c0.1-0.1,0.1-0.2,0.1-0.4c0-0.1,0-0.2-0.1-0.2C30.7,23,30.5,23,30.3,23c-0.5-0.2-1-0.5-1.5-0.7c-0.2-0.1-0.5-0.2-0.7-0.4v-0.1
	c0-0.4-0.1-0.8-0.1-1.2c0-0.3-0.1-0.6-0.2-0.9H28c0.1,0,0.2-0.1,0.3-0.2c0-0.1,0-0.2,0-0.4c0-0.2-0.1-0.4-0.1-0.5c0-0.2,0-0.5,0-0.7
	s-0.1-0.5-0.1-0.8c0-0.2,0-0.4,0-0.5l0,0c0.2,0,0.3-0.1,0.4-0.2c0.1-0.2,0.2-0.5,0.3-0.7c0.2-0.3,0.4-0.6,0.6-0.9
	c0.2-0.3,0.3-0.6,0.5-0.9c0.1-0.2,0.3-0.4,0.4-0.7c0.2-0.3,0.3-0.6,0.4-0.9l0.1-0.1c0.3-0.2,0.5-0.5,0.6-0.8c0.2-0.3,0.4-0.7,0.4-1
	c0-0.2-0.1-0.3-0.3-0.3l0,0c0-0.1,0-0.2-0.1-0.3c0-0.1-0.2-0.2-0.3-0.3l0,0c0-0.1,0-0.2,0-0.2c0-0.1-0.1-0.2-0.3-0.2h-0.1
	c0-0.1,0-0.2,0-0.3c0-0.1-0.2-0.2-0.3-0.2c-0.5,0.1-0.9,0.5-1.1,0.9C29.2,9.6,29,9.9,29,10c0.1,0.2,0.1,0.6,0.1,0.9
	c0.1,0.2,0,0.5-0.1,0.7c-0.1,0.1-0.2,0.2-0.3,0.3c-0.1,0.1-0.2,0.2-0.3,0.2L28,10.9c0-0.1-0.1-0.2-0.2-0.4c0-0.1,0-0.2,0-0.3
	c0.1-0.4,0-0.7-0.2-1S27,8.7,26.7,8.5c-0.2-0.1-0.5-0.2-0.8-0.2c0-0.1,0-0.2,0-0.3V7.9C26.3,8,26.7,8,27,7.8
	c0.2-0.2,0.2-0.5,0.1-0.8L27,6.3c0.2-0.2,0.5-0.4,0.5-0.6c0-0.2-0.2-0.4-0.3-0.5c0.3,0.2,0.3,0.1,0.2,0l0,0c0-0.2,0.1-0.3,0.1-0.5
	c0-0.2-0.1-0.4-0.2-0.5S27.1,3.7,27,3.5c0-0.1-0.1-0.1-0.2-0.2c0.1-0.1,0.1-0.1,0.2-0.2c0.2-0.2,0.3-0.4,0.3-0.7l0,0
	C27.2,2.7,27,2.9,26.8,3c0.1-0.1,0.1-0.2,0.2-0.4c0-0.1,0-0.2,0.1-0.4l0,0v0.3c0-0.1,0-0.2,0-0.3c0-0.1,0-0.2,0-0.3l0,0
	C27.1,2,27,2,27,2.1c0,0.1-0.1,0.3-0.2,0.4c0.1-0.2,0.1-0.3,0-0.5l0,0c0,0.1,0,0.1-0.1,0.2l0,0l0,0c0,0-0.2,0.2-0.3,0.3
	c-0.2,0-0.4,0-0.6,0c-0.3,0-0.6,0-0.9-0.1c-0.1-0.1-0.3-0.1-0.5-0.1c-0.4-0.1-0.9,0-1.3,0.2c-0.2,0.1-0.4,0.3-0.5,0.6L22.5,3
	c-0.1-0.1,0-0.3,0.1-0.4l0,0c0,0-0.1,0.2-0.1,0.3s0,0.2,0.1,0.2c-0.1,0-0.1,0-0.2,0s-0.2,0.1-0.2,0.2l0,0l0,0c0-0.1,0.2-0.2,0.3-0.2
	l0,0c0.1,0,0.1,0,0.2,0.1l0,0l-0.2,0.3C22,4.2,21.9,5.1,22.2,6c0.1,0.2,0.3,0.3,0.4,0.5s0.2,0.3,0.3,0.5l0,0c0,0.1,0,0.2,0,0.3l0,0
	c0,0.1-0.1,0.1-0.2,0.1l0,0l0,0c0,0,0.1,0,0.1-0.1c0,0.1,0,0.1-0.1,0.2l0,0c0.1,0,0.2-0.1,0.2-0.1l0,0c0,0.1,0,0.2,0,0.2
	s0,0.1-0.1,0.2l0,0c0-0.1,0.1-0.1,0.1-0.1C23,7.6,23,7.4,23,7.3l0.1,0.1c0.1,0.1,0.1,0.2,0.1,0.4c-0.2,0.3-0.4,0.6-0.6,0.9l-1,1.1
	c-0.1,0.2-0.3,0.4-0.4,0.6c-0.1,0.3-0.4,0.5-0.5,0.7c-0.2,0.3-0.3,0.6-0.3,0.9c-0.2,0.3-0.4,0.5-0.5,0.8c-0.2,0.3-0.2,0.4-0.3,0.6
	c-0.1,0.1-0.2,0.3-0.3,0.4c-0.2,0.2-0.3,0.4-0.4,0.6c-0.1,0.2-0.2,0.4-0.3,0.6c0,0.1,0,0.1,0,0.2c0,0.2,0.1,0.3,0.2,0.4
	c0.1,0.2,0.2,0.3,0.3,0.5c0.3,0.4,0.7,0.6,1,1c0.4,0.3,0.7,0.5,1.2,0.7c0.2,0.1,0.5,0.2,0.7,0.2c0,0.1,0,0.2,0,0.2
	c-0.1,0.2-0.2,0.4-0.3,0.6c-0.1,0.2-0.3,0.4-0.4,0.6c-0.1,0.1-0.1,0.1,0,0.2l0,0c0.1,0,0.1,0.1,0.2,0.1c-0.1,0.1-0.2,0.3-0.3,0.4
	c-0.3,0.4-0.6,0.9-0.8,1.4c-0.1,0.4-0.2,0.8-0.2,1.2c0,0.5-0.3,0.8-0.4,1.3c0,0.2,0,0.5,0,0.7s0,0.4,0,0.7c0.1,0.5,0,1-0.2,1.5
	c-0.1,0.2-0.2,0.4-0.4,0.6c0,0.1-0.1,0.2-0.1,0.3c0,0.1,0.1,0.2,0.2,0.2c-0.1,0.1-0.1,0.2-0.2,0.3c-0.2,0.6-0.3,1.3-0.4,1.9
	c-0.1,0.4-0.1,0.7-0.2,1c-0.2,0.5-0.5,0.9-0.9,1.2c-0.4,0.3-0.8,0.7-1.2,1c-0.4,0.2-0.7,0.6-1,0.9c-0.2,0.2-0.3,0.4-0.5,0.7
	c-0.1,0.2-0.2,0.4-0.2,0.6c-0.2,0.5-0.4,0.9-0.5,1.4c-0.2,0.5-0.4,1-0.7,1.4c-0.1,0.2-0.2,0.5-0.4,0.7l0,0c-0.1,0-0.2,0-0.4,0
	c-0.1,0-0.3,0.1-0.4,0.1c-0.2,0-0.2,0.3-0.4,0.5c-0.1,0.2-0.5,0.6-0.5,0.8c0,0.3,0.1,0.5,0.2,0.8c0.1,0.3,0.2,0.6,0.4,0.8
	c0.1,0.3,0.2,0.6,0.2,1c0,0.3,0.1,0.6,0.2,0.9c0.1,0.2,0.2,0.5,0.4,0.7s0.4,0.3,0.7,0.3c0.2,0,0.5,0.1,0.8,0.1s0.6-0.1,0.9-0.1
	c0.4-0.1,0.7-0.4,0.4-0.7c-0.1-0.2-0.3-0.4-0.5-0.5H15c0-0.1,0-0.1,0-0.2c0-0.2,0-0.5,0-0.7c0-0.5-0.4-0.9-0.2-1.4
	c0.2-0.4,0.3-0.6,0.2-0.9c0-0.1-0.1-0.2-0.2-0.1c0-0.1,0.1-0.2,0.1-0.2c0.2-0.8,0.6-1.5,1.2-2.1c0.5-0.6,0.9-1.1,1.5-1.7
	c0.3-0.3,0.6-0.5,0.9-0.8c0.4-0.2,0.7-0.5,1-0.7c0.2-0.2,0.5-0.4,0.8-0.6c0.2-0.1,0.4-0.2,0.5-0.4s0.2-0.4,0.4-0.6
	c0.1-0.1,0.1-0.1,0.2-0.2c0.2-0.3,0.4-0.6,0.6-1c0.3-0.6,0.6-1.3,0.9-1.9c0.1-0.3,0.3-0.6,0.4-0.9l0.1,0.1c0.1,0,0.2,0,0.2,0
	c0.1,0,0.2-0.3,0.2-0.3c0-0.3,0.1-0.5,0.2-0.7s0.3-0.5,0.5-0.7s0.3-0.3,0.5-0.5l0.5-0.5l0.5,0.4c0.3,0.3,0.7,0.5,1,0.7
	c0.2,0.2,0.5,0.2,0.8,0.2c0,0,0.1,0,0.1-0.1s0.1-0.2,0.1-0.2c0.2,0.1,0.5,0.1,0.8,0.2c0.3,0,0.6-0.1,0.9-0.1
	c-0.5,0.2-1.1,0.4-1.5,0.8c-0.3,0.3-0.4,0.7-0.6,1c-0.1,0.1-0.3,0.2-0.4,0.4c-0.1,0.1-0.2,0.3-0.4,0.4c-0.3,0.2-0.6,0.5-0.9,0.7
	c-0.2,0.1-0.5,0.3-0.7,0.4L25,31.5c-0.3-0.1-0.6-0.1-0.8,0c-0.3,0.1-0.6,0.3-0.8,0.6c-0.1,0.1-0.1,0.2-0.1,0.4c0,0.2,0,0.4,0,0.6
	c0.1,0.4,0.3,0.7,0.4,1c0.1,0.2,0.2,0.3,0.3,0.4c0.1,0.2,0.2,0.4,0.2,0.6c0.1,0.5,0,0.9,0,1.4c0.1,0.4,0.2,0.8,0.3,1.2
	c0.1,0.3,0.3,0.6,0.5,0.8c0.1,0.1,0.3,0.1,0.5,0.1s0.3,0,0.5,0c0.6-0.1,0.1-1.2,0.1-1.6c-0.1-0.4-0.1-0.8-0.2-1.1
	c0-0.5,0.2-0.9,0.5-1.3c0.2-0.2,0.5-0.4,0.5-0.7c0-0.1-0.1-0.2-0.2-0.3l0,0l0.1-0.1c0.2-0.2,0.4-0.5,0.6-0.7
	c0.3-0.3,0.6-0.5,0.9-0.7c0.4-0.2,0.8-0.4,1.2-0.5c0.8-0.2,1.5-0.5,2.2-0.9c0.4-0.2,0.8-0.3,1.2-0.6c0.4-0.2,0.9-0.5,1.3-0.7
	c0.4-0.2,0.5-0.3,0.7-0.6C35.3,28.3,35.3,27.9,35.2,27.5z M21,15L21,15l0.1-0.1c0.1-0.1,0.1-0.1,0.2-0.2l0.1,0.4l0,0
	C21.2,15.1,21.1,15.1,21,15z"/>
</svg>
