<?xml version="1.0" encoding="utf-8"?>
<!-- Generator: Adobe Illustrator 23.1.0, SVG Export Plug-In . SVG Version: 6.00 Build 0)  -->
<svg version="1.1" id="icons" xmlns="http://www.w3.org/2000/svg" xmlns:xlink="http://www.w3.org/1999/xlink" x="0px" y="0px"
	 viewBox="0 0 47 47" style="enable-background:new 0 0 47 47;" xml:space="preserve">
<style type="text/css">
	.st0{fill:#FFC700;}
	.st1{fill:#FBBC94;}
	.st2{fill:#FFD4B4;}
	.st3{fill:#FF5A91;}
	.st4{fill:#F32464;}
	.st5{fill:#FFE951;}
</style>
<title>Juggling</title>
<g id="Juggling">
	<path class="st0" d="M30.9,40.8H16.1c-0.6,0-1-0.5-1-1v-1.7H14c-4.3,0-7.8-3.5-7.8-7.8v-1.4c0-0.6,0.5-1,1-1l0,0h4.1
		c0.6,0,1,0.5,1,1l0,0v1.4c0,0.9,0.8,1.7,1.7,1.7l0,0h19.1c0.9,0,1.7-0.7,1.7-1.7l0,0v-1.4c0-0.6,0.5-1,1-1l0,0h4.1c0.6,0,1,0.5,1,1
		l0,0v1.4c0,4.3-3.5,7.8-7.8,7.8H32v1.7C32,40.4,31.5,40.8,30.9,40.8z"/>
	<path class="st1" d="M34.7,29v-4.1c0-0.6,0.5-1,1-1l0,0h4.1c0.6,0,1,0.5,1,1l0,0V29H34.7z"/>
	<path class="st2" d="M6.2,29v-4.1c0-0.6,0.5-1,1-1l0,0h4.1c0.6,0,1,0.5,1,1l0,0V29H6.2z"/>
	<path class="st3" d="M23.5,12.3c-1.7,0-3-1.4-3-3s1.4-3,3-3s3,1.4,3,3S25.2,12.3,23.5,12.3z"/>
	<path class="st4" d="M37.8,21.7c-1.7,0-3-1.4-3-3c0-1.7,1.4-3,3-3s3,1.4,3,3C40.8,20.4,39.5,21.7,37.8,21.7z"/>
	<path class="st0" d="M32.3,15c-1.7,0-3-1.4-3-3.1s1.4-3,3.1-3c1.7,0,3,1.4,3,3C35.3,13.6,34,15,32.3,15z"/>
	<path class="st5" d="M14.7,15c-1.7,0-3-1.4-3-3s1.4-3,3-3s3,1.4,3,3S16.4,15,14.7,15z"/>
	<path class="st3" d="M9.2,21.7c-1.7,0-3-1.4-3-3c0-1.7,1.4-3,3-3s3,1.4,3,3C12.3,20.4,10.9,21.7,9.2,21.7z"/>
	<circle class="st2" cx="23" cy="27" r="6.7"/>
</g>
</svg>
