<?xml version="1.0" encoding="utf-8"?>
<!-- Generator: Adobe Illustrator 23.1.0, SVG Export Plug-In . SVG Version: 6.00 Build 0)  -->
<svg version="1.1" id="icons" xmlns="http://www.w3.org/2000/svg" xmlns:xlink="http://www.w3.org/1999/xlink" x="0px" y="0px"
	 viewBox="0 0 47 47" style="enable-background:new 0 0 47 47;" xml:space="preserve">
<style type="text/css">
	.st0{fill:#E2E2E2;}
	.st1{fill:#919191;}
	.st2{fill:#BFBFBF;}
	.st3{fill:#232323;}
</style>
<title>Martial Arts</title>
<g id="Martial_Arts">
	<path class="st0" d="M30.1,5H17.1C8.5,5,1.6,11.9,1.6,20.5v11.4c0,0.2,0.2,0.4,0.4,0.4l0,0h6.2c0.2,0,0.4-0.2,0.4-0.4V20.5
		c0-2,0.7-3.9,2-5.4l0.8,13.7c0,0.7,0,1.5-0.1,2.1l-1,7.7c-0.1,0.5,0.3,1,0.8,1.1h0.1h24.4c0.5,0,1-0.4,1-1v-0.1l-1-7.8
		c-0.1-0.7-0.1-1.4-0.1-2.1l0.8-13.6c1.3,1.5,2,3.4,2,5.4v11.4c0,0.2,0.2,0.4,0.4,0.4l0,0H45c0.2,0,0.4-0.2,0.4-0.4l0,0V20.5
		C45.6,11.9,38.7,5,30.1,5z"/>
	<path class="st1" d="M29.6,8.9L24,16.5l-5.6-7.6c-0.4-0.5-0.6-1.1-0.6-1.8c0-1.7,1.4-3,3-3h6.4c1.7,0,3,1.4,3,3
		C30.2,7.8,30,8.4,29.6,8.9z"/>
	<path class="st2" d="M10.4,38.7L32,9.4c1.4-2,0.9-4.7-0.9-6.1c-0.7-0.5-1.6-0.8-2.5-0.8h-9.1c-2.5,0-4.4,2-4.4,4.4
		c0,0.9,0.3,1.8,0.8,2.5l6.1,8.2L11.2,32.3L10.4,38.7z M24,15.1l-5.1-6.9l-0.4-0.6C18,7,18.2,6.2,18.7,5.8c0.2-0.1,0.4-0.2,0.7-0.2
		h9.1c0.7,0,1.3,0.5,1.3,1.3c0,0.2-0.1,0.5-0.2,0.7l-0.5,0.7L24,15.1z"/>
	<path class="st3" d="M35.7,32.5H11.4c-0.2,0-0.4-0.2-0.4-0.4v-2.2c0-0.2,0.2-0.4,0.4-0.4l0,0h24.2c0.2,0,0.4,0.2,0.4,0.4V32
		C36.1,32.3,35.9,32.5,35.7,32.5z"/>
	<path class="st3" d="M24.8,29.7l-0.4-0.1c-0.4-0.1-0.9-0.1-1.4-0.1c-0.4,0.1-0.8,0.3-1.3,0.5L5.3,41.9c-0.2,0.1-0.2,0.4-0.1,0.6
		l0,0l1.3,1.8c0.1,0.2,0.4,0.2,0.6,0.1l0,0l16.2-11.6c0.2-0.1,0.4-0.2,0.6-0.1c5.6,1.7,10.7,4.9,14.4,9.2c0.2,0.2,0.4,0.2,0.6,0
		l1.7-1.5c0.2-0.2,0.2-0.4,0-0.6l0,0C36.4,35,30.9,31.5,24.8,29.7z"/>
	<path class="st3" d="M26.6,31.2c0,1.5-1.1,2.6-2.6,2.6c-1.5,0-2.6-1.1-2.6-2.6c0-1.5,1.1-2.6,2.6-2.6l0,0
		C25.3,28.6,26.6,29.8,26.6,31.2L26.6,31.2z"/>
</g>
</svg>
