<?xml version="1.0" encoding="utf-8"?>
<!-- Generator: Adobe Illustrator 23.1.0, SVG Export Plug-In . SVG Version: 6.00 Build 0)  -->
<svg version="1.1" id="icons" xmlns="http://www.w3.org/2000/svg" xmlns:xlink="http://www.w3.org/1999/xlink" x="0px" y="0px"
	 viewBox="0 0 47 47" style="enable-background:new 0 0 47 47;" xml:space="preserve">
<style type="text/css">
	.st0{fill:#334A61;}
</style>
<title>JumpingJacks</title>
<g id="Jumping_Jacks">
	<circle class="st0" cx="23.2" cy="5.6" r="3.9"/>
	<path class="st0" d="M18.4,30.7L17,12.1c0,0,7-4.5,11.5,0l0.8,1.9l-1.2,16.7H18.4z"/>
	<path class="st0" d="M28.9,14c-0.8,0-1.4-0.6-1.4-1.4c0-0.4,0.2-0.9,0.6-1.1l9-6.9c0.3-0.2,0.6-0.3,0.9-0.3c0.8,0,1.4,0.6,1.4,1.4
		c0,0.1,0,0.1,0,0.2c-0.1,0.4-0.2,0.7-0.5,1l-9,6.9C29.5,13.9,29.2,14.1,28.9,14z"/>
	<path class="st0" d="M18.6,12.4c0.2,0.8-0.3,1.6-1.1,1.7c-0.4,0.1-0.9,0-1.2-0.3l-8.9-7C7.2,6.7,7,6.4,6.9,6.1
		c-0.1-0.4,0-0.9,0.3-1.2c0.5-0.6,1.4-0.7,2-0.2l8.9,7C18.3,11.8,18.5,12.1,18.6,12.4z"/>
	<path class="st0" d="M31.2,45.1c-0.7,0-1.3-0.4-1.6-1l-7.2-15.8c-0.4-0.9,0-1.9,0.8-2.3c0.8-0.4,1.9,0,2.3,0.8c0,0,0,0,0,0.1
		l7.2,15.8c0.4,0.9,0.1,1.9-0.8,2.3c0,0,0,0-0.1,0C31.7,45.1,31.4,45.1,31.2,45.1z"/>
	<path class="st0" d="M14,44.7c-0.5-0.5-0.6-1.3-0.3-1.9l7-15.9c0.4-0.9,1.4-1.3,2.3-0.9c0.9,0.4,1.3,1.4,0.9,2.3l-7,15.9
		c-0.4,0.9-1.4,1.3-2.3,0.9l0,0C14.3,45.1,14.1,44.9,14,44.7z"/>
	<path class="st0" d="M10.2,11.8c0,0,0.1,2.7,2.7,2.7v-0.6c0,0-2.1-0.2-2.1-2.1L10.2,11.8z"/>
	<path class="st0" d="M7.8,12.8c0,0,0.2,4,4,4v-0.9c0,0-3.1-0.3-3.1-3.1L7.8,12.8z"/>
	<path class="st0" d="M33.3,14.5c1.5-0.1,2.7-1.3,2.6-2.8h-0.6c0,0-0.2,2.1-2.1,2.2L33.3,14.5z"/>
	<path class="st0" d="M34.4,16.9c0,0,4-0.3,3.9-4.1h-0.9c0,0-0.2,3.1-3,3.2V16.9z"/>
</g>
</svg>
