<?xml version="1.0" encoding="utf-8"?>
<!-- Generator: Adobe Illustrator 23.1.0, SVG Export Plug-In . SVG Version: 6.00 Build 0)  -->
<svg version="1.1" id="icons" xmlns="http://www.w3.org/2000/svg" xmlns:xlink="http://www.w3.org/1999/xlink" x="0px" y="0px"
	 viewBox="0 0 47 47" style="enable-background:new 0 0 47 47;" xml:space="preserve">
<style type="text/css">
	.st0{fill:#E2E2E2;}
	.st1{fill:#919191;}
	.st2{fill:#BFBFBF;}
	.st3{fill:#232323;}
</style>
<title>Martial Arts</title>
<g id="Martial_Arts">
	<path class="st0" d="M30.1,5.3H17.2c-8.5,0-15.3,6.8-15.3,15.2v11.2c0,0.2,0.2,0.4,0.4,0.4l0,0h6.1c0.2,0,0.4-0.2,0.4-0.4V20.5
		c0-1.9,0.7-3.8,1.9-5.3l0.8,13.5c0,0.7,0,1.4-0.1,2.1l-1,7.7c-0.1,0.5,0.3,1,0.9,1.1h0.1h24.1c0.5,0,1-0.4,1-1v-0.1l-1.1-7.7
		c-0.1-0.7-0.1-1.4-0.1-2l0.8-13.4c1.2,1.4,1.9,3.4,1.9,5.3v11.2c0,0.2,0.2,0.4,0.4,0.4l0,0h6.1c0.2,0,0.4-0.2,0.4-0.4l0,0V20.7
		C45.3,12.1,38.4,5.3,30.1,5.3z"/>
	<path class="st1" d="M29.6,9.2L24,16.7l-5.6-7.5c-0.4-0.5-0.6-1.1-0.6-1.8c0-1.6,1.3-3.1,3.1-3.1h6.3c1.6,0,3.1,1.3,3.1,3.1
		C30.2,8.1,30,8.7,29.6,9.2z"/>
	<path class="st2" d="M10.6,38.5L31.9,9.7c1.4-1.9,0.9-4.6-1-6c-0.7-0.5-1.5-0.8-2.4-0.8h-9c-2.3,0-4.3,1.9-4.3,4.4
		c0,0.9,0.3,1.7,0.8,2.4l6,8.2L11.4,32.2L10.6,38.5z M24,15.2l-5-6.7l-0.4-0.6c-0.4-0.5-0.2-1.3,0.3-1.7c0.2-0.1,0.4-0.2,0.7-0.2h9
		c0.7,0,1.2,0.5,1.2,1.2c0,0.2-0.1,0.5-0.2,0.7l-0.5,0.7L24,15.2z"/>
	<path class="st3" d="M35.6,32.4H11.7c-0.2,0-0.4-0.2-0.4-0.4v-2.1c0-0.2,0.2-0.4,0.4-0.4l0,0h23.9c0.2,0,0.4,0.2,0.4,0.4V32
		C36,32.2,35.8,32.4,35.6,32.4z"/>
	<path class="st3" d="M24.8,29.7l-0.4-0.1c-0.4-0.1-0.9-0.1-1.3-0.1c-0.4,0.1-0.8,0.3-1.2,0.5L5.6,41.6c-0.2,0.1-0.2,0.4-0.1,0.6
		l0,0L6.8,44c0.1,0.2,0.4,0.2,0.6,0.1l0,0l15.9-11.3c0.2-0.1,0.4-0.2,0.6-0.1c5.5,1.6,10.4,4.8,14.3,9.1c0.2,0.2,0.4,0.2,0.6,0
		l1.6-1.4c0.2-0.2,0.2-0.4,0-0.6l0,0C36.3,34.9,30.9,31.4,24.8,29.7z"/>
	<path class="st3" d="M26.6,31.2c0,1.4-1.1,2.6-2.6,2.6s-2.6-1.1-2.6-2.6c0-1.4,1.1-2.6,2.6-2.6l0,0C25.4,28.7,26.5,29.8,26.6,31.2
		L26.6,31.2z"/>
</g>
</svg>
