<?xml version="1.0" encoding="utf-8"?>
<!-- Generator: Adobe Illustrator 23.1.0, SVG Export Plug-In . SVG Version: 6.00 Build 0)  -->
<svg version="1.1" id="icons" xmlns="http://www.w3.org/2000/svg" xmlns:xlink="http://www.w3.org/1999/xlink" x="0px" y="0px"
	 viewBox="0 0 47 47" style="enable-background:new 0 0 47 47;" xml:space="preserve">
<style type="text/css">
	.st0{fill:#F29C1F;}
	.st1{fill:#3B97D3;}
	.st2{fill:#E57E25;}
	.st3{fill:#FAC176;}
	.st4{fill:#D25627;}
	.st5{fill:#F0C419;}
	.st6{fill:none;}
</style>
<title>Kayaking</title>
<g id="Kayaking">
	<path id="Shape" class="st0" d="M45,5.4c-1,6.1-3.9,18.4-12.7,27.1c-4.3,4.2-9.5,7.4-15.1,9.4c-1.4,0.5-2.8,1-4.1,1.3
		c-2.5,0.7-5.1,1.3-7.7,1.7c-0.9,0.2-1.8-0.1-2.4-0.7c-0.7-0.7-1-1.7-0.8-2.6c0.4-2.6,1-5.3,1.8-7.8c0.4-1.3,0.8-2.7,1.4-4.1
		c2.1-5.7,5.3-10.8,9.5-15.2C23.6,5.8,35.8,3,41.7,2.1c0.9-0.2,1.9,0.1,2.5,0.8C44.9,3.6,45.1,4.5,45,5.4z"/>
	<path class="st1" d="M8,2.5l4.1,4c1.4,1.4,1.5,3.8,0,5.2l0,0L11.8,12c-1.4,1.4-3.8,1.5-5.2,0l0,0L2.5,8c-0.6-0.6-0.6-1.5,0-2.1
		l3.4-3.4C6.5,1.9,7.4,1.9,8,2.5z"/>
	<path class="st1" d="M39.1,44.6L35,40.5c-1.4-1.4-1.4-3.8,0-5.2l0.3-0.3c1.4-1.4,3.8-1.4,5.2,0l4.1,4.1c0.6,0.6,0.6,1.5,0,2.1
		l-3.4,3.4C40.6,45.2,39.7,45.2,39.1,44.6z"/>
	<path class="st2" d="M13.1,43.3L13.1,43.3C10.6,44,8,44.6,5.4,45c-0.9,0.2-1.8-0.1-2.4-0.7l5.7-5.6L13.1,43.3z"/>
	<path class="st2" d="M45,5.4c-1,6.1-3.9,18.4-12.7,27.1c-4.3,4.2-9.5,7.4-15.1,9.4l0,0l-5.9-6.1l33-33C44.9,3.6,45.1,4.5,45,5.4z"
		/>
	<path class="st3" d="M26.7,31c-1.5,1.1-3.2,2-5,2.6l-8.1-8.1c0.5-1.8,1.4-3.5,2.5-5L26.7,31z"/>
	<path class="st4" d="M21.7,33.5c-2.5,0.7-4.9,0.6-6.5-0.7c-0.2-0.1-0.4-0.3-0.6-0.5c-0.2-0.2-0.3-0.4-0.5-0.6
		c-1.2-1.9-1.4-4.3-0.6-6.4L21.7,33.5z"/>
	<path class="st4" d="M28.9,29.1c-0.7,0.7-1.4,1.3-2.2,1.9L16.1,20.4c0.6-0.8,1.3-1.6,2.1-2.4c4.9-4.9,11.3-6.4,14.3-3.3
		S33.8,24.2,28.9,29.1L28.9,29.1z"/>
	<path class="st3" d="M38.5,16.2c-0.2,0-0.5-0.1-0.6-0.3s-0.2-0.5-0.1-0.7c1.1-2.7,2-5.5,2.5-8.4c-2.8,0.5-5.6,1.3-8.3,2.4
		c-0.2,0.1-0.5,0.1-0.7-0.1S31,8.7,31,8.4s0.2-0.5,0.5-0.6c3.1-1.3,6.4-2.2,9.7-2.7c0.2,0,0.5,0,0.6,0.2C42,5.5,42,5.7,42,5.9
		c-0.6,3.4-1.5,6.6-2.8,9.8C39.1,15.9,38.8,16.1,38.5,16.2L38.5,16.2z"/>
	<path class="st3" d="M15.3,32.9l-4.9,4.9c-0.3,0.3-0.8,0.3-1.1,0C9,37.5,9,37,9.3,36.7l4.9-4.9c0.1,0.2,0.3,0.4,0.5,0.6
		C14.8,32.6,15,32.7,15.3,32.9z"/>
	<path class="st5" d="M39,39.7c-0.2,0-0.4-0.1-0.5-0.2L8.1,9.1C7.9,9,7.8,8.7,7.9,8.4C8,8.1,8.2,7.9,8.4,7.9c0.3-0.1,0.5,0,0.7,0.2
		l30.4,30.4c0.3,0.3,0.3,0.7,0,1C39.4,39.7,39.2,39.7,39,39.7z"/>
	<path class="st6" d="M11.3,35.9l-2.7,2.8"/>
	<path class="st4" d="M17.2,41.9L17.2,41.9c-1.4,0.5-2.8,1-4.1,1.3l0,0l-9.2-9.5c0.4-1.3,0.8-2.7,1.4-4.1l0,0l5.9,6.1L17.2,41.9z"/>
</g>
</svg>
