<?xml version="1.0" encoding="utf-8"?>
<!-- Generator: Adobe Illustrator 23.1.0, SVG Export Plug-In . SVG Version: 6.00 Build 0)  -->
<svg version="1.1" id="icons" xmlns="http://www.w3.org/2000/svg" xmlns:xlink="http://www.w3.org/1999/xlink" x="0px" y="0px"
	 viewBox="0 0 47 47" style="enable-background:new 0 0 47 47;" xml:space="preserve">
<style type="text/css">
	.st0{fill:#4F4F4F;}
	.st1{fill:#E8721B;}
	.st2{fill:#F9B256;}
	.st3{fill:#FFFFFF;}
</style>
<title>Kettlebells</title>
<g id="Kettlebells">
	<path class="st0" d="M15,10.8c1.4-3.1,6.2-3.3,8.4-3.3V2.1l0,0c-3,0-8.3,0.1-11.4,3.5C9.2,8.7,8.3,13.1,9.5,17h6
		C14.2,15.5,14,13.2,15,10.8z"/>
	<path class="st0" d="M23.4,7.5c2.3,0,7.1,0.1,8.5,3.3c1.1,2.4,0.8,4.6-0.5,6.2h6.1c1.2-4,0.2-8.3-2.6-11.3
		c-3.2-3.5-8.6-3.5-11.6-3.5L23.4,7.5L23.4,7.5z"/>
	<path class="st1" d="M12.4,26c-0.8,1.9-4,8.4-1.1,13.7c2.8,4.8,7.5,5.3,12.1,5.3V18.6c-1.4,0-3.2,1-5.4,0.1c-1-0.3-1.8-0.9-2.5-1.6
		H9.4c0.2,0.6,0.4,1.1,0.7,1.7C12,22.1,13.2,24.1,12.4,26z"/>
	<path class="st1" d="M29,18.6c-2.3,0.9-4.1-0.1-5.6-0.1v12h0.1c2,0.1,3.5,1.8,3.4,3.8c-0.1,1.8-1.6,3.3-3.4,3.4h-0.1v7.1h0.1
		c4.6,0,9.4-0.4,12.1-5.3c3-5.2-0.2-11.8-1.1-13.7c-0.8-1.9,0.4-3.8,2.3-7.3c0.3-0.5,0.5-1.1,0.7-1.7h-6C30.8,17.7,30,18.3,29,18.6z
		"/>
	<path class="st2" d="M23.7,28L23.7,28c-2.7,0-4.9,2.2-4.9,4.8s2.2,4.8,4.8,4.8h0.1c2.7,0,4.8-2.2,4.8-4.8S26.4,28,23.7,28z"/>
	<path class="st3" d="M23.7,38c-2.8,0-5.1-2.3-5.1-5.1c0-2.8,2.3-5.1,5.1-5.1s5.1,2.3,5.1,5.1l0,0C28.8,35.7,26.5,38,23.7,38z
		 M23.7,28.4c-2.5,0-4.5,2-4.5,4.5c0,2.5,2,4.5,4.5,4.5s4.5-2,4.5-4.5C28.3,30.4,26.3,28.4,23.7,28.4C23.8,28.4,23.7,28.4,23.7,28.4
		L23.7,28.4z"/>
	<path class="st3" d="M20.6,34.3h1v-2.8h-0.8V31c0.4-0.1,0.7-0.2,1-0.3h0.6v3.7h0.9V35h-2.6v-0.7H20.6z"/>
	<path class="st3" d="M26.3,31.6c-0.2-0.2-0.4-0.3-0.7-0.3c-0.5,0-1,0.4-1.1,1.6c0.2-0.3,0.6-0.5,0.9-0.5c0.7-0.1,1.2,0.4,1.3,1.1
		c0,0.1,0,0.2,0,0.3c0,0.7-0.6,1.4-1.3,1.4h-0.1c-0.9,0-1.6-0.7-1.5-2.1c0-1.7,0.8-2.4,1.7-2.4c0.4,0,0.9,0.2,1.2,0.5L26.3,31.6z
		 M26.1,33.7c0-0.5-0.2-0.8-0.7-0.8c-0.3,0-0.6,0.2-0.8,0.5c0.1,0.8,0.4,1.1,0.8,1.1S26.1,34.2,26.1,33.7z"/>
</g>
</svg>
