<?xml version="1.0" encoding="utf-8"?>
<!-- Generator: Adobe Illustrator 23.1.0, SVG Export Plug-In . SVG Version: 6.00 Build 0)  -->
<svg version="1.1" id="icons" xmlns="http://www.w3.org/2000/svg" xmlns:xlink="http://www.w3.org/1999/xlink" x="0px" y="0px"
	 viewBox="0 0 47 47" style="enable-background:new 0 0 47 47;" xml:space="preserve">
<style type="text/css">
	.st0{fill:#F9BB4B;}
	.st1{fill:#394D5C;}
	.st2{fill:#E97424;}
	.st3{fill:#FCF05A;}
	.st4{fill:#32B1CC;}
	.st5{fill:#FFBC00;}
</style>
<title>Kickball</title>
<g id="kikball">
	<path class="st0" d="M2.5,6.9l16.2,16.2l-8.1,8.1l-8.1-8.1V6.9z"/>
	<path class="st1" d="M32.2,25.8L16.9,41.1l-6.8-6.8c-0.7-0.7-0.7-1.8,0-2.5l0,0l8.6-8.6c0.3-0.3,0.6-0.5,0.9-0.7
		c0.5-0.3,1-0.6,1.6-0.8c0.6-0.2,1.2-0.3,1.9-0.4c0.6,0,1.3,0,1.9,0.1c2,0.3,3.9,1.2,5.3,2.7L32.2,25.8z"/>
	<path class="st2" d="M10.6,31.1l8.1-8.1L6.1,10.5v16.2L10.6,31.1z"/>
	<path class="st3" d="M10.6,34.8c3.3-1.2,6.4-3,9-5.4l1.8,1.8l-7.2,7.2L10.6,34.8z"/>
	<path class="st2" d="M22.2,24.6l-1.7,0.5l-0.9-2.8c0.5-0.3,1-0.6,1.6-0.8L22.2,24.6z"/>
	<path class="st2" d="M25.8,23.7l-1.7,0.6l-1-3.1c0.6,0,1.3,0,1.9,0.1L25.8,23.7z"/>
	<path class="st3" d="M22.5,28.7l1.8-1.8l1.3,1.3L23.8,30L22.5,28.7z"/>
	<path class="st4" d="M18,17l8.1-8.1l1.3,1.3l-8.1,8.1L18,17z"/>
	<path class="st4" d="M22.5,17l4.5-4.5l1.3,1.3l-4.5,4.5L22.5,17z"/>
	<path class="st4" d="M34.7,25.6l4-4l1.3,1.3l-4,4L34.7,25.6z"/>
	<path class="st4" d="M38.7,26l4.5-4.5l1.3,1.3L40,27.3L38.7,26z"/>
	<circle id="Kickball" class="st5" cx="36.2" cy="12.5" r="6.5"/>
</g>
</svg>
