<?xml version="1.0" encoding="utf-8"?>
<!-- Generator: Adobe Illustrator 23.1.0, SVG Export Plug-In . SVG Version: 6.00 Build 0)  -->
<svg version="1.1" id="icons" xmlns="http://www.w3.org/2000/svg" xmlns:xlink="http://www.w3.org/1999/xlink" x="0px" y="0px"
	 viewBox="0 0 47 47" style="enable-background:new 0 0 47 47;" xml:space="preserve">
<style type="text/css">
	.st0{fill:#88171A;}
	.st1{fill:#24282B;}
	.st2{fill:#F7000D;}
	.st3{fill:#AB282A;}
</style>
<title>KickBoxing</title>
<g id="Kick_Boxing">
	<path class="st0" d="M3.2,32.4c-0.3,0.7-0.4,1.5-0.2,2.2c0.2,0.7,0.6,1.4,1.2,1.9c0.6,0.8,1.3,1.5,2.1,2.1c1.3,1.1,2.7,2,4.2,2.9
		c1.1,0.9,2.5,1.3,3.9,1.4c1.2-0.1,2.3-0.9,2.7-2.1L3.2,32.4z"/>
	<path class="st1" d="M19.6,39.7c-1,0.9-2.1,2.5-3.5,2.8c-0.9,0.1-1.9,0-2.7-0.4s-1.7-0.5-2.5-0.9c-1.2-0.7-2.3-1.4-3.4-2.3
		c-0.7-0.6-1.3-1.2-1.9-1.9c-0.9-1.1-1.7-2.3-2.5-3.5c-0.8-0.9-0.8-2.2-0.2-3.2c0.7-0.7,1.4-1.4,2.2-1.9c0.8-0.8,1.6-1.6,2.3-2.5
		c0.4-0.5,0.8-0.9,1.3-1.3l0,0c1.8-1.2,3,1.4,4.1,2.6c2.9,3.3,5.9,6.7,9.8,8.6c0.4,0.2,0.8,0.5,0.8,0.9c-0.1,0.3-0.3,0.4-0.5,0.5
		C21.7,38,20.6,38.8,19.6,39.7z"/>
	<path class="st2" d="M11.6,24.4c-0.3-0.4-0.9-0.5-1.3-0.2c0,0-0.1,0-0.1,0.1c-0.4,0.4-0.5,1-0.4,1.5c0.2,0.5,0.4,1,0.8,1.4
		c2.7,3.8,6.4,6.9,10.6,9c0.7,0.4,1.5,0.6,2.4,0.4c0.1-1.3-0.2-2.5-1-3.6L11.6,24.4z"/>
	<path class="st0" d="M11.6,23.6c-0.4,0.3-0.7,0.7-0.6,1.2c0.1,0.5,0.2,0.9,0.5,1.4c1.9,3.6,5.3,6.3,8.7,8.6c0.8,0.6,1.6,1,2.5,1.3
		c0.9,0.2,1.9,0,2.6-0.7c-2.8-4.5-6.9-8-11.8-10L11.6,23.6z"/>
	<path class="st2" d="M38.4,28.4c-1.3,1-2.6,1.9-3.9,2.7l-6,3.7c-0.9,0.7-2,1.1-3.2,1.3c-1.6-0.1-3-0.7-4.2-1.7
		c-2.6-1.6-4.9-3.6-6.9-6c-1.3-1.8-3.2-3.9-2.2-6.2c1-2.6,2.2-5.2,3.5-7.7c0.4-1,1-2,1.7-2.8c0.9-0.9,1.7-1.8,2.6-2.7
		c1.5-1.7,3.2-3.2,5.1-4.3c0.4-0.3,0.9-0.4,1.4-0.5h0.2c0.4,0,0.9,0.1,1.2,0.4C28,4.7,28.3,4.9,28.5,5c0.3,0.1,0.6,0.1,0.9,0
		c0.5-0.1,1-0.3,1.5-0.3c2.7-0.1,5.4,0.7,7.6,2.3c3.9,2.8,6.3,7.2,6.6,11.9c0,0.6,0,1.3-0.2,1.9c-0.3,0.7-0.7,1.4-1.2,2
		C42.1,24.8,40.4,26.7,38.4,28.4z"/>
	<path class="st0" d="M22.6,10.6c0.9-0.4,1.6-1.1,2-1.9C25.1,7.9,25.4,7,26,6.2c0.5-0.7,1-1.2,1.7-1.7c0.3,0.1,0.6,0.3,0.8,0.4
		c0.3,0.1,0.6,0.1,0.9,0c-0.8,0.6-1.5,1.2-2.2,1.9s-1.3,1.6-2,2.3C24.5,9.9,23.6,10.4,22.6,10.6z"/>
	<path class="st1" d="M11.3,38.9c-0.4,0.3-0.9,0.5-1.4,0.6c-0.6,0-1.2-0.1-1.7-0.3c-2.6-1.1-4.3-3.7-5.7-6.2
		c-0.3-0.5-0.6-1.1-0.6-1.7c0-0.7,0.3-1.4,0.8-1.9C2.8,29.3,3,29.1,3.1,29c0.7-0.6,1.5-0.9,2.1-1.6s1-1.6,1.7-2.3
		c0.2-0.2,0.4-0.4,0.6-0.5c0.1-0.1,0.3-0.2,0.5-0.2c0.7-0.2,0.5,0.5,0.5,0.8c0,0.6,0.1,1.2,0.4,1.7c0.5,1.2,1.2,2.3,2.1,3.3
		c0.8,0.9,1.9,1.5,2.7,2.4c0.2,0.2,0.4,0.5,0.6,0.7c0.5,0.4,0.7,1.1,0.6,1.7c0,0.2-0.1,0.4-0.2,0.6c-0.1,0.2-0.2,0.4-0.3,0.6
		c-0.2,0.3-0.4,0.5-0.6,0.7C13.2,37.7,12.3,38.4,11.3,38.9z"/>
	<path class="st3" d="M7.6,24.6c0.1-0.1,0.2-0.2,0.3-0.2L7.6,24.6z"/>
	<path class="st2" d="M10.9,38.1c-0.4,0.3-0.8,0.4-1.3,0.5c-0.6,0-1.3-0.2-1.8-0.5c-1.6-1.1-2.9-2.7-3.9-4.4
		c-0.5-0.8-0.9-1.8-1.2-2.8c-0.1-0.4-0.1-0.9,0-1.3c0.1-0.1,0.3-0.3,0.4-0.4c0.6-0.6,1.4-1,2.1-1.7s1-1.6,1.7-2.3
		c0.2-0.2,0.4-0.4,0.6-0.5c-0.2,0.3-0.3,0.7-0.3,1.1c0.2,1.5,0.9,2.9,1.9,4c0.8,0.9,1.6,1.8,2.5,2.6c0.7,0.5,1.3,1.2,1.7,1.9
		c0.2,0.3,0.3,0.7,0.2,1.1c-0.1,0.2-0.1,0.5-0.3,0.6C12.8,36.9,11.9,37.6,10.9,38.1z"/>
</g>
</svg>
