<?xml version="1.0" encoding="utf-8"?>
<!-- Generator: Adobe Illustrator 23.1.0, SVG Export Plug-In . SVG Version: 6.00 Build 0)  -->
<svg version="1.1" id="icons" xmlns="http://www.w3.org/2000/svg" xmlns:xlink="http://www.w3.org/1999/xlink" x="0px" y="0px"
	 viewBox="0 0 47 47" style="enable-background:new 0 0 47 47;" xml:space="preserve">
<style type="text/css">
	.st0{fill:#FF8B00;}
</style>
<title>Lacrosse</title>
<g id="Lacrosse">
	<path class="st0" d="M28.2,20c1.7-0.4,3.4-1,5-1.8c0.5-0.3,1-0.6,1.5-0.9c1.1-0.8,2.3-1.4,3.6-1.7c2.6-0.6,4.8-2.4,5.8-4.9
		c0.6-1.5,0.7-3.9-1.5-6.6L42.5,4c-1.1-1.1-2.6-1.8-4.2-1.9c-3.7,0-6.4,4-7.1,6.2c-0.4,1.3-1.1,2.4-2,3.4c-0.4,0.4-0.7,0.9-1.1,1.4
		c-0.9,1.5-1.6,3.2-2,4.9c-0.1,0.2-0.1,0.5,0,0.7l-2.5,2.6l-2.5-2.6c0.1-0.2,0.1-0.5,0-0.7c-0.4-1.7-1.1-3.3-2-4.9
		c-0.3-0.5-0.7-0.9-1.1-1.4c-0.9-1-1.6-2.1-2-3.4c-0.6-2.2-3.3-6.2-7-6.2C7.4,2.2,5.8,2.9,4.7,4L4.6,4.1c-2.2,2.7-2.1,5.1-1.5,6.6
		c1.1,2.5,3.2,4.3,5.8,4.9c1.3,0.3,2.6,0.9,3.6,1.7c0.5,0.3,0.9,0.6,1.5,0.9c1.6,0.8,3.3,1.4,5,1.8l0,0l2.9,3L3.1,42.5
		c-0.5,0.5-0.4,1.3,0,1.7c0.2,0.2,0.5,0.3,0.8,0.3c0.3,0,0.7-0.1,0.9-0.4l18.8-19.5l18.8,19.5c0.2,0.3,0.5,0.4,0.9,0.4
		c0.7,0,1.2-0.6,1.2-1.2c0-0.3-0.1-0.6-0.3-0.8L25.3,23L28.2,20L28.2,20z M32.8,15.1c-0.2-0.2-0.4-0.5-0.7-0.7l-0.2-0.2
		c0.6-0.6,1.1-1.1,1.7-1.7l0.5,0.4c0.2,0.2,0.4,0.4,0.6,0.6C34,14,33.4,14.6,32.8,15.1z M36.7,10.7l0.4,0.4
		c-0.7,0.6-1.4,1.2-2.1,1.9l-0.6-0.6l-0.5-0.5c0.6-0.7,1.2-1.4,1.8-2C36,10.1,36.4,10.4,36.7,10.7z M36.1,9.4c0.5-0.6,1-1.2,1.4-1.7
		c0.4,0.3,0.7,0.6,1,0.9c0.3,0.2,0.5,0.5,0.7,0.8l-1.7,1.4l-0.4-0.5C36.8,10,36.5,9.7,36.1,9.4z M33.8,14.9l1.1-1l0.2,0.2
		C34.7,14.4,34.3,14.6,33.8,14.9L33.8,14.9z M37.8,13.2c-0.7,0.1-1.4,0.3-2.1,0.6c-0.1-0.1-0.2-0.2-0.3-0.4c0.7-0.6,1.4-1.3,2.1-1.9
		c0.4,0.4,0.7,0.9,0.9,1.4C38.2,13.1,38.1,13.2,37.8,13.2L37.8,13.2z M39,12.8c-0.2-0.6-0.6-1.1-1-1.6l1.6-1.4
		c0.4,0.6,0.7,1.2,0.9,1.9C40.1,12.2,39.6,12.5,39,12.8L39,12.8z M41.8,9.9c-0.2,0.5-0.5,1-0.8,1.4c-0.2-0.7-0.5-1.3-0.9-1.8L42,8
		C42.1,8.5,42.1,9.2,41.8,9.9L41.8,9.9z M40.9,5.7c0.4,0.5,0.7,1,0.9,1.6c-0.1,0-0.1,0-0.2,0.1l-1.9,1.5c-0.2-0.3-0.5-0.5-0.8-0.8
		c-0.3-0.3-0.7-0.6-1.1-0.9c0.8-1,1.4-1.8,1.8-2.3C40.1,5.1,40.5,5.4,40.9,5.7z M38.3,4.6c0.3,0,0.5,0,0.8,0.1
		c-0.4,0.5-0.9,1.2-1.6,2.1c-0.6-0.4-1.2-0.7-1.8-1C36.3,5.1,37.3,4.7,38.3,4.6L38.3,4.6z M35.2,6.3c0.7,0.3,1.3,0.6,1.9,1L35.7,9
		c-0.5-0.4-1.1-0.7-1.7-1C34.3,7.4,34.7,6.8,35.2,6.3z M33.6,8.9c0-0.1,0.1-0.2,0.1-0.3c0.5,0.2,1.1,0.5,1.5,0.9
		c-0.6,0.7-1.1,1.3-1.8,2c-0.2-0.2-0.5-0.4-0.7-0.5C33.1,10.3,33.4,9.6,33.6,8.9z M31.1,13.2c0.5-0.5,0.9-1.1,1.3-1.7l0.6,0.4
		c-0.5,0.6-1.1,1.1-1.6,1.7L31,13.4L31.1,13.2z M30.2,14.4c0.1-0.2,0.3-0.4,0.4-0.6l0.4,0.3l-1.3,1.3C29.8,15.1,30,14.8,30.2,14.4
		L30.2,14.4z M31.4,14.5c0.1,0.1,0.2,0.1,0.2,0.2c0.3,0.3,0.5,0.5,0.7,0.7l-0.8,0.9c-0.5,0.2-1,0.4-1.6,0.6
		c-0.1-0.1-0.1-0.2-0.2-0.3c-0.1-0.1-0.2-0.1-0.3-0.2C30.1,15.8,30.8,15.2,31.4,14.5L31.4,14.5z M16.6,13.8c0.1,0.2,0.3,0.4,0.4,0.6
		c0.2,0.3,0.4,0.7,0.6,1l-1.4-1.3L16.6,13.8z M16.2,13.2l0.1,0.2c-0.1,0.1-0.3,0.2-0.4,0.3c-0.6-0.6-1.1-1.1-1.6-1.7
		c0.2-0.2,0.4-0.3,0.6-0.4C15.2,12.2,15.7,12.7,16.2,13.2L16.2,13.2z M13.7,8.9c0.2,0.7,0.5,1.4,0.8,2.1c-0.2,0.2-0.5,0.3-0.7,0.5
		c-0.6-0.7-1.2-1.4-1.8-2c0.5-0.3,1-0.6,1.5-0.9C13.6,8.7,13.6,8.8,13.7,8.9z M10.6,10.7c0.4-0.3,0.7-0.6,1-0.9
		c0.6,0.7,1.1,1.4,1.8,2.1l-0.5,0.5L12.3,13c-0.7-0.6-1.4-1.3-2.1-1.9L10.6,10.7z M10.2,10.3l-0.5,0.4L8,9.3
		c0.2-0.2,0.4-0.5,0.7-0.8s0.7-0.6,1-0.9c0.4,0.5,0.9,1.1,1.4,1.7C10.8,9.7,10.4,10,10.2,10.3L10.2,10.3z M13.4,8
		c-0.6,0.3-1.1,0.6-1.7,1l-1.5-1.7c0.6-0.4,1.2-0.8,1.9-1C12.6,6.8,13,7.4,13.4,8L13.4,8z M9,4.6c1,0.1,2,0.5,2.7,1.2
		c-0.6,0.3-1.2,0.6-1.8,1C9.1,5.9,8.6,5.2,8.2,4.7C8.5,4.6,8.7,4.6,9,4.6z M6.4,5.7c0.4-0.3,0.8-0.6,1.2-0.8c0.4,0.5,1,1.3,1.8,2.3
		C9,7.5,8.6,7.8,8.3,8.1C8,8.4,7.8,8.6,7.5,8.9C6.4,8,5.7,7.4,5.7,7.4C5.6,7.3,5.5,7.3,5.5,7.3C5.7,6.7,6,6.2,6.4,5.7z M5.4,9.9
		c-0.2-0.7-0.3-1.4-0.1-2l1.9,1.5c-0.4,0.6-0.7,1.2-0.9,1.8C5.9,10.8,5.6,10.4,5.4,9.9z M6.7,11.8c0.2-0.7,0.5-1.4,0.9-1.9l1.6,1.4
		c-0.4,0.5-0.8,1-1,1.6C7.7,12.5,7.2,12.2,6.7,11.8z M11.5,13.9c-0.7-0.3-1.4-0.5-2.1-0.6c-0.2,0-0.4-0.1-0.6-0.2
		c0.2-0.5,0.5-1,0.9-1.4l2.1,1.8C11.7,13.6,11.6,13.7,11.5,13.9z M12,14.1c0.1-0.1,0.1-0.2,0.2-0.2l1.1,1C13,14.6,12.5,14.4,12,14.1
		z M14.4,15.1c-0.6-0.6-1.1-1.1-1.8-1.7l0.6-0.6l0.5-0.4c0.5,0.6,1.1,1.1,1.6,1.7l-0.2,0.2C14.9,14.6,14.6,14.9,14.4,15.1z
		 M17.5,16.6c-0.1,0.1-0.2,0.2-0.2,0.3c-0.5-0.2-1.1-0.4-1.6-0.6c-0.3-0.3-0.5-0.6-0.8-0.8c0.2-0.2,0.4-0.4,0.7-0.7l0.2-0.2
		c0.7,0.7,1.3,1.3,2,1.9C17.7,16.5,17.6,16.6,17.5,16.6z"/>
</g>
</svg>
