<?xml version="1.0" encoding="utf-8"?>
<!-- Generator: Adobe Illustrator 23.1.0, SVG Export Plug-In . SVG Version: 6.00 Build 0)  -->
<svg version="1.1" id="icons" xmlns="http://www.w3.org/2000/svg" xmlns:xlink="http://www.w3.org/1999/xlink" x="0px" y="0px"
	 viewBox="0 0 47 47" style="enable-background:new 0 0 47 47;" xml:space="preserve">
<style type="text/css">
	.st0{fill:#4B6975;}
	.st1{fill:#608796;}
	.st2{fill:none;stroke:#608796;stroke-width:1.96;stroke-miterlimit:10;}
	.st3{fill:#FF2626;}
	.st4{fill:#FFFFFF;}
	.st5{fill:#FFD119;}
	.st6{fill:#DBDBDB;}
</style>
<title>LesMills</title>
<g id="Insanity">
	<rect x="13.4" y="12.5" transform="matrix(0.8618 -0.5072 0.5072 0.8618 -5.4923 9.3325)" class="st0" width="1.9" height="4.4"/>
	<path class="st1" d="M12.4,11.8l0.5-0.3c0.4-0.2,0.9-0.1,1.2,0.3l1.8,3.1l0,0l-2,1.2l0,0l-1.8-3C11.8,12.6,12,12.1,12.4,11.8z"/>
	<rect x="30.4" y="13.8" transform="matrix(0.5072 -0.8618 0.8618 0.5072 3.4041 35.3651)" class="st0" width="4.4" height="1.9"/>
	<path class="st1" d="M33.2,16.1l-2-1.2l0,0l1.8-3.1c0.2-0.4,0.7-0.5,1.2-0.3l0.5,0.3c0.4,0.2,0.5,0.7,0.3,1.2L33.2,16.1L33.2,16.1z
		"/>
	<circle class="st2" cx="23.5" cy="7" r="5.7"/>
	<rect x="21.7" y="10.3" class="st0" width="3.7" height="4.6"/>
	<circle class="st3" cx="23.5" cy="29.7" r="16"/>
	<circle class="st4" cx="23.5" cy="29.7" r="13.2"/>
	<path class="st5" d="M31.8,24.5l1.6-0.9c-0.9-1.6-2.3-2.8-3.8-3.8l-0.9,1.7C30,22.2,31.1,23.2,31.8,24.5z"/>
	<path class="st5" d="M28.1,21l0.9-1.6c-1.6-0.8-3.4-1.4-5.2-1.4V20C25.3,19.9,26.8,20.3,28.1,21z"/>
	<path class="st5" d="M33.4,29.3h1.9c-0.1-1.8-0.5-3.6-1.4-5.2L32.3,25C32.8,26.4,33.3,27.9,33.4,29.3z"/>
	<path class="st5" d="M33.4,30.1c0,1.5-0.4,2.9-1.2,4.3l1.6,0.9c0.8-1.6,1.4-3.4,1.4-5.2C35.2,30.1,33.4,30.1,33.4,30.1z"/>
	<path class="st5" d="M15.2,34.9l-1.6,0.9c0.9,1.6,2.2,2.8,3.8,3.8l0.9-1.6C17,37.2,15.9,36.1,15.2,34.9z"/>
	<path class="st5" d="M23.8,39.5v1.9c1.8,0,3.6-0.5,5.2-1.4l-0.9-1.6C26.8,39.1,25.3,39.5,23.8,39.5z"/>
	<path class="st5" d="M28.7,38l0.9,1.6c1.6-0.9,2.8-2.3,3.8-3.8l-1.7-0.9C31.1,36.1,30,37.2,28.7,38z"/>
	<path class="st5" d="M13.6,30.1h-1.9c0,1.8,0.5,3.6,1.4,5.1l1.7-0.9C14.2,33,13.7,31.5,13.6,30.1z"/>
	<path class="st5" d="M18.9,38.4l-0.9,1.6c1.6,0.8,3.4,1.4,5.2,1.4v-1.9C21.6,39.5,20.1,39.1,18.9,38.4z"/>
	<path class="st6" d="M14.8,25.1l-1.6-0.9c-0.8,1.6-1.4,3.4-1.4,5.1h1.9C13.7,27.9,14.2,26.4,14.8,25.1z"/>
	<path class="st6" d="M18.3,21.3l-0.9-1.7c-1.6,0.9-2.8,2.2-3.8,3.8l1.6,0.9C15.9,23.2,17,22.2,18.3,21.3z"/>
	<path class="st6" d="M23.2,19.9V18c-1.8,0.1-3.6,0.5-5.1,1.5L19,21C20.2,20.4,21.6,20,23.2,19.9z"/>
	<path class="st1" d="M20.9,8h5.4c0.5,0,1,0.4,1,1v0.7c0,0.5-0.4,1-1,1h-5.4c-0.5,0-1-0.4-1-1V9.1C19.8,8.5,20.2,8,20.9,8z"/>
	<path class="st1" d="M23.5,27.2c-1.7,0-3-1.4-3-3c0-1.7,1.4-3,3-3c1.7,0,3,1.4,3,3l0,0C26.5,25.9,25.2,27.2,23.5,27.2z M23.5,21.7
		c-1.4,0-2.5,1.2-2.5,2.5s1.2,2.5,2.5,2.5s2.5-1.2,2.5-2.5S24.9,21.7,23.5,21.7C23.5,21.8,23.5,21.8,23.5,21.7L23.5,21.7z"/>
	<polygon class="st0" points="23.5,22.1 23.7,24.7 23.3,24.7 	"/>
	<path class="st0" d="M23.5,30.5c0.3,0,0.6-0.2,0.7-0.5l8.6-0.6h-8.6c-0.1-0.3-0.4-0.4-0.7-0.4s-0.5,0.2-0.7,0.4h-1.6v0.9l1.6-0.1
		C23,30.5,23.3,30.6,23.5,30.5z M23.3,30.1C23.1,30,23,29.9,23,29.6c0-0.2,0.1-0.3,0.2-0.4c0.1,0,0.1,0,0.2-0.1c0.1,0,0.1,0,0.2,0.1
		c0.1,0.1,0.2,0.2,0.2,0.3c0,0.1-0.1,0.3-0.2,0.4c-0.1,0-0.1,0.1-0.2,0.1C23.5,30.2,23.4,30.2,23.3,30.1z"/>
</g>
</svg>
