<?xml version="1.0" encoding="utf-8"?>
<!-- Generator: Adobe Illustrator 23.1.0, SVG Export Plug-In . SVG Version: 6.00 Build 0)  -->
<svg version="1.1" id="icons" xmlns="http://www.w3.org/2000/svg" xmlns:xlink="http://www.w3.org/1999/xlink" x="0px" y="0px"
	 viewBox="0 0 47 47" style="enable-background:new 0 0 47 47;" xml:space="preserve">
<style type="text/css">
	.st0{fill:#334A61;}
</style>
<title>Luge</title>
<g id="Luge">
	<path class="st0" d="M44.3,32.3l-1.5-0.7c0.1-0.5,0.1-0.9,0.1-1.4c0-0.7-0.5-1.2-1.2-1.2c-0.7,0-1.2,0.5-1.2,1.2c0,0.1,0,0.2,0,0.3
		l-11-4.9l1.2-2.7c0.2-0.4,0-0.9-0.4-1.1l0,0l-16.4-7.2c-0.4-0.2-0.9,0-1.1,0.4l0,0l-2.5,5.7c-0.2,0.4,0,0.9,0.4,1.1l0,0l14.2,6.3
		c0.1,0.1,0.2,0.2,0.4,0.2l13.5,6c-0.3,0.2-0.7,0.3-1.1,0.4L10.3,22.6c-0.6-0.3-1.3,0-1.7,0.6c-0.3,0.6,0,1.3,0.6,1.7l27.6,12.3
		c0.1,0.1,0.3,0.1,0.4,0.1c1.3,0,2.7-0.5,3.6-1.4c0.1-0.1,0.2-0.2,0.3-0.3l1.3,0.6c1,0.5,2.3,0,2.8-1C45.9,34,45.3,32.8,44.3,32.3z"
		/>
	<path class="st0" d="M9.3,17.5C11,15.6,11,12.7,9.2,11s-4.8-1.8-6.6,0.1c-1.8,1.9-1.8,4.8,0.1,6.5S7.5,19.3,9.3,17.5L9.3,17.5z"/>
</g>
</svg>
