<?xml version="1.0" encoding="utf-8"?>
<!-- Generator: Adobe Illustrator 23.1.0, SVG Export Plug-In . SVG Version: 6.00 Build 0)  -->
<svg version="1.1" id="icons" xmlns="http://www.w3.org/2000/svg" xmlns:xlink="http://www.w3.org/1999/xlink" x="0px" y="0px"
	 viewBox="0 0 47 47" style="enable-background:new 0 0 47 47;" xml:space="preserve">
<style type="text/css">
	.st0{fill:#334A61;}
</style>
<title>Lunges</title>
<path class="st0" d="M23.2,3.2c-3,0-5.4,2.4-5.4,5.4s2.4,5.4,5.4,5.4s5.4-2.4,5.4-5.4l0,0C28.6,5.6,26.2,3.2,23.2,3.2z M18.7,14.3
	c-0.6,0-0.8,0.2-0.9,1l-0.3,2.2c-5,2.9-8.9,5.4-14.5,8.1c-0.7,0.4-1,1.3-0.7,2l0,0l0.6,1.1c0.3,0.7,1.2,1.1,1.9,0.8
	c1.3,4.4,2.5,8.9,3.8,13.4c0.1,0.6,0.7,0.9,1.3,0.8l0,0l3.5-1c0.6-0.2,0.9-0.7,0.8-1.3l0,0l-2.5-8.8c4.4,1,2.1,0.5,6.8,1.4l9.1,9
	c0.7,0.6,1.6,0.8,2.5,0.7l13.6-0.2c0.6,0,1-0.5,1-1.1v-3.6c0-0.6-0.5-1-1.1-1l-13,0.2l-6.1-6l1.6-16c0-0.5-0.1-1.1-0.7-1.1
	C23.2,14.7,20.9,14.5,18.7,14.3z M16.9,23l-0.5,4.9l-5.5-1.6C13,25.3,14.9,24.2,16.9,23z"/>
</svg>
