<?xml version="1.0" encoding="utf-8"?>
<!-- Generator: Adobe Illustrator 23.1.0, SVG Export Plug-In . SVG Version: 6.00 Build 0)  -->
<svg version="1.1" id="icons" xmlns="http://www.w3.org/2000/svg" xmlns:xlink="http://www.w3.org/1999/xlink" x="0px" y="0px"
	 viewBox="0 0 47 47" style="enable-background:new 0 0 47 47;" xml:space="preserve">
<style type="text/css">
	.st0{fill:#E2E2E2;}
	.st1{fill:#919191;}
	.st2{fill:#BFBFBF;}
	.st3{fill:#232323;}
</style>
<title>Martial Arts</title>
<g id="Martial_Arts">
	<path class="st0" d="M30,5.4H17.2c-8.4,0-15.2,6.8-15.2,15.2v11.2c0,0.2,0.2,0.4,0.4,0.4l0,0h6c0.2,0,0.4-0.2,0.4-0.4V20.5
		c0-1.9,0.7-3.8,1.9-5.2l0.8,13.3c0,0.7,0,1.4-0.1,2.1l-1,7.6c-0.1,0.5,0.3,1,0.8,1.1h0.1h23.9c0.5,0,1-0.4,1-1v-0.1l-1-7.6
		c-0.1-0.7-0.1-1.3-0.1-2.1l0.8-13.3c1.2,1.4,1.9,3.4,1.9,5.2v11.2c0,0.2,0.2,0.4,0.4,0.4l0,0h6c0.2,0,0.4-0.2,0.4-0.4l0,0V20.5
		C45.1,12.1,38.3,5.4,30,5.4z"/>
	<path class="st1" d="M29.4,9.3l-5.5,7.5l-5.5-7.5c-0.4-0.5-0.6-1.1-0.6-1.7c0-1.6,1.3-3,3-3H27c1.6,0,3,1.3,3,3
		C30.1,8.1,29.9,8.8,29.4,9.3z"/>
	<path class="st2" d="M10.7,38.3L31.8,9.8c1.3-1.9,0.9-4.6-0.9-5.9C30.1,3.3,29.2,3,28.3,3h-8.8c-2.4,0-4.2,1.9-4.2,4.3
		c0,0.9,0.3,1.7,0.8,2.5l5.9,8.1L11.5,32.2L10.7,38.3z M23.9,15.2l-5-6.7l-0.4-0.6c-0.4-0.5-0.2-1.3,0.3-1.6C19,6.1,19.2,6,19.5,6
		h8.9c0.7,0,1.2,0.5,1.2,1.2c0,0.2-0.1,0.5-0.2,0.7l-0.5,0.7L23.9,15.2z"/>
	<path class="st3" d="M35.4,32.2H11.7c-0.2,0-0.4-0.2-0.4-0.4v-2.2c0-0.2,0.2-0.4,0.4-0.4l0,0h23.7c0.2,0,0.4,0.2,0.4,0.4v2.2
		C35.8,32.1,35.6,32.2,35.4,32.2z"/>
	<path class="st3" d="M24.7,29.6l-0.4-0.1c-0.4-0.1-0.9-0.1-1.3-0.1c-0.4,0.1-0.8,0.3-1.2,0.5L5.7,41.5c-0.2,0.1-0.2,0.4-0.1,0.6
		l0,0l1.2,1.7C7,44,7.3,44,7.5,43.9l0,0l15.8-11.4c0.2-0.1,0.4-0.2,0.6-0.1c5.4,1.6,10.4,4.7,14.1,9c0.2,0.2,0.4,0.2,0.6,0l1.6-1.4
		c0.2-0.2,0.2-0.4,0-0.6l0,0C36.1,34.8,30.7,31.3,24.7,29.6z"/>
	<path class="st3" d="M26.5,31.1c0,1.4-1.1,2.6-2.6,2.6s-2.6-1.1-2.6-2.6c0-1.4,1.1-2.6,2.6-2.6l0,0C25.3,28.5,26.5,29.7,26.5,31.1
		L26.5,31.1z"/>
</g>
</svg>
