<?xml version="1.0" encoding="utf-8"?>
<!-- Generator: Adobe Illustrator 23.1.0, SVG Export Plug-In . SVG Version: 6.00 Build 0)  -->
<svg version="1.1" id="icons" xmlns="http://www.w3.org/2000/svg" xmlns:xlink="http://www.w3.org/1999/xlink" x="0px" y="0px"
	 viewBox="0 0 47 47" style="enable-background:new 0 0 47 47;" xml:space="preserve">
<style type="text/css">
	.st0{fill:#E2E2E2;}
	.st1{fill:#919191;}
	.st2{fill:#BFBFBF;}
	.st3{fill:#232323;}
</style>
<title>MixedMartialArts</title>
<g id="Martial_Arts">
	<path class="st0" d="M29.7,5.8H17.3c-8.2,0-14.8,6.6-14.8,14.8v10.9c0,0.2,0.2,0.4,0.4,0.4l0,0h5.9c0.2,0,0.4-0.2,0.4-0.4V20.6
		c0-1.9,0.7-3.7,1.9-5.1l0.8,13c0,0.7,0,1.4-0.1,2l-1,7.4c-0.1,0.5,0.3,1,0.8,1.1h0.1H35c0.5,0,1-0.4,1-1v-0.1l-1-7.4
		c-0.1-0.7-0.1-1.3-0.1-2l0.8-13c1.2,1.4,1.9,3.3,1.9,5.1v10.9c0,0.2,0.2,0.4,0.4,0.4l0,0h5.9c0.2,0,0.4-0.2,0.4-0.4l0,0V20.6
		C44.5,12.4,37.8,5.8,29.7,5.8z"/>
	<path class="st1" d="M29.2,9.6l-5.4,7.3l-5.4-7.3c-0.4-0.5-0.6-1.1-0.6-1.7c0-1.6,1.3-2.9,2.9-2.9h6.1c1.6,0,2.9,1.3,2.9,2.9
		C29.8,8.5,29.6,9.1,29.2,9.6z"/>
	<path class="st2" d="M10.9,37.9l20.6-27.8c1.3-1.9,0.9-4.5-0.9-5.8c-0.8-0.5-1.6-0.8-2.5-0.8h-8.6c-2.3,0-4.1,1.9-4.1,4.2
		c0,0.9,0.3,1.7,0.8,2.4L22,18L11.7,32L10.9,37.9z M23.8,15.4l-4.9-6.5l-0.4-0.6c-0.4-0.5-0.2-1.3,0.3-1.6c0.2-0.2,0.4-0.3,0.7-0.3
		h8.7c0.7,0,1.2,0.5,1.2,1.2c0,0.2-0.1,0.5-0.2,0.7L28.7,9L23.8,15.4z"/>
	<path class="st3" d="M35,32H11.9c-0.2,0-0.4-0.2-0.4-0.4v-2.1c0-0.2,0.2-0.4,0.4-0.4l0,0H35c0.2,0,0.4,0.2,0.4,0.4v2.1
		C35.4,31.9,35.2,32,35,32z"/>
	<path class="st3" d="M24.6,29.4l-0.4-0.1c-0.4-0.1-0.9-0.1-1.3-0.1c-0.4,0.1-0.8,0.3-1.2,0.5L6,41c-0.2,0.1-0.2,0.4-0.1,0.6l0,0
		l1.2,1.7c0.2,0.2,0.5,0.2,0.7,0.1l0,0l15.4-11.1c0.2-0.1,0.4-0.2,0.6-0.1c5.3,1.6,10.1,4.6,13.8,8.8c0.2,0.2,0.4,0.2,0.6,0l1.6-1.4
		c0.2-0.2,0.2-0.4,0-0.6l0,0C35.7,34.5,30.4,31.1,24.6,29.4z"/>
	<path class="st3" d="M26.3,30.9c0,1.4-1.1,2.5-2.5,2.5s-2.5-1.1-2.5-2.5s1.1-2.5,2.5-2.5l0,0C25.2,28.4,26.3,29.5,26.3,30.9
		L26.3,30.9z"/>
</g>
</svg>
