<?xml version="1.0" encoding="utf-8"?>
<!-- Generator: Adobe Illustrator 23.1.0, SVG Export Plug-In . SVG Version: 6.00 Build 0)  -->
<svg version="1.1" id="icons" xmlns="http://www.w3.org/2000/svg" xmlns:xlink="http://www.w3.org/1999/xlink" x="0px" y="0px"
	 viewBox="0 0 47 47" style="enable-background:new 0 0 47 47;" xml:space="preserve">
<style type="text/css">
	.st0{fill:#003663;}
	.st1{fill:#EAEAEA;}
	.st2{fill:#FF9100;}
	.st3{fill:#3F3F3F;}
	.st4{fill:#727272;}
	.st5{fill:url(#SVGID_1_);}
	.st6{fill:url(#SVGID_2_);}
	.st7{fill:url(#SVGID_3_);}
	.st8{fill:url(#SVGID_4_);}
	.st9{fill:url(#SVGID_5_);}
	.st10{fill:url(#SVGID_6_);}
	.st11{fill:url(#SVGID_7_);}
	.st12{fill:url(#SVGID_8_);}
	.st13{fill:url(#SVGID_9_);}
	.st14{fill:#2D2D2D;}
	.st15{fill:#A0A0A0;}
	.st16{fill:#AAAAAA;}
</style>
<title>MotoCross</title>
<path class="st0" d="M18,13.2v-0.3l0,0c0-0.6-0.5-1-1-1h-1c-1.6,0-2.8,1.4-2.8,2.9v0.3c0,1.3,1,2.3,2.3,2.2h3.9v-0.8
	c0-0.7-0.3-1.4-0.7-1.9C18.2,14.2,18,13.7,18,13.2z"/>
<path class="st1" d="M14.8,14.9c0,1.1-0.4,2.1-0.9,2.1S13,16.1,13,14.9s0.4-2.1,0.9-2.1C14.4,12.8,14.8,13.7,14.8,14.9z"/>
<path class="st2" d="M16.9,22.4c-1.6-2.3-4.3-3.8-7.2-3.8c-2,0-3.8,0.6-5.2,1.7c-0.5,0.4-0.1,1.3,0.5,1c1.1-0.4,2.4-0.7,3.8-0.7
	c3.3,0,6.3,1.6,8.1,4C16.9,24.6,16.9,22.4,16.9,22.4z"/>
<path class="st3" d="M41.9,18.7L37.8,20c-0.2,0.1-0.3,0-0.4-0.2l-0.2-0.5c-0.1-0.2,0-0.3,0.2-0.4l4.1-1.3c0.2-0.1,0.3,0,0.4,0.2
	l0.2,0.5C42.2,18.4,42.1,18.6,41.9,18.7z"/>
<path class="st3" d="M40,20l-8.5,2.7c-0.3,0.1-0.7-0.1-0.8-0.4l-0.3-1.1c-0.1-0.3,0.1-0.7,0.4-0.8l8.6-2.7c0.3-0.1,0.7,0.1,0.8,0.4
	l0.3,1.1C40.7,19.5,40.5,19.9,40,20z"/>
<path class="st4" d="M35.4,15.4c-0.8,0.4-1.6,0.9-2.2,1.7c-1.4,1.4-3.2,2.2-5.1,2.2H16.9v2.9c0,0.8,0.2,1.7,0.6,2.4l2.2,3.9h10.2
	c0-2.4,0.8-4.7,2.5-6.5c3.8-4.3,8.6-5.6,10.8-6c0.4-0.1,0.7-0.3,1-0.5L35.4,15.4L35.4,15.4z"/>
<linearGradient id="SVGID_1_" gradientUnits="userSpaceOnUse" x1="5.715" y1="-603.6409" x2="7.0391" y2="-603.6409" gradientTransform="matrix(1.0039 0 0 -1.0039 3.1325 -580.1952)">
	<stop  offset="0" style="stop-color:#D4F7FF"/>
	<stop  offset="1" style="stop-color:#A2E3E9"/>
</linearGradient>
<path class="st5" d="M10.2,29H8.8L9,22.6h0.8L10.2,29z M9,28.9h1l-0.2-6.2H9.2L9,28.9z"/>
<linearGradient id="SVGID_2_" gradientUnits="userSpaceOnUse" x1="5.715" y1="664.0134" x2="7.039" y2="664.0134" gradientTransform="matrix(1.0039 0 0 1.0039 3.1325 -633.4031)">
	<stop  offset="0" style="stop-color:#D4F7FF"/>
	<stop  offset="1" style="stop-color:#A2E3E9"/>
</linearGradient>
<path class="st6" d="M10,36.4H9.1L8.8,30h1.4L10,36.4z M9.2,36.3h0.6l0.2-6.2H9L9.2,36.3z"/>
<linearGradient id="SVGID_3_" gradientUnits="userSpaceOnUse" x1="-2069.5464" y1="2683.2361" x2="-2068.2224" y2="2683.2361" gradientTransform="matrix(0 1.0039 1.0039 0 -2680.4009 2106.5105)">
	<stop  offset="0" style="stop-color:#D4F7FF"/>
	<stop  offset="1" style="stop-color:#A2E3E9"/>
</linearGradient>
<path class="st7" d="M10.1,30.2v-1.4l6.4,0.2v0.8L10.1,30.2z M10.2,29v1l6.2-0.2v-0.6L10.2,29z"/>
<linearGradient id="SVGID_4_" gradientUnits="userSpaceOnUse" x1="-2069.5464" y1="-2622.7639" x2="-2068.2224" y2="-2622.7639" gradientTransform="matrix(0 1.0039 -1.0039 0 -2627.1929 2106.5105)">
	<stop  offset="0" style="stop-color:#D4F7FF"/>
	<stop  offset="1" style="stop-color:#A2E3E9"/>
</linearGradient>
<path class="st8" d="M9,30.2L2.6,30v-0.8L9,29V30.2z M2.8,29.8L8.9,30v-1l-6.2,0.2v0.6C2.7,29.8,2.8,29.8,2.8,29.8z"/>
<path class="st3" d="M10.2,29H8.8L9,22.6h0.8L10.2,29z M9,28.9h1l-0.2-6.2H9.2L9,28.9z"/>
<path class="st3" d="M10,36.4H9.1L8.8,30h1.4L10,36.4z M9.2,36.3h0.6l0.2-6.2H9L9.2,36.3z"/>
<path class="st3" d="M10.1,30.2v-1.4l6.4,0.2v0.8L10.1,30.2z M10.2,29v1l6.2-0.2v-0.6L10.2,29z"/>
<path class="st3" d="M9,30.2L2.6,30v-0.8L9,29V30.2z M2.8,29.8L8.9,30v-1l-6.2,0.2v0.6C2.7,29.8,2.8,29.8,2.8,29.8z"/>
<path class="st3" d="M10.4,29.6l-0.9-0.9l4.7-4.4l0.6,0.6L10.4,29.6z M9.7,28.7l0.7,0.7l4.2-4.5l-0.5-0.4L9.7,28.7z"/>
<path class="st3" d="M5,34.7l-0.6-0.6l4.3-4.7l0.9,0.9L5,34.7z M4.5,34.1L5,34.5l4.5-4.2l-0.7-0.7L4.5,34.1z"/>
<path class="st3" d="M14.1,34.7l-4.7-4.3l1-0.9l4.4,4.7L14.1,34.7z M9.7,30.3l4.5,4.2l0.4-0.4l-4.2-4.5L9.7,30.3z"/>
<path class="st3" d="M8.7,29.6l-4.4-4.7l0.6-0.6l4.7,4.3L8.7,29.6z M4.5,24.9l4.2,4.5l0.7-0.7L5,24.5L4.5,24.9z"/>
<path class="st3" d="M8.8,29.9L3,27.4l0.2-0.7l6.1,2L8.8,29.9z M3.1,27.4l5.6,2.4l0.4-1l-5.8-1.9L3.1,27.4z"/>
<path class="st3" d="M15.8,32.3l-6.1-2l0.4-1.3l5.8,2.5L15.8,32.3z M10,30.2l5.8,1.9l0.2-0.5l-5.6-2.4L10,30.2z"/>
<path class="st3" d="M7.5,36.2l-0.7-0.3l2-6.1l1.3,0.4L7.5,36.2z M6.8,35.8L7.3,36l2.4-5.6L8.8,30L6.8,35.8z"/>
<path class="st3" d="M10.4,29.3l-1.3-0.5l2.5-5.8l0.7,0.3L10.4,29.3z M9.2,28.7l0.9,0.4l1.9-5.8L11.5,23L9.2,28.7z"/>
<path class="st3" d="M10.3,29.9l-0.5-1.3l6.1-2.2l0.3,0.7L10.3,29.9z M10,28.8l0.4,1l5.6-2.5l-0.3-0.6L10,28.8z"/>
<path class="st3" d="M3.3,32.5L3,31.8l5.8-2.7l0.5,1.3L3.3,32.5z M3.2,31.8l0.2,0.5l5.7-2.1l-0.4-0.9L3.2,31.8z"/>
<path class="st3" d="M11.7,36.1l-2.6-5.8l1.3-0.4l2.2,6.1L11.7,36.1z M9.3,30.3l2.5,5.6l0.5-0.2L10.2,30L9.3,30.3z"/>
<path class="st3" d="M8.7,29.3l-2.2-6.1l0.7-0.3l2.7,5.8L8.7,29.3z M6.7,23.3L8.8,29l0.9-0.4L7.2,23L6.7,23.3z"/>
<path class="st4" d="M9.6,22.5c-3.9,0-7,3.1-7,7s3.1,7,7,7s7-3.1,7-7S13.4,22.5,9.6,22.5z M9.6,35.4c-3.2,0-6-2.6-6-6s2.6-6,6-6
	s6,2.6,6,6S12.8,35.4,9.6,35.4z"/>
<path class="st3" d="M16.9,30.2c0-0.1,0.1-0.3,0.2-0.3l0,0c0.3-0.2,0.3-0.6,0-0.8l0,0c-0.1-0.1-0.2-0.2-0.2-0.3l0,0
	c0-0.1,0-0.3,0.2-0.4c0.1-0.1,0.2-0.2,0.2-0.3c0-0.2-0.1-0.4-0.3-0.4l0,0c-0.2,0-0.3-0.1-0.3-0.3c0,0,0,0,0-0.1s0-0.3,0.1-0.4l0,0
	c0.2-0.3,0.1-0.7-0.3-0.7l0,0c-0.2,0-0.3-0.1-0.4-0.2l0,0c-0.1-0.1-0.1-0.3,0-0.4l0,0c0.2-0.3-0.1-0.7-0.5-0.6l0,0
	c-0.2,0-0.3,0-0.4-0.1c-0.1-0.1-0.1-0.3-0.1-0.4l0,0c0.1-0.4-0.2-0.7-0.6-0.5l0,0c-0.2,0.1-0.3,0-0.4-0.1c-0.1-0.1-0.2-0.2-0.2-0.4
	l0,0c0-0.4-0.4-0.6-0.7-0.4l0,0c-0.1,0.1-0.3,0.1-0.4,0.1l0,0l0,0c-0.1-0.1-0.2-0.2-0.2-0.3l0,0c0-0.4-0.5-0.5-0.7-0.2
	c-0.4-0.2-0.5-0.2-0.6-0.2c0,0,0,0-0.1,0l0,0l0,0c-0.1,0-0.2-0.1-0.3-0.3l0,0c-0.1-0.4-0.6-0.4-0.8-0.1l0,0
	c-0.1,0.1-0.2,0.2-0.4,0.2c-0.1,0-0.3-0.1-0.4-0.2l0,0c-0.2-0.3-0.7-0.3-0.8,0.1l0,0c0,0.1-0.2,0.2-0.3,0.3l0,0l0,0
	c-0.1,0-0.3,0-0.4-0.1l0,0c-0.2-0.3-0.7-0.1-0.7,0.2l0,0c0,0.2-0.1,0.3-0.2,0.3l0,0l0,0c-0.1,0-0.3,0-0.4-0.1l0,0
	c-0.3-0.2-0.7,0-0.7,0.4l0,0c0,0.2-0.1,0.3-0.2,0.4s-0.3,0.1-0.4,0.1l0,0c-0.3-0.1-0.7,0.2-0.6,0.5l0,0c0,0.2,0,0.3-0.1,0.4l0,0
	c-0.1,0.1-0.2,0.2-0.4,0.1l0,0c-0.4-0.1-0.6,0.3-0.5,0.6l0,0c0.1,0.1,0.1,0.3,0,0.4l0,0c-0.1,0.1-0.2,0.2-0.4,0.2
	c-0.6,0.1-0.7,0.4-0.7,0.6c0,0.1,0,0.2,0.1,0.3l0,0c0,0.1,0,0.3,0,0.4l0,0c0,0,0,0,0,0.1c-0.1,0.1-0.3,0.2-0.4,0.3l0,0
	c-0.4,0.1-0.5,0.5-0.2,0.8c0.1,0.1,0.2,0.2,0.2,0.3l0,0l0,0l0,0C2.2,28.8,2.1,29,2,29l0,0c-0.3,0.2-0.3,0.6,0,0.8l0,0
	c0.1,0.1,0.2,0.2,0.2,0.3l0,0l0,0c0,0.1,0,0.3-0.2,0.4c-0.1,0.1-0.2,0.2-0.2,0.3c0,0.2,0.1,0.4,0.3,0.4l0,0c0.1,0.2,0.4,0.3,0.4,0.5
	c0,0,0,0,0,0.1s0,0.3-0.1,0.4l0,0c-0.2,0.3,0.1,0.7,0.4,0.7c0.2,0,0.3,0.1,0.4,0.2l0,0c0,0.1,0,0.1,0,0.2c0,0.1,0,0.1-0.1,0.2l0,0
	c-0.2,0.3,0.1,0.7,0.5,0.6l0,0c0.2,0,0.3,0,0.4,0.1c0.1,0.1,0.1,0.3,0.1,0.4l0,0C4,35,4.3,35.3,4.7,35.1l0,0c0.1-0.1,0.3,0,0.4,0
	l0,0l0,0c0.1,0.1,0.2,0.2,0.2,0.4l0,0c0,0.4,0.4,0.6,0.7,0.4l0,0c0.1-0.1,0.3-0.1,0.4-0.1l0,0l0,0c0.1,0.1,0.2,0.2,0.2,0.3
	c0,0.2,0.2,0.4,0.4,0.4c0.1,0,0.2,0,0.3-0.1l0,0c0.3,0.1,0.4,0,0.6,0.1l0,0l0,0c0.1,0,0.2,0.1,0.3,0.3l0,0c0.1,0.3,0.6,0.4,0.8,0.1
	l0,0c0.1-0.1,0.2-0.2,0.4-0.2c0.1,0,0.3,0.1,0.4,0.2l0,0c0.2,0.3,0.7,0.3,0.8-0.1l0,0c0-0.1,0.2-0.2,0.3-0.3l0,0l0,0
	c0.1,0,0.3,0,0.4,0.1l0,0c0.2,0.3,0.7,0.1,0.7-0.2c0-0.2,0.1-0.3,0.2-0.3l0,0l0,0h0.3c0.1,0,0.2,0,0.2,0.1l0,0
	c0.3,0.2,0.7,0,0.7-0.4l0,0c0-0.2,0.1-0.3,0.2-0.4l0,0l0,0c0.1-0.1,0.3-0.1,0.4,0l0,0c0.3,0.1,0.7-0.2,0.6-0.5l0,0
	c0-0.1,0-0.3,0.1-0.4s0.3-0.2,0.4-0.1l0,0c0.4,0.1,0.6-0.3,0.5-0.6l0,0c-0.1-0.1-0.1-0.3,0-0.4l0,0l0,0c0.1-0.1,0.2-0.2,0.4-0.2l0,0
	c0.4,0,0.6-0.4,0.3-0.7l0,0c-0.1-0.1-0.1-0.3-0.1-0.4l0,0c0,0,0,0,0-0.1s0.2-0.2,0.3-0.3l0,0c0.4-0.1,0.5-0.5,0.2-0.8
	C16.9,30.6,16.9,30.4,16.9,30.2C16.9,30.3,16.9,30.3,16.9,30.2C16.9,30.3,16.9,30.2,16.9,30.2L16.9,30.2z M9.6,35.7
	c-3.4,0-6.2-2.7-6.2-6.2s2.7-6.2,6.2-6.2s6.2,2.7,6.2,6.2S13,35.7,9.6,35.7z"/>
<circle class="st2" cx="9.6" cy="29.5" r="2.1"/>
<circle class="st3" cx="9.6" cy="29.5" r="1"/>
<linearGradient id="SVGID_5_" gradientUnits="userSpaceOnUse" x1="33.5542" y1="-603.6409" x2="34.8782" y2="-603.6409" gradientTransform="matrix(1.0039 0 0 -1.0039 3.1325 -580.1952)">
	<stop  offset="0" style="stop-color:#D4F7FF"/>
	<stop  offset="1" style="stop-color:#A2E3E9"/>
</linearGradient>
<path class="st9" d="M38.2,29h-1.4l0.2-6.4h0.8L38.2,29z M36.9,28.9h1l-0.2-6.2h-0.6L36.9,28.9z"/>
<linearGradient id="SVGID_6_" gradientUnits="userSpaceOnUse" x1="33.5541" y1="664.0134" x2="34.8781" y2="664.0134" gradientTransform="matrix(1.0039 0 0 1.0039 3.1325 -633.4031)">
	<stop  offset="0" style="stop-color:#D4F7FF"/>
	<stop  offset="1" style="stop-color:#A2E3E9"/>
</linearGradient>
<path class="st10" d="M38,36.4h-0.8L37,30h1.4L38,36.4z M37.2,36.3h0.6l0.2-6.2h-1L37.2,36.3z"/>
<linearGradient id="SVGID_7_" gradientUnits="userSpaceOnUse" x1="-2069.5464" y1="2711.1272" x2="-2068.2224" y2="2711.1272" gradientTransform="matrix(0 1.0039 1.0039 0 -2680.4009 2106.5105)">
	<stop  offset="0" style="stop-color:#D4F7FF"/>
	<stop  offset="1" style="stop-color:#A2E3E9"/>
</linearGradient>
<path class="st11" d="M38.1,30.2v-1.4l6.4,0.2v0.8L38.1,30.2z M38.2,29v1l6.2-0.2v-0.6L38.2,29z"/>
<linearGradient id="SVGID_8_" gradientUnits="userSpaceOnUse" x1="-2069.5464" y1="-2650.5557" x2="-2068.2224" y2="-2650.5557" gradientTransform="matrix(0 1.0039 -1.0039 0 -2627.1929 2106.5105)">
	<stop  offset="0" style="stop-color:#D4F7FF"/>
	<stop  offset="1" style="stop-color:#A2E3E9"/>
</linearGradient>
<path class="st12" d="M36.9,30.2L30.5,30v-0.8l6.4-0.2V30.2z M30.7,29.8l6.2,0.2v-1l-6.2,0.2V29.8z"/>
<path class="st3" d="M38.2,29h-1.4l0.2-6.4h0.8L38.2,29z M36.9,28.9h1l-0.2-6.2h-0.6L36.9,28.9z"/>
<path class="st3" d="M38,36.4h-0.8L37,30h1.4L38,36.4z M37.2,36.3h0.6l0.2-6.2h-1L37.2,36.3z"/>
<path class="st3" d="M38.1,30.2v-1.4l6.4,0.2v0.8L38.1,30.2z M38.2,29v1l6.2-0.2v-0.6L38.2,29z"/>
<path class="st3" d="M36.9,30.2L30.5,30v-0.8l6.4-0.2V30.2z M30.7,29.8l6.2,0.2v-1l-6.2,0.2V29.8z"/>
<path class="st3" d="M38.4,29.6l-0.9-0.9l4.7-4.4l0.6,0.6L38.4,29.6z M37.5,28.7l0.7,0.7l4.2-4.5L42,24.5L37.5,28.7z"/>
<path class="st3" d="M32.9,34.7l-0.6-0.6l4.3-4.7l0.9,0.9L32.9,34.7z M32.5,34.1l0.4,0.4l4.5-4.2l-0.7-0.7L32.5,34.1z"/>
<path class="st3" d="M42.1,34.7l-4.7-4.3l0.9-0.9l4.4,4.7L42.1,34.7z M37.5,30.3l4.5,4.2l0.4-0.4l-4.2-4.5L37.5,30.3z"/>
<path class="st3" d="M36.6,29.6l-4.4-4.7l0.6-0.6l4.7,4.3L36.6,29.6z M32.4,24.9l4.2,4.5l0.7-0.7l-4.5-4.1L32.4,24.9z"/>
<path class="st3" d="M36.8,29.9L31,27.4l0.3-0.7l6.1,2L36.8,29.9z M31.1,27.4l5.6,2.4l0.3-1l-5.8-1.9L31.1,27.4z"/>
<path class="st3" d="M43.8,32.3l-6.1-2l0.4-1.3l5.8,2.5L43.8,32.3z M38,30.2l5.8,1.9l0.2-0.5l-5.6-2.4L38,30.2z"/>
<path class="st3" d="M35.4,36.2l-0.7-0.3l2-6.1l1.3,0.4L35.4,36.2z M34.8,35.8l0.5,0.2l2.4-5.6L36.8,30L34.8,35.8z"/>
<path class="st3" d="M38.3,29.3L37,28.8l2.5-5.8l0.7,0.3L38.3,29.3z M37.2,28.7l0.9,0.4l1.9-5.8L39.5,23L37.2,28.7z"/>
<path class="st3" d="M38.3,29.9l-0.5-1.3l6.1-2.2l0.3,0.7L38.3,29.9z M38,28.8l0.4,0.9l5.6-2.5l-0.3-0.5L38,28.8z"/>
<path class="st3" d="M31.3,32.5L31,31.8l5.8-2.6l0.5,1.3L31.3,32.5z M31.1,31.8l0.2,0.5l5.7-2.1l-0.4-0.9L31.1,31.8z"/>
<path class="st3" d="M39.7,36.1l-2.6-5.8l1.3-0.5l2.2,6.1L39.7,36.1z M37.2,30.3l2.5,5.6l0.5-0.2L38.1,30L37.2,30.3z"/>
<path class="st3" d="M36.7,29.3l-2.2-6.1l0.7-0.3l2.6,5.8L36.7,29.3z M34.7,23.3l2.1,5.7l0.9-0.4L35.2,23L34.7,23.3z"/>
<path class="st4" d="M37.5,22.5c-3.9,0-7,3.1-7,7s3.1,7,7,7s7-3.1,7-7S41.4,22.5,37.5,22.5z M37.5,35.4c-3.2,0-6-2.6-6-6s2.6-6,6-6
	c3.3,0,6,2.6,6,6S40.8,35.4,37.5,35.4z"/>
<path class="st3" d="M44.7,30.2c0-0.1,0.1-0.3,0.2-0.3l0,0c0.3-0.2,0.3-0.6,0-0.8l0,0c-0.1-0.1-0.2-0.2-0.2-0.3l0,0
	c0-0.1,0-0.3,0.2-0.4c0.1-0.1,0.2-0.2,0.2-0.3c0-0.2-0.1-0.4-0.3-0.4l0,0c-0.2,0-0.3-0.1-0.3-0.3c0,0,0,0,0-0.1s0-0.3,0.1-0.4l0,0
	c0.2-0.3,0.1-0.7-0.3-0.7l0,0c-0.2,0-0.3-0.1-0.4-0.2l0,0c-0.1-0.1-0.1-0.3,0-0.4l0,0c0.2-0.3-0.1-0.7-0.5-0.6l0,0
	c-0.2,0-0.3,0-0.4-0.1c-0.1-0.1-0.1-0.3-0.1-0.4l0,0c0.1-0.4-0.2-0.7-0.6-0.5l0,0c-0.2,0.1-0.3,0-0.4-0.1s-0.2-0.2-0.2-0.4l0,0
	c0-0.4-0.4-0.6-0.7-0.4l0,0c-0.1,0.1-0.3,0.1-0.4,0.1l0,0l0,0c-0.1-0.1-0.2-0.2-0.2-0.3l0,0c0-0.4-0.5-0.5-0.7-0.2
	c-0.3-0.2-0.4-0.2-0.5-0.2c0,0,0,0-0.1,0l0,0l0,0c-0.1,0-0.2-0.1-0.3-0.3l0,0c-0.1-0.4-0.6-0.4-0.8-0.1l0,0
	c-0.1,0.1-0.2,0.2-0.4,0.2s-0.3-0.1-0.4-0.2l0,0c-0.2-0.3-0.7-0.3-0.8,0.1l0,0c0,0.1-0.2,0.2-0.3,0.3l0,0l0,0c-0.1,0-0.3,0-0.4-0.1
	l0,0c-0.2-0.3-0.7-0.1-0.7,0.2l0,0c0,0.2-0.1,0.3-0.2,0.3l0,0l0,0c-0.1,0-0.3,0-0.4-0.1l0,0c-0.3-0.2-0.7,0-0.7,0.4l0,0
	c0,0.2-0.1,0.3-0.2,0.4s-0.3,0.1-0.4,0.1l0,0c-0.3-0.1-0.7,0.2-0.6,0.5l0,0c0,0.2,0,0.3-0.1,0.4l0,0c-0.1,0.1-0.2,0.2-0.4,0.1l0,0
	c-0.4-0.1-0.6,0.3-0.5,0.6l0,0c0.1,0.1,0.1,0.3,0,0.4l0,0c-0.1,0.1-0.2,0.2-0.4,0.2c-0.3,0-0.4,0.2-0.4,0.4c0,0.1,0,0.2,0.1,0.3l0,0
	c0.1,0.1,0.1,0.3,0.1,0.4l0,0c0,0,0,0,0,0.1c-0.1,0.1-0.2,0.2-0.3,0.3l0,0c-0.4,0.1-0.5,0.5-0.2,0.8c0.1,0.1,0.2,0.2,0.2,0.3l0,0
	l0,0l0,0c0,0.1-0.1,0.3-0.2,0.3l0,0c-0.3,0.2-0.3,0.6,0,0.8l0,0c0.1,0.1,0.2,0.2,0.2,0.3l0,0l0,0c0,0.1,0,0.3-0.2,0.4
	c-0.1,0.1-0.2,0.2-0.2,0.3c0,0.2,0.1,0.4,0.3,0.4l0,0c0.1,0,0.3,0.1,0.3,0.3c0,0,0,0,0,0.1s0,0.3-0.1,0.4l0,0
	c-0.2,0.3,0,0.7,0.4,0.7c0.2,0,0.3,0.1,0.4,0.2l0,0c0,0.1,0,0.1,0,0.2c0,0.1,0,0.1-0.1,0.2l0,0c-0.2,0.3,0.1,0.7,0.5,0.6l0,0
	c0.2,0,0.3,0,0.4,0.1c0.1,0.1,0.1,0.3,0.1,0.4l0,0c-0.1,0.4,0.2,0.7,0.6,0.5l0,0c0.1-0.1,0.3,0,0.4,0l0,0l0,0
	c0.1,0.1,0.2,0.2,0.2,0.4l0,0c0,0.4,0.4,0.6,0.7,0.4l0,0c0.1-0.1,0.3-0.1,0.4-0.1l0,0l0,0c0.1,0.1,0.2,0.2,0.2,0.3
	c0,0.2,0.2,0.4,0.4,0.4c0.1,0,0.2,0,0.3-0.1l0,0c0.1-0.1,0.2-0.2,0.4-0.1l0,0l0,0c0.1,0,0.2,0.1,0.3,0.3l0,0
	c0.1,0.3,0.6,0.4,0.8,0.1l0,0c0.1-0.1,0.2-0.2,0.4-0.2c0.1,0,0.3,0.1,0.4,0.2l0,0c0.2,0.3,0.7,0.3,0.8-0.1l0,0
	c0-0.1,0.2-0.2,0.3-0.3l0,0l0,0c0.1,0,0.3,0,0.4,0.1l0,0c0.2,0.3,0.7,0.1,0.7-0.2c0-0.2,0.1-0.3,0.2-0.3l0,0l0,0h0.2
	c0.1,0,0.2,0,0.2,0.1l0,0c0.3,0.2,0.7,0,0.7-0.4l0,0c0-0.2,0.1-0.3,0.2-0.4l0,0l0,0c0.1-0.1,0.3-0.1,0.4,0l0,0
	c0.3,0.1,0.7-0.2,0.6-0.5l0,0c0-0.1,0-0.3,0.1-0.4s0.3-0.2,0.4-0.1l0,0c0.4,0.1,0.6-0.3,0.5-0.6l0,0c-0.1-0.1-0.1-0.3,0-0.4l0,0l0,0
	c0.1-0.1,0.2-0.2,0.4-0.2l0,0c0.4,0,0.6-0.4,0.3-0.7l0,0c-0.1-0.1-0.1-0.3-0.1-0.4l0,0c0,0,0,0,0-0.1s0.2-0.2,0.3-0.3l0,0
	C44.9,31,45,30.6,44.7,30.2C44.8,30.6,44.7,30.4,44.7,30.2C44.7,30.3,44.7,30.3,44.7,30.2C44.7,30.3,44.7,30.2,44.7,30.2L44.7,30.2z
	 M37.5,35.7c-3.4,0-6.2-2.7-6.2-6.2s2.7-6.2,6.2-6.2c3.4,0,6.2,2.7,6.2,6.2S40.9,35.7,37.5,35.7z"/>
<linearGradient id="SVGID_9_" gradientUnits="userSpaceOnUse" x1="32.1534" y1="-607.3266" x2="36.2789" y2="-607.3266" gradientTransform="matrix(1.0039 0 0 -1.0039 3.1325 -580.1952)">
	<stop  offset="0" style="stop-color:#D4F7FF"/>
	<stop  offset="1" style="stop-color:#A2E3E9"/>
</linearGradient>
<circle class="st13" cx="37.5" cy="29.5" r="2.1"/>
<path class="st3" d="M34.9,15.4l-5.4,4.7h-6.6l1.3-2.4c0.3-0.6,1.3-0.8,2-0.5c0.4,0.2,0.9,0.2,1.4,0l2-1c1-0.5,2.3-0.8,3.4-0.8
	L34.9,15.4z"/>
<path class="st2" d="M45,15c-0.3,0.7-1,1.3-1.9,1.3c-2.8,0.1-9.7,1-14.6,7.6c-0.3,0.5-1,0.5-1.5,0.1l-2.5-2.7c-0.4-0.4-0.4-1,0-1.5
	l0.4-0.4c0.3-0.3,0.7-0.3,0.9,0c0.6,0.6,1.8,0.7,2.5,0.2l4.9-3.8c1.6-1.1,3.3-1.8,5.3-1.8h6.1C44.9,14.2,45.3,14.7,45,15L45,15z"/>
<path class="st0" d="M10.5,27.9c-0.2-0.1-0.3-0.4-0.2-0.6l3.4-6.1c0.1-0.2,0.4-0.3,0.6-0.2c0.2,0.1,0.3,0.4,0.2,0.6l-3.4,6.1
	C11,27.9,10.7,28,10.5,27.9z"/>
<path class="st3" d="M9.2,30c-0.3-0.2-0.4-0.6-0.2-0.9l2.4-4.3c0.2-0.3,0.6-0.4,0.9-0.2c0.3,0.2,0.4,0.6,0.2,0.9l-2.4,4.3
	C10.1,30.1,9.6,30.2,9.2,30L9.2,30z"/>
<path class="st0" d="M14,21.8c-0.3-0.2-0.4-0.6-0.2-0.9l5.7-9.9c0.3-0.4,0.7-0.5,1-0.3s0.4,0.6,0.2,0.9L15,21.5
	C14.8,21.8,14.4,22,14,21.8L14,21.8z"/>
<circle class="st14" cx="20.7" cy="10.8" r="1.3"/>
<path class="st3" d="M23.5,12.6l-2.8-0.9c-0.4-0.1-0.6-0.6-0.5-1s0.6-0.6,1-0.5l2.8,0.9c0.4,0.1,0.6,0.6,0.5,1
	C24.5,12.6,24,12.8,23.5,12.6z"/>
<path class="st15" d="M23.5,12.6h0.1c-0.4-0.1-0.6-0.6-0.5-1s0.6-0.6,1-0.5H24c0.4,0.1,0.6,0.6,0.5,1C24.5,12.6,24,12.8,23.5,12.6
	L23.5,12.6z"/>
<path class="st3" d="M37.7,31.5H23.4c-1,0-2-0.8-2-2c0-1,0.8-2,2-2h14.3c1,0,2,0.8,2,2C39.6,30.5,38.8,31.5,37.7,31.5z"/>
<path class="st4" d="M23.4,31c-0.8,0-1.5-0.6-1.5-1.5s0.6-1.5,1.5-1.5h14.3c0.8,0,1.5,0.6,1.5,1.5S38.6,31,37.7,31H23.4z"/>
<path class="st3" d="M22.8,33.2c-1,0-2.1-0.2-3-0.6l-0.6-0.3c-0.3-0.1-0.5-0.5-0.4-0.9c0.1-0.3,0.5-0.5,0.9-0.4l0.6,0.3
	c1.8,0.7,3.8,0.6,5.4-0.2l1.4-0.7c0.3-0.2,0.7,0,0.9,0.3c0.2,0.3,0,0.7-0.3,0.9l-1.4,0.7C25.3,32.9,24.1,33.2,22.8,33.2L22.8,33.2z"
	/>
<path class="st3" d="M19.4,32.4c-0.1,0-0.3,0-0.4-0.1c-0.3-0.2-0.4-0.6-0.2-0.9l0.8-1.1c0.2-0.3,0.2-0.7,0-1l-1.7-2.5
	c-0.2-0.3-0.1-0.7,0.2-0.9c0.3-0.2,0.7-0.1,0.9,0.2l1.7,2.5c0.5,0.8,0.5,1.9,0,2.6l-0.8,1.1C19.8,32.3,19.6,32.4,19.4,32.4
	L19.4,32.4z"/>
<path class="st3" d="M22.5,24.8l-2.8,2.8c-0.2,0.2-0.5,0.2-0.7,0s-0.2-0.5,0-0.7l2.8-2.8c0.2-0.2,0.5-0.2,0.7,0S22.7,24.6,22.5,24.8
	z"/>
<path class="st3" d="M23.2,25.6l-2.8,2.8c-0.2,0.2-0.5,0.2-0.7,0s-0.2-0.5,0-0.7l2.8-2.8c0.2-0.2,0.5-0.2,0.7,0
	C23.4,25,23.4,25.4,23.2,25.6z"/>
<path class="st3" d="M24.1,26.4l-2.8,2.8c-0.2,0.2-0.5,0.2-0.7,0s-0.2-0.5,0-0.7l2.8-2.8c0.2-0.2,0.5-0.2,0.7,0
	C24.3,25.8,24.3,26.2,24.1,26.4z"/>
<path class="st16" d="M22.5,24.1L22.5,24.1c0.2,0.2,0.2,0.5,0,0.7l-0.7,0.8c-0.2,0.2-0.5,0.2-0.7,0l0,0c-0.2-0.2-0.2-0.5,0-0.7
	l0.7-0.7C22,23.9,22.3,23.9,22.5,24.1z"/>
<path class="st16" d="M23.2,24.8L23.2,24.8c0.2,0.2,0.2,0.5,0,0.7l-0.7,0.8c-0.2,0.2-0.5,0.2-0.7,0l0,0c-0.2-0.2-0.2-0.5,0-0.7
	l0.7-0.7C22.7,24.6,23,24.6,23.2,24.8z"/>
<path class="st16" d="M24.1,25.6L24.1,25.6c0.2,0.2,0.2,0.5,0,0.7L23.4,27c-0.2,0.2-0.5,0.2-0.7,0l0,0c-0.2-0.2-0.2-0.5,0-0.7
	l0.7-0.7C23.4,25.4,23.9,25.4,24.1,25.6z"/>
<path class="st2" d="M25.4,26.6h-2c-1.4,0-2.5,1.1-2.5,2.5s1.1,2.4,2.4,2.4c0.7,0,1.3-0.3,1.8-0.7c0.4-0.4,1-0.8,1.7-0.9
	c0.4-0.1,0.7-0.5,0.7-0.9C27.6,27.5,26.6,26.6,25.4,26.6L25.4,26.6z"/>
<circle class="st3" cx="23.4" cy="29" r="1.9"/>
<circle class="st3" cx="37.5" cy="29.5" r="1"/>
<path class="st2" d="M25.1,18.9l-2.4-2.4c-1.1-1.1-2.9-1.3-4.3-0.4l-3.5,2.4c-0.4,0.3-0.6,0.7-0.5,1.3c0.2,1.1,0.8,3.1,2.8,5.2
	c0.1,0.2,0.4,0.2,0.5,0c0.5-0.5,1.8-1.6,3.8-1.7c0.1,0,0.2-0.1,0.2-0.2c0-0.7-0.6-1.5-1.5-1.5h-2.3c-0.1,0-0.2-0.2-0.1-0.2l1.5-1
	c0.7-0.5,1.7-0.4,2.3,0.2c0.7,0.7,2,0.7,2.6-0.1l0.7-0.8C25.3,19.5,25.2,19.2,25.1,18.9L25.1,18.9z"/>
</svg>
