<?xml version="1.0" encoding="utf-8"?>
<!-- Generator: Adobe Illustrator 23.1.0, SVG Export Plug-In . SVG Version: 6.00 Build 0)  -->
<svg version="1.1" id="icons" xmlns="http://www.w3.org/2000/svg" xmlns:xlink="http://www.w3.org/1999/xlink" x="0px" y="0px"
	 viewBox="0 0 47 47" style="enable-background:new 0 0 47 47;" xml:space="preserve">
<style type="text/css">
	.st0{fill:#31313D;}
</style>
<title>MusicPlaying</title>
<path id="music" class="st0" d="M39,34.5L39,34.5L38.9,6.3l0,0V5.8L17.2,8.5v3.3l0.1,21.7c-1.3-1.2-2.9-1.8-4.7-1.8
	c-3.4,0-6.1,2.3-6.1,5.2S9.2,42,12.6,42s6.1-2.1,6.2-5.1l0,0l0,0l0,0l0,0l-0.1-22l18.6-2.5L37.5,31c-1.3-1.2-2.9-1.8-4.7-1.8
	c-3.4,0-6.2,2.3-6.2,5.2s2.8,5.2,6.2,5.2s6.1-2.2,6.2-5l0,0V34.5z M18.7,13.2v-1.5l18.6-2.4v1.4L18.7,13.2z"/>
</svg>
