<?xml version="1.0" encoding="utf-8"?>
<!-- Generator: Adobe Illustrator 23.1.0, SVG Export Plug-In . SVG Version: 6.00 Build 0)  -->
<svg version="1.1" id="icons" xmlns="http://www.w3.org/2000/svg" xmlns:xlink="http://www.w3.org/1999/xlink" x="0px" y="0px"
	 viewBox="0 0 47 47" style="enable-background:new 0 0 47 47;" xml:space="preserve">
<style type="text/css">
	.st0{fill:#F2F5F7;}
	.st1{fill:#C8C9CC;}
	.st2{fill:#D8372B;}
	.st3{fill:#FFFFFF;}
</style>
<title>Nursing</title>
<path class="st0" d="M2.2,19.9l4.9,12.6h32.8l4.9-12.6c0.3-0.9-0.1-1.8-1-2.1l0,0c-13-5-27.5-5-40.5,0C2.3,18,1.9,18.9,2.2,19.9
	L2.2,19.9z"/>
<rect x="7.1" y="32.5" class="st1" width="32.8" height="1.9"/>
<path class="st2" d="M30.4,22.9c0.5,3.8-2.1,7.2-6,7.7c-3.8,0.5-7.2-2.1-7.7-6c-0.5-3.8,2.1-7.2,6-7.7c0.6-0.1,1.2-0.1,1.8,0
	C27.4,17.3,29.9,19.8,30.4,22.9z"/>
<polygon class="st3" points="28.2,21.9 25.3,21.9 25.3,18.9 21.6,18.9 21.6,21.9 18.7,21.9 18.7,25.6 21.6,25.6 21.6,28.5 
	25.3,28.5 25.3,25.6 28.2,25.6 "/>
</svg>
