<?xml version="1.0" encoding="utf-8"?>
<!-- Generator: Adobe Illustrator 23.1.0, SVG Export Plug-In . SVG Version: 6.00 Build 0)  -->
<svg version="1.1" id="icons" xmlns="http://www.w3.org/2000/svg" xmlns:xlink="http://www.w3.org/1999/xlink" x="0px" y="0px"
	 viewBox="0 0 47 47" style="enable-background:new 0 0 47 47;" xml:space="preserve">
<style type="text/css">
	.st0{fill:#FFFFFF;}
	.st1{opacity:8.000000e-02;fill:#051016;enable-background:new    ;}
	.st2{fill:#FF4545;}
	.st3{fill:#2F7AA5;}
	.st4{fill:#004A74;}
	.st5{opacity:0.31;fill:#051016;enable-background:new    ;}
	.st6{fill:none;stroke:#004A74;stroke-miterlimit:10;}
</style>
<title>Orienteering</title>
<circle class="st0" cx="23.1" cy="24.8" r="17.3"/>
<path class="st0" d="M23.9,25.6c-0.4,0.4-1.1,0.4-1.5,0s-0.4-1.1,0-1.5s1.1-0.4,1.5,0S24.3,25.2,23.9,25.6z"/>
<circle class="st0" cx="23.1" cy="23.9" r="18.1"/>
<path class="st1" d="M23.2,5.9C13.2,5.9,5.1,14,5.1,24s8.1,18.1,18.1,18.1S41.3,34,41.3,24C41.3,14,33.2,5.9,23.2,5.9L23.2,5.9z
	 M23.2,40.8c-9.3,0-16.9-7.5-16.9-16.8S13.8,7.1,23.1,7.1S40,14.6,40,23.9c0,0,0,0,0,0.1C40,33.2,32.5,40.7,23.2,40.8L23.2,40.8z"/>
<path class="st2" d="M25.2,23.9h0.2l3-5l0,0l0.1-0.2l-5.3,3.1l-5.1-3l0,0l-0.2-0.2l3.3,5.3H21l-1.9,3.3l-1.2,2l5.3-3.1l5.1,3l0,0
	l0.2,0.1L25.2,23.9z"/>
<polygon class="st3" points="36.2,23.9 23.2,27.3 10.2,23.9 23.2,20.5 "/>
<path class="st4" d="M23.2,23.9H10.8c-0.1,0-0.1-0.1,0-0.1l9.8-2.6L23.2,23.9z"/>
<path class="st4" d="M23.2,23.9h12.6 M35.8,24.1l-9.9,2.6L35.8,24.1z"/>
<polyline class="st3" points="25.9,21.3 23.2,10.9 20.5,21.3 23.2,23.9 25.9,21.3 "/>
<polyline class="st3" points="20.5,26.6 23.2,36.9 25.9,26.6 23.2,23.9 20.5,26.6 "/>
<path class="st4" d="M23.2,23.9v12.3l-0.1,0.1c0,0,0,0-0.1-0.1l-2.5-9.6L23.2,23.9z"/>
<path class="st4" d="M23.2,23.9V11.4 M23.3,11.4l2.6,9.9L23.3,11.4z"/>
<path class="st4" d="M23.2,3.2c-11.4,0-20.7,9.3-20.7,20.7s9.3,20.7,20.7,20.7s20.7-9.3,20.7-20.7S34.7,3.2,23.2,3.2L23.2,3.2z
	 M23.2,42c-10,0.2-18.3-7.7-18.5-17.7C4.5,14.4,12.4,6.1,22.4,5.9l0,0l0.9,1.6l0.9-1.6c10,0.4,17.8,8.7,17.4,18.7
	C41.1,34.4,33,42.1,23.2,42L23.2,42z"/>
<path class="st5" d="M23.2,4.8C12.6,4.8,4,13.4,4,24s8.6,19.2,19.2,19.2s19.2-8.7,19.2-19.3S33.8,4.8,23.2,4.8L23.2,4.8z M23.2,42
	c-10,0.2-18.3-7.7-18.5-17.7C4.5,14.4,12.4,6.1,22.4,5.9l0,0l0.9,1.6l0.9-1.6c10,0.4,17.8,8.7,17.4,18.7C41.1,34.4,33,42.1,23.2,42
	L23.2,42z"/>
<line class="st6" x1="14.5" y1="8.8" x2="15.6" y2="10.8"/>
<line class="st6" x1="8.1" y1="15.2" x2="10.1" y2="16.4"/>
<line class="st6" x1="5.7" y1="23.9" x2="8" y2="23.9"/>
<line class="st6" x1="8.1" y1="32.7" x2="10.1" y2="31.5"/>
<line class="st6" x1="14.5" y1="39.1" x2="15.6" y2="37.1"/>
<line class="st6" x1="23.2" y1="41.5" x2="23.2" y2="39.1"/>
<line class="st6" x1="32" y1="39.1" x2="30.8" y2="37.1"/>
<line class="st6" x1="38.4" y1="32.7" x2="36.4" y2="31.5"/>
<line class="st6" x1="40.7" y1="23.9" x2="38.4" y2="23.9"/>
<line class="st6" x1="38.4" y1="15.2" x2="36.4" y2="16.4"/>
<line class="st6" x1="32" y1="8.8" x2="30.8" y2="10.8"/>
</svg>
