<?xml version="1.0" encoding="utf-8"?>
<!-- Generator: Adobe Illustrator 23.1.0, SVG Export Plug-In . SVG Version: 6.00 Build 0)  -->
<svg version="1.1" id="icons" xmlns="http://www.w3.org/2000/svg" xmlns:xlink="http://www.w3.org/1999/xlink" x="0px" y="0px"
	 viewBox="0 0 47 47" style="enable-background:new 0 0 47 47;" xml:space="preserve">
<style type="text/css">
	.st0{fill:#4B6975;}
	.st1{fill:#608796;}
	.st2{fill:none;stroke:#608796;stroke-width:1.96;stroke-miterlimit:10;}
	.st3{fill:#FF2626;}
	.st4{fill:#FFFFFF;}
	.st5{fill:#FFD119;}
	.st6{fill:#DBDBDB;}
</style>
<title>P90x</title>
<g id="Insanity">
	<rect x="13.5" y="12.6" transform="matrix(0.8618 -0.5072 0.5072 0.8618 -5.5075 9.3548)" class="st0" width="1.8" height="4.4"/>
	<path class="st1" d="M12.5,11.9l0.5-0.3c0.4-0.2,1-0.1,1.2,0.3L16,15l0,0l-1.9,1.2l0,0l-1.8-3.1C11.9,12.7,12,12.2,12.5,11.9z"/>
	<rect x="30.4" y="14" transform="matrix(0.5072 -0.8618 0.8618 0.5072 3.2412 35.4333)" class="st0" width="4.4" height="1.8"/>
	<path class="st1" d="M33.1,16.2L31.2,15l0,0l1.8-3.1c0.2-0.4,0.8-0.5,1.2-0.3l0.5,0.3c0.4,0.2,0.5,0.8,0.3,1.2L33.1,16.2L33.1,16.2
		z"/>
	<circle class="st2" cx="23.5" cy="7.1" r="5.7"/>
	<rect x="21.7" y="10.5" class="st0" width="3.6" height="4.6"/>
	<circle class="st3" cx="23.5" cy="29.7" r="15.9"/>
	<circle class="st4" cx="23.5" cy="29.7" r="13.2"/>
	<path class="st5" d="M31.9,24.6l1.6-1c-1-1.6-2.3-2.9-3.9-3.8l-1,1.6C29.9,22.2,31,23.3,31.9,24.6z"/>
	<path class="st5" d="M28.1,21l1-1.6c-1.6-0.9-3.4-1.3-5.3-1.4v1.8C25.3,20,26.8,20.4,28.1,21z"/>
	<path class="st5" d="M33.4,29.4h1.8c-0.1-1.8-0.5-3.5-1.4-5.1l-1.6,1C32.8,26.4,33.3,27.9,33.4,29.4z"/>
	<path class="st5" d="M33.4,30c0,1.5-0.4,2.9-1.2,4.3l1.6,1c0.9-1.6,1.3-3.3,1.4-5.1h-1.8V30z"/>
	<path class="st5" d="M15.2,34.9l-1.6,1c1,1.5,2.3,2.8,3.8,3.8l1-1.6C17.1,37.2,16,36.1,15.2,34.9z"/>
	<path class="st5" d="M23.8,39.5v1.8c1.8,0,3.6-0.5,5.1-1.4l-1-1.6C26.8,39,25.3,39.5,23.8,39.5z"/>
	<path class="st5" d="M28.8,38.1l1,1.6c1.5-1,2.9-2.3,3.8-3.8l-1.6-1C31,36.1,29.9,37.2,28.8,38.1z"/>
	<path class="st5" d="M13.7,30h-1.8c0,1.8,0.5,3.5,1.4,5.1l1.6-1C14.2,32.9,13.9,31.5,13.7,30z"/>
	<path class="st5" d="M18.9,38.4l-1,1.6c1.6,0.9,3.3,1.4,5.1,1.4v-1.8C21.7,39.5,20.2,39,18.9,38.4z"/>
	<path class="st6" d="M14.9,25.1l-1.6-1c-0.9,1.6-1.3,3.3-1.4,5.1h1.8C13.9,27.9,14.2,26.4,14.9,25.1z"/>
	<path class="st6" d="M18.4,21.5l-1-1.6c-1.5,1-2.8,2.3-3.8,3.8l1.6,1C16,23.3,17.1,22.2,18.4,21.5z"/>
	<path class="st6" d="M23.2,20v-1.8c-1.8,0.1-3.5,0.5-5.1,1.4l1,1.6C20.3,20.4,21.7,20.1,23.2,20z"/>
	<path class="st1" d="M20.9,8.2h5.4c0.5,0,1.1,0.4,1.1,1.1V10c0,0.5-0.4,1.1-1.1,1.1h-5.4c-0.5,0-1.1-0.4-1.1-1.1V9.2
		C19.9,8.6,20.3,8.2,20.9,8.2z"/>
	<path class="st1" d="M23.5,27.4c-1.7,0-3-1.3-3-3c0-1.7,1.3-3,3-3c1.7,0,3,1.3,3,3l0,0C26.5,26,25.2,27.4,23.5,27.4z M23.5,21.8
		c-1.4,0-2.5,1.2-2.5,2.6c0,1.4,1.2,2.5,2.6,2.5s2.5-1.2,2.5-2.6C26.1,23,24.9,21.8,23.5,21.8L23.5,21.8L23.5,21.8z"/>
	<polygon class="st0" points="23.5,22.2 23.7,24.8 23.4,24.8 	"/>
	<path class="st0" d="M23.6,30.6c0.3,0,0.6-0.2,0.8-0.5l8.6-0.6h-8.6c-0.1-0.3-0.4-0.4-0.8-0.4c-0.3,0-0.5,0.2-0.6,0.4h-1.6v1
		l1.5-0.1C23,30.5,23.3,30.6,23.6,30.6z M23.4,30.1c-0.2-0.1-0.3-0.2-0.3-0.4s0.1-0.3,0.2-0.4c0.1,0,0.1,0,0.2-0.1
		c0.1,0,0.1,0,0.2,0.1c0.1,0.1,0.2,0.2,0.2,0.3c0,0.1-0.1,0.3-0.2,0.4c-0.1,0-0.1,0.1-0.2,0.1C23.5,30.1,23.4,30.1,23.4,30.1z"/>
</g>
</svg>
