<?xml version="1.0" encoding="utf-8"?>
<!-- Generator: Adobe Illustrator 23.1.0, SVG Export Plug-In . SVG Version: 6.00 Build 0)  -->
<svg version="1.1" id="icons" xmlns="http://www.w3.org/2000/svg" xmlns:xlink="http://www.w3.org/1999/xlink" x="0px" y="0px"
	 viewBox="0 0 47 47" style="enable-background:new 0 0 47 47;" xml:space="preserve">
<style type="text/css">
	.st0{fill:#FF8400;}
</style>
<title>Paddleball</title>
<g id="Paddleball">
	<path class="st0" d="M41.4,5.2C38.6,2.5,34.7,1,30.8,1.4c-4.3,0.4-8.3,2.4-11.3,5.6c-5.8,5.7-6.2,11.3-6.7,16.1
		C12.4,27.1,12,30.6,9,33.7l-5,4.9c-0.2,0-0.5,0.1-0.6,0.3l-2.2,2.2c-0.2,0.2-0.3,0.4-0.3,0.7c0,0.3,0.1,0.5,0.3,0.7l2.5,2.5
		c0.2,0.2,0.4,0.3,0.7,0.3s0.5-0.1,0.7-0.3L7.3,43c0.2-0.1,0.3-0.4,0.3-0.6l4.9-4.9c3.1-3.1,6.6-3.4,10.6-3.7
		c4.9-0.3,10.4-0.7,16.5-6.6c3.1-2.9,5.1-7,5.4-11.3C45.6,11.8,44.1,8,41.4,5.2z M43.6,15.6c-0.4,3.9-2.2,7.5-5,10.3
		C33,31.4,28,31.7,23.1,32.1c-4.2,0.3-8.1,0.5-11.6,4.1l-5.3,5.3C6.1,41.6,6,41.8,6,42.1l-1.5,1.5l-1.7-1.7l1.5-1.5
		c0.2,0,0.4-0.1,0.6-0.2l5.2-5.2c3.5-3.5,3.9-7.4,4.3-11.6c0.4-4.8,0.9-9.9,6.2-15.2c2.7-2.8,6.4-4.6,10.3-5
		c6.4-0.6,12.1,4,12.7,10.4C43.7,14.1,43.7,15,43.6,15.6L43.6,15.6z"/>
	<path class="st0" d="M30.7,4.6C27.2,4.9,24,6.5,21.6,9c-2.6,2.4-4.3,5.8-4.7,9.3c-0.4,5.8,4,10.9,9.7,11.3c0.3,0,0.5,0,0.8,0h0.7
		c3.6-0.4,6.9-2.1,9.3-4.7c2.5-2.4,4.1-5.7,4.4-9.1C42.4,10,38.2,5,32.5,4.5C32,4.5,31.3,4.5,30.7,4.6L30.7,4.6z M40.3,14.2l-2-2
		l1.2-1.2C40,12.1,40.3,13.2,40.3,14.2z M37,23.3l-1.8-1.8l0.9-0.9l0.9-0.9l1.5,1.5C38.1,21.8,37.6,22.5,37,23.3L37,23.3z
		 M39.1,15.3l-0.9,0.9l-0.9,0.9l-0.9-0.8l-0.9-0.9l0.9-0.9l0.9-0.9l0.9,0.9L39.1,15.3z M28,20.4l-1.9-1.9l0.9-0.9l0.9-0.9l0.9,0.9
		l0.9,0.9l-0.9,0.9L28,20.4z M34.3,10.5l1.9,1.9l-0.9,0.9l-1,0.9l-0.9-0.9l-0.9-0.9l0.9-0.9L34.3,10.5z M30,12.4L29,13.3l-0.9,0.9
		l-1.9-1.9l2-2l0.9,0.9L30,12.4z M31.1,17.3l-0.9-0.9l-0.9-0.9l0.9-0.9l0.9-0.9l0.9,0.9l0.9,0.9l-0.9,0.9L31.1,17.3z M31.2,7.3
		l1.9,1.9l-0.9,0.9l-0.9,0.9l-0.9-0.9l-0.9-0.9l0.9-0.9L31.2,7.3z M25,13.5l1.9,1.9L26,16.3l-1,1L23,15.5l0.9-0.9L25,13.5z M20,18.5
		l0.9-0.9l0.9-0.9l1.9,1.9l-0.9,0.9l-0.9,0.9l-0.9-0.9L20,18.5z M23,21.6l0.9-0.9l0.9-0.9l1.9,1.9l-0.9,0.9l-0.9,0.9L24,22.5
		L23,21.6z M27.9,26.4L26,24.6l0.9-0.9l0.9-0.9l0.9,0.9l0.9,0.9l-0.9,0.9L27.9,26.4z M31,23.4l-0.9-0.9l-0.9-0.9l0.9-0.9l0.9-0.9
		l1.9,1.9L32,22.4L31,23.4z M34,20.2l-1.9-1.8l0.9-0.9l0.9-0.9l0.9,0.9l0.9,0.9L35,19.4L34,20.2z M34.3,8.1l-1.9-1.9
		c1,0.1,2.1,0.3,3,0.7L34.3,8.1z M28.2,8.2l-1-0.9c0.9-0.4,1.9-0.7,2.9-0.8L28.2,8.2z M25.6,7.8l1.4,1.4l-2,2l-1.6-1.6
		C24.1,9,24.8,8.4,25.6,7.8L25.6,7.8z M22.2,10.7l1.7,1.7l-0.9,0.9L22,14.2l-1.5-1.5C21.1,12.1,21.6,11.4,22.2,10.7z M19.7,14.3
		l1.2,1.2l-2.2,2.2C18.9,16.5,19.2,15.4,19.7,14.3z M31,25.7l1.3,1.2c-1,0.5-2.3,0.9-3.5,1L31,25.7z M33.6,26.1l-1.5-1.5l0.9-0.9
		l0.9-0.9l1.8,1.8C35.2,24.9,34.5,25.6,33.6,26.1z M39.4,19.5l-1.2-1.2l2-2C40.1,17.4,39.8,18.4,39.4,19.5z M38.7,9.6l-1.4,1.5
		l-1.9-1.9l1.4-1.5c0.4,0.3,0.7,0.5,1,0.9C38.1,9,38.4,9.3,38.7,9.6z M18.5,19.4l2.2,2.2l-1.4,1.4C18.9,21.8,18.5,20.6,18.5,19.4z
		 M20.2,24.4l1.6-1.6l1.9,1.9L22,26.4c-0.3-0.2-0.6-0.5-0.9-0.8C20.8,25.1,20.5,24.7,20.2,24.4z M23.5,27.1l1.4-1.4l2.3,2.3
		C25.9,28,24.6,27.7,23.5,27.1z"/>
</g>
</svg>
