<?xml version="1.0" encoding="utf-8"?>
<!-- Generator: Adobe Illustrator 23.1.0, SVG Export Plug-In . SVG Version: 6.00 Build 0)  -->
<svg version="1.1" id="icons" xmlns="http://www.w3.org/2000/svg" xmlns:xlink="http://www.w3.org/1999/xlink" x="0px" y="0px"
	 viewBox="0 0 47 47" style="enable-background:new 0 0 47 47;" xml:space="preserve">
<style type="text/css">
	.st0{fill:#FF9FAF;}
	.st1{fill:#040501;}
	.st2{fill:#FF102D;}
	.st3{fill:#FFD7E0;}
	.st4{fill:#E50027;}
	.st5{fill:#00A9BF;}
	.st6{fill:#FCAB8B;}
	.st7{fill:#EF9373;}
	.st8{fill:#11C3D1;}
	.st9{fill:#FFFFFF;}
	.st10{fill:#D3694C;}
</style>
<title>Paragliding</title>
<g id="Paragliding">
	<polygon class="st0" points="17,33.7 16.7,33.7 17.9,24.2 18,24.2 	"/>
	<path class="st0" d="M17.9,24.2c-4.2-3.8-12.3-10.9-12.5-11l0.1-0.1c0.2,0.1,8.5,7.5,11.6,10.1L6.9,11.8L7,11.7l11,12.4L17.9,24.2z
		"/>
	<polygon class="st0" points="17.9,24.2 9.4,10.7 9.5,10.7 17.5,23.3 11.7,9.9 11.8,9.8 18.1,24.1 	"/>
	<polygon class="st0" points="17.9,24.1 15.1,9.2 15.3,9.2 17.9,23.3 17.9,8.8 18.1,8.8 18.1,24.1 	"/>
	<path class="st1" d="M17.9,24.2c0,0,0.1,0.4,0.3,1.2c0.5,1.9,1.7,5.4,2,6.2c0.2,0.6,0.5,1.3,0.9,1.8c0,0-0.7-2.2-1.5-4.4
		S18,24.1,18,24.1L17.9,24.2z"/>
	<path class="st1" d="M21.1,33.5c-0.9-1.2-1.7-2.4-2.2-3.8c-0.6-1.8-0.9-3.7-0.9-5.6h0.2c0,1.9,0.3,3.7,0.9,5.5
		c0.5,1.4,1.3,2.5,2.2,3.7L21.1,33.5z"/>
	<polygon class="st0" points="28.7,33.9 28.8,33.8 28.1,24.4 27.9,24.4 	"/>
	<path class="st0" d="M28.1,24.4c4.2-3.8,12.3-10.9,12.5-11l-0.1-0.1c-0.2,0.1-8.5,7.5-11.6,10.1L39.3,12L39,11.9L28,24.2L28.1,24.4
		z"/>
	<polygon class="st0" points="28.1,24.3 36.7,10.9 36.6,10.8 28.5,23.4 34.4,10 34.3,10 28,24.3 	"/>
	<polygon class="st0" points="28.1,24.3 30.9,9.4 30.8,9.4 28.1,23.5 28.1,9 28,9 28,24.3 	"/>
	<path class="st1" d="M28.1,24.3l-0.3,1.2c-0.5,1.9-1.7,5.4-2,6.2c-0.2,0.6-0.5,1.3-0.8,1.8c0,0,0.7-2.2,1.5-4.5
		c0.7-2.3,1.6-4.8,1.6-4.8L28.1,24.3z"/>
	<path class="st1" d="M24.9,33.6l-0.1-0.1c0.9-1.2,1.7-2.4,2.2-3.8c0.6-1.8,0.9-3.6,0.9-5.5h0.2c0,1.9-0.4,3.8-0.9,5.6
		C26.6,31.1,25.9,32.4,24.9,33.6z"/>
	<path class="st2" d="M18.4,3c-9.3,0.6-12.9,8-14.1,10.7l0.3,0.2c1.2,0.8,1.7,0.3,2.6-0.3c0.7,0.1,1.5-0.3,1.8-1.1
		c0.7,0.2,1.6-0.1,1.9-0.8c0.7,0.2,1.5,0,1.9-0.6c0.7,0.1,1.5-0.1,2-0.6c0.8,0.2,1.7,0,2.2-0.6c0.8,0.3,1.8,0.2,2.4-0.4
		c0.7,0.5,1.8,0.4,2.5-0.1c0.6,0.5,1.6,0.4,2.2-0.1c0.4,0.7,2,0.8,2.6,0.3c0.6,0.5,1.6,0.6,2.4,0.3c0.5,0.6,1.6,0.8,2.4,0.5
		c0.6,0.7,1.6,1.1,2.5,0.7c0.2,0.7,1.4,0.9,2.1,0.7c0.3,0.8,1.4,1.3,2.2,0.9l0,0c0,0.6,0.5,1.2,1.2,1.2c0.2,0,0.3,0,0.5-0.1
		c1.3,0.9,1.9,0.4,2.5-0.3C37.6,2.2,30,2.1,18.4,3z"/>
	<path class="st3" d="M36.9,3.9c-6.2-3.4-16.5-4.1-23.2-1.6c-4.2,1.6-7.6,4.7-9.4,8.7c-0.6,1.3-0.4,2.1,0.1,2.6
		C7.2,7.8,13,3.8,19.4,3.2c9.5-0.9,19,0.4,23.2,10.2l0.2-0.2C43.5,12.4,43.1,7.3,36.9,3.9z"/>
	<path class="st2" d="M14,2.7c-1.9,0.7-3.7,1.8-5.3,3c-2.9,2.3-4.4,6.6-4.4,6.6c1.1-2,2.5-3.8,4.2-5.4s3.6-2.7,5.6-3.6
		C14.1,3.2,14,3,14,2.7z"/>
	<path class="st2" d="M32.5,2.5c1.9,0.6,3.8,1.6,5.4,2.8c3,2.2,4.7,6.4,4.7,6.4c-1.2-2-2.6-3.8-4.4-5.3c-1.7-1.5-3.7-2.5-5.8-3.3
		C32.4,3,32.4,2.7,32.5,2.5z"/>
	<path class="st2" d="M17.2,1.9v0.7c4.1-0.9,8.3-0.9,12.4,0.1V1.9c-2-0.5-4.1-0.7-6.1-0.7C21.3,1.3,19.2,1.5,17.2,1.9z"/>
	<path class="st4" d="M5.6,11.5c0.2,0.5,0.5,0.9,0.8,1.5c0.2,0.3,0.5,0.5,0.8,0.7l-1.2-1.8c-0.1-0.2-0.3-0.4-0.4-0.6L5.6,11.5z"/>
	<path class="st4" d="M6.9,9.8c0.3,0.6,0.7,1.3,1.2,1.8c0.3,0.4,0.6,0.7,1.1,0.9l-1.3-1.8c-0.3-0.4-0.5-0.8-0.7-1.3L6.9,9.8z"/>
	<path class="st4" d="M8.6,7.9c0,0,0.8,1.7,1.3,2.4c0.4,0.7,1.1,1.5,1.1,1.5s-0.7-1.6-1.3-2.5C9.2,8.3,8.9,7.7,8.9,7.7L8.6,7.9z"/>
	<path class="st4" d="M10.8,6.2c0.1,0.8,0.4,1.8,0.8,2.5c0.4,0.7,0.8,1.6,1.4,2.2c0,0-0.7-1.9-1.2-3c-0.4-1.2-0.6-2-0.6-2L10.8,6.2z
		"/>
	<path class="st4" d="M12.7,5.1c0,0,0.6,2.1,1.1,3.2c0.4,1.1,1.1,2.2,1.1,2.2S14.4,8.8,14,7.3c-0.2-0.8-0.5-1.6-0.8-2.4L12.7,5.1z"
		/>
	<path class="st4" d="M41.7,11.6c-0.2,0.4-0.5,0.8-0.8,1.3c-0.2,0.3-0.5,0.5-0.8,0.7c0,0,0.6-0.7,0.8-1.2c0.2-0.4,0.6-1.1,0.6-1.1
		L41.7,11.6z"/>
	<path class="st4" d="M40.6,9.9c-0.3,0.6-0.7,1.3-1.2,1.8c-0.3,0.4-0.6,0.7-1.1,0.9l1.3-1.9c0.3-0.4,0.5-0.8,0.7-1.3L40.6,9.9z"/>
	<path class="st4" d="M38.8,7.8c0,0-0.8,1.8-1.4,2.5c-0.4,0.5-0.8,1.1-1.3,1.5c0,0,0.9-1.6,1.5-2.5c0.5-0.9,0.8-1.7,0.8-1.7
		L38.8,7.8z"/>
	<path class="st4" d="M36.4,5.9c-0.1,0.9-0.4,1.9-0.8,2.7c-0.4,0.8-0.8,1.6-1.4,2.3c0,0,0.7-2,1.3-3.2c0.3-0.7,0.5-1.4,0.7-2.1
		L36.4,5.9z"/>
	<path class="st4" d="M33.8,4.5c0,0-0.6,2.4-1.1,3.5s-1.1,2.3-1.1,2.3s0.4-1.7,0.9-3.3c0.5-1.6,0.8-2.6,0.8-2.6L33.8,4.5z"/>
	<path class="st4" d="M15.4,4c0,0,0.4,1.5,0.7,2.6s0.9,3.2,0.9,3.2c-0.1-1.1-0.2-2.1-0.5-3.2c-0.5-2-0.6-2.8-0.6-2.8L15.4,4z"/>
	<path class="st4" d="M18.5,3.3c0,0,0.4,2.3,0.5,3.4s0.5,2.7,0.5,2.7c0.1-0.8,0.1-1.8,0-2.6c-0.1-1.2-0.2-2.4-0.4-3.6L18.5,3.3z"/>
	<path class="st4" d="M30.8,3.6c0,0-0.4,1.8-0.7,3s-0.9,3.2-0.9,3.2c0.1-1.1,0.2-2.1,0.5-3.2c0.5-1.9,0.7-3.2,0.7-3.2L30.8,3.6z"/>
	<path class="st4" d="M27.8,3.1l-0.5,3.6c-0.2,1.1-0.5,2.9-0.5,2.9c-0.1-0.9-0.1-1.9,0-2.8c0.1-1.8,0.5-3.7,0.4-3.7L27.8,3.1z"/>
	<path class="st4" d="M21.6,3c0,0,0.1,2.4,0.2,3.7C21.9,7.9,22,9.3,22,9.3c0.1-1.3,0.1-2.6,0.1-3.9C22,3.7,22,3,22,3S21.6,3,21.6,3z
		"/>
	<path class="st4" d="M24.1,2.9c0,0,0,1.3,0,2.8c0,1.3,0.1,3.5,0.1,3.5s0.3-2.4,0.3-3.7S24.6,3,24.6,3L24.1,2.9z"/>
	<path class="st1" d="M28.6,33.7c0,0-0.4,0.4-0.4,0.6c0,0.1,0.1,0.3,0.1,0.4c0,0,0.4,0,0.5-0.2C28.8,34.1,28.7,33.9,28.6,33.7z"/>
	<path class="st1" d="M20.4,30.2c0,0,0,2.1-0.1,2.9c-0.2,0.6,0.1,1.4,0.7,1.7c1.3,0.4,2.5,0.4,3.8-0.2c0.7-0.5,0.5-1.6,0.5-2.6
		c0-0.6,0-1.2-0.1-1.8L20.4,30.2z"/>
	<path class="st5" d="M18.8,38.1c-0.1,0,0.1,0.3,0.8,0.7c0.7,0.4,0.9,0.3,1.1,0.1C20.8,38.7,20.1,37.7,18.8,38.1z"/>
	<path class="st5" d="M25.4,38.9c0,0.1-0.5,0.3-1.1,0.4c-0.7,0.2-1.1,0.1-1.2-0.1S25.2,38.2,25.4,38.9z"/>
	<path class="st6" d="M28.5,34.8c0.1,0,0.2,0,0.3,0c0,0-0.1,0.1,0,0.2s0.1,0.1,0.1,0s0,0.1,0.1,0c0-0.1,0.1-0.2,0.1-0.3
		s0-0.2-0.2-0.3c-0.4-0.2-0.8-0.6-0.9-1.1c-0.3-0.6-0.6-1.3-1.1-1.8l-0.7-0.9l-1.2,0.7l1.1,1.1c0.2,0.2,0.8,1.1,1.4,1.6
		c0.5,0.5,0.4,0.5,0.5,0.7S28.4,34.8,28.5,34.8z"/>
	<path class="st7" d="M22.7,28.5c0.2,0,0.5-0.1,0.6-0.2c0,0-0.1-0.1-0.1-0.2c0-0.3,0-0.8,0-0.8L22,27.1c0,0.2,0,0.5,0,0.8
		c0,0.1,0,0.1,0,0.2C22.2,28.4,22.5,28.5,22.7,28.5z"/>
	<path class="st6" d="M21.5,28.8c0.3,0.4,0.7,0.6,1.3,0.7c0.5,0,0.9-0.3,1.3-0.7c-0.2-0.1-0.4-0.3-0.6-0.6c-0.2,0.1-0.4,0.2-0.6,0.2
		c-0.2,0-0.5-0.1-0.6-0.3C21.9,28.4,21.7,28.7,21.5,28.8z"/>
	<path class="st6" d="M22.8,28.1c-0.2,0-0.4-0.1-0.5-0.3c-0.2-0.2-0.3-0.4-0.4-0.6v-1.1c0-0.4,0.3-0.8,0.8-0.8H23
		c0.4,0,0.8,0.3,0.8,0.8v0.8c0,0.3-0.1,0.6-0.4,0.8C23.2,27.9,23,28.1,22.8,28.1z"/>
	<path class="st6" d="M22,26.6c0,0-0.2-0.3-0.3,0c-0.1,0.3,0,0.5,0.2,0.5C22.1,27.1,22,26.6,22,26.6z"/>
	<path class="st6" d="M23.6,26.6c0,0,0.2-0.3,0.3,0c0.1,0.3,0,0.5-0.2,0.5S23.6,26.6,23.6,26.6z"/>
	<path class="st6" d="M20.2,39.1c0.2-0.3,0.4-0.6,0.6-0.9c-0.1-0.1-0.1-0.2-0.2-0.3c-0.3-0.3-0.8-0.5-1.3-0.4c0,0.1-0.5,0.8-0.6,1.2
		c-0.1,0.3-0.1,0.6,0.1,1.2c0.2,0.6,0.4,1.4,0.5,2.1c0,0.2,0,0.3,0,0.5c0.2,0.1,0.3,0.1,0.5,0.2c0.2,0,0.3-0.1,0.4-0.2
		c0.1-0.6,0.1-1.3,0.1-1.9C20.5,40,20.4,39.6,20.2,39.1z"/>
	<path class="st6" d="M25.1,38.9c0-0.2-0.1-0.3-0.2-0.5c-0.5-0.2-1.1-0.1-1.5,0.3c0,0.5,0.1,1.1,0.3,1.6c-0.3,0.3-0.5,0.6-0.6,1.1
		c-0.2,0.6-0.4,1.2-0.5,1.8c0.1,0.2,0.2,0.3,0.3,0.3c0.2,0.1,0.4,0.1,0.5,0c0-0.2,0.1-0.3,0.2-0.5c0.4-0.6,0.7-1.2,1.3-1.7
		c0.4-0.4,0.5-0.6,0.5-1.1C25.4,39.8,25.1,38.9,25.1,38.9z"/>
	<path class="st1" d="M23,37.9c-0.5,0.1-0.9,0-1.4-0.4l-0.1,0.2c0.2,0.2,0.4,0.3,0.6,0.3c0.3,0.1,0.6,0.1,0.9,0
		C23,38,23,37.9,23,37.9z"/>
	<path class="st8" d="M24.5,38.2c-0.3-0.1-0.6-0.3-0.9-1.4c-0.3-1.1-0.5-2.4-0.5-2.4h1.5c0-0.1,0-0.2,0-0.2l-3.4-0.4l0,0l1.3,0.3
		c0,0-0.5,1.3-1.1,2.2c-0.5,0.9-0.8,1.1-1.2,1.1s-0.6,0-0.8,0c-0.1,0.2-0.2,0.4-0.3,0.6c0.7,0,1.5,0.3,1.9,0.8c0,0,0.8-1.1,1.1-1.5
		c0.2-0.4,0.6-1.4,0.6-1.4c0,0.6,0.1,1.2,0.2,1.8c0.1,0.4,0.2,0.9,0.4,1.4c0.6-0.4,1.5-0.5,2.1-0.2c0-0.2,0-0.2-0.1-0.5
		C25.1,38.3,24.8,38.3,24.5,38.2z"/>
	<path class="st5" d="M20.1,37.5c0.3-0.1,0.6-0.1,1.2-1.1c0.5-0.9,1.1-2.2,1.1-2.2l-1.3-0.3c-0.1,0.2-0.8,1.5-1.2,2.3
		c-0.2,0.3-0.4,0.9-0.7,1.4C19.5,37.6,19.8,37.6,20.1,37.5z"/>
	<path class="st5" d="M23.6,36.8c0.3,1.1,0.6,1.3,0.9,1.4c0.2,0.1,0.5,0.1,0.7,0.2c-0.1-0.7-0.1-1.5-0.2-1.7
		c-0.2-1.1-0.4-1.9-0.5-2.2h-1.5C23.2,34.4,23.4,35.7,23.6,36.8z"/>
	<path class="st1" d="M21.9,26.7c0.1-0.1,0.1-0.1,0.1-0.2c0-0.2,0.1-0.4,0.2-0.5c0.3-0.2,0.7-0.2,1.2,0c0.1,0.1,0.2,0.3,0.2,0.5
		c0,0.1,0,0.2,0.1,0.3c0,0,0.1-0.8,0.1-1.2c0-0.2-0.1-0.4-0.3-0.4c-0.2-0.1-0.3,0-0.6-0.2c-0.3-0.2-0.4,0-0.5,0.1
		c-0.1,0.1,0,0.1-0.3,0.1c-0.3,0-0.2,0.2-0.2,0.3C21.8,26,21.8,26.3,21.9,26.7z"/>
	<path class="st2" d="M25.7,29.6c-0.3-0.5-0.8-0.8-1.4-0.8H24h-0.1l0,0h-0.1c-0.1,0.3-0.2,0.7-1.1,0.7c-0.5,0-0.7-0.5-0.7-0.7h-0.2
		h-0.5c-0.4,0-0.8,0.3-1.1,0.7c-0.3,0.5-0.9,1.4-0.9,1.4c0.3,0.4,0.6,0.7,1.2,0.9c0.3-0.2,0.5-0.5,0.6-0.9c0,0.4,0.1,0.8,0.2,1.3
		c0.1,0.4,0.1,0.8,0.1,1.4c0,0.3-0.1,0.5-0.2,0.8c1.1,0.7,2.4,0.8,3.7,0.4c-0.3-0.3-0.3-0.6-0.3-0.9c0-0.5,0.1-1.5,0.2-2
		c0.1-0.5,0-0.8,0-1.2c0.1,0.4,0.3,0.7,0.6,1.1c0.4-0.3,0.8-0.6,1.2-1.1C26.5,30.7,26,30.1,25.7,29.6z"/>
	<path class="st9" d="M21.9,28.5c-0.1,0.1-0.1,0.1-0.2,0.1c0,0.2,0.1,0.4,0.3,0.5c0.3,0.3,0.8,0.4,1.4,0.3c0.4-0.2,0.5-0.8,0.5-0.8
		h-0.1c0,0.2-0.2,0.4-0.3,0.5c-0.3,0.2-0.7,0.1-1.2-0.1C22.1,28.9,21.9,28.7,21.9,28.5z"/>
	<path class="st10" d="M22.5,26.5c-0.1-0.1-0.2-0.1-0.3,0l0,0c0,0,0,0.1,0,0C22.3,26.6,22.4,26.5,22.5,26.5
		C22.5,26.6,22.5,26.6,22.5,26.5z"/>
	<path class="st10" d="M23.1,26.5c0.1-0.1,0.2-0.1,0.3,0l0,0c0,0,0,0.1,0,0C23.3,26.6,23.2,26.5,23.1,26.5
		C23.1,26.6,23,26.6,23.1,26.5z"/>
	<path class="st1" d="M22.6,26.3c-0.1-0.1-0.2-0.1-0.3-0.1c-0.1,0-0.2,0.1-0.2,0.2l0,0C22.2,26.3,22.4,26.2,22.6,26.3
		C22.7,26.5,22.6,26.3,22.6,26.3z"/>
	<path class="st1" d="M23,26.3c0.1-0.1,0.2-0.1,0.3-0.1c0.1,0,0.2,0.1,0.2,0.2l0,0C23.5,26.4,23.2,26.2,23,26.3
		C22.8,26.5,23,26.3,23,26.3z"/>
	<path class="st7" d="M21.9,26.6v0.3c0,0-0.1,0-0.1-0.2S21.9,26.6,21.9,26.6z"/>
	<path class="st7" d="M23.7,26.6v0.3c0,0,0.1,0,0.1-0.2S23.7,26.6,23.7,26.6z"/>
	<path class="st1" d="M21,34l-0.1,0.3c0.3,0.3,0.7,0.6,1.1,0.9c0.2,0.3,0.4,0.6,0.5,1.1l0.1-0.2c-0.2-0.4-0.4-0.8-0.6-1.3
		C21.7,34.5,21.4,34.2,21,34z"/>
	<path class="st1" d="M24.4,34.1l0.1,0.3c-0.4,0.2-0.8,0.4-1.2,0.8c-0.3,0.4-0.8,1.3-0.8,1.3v-0.2c0.2-0.4,0.4-0.8,0.7-1.3
		C23.6,34.5,24,34.2,24.4,34.1z"/>
	<path class="st1" d="M21.2,33v0.5c0.5,0.2,1.1,0.3,1.7,0.3c0.6,0,1.2-0.1,1.8-0.2l0.1-0.4c-0.6,0.1-1.3,0.2-1.9,0.2
		C22.2,33.3,21.7,33.2,21.2,33z"/>
	<path class="st1" d="M20.7,28.6c0,0,0,0.6,0.1,1.1s0.8,0.5,0.8-0.1c0-0.3,0-0.7-0.1-1.1C21.7,28.5,21,28.3,20.7,28.6z"/>
	<path class="st1" d="M24.6,28.7c0,0-0.1,0.5-0.1,1.1c-0.1,0.2-0.3,0.3-0.5,0.3c-0.2-0.1-0.3-0.2-0.3-0.4c0-0.3,0-0.7,0.1-1.1
		C23.8,28.5,24.4,28.5,24.6,28.7z"/>
	<path class="st1" d="M21.3,30c0,0,0.1,1.3,0.1,1.8s0.1,1.6,0.1,1.6h0.1c0,0,0-1.4-0.1-2.1S21.4,30,21.4,30H21.3z"/>
	<path class="st1" d="M24.2,30.1l-0.1,1.8c0,0.5-0.1,1.6-0.1,1.6h-0.1c0,0,0-1.4,0.1-2.1c0.1-0.7,0.1-1.3,0.1-1.3H24.2z"/>
	<path class="st1" d="M21.1,32.4c0.5,0.2,1.1,0.3,1.7,0.3c0.7,0,1.4-0.1,2.1-0.1v0.2c-0.7,0.1-1.5,0.1-2.2,0.1
		c-0.5,0-1.1-0.1-1.6-0.2V32.4z"/>
	<path class="st2" d="M19.5,42.3c0,0-0.5,0.8-0.7,1.2c-0.3,0.3-0.3,0.7,0,1.1c0.3,0.4,0.8,0.3,1.2-0.3c0.2-0.4,0.4-0.9,0.6-1.5
		c0.1-0.2,0.1-0.5,0-0.7C20.2,42.4,19.8,42.5,19.5,42.3z"/>
	<path class="st1" d="M18.5,44.2c0.1,0.1,0.3,0.2,0.4,0.3c0.2,0.1,0.4,0.2,0.6,0.1c0.3-0.4,0.5-0.8,0.6-1.3c0.1-0.3,0.2-0.5,0.3-0.8
		c0.1,0,0.1,0.3,0,0.5c-0.1,0.2-0.2,0.4-0.3,0.6c-0.1,0.2-0.1,0.5-0.3,0.7c-0.2,0.3-0.4,0.6-0.8,0.5C18.7,44.8,18.5,44.5,18.5,44.2z
		"/>
	<path class="st1" d="M19.5,42v0.4l0.2,0.1C19.7,42.3,19.6,42.1,19.5,42z"/>
	<path class="st1" d="M20.4,41.8c-0.2,0.1-0.4,0.2-0.6,0.3c-0.1,0.1-0.2,0.2-0.2,0.3c0.1,0.1,0.3,0.1,0.4,0c0.2-0.1,0.3-0.2,0.4-0.3
		C20.4,42.1,20.4,41.8,20.4,41.8z"/>
	<path class="st2" d="M23.4,43.4c0,0,0.3,0.9,0.5,1.4c0.2,0.3,0.1,0.8-0.2,1.1c-0.4,0.3-0.8,0.1-1.1-0.6c-0.1-0.5-0.2-1.1-0.3-1.6
		c0-0.2,0-0.5,0.1-0.7C22.6,43.3,23.1,43.6,23.4,43.4z"/>
	<path class="st1" d="M23.9,45.5c-0.1,0-0.3,0.1-0.4,0.2c-0.2,0.1-0.4,0.1-0.6-0.1c-0.2-0.4-0.3-0.9-0.4-1.4c0-0.3,0-0.6-0.1-0.8
		c-0.1,0-0.2,0.3-0.1,0.5c0.1,0.2,0.1,0.5,0.2,0.7c0,0.2,0,0.5,0.1,0.7c0.1,0.4,0.3,0.7,0.6,0.7C23.5,46.1,23.8,45.9,23.9,45.5z"/>
	<path class="st1" d="M23.5,43.1v0.4h-0.2C23.2,43.4,23.3,43.2,23.5,43.1z"/>
	<path class="st1" d="M22.5,42.7c0.2,0.1,0.4,0.3,0.5,0.5c0.1,0.1,0.1,0.2,0.2,0.4c-0.1,0-0.3,0-0.4-0.1c-0.1-0.1-0.3-0.2-0.3-0.4
		L22.5,42.7z"/>
	<path class="st1" d="M28.8,33.6c0.2,0.4,0.2,0.8,0.1,1.2c-0.2,0.1-0.5,0.2-0.7,0.1c0.3-0.3,0.4-0.7,0.4-1.2L28.8,33.6z"/>
	<path class="st6" d="M28.2,34.5c0.1,0,0.3,0.1,0.4,0.1c0.2,0.1,0.1,0.1,0.1,0.2s0.1,0.1,0.1,0s0-0.2,0-0.3c0,0-0.3-0.3-0.4-0.3
		S28.2,34.5,28.2,34.5L28.2,34.5z"/>
	<path class="st1" d="M17,33.6c0,0,0.4,0.4,0.4,0.6c0,0.1,0,0.3-0.1,0.4c0,0-0.5,0-0.5-0.2C16.7,34.1,16.9,33.8,17,33.6z"/>
	<path class="st6" d="M19.2,30.8l-0.4,0.6c-0.4,0.5-0.8,1.2-1.2,1.8c-0.2,0.4-0.5,0.8-0.9,1.1c-0.2,0.1-0.2,0.1-0.2,0.3
		c0,0.1,0.1,0.2,0.1,0.3h0.1h0.1c0,0-0.1-0.2,0-0.2c0.1,0,0.2,0,0.3,0c0.2,0,0.4,0,0.5-0.2c0.1-0.2,0-0.2,0.5-0.7
		c0.5-0.5,1.1-1.4,1.4-1.6l0.6-0.6C19.8,31.5,19.5,31.1,19.2,30.8z"/>
	<path class="st1" d="M16.7,33.5c-0.2,0.3-0.2,0.8-0.1,1.2c0.2,0.1,0.5,0.2,0.7,0.1C17.1,34.4,17,34,17,33.6L16.7,33.5z"/>
	<path class="st6" d="M17.4,34.4c0,0-0.2,0.1-0.4,0.1c-0.2,0-0.1,0.1-0.1,0.2s-0.1,0.1-0.2,0c0-0.1,0-0.2,0-0.3c0,0,0.3-0.3,0.4-0.3
		S17.5,34.4,17.4,34.4L17.4,34.4z"/>
</g>
</svg>
