<?xml version="1.0" encoding="utf-8"?>
<!-- Generator: Adobe Illustrator 23.1.0, SVG Export Plug-In . SVG Version: 6.00 Build 0)  -->
<svg version="1.1" id="icons" xmlns="http://www.w3.org/2000/svg" xmlns:xlink="http://www.w3.org/1999/xlink" x="0px" y="0px"
	 viewBox="0 0 47 47" style="enable-background:new 0 0 47 47;" xml:space="preserve">
<style type="text/css">
	.st0{fill:#FF8400;}
	.st1{fill:none;}
</style>
<title>Pickleball</title>
<g id="Pickle_ball">
	<path class="st0" d="M43,41.2l-1.3-1.5c-0.5-0.7-0.7-0.8-0.8-0.8c-0.2-0.2-0.4-0.4-0.6-0.6l-4-4.6C36.1,33.5,36,33.3,36,33
		c0.3-0.3,0.2-0.8-0.3-1.3L35.1,31c-0.1-0.2-0.4-0.3-0.6-0.4c-0.4-1.3-0.4-2.6,0-3.9c0.6-1.9,1-3.8,1.3-5.7c0-0.3,0.5-3.3-2.2-7
		l-7.5-9.1c-1.5-1.6-3.5-2.6-5.7-2.6c-2.2,0.1-4.2,1-5.8,2.4L11,7.9l-0.3,0.3l-3.6,3.1c-1.8,1.5-3,3.6-3.3,6c-0.1,2,0.6,4,1.9,5.5
		l8,8.6c1.7,1.8,4,3,6.5,3.1h0.1c1.9-0.1,3.9-0.3,5.8-0.6c0.3,0,0.7,0,1,0c1-0.1,2,0.2,2.9,0.7c0,0.2,0.1,0.4,0.3,0.5l0.7,0.8
		c0.4,0.5,1,0.7,1.3,0.4l0,0c0.2,0,0.5,0.2,0.6,0.4l4,4.6c0.2,0.2,0.3,0.4,0.5,0.6c0,0.1,0.2,0.4,0.7,0.9l1.3,1.5
		c0.2,0.3,0.5,0.4,0.9,0.4l0,0c0.3,0,0.6-0.1,0.8-0.3l1.6-1.4C43.3,42.6,43.5,41.8,43,41.2z M30.3,34c-0.9-0.4-1.9-0.6-2.9-0.6
		c-0.4,0-0.7,0-1.1,0c-1.9,0.3-3.8,0.5-5.8,0.5h-0.1c-2.4-0.2-4.6-1.2-6.2-3l-8-8.6C5,20.9,4.4,19,4.4,17.2C4.6,15,5.7,13,7.5,11.6
		L11,8.5l0.3-0.3l3.6-3.1c1.5-1.4,3.5-2.3,5.6-2.3c2,0.1,4,1,5.3,2.4l7.4,9c2.7,3.7,2.2,6.7,2.1,6.7l0,0c-0.3,1.9-0.7,3.8-1.3,5.6
		c-0.4,1.3-0.4,2.7,0,4c-0.2,0-0.4,0.1-0.6,0.3l-2.9,2.6C30.4,33.6,30.3,33.8,30.3,34z M42.5,42.6L41,44c-0.1,0.1-0.3,0.2-0.5,0.2
		S40,44.1,40,44l-1.4-1.5c-0.2-0.2-0.4-0.4-0.5-0.6c0-0.1-0.1-0.3-0.6-0.9l-4-4.6c-0.4-0.5-1-0.7-1.3-0.4l0,0
		c-0.3,0-0.5-0.2-0.6-0.4l-0.7-0.8c-0.3-0.3-0.3-0.7,0-1l2.9-2.5c0.3-0.3,0.7-0.3,1,0l0.7,0.8c0.3,0.3,0.4,0.6,0.3,0.7
		c-0.3,0.3-0.1,0.9,0.3,1.3l4,4.6c0.2,0.3,0.5,0.6,0.8,0.8c0.2,0.2,0.4,0.4,0.5,0.6l1.2,1.5C43,41.7,42.8,42.3,42.5,42.6z"/>
	<line class="st1" x1="15.1" y1="31.2" x2="33.3" y2="15.2"/>
	<line class="st1" x1="16.4" y1="32.2" x2="34" y2="16.7"/>
	<path class="st0" d="M32.8,14.2l-7-8.4c-1.4-1.5-3.3-2.3-5.3-2.4c-2,0.1-4,0.9-5.5,2.3l-3.4,3L11.3,9l-3.4,2.9
		c-1.7,1.4-2.8,3.4-3.1,5.6c-0.1,1.9,0.6,3.7,1.8,5.1l7.4,8c1.6,1.7,3.8,2.7,6.1,2.9h0.4c1.7-0.1,3.5-0.3,5.2-0.6H26v-0.2
		c-0.1-1.9,0.6-3.8,2.1-5c1-0.7,2.1-1.1,3.3-1.1c0.5,0,1,0.1,1.5,0.2h0.2l0.1-0.2c0.7-1.9,1.2-3.8,1.7-5.8
		C35,20.5,35.5,17.7,32.8,14.2z M34,17.1c0.2,0.5,0.3,1,0.4,1.5l-16.1,14c-0.4-0.1-0.8-0.3-1.2-0.5L34,17.1z M16.4,31.8
		c-0.3-0.2-0.6-0.4-0.9-0.6l17.6-15.5c0.2,0.3,0.3,0.6,0.5,0.9L16.4,31.8z M7,22.3c-1.1-1.3-1.7-3-1.6-4.8c0.2-2.1,1.3-4,3-5.3
		l3.4-3l0.3-0.3L15.5,6c1.4-1.4,3.2-2.1,5.2-2.2c1.9,0.1,3.7,0.9,4.9,2.3l6.9,8.4c0.1,0.2,0.3,0.4,0.4,0.6L15,30.8
		c-0.2-0.2-0.4-0.4-0.6-0.6L7,22.3z"/>
</g>
</svg>
