<?xml version="1.0" encoding="utf-8"?>
<!-- Generator: Adobe Illustrator 23.1.0, SVG Export Plug-In . SVG Version: 6.00 Build 0)  -->
<svg version="1.1" id="icons" xmlns="http://www.w3.org/2000/svg" xmlns:xlink="http://www.w3.org/1999/xlink" x="0px" y="0px"
	 viewBox="0 0 47 47" style="enable-background:new 0 0 47 47;" xml:space="preserve">
<style type="text/css">
	.st0{fill:#FCB143;}
	.st1{fill:#7FD061;}
	.st2{fill:#69D8E4;}
	.st3{fill:#FB74C4;}
	.st4{fill:#057195;}
	.st5{fill:#0E80AC;}
	.st6{fill:#FFF0DC;}
	.st7{fill:#FFE4C0;}
	.st8{fill:#FA9801;}
	.st9{fill:#D0F0F3;}
</style>
<title>pilates</title>
<g>
	<circle class="st0" cx="44.2" cy="36.1" r="1.5"/>
	<g>
		<g>
			<path class="st1" d="M6.6,25.7c-2.7,0.4-4.7,2.7-4.8,5.5V32c0.1,3.1,2.6,5.6,5.7,5.6h0.1c3.1,0,5.7-2.5,5.8-5.6v-0.8
				c0-1.5-0.9-2.9-2.3-3.4L6.6,25.7z"/>
			<g>
				<g>
					<g>
						<path class="st2" d="M5.7,23.9L5.7,23.9c-0.4-0.1-0.6-0.3-0.8-0.5c-0.3-0.4-0.5-0.9-0.7-1.5l-0.8-1.9
							c-0.2-0.4-0.6-0.6-1.1-0.4c-0.3,0.1-0.5,0.4-0.5,0.7v4.7c0,0.4,0.3,0.8,0.7,0.9l2.4,0.3L5.2,26l0.5-1.5V23.9z"/>
						<g>
							<path class="st3" d="M37.9,33.9c-0.4-0.8-1-1.6-1.7-2.2c-2.2-2.1-5.1-3.2-8.1-3.1h-5.1L21.7,29l-0.8,3.5l1,0.9l4.5,1.6
								l3.1,2.4h10.1L37.9,33.9z"/>
							<path class="st4" d="M12.2,29.1L5,26.2L5.7,24l8.2,1.6c0.8,0.2,1.7,0.4,2.5,0.6l6.5,2.4l-1.2,0.5l-0.8,3.4l1,0.9l-3.1-0.6
								C16.7,31.4,14.5,30.2,12.2,29.1L12.2,29.1z"/>
						</g>
					</g>
					<g>
						<path class="st2" d="M19,11.8v-0.2c-0.1-0.3,0-0.6,0.2-0.8c0.3-0.4,0.6-0.8,0.9-1.2l1.5-1.6c0.3-0.3,0.3-0.8,0-1.1
							c-0.3-0.1-0.6-0.2-0.9-0.1l-4.3,1.9c-0.4,0.2-0.6,0.6-0.5,1l0.6,2.4l0.5,0.3l1.5-0.1L19,11.8z"/>
						<path class="st5" d="M17.8,20.9l-1.2-9l2.4-0.1l2.5,7.4c0.3,0.8,0.4,1.7,0.6,2.5l0.9,6.9c-0.6,1.2-1,2.6-1.1,4.1v1
							c-2.4,0.4-4.7-1.2-5.1-3.7c-0.1-0.6-0.1-1.1,0.1-1.8l0.9-4.1C18,23,18,21.9,17.8,20.9z"/>
					</g>
					<g>
						<path class="st6" d="M40.4,37.5c2.1-0.1,3.5-1.9,3.4-3.9c-0.1-2-1.9-3.5-3.8-3.4h-0.9c-2.1,0.1-3.6,1.8-3.5,3.8
							c0.1,2.1,1.8,3.6,3.8,3.5h0.1C39.5,37.5,40.4,37.5,40.4,37.5z"/>
						<path class="st7" d="M43.8,33.6c-0.1-1.9-1.7-3.4-3.5-3.5l0.1,4.2c0,1.4-0.7,2.5-1.8,3.2c0.3,0,0.5,0,0.8,0h0.9
							C42.4,37.3,43.9,35.7,43.8,33.6z"/>
						<path class="st0" d="M43.8,33.6c-0.1-1.7-1.2-3-2.9-3.4L41,33c0,0.6-0.4,1.2-1.1,1.2c-0.3,0-0.6,0.1-0.8,0.3L37,36.7
							c0.7,0.5,1.6,0.8,2.5,0.8h0.9C42.4,37.4,43.9,35.7,43.8,33.6L43.8,33.6z"/>
						<path class="st8" d="M43.8,33.6c-0.1-1.7-1.2-3-2.9-3.4L41,33c0,0.5-0.2,0.9-0.7,1.1v0.1c0,1.4-0.7,2.5-1.8,3.2
							c0.3,0,0.5,0,0.8,0h1C42.4,37.3,43.9,35.7,43.8,33.6L43.8,33.6z"/>
					</g>
				</g>
				<path class="st6" d="M32.4,37.5c0.9,0,1.6-0.7,1.6-1.6c0-0.9-0.7-1.6-1.6-1.6l-8.4,1c-1.9,0.2-3.6,0.7-5.4,1.5L18.3,37
					c-0.1,0.1-0.2,0.2-0.1,0.4c0,0.1,0.1,0.2,0.3,0.2h13.9V37.5z"/>
			</g>
		</g>
		<path class="st9" d="M44.6,39.7H3c-0.6-0.1-1.1-0.6-1-1.2c0.1-0.5,0.5-1,1-1h41.5c0.6,0.1,1.1,0.6,1,1.2
			C45.5,39.2,45.1,39.6,44.6,39.7z"/>
	</g>
</g>
</svg>
