<?xml version="1.0" encoding="utf-8"?>
<!-- Generator: Adobe Illustrator 23.1.0, SVG Export Plug-In . SVG Version: 6.00 Build 0)  -->
<svg version="1.1" id="icons" xmlns="http://www.w3.org/2000/svg" xmlns:xlink="http://www.w3.org/1999/xlink" x="0px" y="0px"
	 viewBox="0 0 47 47" style="enable-background:new 0 0 47 47;" xml:space="preserve">
<style type="text/css">
	.st0{fill:#464646;}
</style>
<title>PiYo</title>
<path id="Pilates" class="st0" d="M45.5,23.5L45.5,23.5l-0.1,0.1l-0.1,0.1l0,0l0.1-0.1l0,0l0,0l0,0l0,0l0,0l0,0l0,0l0,0l0,0l0,0l0,0
	h-0.1h-0.1l0,0l0,0l0,0l0,0l0,0l0,0l0,0l0,0h-0.1l0.1-0.1l0,0l0,0l0,0l-0.1,0.1l0,0l0,0l0.1-0.1c0.1-0.1,0.1-0.1,0.2-0.2
	c0,0,0,0,0-0.1l0,0l0,0h-0.1l-0.1,0.1l0.1-0.2l0,0l0,0l0,0l-0.1,0.1l0,0l0,0l0,0v-0.1l0,0l0,0l0,0V23l0,0l0,0l0,0v0l0,0l0,0
	l-0.1,0.1v0.1l0,0v-0.1l0,0l0,0l0,0c0-0.1,0.1-0.2,0.1-0.2l0,0l0,0l0,0l0,0v-0.1l0,0v0.1l0,0l0,0l0,0l0,0h0.1l0,0l0,0h-0.1l0,0l0,0
	l0,0h0.1l0,0l0,0l0,0l0.1-0.1l0,0l0,0l0,0l0,0l0.1-0.1l0,0l0,0l-0.1,0.1l-0.1,0.1l0,0l0.1-0.1l0,0l0.1-0.1l0,0l0,0h-0.1l0,0l0,0l0,0
	h0.1l0,0l0,0l0,0l0.1-0.1l0,0l0,0l0,0l0.1-0.1l0,0l0,0l-0.1,0.1l-0.1,0.1l0,0l0.1-0.1l0,0l0,0l-0.1,0.1h-0.1l0,0l0,0l0,0l0.1-0.1
	l0,0l0,0l-0.1,0.1l0,0v-0.1l0,0v0.1l0,0l0.1-0.2v-0.1l0,0l0,0c0,0,0,0.1-0.1,0.1v-0.1v-0.1v-0.1l0,0l0,0V22l0,0v0.1c0,0,0,0,0,0.1
	l0,0v-0.1v0.1l0,0c0-0.1,0-0.1,0-0.2l0,0l0,0l0,0c0,0,0,0,0,0.1c0,0.1-0.1,0.1-0.1,0.2l0,0c0-0.1,0.1-0.2,0.1-0.2V22l0,0v0.1l0,0
	c0,0,0,0,0-0.1l0,0l0,0v-0.1v-0.1l0,0v0.1V22v-0.1V22c0,0.1,0,0.1-0.1,0.2c0-0.1,0-0.1,0-0.2l0,0l0,0v-0.1V22l0,0l0,0l0,0l0,0l0,0
	l0,0l0,0v-0.1l0,0l0,0l0,0V22l0,0l0,0l0,0v-0.1l0,0l0,0l0,0l0,0l0,0l0,0l0,0v-0.1l0,0l0,0v0.1h-0.2l0,0l0,0l0,0l0,0L45,22l0.1-0.1
	l0,0l0,0l0,0L45,22.2l0,0c0.1-0.1,0.1-0.2,0.1-0.2l0.1-0.2v-0.1l0,0l0,0v0.1l-0.1,0.1l0.1-0.2v-0.1l0,0l0,0v0.1l0,0l0,0v-0.1l0,0
	l0,0l0,0v-0.1l0,0l0,0c0,0,0,0,0-0.1l0,0l0,0v0.1l-0.1,0.2l0,0v-0.1l0,0l0,0v0.1l0,0l0,0v-0.1l0,0v0.1l0,0c-0.1,0.1-0.1,0-0.1,0.1
	h-0.1v-0.1c0,0,0.2-0.3,0.3-0.5l-0.1,0.3v-0.1L45,21.6c0,0,0,0,0-0.1c-0.1,0.1-0.1,0-0.1,0.1l0,0c0-0.1,0-0.3,0-0.4l-0.1,0.3v-0.1
	c0,0.1,0,0.1,0,0.2l0,0v-0.1c0,0,0,0,0-0.1c0-0.1,0-0.2,0-0.4v-0.1V21v0.2c0-0.1,0-0.2,0-0.3v-0.1v0.1l0,0l0,0c0-0.1,0-0.2,0-0.3
	v-0.2v0.2l-0.1,0.3c0-0.1,0-0.3,0-0.4s0-0.1,0-0.2l0,0c0,0.1,0,0.1,0,0.2v-0.1v-0.1V20v0.1v-0.2v0.3V20l0,0l0,0c0,0.1,0,0.1,0,0.2
	c0,0.1,0,0.3,0,0.4l0,0l-1.2-0.2c0,0,0-0.1-0.1-0.2l0,0l0,0c0,0.1,0,0.1,0,0.2v0.1c0,0.1,0,0.1,0,0.2c0-0.1,0-0.1,0-0.2v-0.1l0,0
	v-0.1l0,0v-0.1v0.2v-0.1v0.1v0.1v-0.1v0.1l0,0l0,0l0,0c0-0.1-0.1-0.2-0.1-0.3c0,0.1,0,0.2,0,0.3l-0.1-0.1v0.1l-0.1-0.1L43,20.4l0,0
	l0,0v0.1c0,0.1,0.1,0.1,0.1,0.2l-0.2-0.2l0.1,0l0,0v0.1l0,0l0,0l0,0l0,0l0,0l0,0l0,0l0,0c0,0,0,0,0,0.1l0,0l0,0l0,0v0.1
	c0,0,0,0.1,0.1,0.1l0,0l0,0H43c0,0.1-0.1,0.2-0.1,0.2h-0.4h-0.3c-0.1,0-0.1,0-0.2,0.1l0,0l0,0l0,0l0,0c0,0,0.1,0,0,0l0,0l0,0l0,0
	l0,0l-0.1,0.1c-0.1,0-0.1,0.1-0.1,0.1s0,0,0,0.1s0,0.1,0,0c0,0,0,0,0-0.1l0,0l-0.1-0.1h-0.1l0,0l-0.4-0.2c-0.1-0.1-0.2-0.2-0.4-0.2
	c-0.1,0-0.1,0.1-0.2,0.2c-0.1,0.1,0,0.2-0.1,0.2s-0.2,0-0.4,0c-0.1,0-0.2,0.1-0.2,0.2c-0.1,0-0.1-0.1-0.2-0.1
	c-0.2,0-0.2,0.2-0.3,0.2c-0.3,0-0.5,0.1-0.7,0.3c0,0,0,0,0,0.1c0,0.1,0,0.2,0,0.3c0,0.3,0.1,0.6,0.2,0.9l0,0l-0.1,0.2
	c0,0-0.1,0.1-0.1,0.2c-0.2,0.1-0.4,0.1-0.6,0.1c0-0.2-0.1-0.3-0.2-0.5c0-0.2-0.1-0.4-0.1-0.6c0-0.3,0-0.7,0-1.1c0-0.1,0-0.2,0-0.3
	c0-0.1,0-0.4,0.1-0.6c0.1-0.2,0-0.4,0-0.7s0-0.4,0-0.7s0-0.5,0-0.7c0-0.1,0-0.2,0-0.3c0-0.1,0-0.2,0-0.3c0-0.6,0.1-1.3,0.1-1.8
	c0.1-0.5,0.1-1.1,0.1-1.6c0-0.3,0-0.5,0-0.8c0-0.2,0-0.5,0.1-0.7c0-0.2,0-0.5,0.1-0.7c0.1-0.6,0.1-1.2,0.1-1.8c0-0.3,0-0.5-0.1-0.8
	c0-0.1,0-0.2,0-0.3c-0.3-0.5-0.3-1.1-0.4-1.6c-0.1-0.5-0.2-1.1-0.2-1.5c0-0.1-0.1-0.2-0.1-0.2c0-0.1,0-0.1,0-0.2V5.5V5.4V5.3
	c0.1-0.3,0.2-0.5,0.3-0.8c0-0.1,0.1-0.1,0.1-0.2s0-0.1,0-0.1c0.1-0.1,0.1-0.2,0.2-0.4c0.1-0.1,0.1-0.3,0.2-0.4
	c0.1-0.1,0.1-0.3,0.1-0.4c0-0.2,0.1-0.3,0.1-0.5h-0.1h-0.1l0,0l-0.1,0.1c0,0,0,0,0,0.1l0,0c0,0,0,0.1,0,0c0-0.2,0-0.3,0-0.5
	c0.1-0.2,0.1-0.5,0-0.7c0,0,0,0-0.1,0s-0.1,0-0.1,0c0-0.2,0-0.4-0.1-0.6c-0.1,0,0,0-0.1,0.1c0,0-0.1,0-0.1,0.1s-0.1,0.2-0.1,0.3
	s0,0.2,0,0.4c-0.1,0.2-0.1,0.4-0.1,0.7c0,0.1-0.1,0.2-0.1,0.3c0,0.1,0,0.2,0,0.3c0-0.2,0-0.3,0-0.5c0-0.2,0-0.3,0-0.5
	c0-0.1,0-0.3,0-0.4s0-0.2,0-0.4s0-0.1-0.1-0.2C37,0.9,37,0.9,37,1l-0.1,0.1c-0.1,0.1-0.1,0.3-0.1,0.5s-0.1,0.5-0.1,0.7
	c0,0,0,0.2-0.1,0.4c0,0.1-0.1,0.2-0.1,0.3c0,0.1,0,0.1,0,0.2c0,0.1,0,0.2,0,0.2c0,0.1-0.2,0.2-0.3,0.2c0,0,0-0.1-0.1-0.1
	c-0.1,0-0.1-0.3-0.1-0.5c0-0.2-0.1-0.3-0.1-0.5v0l0,0l0,0c-0.1-0.1-0.2-0.1-0.3-0.1h-0.1c0,0,0,0.4,0,0.6c0.1,0.3,0.1,0.6,0.1,0.9
	c0.2,0.6,0.4,1.3,0.5,1.9c0.1,0.3,0.1,0.5,0.1,0.8c0,0.3,0,0.6,0,0.9c0,0.1,0,0.3,0,0.4c0,0.4,0,0.9-0.1,1.4c-0.1,0.4,0,1.2-0.1,1.8
	c0,0.1,0,0.3-0.1,0.4s0,0.4-0.1,0.6c0,0.1,0,0.3,0,0.4c0,0.2,0,0.4,0,0.7c0,0.4-0.1,0.8-0.1,1.3c0,0.4-0.1,1.2-0.1,1.8
	c0,0.8-0.1,1.7-0.2,2.6c-0.1,0.2-0.1,0.4-0.2,0.7L35,20.1c0,0.1-0.1,0.1-0.1,0.2l-0.1,0.1l0,0v0.1l0,0l-0.1,0.1
	c-0.2,0.2-0.4,0.4-0.6,0.5c-0.3-0.1-0.5-0.3-0.8-0.5c-0.3-0.2-0.6-0.3-1.1-0.3c-0.2,0-0.4,0-0.6,0c-0.2,0-0.3,0.1-0.5,0.2
	c-0.1,0.1-0.3,0.2-0.4,0.3c-0.1,0.1-0.2,0.3-0.3,0.4c-0.1,0.1-0.4,0.1-0.6,0.1c-0.2,0-0.6,0.1-0.8,0.2c-0.3,0.1-0.5,0.2-0.8,0.3
	c-0.3,0.1-0.5,0.1-0.8,0.2c-0.7,0.3-1.5,0.6-2.2,1.1l-0.4,0.2l-0.2,0.1l-0.1,0.1l-0.2,0.1c0,0,0,0-0.1,0.1l-0.2,0.1l-0.2,0.1
	c-0.3,0.2-0.6,0.4-0.9,0.6c-0.3,0.2-0.6,0.4-0.9,0.6c-0.3,0.2-0.9,0.6-1.4,0.9c-0.5,0.3-1.1,0.5-1.6,0.7c-0.3,0.2-0.6,0.3-0.9,0.5
	c-0.2,0.1-0.3,0.2-0.4,0.3c-0.1,0.1-0.6,0.4-0.8,0.6l-0.4,0.3c-0.1,0.1-0.3,0.2-0.4,0.3s-0.1,0.1-0.2,0.2l-0.1,0.1l-0.1,0.1
	c-0.1,0.1-0.3,0.2-0.4,0.3l-0.4,0.3c-0.1,0.1-0.3,0.2-0.4,0.3c-0.1,0.1-0.3,0.2-0.4,0.3c-0.1,0-0.1,0.1-0.2,0.1h-0.1L13,31l0,0l0,0
	l0,0l0,0l-0.1,0.1l-0.3,0.2c-0.3,0.2-0.6,0.4-0.8,0.6l-0.1,0.1l-0.1,0.1c-0.1,0.1-0.1,0.1-0.2,0.2s-0.2,0.3-0.3,0.4
	c0,0.1-0.1,0.2-0.1,0.3l-0.1,0.3c0,0.2-0.1,0.4-0.2,0.5c-0.2,0.3-0.4,0.6-0.6,0.9c-0.2,0.3-0.1,0.5-0.4,0.7
	c-0.1,0.1-0.1,0.1-0.1,0.2c-0.1,0.1-0.3,0.4-0.5,0.6c-0.5,0.5-1.1,1.1-1.5,1.6c-0.4,0.5-1.1,1.1-1.6,1.5c-0.3,0.2-0.6,0.5-0.9,0.7
	H4.7l-0.3,0.2l0,0l0,0l0,0l0,0l-0.1,0.1L4,40.8c-0.1,0.1-0.3,0.2-0.4,0.3c-0.1,0.1-0.3,0.2-0.4,0.3l-0.5,0.3
	c-0.2,0.1-0.3,0.2-0.5,0.3c-0.1,0-0.3,0-0.4,0.1c-0.1,0-0.2,0.1-0.3,0.1l-0.2,0.1L1,42.5l-0.1,0.1c0,0-0.1,0-0.1,0.1s0,0.1-0.1,0.1
	s-0.2,0-0.3,0.1c0,0,0,0.1-0.1,0.1v0.1c0.1,0.2,0.2,0.3,0.4,0.3c0,0-0.1,0.1-0.2,0.1c-0.1,0-0.1,0.1-0.1,0.2l0,0
	c0,0.1,0.1,0.2,0.2,0.2l0,0c0.1,0,0.1,0,0.2,0c0.1-0.1,0,0,0,0.1s0.1,0.2,0.1,0.2H1h0.1c0,0.1,0,0.1,0,0.2c0.1,0.1,0.2,0.1,0.3,0.1
	l0.2-0.1c0,0,0.1-0.1,0.2-0.1c0.1,0-0.2,0.1-0.2,0.3c0,0.1,0.1,0.2,0.2,0.2c0.1,0,0.2,0,0.2-0.1c0,0.1,0,0.1,0,0.2h0.1
	c0.1,0,0.2,0,0.3-0.1c0.1-0.1,0.2-0.1,0.3-0.2c0.2,0,0.3,0,0.5,0c0.2-0.1,0.3-0.1,0.5-0.1l0.5-0.1c0.4-0.2,0.7-0.4,1.2-0.4
	C5.7,44.1,5.9,44,6,44l-0.7,0.3c0.1-0.1,0.3-0.2,0.4-0.3c0,0,0.1-0.1,0.1-0.2l0,0l0.1-0.1C6,43.5,6.1,43.2,6.2,43
	c0.4-0.3,0.8-0.5,1.4-0.7s1.1-0.4,1.5-0.6c0.5-0.2,1.1-0.4,1.6-0.5c0.2-0.1,0.5-0.2,0.7-0.3s0.4-0.2,0.6-0.4
	c0.1-0.1,0.2-0.1,0.3-0.2l0.1-0.1c0.1,0,0.1-0.1,0.1-0.1c0.1,0,0.4-0.3,0.5-0.5c0.2-0.2,0.3-0.3,0.5-0.5c0.1-0.1,0.2-0.2,0.2-0.3
	l0.2-0.3l0.2-0.3l0.3-0.2c0.3-0.2,0.6-0.4,0.9-0.6c0.3-0.2,0.7-0.3,1.2-0.4c0.9-0.4,2-0.7,3.1-1.2c0.5-0.2,1.1-0.4,1.6-0.5
	c0.5-0.1,1.1-0.3,1.6-0.5c0.2-0.1,0.5-0.2,0.7-0.4l0,0l0,0l0,0l0,0h0.1l0,0l0,0l0.2-0.2l0.1-0.1l0.1-0.1l0.1-0.1l0.1-0.1
	c0.1-0.1,0.1-0.1,0.2-0.2c0.2-0.2,0.4-0.3,0.5-0.5c0.2-0.2,0.4-0.4,0.6-0.6V32c0,0,0,0,0-0.1l0,0v-0.1v-0.1l0.1-0.2l0.1-0.1
	c0.1-0.1,0.2-0.3,0.3-0.4c0.1-0.1,0.2-0.2,0.2-0.3c0.1-0.1,0.1-0.2,0.2-0.3c0-0.1,0.1-0.2,0.1-0.4c0.1-0.1,0.1-0.3,0.1-0.4
	c0-0.3,0.1-0.6,0.2-0.8c0.1-0.1,0.1-0.1,0.2-0.2c0.1,0,0.3-0.1,0.4-0.1c0.1,0,0.3,0,0.4,0l0.2,0.1c0.2,0,0.4,0.1,0.6,0.1
	c0.5,0.1,1.1,0.2,1.6,0.4c0.5,0.2,0.9,0.4,1.5,0.5c0.2,0.1,0.5,0.1,0.7,0.2s0.4,0.2,0.6,0.3c0,0.1,0.1,0.1,0.2,0.2
	c0.2,0.5,0.3,0.9,0.4,1.5c0.1,0.7,0.1,1.5,0.2,2.2c0,0.3,0,0.7,0.1,1.2c0,0.2,0,0.3,0,0.5c0,0.4,0,0.7,0,1.2c0,0.2,0,0.4,0,0.6
	c0,0.4,0,0.7,0,1.2c0.1,0.7,0.2,1.4,0.3,2c0.1,0.5,0.2,1.1,0.3,1.6c0,0.3,0.1,0.5,0.1,0.8c0,0.3,0,0.6,0.1,0.8
	c0,0.1,0.1,0.2,0.1,0.3l0.1,0.1l0,0h0.2c0.1,0.1,0.1,0.1,0.2,0.1c0.2,0,0.3,0.1,0.5,0.1c0.2,0.1,0.3,0.1,0.5,0.1l0.2-0.1
	c0.1,0,0.2,0,0.3,0c0.2,0.1,0.3,0.2,0.4,0.3c0.1,0.1,0.3,0.1,0.5,0.1c0.1,0,0.1,0,0.2-0.1c0-0.1,0-0.1,0-0.2l0,0
	c0-0.2-0.2-0.2-0.4-0.3c-0.1,0-0.2-0.1-0.2-0.1l-0.2,0.5l0,0l0,0c0.1,0,0.3,0,0.4,0c0.1,0,0.1,0,0.2-0.1l0.4,0.1c0.1,0,0.2,0,0.3,0
	c0.1,0,0.3,0.1,0.4,0.1c0.2,0,0.4,0.1,0.5,0.1c0,0,0.1,0,0.1-0.1s0.1,0,0.1-0.1c0,0,0-0.1-0.1-0.1c0,0-0.1,0-0.1-0.1
	c0.1,0,0.1,0,0.2-0.1v-0.1l0,0l0,0c-0.1-0.1-0.2-0.1-0.4-0.1c-0.1-0.1-0.3,0-0.4-0.1c-0.1-0.1,0,0,0-0.1s0,0,0,0l0,0
	c-0.2,0-0.4,0-0.6,0c-0.1,0-0.3-0.1-0.4-0.1s0,0,0,0l0,0h-0.4c-0.1,0-0.2-0.1-0.3-0.1c-0.1,0-0.5,0-0.7,0h-0.3h-0.4
	c0-0.4,0-0.9,0-1.4c0-0.4,0.1-0.8,0.1-1.3c0-0.4,0.1-0.8,0.1-1.3c0-0.4,0-0.8-0.1-1.4s-0.1-0.8-0.1-1.3c0-0.2,0-0.4,0-0.6
	c0-0.6,0-1.4,0-2c0-0.4,0-0.8,0-1.4s0.2-0.9,0.2-1.4c0.1-0.5,0.1-1.1,0.1-1.6c0-0.2,0-0.5-0.1-0.7c0.1-0.7,0.3-1.4,0.6-2
	c0-0.2,0.1-0.3,0.1-0.4l0,0c0.3-0.2,0.6-0.3,0.9-0.4c0.3-0.1,0.7-0.2,1.2-0.2h0.3c-0.1,0.1-0.2,0.2-0.2,0.3c0.2,0.1,0.4-0.2,0.7-0.2
	L40,26.6c-0.1,0-0.1,0.1-0.2,0.1v0.1l0.1-0.1c0.1,0,0.1-0.1,0.2-0.1h0.1l-0.1,0.1l0,0c-0.1,0-0.1,0.1-0.1,0.1l0.1-0.1l0,0L40,26.8
	c-0.1,0.1-0.1,0.1-0.1,0.2v0.2l0,0v-0.1c0,0.1-0.1,0.1-0.1,0.2v0.1v-0.1c0-0.1,0.1-0.1,0.1-0.2C40,27,40,27,40.1,27l0,0L40,27.1l0,0
	l0,0l0.1-0.1c0.1-0.1,0.2-0.1,0.4-0.1L40.4,27c0,0-0.1,0-0.1,0.1l-0.1,0.1l0,0l0,0c0,0,0-0.1,0.1-0.1s0.1-0.1,0.2-0.1
	c0.1,0,0.2,0,0.3,0h0.3l0,0l0,0h0.1L41,27.2h0.1l0,0H41l-0.1,0.1v0.1l0,0l0,0l-0.1,0.1v0.1l0,0l0.1-0.1l0.2-0.1l0,0L41,27.5l0,0l0,0
	h0.1l0.3-0.1c-0.1,0-0.2,0.1-0.2,0.1l-0.1,0.1l0,0l0,0h0.1c0.1-0.1,0.3-0.1,0.4-0.1l0,0v0.1l0,0h0.1l0.2-0.1c0,0,0,0-0.1,0.1l0,0
	l0,0l0.1-0.1h0.1h0.1l-0.1,0.1L42,27.7l0,0l0,0l0.1-0.1l0.2-0.1l0.6-0.1c0.1,0,0.2-0.1,0.3-0.1l0.3-0.1l0.3-0.2l0,0l0.1-0.1
	c0.1,0,0.1-0.1,0.2-0.1l0,0v0.1l0,0l0,0l0.2-0.2c0.1-0.1,0.2-0.3,0.3-0.4s0.1-0.2,0.2-0.4v-0.1l0,0c0-0.1,0-0.2,0-0.2l0,0l0,0v-0.1
	c0-0.2,0-0.4,0-0.6l0,0v-0.1H45l0,0c0.1,0,0.2-0.1,0.2-0.2l0.1-0.1l0,0l0,0l-0.1,0.1L45,24.6l0,0l0,0c0.1,0,0.1-0.1,0.2-0.2l0.1-0.1
	l0,0l0,0l-0.1,0.1l0,0l0,0l0,0c0,0,0,0,0.1,0l0,0l0,0l0,0l0.1-0.1l0,0l0,0l0,0l0.1-0.1L45.5,23.5z"/>
</svg>
