<?xml version="1.0" encoding="utf-8"?>
<!-- Generator: Adobe Illustrator 23.1.0, SVG Export Plug-In . SVG Version: 6.00 Build 0)  -->
<svg version="1.1" id="icons" xmlns="http://www.w3.org/2000/svg" xmlns:xlink="http://www.w3.org/1999/xlink" x="0px" y="0px"
	 viewBox="0 0 47 47" style="enable-background:new 0 0 47 47;" xml:space="preserve">
<style type="text/css">
	.st0{fill:#464646;}
</style>
<title>Planks</title>
<path id="Planks" class="st0" d="M44.8,29.7C44.8,29.6,44.8,29.6,44.8,29.7l-0.3-0.2l-0.3-0.1c0,0-0.1,0-0.1-0.1
	c-0.1,0-0.1,0-0.1-0.1c0.2,0.1,0.3,0.1,0.5,0.2l0,0c0.1,0,0.2,0,0.2-0.1s0-0.1,0-0.1c-0.1-0.1-0.2-0.2-0.3-0.2l-0.4-0.2
	c-0.3-0.2-0.6-0.3-1-0.3c-0.1-0.1-0.2-0.1-0.3-0.1s-0.2,0-0.3,0c0.2,0,0.4-0.1,0.5-0.1s0.1-0.1,0.2-0.1c0.1-0.1,0.1-0.1,0.2-0.2
	v-0.1v-0.1c-0.1,0-0.2,0-0.3,0.1L42.8,28c-0.2,0.1-0.5,0.1-0.7,0.1l-0.5,0.2c-0.1,0-0.2,0-0.3,0.1c-0.2,0.1-0.4,0.1-0.6,0.1
	c-0.3,0-0.7,0-1-0.1c-0.8-0.1-1.7-0.3-2.6-0.4c0-0.9-0.1-1.8-0.3-2.7c0-0.5,0-0.9,0.1-1.3c0-0.2,0.1-0.4,0.1-0.6
	c0-0.1,0.1-0.2,0.1-0.3V23c0-0.1,0-0.1,0-0.2c0.1,0,0.3,0,0.4,0.1c0.2,0.1,0.3,0.3,0.5,0.5c0.2,0.1,0.3,0.4,0.6,0.4
	c0.1,0,0.1-0.1,0.2-0.1c0.1-0.1,0.1-0.2,0.2-0.2c0.1-0.1,0.2,0,0.2,0l0.1-0.1c0,0,0.1-0.1,0.1-0.2c0.1,0,0.1,0,0.2,0
	c0.1,0,0.1-0.1,0.1-0.2s0,0,0,0l0,0l0,0l0,0c0.1,0,0.1,0,0.2,0.1c0.1,0,0.1,0,0.2,0c0,0,0.1,0,0.1-0.1c0.1-0.2,0.1-0.4,0.1-0.6
	s0-0.3,0.1-0.5V22v-0.1l0,0v-0.1l0,0l0,0v0.1c0,0,0,0,0-0.1l0,0v0.1l0,0v-0.1v-0.1h0.1v0.1v0.1l0,0v-0.1v-0.1l0,0c0,0,0,0,0-0.1l0,0
	l0,0c0,0,0,0,0,0.1v0.1l0,0c0,0,0,0,0-0.1l0,0v0.1v0.1l0,0c0,0,0,0,0-0.1l0,0l0,0c0,0,0,0,0-0.1l0,0l0,0l0,0l0,0l0,0l0,0l0,0l0,0
	c0,0,0,0,0-0.1v-0.1l0,0v0l0,0l0,0l0,0v-0.1l0.1-0.1v0.1l0,0v-0.1l0,0l0,0c0,0,0,0,0-0.1v-0.1l0,0l0,0l0,0v0.1v-0.1V21
	c0,0,0,0,0-0.1V21v0.1V21c0-0.1,0-0.1,0-0.2c0,0,0-0.1,0.1-0.1l0,0v0.1l0,0v-0.1l0,0v0.1v0.1l0,0l0,0v-0.1l0,0v-0.1l0,0l0,0l0,0
	v-0.1l0,0l0,0v0.1l0,0v-0.1c0-0.1,0-0.1,0-0.2l0,0l0.1,0.1v0.1l0,0v-0.1v-0.1c0,0,0,0,0,0.1v-0.1c0.1,0.1,0.1,0.1,0.2,0.2
	c-0.1-0.1-0.1-0.1-0.2-0.2l0,0l0,0l0,0l0,0v0.1l0,0v0h0.1l0.1,0.1l0,0l0,0v-0.1l0,0l0,0l0,0l0.1,0.1l0.1,0.1l0,0l0,0v-0.1l0,0l0,0
	l0,0c0,0,0-0.1-0.1-0.1l0,0l0,0l0,0v-0.1l0,0l0,0l0,0l0.1,0.1l0,0l0,0v-0.1L41,20.2l0.1,0.1l0,0l0,0l0.1,0.1l0,0l0,0l0.9-0.5
	L42,19.7l0,0l0.2,0.2l0.1,0.1l0,0l0,0l-0.1-0.1l0,0l0.1,0.1l0.1,0.1l0,0l0,0L42.3,20l0,0l0,0l0,0l-0.1-0.1v-0.1l0,0l0,0l-0.1-0.1
	l0,0l0,0l0,0l0.1,0.1l0,0l0,0l-0.1-0.1c-0.1-0.1-0.1-0.2-0.2-0.2l0.2,0.1l0.1,0.1l0,0l0,0l-0.1-0.1l-0.3-0.1l0,0l0,0h-0.1l0,0l0,0
	l0,0l0.1,0.1l0,0l0,0v-0.1l-0.2-0.2l0.1,0.1h0.1l0,0l0,0h-0.1l-0.2-0.2l0,0l0,0h0.1l0.1,0.1v-0.1l0.2,0.1c-0.1-0.1-0.2-0.1-0.3-0.2
	l0,0c0,0.1,0,0,0.1,0c-0.1-0.1,0-0.1,0-0.1l0.2,0.1L41.7,19c0.1,0,0.1,0,0.2,0c-0.2,0-0.3,0-0.5,0h0.1c0,0,0,0,0-0.1
	c0.1,0.1,0.1,0,0.2,0h0.1h-0.1l0,0l0,0h0.1h-0.1h0.1h-0.1l0,0h-0.1h-0.1h0l0,0c-0.1,0-0.1-0.1-0.2-0.1h0.3h-0.1h-0.1h0.1h0.1l0,0
	l0,0l0,0l0,0l-0.1-0.1l0.2,0.1h0.1l0,0l0,0l-0.1-0.1l0,0l0.1,0.1l0.1,0.1l0,0l0,0l-0.1-0.1l0,0l0,0l0,0l-0.1-0.1l0,0l0,0l0,0l0,0
	l0,0l0,0h0.1l0,0l0,0h-0.1l-0.2-0.1l0,0h0.1l0,0l0,0l0,0l0,0l-0.1-0.1l0,0h0.1l0,0h-0.1l0,0l0,0h0.1l0,0l0,0h-0.1h0.1l0,0l0,0l0,0
	l0,0l0,0l0,0l-0.1-0.1l0,0h0.1l0,0h-0.1l-0.1-0.1h0.1l0,0l0,0l0,0h0.1h-0.1h0.1h0.1l0,0h-0.1h-0.1h0.1l0,0h-0.1l0,0l0,0h0.1l0,0
	h-0.1l0,0l0,0l0,0h-0.1l0,0h0.1l0,0h-0.1l0,0l0,0l0,0L41,17.5h-0.2h0.1H41h-0.3h-0.1l0,0h0.1l0.1-0.1l0,0h-0.1l0,0l0,0l0,0l0,0h0.1
	l0,0l0,0l0,0l0,0h0.1H41h-0.3h0.1h-0.1h-0.2l0,0l0.2-0.1h0.1l0,0l0,0h-0.1l-0.2,0.2l0,0l0,0l0,0l0,0l0,0l0.1-0.1l0,0l0,0l0,0l0,0
	l-0.2,0.1l0,0v-0.1l0,0l0,0l0,0c0,0,0,0,0,0.1l0,0v-0.1V17l0,0l0,0l0,0v-0.1c0,0,0,0,0-0.1l0,0c0,0,0,0,0,0.1l0,0c0,0,0,0,0,0.1l0,0
	l0,0l0,0l0,0l0,0l-0.1-0.1c0-0.1,0-0.1,0-0.2l0,0c0,0,0,0,0,0.1v0.1v-0.1v-0.1c0,0,0,0,0,0.1l0,0v-0.1v-0.1c0,0,0,0,0,0.1l0,0
	c0,0,0,0,0,0.1l0,0l0,0l0,0c0,0,0,0,0,0.1l0,0l0,0c0,0,0,0,0-0.1l0,0l0,0l0,0v-0.1l0,0v-0.1v0.1l0,0l0,0l0,0l0,0l0,0l0,0l0,0v-0.1
	v0.1l0,0l0,0l0,0l0,0l0,0l0,0l0,0v-0.1v0.1l0,0v-0.1c0,0,0,0,0-0.1l0,0c0,0,0,0,0,0.1l0,0v-0.1c0,0,0,0,0-0.1l0,0l0,0l0,0
	c0,0,0,0,0,0.1l0,0l0,0l0,0l0,0l0,0l0,0l0,0l0,0h-0.1l0,0l0,0l0,0l0,0l0,0l0,0l0,0v0.1l0,0h-0.1l0,0c0,0,0,0-0.1,0l0,0l0,0l0,0v-0.1
	L40,16.4l0,0l0,0v0.1l0,0l0,0l0,0l0,0h-0.1l-1.2-0.1h-0.1l0,0l0,0l0.1,0.1l0.1,0.1h-0.1h-0.1h-0.1l0,0l0,0h0.1l0,0h0h-0.1l0,0l0,0
	c0,0,0.1,0,0.1,0.1h-0.1l0,0l0,0h-0.1h-0.1l0,0c-0.3,0.1-0.5,0.2-0.7,0.3s-0.3,0.2-0.4,0.4l0,0c-0.1,0.1-0.1,0.2-0.2,0.2l0,0v0.1
	l-0.2,0.1h-0.1l0,0h0.1h0.1v0.1l0,0L36.8,18l0,0h0.1l0,0h-0.1c0,0-0.1,0-0.1,0.1h0.1h-0.1l0,0h0.1v0.1v0.1l-0.1,0.2l-0.1,0.1h-0.1
	l0,0h0.1l0,0l0.1-0.1c-0.1,0.1-0.1,0.1-0.2,0.2h-0.1h0.2c-0.1,0-0.1,0.1-0.2,0.1h-0.2h0.1h0.2h-0.1h0.2h0.1h-0.1l0,0l0,0h0.1l0,0
	l0,0c-0.1,0-0.1,0.1-0.2,0.1h-0.1h0.1h0.2l0,0c-0.2,0.1-0.4,0.2-0.4,0.3c0.1,0,0.2,0,0.3,0c-0.1,0.2-0.1,0.4-0.3,0.5l-0.1,0.1
	c-0.2-0.1-0.4-0.2-0.7-0.2l-0.3-0.1c-0.2-0.1-0.4-0.1-0.6-0.1c-0.3,0-0.6,0-1,0.1H33c-0.3,0-0.5,0.1-0.7,0.2s-0.5,0.2-0.7,0.2
	l-0.7,0.2c-0.3,0.2-0.7,0.3-1,0.4l-0.2,0.1c-0.1,0-0.1,0-0.2,0L29,20.7l-0.7,0.1c-0.3,0.1-0.7,0.2-1,0.2c-0.1,0-0.2,0-0.4,0
	c-0.5,0-1,0-1.4-0.2c-0.1,0-0.2-0.1-0.3-0.1c-0.1,0-0.1-0.1-0.2-0.1l-0.1-0.1c-0.2-0.1-0.5-0.3-0.7-0.5s-0.5-0.3-0.8-0.4
	c-0.6-0.3-1.3-0.3-2-0.2c-0.2,0.1-0.4,0.2-0.7,0.3c-0.2,0.1-0.4,0.2-0.6,0.4l-0.5,0.5l-0.2,0.2c-0.1,0.1-0.2,0.1-0.3,0.2l-0.7,0.2
	c-0.2,0.1-0.5,0.1-0.7,0.2s-0.7,0.2-1.1,0.3c-0.3,0.1-0.7,0.2-1,0.3l-0.9,0.3h-0.1h-0.1l-0.6,0.2l-0.2,0.1l-0.3,0.1
	c-0.4,0.1-0.9,0.1-1.3,0l-0.6-0.1c-0.2,0-0.4-0.1-0.6-0.1c-0.3,0-0.6,0-1,0c-0.1,0-0.2,0-0.3,0c-0.4,0-0.8,0.1-1.2,0.2
	c-0.2,0.1-0.5,0.1-0.7,0.2s-0.4,0.2-0.6,0.3s0.2,0.2,0.1,0.3c-0.1,0-0.2,0.1-0.3,0.1c-0.2,0.1-0.4,0.2-0.7,0.3s-0.4,0.2-0.6,0.2
	c-0.2,0.1-0.4,0.1-0.6,0.2c-0.4,0.2-0.9,0.2-1.4,0.3c-0.2,0-0.4,0-0.7,0c-0.2,0-0.4,0.1-0.6,0.1c-0.1,0-0.1,0-0.2,0.1
	C2,24.9,2,24.9,2,24.9C1.9,25,1.8,25,1.8,25.1c-0.1,0.5,0,0.9,0.2,1.3c0.1,0.2,0.1,0.4,0.2,0.6c0,0.4,0,0.7-0.1,1.1
	c-0.1,0.3-0.1,0.7,0,1c0.1,0.4,0.6,0.7,1,0.5l0,0c0.1,0,0.1,0.1,0.2,0.1c0.1,0,0.2,0,0.2-0.1h0.1h0.1c0,0,0-0.1,0.1-0.1
	c0,0,0.1,0.1,0.2,0.1c0.1,0,0.2,0,0.3,0l0.1-0.1c0.1,0.1,0.1,0,0.1,0c0.1,0,0.1,0.1,0.2,0.1h0.1h0.1c0,0,0,0,0.1,0h0.1
	c0-0.1,0.1-0.1,0.1-0.2s0-0.1,0-0.1s0,0,0-0.1s0-0.1-0.1-0.1C5,29.1,5,29.1,5,29l-0.1-0.1c-0.2-0.1-0.3-0.1-0.5-0.2
	c0.1-0.2,0.2-0.4,0.2-0.6s0.1-0.5,0.2-0.7v-0.1L5,27.1c0.1-0.1,0.1-0.2,0.2-0.2c0.1-0.1,0.3-0.1,0.4-0.2c0.4-0.1,0.8-0.2,1.2-0.3
	s0.8-0.2,1.2-0.3L8.4,26c0.2-0.1,0.4-0.1,0.6-0.1c0.7-0.1,1.4-0.2,2-0.2h0.5c0.1,0,0.3,0,0.4,0.1c0.3,0.1,0.7,0.2,1,0.2h0.3h0.3h0.6
	c0.4,0,0.8-0.1,1.2-0.1c0.8,0,1.6,0,2.4-0.1l1.2-0.1l1.1-0.1c0.4,0,0.8-0.1,1.1-0.2c0.4-0.1,0.7-0.1,1-0.2c0.5,0.1,0.9,0.3,1.4,0.4
	s1,0.2,1.5,0.2c0.2,0,0.4,0,0.6,0c0.3,0,0.7,0,1,0s0.7-0.1,1-0.1s0.6,0,0.9,0s0.9,0.2,1.3,0.3c0.1,0,0.1,0.1,0.1,0.1l0.1,0.1
	c0.1,0.1,0.3,0.2,0.5,0.2c0.1,0,0.2,0,0.3,0c0.1,0,0.2,0,0.3,0c0.4-0.1,0.9-0.3,1.2-0.6c0.2-0.2,0.5-0.5,0.7-0.7
	c0.2-0.2,0.2-0.2,0.2-0.2c0.1-0.2,0.3-0.3,0.5-0.5c0.1-0.1,0.2-0.1,0.3-0.2l0.1-0.1c0,0,0.1-0.1,0.2-0.1c0,0.8-0.1,1.7,0,2.5
	c0,0.4,0.1,0.8,0.1,1.2c0,0.4,0.1,0.8,0.1,1.1c0,0.2,0.1,0.4,0.2,0.6c0.1,0.2,0.4,0.3,0.6,0.2c0,0,0,0.1,0.1,0.1l0.1,0.1
	c0.1,0.1,0.2,0.1,0.3,0.1s0.2,0,0.3,0h0.3c0.2,0,0.4,0,0.7,0.1c0.5,0,0.9,0.1,1.4,0c0.2,0,0.4,0,0.7-0.1c0.4-0.1,0.9-0.1,1.3-0.1
	c0.1,0,0.2,0,0.4,0c0.1,0,0.2,0.1,0.3,0.1c0.1,0.1,0.2,0.1,0.2,0.1h0.1h0.1c0.1,0,0.1,0,0.2,0l0.6,0.1c0.1,0,0.2,0.1,0.4,0.1l0,0
	c0.1,0,0.1,0,0.2,0c0.2,0,0.4,0.1,0.6,0.1c0.1,0,0.2,0,0.3,0.1c0.1,0,0.2,0.1,0.3,0.1l0,0c0,0,0.1,0,0.1-0.1s0.1,0,0.1-0.1
	s-0.2-0.1-0.3-0.2V30l0,0l0,0l0.1,0.1h0.1l0,0c0.1,0,0.2,0.1,0.3,0s0.1,0,0.1,0V30c0,0,0.1,0,0.1-0.1L44.8,29.7
	C44.8,29.8,44.8,29.8,44.8,29.7c0-0.1,0-0.1,0-0.1c0.1,0,0.2,0,0.2,0h0.1C45,29.8,45,29.8,44.8,29.7C45,29.7,45,29.7,44.8,29.7z
	 M41.6,19.8L41.6,19.8L41.6,19.8L41.6,19.8z M41.3,17.9L41.3,17.9z M40.8,17.3L40.8,17.3z M41.1,18.3L41.1,18.3L41.1,18.3l0.2,0.1
	L41.1,18.3z M41.6,20.2L41.6,20.2L41.6,20.2L41.6,20.2L41.6,20.2L41.6,20.2z M41.5,19.8L41.5,19.8L41.5,19.8L41.5,19.8
	C41.5,19.8,41.5,19.7,41.5,19.8L41.5,19.8z M41.5,19L41.5,19L41.5,19z M41.5,18.8L41.5,18.8z M41.5,18.4L41.5,18.4L41.5,18.4
	l-0.2-0.1L41.5,18.4L41.5,18.4L41.5,18.4L41.5,18.4z M41.6,18.4L41.6,18.4L41.6,18.4L41.6,18.4L41.6,18.4L41.6,18.4L41.6,18.4
	L41.6,18.4z M41.5,18.4L41.5,18.4L41.5,18.4L41.5,18.4L41.5,18.4L41.5,18.4z M41.3,17.9L41.3,17.9z M41.3,18.2L41.3,18.2
	c-0.1,0-0.2,0-0.2-0.1L41.3,18.2z M41.3,17.8L41.3,17.8L41.3,17.8L41.3,17.8L41.3,17.8z M41.3,18.2L41.3,18.2l-0.1-0.1l0,0
	C41.1,18.2,41.1,18.2,41.3,18.2L41.3,18.2z M43.3,30.2L43,30.1C43.1,30.1,43.3,30.1,43.3,30.2c0-0.1,0.1-0.1,0.2-0.1h0.1
	C43.5,30.2,43.3,30.2,43.3,30.2L43.3,30.2z M43.6,30.3L43.6,30.3z"/>
</svg>
