<?xml version="1.0" encoding="utf-8"?>
<!-- Generator: Adobe Illustrator 23.1.0, SVG Export Plug-In . SVG Version: 6.00 Build 0)  -->
<svg version="1.1" id="icons" xmlns="http://www.w3.org/2000/svg" xmlns:xlink="http://www.w3.org/1999/xlink" x="0px" y="0px"
	 viewBox="0 0 47 47" style="enable-background:new 0 0 47 47;" xml:space="preserve">
<style type="text/css">
	.st0{fill:#E6E6E6;}
	.st1{fill:#BC8F80;}
	.st2{fill:#9B7267;}
	.st3{fill:#DB4545;}
	.st4{fill:#BC3333;}
</style>
<title>PlayingCatch</title>
<title>PlayingCatch</title>
<g id="Playing_Catc">
	<ellipse class="st0" cx="23.5" cy="23.5" rx="23" ry="22.8"/>
	<path class="st1" d="M0.6,23.2c0.5-1.8,1.2-3.6,2.1-5.2c1-1.7,2.3-3.1,3.8-4.2c1.7-0.8,3.4-1.6,5.3-1.9c1.8-0.4,3.7-0.6,5.6-0.6
		c1.9-0.1,3.7,0,5.6,0c1.8,0,3.6-0.1,5.5-0.4c1.8-0.2,3.6-0.7,5.2-1.6c0.8-0.4,1.5-1.1,2.1-1.7c0.5-0.7,0.8-1.6,1-2.4l0,0
		c0,1-0.2,1.9-0.7,2.8c-0.5,0.8-1.3,1.5-2.1,2c-1.7,0.8-3.5,1.5-5.3,1.7c-1.8,0.3-3.7,0.3-5.6,0.2c-1.9,0-3.7-0.2-5.6-0.2
		c-1.8,0-3.7,0.1-5.5,0.5c-1.8,0.4-3.5,1.2-5,2.2C4.1,16.6,2,19.7,0.6,23.2z"/>
	<path class="st2" d="M11.2,42.5c3.4,0.4,6.8,0,10.1-1.2c3.2-1.3,6-3.2,8.3-5.8c1.3-1.3,2.2-2.7,3.5-3.8c1.2-1.3,2.4-2.4,3.7-3.5
		c1.4-1.2,3-2,4.6-2.7c0.8-0.3,1.7-0.5,2.7-0.6c0.8-0.1,1.8,0.1,2.4,0.6l0,0c-0.7-0.4-1.6-0.5-2.4-0.4c-0.8,0.1-1.6,0.3-2.3,0.7
		c-1.5,0.7-3,1.6-4.3,2.7c-1.4,1.2-2.7,2.2-3.7,3.4c-1.3,1.3-2.3,2.4-3.6,3.7c-2.4,2.4-5.3,4.5-8.5,6C18.2,43,14.6,43.2,11.2,42.5z"
		/>
	<path class="st3" d="M34.4,4.9c0.5,0.2,1,0.5,1.3,1C36,6.3,36.2,7,36.1,7.5l-0.4-0.4C36.1,7,36.5,7,37,7s0.7,0.1,1.2,0.4H37
		c-0.3,0-0.6,0.1-1,0.2l-0.5,0.2v-1c0-0.2-0.1-0.4-0.2-0.6C35.1,5.7,34.7,5.3,34.4,4.9z"/>
	<path class="st3" d="M32.2,6.7c0.4,0.4,0.8,1,1,1.5c0.1,0.3,0.1,0.5,0.1,0.8c0,0.3,0,0.6-0.1,0.8l-0.4-0.4c0.5-0.1,1.1-0.1,1.6,0
		c0.5,0.2,1.1,0.5,1.5,0.8c-0.5-0.1-1-0.1-1.5-0.2c-0.4,0-1,0-1.4,0.1l-0.6,0.1l0.1-0.5c0.1-0.2,0.1-0.5,0.1-0.7V8.4
		C32.6,7.8,32.4,7.3,32.2,6.7z"/>
	<path class="st3" d="M29.4,7.6C30,8,30.2,8.7,30.3,9.3c0,0.6-0.1,1.3-0.5,1.9l-0.2-0.5c0.3,0,0.6,0,0.8,0.1
		c0.2,0.1,0.4,0.2,0.6,0.4c0.4,0.3,0.7,0.7,0.8,1.3c-0.3-0.3-0.7-0.6-1.2-0.8c-0.2,0.1-0.4,0-0.6-0.1c-0.2-0.1-0.4-0.1-0.6-0.1h-0.6
		l0.2-0.5c0.3-0.4,0.4-1,0.5-1.5C29.8,8.8,29.7,8.1,29.4,7.6z"/>
	<path class="st3" d="M26.6,8.9c0.2,0.4,0.3,1,0.1,1.5c0,0.5-0.2,1.1-0.6,1.4v-0.5c0.4,0.4,0.6,0.7,1,1.2c0.3,0.4,0.4,0.8,0.5,1.4
		c-0.3-0.8-1.1-1.5-1.9-1.9l-0.2-0.4l0.4-0.2C26.5,10.6,26.8,9.7,26.6,8.9z"/>
	<path class="st3" d="M23.5,9.4c0.1,0.4,0.1,0.8,0,1.3c0,0.2-0.1,0.4-0.2,0.6c-0.1,0.2-0.4,0.4-0.5,0.5l0.1-0.5
		c0.3,0.3,0.6,0.7,0.7,1.3c0.2,0.4,0.3,1,0.2,1.5c-0.4-0.8-0.8-1.7-1.5-2.3l-0.2-0.4l0.4-0.1c0.1-0.1,0.2-0.1,0.4-0.2
		c0.2-0.1,0.2-0.2,0.2-0.4L23.5,9.4z"/>
	<path class="st3" d="M19.8,9.2c0.1,0.3,0.1,0.7,0.1,1.2c-0.1,0.4-0.3,0.8-0.6,1.2v-0.4c0.2,0.5,0.3,1,0.4,1.5c0,0.5,0,1.1-0.2,1.5
		c-0.1-1-0.3-1.8-0.6-2.8v-0.1l0.1-0.1c0.2-0.2,0.4-0.5,0.6-0.7C19.7,9.9,19.7,9.6,19.8,9.2z"/>
	<path class="st3" d="M16.5,9.1c0.2,0.4,0.2,1,0.1,1.4c-0.1,0.2-0.1,0.5-0.4,0.6c-0.2,0.1-0.4,0.4-0.5,0.5l0.1-0.4
		c0.2,0.4,0.4,1,0.5,1.5s0,1.1-0.2,1.5c0-0.4-0.1-1-0.2-1.4c-0.1-0.4-0.3-0.8-0.5-1.3l-0.1-0.2l0.2-0.1l0.4-0.4
		c0.1-0.1,0.2-0.4,0.4-0.5C16.4,9.9,16.5,9.5,16.5,9.1z"/>
	<path class="st3" d="M12.6,9.3c0.3,0.4,0.4,0.8,0.5,1.4c0,0.2-0.1,0.5-0.1,0.7c-0.2,0.2-0.4,0.5-0.6,0.6l0.1-0.4
		c0.2,0.4,0.3,0.8,0.4,1.4c0,0.4,0,1-0.2,1.4c0-0.4,0-1-0.1-1.4c-0.2-0.3-0.4-0.7-0.6-1.2v-0.2l0.1-0.1l0.4-0.4
		c0.1-0.1,0.1-0.4,0.2-0.5V9.3H12.6z"/>
	<path class="st3" d="M9.2,9.9c0.4,0.3,0.6,0.8,0.6,1.4s-0.1,1.1-0.4,1.6v-0.2C9.7,13,9.8,13.4,9.9,14c0.1,0.4,0.1,1,0,1.4
		c-0.1-0.4-0.2-0.8-0.4-1.3c-0.1-0.4-0.3-0.7-0.6-1l-0.1-0.2l0.1-0.1c0.2-0.4,0.3-0.8,0.4-1.4S9.4,10.4,9.2,9.9z"/>
	<path class="st3" d="M6.1,11.4c0.4,0.3,0.7,0.7,0.8,1.3s0.1,1.1,0,1.6L6.9,14c0.3,0.3,0.7,0.7,1,1.2c0.2,0.4,0.3,1,0.2,1.5
		c-0.1-0.4-0.4-0.8-0.7-1.2c-0.3-0.3-0.6-0.6-1-0.8l-0.1-0.1v-0.2c0.1-0.4,0.1-1,0.1-1.4C6.3,12.4,6.2,11.8,6.1,11.4z"/>
	<path class="st3" d="M3.6,13.5c0.4,0.3,0.7,0.6,1,1.2c0.2,0.4,0.3,1,0.2,1.5L4.6,16c0.3,0.3,0.7,0.7,1,1.2c0.3,0.3,0.5,0.8,0.5,1.4
		c-0.2-0.4-0.5-0.7-0.8-1.2c-0.3-0.3-0.6-0.6-1-0.8l-0.1-0.1v-0.1c0-0.4,0-0.8-0.1-1.3C4,14.4,3.9,14,3.6,13.5z"/>
	<path class="st3" d="M2,16.5c0.4,0,0.7,0.4,1,0.7c0.1,0.4,0.2,0.8,0.2,1.3L3,18.3c0.4,0.2,0.7,0.5,1,0.8c0.2,0.3,0.4,0.7,0.6,1.2
		c-0.3-0.2-0.6-0.4-0.8-0.7C3.5,19.3,3,19,2.6,18.8l-0.2-0.1v-1.3C2.5,17,2.3,16.7,2,16.5z"/>
	<path class="st3" d="M1.3,21.1l1.2,0.4c0.3,0.2,0.6,0.4,0.8,0.7c-0.5-0.4-1.2-0.6-1.9-0.5L1.3,21.1z"/>
	<path class="st3" d="M0.6,24.1h1.3c0.3,0.1,0.7,0.2,1,0.5c-0.6-0.4-1.4-0.4-2,0L0.6,24.1z"/>
	<path class="st4" d="M44.6,22.5c0.2,0.4,0.3,0.8,0.2,1.3c0,0.4-0.1,0.8-0.4,1.3l-0.1-0.4c0.3,0.2,0.6,0.5,0.7,0.8
		c0.2,0.3,0.2,0.7,0.1,1.2c-0.1-0.2-0.4-0.6-0.5-0.8c-0.1-0.2-0.5-0.4-0.7-0.6l-0.2-0.1l0.1-0.2c0.1-0.3,0.2-0.6,0.4-1
		C44.4,23.5,44.6,23.1,44.6,22.5z"/>
	<path class="st4" d="M40.9,23c0.3,0.4,0.5,0.8,0.6,1.4v0.7c0,0.3-0.1,0.5-0.4,0.7v-0.5c0.3,0.2,0.6,0.5,0.8,0.8
		c0.3,0.3,0.4,0.7,0.5,1.2c-0.5-0.5-1.2-1.1-1.7-1.5l-0.3-0.1l0.1-0.2c0.1-0.1,0.1-0.4,0.2-0.5c0.1-0.1,0.1-0.4,0.1-0.6
		C41,23.9,41,23.4,40.9,23z"/>
	<path class="st4" d="M37.7,23.8c0.4,0.3,0.7,0.8,0.8,1.5c0.1,0.5,0.1,1.2,0,1.7l-0.2-0.3c0.2,0.1,0.4,0.1,0.5,0.2l0.4,0.4
		c0.2,0.3,0.4,0.6,0.5,1c-0.2-0.3-0.5-0.5-0.8-0.6c-0.1-0.1-0.2-0.1-0.4-0.2c-0.1-0.1-0.2-0.1-0.4-0.1h-0.2v-0.2
		c0.1-0.5,0.1-1,0.1-1.5C38.1,25,38,24.3,37.7,23.8z"/>
	<path class="st4" d="M34.8,25.6c0.2,0.2,0.4,0.4,0.5,0.7c0.1,0.3,0.2,0.5,0.2,0.8c0.1,0.6,0.1,1.3,0.1,1.9l-0.2-0.4
		c0.5,0,1,0.2,1.4,0.5c0.4,0.2,0.7,0.6,0.8,1.2c-0.3-0.3-0.7-0.6-1.2-0.7c-0.4-0.1-0.8-0.2-1.3-0.2h-0.1v-2
		C35.3,26.7,35.2,26.2,34.8,25.6z"/>
	<path class="st4" d="M31.9,27.3c0.5,0.5,0.8,1.2,1.2,1.9c0.2,0.7,0.3,1.5,0.4,2.2l-0.2-0.2c0.5,0.1,1,0.2,1.4,0.5
		c0.5,0.2,0.8,0.5,1.2,1c-0.4-0.3-0.7-0.5-1.3-0.6c-0.4-0.1-0.8-0.2-1.4-0.2h-0.2v-0.2c0-0.7-0.1-1.4-0.2-2.1
		C32.4,28.7,32.2,28,31.9,27.3z"/>
	<path class="st4" d="M29.8,30.8c0.5,0.2,0.8,0.6,1.2,1.2c0.2,0.4,0.4,1,0.6,1.5l-0.2-0.2c0.4,0.1,0.8,0.3,1.3,0.5s0.6,0.5,0.8,0.8
		c-0.6-0.4-1.5-0.7-2.2-0.8h-0.1v-0.1c-0.1-0.5-0.4-1-0.5-1.4C30.4,31.7,30.2,31.1,29.8,30.8z"/>
	<path class="st4" d="M27.4,33.3c0.5,0.1,1,0.5,1.3,1c0.3,0.4,0.5,1,0.6,1.5l-0.4-0.2c0.5-0.1,1.1,0,1.6,0.1c0.5,0.1,1,0.3,1.3,0.7
		l-1.4-0.4h-1.6v-0.2c-0.1-0.4-0.3-1-0.5-1.4C28.1,34,27.8,33.6,27.4,33.3z"/>
	<path class="st4" d="M25.4,35.2c0.4,0.3,0.7,0.8,1,1.4c0.2,0.5,0.3,1.2,0.2,1.7l-0.2-0.4c0.5,0,1.1,0.1,1.5,0.4
		c0.4,0.1,1,0.4,1.3,0.7c-0.8-0.3-1.8-0.4-2.8-0.5h-0.2v-0.2c0-0.5,0-1-0.1-1.5C25.8,36.2,25.6,35.7,25.4,35.2z"/>
	<path class="st4" d="M22.8,37.1c0.5,0.3,0.8,0.8,1,1.5c0.1,0.5,0.1,1.2,0.1,1.7l-0.3-0.3c0.4,0,1,0.1,1.4,0.2
		c0.4,0.2,0.7,0.4,1,0.7l-1.3-0.3c-0.3-0.1-0.7-0.1-1.1-0.1h-0.4v-1.9C23.1,38.1,23,37.6,22.8,37.1z"/>
	<path class="st4" d="M19.8,38.8c0.3,0.4,0.6,1.1,0.7,1.6s0,1.2-0.1,1.7l-0.2-0.4c0.5,0.1,1.1,0.3,1.5,0.5s0.8,0.5,1.2,1
		c-0.4-0.3-0.8-0.5-1.4-0.6c-0.4-0.1-1-0.2-1.4-0.2h-0.4l0.1-0.4c0.1-0.5,0.2-1,0.2-1.5C20,39.9,19.9,39.3,19.8,38.8z"/>
	<path class="st4" d="M16.5,39.5c0.3,0.5,0.4,1.1,0.5,1.6c0,0.3,0,0.6-0.1,0.8c-0.1,0.3-0.2,0.6-0.4,0.8l-0.1-0.5
		c0.4,0.2,0.8,0.5,1.3,0.8c0.4,0.3,0.7,0.6,1,1.2c-0.4-0.3-0.8-0.5-1.3-0.7l-1.3-0.6l-0.2-0.2l0.2-0.4c0.1-0.2,0.3-0.4,0.4-0.6
		c0.1-0.2,0.1-0.5,0.1-0.7C16.6,40.5,16.6,39.9,16.5,39.5z"/>
	<path class="st4" d="M12.4,42.6c0.2-0.4,0.4-0.8,0.5-1.3c0.1-0.4,0.1-1,0-1.4c0.2,0.4,0.3,0.8,0.2,1.4c0,0.4-0.1,1-0.2,1.4
		L12.4,42.6z"/>
	<path class="st4" d="M9.3,41.3c0.3-0.6,0.4-1.2,0.5-1.9c0.1,0.7,0.1,1.4,0,2.1L9.3,41.3z"/>
</g>
</svg>
