<?xml version="1.0" encoding="utf-8"?>
<!-- Generator: Adobe Illustrator 23.1.0, SVG Export Plug-In . SVG Version: 6.00 Build 0)  -->
<svg version="1.1" id="icons" xmlns="http://www.w3.org/2000/svg" xmlns:xlink="http://www.w3.org/1999/xlink" x="0px" y="0px"
	 viewBox="0 0 47 47" style="enable-background:new 0 0 47 47;" xml:space="preserve">
<style type="text/css">
	.st0{fill:#334A61;}
</style>
<title>Plyometrics</title>
<path class="st0" d="M41,12.8c-1.5-2.1-3.3-4.1-5.2-5.9c-2.1-1.5-4.5-2.4-7.1-2.6c-0.8,0-1.8-0.1-2.6-0.3c-0.2,0-0.3,0.2-0.6,0.2
	C25.3,4,25.1,4,25.1,3.9c0-0.1-1.3-1.7-1.5-2c-0.2-0.3-0.1-0.7-0.6-0.8c-0.3,0-0.7,0-1.1,0c0,0-0.2-0.4-1.3,0
	c-0.8,0.2-1.6,0.8-2,1.7c-0.4,0.7-0.5,1.2-0.8,1.6s-0.3,0.9-0.5,0.9S17.2,5.5,17,5.5s0,0.3,0,0.3h0.3l0.3,0.4l1.1,0.2
	c0.2,0.2,0.4,0.4,0.5,0.6s0.2,0.4,0.5,0.5c0.2,0,0.4,0,0.4,0.2c0,0.3,0.1,0.6,0.3,0.9c0,0.2-0.1,0.3-0.2,0.4
	c-0.2,0.1-2.3,1.3-3.2,1.9c-0.9,0.6-3.6,3.2-4.3,3.9c-0.7,0.7-1.2,1.2-1.5,1.3c-0.6,0-1.2,0.2-1.7,0.3C9.1,16.8,8.1,17.3,8,18
	c-0.1,0.5-0.3,0.9-0.6,1.4c-0.2,0.4,0.1,0.6,0.2,0.4s0.3-0.4,0.3-0.4s-0.4,0.8-0.1,0.8c0.3,0,0.3-0.3,0.5-0.6l0.2-0.2
	c0,0,0.1,0.9,0.3,0.8s0.3-0.3,0.3-0.6c0-0.2,0.2-0.3,0.4-0.3c0.3,0.1,0.7,0.1,1.1,0c0.5-0.1,1.1-0.4,1.4-0.9
	c0.3-0.4,0.5-0.5,0.8-0.7c0.3-0.2,4.3-2.3,4.3-2.3s-4.2,4.5-4.7,4.7c-0.5,0.2-1.3,0.3-2,0.5c-0.7,0.2-1.3,0.5-1.6,0.5
	c-0.3,0-0.6,0.5-0.8,0.6c-0.2,0.1,0.2,0.2,0.5,0c0.3-0.1,0.5-0.3,0.8-0.4l-1.2,1.1c0,0,0.2,0.4,0.6,0c0.4-0.4,0.8-0.7,1.4-1.1
	c0.1-0.1-0.1,0.6,0.2,0.6c0.4,0,0.4-0.4,0.5-0.4c0.1,0,0.1,0.5,0.5,0.4c0.3-0.1,0.4-0.6,0.6-0.5c0.3,0.1,0.2,0.4,0.7,0.4
	c0.5,0,0.8,0.1,0.8-0.3c0-0.3,0.1-0.6,0.3-0.8c0.9-0.1,1.9-0.4,2.8-0.8c1.3-0.9,2.5-2,3.6-3.2c0.8-0.7,1.7-1.4,2.6-1.9
	c0.5-0.4,1.6-1.5,1.6-1.5c-0.1,0.4-0.2,0.8-0.3,1.3c-0.5,1.2-0.7,2.5-0.7,3.8c0.2,1.7,0.6,5.9,0.6,6.1c0,0.2-0.1,0.4-0.5,0.7
	c-0.3,0.3-0.7,0.5-1.1,0.7c-0.9,0.1-1.9,0.1-2.7,0c-0.8-0.1-1.1-0.3-1.3,0.1c-0.2,0.4-0.3,0.7,0.1,1.1c0.6,0.4,1.3,0.7,2,1.1
	c0.3,0.1,2.6,0.4,3.7,0.6l0.3,0.1H12.5v16.6h15V29.3c0.2-0.2,0.2-0.5,0.2-1.4v-1.5c-0.1-0.1-0.2-0.3-0.3-0.3c-0.1-2,0-4,0.3-6
	c0.3-0.3,0.6-0.7,0.8-1.2c1.5,0.6,2.8,1.3,4.2,2c1.6,0.5,3.2,0.8,4.8,0.7c1.5-0.3,2.7-1.4,3.5-2.7C42,17.5,41.6,13.7,41,12.8z"/>
</svg>
