<?xml version="1.0" encoding="utf-8"?>
<!-- Generator: Adobe Illustrator 23.1.0, SVG Export Plug-In . SVG Version: 6.00 Build 0)  -->
<svg version="1.1" id="icons" xmlns="http://www.w3.org/2000/svg" xmlns:xlink="http://www.w3.org/1999/xlink" x="0px" y="0px"
	 viewBox="0 0 47 47" style="enable-background:new 0 0 47 47;" xml:space="preserve">
<style type="text/css">
	.st0{fill:#334A61;}
	.st1{opacity:0.3;fill:#334A61;enable-background:new    ;}
	.st2{opacity:0.2;fill:#334A61;enable-background:new    ;}
</style>
<title>Pogo Stick</title>
<g id="jump_rope">
	<path class="st0" d="M25.7,34.1c0,0.3-0.1,0.6-0.1,1.1c0,0.1,0,0.1,0,0.2c0,0.1,0,0.2,0,0.3c-0.2,1.2-0.5,2.4-0.5,3.7
		c0,0.1,0,0.1,0,0.2c0,0.2,0.1,0.3,0.1,0.5c0.1,0.3,0.2,1.3,0.2,1.6c0,0.1,0,0.2,0,0.3c0,0.1,0,0.2,0,0.3v0.1l0,0v0.1
		c0,0.2-0.1,0.4-0.1,0.5c-0.1,0.3-0.5,0.5-0.9,0.5c-0.4,0-0.7-0.2-0.8-0.5c-0.1-0.2-0.1-0.4-0.1-0.5v-0.1l0,0v-0.1v-0.1
		c0-0.2,0-0.9,0-1.1c0-0.1,0.1-0.6,0.1-0.8s0-0.3,0-0.5v-0.1c0-0.8,0-2.3,0-3.8v-0.7c0-2.3,0-4.7,0-6v-0.7h2.1h0.1
		c0,0.1,0,0.3,0,0.4v0.3C26,30.4,26,33,25.7,34.1z"/>
	<path class="st0" d="M23.1,42.9c-0.1,0.3-0.5,0.5-0.8,0.5s-0.7-0.2-0.9-0.5c-0.1-0.2-0.1-0.4-0.1-0.5v-0.1v-0.1c0,0,0-0.2,0-0.3
		c0-0.1,0-0.2,0.1-0.3c0.1-0.3,0.2-1.3,0.2-1.6c0-0.2,0.1-0.3,0.1-0.5c0-0.1,0-0.1,0-0.2c0-1.3-0.2-2.4-0.5-3.7c0-0.1,0-0.2,0-0.3
		v-0.1c-0.1-0.4-0.1-0.7-0.1-1.1C21,33,21,30.4,21,29.1v-0.3c0-0.2,0-0.4,0-0.4h2.2l0,0c0,0,0,0.2,0,0.5v0.3c0,1.3,0,3.7,0,6v0.5
		c0,1.5,0,2.8,0,3.8v0.1c0,0.1,0,0.3,0,0.5s0.1,0.6,0.1,0.8c0,0.1,0,0.6,0,0.7s0,0.2,0,0.3c0,0.1,0,0.3,0,0.4v0.1
		C23.1,42.6,23.1,42.8,23.1,42.9z"/>
	<path class="st0" d="M23.5,46.1c-6.8,0-12.3-12.7-12.3-28.4c0-0.4,0.2-0.7,0.6-0.9c0.4-0.1,0.7-0.1,1.1,0.1L12.7,17
		c-0.2-0.1-0.5-0.2-0.7-0.1c-0.2,0.2-0.4,0.4-0.4,0.7c0,15.5,5.4,28.1,12,28.1s11.8-12.6,12-28.1c0-0.3-0.1-0.5-0.4-0.7
		c-0.2-0.1-0.5,0-0.7,0.1l-0.2-0.2c0.2-0.2,0.7-0.2,0.9-0.1c0.4,0.2,0.6,0.5,0.6,0.9c0.1,6.8-1.1,13.6-3.5,20
		C29.8,43.1,26.8,46.1,23.5,46.1z"/>
	<path class="st0" d="M25.3,7.7c-0.5-0.1-0.8-0.3-0.8-0.6V6.3h-2v0.8c0,0.2-0.4,0.5-0.8,0.6c0.5,0.4,1.2,0.6,1.9,0.6
		C24.1,8.3,24.8,8,25.3,7.7z"/>
	<polygon class="st0" points="26.8,8 25.8,8.8 23.5,11.3 21,8.8 20.2,8 21,7.8 21.4,7.7 21.5,7.7 21.6,7.7 25.3,7.7 25.5,7.7 
		26,7.8 	"/>
	<path class="st1" d="M24.4,6.3v0.3c-0.2,0.1-0.6,0.3-0.9,0.3c-0.4,0-0.7-0.2-0.9-0.4V6.3H24.4z"/>
	<path class="st0" d="M25.5,3.6c0.1-0.1,0.1-0.2,0.2-0.3c0.1-0.1-0.1,1.4-0.4,1.6C25.4,4.4,25.5,4,25.5,3.6z"/>
	<path class="st0" d="M21.4,3.6c-0.1-0.1-0.1-0.2-0.2-0.3c-0.1-0.1,0.1,1.4,0.4,1.5C21.5,4.4,21.5,4,21.4,3.6z"/>
	<path class="st0" d="M25.6,2.6c0-0.4-0.1-1.6-2.2-1.6l0,0c-2,0-2.1,1.3-2.1,1.6c0,1.1,0.2,2,0.5,3c0.4,0.6,0.9,1.1,1.6,1.2l0,0
		c0.7-0.1,1.4-0.5,1.8-1.2C25.5,4.6,25.6,3.6,25.6,2.6z"/>
	<path class="st0" d="M26.5,11.7c-0.4-0.4-0.6-0.8-0.8-1.4c-0.1-0.8,0-1.7,0.1-2.5L26.7,8C27.2,8.2,26.9,10,26.5,11.7z"/>
	<path class="st0" d="M21.2,10.4c-0.2,0.5-0.5,0.9-0.8,1.4C20,10,19.7,8.2,20.2,8l0,0l0.7-0.2C21.2,8.6,21.3,9.5,21.2,10.4z"/>
	<path class="st0" d="M20.6,17.3c0.4-0.7,0.6-1.6,0.6-2.4c-0.1-0.3-0.4-1.1-0.5-2c-0.1-0.4-0.1-0.8-0.2-1.3c0.2-0.4,0.4-0.8,0.4-1.3
		c0.1-0.5,0.1-1.1,0.2-1.6c0-0.3,0-0.7,0-1.1l0,0l0.5-0.1l0,0c0,0,0.6,2.2,2,2.2c1.4,0,1.9-1.9,2-2.2l0,0L26,7.8l0,0
		c0,0.3,0,0.7,0,1.1c0,0.5,0.1,1.1,0.2,1.6c0,0.4,0.1,0.8,0.4,1.2c0,0.2,0,0.4,0,0.5s0,0.3-0.1,0.4l-0.1,0.3l-0.1,0.4l-0.1,0.4
		c0,0.3-0.1,0.5-0.2,0.7l0,0c0,0.1,0,0.2-0.1,0.3c-0.1,0.1,0,0.1,0,0.1c0,0.1,0,0.3,0,0.4c0,0.1,0,0.3,0.1,0.4c0,0.1,0,0.1,0,0.2
		c0,0.2,0.1,0.5,0.2,0.7s0.1,0.4,0.2,0.6c0.2,0.5,0.5,1.2,0.6,1.7h-7C20.1,18.4,20.3,17.9,20.6,17.3z"/>
	<path class="st2" d="M26.3,12.8C26.2,13.5,26,14,26,14.4l-5.3,2.8c0.4-0.7,0.6-1.6,0.6-2.4c-0.1-0.3-0.4-1.1-0.5-2
		c0.9,0.4,1.9,0.3,2.8-0.1C24.3,13.3,25.5,13.3,26.3,12.8z"/>
	<path class="st0" d="M33.2,16.8c-0.2-0.1-0.5-0.1-0.7,0c-0.1,0-0.1,0-0.2,0c0,0-3.5-2.3-3.6-2.5S27.6,9,27.6,8.8
		c-0.2-0.6-0.9-1.1-1.8-1.1l0.6,3.9c0,0,0.6,2.9,0.7,3.5c1.4,0.8,2.9,1.7,4.5,2.3c0.1,0,0.1,0.1,0.2,0.1c0.2,0.3,0.4,0.6,0.7,0.8
		c0.4,0.2,1.2-0.5,1.3-0.7C33.8,17.5,33.6,17.1,33.2,16.8z"/>
	<path class="st0" d="M13.7,16.8c0.2-0.1,0.5-0.1,0.7,0c0.1,0,0.2,0,0.2,0s3.5-2.3,3.6-2.5c0.1-0.2,1.1-5.3,1.1-5.5
		c0.2-0.6,0.9-1.1,1.8-1.1l-0.5,3.9c0,0-0.6,2.9-0.7,3.5c-1.4,0.8-2.9,1.7-4.5,2.3c-0.1,0-0.1,0.1-0.2,0.1c-0.2,0.3-0.4,0.6-0.7,0.8
		c-0.4,0.2-1.2-0.5-1.3-0.7C13.2,17.5,13.4,17.1,13.7,16.8z"/>
	<path class="st0" d="M34.3,17.4l-2.1,1.2c-0.1,0.1-0.4,0-0.5-0.1l0,0v-0.1c-0.1-0.1,0-0.3,0.1-0.4l2-1.1c0.1-0.1,0.4,0,0.4,0.1l0,0
		V17C34.4,17.1,34.4,17.4,34.3,17.4z"/>
	<path class="st0" d="M12.7,17.4l2,1.2c0.1,0.1,0.4,0,0.5-0.1l0,0v-0.1c0.1-0.1,0-0.3-0.1-0.4l-2-1.1c-0.1-0.1-0.4,0-0.4,0.1l0,0V17
		C12.5,17.1,12.6,17.4,12.7,17.4z"/>
	<path class="st0" d="M25.6,42.4c0,0.2-0.1,0.4-0.2,0.5c-0.1,0.3-0.5,0.5-0.9,0.5c-0.4,0-0.7-0.2-0.8-0.5c-0.1-0.1-0.1-0.3-0.1-0.5
		v-0.1l0,0v-0.1v-0.1c0-0.2,0-0.9,0-1.1s0.1-0.6,0.1-0.8c0-0.1,0-0.1,0-0.2c0,0.3,0,0.6,0.1,0.8c0,0,0,0.1,0.1,0.1
		c0.4,0.1,0.7,0.1,1.2,0c0,0,0,0,0.1-0.1c0.1-0.3,0.1-0.6,0.1-0.8c0,0.1,0.1,0.1,0.1,0.2c0.1,0.3,0.2,1.3,0.2,1.6c0,0.1,0,0.2,0,0.3
		C25.6,42.2,25.6,42.3,25.6,42.4C25.5,42.2,25.5,42.3,25.6,42.4L25.6,42.4C25.5,42.3,25.6,42.4,25.6,42.4z"/>
	<path class="st0" d="M25,40.7c-0.4,0.1-0.7,0.1-1.2,0c0,0-0.1-0.6,0-0.7c0.1-0.1,1.1-0.2,1.2,0C25.1,40.2,24.9,40.6,25,40.7z"/>
	<path class="st0" d="M25,41.5L25,41.5l-0.9-0.3H24v-0.1l0,0L25,41.5C25,41.4,25,41.5,25,41.5L25,41.5z"/>
	<path class="st0" d="M24,41.5L24,41.5L24,41.5l1.1-0.4c0,0,0,0,0.1,0 M25.1,41.2l-1.1,0.3L25.1,41.2z"/>
	<path class="st0" d="M25,41.9L25,41.9l-0.9-0.3c0,0,0,0,0-0.1h0.1L25,41.9C25.1,41.9,25.1,41.9,25,41.9C25.1,41.9,25,41.9,25,41.9z
		"/>
	<path class="st0" d="M24,42L24,42C24,41.9,24,41.9,24,42l1.1-0.4 M25,41.5C25.1,41.5,25.1,41.5,25,41.5L24,42l0,0L25,41.5z"/>
	<path class="st0" d="M25,42.3L25,42.3L24.1,42c0,0,0,0,0-0.1c0-0.1,0,0,0.1,0L25,42.3C25.1,42.2,25.1,42.2,25,42.3L25,42.3z"/>
	<path class="st0" d="M24,42.3L24,42.3C23.8,42.3,23.8,42.2,24,42.3c-0.1-0.1,0-0.1,0-0.1l1.1-0.3c0,0,0,0,0.1,0V42L24,42.3L24,42.3
		z"/>
	<path class="st0" d="M21.3,42.4c0,0.2,0.1,0.4,0.1,0.5c0.1,0.3,0.5,0.5,0.9,0.5c0.4,0,0.7-0.2,0.8-0.5c0.1-0.2,0.1-0.4,0.1-0.5
		v-0.1l0,0v-0.1v-0.1c0-0.2,0-0.9,0-1.1s-0.1-0.6-0.1-0.8c0-0.1,0-0.1,0-0.2c0,0.3,0,0.6-0.1,0.8c0,0,0,0.1-0.1,0.1
		c-0.4,0.1-0.7,0.1-1.2,0c0,0-0.1,0-0.1-0.1c-0.1-0.1-0.1-0.5-0.1-0.8c0,0.1,0,0.1-0.1,0.2c-0.1,0.3-0.2,1.3-0.2,1.6
		c0,0.1,0,0.2-0.1,0.3c-0.1,0.1,0,0.2,0,0.3C21,42.5,21.3,42.3,21.3,42.4L21.3,42.4L21.3,42.4z"/>
	<path class="st0" d="M21.9,40.7c0.4,0.1,0.7,0.1,1.2,0c0,0,0.1-0.6,0-0.7c-0.1-0.1-1.1-0.2-1.2,0C21.7,40.2,21.9,40.6,21.9,40.7z"
		/>
	<path class="st0" d="M21.9,41.5L21.9,41.5l1.1-0.3c0,0,0,0,0-0.1c0,0,0,0-0.1,0L21.9,41.5 M21.7,41.5L21.7,41.5L21.7,41.5z"/>
	<path class="st0" d="M22.8,41.5C22.8,41.5,22.9,41.5,22.8,41.5 M22.9,41.5l-1.1-0.3c0,0,0,0-0.1,0 M21.9,41.2l1.1,0.3L21.9,41.2z"
		/>
	<path class="st0" d="M21.9,41.9L21.9,41.9l1.1-0.3 M22.8,41.4l-1.1,0.3c0,0,0,0,0,0.1l0,0L22.8,41.4z"/>
	<path class="st0" d="M22.8,42C22.8,42,22.9,42,22.8,42C22.9,41.9,22.9,41.9,22.8,42l-0.9-0.4h-0.1 M21.9,41.5l1.1,0.3L21.9,41.5z"
		/>
	<path class="st0" d="M21.9,42.3L21.9,42.3l1.1-0.3c0,0,0,0,0-0.1h-0.1L21.9,42.3 M21.7,42.3L21.7,42.3L21.7,42.3z"/>
	<path class="st0" d="M22.8,42.3C22.8,42.3,22.9,42.3,22.8,42.3C22.9,42.3,22.9,42.2,22.8,42.3c0.1-0.1,0-0.1,0-0.1l-1.1-0.3h-0.1
		V42l0,0L22.8,42.3L22.8,42.3z"/>
	<path class="st0" d="M32.6,18.5c0.2,0.1,1.2-0.5,1.3-0.7c0-0.2-0.1-0.3-0.4-0.3c0,0,0,0-0.1,0c-0.4,0.1-0.7,0.3-0.9,0.5
		C32.5,18.2,32.5,18.5,32.6,18.5z"/>
	<path class="st0" d="M14.4,18.5c-0.2,0.1-1.2-0.5-1.3-0.7c0-0.2,0.1-0.3,0.4-0.3c0,0,0,0,0.1,0c0.4,0.1,0.7,0.3,0.9,0.5
		C14.5,18.2,14.4,18.5,14.4,18.5z"/>
	<path class="st0" d="M26.2,28.4c0.6-2.5,0.9-5.2,1.2-7.8c0-0.1,0-0.2,0-0.3l0,0v-0.1c-0.1-0.4-0.2-0.8-0.4-1.3h-7
		c-0.1,0.4-0.2,0.8-0.4,1.3v0.1l0,0c0,0.1,0,0.2,0,0.3c0.1,2.6,0.5,5.4,1.1,8V29c0,1.5,0,4,0.1,4.9c0,0.3,0.1,0.6,0.1,1.1l0.1,0.7
		c0.2,1.1,0.4,2.1,0.5,3.2h1.8c0-0.8,0-16,0-16h0.2c0,0,0,15.1,0,16h1.8c0.1-1.1,0.2-2.2,0.5-3.3c0,0,0.1-0.5,0.1-0.6
		C26,34.6,26,34.3,26,34c0.1-1.1,0.2-3.6,0.2-4.9C26.2,29.1,26.2,28.6,26.2,28.4z"/>
	<path class="st2" d="M27.4,20.7c0-0.1,0-0.2,0-0.3l0,0v-0.1c-0.1-0.4-0.2-0.8-0.4-1.3h-0.2c0.1,0.4,0.2,0.8,0.4,1.3v0.1l0,0
		c0,0.1,0,0.2,0,0.3c-0.2,2.6-0.6,5.2-1.2,7.8v0.6c0,1.5,0,4-0.1,4.9c0,0.3-0.1,0.6-0.1,1.1l-0.1,0.6c-0.2,1.1-0.4,2.2-0.5,3.3h0.2
		c0.1-1.1,0.2-2.2,0.5-3.3c0,0,0.1-0.5,0.1-0.6c0.1-0.4,0.1-0.7,0.1-1.1c0.1-1.1,0.2-3.6,0.2-4.9c0,0,0-0.5,0-0.6
		C26.8,25.9,27.2,23.3,27.4,20.7z"/>
	<path class="st2" d="M23.3,23.1c0,0-0.2,15.1-0.2,16h0.2C23.3,38.3,23.3,23.1,23.3,23.1z"/>
</g>
</svg>
