<?xml version="1.0" encoding="utf-8"?>
<!-- Generator: Adobe Illustrator 23.1.0, SVG Export Plug-In . SVG Version: 6.00 Build 0)  -->
<svg version="1.1" id="icons" xmlns="http://www.w3.org/2000/svg" xmlns:xlink="http://www.w3.org/1999/xlink" x="0px" y="0px"
	 viewBox="0 0 47 47" style="enable-background:new 0 0 47 47;" xml:space="preserve">
<style type="text/css">
	.st0{fill:#464646;}
</style>
<title>PoleDancing</title>
<g id="Pole_Dancing">
	<path class="st0" d="M20.8,20c-0.2,0.2-0.4,0.4-0.5,0.8c-0.4,0.8-0.6,1.7-0.6,2.7c0.1,1.2,0.8,1.8,1.6,1.8c0.4,1.2,0.8,2.4,0.9,3.7
		l-4.4,1c-0.4,0.1-0.8,0.3-1,0.6c-0.2,0.3-0.2,0.8-0.2,1.1l1.6,6c0.1,0.8,0.9,1.3,1.6,1.2c0.8-0.1,1.3-0.9,1.2-1.6
		c0-0.1,0-0.2-0.1-0.3l-1.2-4.5l2.1-0.4c0,0.5-0.1,1.2-0.1,2c0,3.3,0.5,6.6,1.4,9.8c0.2,0.6,0.8,1.1,1.4,1.1c0.1,0,0.2,0,0.4,0
		c0.8-0.2,1.2-1,1-1.7l0,0c-0.9-2.9-1.3-5.9-1.3-9c0-0.5,0-1,0-1.4c1.4-0.4,2.3-1.8,1.9-3.3c-0.1-0.3-0.2-0.5-0.3-0.8
		c-0.5-0.9-0.9-1.8-1.2-2.7l-3.1-3.4c-0.2-0.2-0.3-0.5-0.3-0.9s0.1-0.6,0.4-0.9c0.2-0.2,0.5-0.3,0.9-0.3s0.6,0.1,0.9,0.4l1.3,1.4
		c0-0.4,0-0.9-0.2-1.2c0,0,0-0.1-0.1-0.1c-0.4-1.1-1.6-1.7-2.7-1.5c-0.5-0.2-1.2-0.5-1.6-0.9v1.7L20.8,20z"/>
	<path class="st0" d="M18.8,15.7L18.8,15.7c0-0.1,0-0.3,0-0.4l0,0c0.1-1.2,0.5-2.4,1.2-3.3c0.3-0.4,0.1-1-0.3-1.3s-1-0.1-1.3,0.3
		l0,0c-1,1.3-1.5,2.8-1.5,4.4l0,0c0,0.2,0,0.5,0,0.8l0,0c0.1,0.9,0.5,1.7,1.1,2.5c0.2,0.3,0.5,0.6,1,1v-3.2
		C18.9,16,18.9,15.8,18.8,15.7z"/>
	<circle class="st0" cx="25.4" cy="16.3" r="2.9"/>
	<path class="st0" d="M19.2,10.1c0.2,0,0.4,0.1,0.6,0.2c0.2,0.1,0.3,0.3,0.4,0.5V0.3h-1.1V10.1L19.2,10.1z"/>
	<path class="st0" d="M20.3,46.4v-7.7c-0.1,0-0.2,0.1-0.3,0.1c-0.3,0.1-0.6,0.1-0.9,0v7.6C19.1,46.4,20.3,46.4,20.3,46.4z"/>
	<polygon class="st0" points="20.2,32.6 20.3,33 20.3,32.6 	"/>
	<path class="st0" d="M20.3,25.2c-0.5-0.4-0.9-1.1-0.9-1.8c-0.1-1,0.1-1.9,0.6-2.8c0.1-0.1,0.1-0.3,0.2-0.4v-8.5
		c0,0.1-0.1,0.1-0.1,0.2c-0.4,0.6-0.9,1.4-1.1,2.1v15.1l1.2-0.2L20.3,25.2z"/>
	<path class="st0" d="M28.7,28.9c0.2,0.2,0.4,0.3,0.6,0.3c0.2,0,0.4-0.1,0.6-0.2c0.3-0.3,0.3-1,0-1.3l-6.3-6.9c-0.3-0.4-1-0.4-1.3,0
		s-0.4,1,0,1.3l0,0L28.7,28.9z"/>
</g>
</svg>
