<?xml version="1.0" encoding="utf-8"?>
<!-- Generator: Adobe Illustrator 23.1.0, SVG Export Plug-In . SVG Version: 6.00 Build 0)  -->
<svg version="1.1" id="icons" xmlns="http://www.w3.org/2000/svg" xmlns:xlink="http://www.w3.org/1999/xlink" x="0px" y="0px"
	 viewBox="0 0 47 47" style="enable-background:new 0 0 47 47;" xml:space="preserve">
<style type="text/css">
	.st0{fill:#EF6100;}
	.st1{fill:#BFBFBF;}
	.st2{fill:#6D3931;}
	.st3{fill:#BAAE98;}
	.st4{fill:#633F3F;}
	.st5{fill:#3F2B2B;}
	.st6{fill:#433435;}
	.st7{fill:#B2B2B2;}
	.st8{fill:#9F5344;}
	.st9{fill:#EDE6CF;}
	.st10{fill:#EDAA98;}
	.st11{fill:#FFBFA9;}
	.st12{fill:#564A4E;}
	.st13{fill:#FFFFFF;}
	.st14{fill:#8E5151;}
	.st15{fill:#FF6700;}
	.st16{fill:#CCB4B0;}
	.st17{fill:#B29784;}
	.st18{fill:#684740;}
</style>
<title>Polo</title>
<path class="st0" d="M18.5,14.9l-3.4-0.1l0.2,0.6c0.9,0.4,2,0.7,3.1,0.8c1.1-0.1,1.4-0.4,1.4-0.4L18.5,14.9z"/>
<path class="st1" d="M19.9,30.2c0-2.1,0-4.5,0-4.5l-3.1-1.3c0,1.6,0.2,3.2,0.6,4.6c0.2,0.9,0.4,2.3,0.5,3.6h1.9
	C19.9,32,19.9,31.1,19.9,30.2z"/>
<path class="st2" d="M17.5,37.3c-0.4,0.2-0.7,0.6-0.7,1.2h2.1c0.1-0.4,0.3-0.9,0.7-1.3l-1.4-0.5C18.2,36.9,18,37.1,17.5,37.3z"/>
<path class="st3" d="M19.8,35.4c0-0.3,0.1-1.4,0.1-2.6H18c0.2,1.6,0.3,2.9,0.3,3.4c0,0.2,0,0.4,0,0.6l1.4,0.5l0.1-0.1
	C20.2,36.8,19.6,35.9,19.8,35.4z"/>
<path class="st1" d="M38.6,24.9c-1.3,0.3-10.7-0.3-10.7-0.3c0.6,1.2,1.5,2.1,2.5,2.9c2.3,1.6,6.3,0.6,7.6,0.3c0.6-0.1,1.2,0,1.7,0.4
	l1.5-1.3C40.2,25.6,39.8,24.6,38.6,24.9z"/>
<path class="st2" d="M45.8,32.1l-0.5-1.7c-0.3,0-0.6-0.1-0.8-0.3L44,31.5C44.6,31.9,45.2,32.1,45.8,32.1z"/>
<path class="st3" d="M44.1,31.6l0.5-1.4c-0.1-0.1-0.1-0.2-0.2-0.3c-0.2-0.3-0.6-0.2-1.2-0.5c-0.8-0.6-1.6-1.5-2.1-2.4v-0.1l-1.5,1.3
	c0.5,0.4,1.1,0.8,1.5,1.3C42,30.4,42.9,31,44.1,31.6z"/>
<path class="st4" d="M16.4,13.3c-0.4,0.1-0.9,0.1-1.4,0.3c-0.3,0.1,0.6,0.6,0.6,0.6l1.1-0.2L16.4,13.3z"/>
<path class="st5" d="M35.6,19c0.3-0.5,1.1-0.7,1.6-0.5l0.6-0.1c0.4-0.4,1.2-0.4,1.7,0c0.2,0,0.3,0.1,0.5,0.1
	c0.5-0.1,1.1,0.2,1.2,0.7v0.1l0.5,0.4c0.5,0,0.9,0.3,1.1,0.8c0.4,0.3,1.9,0.5,1.5,1.4c-0.5,1.1-1.7-0.1-2.2-0.5
	c-0.5,0.1-1.1-0.3-1.1-0.8l0,0l-0.4-0.4c-0.4,0.1-0.8-0.2-0.9-0.6c-0.1-0.1-0.2-0.1-0.3-0.1c-0.4,0.1-0.9,0.1-1.4-0.1h-0.3
	c-0.4,0.5-1.2,0.7-1.8,0.6C34.9,19.5,35.6,19,35.6,19z"/>
<path class="st6" d="M8.6,12.8c1.3-0.3,2.5-0.3,3.8-0.1c1.8,0.5,3.5,1.2,5.2,2.1c0.7,0.4,1.5,0.9,2.1,1.6c0,0-4.8-0.4-6.1-0.7
	C11.7,15.3,9.9,14.3,8.6,12.8z"/>
<path class="st2" d="M7.2,11.5c0.1,0.7,0.2,1.5,0.4,2.1c0.3,0.6,0.9,0,0.9,0C8.4,12.9,8,12,7.2,11.5z"/>
<path class="st1" d="M36.9,20.1c-1.5-2.5-4.3-2.3-6.8-2.1c-3.9,0.3-7.8-0.3-11.4-1.9c-1.2-0.3-4.9-2.2-6.2-2.5
	c-1.7-0.4-3.4-0.3-4.9,0.1c0,0-2.5,3.1-3.1,3.6S3.2,18.6,3,18.7c-0.2,0.3-0.2,0.6,0,0.9C3.2,19.8,3.4,20,3.8,20c0,0,0,0.4,0.2,0.5
	c0.4,0.1,0.7-0.2,0.7-0.5c0,0,0,0,0-0.1c1.1-0.1,2.2-0.4,3.2-0.8c0.5-0.2,0.8-0.6,1.1-1.2L9.3,17c1.3,0.2,2.4,0.9,3.3,2
	c1.1,1.7,2.5,4.3,2.5,4.3L14,23.8c0.2,0.3,0.3,0.5,0.4,0.6c0.5,0.6,1.3,1.2,2,1.5l1.2-0.9c1.4,0.2,2.7,0.3,4.2,0.3
	c4.1-0.1,5.4-0.9,6.5-0.8c0.9,0.1,1.8,0.5,2.5,1.3c0.6,0.1,1.4,0.1,2.1,0.1c0.9,0,1.9-0.3,2.6-0.9C36.6,24,37.8,21.4,36.9,20.1z"/>
<path class="st7" d="M21.6,25.4c-1.4,0-2.8-0.1-4.2-0.3l-1.3,1.1c0.3,0.2,0.7,0.3,1.1,0.4c1.5,0.3,2.9,0.5,4.4,0.4
	c2.3-0.1,4.5-0.4,6.7-1.3c0.7-0.1,1.6-0.1,2.3,0c-0.7-0.6-1.6-1.1-2.5-1.2C27,24.5,25.8,25.4,21.6,25.4z"/>
<path class="st7" d="M12.5,19.1c-0.7-1.1-1.9-1.8-3.3-2l-0.4,0.8c0.8,0.2,1.7,0.6,2.4,1.2c0.9,1.6,1.8,3.2,2.6,4.7l1.2-0.4
	C15,23.4,13.5,20.8,12.5,19.1z"/>
<polygon class="st5" points="7,13.6 8.6,15.7 8.8,15.3 7.3,13.4 "/>
<path class="st6" d="M5.8,13.7c0.3,0.5,0.8,0.8,1.5,0.8c0.5-0.1,1.1-0.4,1.5-0.8L8.4,13C7.4,13.2,6.6,13.4,5.8,13.7z"/>
<path class="st8" d="M8.1,11.2c-0.1,1.1,0,2,0.3,3.1c0.4,1.1,1.5,0,1.5,0C9.4,13.1,8.8,12,8.1,11.2z"/>
<path class="st9" d="M20.4,16.5c0,0-1.5,4,0.2,5.1c1.9,0.8,4,1.3,6.1,1.1c1.5-0.5,1.1-4,1.1-4.7C25.3,17.5,22.8,17.1,20.4,16.5z"/>
<path class="st8" d="M25.5,21.7c-0.9,0-2-0.1-2.9-0.4c-1.5-0.4-1.7-0.6-1.9-1.4c-0.1-1.1,0-2.1,0.3-3.2h0.2c-0.3,0.9-0.4,2-0.3,3.1
	c0.2,0.6,0.3,0.8,1.8,1.3c1.5,0.4,3.6,0.6,3.9,0.2c0.3-1.2,0.5-2.4,0.5-3.6h0.2c0,0.3-0.2,3.3-0.6,3.7C26.4,21.6,26,21.7,25.5,21.7z
	"/>
<path class="st6" d="M22.8,19.1c0,0-0.4,2.8-0.6,4C22,24.2,21.6,27,21.6,27c1.1,0,2.1-0.1,3.1-0.3c0-0.2,0.2-0.7-0.3-1.1
	c-0.5-0.2-1.3-0.6-1.2-1.5C23.3,23.3,24,19,24,19h-1.2V19.1z"/>
<path class="st4" d="M27.2,16.5c-0.3-0.3-0.7,0.4-1.8,0.3l-0.8-0.1c-0.1,0.6-0.3,1.2-0.5,1.8c-0.3,0.6-2.7,0.3-2.7-0.5
	c0.1-0.9,0.2-1.8,0.5-2.6c-0.1-0.2-0.4-0.2-0.5-0.1c0,0,0,0-0.1,0.1c-0.1,0.4-0.2,0.7-0.3,1.2c-0.1,0.6-0.6,2.1,0.7,2.6
	c1.2,0.4,2.3,0.6,2.7,0.1c0.3-0.5,0.5-1.2,0.6-1.7l2.2,0.2C27.2,17.7,27.4,16.7,27.2,16.5z"/>
<path class="st6" d="M24,18.5c0.2-0.6,0.4-1.2,0.5-1.8c-0.5,0-1.1-0.2-1.6-0.3c-0.4-0.2-0.7-0.5-1.1-0.8l-0.1-0.1
	c-0.2,0.8-0.4,1.8-0.5,2.6C21.3,18.8,23.8,19.1,24,18.5z"/>
<path class="st6" d="M6.2,15.8c0,0,0,0.5,0.2,0.6C6.6,16.6,7.1,16,7.1,16L6.2,15.8z"/>
<path class="st5" d="M4.1,17.7c0,0,0,0.1,0.3,0.8c0.1,0.3,0.4,1.4,0.4,1.4l0.5-0.1c-0.1-0.5-0.3-1.1-0.5-1.5
	c-0.1-0.3-0.4-0.9-0.4-0.9L4.1,17.7z"/>
<path class="st9" d="M5,19.6c-0.3,0-0.5-0.2-0.5-0.5c0-0.3,0.2-0.5,0.5-0.5l0,0c0.3-0.1,0.5,0.2,0.5,0.5C5.6,19.4,5.3,19.6,5,19.6
	L5,19.6z M5,18.7c-0.2,0-0.4,0.1-0.4,0.3v0.1c0,0.2,0.2,0.3,0.4,0.3c0.2,0,0.4-0.1,0.4-0.3l0,0C5.3,18.9,5.2,18.7,5,18.7L5,18.7z"/>
<path class="st5" d="M5.2,18.8c1.1-0.5,1.9-1.3,2.6-2.1c0.6-1.1,1.2-2.1,1.6-3.3h0.4c-0.4,1.3-1.1,2.5-1.8,3.7
	c-0.7,0.8-1.7,1.6-2.7,2L5.2,18.8z"/>
<path class="st5" d="M5.2,19.3c0,0,7.5-3.7,10.4-5.4c-0.1-0.1-0.2-0.1-0.3-0.2c-3.5,2-10,5.2-10,5.2L5.2,19.3z"/>
<path class="st1" d="M39.8,29.6c-0.6-1.1-1.6-1.4-1.9-1.8c-0.7-1.1-0.7-1.7-0.5-3.8c0.2-1.2,0.1-2.3-0.3-3.4l-8.8,3.9
	c1.2,1.4,2.6,2.5,4.3,3.5c2.4,1.4,3.1,1.1,5.2,2.4c0.5,0.4,0.9,0.8,1.4,1.4l1.4-1.1L39.8,29.6z"/>
<path class="st8" d="M45.8,35.8l-0.7-1.7c-0.3,0-0.5,0-0.8-0.1c-0.2,0.4-0.3,0.8-0.6,1.3C44.5,35.5,45.1,35.7,45.8,35.8z"/>
<path class="st3" d="M41.5,34.1c0.7,0.5,1.5,0.8,2.2,1.2c0.2-0.4,0.4-0.8,0.5-1.3c-0.1-0.1-0.2-0.2-0.3-0.3c-0.4-0.8-0.7,0-2-0.9
	c-0.6-0.6-1.2-1.4-1.6-2.1L39,31.7C39.7,32.7,40.6,33.4,41.5,34.1z"/>
<path class="st8" d="M4,32.6l1.8,0.8c0.2-0.3,0.5-0.5,0.8-0.7c-0.3-0.4-0.6-0.9-0.9-1.4C4.9,31.5,4.4,32,4,32.6z"/>
<path class="st1" d="M14.6,26.7c0.2-0.1,4-2.3,4-2.3l-3.4-2.4c0,0-2,2.3-3.4,3.6c-0.6,0.5-1.5,1.5-2.4,2.4c0.5,0.3,1.1,0.7,1.5,1.1
	l0.2-0.2C12.2,28,14.4,26.8,14.6,26.7z"/>
<path class="st3" d="M5.9,31.1l-0.3,0.2c0.3,0.5,0.6,0.9,0.9,1.4c0.1,0,0.1,0,0.2,0c0.4,0.1,0.8,0.2,1.2-0.5
	c0.7-1.2,1.8-2.2,2.8-3.1c-0.4-0.3-0.9-0.6-1.5-1.1C8.3,29.2,7.1,30.2,5.9,31.1z"/>
<path class="st0" d="M18.5,11.2c-0.4,0.6-0.6,1.3-0.6,2c0.1,0.8,0.4,1.7,0.8,2.4C18.8,15.9,20,16,20,16S20.5,12.7,18.5,11.2z"/>
<path class="st10" d="M17.3,11.5c0.5,0.2,1.1,0.5,1.5,0.9l0.8-1.6L17,9.6C17,9.6,17.2,11.1,17.3,11.5z"/>
<path class="st11" d="M17.5,10c0.3,0.7,0.2,1.5-0.1,2.1c-0.2,0.2-0.7,0-1.1-0.2c-0.5-0.3-0.9-0.7-1.1-1.4c-0.2-0.8-0.1-1.2,0.5-1.4
	C16.5,9,17.2,9.3,17.5,10C17.5,9.9,17.5,10,17.5,10z"/>
<path class="st12" d="M17.2,10c-0.1-0.1-0.3-0.2-0.4-0.1c-0.1,0.1-0.1,0.4-0.1,0.4c-0.2,0-0.4,0-0.7,0c-0.4-0.1-0.6,0.4-0.8,0.2
	c-0.2-0.2-0.8-0.5,0.2-1.6c0.4-0.4,1.1-0.6,1.6-0.3c0.7,0.6,0.8,1.2,1.1,1.4C17.9,10.4,17.4,10.4,17.2,10
	C17.2,10.2,17.2,10.2,17.2,10z"/>
<polygon class="st13" points="16.5,10.4 17.6,11.9 17.8,11.5 16.8,10.3 "/>
<path class="st6" d="M14.4,11.6L18,9.5c0,0-0.4-1.1-1.3-1.3c-0.8-0.1-1.7,0.3-2.1,1.1c-0.1,0.4-0.1,0.8,0.1,1.3L14.4,11.6z"/>
<polygon class="st5" points="14.4,11.6 14.5,11.8 18.1,9.7 18,9.5 "/>
<path class="st13" d="M18.8,10c0,0-0.6,0.8-0.6,1.2s0.1,0.5,0.4,0.6l0.7-1.2L18.8,10z"/>
<path class="st14" d="M22.8,20.9c0.5,1.4,1.3,2.7,2.1,4c0.7,0.6,0.2-0.1,0.2-0.1c-0.8-1.2-1.5-2.5-1.9-3.9
	C23.1,20.8,22.8,20.9,22.8,20.9z"/>
<path class="st13" d="M22.8,16c-0.7,0.7-1.1,1.6-1.2,2.6c0,0.4,0.1,0.7,0.4,1.1l1.5-0.4c0.5-0.6,1.1-1.1,1.8-1.5
	c0.9-0.4,1.9-1.4,1.1-3.3c-0.5-1.3-0.9-1.1-0.9-1.1S23.4,15.3,22.8,16z"/>
<path class="st5" d="M21.4,19.3c0.5,0.9,1.2,1.9,1.9,2.6c0.5,0.6,1.9,2,2,2.1c0.2,0.3,0,0.8-0.2,1.2c-0.2,0.3-0.4,0.6-0.6,0.9
	c-0.1,0.2,0,0.4,0.1,0.5c0.5-0.1,0.9-0.4,1.4-0.7c0.4-0.4,0.7-0.9,0.8-0.9s0.7-0.5,0.7-0.5s-0.4-0.7-0.7-1.2c-0.6-0.9-1.2-2-1.6-2.9
	c-0.4-0.7-1.1-1.4-1.9-1.6C22.6,18.6,22,18.8,21.4,19.3z"/>
<path class="st9" d="M25,24.4l-0.4,0.3c0,0,0.4,0.4,0.7,0.7c0.3,0.3,0.6,0.8,0.6,0.8l0.6-0.5C26.5,25.8,26,24.6,25,24.4z"/>
<path class="st15" d="M18.7,10.9c-0.2,0.7-0.4,1.4-0.4,2.1c0.1,0.4,1.3,1.7,1.6,2c0.2,0.3,2.1,0.2,2.3,0.3c0.2,0.1,0,0.4,0,0.6
	c0,0.2,0.1,0.4,0.2,0.5c0.5-0.5,1.2-0.9,1.9-1.2c1.6-0.5,1.8-1.4,1.8-1.4c-0.5-0.8-1.3-1.6-2-2.1c-1.1-0.9-3.2-2.1-4.4-1.8
	C19.2,10.2,18.8,10.5,18.7,10.9z"/>
<rect x="1.1" y="23.9" transform="matrix(0.8256 -0.5642 0.5642 0.8256 -12.0251 9.3645)" class="st9" width="16" height="0.4"/>
<rect x="1.2" y="24.2" transform="matrix(0.8256 -0.5642 0.5642 0.8256 -12.1027 9.4012)" class="st3" width="16" height="0.2"/>
<rect x="2.2" y="27.6" transform="matrix(0.8256 -0.5642 0.5642 0.8256 -15.0098 6.9616)" class="st16" width="3.2" height="0.4"/>
<rect x="2.3" y="27.7" transform="matrix(0.8256 -0.5642 0.5642 0.8256 -15.0322 7.0363)" class="st17" width="3.2" height="0.2"/>
<path class="st9" d="M1.3,27.3L1,27.5c0,0.2,0.1,0.4,0.2,0.6l0.4-0.3L1.3,27.3z"/>
<path class="st9" d="M2.5,29.8c0.2,0.1,0.3,0.3,0.5,0.4L3.2,30l-0.3-0.4L2.5,29.8z"/>
<path class="st17" d="M1.8,27.8l-0.4,0.3c0.1,0.3,0.3,0.6,0.5,0.9l0,0c0.2,0.3,0.4,0.5,0.7,0.8l0.3-0.3L1.8,27.8z"/>
<rect x="1.5" y="27.2" transform="matrix(0.8255 -0.5644 0.5644 0.8255 -15.2306 5.7319)" class="st3" width="0.2" height="0.6"/>
<rect x="3.1" y="29.5" transform="matrix(0.8255 -0.5644 0.5644 0.8255 -16.2546 7.0267)" class="st3" width="0.2" height="0.6"/>
<polygon class="st18" points="2.9,29.6 3.1,29.5 2.5,28.7 2.5,28.6 1.9,27.7 1.8,27.8 "/>
<path class="st6" d="M14,20.6c0.4-0.4,0.8-0.8,1.3-1.2c0.7-0.5,1.2-0.7,1.4-0.9s0.5,0.1,0.5,0.1l-3.1,2.1L14,20.6z"/>
<path class="st5" d="M14.3,20.9c0.5-0.2,0.9-0.4,1.5-0.7c0.7-0.5,1.2-0.8,1.4-0.9c0.2-0.1,0.1-0.5,0.1-0.5l-3.1,2.1L14.3,20.9z"/>
<path class="st4" d="M16.7,18.7c-0.4,0.1-0.9,0.2-1.4,0.4c-0.3,0.2-0.5,0.4-0.7,0.6c0.2,0,0.4,0,0.7-0.1c0,0-0.4,0.5-0.6,0.9
	c-0.1,0.2,0.2,0.1,0.4,0.1c0.4,0,0.8-0.1,1.1-0.4c0.3-0.3,1.1-0.9,1.1-0.9L16.7,18.7z"/>
<path class="st0" d="M19.6,10.6c-0.3,0.1-0.6,0.6-0.7,1.4s0.1,2,0.1,2.6c-0.2,0.6-0.5,1.3-1.1,1.8c-1.2,1.5-1.6,2.1-1.6,2.1l0.9,0.9
	c1.1-0.8,2-1.7,2.8-2.6c0.6-0.7,0.9-1.7,1.1-2.7C21.3,13.4,21.8,9.9,19.6,10.6z"/>
<path class="st3" d="M6.4,36.6c0,0.4-0.4,0.8-0.8,0.8c-0.4,0-0.8-0.3-0.8-0.8c0-0.4,0.3-0.8,0.8-0.8C6,35.7,6.4,36.1,6.4,36.6z"/>
</svg>
