<?xml version="1.0" encoding="utf-8"?>
<!-- Generator: Adobe Illustrator 23.1.0, SVG Export Plug-In . SVG Version: 6.00 Build 0)  -->
<svg version="1.1" id="icons" xmlns="http://www.w3.org/2000/svg" xmlns:xlink="http://www.w3.org/1999/xlink" x="0px" y="0px"
	 viewBox="0 0 47 47" style="enable-background:new 0 0 47 47;" xml:space="preserve">
<style type="text/css">
	.st0{fill:#464646;}
</style>
<title>Pullups</title>
<g id="Pullups">
	<path class="st0" d="M24.1,0.6c-1.7-0.4-3.4,0.7-3.8,2.4c-0.1,0.3-0.1,0.7-0.1,0.9h6.3C26.6,2.4,25.6,1,24.1,0.6z"/>
	<path class="st0" d="M25.8,5.5h-5c0.3,0.4,0.9,0.9,1.4,1.1h2.2C25,6.4,25.5,6.1,25.8,5.5z"/>
	<path class="st0" d="M40.6,3.1c0-0.4-0.3-0.7-0.7-0.7h-1.3c-0.3,0-0.7,0.3-0.7,0.7l0,0v1.1h-1.4c0,0.2,0,0.3,0,0.5
		s-0.1,0.4-0.1,0.5h1.6v41.3h2.6V5.3h0.8V4.2h-0.8L40.6,3.1L40.6,3.1z"/>
	<path class="st0" d="M8.9,4.1V3.1c0-0.4-0.3-0.7-0.7-0.7H7.1c-0.4,0-0.7,0.3-0.7,0.7v1.1H5.6v1.1h0.8v41.3h2.6V5.3h1.6
		c-0.1-0.2-0.1-0.3-0.1-0.5c0-0.2,0-0.3,0-0.5H8.9V4.1z"/>
	<path class="st0" d="M20.3,4.1h-6.8c0.1,0.4,0.2,0.8,0.3,1.1h19.3c0.1-0.3,0.2-0.7,0.3-1.1H20.3z"/>
	<path class="st0" d="M25.6,27.8c1.1,0,1.8-0.9,1.8-1.8c0-0.4-0.2-1-0.5-1.3l-1.6,3.1C25.4,27.8,25.5,27.8,25.6,27.8z"/>
	<path class="st0" d="M22.6,21.9l0.4-2.4l0.1-0.5h0.7l0.4,2.5l-0.5,1l-1.8,3.3L20.6,28c-0.5,0.9-0.1,2.1,0.8,2.6
		c0.3,0.1,0.5,0.2,0.9,0.2c0.7,0,1.3-0.3,1.6-1l1.1-2.1l1.7-3.4l1-1.7c0.2-0.3,0.3-0.8,0.2-1.2l-1.1-6.1l1.2-5.1
		c0.8,0.5,1.7,0.8,2.6,0.8l0,0c0.5,0,1.2-0.1,1.6-0.3c1-0.4,1.7-1.2,2.3-2.1c0.5-1,1-2,1.3-3c0-0.1,0.1-0.2,0.1-0.3
		c0-0.1,0.1-0.4,0.2-0.7c0-0.1,0-0.3,0-0.4c0-0.1,0-0.2-0.1-0.3c-0.1-0.4-0.4-0.7-0.9-0.8c-0.7-0.1-1.3,0.2-1.5,0.8V4v0.1
		c-0.1,0.4-0.2,0.8-0.3,1.1c0,0.1-0.1,0.2-0.1,0.3c-0.1,0.9-0.5,1.6-1.1,2.3c-0.2,0.2-0.4,0.4-0.8,0.5c-0.2,0.1-0.4,0.1-0.5,0.1
		c-0.5,0-1.1-0.2-1.6-0.7c-0.2-0.1-0.4-0.3-0.5-0.4l-0.1-0.1l0,0l0,0c-0.3-0.3-0.8-0.4-1.1-0.4c-0.1,0-0.2,0-0.2,0h-7.5h-0.2
		c-0.4,0-0.8,0.1-1,0.4l0,0C18.3,7.5,18,7.8,17.7,8c-0.4,0.3-1,0.5-1.5,0.5c-0.2,0-0.4,0-0.5-0.1c-0.4-0.2-0.9-0.7-1.1-1.1
		c-0.3-0.5-0.7-1.1-0.8-1.7l-0.1-0.3c-0.1-0.3-0.2-0.8-0.3-1.1V4.1V3.9c-0.2-0.7-1-1-1.6-0.8c-0.3,0.1-0.5,0.4-0.8,0.8
		c0,0.1-0.1,0.2-0.1,0.2c0,0.1,0,0.3,0,0.4C11,4.8,11,5,11.1,5.2c0,0.1,0,0.2,0.1,0.3c0.3,1.4,1,2.8,2,3.9c0.4,0.5,0.9,0.9,1.5,1.2
		c0.5,0.2,1.1,0.3,1.6,0.3l0,0c0.9,0,1.7-0.3,2.5-0.8l1.2,5.1l-1.2,7v0.1v0.1V23v0.1c0,0,0,0,0,0.1c0,0.1,0,0.1,0,0.1v0.1v0v0.1v0.1
		l0.1,0.1l0,0l0.1,0.1l0,0l0.1,0.1l0,0l0.1,0.1l0,0H19l0.1,0.1h0.1l0.1,0.1l0,0l2.1,1.3l2.2-3.1L22.6,21.9z"/>
</g>
</svg>
