<?xml version="1.0" encoding="utf-8"?>
<!-- Generator: Adobe Illustrator 23.1.0, SVG Export Plug-In . SVG Version: 6.00 Build 0)  -->
<svg version="1.1" id="icons" xmlns="http://www.w3.org/2000/svg" xmlns:xlink="http://www.w3.org/1999/xlink" x="0px" y="0px"
	 viewBox="0 0 47 47" style="enable-background:new 0 0 47 47;" xml:space="preserve">
<style type="text/css">
	.st0{fill:#464646;}
</style>
<title>PunkRopeClass</title>
<g id="Punk_Rope_Class">
	<path class="st0" d="M36.5,24.2V13.4c0.2-6.8-5.1-12.6-12-12.8c-6.8-0.2-12.6,5.1-12.8,12c0,0.2,0,0.5,0,0.7v10.8
		c-0.7,0.5-0.8,1.6-0.3,2.3c0.5,0.7,1.6,0.8,2.3,0.3l0,0l4.7-3.6c0.4-0.3,0.6-0.7,0.6-1.3v-5.7c0-0.2,0.1-0.3,0.3-0.3l0,0
		c0.2,0,0.3,0.1,0.3,0.3v27.3c-0.1,1,0.7,2,1.8,2.1s2-0.7,2.1-1.8c0-0.1,0-0.2,0-0.3V28.1h0.8v15.7c0,1,0.8,2,2,2c1,0,2-0.8,2-2
		V16.2c0-0.2,0.1-0.3,0.3-0.3c0.2,0,0.3,0.1,0.3,0.3v5.7c0,0.5,0.2,0.9,0.6,1.3l4.7,3.6c0.7,0.5,1.8,0.3,2.3-0.5
		C37.2,25.7,37.1,24.7,36.5,24.2L36.5,24.2z M34.5,22.7l-2.1-1.6v-4.8l0,0c0-2.1-1.8-3.9-3.9-3.9h-8.7c-2.1,0-3.9,1.7-3.9,3.9v4.8
		l-2.1,1.6v-9.2c-0.2-5.8,4.3-10.6,10-10.7c5.8-0.2,10.6,4.3,10.7,10c0,0.2,0,0.4,0,0.7L34.5,22.7z"/>
	<circle class="st0" cx="24.1" cy="8" r="3.3"/>
</g>
</svg>
