<?xml version="1.0" encoding="utf-8"?>
<!-- Generator: Adobe Illustrator 23.1.0, SVG Export Plug-In . SVG Version: 6.00 Build 0)  -->
<svg version="1.1" id="icons" xmlns="http://www.w3.org/2000/svg" xmlns:xlink="http://www.w3.org/1999/xlink" x="0px" y="0px"
	 viewBox="0 0 47 47" style="enable-background:new 0 0 47 47;" xml:space="preserve">
<style type="text/css">
	.st0{fill:#464646;}
</style>
<title>Pushups</title>
<path id="Planks" class="st0" d="M45.4,29.9L45.4,29.9l-0.3-0.2l-0.3-0.1c0,0-0.1,0-0.1-0.1c0,0-0.1,0-0.1-0.1
	c0.2,0.1,0.3,0.1,0.5,0.2l0,0c0.1,0,0.2,0,0.2-0.1c0-0.1,0-0.1,0-0.1c-0.1-0.1-0.2-0.2-0.3-0.2L44.6,29c-0.3-0.1-0.6-0.3-0.9-0.3
	c-0.1-0.1-0.2-0.1-0.3-0.1s-0.2,0-0.3,0c0.2,0,0.3-0.1,0.5-0.1c0.1,0,0.1-0.1,0.2-0.1c0.1,0,0.1-0.1,0.2-0.2v-0.1V28
	c-0.1,0-0.2,0-0.3,0.1l-0.4,0c-0.2,0.1-0.5,0.1-0.7,0.1L42,28.4c-0.1,0-0.2,0-0.3,0.1c-0.2,0.1-0.4,0.1-0.6,0.1c-0.3,0-0.7,0-1-0.1
	c-0.8-0.1-1.8-0.3-2.6-0.4c0-0.9-0.1-1.8-0.3-2.7c0-0.4,0-0.9,0.1-1.3c0-0.2,0.1-0.4,0.1-0.6c0-0.1,0.1-0.2,0.1-0.3V23
	c0-0.1,0-0.1,0-0.2c0.1,0,0.3,0,0.4,0.1c0.2,0.1,0.3,0.3,0.5,0.4c0.2,0.1,0.3,0.4,0.6,0.4c0.1,0,0.1-0.1,0.2-0.1
	c0.1-0.1,0.1-0.2,0.2-0.2c0.1-0.1,0.2,0,0.2,0c0.1,0,0.1-0.1,0.1-0.1s0.1-0.1,0.1-0.2c0.1,0,0.1,0,0.2,0s0.1-0.1,0.1-0.2
	c0-0.1,0,0,0,0l0,0l0,0l0,0c0.1,0,0.1,0,0.2,0.1c0.1,0,0.1,0,0.2,0c0,0,0.1,0,0.1-0.1c0.1-0.2,0.1-0.4,0.1-0.6c0-0.2,0-0.3,0.1-0.5
	v0.1v-0.1l0,0v-0.1l0,0l0,0v0.1c0,0,0,0,0-0.1l0,0v0.1l0,0v0v-0.1h0.1v0.1v0.1l0,0v-0.1v-0.1l0,0c0,0,0,0,0-0.1l0,0l0,0
	c0,0,0,0,0,0.1v0.1l0,0c0,0,0,0,0-0.1l0,0v0.1v0.1l0,0c0,0,0,0,0-0.1l0,0l0,0c0,0,0,0,0-0.1l0,0l0,0l0,0l0,0l0,0l0,0l0,0l0,0
	c0,0,0,0,0-0.1v-0.1l0,0v0.1l0,0l0,0l0,0v-0.1l0.1-0.1v0.1l0,0v-0.1l0,0l0,0c0,0,0,0,0-0.1v-0.1l0,0l0,0l0,0v0.1v-0.1V21
	c0,0,0,0,0-0.1V21v0.1V21c0-0.1,0-0.1,0-0.2c0,0,0-0.1,0.1-0.1l0,0v0.1l0,0v-0.1l0,0v0.1v0.1l0,0l0,0v-0.1l0,0v-0.1l0,0l0,0l0,0
	v-0.1l0,0l0,0v0.1l0,0v-0.1c0-0.1,0-0.1,0-0.2l0,0l0.1,0.1v0.1l0,0v-0.1v0.2c0,0,0,0,0,0.1v-0.1c0.1,0.1,0.1,0.1,0.2,0.2
	c-0.3-0.1-0.3-0.2-0.4-0.3l0,0l0,0l0,0l0,0v0.1l0,0v-0.1h0.1l0.1,0.1l0,0l0,0v-0.1l0,0l0,0l0,0l0.1,0.1l0.1,0.1l0,0l0,0v-0.1l0,0
	l0,0l0,0c0,0,0-0.1-0.1-0.1l0,0l0,0l0,0v-0.1l0,0l0,0l0,0l0.1,0.1l0,0l0,0v-0.1l-0.1-0.2l0.1,0.1l0,0l0,0l0.1,0.1l0,0l0,0l0.9-0.5
	l-0.3-0.1l0,0l0.2,0.2l0.1,0.1l0,0l0,0l-0.1-0.1l0,0l0.1,0.1l0.1,0.1l0,0l0,0l-0.1-0.1l0,0l0,0l0,0l-0.1-0.1V20l0,0l0,0l-0.1-0.1
	l0,0l0,0l0,0l0.1,0.1l0,0l0,0l-0.1-0.1c-0.1-0.1-0.1-0.2-0.2-0.2l0.2,0.1l0.1,0.1l0,0l0,0l-0.1-0.1l-0.2-0.2l0,0l0,0h0.1l0,0l0,0
	l0,0l0.1,0.1l0,0l0,0v-0.1l-0.1-0.3l0.1,0.1h0.1l0,0l0,0h-0.1l-0.2-0.2l0,0l0,0h0.1l0.1,0.1v-0.1l0.2,0.1c-0.1-0.1-0.2-0.1-0.3-0.2
	l0,0c0,0.1,0,0,0.1,0c-0.1-0.1,0-0.1,0-0.1l0.2,0.1l-0.2-0.1c0.1,0,0.1,0,0.2,0c-0.2,0-0.3,0-0.5,0h-0.1c0,0,0,0,0-0.1
	c0.1,0.1,0.1,0,0.2,0h0.1l0,0l0,0l0,0h0.1h-0.1h0.1h-0.1l0,0l0,0l0,0h-0.1l0,0c-0.1,0-0.1-0.1-0.2-0.1h0.3h-0.1H42h0.1h0.1l0,0l0,0
	l0,0l0,0l-0.1-0.1l0.2,0.1h-0.1l0,0l0,0v0l0,0l0.1,0.1l0.1,0.1l0,0l0,0l-0.1-0.1l0,0l0,0l0,0l-0.1-0.1l0,0l0,0l0,0l0,0l0,0l0,0h0.1
	l0,0l0,0h-0.1L42,18.6l0,0h0.2l0,0l0,0l0,0l0,0l-0.1-0.1l0,0h0.1l0,0h-0.1l0,0l0,0h0.1l0,0l0,0h-0.1h0.1l0,0l0,0l0,0l-0.1-0.1l0,0
	l0,0L42,18.3l0,0h0.1l0,0H42l-0.1-0.1H42l0,0l0,0h0.1h0.1h-0.1h0.1l0,0l0,0h-0.1H42h0.1l0,0H42h-0.1H42h0.2l0,0h-0.1l0,0H42l0,0
	h-0.1l0,0H42l0,0h-0.1l0,0l0,0l0,0l-0.3-0.6h-0.2h0.1h0.1h-0.3h-0.1l0,0l0,0l0.1-0.1l0,0h-0.1l0,0l0,0l0,0l0,0h0.1l0,0l0,0l0,0l0,0
	h0.1h0.1h-0.3h0.1h-0.1h-0.2l0,0l0.2-0.1h0.1l0,0l0,0h-0.1l-0.2,0.1l0,0l0,0l0,0l0,0l0,0l0.1-0.1l0,0l0,0l0,0l0,0l-0.1,0.1l0,0v-0.1
	l0,0l0,0l0,0c0,0,0,0,0,0.1l0,0v-0.1V17l0,0l0,0l0,0v-0.1c0,0,0,0,0-0.1l0,0c0,0,0,0,0,0.1l0,0c0,0,0,0,0,0.1l0,0l0,0l0,0l0,0l0,0
	l-0.1-0.1c0-0.1,0-0.1,0-0.2l0,0c0,0,0,0,0,0.1v0.1v-0.1v-0.1c0,0,0,0,0,0.1l0,0v-0.1v-0.1c0,0,0,0,0,0.1l0,0c0,0,0,0,0,0.1l0,0l0,0
	l0,0c0,0,0,0,0,0.1l0,0l0,0c0,0,0,0,0-0.1l0,0l0,0l0,0v-0.1l0,0v-0.1v0.1l0,0l0,0l0,0l0,0l0,0l0,0l0,0v-0.1v0.1l0,0l0,0l0,0l0,0l0,0
	l0,0l0,0v-0.1v0.1l0,0v-0.1c0,0,0,0,0-0.1l0,0c0,0,0,0,0,0.1l0,0v-0.1c0,0,0,0,0-0.1l0,0l0,0l0,0c0,0,0,0,0,0.1l0,0l0,0l0,0l0,0l0,0
	l0,0l0,0l0,0h-0.1l0,0l0,0l0,0l0,0l0,0l0,0l0,0v0.1l0,0h-0.1l0,0c0,0,0,0-0.1,0l0,0l0,0l0,0v-0.1l-0.1-0.1l0,0l0,0v0.1l0,0l0,0l0,0
	l0,0h-0.1l-1.1,0.1h-0.1l0,0l0,0l0.1,0.1l0.1,0.1h-0.1h-0.1H39l0,0l0,0h0.1l0,0H39h-0.1l0,0l0,0c0,0,0.1,0,0.1,0.1h-0.1l0,0l0,0
	h-0.1h-0.1l0,0c-0.3,0.1-0.5,0.2-0.7,0.3c-0.2,0.1-0.3,0.2-0.4,0.4l0,0c-0.1,0.1-0.1,0.2-0.2,0.2l0,0v0.1L37.1,18H37l0,0h0.1h0.1
	v0.1l0,0l-0.1,0.1l0,0h0.1l0,0h-0.1c0,0-0.1,0-0.1,0.1h0.1H37l0,0h0.1v0.1v0.1l-0.1,0l-0.2,0.1h-0.1l0,0h0.1h0.1l0.1-0.1
	c-0.1,0.1-0.1,0.1-0.2,0.2h-0.1h0.2c-0.1,0-0.1,0.1-0.2,0.1h-0.2h0.1h0.2h-0.1h0.2H37h-0.1H37l0,0h0l0,0l0,0c-0.1,0-0.1,0.1-0.2,0.1
	h-0.1h0.1H37l0,0c-0.2,0.1-0.4,0.2-0.4,0.3c0.1,0,0.2,0,0.3,0c-0.1,0.2-0.1,0.3-0.3,0.5l-0.1,0.1c-0.2-0.1-0.4-0.2-0.7-0.2l-0.3-0.1
	c-0.2-0.1-0.4-0.1-0.6-0.1c-0.3,0-0.6,0-0.9,0.1l-0.6,0.1c-0.3,0-0.5,0.1-0.7,0.2c-0.2,0.1-0.5,0.2-0.7,0.2l-0.7,0.2
	c-0.3,0.2-0.7,0.3-1,0.4l-0.1,0c-0.1,0-0.1,0-0.2,0l-0.5,0.1l-0.6,0.1c-0.3,0.1-0.7,0.2-1,0.2c-0.1,0-0.2,0-0.4,0
	c-0.5,0-0.9,0-1.5-0.2c-0.1,0-0.2-0.1-0.3-0.1s-0.1-0.1-0.2-0.1l-0.1-0.1c-0.2-0.1-0.5-0.3-0.7-0.4c-0.2-0.1-0.5-0.3-0.8-0.4
	c-0.6-0.3-1.3-0.3-2-0.2c-0.2,0.1-0.4,0.2-0.6,0.3c-0.2,0.1-0.4,0.2-0.5,0.4l-0.5,0.4l-0.2,0.2c-0.1,0.1-0.2,0.1-0.3,0.2l-0.7,0.2
	c-0.2,0.1-0.5,0.1-0.7,0.2c-0.2,0.1-0.7,0.2-1.1,0.3c-0.3,0.1-0.7,0.2-1,0.3l-0.9,0.3h-0.1h-0.1l-0.5,0.3h-0.2l-0.3,0.1
	c-0.4,0.1-0.8,0.1-1.3,0l-0.5-0.1c-0.2,0-0.4-0.1-0.6-0.1c-0.3,0-0.6,0-0.9,0c-0.1,0-0.2,0-0.3,0c-0.4,0.1-0.8,0.1-1.2,0.2
	C8.4,23,8.1,23,7.9,23.1c-0.2,0.1-0.4,0.2-0.6,0.3C7,23.5,7,23.5,6.9,23.5c-0.1,0-0.2,0.1-0.3,0.1c-0.2,0.1-0.4,0.2-0.6,0.3
	c-0.2,0.1-0.4,0.2-0.6,0.2c-0.2,0.1-0.4,0.1-0.6,0.2c-0.4,0.1-0.9,0.1-1.5,0.2c-0.2,0-0.4,0-0.6,0S2.3,24.6,2,24.6
	c-0.1,0-0.1,0-0.2,0.1c0,0.3-0.1,0.2-0.1,0.3c-0.1,0.1-0.2,0.1-0.2,0.2c-0.1,0.4,0,0.9,0.2,1.3c0.1,0.2,0.1,0.4,0.2,0.6
	c0,0.4,0,0.7-0.1,1.1c-0.1,0.3-0.1,0.7,0,1c0.1,0.4,0.6,0.6,1,0.5l0,0C3,29.9,3,30,3.1,30c0.1,0,0.2,0,0.2-0.1h0.1h0.1
	c0,0,0-0.1,0.1-0.1c0,0,0.1,0.1,0.2,0.1c0.1,0,0.2,0,0.3,0l0.1-0.1c0.1,0,0.1-0.1,0.1-0.1c0.1,0,0.1,0.1,0.2,0.1h0.1h0.1
	c0,0,0,0,0.1,0h0c0-0.1,0.1-0.1,0.1-0.2s0-0.1,0-0.1s0,0,0-0.1c0-0.1,0-0.1-0.1-0.1c-0.1,0-0.1,0-0.1-0.1l-0.1-0.1
	c-0.2,0-0.4-0.1-0.5-0.1c0.1-0.2,0.2-0.4,0.2-0.6c0.1-0.2,0.1-0.5,0.2-0.7v-0.1l0.2-0.2c0.1-0.1,0.1-0.2,0.2-0.2
	c0.1-0.1,0.2-0.2,0.4-0.2c0.4-0.1,0.8-0.2,1.1-0.3c0.4-0.1,0.8-0.2,1.2-0.3l0.4-0.1c0.2-0.1,0.4-0.1,0.6-0.1
	c0.7-0.1,1.3-0.2,2.1-0.2h0.5c0.1,0,0.3,0,0.4,0.1c0.3,0.1,0.7,0.2,1,0.2h0.3h0.3h0.6c0.4,0,0.8-0.1,1.2-0.1c0.8,0,1.7,0,2.5-0.1
	l1.2-0.1l1.1-0.1c0.4,0,0.7-0.1,1.1-0.2c0.4-0.1,0.7-0.1,1-0.2c0.5,0.1,0.9,0.3,1.5,0.4c0.5,0.1,1,0.2,1.6,0.2c0.2,0,0.4,0,0.5,0
	c0.3,0,0.7,0,1,0s0.7-0.1,1-0.1s0.6,0,0.9,0c0.3,0,0.9,0.2,1.3,0.3c0.1,0,0.1,0.1,0.1,0.1l0.1,0.1c0.1,0.1,0.3,0.2,0.5,0.2
	c0.1,0,0.2,0,0.3,0c0.1,0,0.2,0,0.3,0c0.4-0.1,0.8-0.3,1.1-0.6c0.2-0.2,0.4-0.4,0.7-0.7s0.2-0.2,0.2-0.2c0.1-0.2,0.3-0.3,0.4-0.5
	c0.1-0.1,0.2-0.1,0.3-0.2l0.1-0.1c0,0,0.1-0.1,0.2-0.1c0,0.8-0.1,1.8,0,2.6c0,0.4,0.1,0.8,0.1,1.2s0.1,0.7,0.1,1.1
	c0,0.2,0.1,0.4,0.2,0.6c0.1,0.2,0.4,0.3,0.6,0.2c0,0,0,0.1,0.1,0.1l0.1,0.1c0.1,0.1,0.2,0.1,0.3,0.1s0.2,0,0.3,0h0.3
	c0.2,0,0.4,0,0.7,0.1c0.4,0,0.9,0.1,1.3,0c0.2,0,0.4,0,0.6-0.1c0.4-0.1,0.9-0.1,1.3-0.1c0.1,0,0.2,0,0.4,0s0.2,0.1,0.3,0.1
	c0.1,0.1,0.2,0.1,0.2,0.1H42h0.1c0.1,0,0.1,0,0.2,0l0.6,0.1c0.1,0,0.2,0.1,0.4,0.1l0,0c0.1,0,0.1,0,0.2,0c0.2,0,0.4,0.1,0.5,0.1
	c0.1,0,0.2,0,0.3,0.1c0.1,0,0.2,0.1,0.3,0.1l0,0c0,0,0.1,0,0.1-0.1s0.1,0,0.1-0.1c0-0.1-0.2-0.1-0.3-0.2v-0.1l0,0l0,0l0.1,0.1h0.1
	l0,0c0.1,0,0.2,0.1,0.3,0c0.1-0.1,0.1,0,0.1,0v-0.1c0,0,0.1,0,0.1-0.1v-0.1c0,0,0,0,0-0.1c0-0.1,0-0.1,0-0.1c0.1,0,0.2,0,0.2,0h0.1
	C45.5,30.1,45.5,30,45.4,29.9C45.5,30,45.5,30,45.4,29.9z M42.1,19.9L42.1,19.9L42.1,19.9L42.1,19.9z M41.9,17.9L41.9,17.9z
	 M41.2,17.3L41.2,17.3z M41.5,18.3L41.5,18.3L41.5,18.3l0.2,0.1L41.5,18.3z M42.2,20.3L42.2,20.3L42.2,20.3L42.2,20.3L42.2,20.3
	L42.2,20.3z M42.1,19.9L42.1,19.9L42.1,19.9L42.1,19.9C42.1,19.9,42,19.8,42.1,19.9L42.1,19.9z M42.1,19L42.1,19L42.1,19z
	 M42.1,18.8L42.1,18.8z M42,18.5L42,18.5L42,18.5l-0.2-0.1L42,18.5L42,18.5L42,18.5L42,18.5z M42.1,18.5L42.1,18.5L42.1,18.5
	L42.1,18.5L42.1,18.5L42.1,18.5H42H42.1z M42,18.5L42,18.5L42,18.5L42,18.5L42,18.5L42,18.5z M41.9,18L41.9,18z M41.9,18.2
	L41.9,18.2c-0.1,0-0.2,0-0.2-0.1L41.9,18.2z M41.8,17.8L41.8,17.8L41.8,17.8h-0.1H41.8z M41.8,18.2L41.8,18.2l-0.1-0.1l0,0
	C41.7,18.2,41.7,18.2,41.8,18.2L41.8,18.2z M43.8,30.6l-0.3-0.1C43.6,30.4,43.7,30.4,43.8,30.6c0-0.1,0.1-0.1,0.2-0.1h0.1
	C43.9,30.6,43.8,30.4,43.8,30.6L43.8,30.6z M44.1,30.6L44.1,30.6z"/>
</svg>
