<?xml version="1.0" encoding="utf-8"?>
<!-- Generator: Adobe Illustrator 23.1.0, SVG Export Plug-In . SVG Version: 6.00 Build 0)  -->
<svg version="1.1" id="icons" xmlns="http://www.w3.org/2000/svg" xmlns:xlink="http://www.w3.org/1999/xlink" x="0px" y="0px"
	 viewBox="0 0 47 47" style="enable-background:new 0 0 47 47;" xml:space="preserve">
<style type="text/css">
	.st0{fill:#464646;}
</style>
<title>Racquetball</title>
<path class="st0" d="M29.4,32.1c-2.3,0-4.2,2-4.2,4.3s2,4.2,4.3,4.2s4.1-1.9,4.2-4.2v-0.1c0-2.3-1.9-4.2-4.2-4.2l0,0
	C29.5,32.1,29.4,32.1,29.4,32.1z M29.4,33.1c1.8,0,3.3,1.4,3.3,3.2l0,0v0.1c0.1,1.8-1.3,3.4-3.1,3.5c-1.8,0.1-3.4-1.3-3.5-3.1
	c0-0.1,0-0.2,0-0.4l0,0C26.2,34.6,27.6,33.1,29.4,33.1L29.4,33.1z"/>
<path class="st0" d="M32,1.4C25.9,1.6,20.9,6,19.7,12c-0.7,4.1-1.2,8.3-1.2,12.4c0,0.8-0.3,1.7-0.9,2.3l-6.9,6.9H9.2l-6.9,6.8
	c-0.5,0.5-0.5,1.4,0,1.9l0,0l2.1,2.1c0.5,0.5,1.4,0.5,1.9,0l0,0l6.9-6.9v-1.5l6.9-6.9c0.6-0.6,1.5-0.9,2.3-0.9
	c4.2,0,8.3-0.3,12.4-1.2l0,0c7.1-1.6,11.5-8.6,9.8-15.7C43.4,5.6,38.1,1.4,32,1.4L32,1.4z M32,2.7C38.5,2.5,43.9,7.5,44.2,14
	c0.2,5.8-3.9,10.8-9.6,12c-2.5,0.4-5.1,0.7-7.7,0.9L20,19.6c0.2-2.4,0.5-4.8,1.1-7.3C22.1,6.9,26.7,2.9,32,2.7L32,2.7z"/>
<path class="st0" d="M33.1,4c-0.6,0-1.4,0-2,0.1l-1.3,1.2l-0.7-0.7c-0.3,0.1-0.5,0.2-0.7,0.3l0.9,0.9l-1.7,1.7l-1.4-1.4
	c-0.2,0.2-0.4,0.3-0.6,0.5l1.5,1.5l-1.7,1.7L24,8.5c-0.1,0.2-0.3,0.4-0.4,0.6l1.3,1.3L23.2,12l-0.5-0.5c-0.1,0.3-0.2,0.6-0.2,0.9
	c-0.1,0.5-0.2,1.2-0.3,1.7l1.1-1.1l1.7,1.7l-1.7,1.7l-1.3-1.3c0,0.3-0.1,0.6-0.1,0.9l0.8,0.8L21.6,18c0,0.4-0.1,0.7-0.1,1.2l1.7-1.7
	l1.7,1.7l-1.6,1.6l0.5,0.5l1.6-1.6l1.7,1.7l-1.7,1.7l0.5,0.5l1.7-1.7l1.7,1.7l-1.7,1.7l0.5,0.5l1.8-1.7l0.8,0.8l0.9-0.1l-1.3-1.3
	l1.7-1.7l1.7,1.7l-1.1,1.1c0.9,0,1.8-0.1,2.7-0.4l0,0l-0.6-0.6l1.7-1.7l1.3,1.3l0.6-0.4l-1.4-1.4l1.7-1.7l1.5,1.5
	c0.2-0.2,0.3-0.4,0.5-0.6l-1.5-1.5l1.7-1.7l1.1,1.1c0.1-0.2,0.2-0.5,0.3-0.7l-0.7-0.8l1.3-1.3C43,15,43,14.4,43,13.7l-1.4-1.4
	l0.9-0.9c-0.1-0.3-0.2-0.5-0.3-0.8L41,11.8l-1.7-1.7l1.9-1.6c-0.1-0.2-0.3-0.4-0.4-0.6l-1.9,1.9l-1.7-1.7l1.9-1.9
	c-0.2-0.2-0.4-0.3-0.6-0.4l-1.8,1.8L35,5.9l1.3-1.3c-0.3-0.1-0.5-0.2-0.8-0.2l-1.1,0.8L33.1,4z M32.1,4.2l1.7,1.7l-1.7,1.7l-1.7-1.7
	L32.1,4.2z M29.8,6.5l1.7,1.7l-1.7,1.7l-1.7-1.7L29.8,6.5z M34.3,6.5L36,8.2l-1.7,1.7l-1.7-1.7L34.3,6.5z M27.6,8.7l1.7,1.7L27.6,12
	l-1.7-1.7L27.6,8.7z M32.1,8.7l1.7,1.7L32.1,12l-1.7-1.7L32.1,8.7z M36.7,8.7l1.7,1.7L36.7,12l-1.8-1.8L36.7,8.7z M25.4,11l1.7,1.7
	l-1.7,1.7l-1.8-1.8L25.4,11z M29.9,11l1.7,1.7l-1.7,1.7l-1.7-1.7L29.9,11z M34.4,11l1.7,1.7l-1.7,1.7l-1.7-1.7L34.4,11z M39,11
	l1.7,1.7L39,14.4l-1.7-1.7L39,11z M27.6,13.2l1.7,1.7l-1.7,1.7l-1.7-1.7L27.6,13.2z M32.1,13.2l1.7,1.7l-1.7,1.7l-1.7-1.7L32.1,13.2
	z M36.7,13.2l1.7,1.7l-1.8,1.6l-1.7-1.7L36.7,13.2z M41.2,13.2l1.7,1.7l-1.7,1.7l-1.7-1.7L41.2,13.2z M25.3,15.3L27,17l-1.7,1.7
	L23.6,17L25.3,15.3z M29.8,15.3l1.7,1.7l-1.7,1.7L28.1,17L29.8,15.3z M34.3,15.3L36,17l-1.7,1.7L32.7,17L34.3,15.3z M38.9,15.3
	l1.8,1.7L39,18.7L37.2,17L38.9,15.3z M27.6,17.5l1.7,1.7l-1.7,1.7l-1.7-1.6L27.6,17.5z M32.1,17.5l1.7,1.7l-1.7,1.7l-1.8-1.8
	L32.1,17.5z M36.7,17.5l1.7,1.7l-1.7,1.7L35,19.2L36.7,17.5z M29.9,19.8l1.7,1.7l-1.7,1.7l-1.8-1.8L29.9,19.8z M34.4,19.8l1.7,1.7
	l-1.7,1.7l-1.8-1.8L34.4,19.8z"/>
</svg>
