<?xml version="1.0" encoding="utf-8"?>
<!-- Generator: Adobe Illustrator 23.1.0, SVG Export Plug-In . SVG Version: 6.00 Build 0)  -->
<svg version="1.1" id="icons" xmlns="http://www.w3.org/2000/svg" xmlns:xlink="http://www.w3.org/1999/xlink" x="0px" y="0px"
	 viewBox="0 0 47 47" style="enable-background:new 0 0 47 47;" xml:space="preserve">
<style type="text/css">
	.st0{fill:#919191;}
	.st1{fill:#FD803D;}
	.st2{fill:#F4AA34;}
	.st3{fill:#FDBB3D;}
	.st4{fill:#C4C4C2;}
	.st5{fill:#D1D1CF;}
</style>
<title>recumbent</title>
<g id="flat">
	<path class="st0" d="M8.6,24.2c-4.2,0-7.6,3.4-7.6,7.6s3.4,7.6,7.6,7.6s7.6-3.4,7.6-7.6S12.9,24.2,8.6,24.2L8.6,24.2z M8.6,36.4
		c-2.5,0-4.5-2-4.5-4.5s2-4.5,4.5-4.5s4.5,2,4.5,4.5C13.3,34.4,11.2,36.4,8.6,36.4C8.8,36.4,8.6,36.4,8.6,36.4L8.6,36.4z"/>
	<path class="st0" d="M37.6,24.2c-4.2,0-7.6,3.4-7.6,7.6s3.4,7.6,7.6,7.6s7.6-3.4,7.6-7.6l0,0C45.2,27.6,41.7,24.2,37.6,24.2z
		 M37.6,36.4c-2.5,0-4.5-2-4.5-4.5s2-4.5,4.5-4.5c2.5,0,4.5,2,4.5,4.5S40.1,36.4,37.6,36.4L37.6,36.4L37.6,36.4z"/>
	<path class="st1" d="M36.2,22.8l4.7-1.7l-0.5-1.5l-4.5,1.6L33.4,11c-0.2-0.8-1.2-1.5-2-1.3c-0.3,0.1-0.5,0.2-0.8,0.4l-4.9,5.1
		l1.1,1.1l5-5h0.1c0.1,0,0.1,0.1,0.1,0.1l2.4,10.3L9.5,30.5l5.7-10.8L13.8,19L7.3,31.4c-0.2,0.4-0.1,0.8,0.3,1.1l0,0
		c0.2,0.1,0.4,0.1,0.6,0l26.5-9.3l2.1,8.7c0,0.2,0.2,0.4,0.4,0.5l1.5,0.7l0.6-1.4l-1.2-0.6L36.2,22.8z"/>
	<polygon class="st2" points="15.2,19.7 13.8,19 12.9,20.9 14.1,21.8 	"/>
	<path class="st0" d="M10.3,12l1.1,3.9c0.6,2.1,1.9,4,3.7,5.2l5.7,3.8c1.7,1.2,3.9,1,5.5-0.3l1-0.8c0.5-0.4,0.5-1.2,0.1-1.7l0,0
		l-0.1-0.1l0,0c-0.3-0.3-0.8-0.4-1.4-0.2l-1.6,0.7c-0.4,0.2-1,0.2-1.5,0l-5.6-3.2c-1.7-1-2.9-2.5-3.5-4.3l-1.1-3.5
		c-0.1-0.6-0.7-1.1-1.4-0.8h-0.1l0,0C10.6,10.7,10.1,11.3,10.3,12z"/>
	<rect x="27.7" y="9.1" transform="matrix(0.6 -0.8 0.8 0.6 2.6044 27.1277)" class="st3" width="1.5" height="3.8"/>
	<circle class="st0" cx="26.2" cy="9" r="1.5"/>
	<path class="st2" d="M40.9,21.2l-0.5-1.5l-1.6,0.6c0,0.5,0.2,1.1,0.4,1.5L40.9,21.2z"/>
	<path class="st4" d="M42.9,22.8c-1.7,0-3.1-1.4-3.1-3.1s1.4-3.1,3.1-3.1c1.7,0,3.1,1.4,3.1,3.1l0,0C46,21.4,44.6,22.8,42.9,22.8z
		 M42.9,18.1c-0.8,0-1.5,0.6-1.5,1.5s0.6,1.5,1.5,1.5s1.5-0.6,1.5-1.5l0,0C44.4,18.8,43.7,18.1,42.9,18.1z"/>
	<path class="st4" d="M41.4,17.7l-0.6-1.8h-2.4v-1.5h3.1c0.3,0,0.6,0.2,0.7,0.5l0.7,2.3L41.4,17.7z"/>
	<path class="st5" d="M46,25h-1.5c-0.3,0-0.6-0.2-0.7-0.5l-1.5-4.5l1.4-0.5l1.4,4.1h1C46,23.5,46,25,46,25z"/>
</g>
</svg>
