<?xml version="1.0" encoding="utf-8"?>
<!-- Generator: Adobe Illustrator 23.1.0, SVG Export Plug-In . SVG Version: 6.00 Build 0)  -->
<svg version="1.1" id="icons" xmlns="http://www.w3.org/2000/svg" xmlns:xlink="http://www.w3.org/1999/xlink" x="0px" y="0px"
	 viewBox="0 0 47 47" style="enable-background:new 0 0 47 47;" xml:space="preserve">
<style type="text/css">
	.st0{fill:#4DBFD9;}
	.st1{fill:#4F4F4F;}
	.st2{fill:#666666;}
</style>
<title>ResistanceTraining</title>
<g id="Resistance_Training">
	<path class="st0" d="M44.8,23.8c0,0.4-0.2,0.6-0.4,0.6H2.5c-0.2,0-0.4-0.3-0.4-0.6v-0.6c0-0.4,0.2-0.7,0.4-0.7h41.9
		c0.2,0,0.4,0.3,0.4,0.6L44.8,23.8z"/>
	<path class="st1" d="M8.4,18v10.7c-0.1,0.9,0.5,1.7,1.4,1.8h0.1V16.6l0,0C9.1,16.5,8.4,17.1,8.4,18C8.4,17.9,8.4,17.9,8.4,18z"/>
	<path class="st2" d="M9.8,16.5v13.9c0.9-0.1,1.5-0.9,1.4-1.8V18C11.2,17.2,10.6,16.5,9.8,16.5L9.8,16.5z"/>
	<path class="st1" d="M5.6,18v10.7c-0.1,0.8,0.5,1.6,1.4,1.7h0.1V16.6l0,0C6.3,16.5,5.6,17.1,5.6,18C5.6,17.9,5.6,17.9,5.6,18z"/>
	<path class="st2" d="M7,16.5v13.9c0.9-0.1,1.5-0.9,1.4-1.8V18C8.4,17.2,7.8,16.5,7,16.5L7,16.5z"/>
	<path class="st1" d="M35.6,18v10.7c-0.1,0.9,0.5,1.6,1.4,1.8h0.1V16.6l0,0C36.3,16.5,35.6,17.1,35.6,18
		C35.6,17.9,35.6,17.9,35.6,18z"/>
	<path class="st2" d="M37,16.5v13.9c0.9-0.1,1.5-0.9,1.4-1.8V18C38.5,17.2,37.8,16.5,37,16.5L37,16.5z"/>
	<path class="st1" d="M38.5,18v10.7c-0.1,0.9,0.5,1.6,1.4,1.8H40V16.6l0,0C39.1,16.5,38.5,17.1,38.5,18C38.5,17.9,38.5,17.9,38.5,18
		z"/>
	<path class="st2" d="M39.8,16.5v13.9c0.9-0.1,1.5-0.9,1.4-1.8V18C41.3,17.2,40.6,16.5,39.8,16.5L39.8,16.5z"/>
	<path class="st1" d="M12.7,15.3L12.7,15.3c-0.8,0-1.4,0.6-1.4,1.4v13c-0.1,0.9,0.5,1.7,1.4,1.8l0,0V15.3z"/>
	<path class="st2" d="M12.7,15.3L12.7,15.3v16.3l0,0c0.9-0.1,1.5-0.9,1.4-1.8v-13C14.1,16,13.5,15.3,12.7,15.3L12.7,15.3z"/>
	<path class="st1" d="M32.8,16.8v13c-0.1,0.9,0.5,1.7,1.4,1.8l0,0V15.3l0,0C33.3,15.3,32.8,15.9,32.8,16.8
		C32.8,16.7,32.8,16.8,32.8,16.8z"/>
	<path class="st2" d="M34.1,15.3L34.1,15.3v16.3l0,0c0.9-0.1,1.5-0.9,1.4-1.8v-13C35.6,16,35,15.3,34.1,15.3
		C34.3,15.3,34.1,15.3,34.1,15.3z"/>
</g>
</svg>
