<?xml version="1.0" encoding="utf-8"?>
<!-- Generator: Adobe Illustrator 23.1.0, SVG Export Plug-In . SVG Version: 6.00 Build 0)  -->
<svg version="1.1" id="icons" xmlns="http://www.w3.org/2000/svg" xmlns:xlink="http://www.w3.org/1999/xlink" x="0px" y="0px"
	 viewBox="0 0 47 47" style="enable-background:new 0 0 47 47;" xml:space="preserve">
<style type="text/css">
	.st0{fill:#8EA8D1;}
	.st1{fill:#FFFFFF;}
	.st2{fill:#CA1B00;}
	.st3{fill:#E6B28B;}
	.st4{fill:#EFC2A6;}
	.st5{fill:#39637C;}
	.st6{fill:#394855;}
	.st7{fill:#47C9A9;}
	.st8{fill:#FD593B;}
</style>
<title>RockClimbing</title>
<g id="Rock_Climbing">
	<polygon class="st0" points="1.5,44.8 1.5,28.2 5.2,27.4 5.2,14.7 7.3,13.6 7.3,3.6 12,2.2 32.8,2.2 33.5,4.2 37.7,5.3 37.7,6.9 
		39.7,8.7 39.7,14.1 41.7,15.1 41.7,18.2 43.3,18.4 43.3,36.2 45.5,39.6 45.5,44.8 	"/>
	<polygon class="st1" points="2.1,44.8 2.1,28.2 5.8,27.4 5.8,14.7 7.9,13.6 7.9,4.6 13.2,3 32,3 32.5,5.3 36.3,6.2 36.3,7.8 
		38.5,9.6 38.5,16 40.7,16.9 40.7,22.6 41.4,22.9 41.4,35.1 43.3,38.3 43.3,44.8 	"/>
	<path class="st0" d="M4.6,42.3c0.6-0.2,1.2-0.4,1.8-0.5c0.4,0,1.4,0.8,1.4,0.8l2.2-0.3l2.1,0.3l0.6-0.2l2.1,0.7h1.9L20,44l-3.5-0.6
		l-1.7,0.3l-1.5-0.5H11l-0.3,0.3l-2.2-0.3L7,43.8l-1.9-0.4v-0.6L4.6,42.3z"/>
	<path class="st0" d="M39,17.7c-0.6-0.2-1.2-0.2-1.8-0.3c-0.5,0.1-1,0.2-1.4,0.4l-2.2-0.1l-2.2,0.1h-0.6l-2.1,0.3h-1.9l-3.2,0.4
		l3.5-0.3l1.7,0.1l1.5-0.3h2.4l0.3,0.2l2.1-0.1l1.5,0.3l1.9-0.2v-0.3L39,17.7z"/>
	<polygon class="st0" points="27.1,41.8 29.8,41.8 31.3,41.1 33.1,40.6 33.5,40.7 33.3,41.2 34.3,41.6 35.5,41.5 36.2,40.9 
		36.9,41.1 37.3,41.2 37.9,40.9 39.2,41.4 40.5,41.4 41,41 41.5,41.3 43.4,41.3 43.4,43.3 41,43.6 39.8,44.1 37.9,43.2 36.3,43.2 
		36,43.5 35,44 34.5,43.6 33.7,43.6 32.6,43.3 32.1,43.3 31.5,42.9 31,42.9 30.7,43.2 29.5,43.2 28.7,42.4 	"/>
	<polygon class="st0" points="20.8,38.8 22.2,38.5 23.1,38.9 22.1,39.2 	"/>
	<polygon class="st0" points="28.6,37.7 29.5,37.4 30.3,37.6 32,37.2 32.8,37.6 31.9,37.5 30.4,37.8 29.6,38.3 29.2,38 28.7,38.3 
		28.2,38 	"/>
	<polygon class="st0" points="32.6,37 34,36.6 34.2,36.6 34.9,36.2 35.3,36.4 34.5,36.8 34,36.7 33.3,37 33.1,36.9 	"/>
	<polygon class="st0" points="9.6,31.8 10.1,32.3 10.8,32.4 12.1,32.7 13.4,32.7 13.2,32.5 14,32.4 14.8,32.5 15.6,32.4 15.1,32.8 
		14.1,32.8 13.3,33 12.4,33 11.4,32.7 10.6,32.6 9.9,32.6 	"/>
	<polygon class="st0" points="9.6,31.8 10.1,32.3 10.8,32.4 12.1,32.7 13.4,32.7 13.2,32.5 14,32.4 14.8,32.5 15.6,32.4 15.1,32.8 
		14.1,32.8 13.3,33 12.4,33 11.4,32.7 10.6,32.6 9.9,32.6 	"/>
	<polygon class="st0" points="10.4,31.9 11.5,31.1 11.1,31.8 11,31.7 10.7,31.9 	"/>
	<polygon class="st0" points="4.9,28.7 5.3,28.8 6.1,28.7 6.5,29 7,29 7.5,29.3 8.6,29.3 9.1,29.2 12.6,29.3 13.7,28.5 15.8,28.5 
		15.6,29 14,28.8 13.8,29.3 13.1,29.3 12.6,30 11.5,29.6 10.7,29.7 9.6,29.8 9.3,29.6 8.8,29.8 8.2,29.7 7.8,29.9 7.4,29.5 
		6.8,29.5 6.1,29.1 5.5,29.1 	"/>
	<path class="st0" d="M36.8,36.5l1.1-0.4l0.3,0.1l0.2-0.2l0.7-0.5l-0.4,0.4l-0.1,0.3H39l0.4-0.2h0.2l-0.7,0.5l-0.4-0.1l-0.3,0.3
		L38,36.5l-0.5,0.1l-0.1-0.1H36.8z"/>
	<polygon class="st0" points="39,10 38.3,10.2 37,10.1 36.4,10.4 35.5,10.4 34.7,10.7 32.8,10.7 32.1,10.6 26.2,10.7 24.3,9.9 
		20.9,9.9 21.3,10.4 23.9,10.2 24.3,10.7 25.4,10.7 26.2,11.4 28,11 29.4,11 31.2,11.2 31.6,11 32.6,11.2 33.5,11.1 34.2,11.3 
		34.9,10.9 35.9,10.9 37,10.5 38,10.5 	"/>
	<polygon class="st0" points="24.6,28.3 26,28.5 26.8,28.3 27.6,28.4 29.1,28.5 30.6,28.3 31.4,28.4 30.7,28.5 30.4,28.5 29.2,28.7 
		28.8,28.6 27.9,28.7 27.1,28.4 26.4,28.7 25.7,28.7 	"/>
	<polygon class="st0" points="33.8,28.2 36,28.3 36.7,28.6 37.5,28.6 38,28.9 38.5,28.6 41.5,28.3 41.5,29.4 38.5,29 38,29.1 
		37.5,28.9 36.8,29 36,28.5 	"/>
	<polygon class="st0" points="23.9,37.9 25.4,37.7 26.2,37.9 27,37.9 27.3,38.3 25.9,38.1 25.6,38 24.6,38.2 	"/>
	<polygon class="st0" points="10.3,6.8 12.6,6.9 13.2,7.2 14,7.2 14.6,7.6 15.2,7.3 15.5,7.4 15.4,7.6 15.1,7.6 14.6,7.8 14,7.6 
		13.4,7.6 12.6,7.1 	"/>
	<polygon class="st0" points="10.3,6.8 12.6,6.9 13.2,7.2 14,7.2 14.6,7.6 15.2,7.3 15.5,7.4 15.4,7.6 15.1,7.6 14.6,7.8 14,7.6 
		13.4,7.6 12.6,7.1 	"/>
	<polygon class="st0" points="11.4,22.6 12.5,23.4 13.7,23.7 13.6,24.1 13,23.8 12.4,23.8 	"/>
	<polygon class="st0" points="8.2,22.6 9.3,23.4 10.5,23.7 10.4,24.1 9.8,23.8 9.1,23.8 	"/>
	<polygon class="st0" points="13.4,19.7 14.4,18.1 15.1,17.6 15.4,16.9 15.4,17.8 14.5,18.6 14.3,19.4 14,19.4 	"/>
	<polygon class="st0" points="13.4,19.7 14.4,18.1 15.1,17.6 15.4,16.9 15.4,17.8 14.5,18.6 14.3,19.4 14,19.4 	"/>
	<polygon class="st0" points="8.1,15 9.3,15.2 10.8,14.9 11.4,15.1 11.8,14.9 13.5,15.5 14.5,15.3 15.7,15.4 16.7,15.2 17.8,15.4 
		18.5,15 18.9,15 19.1,15.2 20.9,15.4 21.8,15.6 23.8,15.2 26.6,15.2 30.7,15.4 31.2,15.6 33.3,15.7 35.7,15.4 38,16 35.5,15.6 
		34.7,16 34.5,15.8 34,16 33.3,16.1 33.1,15.8 31.9,16 30.8,15.9 30.1,15.6 24.7,15.5 22.6,15.9 21.6,16.4 20.8,15.7 19.6,15.4 
		18.4,15.5 18.1,15.8 17.2,15.5 16.5,15.5 16.1,15.7 15.4,15.6 14.3,15.8 12.9,15.8 12.4,15.3 11.9,15.2 11.3,15.3 10.7,15.2 
		9.9,15.5 8.9,15.4 8.8,15.2 	"/>
	<polygon class="st0" points="2.1,33.4 2.6,33.4 5.1,33.5 4.3,33.7 3.9,33.8 3.2,33.6 2.5,33.8 	"/>
	<polygon class="st0" points="9.1,20.3 10.2,20.3 10.5,20.2 11.4,20.5 12,20.4 12.5,20.8 11.4,20.9 10.6,20.5 9.7,20.7 	"/>
	<polygon class="st0" points="24.2,3.7 25.7,4.9 26.1,5.8 27.5,5.6 28.4,6 29.3,6.5 30.5,6.5 31.8,7.1 34,7.2 35,6.7 34,7 32,6.9 
		30.6,5.9 29.6,6.2 27.9,5.1 26.4,5.1 	"/>
	<polygon class="st0" points="30.9,9.1 32,9 32.8,8.6 34,8.7 34.5,8.2 35.3,8.2 37.5,8.3 37.5,8.9 35.2,8.4 34.5,8.7 33.3,8.8 
		32.7,8.8 32.3,9.1 31.9,9.1 31.4,9.4 	"/>
	<polygon class="st0" points="15.7,4.9 16.8,5 17.9,4.7 18.2,4.8 17.5,5.2 17.2,5.1 16.7,5.3 	"/>
	<polygon class="st0" points="18.2,5.3 19.5,5.3 20.1,5 21,5 21.7,4.6 22.4,4.6 21.6,4.8 21.1,5.3 20.5,5.2 20.2,5.7 19.7,5.6 
		19.4,5.9 18.9,5.6 18.4,5.6 17.6,5.6 18,5.3 	"/>
	<path class="st2" d="M7.3,44.8h0.5c4.4-3.4,7.9-7.8,10.4-12.7l-0.3-0.2C15.3,36.9,11.7,41.3,7.3,44.8z"/>
	<path class="st2" d="M23.3,30.4L23,30.1c8.7-7.5,8.7-15.9,8.7-27.6V2.2h0.4v0.4C32.1,14.3,32.1,22.8,23.3,30.4z"/>
	<polygon class="st0" points="18.2,5.3 19.5,5.3 20.1,5 21,5 21.7,4.6 22.4,4.6 21.6,4.8 21.1,5.3 20.5,5.2 20.2,5.7 19.7,5.6 
		19.4,5.9 18.9,5.6 18.4,5.6 17.6,5.6 18,5.3 	"/>
	<path class="st3" d="M21.4,22.3h-1.1c-0.1,0.6-0.3,1.1-0.8,1.5c0.4,0.3,0.9,0.5,1.4,0.4c0.5,0,1-0.1,1.4-0.4
		C21.7,23.4,21.4,22.9,21.4,22.3z"/>
	<path class="st4" d="M18.4,20.4c-0.1-1.2,0.7-2.3,2-2.4c1-0.1,2,0.5,2.3,1.5c0.2,0,0.4,0.9,0.2,1c0.2,1.2-0.7,2.3-1.9,2.5
		c-1.1,0.1-2.1-0.5-2.4-1.6C18.4,21.4,18.2,20.5,18.4,20.4z"/>
	<path class="st4" d="M11.7,21.5c0-0.3,0.1-0.5,0.4-0.5c0.2,0,0.4,0.1,0.5,0.2c0.4,0.7,1.1,3,1.3,3.1c0.3,0.1,0.9,0.1,1.3,0.2v1.6
		c-0.7-0.1-1.4-0.2-2-0.5C12.6,24.3,12.1,22.9,11.7,21.5z"/>
	<path class="st5" d="M22.2,23.8c-0.4,0.3-0.9,0.5-1.4,0.4c-0.5,0-1-0.1-1.4-0.4l0,0c-1.4,0.5-2.8,0.7-4.3,0.8v2
		c0.9,0.2,1.8,0.4,2.7,0.4l-0.1,5.3l5.7-1l0.3-5c1-1.4,2.6-3.2,2.6-3.2l-1.5-1.2C24.1,22.6,23.2,23.2,22.2,23.8z"/>
	<path class="st4" d="M28.4,18.3c0.5-0.4,1.2,0.1,0.9,0.5c-0.5,0.7-3,3.9-3,3.9l-1.2-1C25,21.8,27.8,18.8,28.4,18.3z"/>
	<polygon class="st4" points="20,35.8 18.5,41.1 18,41.7 17.1,41.7 17.1,41.2 17.5,35.7 	"/>
	<path class="st6" d="M16.9,41.3l0.1-0.4l0.2,0.5L16.9,41.3z"/>
	<path class="st5" d="M18.8,42c0-0.3-0.1-0.7-0.3-1h-0.1c-0.1,0.1-0.1,0.4-0.4,0.5s-1-0.3-1-0.2c-0.2,0.3-0.5,0.6-0.9,0.8
		s-0.7,0.3-0.8,0.4c-0.1,0.1-0.1,0.1-0.1,0.2l0,0c0,0,0.2,0.2,1.5,0C17.4,42.6,18.1,42.3,18.8,42z"/>
	<path class="st6" d="M18.7,41.8c-0.3,0-0.4,0.2-1,0.5c-0.3,0.1-0.6,0.1-0.8,0.1c-0.2,0-0.5,0.4-0.7,0.4c-0.3,0.1-0.7,0.1-1,0
		c0,0,0,0,0,0.1s0.1,0.1,0.1,0.2c0.4,0.1,0.9,0.1,1.4,0l1.5-0.3l0.8-0.2C19.1,42.5,18.8,41.8,18.7,41.8z"/>
	<polygon class="st4" points="24.6,33.4 27.3,36.9 27.8,37.1 28.6,36.7 28.1,35.9 26.6,32.9 	"/>
	<path class="st5" d="M20.1,17.6c-2,0.4-2.2,1.9-1.8,3.8c0,0.2,1.2,0.2,2.5-0.1s2.4-0.8,2.4-1C22.8,18.4,22.1,17.2,20.1,17.6z"/>
	<path class="st7" d="M20.2,18.2c0.7-0.2,1.5-0.2,2.1,0.1c-0.6-0.6-1.4-0.8-2.2-0.5c-0.8,0.1-1.5,0.6-1.8,1.4
		C18.8,18.7,19.5,18.3,20.2,18.2z"/>
	<path class="st6" d="M28.4,35.9c0,0-0.4-0.2-0.4-0.1s0.2,0.5,0.2,0.5L28.4,35.9z"/>
	<path class="st5" d="M27.7,37.8c-0.2-0.3-0.4-0.6-0.5-0.9c0,0,0-0.1,0.1-0.1s0.4,0.2,0.6,0s0.4-0.9,0.5-0.9c0.4,0,0.8,0,1.1-0.1
		c0.4-0.1,0.7-0.3,0.8-0.3s0.2,0,0.3,0l0,0c0,0,0,0.3-1,1.1C29,37.1,28.4,37.5,27.7,37.8z"/>
	<path class="st6" d="M27.5,37.5c0.2-0.2,0.4-0.1,1-0.4c0.4-0.2,0.5-0.5,0.6-0.6s0.6-0.1,0.8-0.2c0.3-0.2,0.5-0.5,0.6-0.8
		c0,0,0,0,0.1,0.1s0.1,0.1,0,0.2c-0.2,0.4-0.5,0.8-0.9,1l-1.3,0.9l-0.6,0.5C27.8,38.3,27.5,37.5,27.5,37.5z"/>
	<path class="st6" d="M23.5,31.1l-5.7,1v0.4l-0.3,3.3l2.5,0.1l0.6-2.1c0.8,0.3,1.8,0.3,2.6,0.1l3.4-0.9
		C25.8,31.2,25.3,30.8,23.5,31.1z"/>
	<polygon class="st8" points="17.8,32.2 17.8,31 23.5,29.9 23.5,31.1 	"/>
</g>
</svg>
