<?xml version="1.0" encoding="utf-8"?>
<!-- Generator: Adobe Illustrator 23.1.0, SVG Export Plug-In . SVG Version: 6.00 Build 0)  -->
<svg version="1.1" id="icons" xmlns="http://www.w3.org/2000/svg" xmlns:xlink="http://www.w3.org/1999/xlink" x="0px" y="0px"
	 viewBox="0 0 47 47" style="enable-background:new 0 0 47 47;" xml:space="preserve">
<style type="text/css">
	.st0{fill:#F9BF44;}
	.st1{fill:#050506;}
	.st2{fill:#E3AB34;}
	.st3{fill:#3C3D3D;}
	.st4{fill:#FF5B00;}
	.st5{fill:#FFC692;}
	.st6{fill:#65ABB5;}
	.st7{fill:#3C3C3B;}
	.st8{fill:#FF6D00;}
	.st9{fill:#8F8471;}
	.st10{fill:#7C8A83;}
	.st11{fill:#9AABA3;}
	.st12{fill:#B5C9C0;}
</style>
<title>Rodeo</title>
<g id="Rodeo">
	<path class="st0" d="M7.4,36.6C7,35.5,7,34.3,7.5,33.2l1,1L7.4,36.6z"/>
	<path class="st1" d="M15.2,19.3c0-0.2-0.1-0.3-0.2-0.6c-0.1,0.3-0.2,0.6-0.3,0.9c0-0.3-0.1-0.5-0.3-0.7c-0.1,0.3-0.2,0.6-0.2,0.9
		c0-0.2,0-0.4-0.1-0.6c-0.1,0.2-0.2,0.3-0.3,0.6V19l-0.5,0.5c0-0.2-0.1-0.3-0.3-0.6c-0.2-0.2-0.3-0.3-0.5-0.3
		c-0.1,0-0.1-0.1-0.2-0.1c0.3,0.3,0.4,0.6,0.5,1v0.6c-0.3-0.5-0.7-0.9-1.1-1.1c0.4,0.6,0.7,1.4,0.8,2.2c-0.1-0.6-0.5-1.1-1-1.4
		c0.1,0.5,0.3,0.8,0.5,1.2c-0.1-0.1-0.2-0.3-0.3-0.5v0.7c-0.1-0.3-0.2-0.6-0.5-0.9v1c0,0.2,0,0.3-0.1,0.5c-0.1-0.5-0.3-0.9-0.7-1.2
		c0.1,0.4,0.1,0.8,0.1,1.1c0,0.5-0.1,1-0.3,1.5v-0.3c0-0.8-0.1-1.7-1-2c0.3-0.2,0.3-0.1,0.5,0c0.1,0.1,0.2,0.3,0.2,0.6v0.7
		c-0.2-0.3-0.5-0.6-0.9-0.7c0.2,0.3,0.4,0.6,0.6,0.9c0.1,0.2,0.1,0.6,0.2,0.8c-0.1-0.2-0.2-0.4-0.5-0.6c0.1,0.3,0.2,0.7,0.1,1l0,0
		c-0.2-0.4-0.5-0.8-0.9-1.1l0.3,1c0,0.2,0.1,0.5,0.1,0.7c-0.1-0.5-0.5-0.9-0.9-1.1c0,0.3,0.1,0.7,0.1,1.1v0.5c0-0.1-0.1-0.3-0.1-0.5
		c0-0.2-0.2-0.3-0.3-0.5c-0.1-0.1-0.3-0.2-0.3-0.1c0.2,0.4,0.3,0.8,0.2,1.2c-0.1-0.2-0.2-0.4-0.5-0.6c0.3,0.6,0.1,1.4,0.3,1.9
		c-0.3-0.5-0.5-1.1-1-1.5c0.2,0.5,0.3,1,0.3,1.6c-0.3-0.2-0.7-0.3-1.1-0.2c0.4,0.1,0.8,0.4,1,0.8c0.1,0.2,0.2,0.4,0.2,0.7l-0.1-0.1
		c0.1,0.1,0.1,0.2,0.1,0.5c-0.1-0.4-0.4-0.7-0.8-0.8c0.2,0.3,0.3,0.6,0.3,0.9c-0.3-0.1-0.6-0.2-0.8-0.5c0.1,0.3,0.2,0.6,0.5,0.8
		c-0.1-0.1-0.3-0.1-0.5-0.1c-0.3,0-0.5,0.1-0.8,0.2c0.2-0.1,0.8,0.1,1,0.2C5.9,29,6,29.3,6.2,29.6c-0.2-0.1-0.3-0.2-0.6-0.3H5.1
		c-0.1,0.1-0.2,0.1-0.3,0.2h0.5c0.2,0.1,0.3,0.2,0.5,0.3c0.2,0.3,0.5,0.6,0.8,0.9l-0.2-0.1l0,0c-0.3-0.3-0.7-0.5-1.1-0.6
		c0.3,0.4,0.6,0.8,0.9,1.2c-0.5-0.5-1.1-0.9-1.7-0.6c0.8,0,1.1,0.9,1.6,1.4H5.7c0.1,0.6,0.4,1,0.9,1.2h0.2c-0.5-0.1-0.8-0.7-1-1.1
		s-0.5-0.6-0.7-0.9c0.1,0.3,0.2,0.8,0.3,1.1c0.1,0.3,0.1,0.3,0.2,0.6c0.1,0.3,0.2,0.6,0.5,0.8c-0.3-0.2-0.5-0.3-0.7-0.6
		c-0.2-0.3-0.5-0.7-0.9-0.7C5,33,5,33.6,5.2,33.9c0.2,0.4,0.6,0.8,1.1,0.9c0.2,0,0.3,0.1,0.6,0.1h0.6L7.3,35L7,35.2
		c-0.2,0-0.3,0.1-0.6,0.1c-0.4,0-0.7-0.1-1-0.2c0.4,0.5,1,0.8,1.7,0.8h0.3c0.2-0.1,0.3-0.1,0.6-0.2l0.7-0.3c0.1,0,0.3-0.1,0.5-0.1
		h0.5l-0.1-0.1c-0.1,0-0.2,0-0.2-0.1l0,0C9.3,35,9.1,35,8.9,35l0.3-0.1l-0.6-0.1H9c0-0.1-0.1-0.1-0.2-0.2l0.1-0.1l0.2-0.1
		c0-0.1,0-0.2-0.1-0.2l0.1-0.1l0,0l1.1-1.6l0.3-0.8v-0.3l3.4-8l0.7-1.8l0.2-0.3h0.1c-0.1,0-0.1-0.1-0.1-0.1l0,0l0.1-0.2l0,0
		c0-0.1,0.1-0.1,0.1-0.2c0.1,0.1,0.1,0.1,0.2,0.1c0-0.2,0.1-0.5,0.1-0.7l0,0c0-0.2,0.6-0.6,0.6-0.8C15.7,19.2,15.5,19.3,15.2,19.3z"
		/>
	<path class="st2" d="M32.1,36.5L31,36.3c-0.5,0.8-0.9,1.7-1.1,2.6l2.6-0.9C32.2,37.5,32,37,32.1,36.5z"/>
	<path class="st1" d="M32.5,38L29.8,39c-0.1,0.5-0.1,1,0,1.5l2.6-1.7C32.7,38.4,32.6,38.2,32.5,38z"/>
	<path class="st2" d="M30.9,36.4c-0.1,0.3,0.9,0.8,1.5,0.9c0.2,0,0.3-0.1,0.5-0.2c0.5-1.1,2.8-2.2,4.9-2.8l-0.9-1.6
		C35.7,34.1,31.2,35.1,30.9,36.4z"/>
	<path class="st2" d="M36.9,25c-1,2.6,0.3,5.7,1.8,7.4c-0.3,0.9-0.8,1.1-1.8,0.7c-2.2-2.4-7-3.8-7.8-7.7L36.9,25z"/>
	<path class="st2" d="M36.8,32.5c-0.5,0.4-0.6,1.1-0.2,1.6c0.4,0.5,1.1,0.6,1.6,0.2c0.1-0.1,0.2-0.1,0.2-0.2
		c0.1-0.1,0.1-0.1,0.1-0.2c0.5-0.4,0.6-1.1,0.2-1.6c-0.4-0.5-1.1-0.6-1.6-0.2c-0.1,0.1-0.2,0.1-0.2,0.2
		C36.8,32.4,36.8,32.4,36.8,32.5z"/>
	<path class="st2" d="M20,43.5c0.2,0.3,0.9-0.6,1.1-1.1c0-0.1,0.1-0.3,0-0.5c-1.2-1.8-2.1-3.8-2.8-5.8l-1.2,0.7
		C18.1,38.3,19.2,42.6,20,43.5z"/>
	<path class="st2" d="M17,37c0.1,0.5,0.6,0.8,1.1,0.7h0.1h0.1c0.5-0.4,0.7-1.1,0.5-1.7c-0.1-0.5-0.6-0.8-1-0.7c-0.1,0-0.1,0-0.2,0.1
		h-0.1C16.7,35.7,16.6,36.5,17,37z"/>
	<path class="st2" d="M18.5,36.2c-0.2-2.4-0.1-4.9,0.5-7.2l-3.7-1.8c0.5,2.4,1.2,7.6,1.7,10.1L18.5,36.2z"/>
	<path class="st2" d="M21.7,42.3c-0.5,0.2-1,0.2-1.5,0l-0.3,1c0.6,0.6,1.4,1.1,2.2,1.5C22.1,44.7,21.7,42.3,21.7,42.3z"/>
	<path class="st1" d="M23.5,45.1l-1.2-2.7c-0.1-0.2-0.2-0.2-0.5-0.1l0.3,2.5C22.5,45,23,45.1,23.5,45.1z"/>
	<path class="st1" d="M17.2,44.6c-0.4-0.1-0.8-0.3-1.1-0.7l0.2-0.9l0.3-1.6c0.2,0,0.3,0,0.3,0.2l0.2,2.3L17.2,44.6z"/>
	<path class="st1" d="M41.7,33l0.1,0.2l-0.3-1v-1.4c0.1,0.7,0.4,1.4,0.8,2c-0.2-0.5-0.3-1-0.3-1.6c0.1,0.3,0.2,0.8,0.3,1.1
		c0.1,0.3,0.5,0.8,0.7,1.2c-0.3-0.8-0.5-1.6-0.6-2.5c-0.1-1.1,0-2.2,0.1-3.4c0-0.7,0.1-1.5,0.1-2.2c0-1.4-0.2-2.8-0.8-4.2
		c-0.6-1.3-1.6-2.2-2.9-2.6c-1-0.3-2.1-0.2-3.1,0.3l-0.3,0.2c0.2-0.1-0.1,0.1-0.3,0.2h0.3c0,0,0.2,0.2,0.1,0.2h0.7l0.2,0.1h0.1
		c0.5,0.3,0.9,0.7,1.2,1.1c0.6,0.8,0.9,1.7,1.1,2.7c0.2,1.3,0.3,2.6,0.2,4c0,0.9,0.1,1.8,0.2,2.7c0,0.2,0.1,0.5,0.1,0.7l-0.1,0.5
		c0.1,0.3,0.2,0.6,0.3,0.9c0.1,0.3,0.2,0.6,0.3,0.9c0,0.1,0.1,0.1,0.1,0.2l0.1,0.1c0,0.1,0.1,0.1,0.1,0.2l0.1,0.2l0,0l0.1,0.1
		l0.1,0.1l0.2,0.2l0.2,0.2c-0.5-0.7-0.9-1.4-1.1-2.3c-0.2-0.8-0.3-1.6-0.3-2.4v0.5c0.1,1,0.4,2,0.8,2.9c0.2,0.5,0.5,1,0.9,1.5v0.1
		l0,0l0.5,0.5c-0.2-0.2-0.3-0.4-0.5-0.6c-0.1-0.2-0.1-0.5-0.2-0.7c0-0.5-0.1-0.9-0.1-1.2c0.3,0.8,0.8,1.6,1.4,2.3
		C42.1,34.4,41.9,33.8,41.7,33z M41.3,34.6L41.3,34.6l-0.7-1.4c-0.1-0.2-0.1-0.5-0.2-0.6v0.1C40.8,33.3,41.1,33.9,41.3,34.6z"/>
	<path class="st0" d="M34.1,20.4c-0.6,1.4-1.3,2.8-2.3,4.1c-0.2,0.3-0.5,0.6-0.8,0.9l-0.7,0.7l0,0l-0.2,0.2l-0.5,0.5l0,0l-0.1,0.1
		l0,0L29.2,27L29,27.2l0,0l-0.2,0.2l-0.2,0.1l-0.3,0.3l-0.2,0.1L27.8,28l-0.2,0.1l0,0l-0.1,0.1l0,0l-0.4,0.1l-0.3,0.2l-0.3,0.1
		L26,28.9L25.7,29l-0.3,0.1l-0.5,0.2h-0.1c-0.1,0-0.2,0.1-0.3,0.1L24,29.5l-0.5,0.1l-0.3,0.1l-0.5,0.1l-0.3,0.1h-1.8
		C20.1,30,19.6,30,19.1,30h-0.6c-0.4-0.1-0.9-0.2-1.2-0.5h-0.2l-0.2-0.1l-0.4-0.1c-0.2-0.1-0.4-0.3-0.6-0.5
		c-0.1-0.1-0.3-0.2-0.5-0.3c-0.3-0.2-0.4-0.5-0.6-0.8l0,0c-0.3-0.4-0.4-0.8-0.5-1.2c0.1-1.3-0.4-2.5-1.4-3.5
		c-0.3-0.3-0.6-0.7-0.7-1.1c-0.1-0.6,0.2-1.2,0.7-1.6c0.1-0.1,0.3-0.2,0.5-0.2c0.4-0.2,0.7-0.4,1.1-0.5c0.6-0.2,1.2-0.4,1.8-0.5h0.3
		c0.9-0.1,1.7-0.1,2.6-0.1c1,0,2,0,2.9,0.1c1.1,0.1,2.2,0,3.4-0.3l1.4-0.3c1.3-0.3,2.6-0.6,4-0.7h0.2C32.7,17.9,33.8,19.1,34.1,20.4
		z"/>
	<path class="st0" d="M37,24v0.7c0,0.2,0,0.3-0.1,0.5l0,0V26l0,0l-0.1,0.2c0,0.1,0,0.1-0.1,0.1l-0.2,0.1l-0.1,0.3l0,0l-0.1,0.1
		c-0.1,0.1-0.3,0.3-0.5,0.3c0,0.2-0.2,0.2-0.3,0.2c-0.3,0.1-0.7,0.1-1,0.1c-1.6,0.2-3.4,0-4.9-0.8l0,0l-0.2-0.1l-0.1-0.1
		c-0.2-0.2-0.6-0.5-0.7-0.8l-0.3-0.7c-0.3-0.8-0.5-1.6-0.6-2.4c-0.1-1,0-2.1,0.5-3.1c0.6-1.1,1.7-1.8,2.9-1.8h0.2
		c1.5-0.2,3,0.3,4.2,1.4l0.1,0.1c0.1,0.2,0.3,0.3,0.5,0.6C36.8,21,37.1,22.5,37,24z"/>
	<path class="st0" d="M18.5,26.9c-0.2,0.8-0.2,1.4-1.1,1.5l-0.5,0.1c-2.8,0.6-4.5,1.4-5.7,2.9c-0.1,0.2-0.2,0.4-0.3,0.6
		c0,0.1-0.1,0.1-0.1,0.2c-0.3,0.7-0.6,1.3-0.8,2l-1.5,0.5l0,0c-1.3-0.3-2.3-1.6-2.3-2.9c-0.3-3.2,2-8.5,6.8-11.5L18.5,26.9z"/>
	<path class="st0" d="M12.2,33.4c0,0.3,0,0.5-0.1,0.8c-0.1,0.2-0.1,0.5-0.3,0.7c-0.5,0.9-1.6,1.2-2.5,0.7l0,0
		c-0.3-0.2-0.5-0.3-0.7-0.6C8.2,34.6,8,34.1,8,33.5c0-0.9,0.5-1.7,1.3-2.1l0,0c0.2-0.1,0.4-0.1,0.7-0.1c0.5,0,0.9,0.2,1.2,0.5
		C11.9,32.1,12.2,32.7,12.2,33.4z"/>
	<path class="st0" d="M12.9,37.3l0.8,0.5l-0.1,0.3c0,0.2-0.2,0.3-0.3,0.5c-0.3,0.2-0.7,0.4-1,0.5c-0.2,0-0.3,0-0.5-0.1
		c-0.5-0.2-0.7-0.8-1-0.9c-1.4-1.2-2.8-2.5-4.1-4.1c-0.4-0.5-0.6-1.2-0.5-1.8v-0.2c0-0.2,0.1-0.4,0.1-0.6H10l0.3,0.5l0.5,0.7
		l0.5,0.7l0.5,0.7c0,0.2,0,0.3,0.1,0.5c0.2,0.8,0.8,2.3,0.8,2.3h0.3c0.2,0,0.3,0.1,0.5,0.2l0.2,0.5L12.9,37.3z"/>
	<path class="st0" d="M6.3,36c-0.4-1.1-0.4-2.3,0.1-3.5l1,1.1L6.3,36z"/>
	<path class="st0" d="M26.5,34.7v0.7l-1.2-0.1l-1.4-0.1c0.5-0.6,1.1-1.1,1.7-1.6l0,0l0.2-0.2l0.7,0.5l0.2,0.1
		C26.7,34.2,26.6,34.4,26.5,34.7z"/>
	<path class="st1" d="M26.3,35.9l-2,0.5l-1.1,0.2c0.1-0.5,0.3-1,0.7-1.5l1.4,0.1l1.2,0.1v0.1C26.5,35.7,26.5,35.9,26.3,35.9z"/>
	<path class="st0" d="M32.7,34h-0.5c-2,0-4.4,0-5.1,0.8c-0.1,0.1-0.3,0.1-0.5,0l-0.2-0.1c-0.2-0.1-0.3-0.3-0.6-0.6
		c-0.2-0.1-0.3-0.3-0.3-0.6l0,0v-0.1c0.7-0.9,4.6-0.3,6.5-1h0.1c0.1,0,0.2-0.1,0.3-0.1l0.1,0.9v0.2L32.7,34z"/>
	<path class="st0" d="M33.7,33.9L33.7,33.9c-0.5,0.2-1,0.2-1.5,0l-0.3-0.3c-0.1-0.1-0.1-0.2-0.1-0.5c0-0.3,0.1-0.7,0.3-0.9l0,0
		l0.1-0.1l0.3-0.3c0.2-0.1,0.4-0.2,0.7-0.2c0.3,0,0.7,0.1,0.9,0.3c0.1,0.1,0.1,0.1,0.1,0.2C34.6,32.7,34.4,33.5,33.7,33.9z"/>
	<path class="st0" d="M34.1,32.1c0,0.2,0.1,0.5,0.2,0.7c-0.6,0.6-1,0.7-1.5,0.3L32.7,33c-0.1-0.1-0.2-0.1-0.2-0.2
		c0-0.2-0.1-0.3-0.2-0.5l0,0c-0.2-0.6-0.5-1.1-0.9-1.6c-1.5-2.3-3.6-4.8-3.2-7.6v-0.3l7.6,4l0.6,0.2C34.4,28.6,33.7,30.1,34.1,32.1z
		"/>
	<path class="st1" d="M8.7,35.2c0,0.1,0.1,0.2,0.1,0.2H8.5c-0.2-0.4-0.2-0.9,0-1.4v0.6c0-0.1,0.1-0.2,0.2-0.2c0.2,0,0.4,0.2,0.5,0.5
		c0,0.1-0.1,0.3-0.2,0.3C8.9,35.3,8.8,35.3,8.7,35.2L8.7,35.2z"/>
	<path class="st1" d="M6.8,33.2c-0.4,0.9-0.5,1.8-0.5,2.7c0.4-0.7,0.7-1.5,0.9-2.3C7,33.5,6.9,33.3,6.8,33.2z"/>
	<path class="st0" d="M15.8,41.3L15.8,41.3c-0.1,0.2-0.3,0.4-0.6,0.5C15,42,14.7,42,14.5,42.1c-0.2,0.1-0.1,0-0.1-0.1
		c-0.2-1.3-0.3-2.6-0.3-4.1c0-0.7-0.1-1.5-0.1-2.2c0-0.3-0.1-0.6-0.1-0.9v-0.2l0.6-0.1l0.8-0.1v1.2c0.1,1.7,0.4,3.5,0.8,5.1
		C16.1,41,16,41.2,15.8,41.3z"/>
	<path class="st0" d="M15.2,35.7c-0.1,0.2-0.3,0.2-0.5,0.3h-0.2c-0.2-0.1-0.5-0.1-0.6-0.3c-0.2-0.2-0.3-0.5-0.3-0.8s0-0.5,0.1-0.8
		c0.1-0.2,0.3-0.4,0.5-0.6c0.1,0,0.2-0.1,0.2-0.1c0.5,0,0.9,0.2,1,0.7c0,0.1,0.1,0.2,0.1,0.3C15.7,34.9,15.5,35.4,15.2,35.7z"/>
	<path class="st0" d="M16.5,41.5l-0.4,1.6L15.9,44c-0.6-0.5-1.1-1.1-1.5-1.8l-0.1-0.3l0.6-0.8L15,41c0.2,0.2,0.4,0.3,0.7,0.3
		C16,41.3,16.2,41.4,16.5,41.5L16.5,41.5z"/>
	<path class="st0" d="M18.2,27.9c-1.1,2-2,4.2-2.6,6.3c0,0.1,0,0.2-0.1,0.3h-0.2l-0.7,0.2l-0.7,0.1h-0.1c0-0.2,0.1-0.5,0.1-0.8
		c0.2-1.5,0.6-3.5,0.9-5.4c0.2-1.5,0.5-2.8,0.6-3.8L18.2,27.9z"/>
	<path class="st3" d="M28.8,27.4c-0.6,0.4-1.2,0.8-1.8,1.1c0.4-3.4,0-6.7-1.1-9.7L25.2,17h1.5l0.7,1.4
		C28.4,21.3,28.9,24.3,28.8,27.4z"/>
	<path class="st3" d="M20.1,30.3c-0.6,0-1.1-0.1-1.7-0.2c0.3-3.8-0.3-7.5-1.9-11H18C19.8,22.5,20.5,26.5,20.1,30.3z"/>
	<path class="st4" d="M27.3,10.4l-2.6-0.9l-2.5-0.9c-0.3-0.2-0.5-0.6-0.3-1c0.2-0.5,0.8-0.8,1.4-0.7l0,0l4.8,1
		C29.3,8.3,29.4,11,27.3,10.4z"/>
	<path class="st5" d="M17.6,3.1c0,0.1-0.1,0.3-0.1,0.5s0,0.5,0.2,0.6c0.2,0.3,0.5,0.5,0.8,0.7c0.1,0,0.3-0.2,0.5-0.2
		c-0.1-0.1-0.5-0.3-0.5-0.5c0-0.2,0-0.4-0.1-0.6c-0.1-0.1-0.1-0.2-0.2-0.3C18.1,3,18,2.7,18,2.4h-0.2c-0.1,0.1-0.1,0.1-0.1,0.2
		C17.5,2.6,17.6,3,17.6,3.1z"/>
	<path class="st5" d="M18,3.5l0.2,0.3c0.1,0.2,0.2,0.4,0.3,0.6c0.2,0.2,0,0.1,0,0.1v0.1C18.4,4.8,18.2,5,18,5.2
		c-0.2-0.2-0.4-0.4-0.7-0.5c-0.2-0.1-0.3-0.2-0.6-0.3s-0.2-0.3-0.1-0.6c0-0.2,0.1-0.5,0.2-0.7c0.3-0.1,0.4-0.2,0.5-0.2
		c0.1,0,0.1,0.1,0.2,0.2L18,3.5z"/>
	<path class="st5" d="M16,3.1L15.8,3c-0.1,0-0.2-0.1-0.2,0v0.1c0,0.2,0.1,0.2,0.2,0.2c0.1,0,0.2,0.1,0.3,0.1
		c0.3,0.1,0.6,0.3,0.9,0.6c-0.5-0.2-1-0.5-1-0.3s0,0.2,0.1,0.2L16.2,4c0.2,0.1,0.3,0.2,0.6,0.3c0.3,0.1,0.2,0.1,0.5,0.2V4
		c0.1-0.2,0.2-0.5,0.2-0.8l-0.8-0.8c-0.1-0.1-0.1-0.2-0.2-0.3c-0.1-0.1-0.5,0-0.1,0.3l0.7,0.8c-0.4-0.3-0.8-0.6-1.2-0.9h-0.1
		c-0.1,0-0.1,0.1-0.1,0.2c0,0.1,0.1,0.2,0.2,0.3l1,0.7C16.5,3.4,16.2,3.3,16,3.1z"/>
	<path class="st4" d="M23.1,6.9L22.3,8L22,8.6c-1-0.4-1.8-0.9-2.6-1.6c-0.6-0.5-1.2-1-1.7-1.6V4.9c0-0.1,0.1-0.2,0.2-0.3
		s0.2-0.2,0.3-0.2h0.2C20.1,5.1,21.6,6,23.1,6.9z"/>
	<path class="st3" d="M18.8,22.8l0.5,1.8c0.6-0.1,1.2-0.5,1.5-1c0.3-0.6,0.5-1.1,0.8-1.7c0.7-0.9,1.6-1.6,2.7-1.9
		c1-0.3,2.2-0.6,3.4-0.9c0.3-0.1,0.5-0.2,0.7-0.5c0.2-0.2,0.1-0.6-0.1-0.8l0,0H28c-2.4,0-4.8,0.4-7,1.1c-0.8,0.2-1.5,0.6-1.9,1.2
		C18.4,21,18.4,21.9,18.8,22.8z"/>
	<path class="st1" d="M24,29.9l-0.7,0.2l-0.5-0.7c-0.3,0.8-0.2,0.8-1.8,1.2c-0.3,0.2-0.8,0.2-1.1,0c-0.1-0.1-0.1-0.2-0.1-0.3
		c0-0.1,0.1-0.1,0.1-0.1l0,0c0.8-0.4,1.3-1.1,1.4-1.9v-0.5l1.1-0.3l0.6-0.1c0.1,0.1,0.2,0.3,0.2,0.5c0.1,0.2,0.3,0.5,0.5,0.7
		c0.1,0.1,0.1,0.3,0,0.5L24,29.9z"/>
	<path class="st6" d="M25.3,27.5c-0.6,0.2-1.3,0.3-1.9,0.3c-0.5,0-0.9,0.1-1.4,0.1l0,0c-0.3,0-0.5,0.1-0.7,0.3c0,0.2,0,0.2,0,0.4
		c-1.4-4.2-4.2-6.6-4.4-8.7l2.6,0.3h0.3l0.3,0.1C22.3,21.9,21.8,24.6,25.3,27.5z"/>
	<path class="st1" d="M28.3,6.8c-0.3,0-0.5-0.1-0.7-0.3c0,0.3,0.2,0.6,0.5,0.8c-0.2,0-0.5-0.1-0.7-0.2v0.1c-0.3,0.1-0.7,0.1-1,0
		c-0.1,0-0.1,0-0.1-0.2c-0.2-0.1-0.3-0.2-0.5-0.3c-0.3-0.4-0.6-0.9-0.7-1.4C25.1,5,25,4.9,25,4.6V4.1l0.2-0.2c0.5-0.1,1-0.2,1.5-0.2
		c0.4,0.1,0.7,0.2,1,0.5v0.2l0.1,0.2c0,0.2,0,0.4,0.1,0.6c0,0.2,0.1,0.3,0.2,0.5h-0.3c0.1,0.2,0.3,0.5,0.5,0.7
		c-0.1-0.1-0.2-0.1-0.3-0.2C28,6.4,28.1,6.6,28.3,6.8z"/>
	<path class="st5" d="M26.6,5.5c0,0.1,0,0.2-0.1,0.3c0,0.1,0,0.1-0.1,0.2h-0.2v1l0,0c0,0.2-0.1,0.3-0.2,0.6
		c-0.1,0.1-0.2,0.1-0.3,0.1c-0.3,0.1-0.6,0-0.8-0.1c-0.2-0.2-0.3-0.4-0.3-0.7c0-0.2-0.1-0.4-0.1-0.6c-0.1,0-0.2,0.1-0.3,0V5.2
		c0-0.1,0-0.1-0.1-0.1l0,0c-0.1,0-0.2,0-0.2-0.2l0,0c0-0.1,0-0.2,0.1-0.3l0.3-0.3h1.6c0.1,0.1,0.2,0.3,0.2,0.5v0.1
		c0-0.1,0.1-0.1,0.2-0.1l0,0c0.1,0,0.2,0,0.3,0.1C26.6,5,26.7,5.2,26.6,5.5z"/>
	<path class="st5" d="M18.5,16.9L18.5,16.9c-0.1,0.1-0.3,0.3-0.3,0.5l-0.1,0.1l0,0v0.1c0,0.2-0.2,0.4-0.5,0.3
		c0.1-0.3,0.1-0.6,0.1-0.9c0-0.2-0.2-0.2-0.5,0C17,17.2,17,17.3,17,17.5c0,0.2,0.3,0.3,0.5,0.5c0.2,0.2,0.2,0.2,0.1,0.3
		c-0.1,0.1-0.2,0-0.3,0l-0.8-0.5c-0.1,0-0.1-0.1-0.1-0.1l0,0v-0.2c0-0.2,0.1-0.5,0.1-0.7s0-0.1,0.1-0.2l0.2-0.2l0.7-0.3l0.1-0.1h0.2
		c0.1,0,0.1,0,0.2,0.1l0.3,0.2c0.1,0.1,0.2,0.1,0.3,0.2v0.1C18.7,16.7,18.5,16.8,18.5,16.9z"/>
	<path class="st7" d="M17.4,19.2l-0.9-0.1l0.6-1.8c0-0.2,0.2-0.3,0.5-0.3l0,0c0.2,0,0.3,0.2,0.3,0.5L17.4,19.2z"/>
	<path class="st6" d="M27.3,16.2v0.4c-0.1,2-1.5,2.7-3.2,2.5c-1.3,0.7-2.6,1.2-4.1,1.5h-0.4l-0.3,0.1c-0.9,0.1-1.8-0.1-2.5-0.7
		c0.1-0.6,0.5-1.1,1-1.4c1.2-1,3.7-1.9,5.8-3.2l0.5-0.2l0.6,0.2l2.3,0.8H27.3z"/>
	<path class="st1" d="M28.4,15.6l-0.5-0.1l-0.3-0.1l-0.8-0.2c-0.7-0.2-1.3-0.4-2-0.6h-0.7c-0.2,0-0.5,0-0.7,0.1l-0.6,0.1
		c1.3-2.1,1.9-4.6,1.9-7l2.6-1C31.9,8.2,28,14.2,28.4,15.6z"/>
	<path class="st4" d="M26.5,9.8L23,14.2c-0.2,0.1-0.4,0.2-0.7,0.1c-0.6-0.2-0.9-0.9-0.7-1.4l0,0c0-0.1,0.1-0.2,0.1-0.3l0,0l2.5-4.1
		c0.4-0.6,1.2-0.7,1.8-0.3l0,0c0.2,0.1,0.4,0.3,0.5,0.6C26.7,9,26.7,9.4,26.5,9.8z"/>
	<path class="st4" d="M23,14.2c-1.2,1.2-2.7,2.2-4.4,2.8l0,0c-0.1,0-0.1-0.1-0.2-0.1c-0.4-0.1-0.6-0.5-0.6-0.9l0,0
		c1.5-1.4,3.1-2.8,4.1-3.6l0.7,0.9L23,14.2z"/>
	<path class="st8" d="M30.3,8.6c-0.2,0.1-0.5,0.1-0.7,0.2h-0.7c-0.2,0-0.3-0.1-0.6-0.2L27.6,8c-0.2-0.2-0.5-0.3-0.8-0.3
		c-0.5-0.1-0.9,0-1.4,0.1c-0.4,0.1-0.7,0.3-1,0.6c0-0.4,0.2-0.7,0.6-0.9c0.7-0.3,1.5-0.6,2.3-0.8h0.2c0.1,0,0.2,0.2,0.3,0.3
		c0.1,0.1,0.2,0.1,0.3,0.1c0.1,0,0.1,0.1,0.2,0.1c0.2,0.2,0.3,0.4,0.5,0.6C29.3,8.2,29.7,8.5,30.3,8.6z"/>
	<path class="st7" d="M27.4,16L27.4,16l-0.1,0.6l0,0l-0.6-0.1c-0.8-0.2-1.6-0.5-2.4-0.8c-0.2-0.1-0.6-0.2-0.8-0.3l0,0l0.5-0.5l0,0
		l0.6,0.3c0.7,0.4,1.4,0.6,2.2,0.8H27.4z"/>
	<path class="st1" d="M26.9,3.8c-0.3,0-0.5-0.1-0.8-0.2c-0.6-0.4-1.4-0.3-1.9,0.1c-0.3,0.1-0.6,0.4-0.7,0.7
		c-0.1,0.2-0.2,0.5-0.1,0.8l0.1-0.5v0.6c0,0.2,0.1,0.3,0.2,0.6c-0.1-0.2,0-0.5,0.1-0.7c0.1-0.2,0.3-0.4,0.5-0.6
		c0.2-0.1,0.3-0.2,0.6-0.3c0.2-0.1,0.7-0.1,1-0.2C26.3,4.1,26.7,4,26.9,3.8z"/>
	<path class="st9" d="M21.9,5.3H22c-0.1,0-0.2-0.1-0.3-0.1C21.8,5.3,21.8,5.3,21.9,5.3z"/>
	<path class="st10" d="M23.1,5c0.1-0.1,0.3-0.2,0.4-0.3c0-0.2-0.1-0.5-0.1-0.7c-0.3,0.3-0.7,0.6-1,0.8c-0.2,0-0.5,0.1-0.6,0.3v0.2
		l0,0C22.3,5.4,22.7,5.3,23.1,5z"/>
	<path class="st11" d="M23.6,4.7c1.1-0.9,1.8-2.2,2.8-2.5c-0.7-1-1.1-0.8-1.4-0.6c-0.2,0.2-0.3,0.3-0.6,0.5
		c-0.3,0.2-0.6,0.4-0.9,0.5c-0.2,0-0.3,0-0.5,0.1c0,0.5,0.1,0.9,0.2,1.4C23.6,4.2,23.7,4.4,23.6,4.7z"/>
	<path class="st12" d="M29.1,3.4c-0.1,0.5-0.7,0.8-1.5,0.8l0,0c-0.5-0.2-1.2-0.2-1.7,0l-0.3,0.1c-0.3,0.1-0.6,0.3-0.9,0.5
		c-0.3,0.1-0.7,0.3-1,0.5l0,0c-0.3,0.1-0.6,0.2-0.9,0.3c-0.3,0.1-0.5,0.1-0.8,0c-0.1,0-0.2-0.1-0.3-0.1l0,0c0.4,0.2,0.9,0.1,1.2-0.2
		c0.1-0.1,0.3-0.3,0.4-0.4l0.1-0.1l0.3-0.3l0,0c0.4-0.2,0.7-0.4,0.9-0.8l0,0c0.3-0.4,0.7-0.8,1.1-1.1l0.1-0.1l0.1-0.1l0,0L26,2.3
		l0.2-0.1c0.7-0.3,1.4-0.2,2.4,0.7C29,2.9,29.1,3.2,29.1,3.4z"/>
</g>
</svg>
