<?xml version="1.0" encoding="utf-8"?>
<!-- Generator: Adobe Illustrator 23.1.0, SVG Export Plug-In . SVG Version: 6.00 Build 0)  -->
<svg version="1.1" id="icons" xmlns="http://www.w3.org/2000/svg" xmlns:xlink="http://www.w3.org/1999/xlink" x="0px" y="0px"
	 viewBox="0 0 47 47" style="enable-background:new 0 0 47 47;" xml:space="preserve">
<style type="text/css">
	.st0{fill:#606060;}
	.st1{fill:#B7B7B7;}
	.st2{fill:#303030;}
	.st3{fill:#FF8B00;}
	.st4{fill:#999999;}
	.st5{fill:#D1D1D1;}
</style>
<title>RollerSkating</title>
<path class="st0" d="M30.5,31.4c1.3,0.1,10.4,0.9,11.1-2c0.6-2.9-1-5-4.2-5.5c0,0-7.7-0.2-12.1-6.5c0,0-1.9-1.2,0-5.7
	c0,0,3.1-5.9-1.2-7.2c-0.8-0.3-3.5-1.1-8.5,0.1C14.3,5,12.7,6.5,12,9.2c0,0-1.8,8.1-3.3,12.7c0,0-3,9.3,6,8.7
	C14.8,30.7,21.6,30.9,30.5,31.4z"/>
<path class="st1" d="M24.6,13.6l0.8,0.4c0.7,0.4,2.4-0.8,1.8-2.9c-0.2-0.7-0.5-1.3-1-1.8L24.8,12L24.6,13.6z"/>
<path class="st2" d="M24.3,14.6c0.4-0.1,0.8,0.1,1,0.4c0.4,0.7,0.8,1.3,1.1,2.2c0.1,0.3-0.1,0.7-0.4,0.7c0,0,0,0-0.1,0
	c-1.8,0.4-6.2,2.1-5.4,6.5l-0.8,0.4l-2.3-6.5l0.4-0.7C19.9,16.4,22.1,15.4,24.3,14.6z"/>
<path class="st3" d="M36.5,38c0,2.5,2.1,4.5,4.5,4.5c2.5,0,4.5-2.1,4.5-4.5s-2.1-4.5-4.5-4.5l0,0C38.6,33.5,36.5,35.5,36.5,38z"/>
<path class="st0" d="M41.1,40.8c1.5,0,2.8-1.2,2.8-2.8s-1.2-2.8-2.8-2.8c-1.5,0-2.8,1.2-2.8,2.8l0,0C38.3,39.6,39.5,40.8,41.1,40.8z
	"/>
<path class="st3" d="M26.4,38c0,2.5,2.1,4.5,4.5,4.5s4.5-2.1,4.5-4.5s-2-4.5-4.5-4.5C28.5,33.5,26.4,35.5,26.4,38L26.4,38z"/>
<path class="st0" d="M30.9,40.8c1.5,0,2.8-1.2,2.8-2.8s-1.2-2.8-2.8-2.8s-2.8,1.2-2.8,2.8l0,0C28.3,39.6,29.5,40.8,30.9,40.8z"/>
<path class="st3" d="M16.5,38c0,2.5,2.1,4.5,4.5,4.5s4.5-2.1,4.5-4.5s-2-4.5-4.5-4.5C18.5,33.5,16.5,35.5,16.5,38L16.5,38z"/>
<path class="st0" d="M21,40.8c1.5,0,2.8-1.2,2.8-2.8s-1.2-2.8-2.8-2.8c-1.5,0-2.8,1.2-2.8,2.8l0,0C18.2,39.6,19.5,40.8,21,40.8z"/>
<path class="st3" d="M6.7,38c0,2.5,2.1,4.5,4.5,4.5s4.5-2.1,4.5-4.5s-2.1-4.5-4.5-4.5S6.7,35.5,6.7,38z"/>
<path class="st0" d="M11.2,40.8c1.5,0,2.8-1.2,2.8-2.8s-1.2-2.8-2.8-2.8S8.4,36.5,8.4,38l0,0C8.4,39.6,9.7,40.8,11.2,40.8z"/>
<path class="st0" d="M24.7,12.7l0.4-0.5c0,0,2.7,1.5,0.6,1.9l0,0c-0.1,0-0.2,0-0.3-0.1l-0.8-0.4l0,0L24.7,12.7z"/>
<path class="st1" d="M19.8,26.8c17.6,2.8,21.6,0,21.6,0l0,0c0.3,0.8,0.4,1.9,0.2,2.8c-0.6,2.9-9.7,2-11.1,2
	c-8.9-0.5-15.7-0.7-15.7-0.7c-5.4,0.3-6.5-2.8-6.5-5.4L19.8,26.8z"/>
<path class="st4" d="M19.8,26.8c1.7,0.3,3.2,0.5,4.6,0.6c1.5,1.4,3.3,2.8,5.1,4c-8.4-0.4-14.7-0.6-14.7-0.6c-0.7,0.1-1.3,0.1-2.1,0
	c-2.4-0.9-3-3.1-3-5.1L19.8,26.8z"/>
<path class="st1" d="M12,9.3c0.1-0.5,0.2-0.9,0.4-1.3c1.7,1,4.3-0.6,4.3-0.6c3.2-1.2,7.3,0.1,9.4,2.1c-0.2,0.8-0.5,1.7-0.9,2.5
	c-0.2,0.5-0.4,1.1-0.6,1.8l0,0c-4-1.7-5.9,0-6.4,1.7c-2.4,7.3,6.6,13.8,10.2,16.1c-7.9-0.4-13.7-0.6-13.7-0.6c-8.9,0.5-6-8.7-6-8.7
	C10.3,17.4,12,9.3,12,9.3z"/>
<path class="st5" d="M1.2,36l8.8,2.2c0.4,0.1,0.8,0.1,1.2,0c3-0.9,6.2-0.7,9.1,0.5c0.4,0.1,0.8,0.1,1.1-0.1c3.4-2.2,8-0.4,9.6,0.4
	c0.3,0.2,0.7,0.1,1.1-0.1c3.3-2,7.3-0.6,8.9,0.1c0.4,0.2,0.8,0.1,1.1-0.2c0.4-0.4,0.8-0.8,1.2-1.2c0.3-0.2,0.4-0.7,0.2-1
	c-1.1-1.5-4.6-5.3-4.6-5.3l-27.9-1.1C6.9,29.7,2.8,32,1.2,36z M14.9,34c0-0.6,0.4-1,0.9-1.1H16h21.2c0.6,0.2,0.9,0.8,0.7,1.3
	c-0.1,0.3-0.4,0.6-0.7,0.7H16C15.3,35,14.9,34.6,14.9,34L14.9,34z"/>
</svg>
