<?xml version="1.0" encoding="utf-8"?>
<!-- Generator: Adobe Illustrator 23.1.0, SVG Export Plug-In . SVG Version: 6.00 Build 0)  -->
<svg version="1.1" id="icons" xmlns="http://www.w3.org/2000/svg" xmlns:xlink="http://www.w3.org/1999/xlink" x="0px" y="0px"
	 viewBox="0 0 47 47" style="enable-background:new 0 0 47 47;" xml:space="preserve">
<style type="text/css">
	.st0{fill:#FF5F00;stroke:#FF5F00;stroke-miterlimit:10;}
	.st1{fill:none;stroke:#FF5F00;stroke-miterlimit:10;}
	.st2{fill:#FF5F00;}
</style>
<title>RollerSkating</title>
<circle class="st0" cx="24.8" cy="42.1" r="2"/>
<circle class="st0" cx="36.5" cy="42.1" r="2"/>
<line class="st1" x1="24.8" y1="42.3" x2="36.5" y2="42.3"/>
<circle class="st2" cx="7.5" cy="39.1" r="2"/>
<circle class="st2" cx="19.1" cy="42.2" r="2"/>
<line class="st1" x1="7.5" y1="39.2" x2="18.9" y2="42.4"/>
<path class="st2" d="M21.1,32.3l-3.8-3.4c0,0-0.3,1.8-2.3,4.4s-4.7,5-3.3,7c1.4,2.1,5-2.3,5-2.3L21.1,32.3z"/>
<path class="st2" d="M28.3,42.2c0,0,2,1.4,3.4-0.1c0.8-1-2.5-10.4-2.5-10.4l-4.7-5.8c0,0,3.4-6.9,2.6-9.6s-4.2-4-6.9-2.3
	s-6,4.7-6,4.7s-3.4,7.3-1.2,7.4c2.3,0.1,3.8-4.3,3.8-4.3l3.4-2.3c0,0-3,8-1.2,9.8s7.3,6.3,7.3,6.3L28.3,42.2z"/>
<ellipse class="st2" cx="26.3" cy="6.2" rx="3.5" ry="3.6"/>
<path class="st0" d="M3.7,37c-0.3,0-0.5-0.1-0.7-0.3c-0.5-0.4-0.5-1-0.1-1.6l10.7-13.2c0.4-0.5,1-0.5,1.6-0.1c0.5,0.4,0.5,1,0.1,1.6
	L4.5,36.6C4.2,36.8,3.9,37,3.7,37z"/>
<path class="st0" d="M29.1,16.2c0,0-0.1,3.3-1,4.3c0,0,1.7,1.8,3.4,1c1.7-0.8,5.5-1.6,5.5-1.6l5.1,22c0,0,0.4,2.2,1.8,0.5
	c0.3-0.3-5.5-23.7-5.5-23.7s0.9-2.1-1.7-2.7c-0.5-0.1-6.1,2-6.1,2L29.1,16.2z"/>
</svg>
