<?xml version="1.0" encoding="utf-8"?>
<!-- Generator: Adobe Illustrator 23.1.0, SVG Export Plug-In . SVG Version: 6.00 Build 0)  -->
<svg version="1.1" id="icons" xmlns="http://www.w3.org/2000/svg" xmlns:xlink="http://www.w3.org/1999/xlink" x="0px" y="0px"
	 viewBox="0 0 47 47" style="enable-background:new 0 0 47 47;" xml:space="preserve">
<style type="text/css">
	.st0{fill:#B169BF;}
	.st1{fill:#FFC20D;}
	.st2{fill:#F9D84E;}
	.st3{fill:#7A7C82;}
	.st4{fill:#A7A7AB;}
	.st5{fill:#FD5E95;}
	.st6{fill:#4E5058;}
	.st7{fill:#909296;}
</style>
<title>RollerSkating</title>
<path class="st0" d="M44.1,33.4h-7.2l0.7,5c0,0.4,0.3,0.6,0.7,0.6h5.8c0.4,0,0.7-0.3,0.7-0.7c0,0,0,0,0-0.1L44.1,33.4z"/>
<path class="st1" d="M29.6,34.1h2.9V44h-2.9c-2.7,0.1-5.1-2-5.2-4.7c-0.1-2.7,2-5.1,4.7-5.2C29.3,34.1,29.5,34.1,29.6,34.1z"/>
<ellipse class="st2" cx="32.5" cy="39.1" rx="5" ry="4.9"/>
<ellipse class="st3" cx="32.5" cy="39.1" rx="2.9" ry="2.8"/>
<ellipse class="st4" cx="32.5" cy="39.1" rx="2.2" ry="2.1"/>
<path class="st1" d="M10.9,34.1h2.9V44h-2.9c-2.7,0.1-5.1-2-5.2-4.7c-0.1-2.7,2-5.1,4.7-5.2C10.5,34.1,10.7,34.1,10.9,34.1z"/>
<ellipse class="st2" cx="13.8" cy="39.1" rx="5" ry="4.9"/>
<ellipse class="st3" cx="13.8" cy="39.1" rx="2.9" ry="2.8"/>
<ellipse class="st4" cx="13.8" cy="39.1" rx="2.2" ry="2.1"/>
<path class="st3" d="M2.3,21.4c0.1-2.3,0.9-4.6,2.2-6.5l0.7-7.6c0-0.2,0.1-0.3,0.2-0.4c2.4-2,5.2-3.3,8.3-3.7c1.5-0.2,3-0.2,4.5,0
	c0.3,0,0.5,0.2,0.6,0.5c0.6,2.1,1.2,4.1,1.8,6s1.2,3.7,1.7,5.8L34.9,23l4.5,0.4c1.8,0.1,3.2,1.6,3.3,3.4v1c0,0.4-0.3,0.7-0.7,0.7
	l0,0v2.3H24.6v-2.3h-0.1l-9.3-1.4v3.8H3.7v-3.8c-0.3,0-0.5-0.2-0.6-0.4C2.4,25,2.3,23.2,2.3,21.4z"/>
<path class="st5" d="M2.3,21.4c0.1-2.3,0.9-4.6,2.2-6.5l0.7-7.6c0-0.2,0.1-0.3,0.2-0.4c2.4-2,5.2-3.3,8.3-3.7c1.5-0.2,3-0.2,4.5,0
	c0.3,0,0.5,0.2,0.6,0.5c0.6,2.1,1.2,4.1,1.8,6s1.2,3.7,1.7,5.8L34.9,23l4.5,0.4c1.8,0.1,3.2,1.6,3.3,3.4v1c0,0.4-0.3,0.7-0.7,0.7
	H24.5l-9.3-1.4H3.7c-0.3,0-0.5-0.2-0.6-0.4C2.4,25,2.3,23.2,2.3,21.4z"/>
<path class="st0" d="M39.4,23.3c1.8,0.2,3.2,1.7,3.2,3.5v1c0,0.4-0.3,0.7-0.7,0.7h-6.5v-5.6L39.4,23.3z"/>
<g>
	<path class="st6" d="M32.5,24.9c0.2,0,0.5-0.1,0.6-0.3l1.2-2.1c0.2-0.3,0.1-0.7-0.3-0.9c-0.3-0.2-0.7-0.1-0.9,0.3L31.9,24
		c-0.2,0.3,0,0.7,0.3,0.9C32.3,24.9,32.4,24.9,32.5,24.9z"/>
	<path class="st6" d="M29.5,23c0.2,0,0.4-0.1,0.6-0.3l1.2-1.8c0.2-0.3,0.1-0.7-0.2-0.9l0,0c-0.3-0.2-0.7-0.1-0.9,0.2L29,22
		c-0.2,0.3-0.1,0.7,0.2,0.9C29.3,22.9,29.4,23,29.5,23z"/>
	<path class="st6" d="M26.8,21.4c0.2,0,0.4-0.1,0.6-0.3l1.3-1.9c0.2-0.3,0.1-0.7-0.2-0.9l0,0c-0.3-0.2-0.7-0.1-0.9,0.2l-1.3,1.9
		c-0.2,0.3-0.1,0.7,0.2,0.9C26.5,21.4,26.6,21.4,26.8,21.4z"/>
	<path class="st6" d="M24.2,19.9c0.2,0,0.4-0.1,0.6-0.3l1.3-1.9c0.2-0.3,0.1-0.7-0.2-0.9l0,0c-0.3-0.2-0.7-0.1-0.9,0.2l-1.3,1.8
		c-0.2,0.3-0.2,0.7,0.1,0.9C23.9,19.8,24,19.9,24.2,19.9z"/>
	<path class="st6" d="M21.3,18.2c0.2,0,0.4-0.1,0.5-0.3l1.5-1.9c0.2-0.3,0.2-0.7-0.1-0.9c-0.3-0.2-0.7-0.2-0.9,0.1l-1.5,1.9
		c-0.2,0.3-0.2,0.7,0.1,0.9C21,18.1,21.1,18.2,21.3,18.2z"/>
	<path class="st6" d="M19.4,15.5c0.1,0,0.2,0,0.3-0.1l2.3-1.1c0.3-0.2,0.5-0.5,0.3-0.9l0,0c-0.2-0.3-0.6-0.5-0.9-0.3L19,14.3
		c-0.3,0.1-0.4,0.4-0.4,0.7C18.8,15.3,19.1,15.5,19.4,15.5z"/>
	<path class="st6" d="M18.6,12.8c0.1,0,0.2,0,0.2,0l2.3-0.9c0.3-0.1,0.5-0.5,0.4-0.8l0,0c0-0.4-0.4-0.5-0.8-0.4l-2.3,0.9
		c-0.3,0.1-0.5,0.4-0.4,0.7C18,12.6,18.3,12.8,18.6,12.8z"/>
	<path class="st6" d="M17.8,10c0.1,0,0.1,0,0.2,0l2.5-0.7c0.4-0.1,0.6-0.4,0.5-0.8c-0.1-0.4-0.4-0.6-0.8-0.5c-0.1,0-0.1,0-0.2,0.1
		l-2.5,0.8C17.2,9,17,9.4,17.1,9.8C17.3,9.9,17.5,10,17.8,10L17.8,10z"/>
	<path class="st6" d="M17,7.2h0.2l2.5-0.6c0.4-0.1,0.6-0.4,0.5-0.8l0,0c-0.1-0.4-0.5-0.6-0.8-0.5l-2.6,0.6c-0.3,0.1-0.5,0.4-0.5,0.7
		C16.3,7,16.6,7.2,17,7.2z"/>
</g>
<path class="st0" d="M15.1,27H3.7c-0.3,0-0.5-0.2-0.6-0.4c-0.6-1.7-0.9-3.4-0.8-5.2c0.1-2.3,0.9-4.6,2.2-6.5l0,0
	C10.2,16.3,14.5,21.2,15.1,27z"/>
<path class="st7" d="M3.7,34.1h40.4c0.4,0,0.7-0.3,0.7-0.7l0,0v-2.8c0-0.4-0.3-0.7-0.7-0.7l0,0H3.7c-0.4,0-0.7,0.3-0.7,0.7l0,0v2.8
	C3,33.8,3.3,34.1,3.7,34.1L3.7,34.1z"/>
<path class="st3" d="M44,29.9c0.4,0,0.7,0.3,0.7,0.7l0,0v2.8c0,0.4-0.3,0.7-0.7,0.7l0,0h-0.7v-4.2H44z"/>
</svg>
