<?xml version="1.0" encoding="utf-8"?>
<!-- Generator: Adobe Illustrator 23.1.0, SVG Export Plug-In . SVG Version: 6.00 Build 0)  -->
<svg version="1.1" id="icons" xmlns="http://www.w3.org/2000/svg" xmlns:xlink="http://www.w3.org/1999/xlink" x="0px" y="0px"
	 viewBox="0 0 47 47" style="enable-background:new 0 0 47 47;" xml:space="preserve">
<style type="text/css">
	.st0{fill:#FFB600;}
	.st1{fill:#FFC412;}
	.st2{fill:#FF9940;}
	.st3{fill:#F5760F;}
</style>
<title>Rowing</title>
<path class="st0" d="M44.1,6.9l-3.5-3.6c-1-1-2.9-1-3.9,0l0,0L29.1,11c-0.1,0.1-0.2,0.3-0.2,0.5l0.2,4.2c0,0.2,0.1,0.3,0.2,0.5
	l1.9,1.9c0.1,0.1,0.3,0.2,0.4,0.2l4.2,0.2l0,0c0.2,0,0.4-0.1,0.5-0.2l7.6-7.6C45.2,9.6,45.2,7.9,44.1,6.9L44.1,6.9z"/>
<path class="st1" d="M38,6.8c-0.7,0-1.4,0.3-1.9,0.8l-7,6.9l0.1,1.2c0,0.2,0.1,0.3,0.2,0.5l1.9,1.9c0.1,0.1,0.3,0.2,0.4,0.2l1.2,0.1
	l6.9-6.9c1.1-1.1,1.1-2.9,0-4C39.4,7,38.7,6.8,38,6.8z"/>
<path class="st2" d="M8,41.4l31-30.9c0.5-0.5,0.5-1.4,0-1.9c-0.5-0.5-1.4-0.5-1.9,0l0,0l-31,30.9c-0.8-0.2-1.7,0.2-2.3,0.8
	c-0.8,1-0.7,2.5,0.3,3.5c1,0.8,2.5,0.7,3.5-0.3C8,42.9,8.1,42.1,8,41.4L8,41.4z"/>
<path class="st3" d="M24.4,21.2l-3.6,3.6l1.9,1.9l3.5-3.5L24.4,21.2z"/>
<path class="st0" d="M18.2,11.1l-7.7-7.7c-1.1-1-2.9-1-4,0l0,0L3,6.9c-1,1-1,2.9,0,3.9l7.6,7.6c0.2,0.2,0.4,0.2,0.5,0.2l0,0l4.2-0.2
	c0.2,0,0.3-0.1,0.4-0.2l1.9-1.9c0.1-0.1,0.2-0.3,0.2-0.5l0.2-4.2C18.3,11.4,18.3,11.2,18.2,11.1z"/>
<path class="st1" d="M15.9,18.2l1.9-1.9c0.1-0.1,0.2-0.3,0.2-0.5l0.1-1.2l-6.9-6.9c-1-1.1-2.9-1.1-3.9,0c-1.1,1-1.1,2.9,0,3.9
	l6.9,6.9l1.2-0.1C15.7,18.4,15.8,18.3,15.9,18.2z"/>
<path class="st2" d="M39.2,41.4l-31-30.9c-0.5-0.5-0.5-1.4,0-1.9c0.5-0.5,1.4-0.5,1.9,0l0,0L41,39.5c0.8-0.2,1.7,0.2,2.3,0.8
	c0.8,1,0.7,2.5-0.3,3.5c-1,0.8-2.5,0.7-3.5-0.3C39.2,42.9,39,42.1,39.2,41.4L39.2,41.4z"/>
</svg>
