<?xml version="1.0" encoding="utf-8"?>
<!-- Generator: Adobe Illustrator 23.1.0, SVG Export Plug-In . SVG Version: 6.00 Build 0)  -->
<svg version="1.1" id="Layer_1" xmlns="http://www.w3.org/2000/svg" xmlns:xlink="http://www.w3.org/1999/xlink" x="0px" y="0px"
	 viewBox="0 0 47 47" style="enable-background:new 0 0 47 47;" xml:space="preserve">
<style type="text/css">
	.st0{fill:#FF3700;}
	.st1{fill:#FF8242;}
	.st2{fill:#FFFFFF;}
</style>
<title>Rugby</title>
<g>
	<g id="icons">
		<g id="Rugby">
			<path class="st0" d="M13.8,10.2C-2.8,23.3,1,39.8,2.4,41.7c1.2,1.5,18.1,8.1,33.8-6.3C51,21.8,46,6.5,44.4,4.9
				C43,3.5,30.2-2.9,13.8,10.2z"/>
			<path class="st1" d="M13.8,10.2C-1.6,22.4,0.4,37.4,2,41c0.4-6.8,2.3-13.3,5.8-19.3c2.1-3.7,4.8-7,8-9.7
				c3.1-2.7,6.7-4.8,10.6-6.3c3-1.2,6.2-1.8,9.5-2C38.4,3.5,41,3.6,43.4,4C39.7,2.2,28.2-1.3,13.8,10.2z"/>
			<path class="st1" d="M35.8,4.6c-7.3,0.4-14.1,3.3-19.5,8c-5.8,5.1-9.9,11.7-11.9,19.1c-1,3.2-1.5,6.5-1.6,9.9
				c4.1-0.3,8.1-1,12.1-2c6.4-1.6,15.1-4.7,20.3-10.7c4.2-4.7,7-10.2,8.5-16.3c0.6-2.5,1-5,1-7.6C41.6,4.5,38.7,4.3,35.8,4.6z"/>
			<path class="st1" d="M44.2,12.8c-1.5,6.2-4.5,11.8-8.6,16.6c-2.7,2.9-6,5.3-9.6,6.9c-3.5,1.7-7.3,3-11.1,3.8
				c-3.8,1-7.8,1.6-11.7,1.9c3.5,2,18.9,6.3,33.2-6.7C49.4,23.3,46.9,9.9,45.1,5.9C45,8.2,44.7,10.5,44.2,12.8z"/>
			<path class="st0" d="M12.9,28.2c-0.3-0.2-0.7-0.2-1,0c-0.2,0.3-0.2,0.7,0,1l0,0l2.7,2.6c0.1,0.1,0.3,0.2,0.4,0.2
				c0.2,0,0.3-0.1,0.5-0.2c0.2-0.2,0.2-0.7,0-1L12.9,28.2z"/>
			<path class="st0" d="M15.5,25.5c-0.3-0.2-0.7-0.2-1,0c-0.2,0.3-0.2,0.7,0,1l0,0l2.8,2.6c0.1,0.1,0.3,0.2,0.4,0.2
				c0.4,0,0.7-0.2,0.7-0.6c0-0.2-0.1-0.4-0.2-0.6L15.5,25.5z"/>
			<path class="st0" d="M18.1,22.7c-0.2-0.3-0.6-0.3-1-0.1c-0.3,0.2-0.3,0.6-0.1,1l0.1,0.1l2.8,2.6c0.1,0.1,0.3,0.2,0.4,0.2
				c0.2,0,0.4-0.1,0.5-0.2c0.2-0.3,0.2-0.7,0-1L18.1,22.7z"/>
			<path class="st0" d="M20.9,20.4c-0.3-0.2-0.7-0.2-1,0.1c-0.2,0.3-0.2,0.7,0.1,1l0,0l2.9,2.5C23,24,23.3,24,23.4,24
				c0.2,0,0.4-0.1,0.5-0.2c0.2-0.3,0.2-0.7-0.1-1L20.9,20.4z"/>
			<path class="st0" d="M23.9,17.8c-0.3-0.3-0.7-0.3-1,0c-0.3,0.3-0.3,0.7,0,1l0.1,0.1l3,2.5c0.1,0.1,0.3,0.1,0.4,0.1
				c0.2,0,0.4-0.1,0.5-0.2c0.2-0.3,0.2-0.7-0.1-1L23.9,17.8z"/>
			<path class="st0" d="M26.8,15.3c-0.3-0.2-0.7-0.2-1,0.1c-0.2,0.3-0.2,0.7,0.1,1l3,2.5C29,19,29.2,19,29.3,19
				c0.2,0,0.4-0.1,0.5-0.2c0.2-0.3,0.2-0.7-0.1-1L26.8,15.3z"/>
			<path class="st0" d="M29.7,13c-0.3-0.2-0.7-0.2-1,0.1c-0.2,0.3-0.2,0.7,0.1,1l3.1,2.5c0.1,0.1,0.3,0.1,0.4,0.1
				c0.2,0,0.4-0.1,0.5-0.2c0.2-0.3,0.2-0.7-0.1-1L29.7,13z"/>
			<path class="st0" d="M33,10.8c-0.3-0.2-0.7-0.2-1,0.1c-0.2,0.3-0.2,0.7,0.1,1l3.2,2.5c0.1,0.1,0.2,0.1,0.4,0.1s0.4-0.1,0.5-0.3
				c0.2-0.3,0.2-0.7-0.1-1l0,0L33,10.8z"/>
			<path class="st2" d="M12.3,28.1c-0.2-0.2-0.7-0.2-1,0c-0.2,0.3-0.2,0.7,0,1l2.7,2.6c0.1,0.1,0.3,0.2,0.4,0.2
				c0.2,0,0.3-0.1,0.5-0.2c0.2-0.3,0.2-0.7,0-1L12.3,28.1z"/>
			<path class="st2" d="M14.8,25.3c-0.3-0.2-0.7-0.2-1,0c-0.2,0.3-0.2,0.7,0,1l0,0l2.8,2.6c0.1,0.1,0.3,0.2,0.4,0.2
				c0.2,0,0.3-0.1,0.5-0.2c0.2-0.3,0.2-0.7,0-1L14.8,25.3z"/>
			<path class="st2" d="M17.6,22.6c-0.3-0.2-0.7-0.2-1,0l0,0c-0.2,0.2-0.3,0.6,0,1l0,0l2.8,2.6c0.1,0.1,0.3,0.2,0.4,0.2
				c0.2,0,0.4-0.1,0.5-0.2c0.2-0.2,0.2-0.7,0-1L17.6,22.6z"/>
			<path class="st2" d="M20.3,20.1c-0.3-0.2-0.7-0.2-1,0.1c-0.2,0.3-0.2,0.7,0.1,1l0,0l2.9,2.5c0.1,0.1,0.3,0.2,0.4,0.2
				c0.2,0,0.4-0.1,0.5-0.2c0.2-0.3,0.2-0.7-0.1-1l0,0L20.3,20.1z"/>
			<path class="st2" d="M23.4,17.6c-0.3-0.2-0.7-0.2-1,0.1c-0.2,0.3-0.2,0.7,0.1,1l0,0l3,2.5c0.1,0.1,0.3,0.1,0.4,0.1
				c0.2,0,0.4-0.1,0.5-0.2c0.2-0.3,0.2-0.7-0.1-1l0,0L23.4,17.6z"/>
			<path class="st2" d="M26.2,15.2c-0.3-0.2-0.7-0.2-1,0.1l0,0c-0.2,0.3-0.2,0.7,0.1,1l3,2.5c0.1,0.1,0.3,0.1,0.4,0.1
				c0.2,0,0.4-0.1,0.5-0.2c0.2-0.3,0.2-0.7-0.1-1L26.2,15.2z"/>
			<path class="st2" d="M29.1,12.9c-0.3-0.2-0.7-0.1-1,0.2c-0.2,0.3-0.1,0.6,0.1,0.9l3.1,2.5c0.3,0.2,0.7,0.2,1-0.1l0,0
				c0.2-0.3,0.2-0.7-0.1-1L29.1,12.9z"/>
			<path class="st2" d="M32.3,10.6c-0.2-0.2-0.6-0.2-1,0.1l0,0c-0.2,0.3-0.2,0.7,0.1,1l3.2,2.5c0.1,0.1,0.2,0.1,0.4,0.1
				c0.4,0,0.6-0.3,0.6-0.7c0-0.2-0.1-0.3-0.2-0.5L32.3,10.6z"/>
			<path class="st0" d="M32.5,30C21.5,40,10,41.6,2,40.8c0.1,0.3,0.2,0.5,0.4,0.9c1.2,1.5,18.1,8.1,33.8-6.3
				C49.5,23.2,46.9,9.7,45.1,5.9C44.6,12.8,41.6,21.6,32.5,30z"/>
		</g>
	</g>
</g>
</svg>
