<?xml version="1.0" encoding="utf-8"?>
<!-- Generator: Adobe Illustrator 23.1.0, SVG Export Plug-In . SVG Version: 6.00 Build 0)  -->
<svg version="1.1" id="icons" xmlns="http://www.w3.org/2000/svg" xmlns:xlink="http://www.w3.org/1999/xlink" x="0px" y="0px"
	 viewBox="0 0 47 47" style="enable-background:new 0 0 47 47;" xml:space="preserve">
<style type="text/css">
	.st0{fill:#4BE4F9;}
	.st1{fill:#515151;}
</style>
<title>Running</title>
<g id="Running">
	<path class="st0" d="M12.9,8.2H6.7C6.1,8.3,5.7,9,5.8,9.7c0.1,0.4,0.5,0.8,0.9,0.9h6.1c0.7-0.2,1.1-0.8,0.9-1.5
		C13.6,8.6,13.3,8.3,12.9,8.2z"/>
	<path class="st0" d="M12.9,17.8H6.7C6,18,5.6,18.7,5.8,19.3c0.1,0.4,0.4,0.8,0.9,0.9h6.1c0.7,0.2,1.3-0.2,1.5-0.9
		c0.2-0.7-0.2-1.3-0.9-1.5C13.3,17.8,13.1,17.8,12.9,17.8z"/>
	<path class="st0" d="M10.4,13h-6c-0.7-0.2-1.3,0.2-1.5,0.9s0.2,1.3,0.9,1.5c0.2,0.1,0.4,0.1,0.7,0h6c0.7,0.2,1.3-0.2,1.5-0.9
		s-0.2-1.3-0.9-1.5C10.9,12.9,10.7,12.9,10.4,13L10.4,13z"/>
	<path class="st1" d="M42,19h-7.3v-4.8c0-1.3-1.1-2.4-2.4-2.4c-0.6,0-1.3,0.3-1.7,0.7l-9.7,9.7c-0.9,1-0.9,2.5,0,3.4l5.5,5.5
		l-6.7,6.7c-0.9,1-0.9,2.5,0,3.4s2.5,0.9,3.4,0l0,0l8.5-8.5c0.9-0.9,0.9-2.5,0-3.4l-5.5-5.5l3.8-3.8v1.4c0,1.3,1.1,2.4,2.4,2.4l0,0
		H42c1.3,0.1,2.5-0.9,2.6-2.2c0.1-1.3-0.9-2.5-2.2-2.6C42.3,19,42.1,19,42,19L42,19z"/>
	<path class="st1" d="M25.8,6.8c-1-0.6-2.2-0.5-3.1,0.3L16,13.7c-0.9,1-0.8,2.5,0.2,3.4c0.9,0.8,2.3,0.8,3.2,0l5.2-5.2l1.8,1.2
		l2.4-2.3c0.4-0.4,0.9-0.7,1.4-0.9L25.8,6.8z"/>
	<path class="st1" d="M19.1,27.3c-0.6-0.6-1-1.3-1.2-2.2L5.1,37.8c-0.9,1-0.8,2.5,0.2,3.4c0.9,0.8,2.3,0.8,3.2,0l12.3-12.3
		L19.1,27.3z"/>
	<circle class="st1" cx="35.8" cy="8.2" r="3.6"/>
</g>
</svg>
