<?xml version="1.0" encoding="utf-8"?>
<!-- Generator: Adobe Illustrator 23.1.0, SVG Export Plug-In . SVG Version: 6.00 Build 0)  -->
<svg version="1.1" id="icons" xmlns="http://www.w3.org/2000/svg" xmlns:xlink="http://www.w3.org/1999/xlink" x="0px" y="0px"
	 viewBox="0 0 47 47" style="enable-background:new 0 0 47 47;" xml:space="preserve">
<style type="text/css">
	.st0{fill:#41D6E5;}
	.st1{fill:#FFB680;}
	.st2{fill:#383838;}
	.st3{fill:#7E3422;}
	.st4{fill:#FF4200;}
	.st5{fill:#FF6700;}
	.st6{fill:#FFC77D;}
	.st7{fill:#FFFFFF;}
</style>
<title>Sailing</title>
<path class="st0" d="M6.5,40.2c3.6,1.2,7.3,2.2,11,3c6.2,1,12.4,1.5,18.6,1.6c2.7,0,3-0.2,2.8-0.7c-0.3-0.1-0.5-0.2-0.8-0.2
	c-4.8-1.1-12.7-2.9-16.2-3.4c-1.7-0.2-11.8-1.3-15.7-1.3C5.8,39.4,5.3,39.8,6.5,40.2z"/>
<path class="st1" d="M27.6,23.9c-0.3,0.1-0.5,0.3-0.7,0.5c-0.5,0.7-1.6,2.4-2.4,3.4c-0.6,0.3-2.1,0.8-2.8,1.2
	c-0.4,0.2-1.9,0-2.5,0.5c-0.2,0.2-0.4,1.1,0.5,0.8c0.2,0,0.4-0.4,0.9-0.2c0.6-0.1,1.3-0.4,1.5-0.4c1-0.2,2.1-0.5,3-0.9
	c0.7-0.5,1.3-1.2,1.8-1.9c0-0.3-0.1-0.6-0.1-0.8C27,25.3,27.3,24.5,27.6,23.9z"/>
<path class="st2" d="M30.9,29.7c-0.3-0.4-2.6-0.4-3.4,0c-0.9,1.5-1.7,3.3-2.3,5c0.7,0.2,1.4,0.4,2.2,0.5l1.1-3.3
	c0,0-0.4,3.4-0.4,3.5c1,0.2,1.9,0.3,1.9,0.3C31.3,33.9,31.5,31.7,30.9,29.7z"/>
<path class="st1" d="M30.5,19.8c-0.5-0.4-1.2-0.6-1.9-0.4c-0.2,0.1-0.4,0.3-0.5,0.5C28,20.1,28,20.4,28,20.6c0,0.1-0.4,0.5-0.5,0.7
	c-0.1,0.2,0.3,0.2,0.3,0.3c0,0.1-0.1,0-0.1,0.1c0,0.1,0.1,0.1,0.1,0.1s-0.1,0.1,0,0.1c0.1,0,0,0.4,0.3,0.4c0.3,0,0.4,0,0.5,0.2
	c0.1,0.2,0,0.5-0.1,0.7c-0.1,0.3-0.6,0.3-0.5,0.2l0.7,1.4l1.6-1.5c-0.2,0-0.3-0.1-0.4-0.2c-0.1-0.3-0.1-0.5-0.1-0.8
	c0.2-0.4,0.3-0.7,0.5-1.1C30.6,21.2,30.9,20.4,30.5,19.8z"/>
<path class="st3" d="M28.1,19.9c0.3,0,0.6,0.1,0.8,0.4c0.3,0.3,0.2,0.6,0.6,0.8c0.4,0.2,0.2,0.4,0.2,0.4l0.1,0.9
	c0.4-0.3,0.7-0.8,0.8-1.3c0.1-0.4,0.2-0.9,0.2-1.3c-0.5-0.3-1.1-0.5-1.7-0.6c-0.3,0-0.7,0-1,0.1C28.2,19.5,28.2,19.7,28.1,19.9z"/>
<path class="st1" d="M29.5,21c0-0.2,0.2-0.3,0.3-0.2l0,0c0.3,0.1,0.3,0.5-0.1,0.7C29.3,21.9,29.5,21,29.5,21z"/>
<path class="st4" d="M30.8,26.1c-0.8-0.4,0.3-2.5,0.3-2.5s-0.9-0.1-1.1-0.1c-0.1,0.3-0.4,0.9-1,0.9s-0.6-0.6-0.6-0.8
	c-0.3,0.1-0.6,0.2-0.9,0.3c-0.3,0.7-0.4,1.4-0.4,2.2c0,0.2,0.1,0.9,0.1,0.9c0.1,0.3,0.2,0.6,0.3,1c0.2,0.5,0.2,1.1,0,1.7h3.5
	c-0.1-0.2-0.2-0.5-0.2-0.7c0-0.5,0.1-0.9,0.3-1.3c0.2-0.5,0.4-0.9,0.6-1.4C31.4,26.3,31.1,26.2,30.8,26.1z"/>
<path class="st1" d="M29.6,43.3c0.4-0.2,0.7-0.5,1-0.9c0.1-0.2,0.1-0.4,0.1-0.6c-0.2-0.7-2.3-4.4-2.4-5.3c0-0.4,0-0.7,0-1.1l1.9,0.3
	c0,0-0.3,0.9-0.3,1c0.8,1.5,1.4,3.3,1.8,5c0.1,0.3,0.2,0.6,0.4,0.8c0.1,0.2,0.1,0.5-0.4,0.7c-0.5,0.2-0.9,0.9-1.5,0.9
	c-0.7,0.1-1.1,0-1.1-0.2C29.2,43.7,29.2,43.6,29.6,43.3z"/>
<path class="st1" d="M22.3,42.5c0.4-0.2,1.4-0.6,1.6-1.1c0.5-1.5,0.9-3.2,1.1-4.8c0.1-0.4,0.3-1.9,0.3-1.9l2.2,0.5
	c-0.4,0.7-0.7,1.3-1,2.1c-0.1,0.2-1.1,3-1.3,3.9c-0.1,0.4,0.2,1.1-0.2,1.1c-0.4,0.1-0.8,0.3-1.2,0.6c-0.4,0.2-0.8,0.3-1.2,0.3
	C22.1,43.1,21.8,42.8,22.3,42.5z"/>
<path class="st2" d="M21.8,30.7c0,0-0.4,6.5-1.7,8.1c-0.7,0.7-1.6,1.1-2.7,1.1l-0.2,0.3c1.1,0.1,2.3-0.3,3.1-1.2
	c1.7-1.9,1.7-7.3,1.8-9.1C22.2,28.1,21.8,30.7,21.8,30.7z"/>
<path class="st1" d="M30.2,23.9c0.2-0.2,0.9-0.6,1.2,0c0.3,0.7,0.4,1.5,0.1,2.3c-0.7,0.4-1.5,0.8-2.4,1.1c-0.5,0.1-1.1-0.1-1.4-0.5
	c-0.5-0.5-3-2.8-3-2.8c-0.6-0.1-1.1-0.4-1.5-0.8c-0.4-0.5-0.6-1.1,0-1.1c0.7,0.2,1.4,0.6,2.1,1.1c0.9,0.7,3.3,2.6,3.3,2.6
	S29.8,24.3,30.2,23.9z"/>
<path class="st5" d="M17.4,39.9c0,0,5.4-11,7.5-16c3.1-7.5,4.7-22.7,4.7-22.7S18.8,11.8,16.7,18c-2.4,7-0.7,22.2-0.7,22.2L17.4,39.9
	z"/>
<path class="st6" d="M28.4,3.8c0,0-8.5,9.4-9.9,12.6c-1.3,2.8-2.1,5.7-2.2,8.8c-0.2,4.6-0.1,9.2,0.3,13.8c0,0,6-12.5,7.7-17.5
	C25.8,17.6,28.4,3.8,28.4,3.8z"/>
<path class="st7" d="M27.4,9.2c-1.7,1.2-3.3,2.7-4.8,4.2c-1.7,1.7-5.4,6.7-5.4,6.7l-0.3,1.3c0,0,4.8-5.4,6.1-6.7
	c1.2-1.2,2.5-2.3,3.9-3.2L27.4,9.2z"/>
<path class="st7" d="M16.7,23c1.2-1.4,2.6-2.8,3.9-4c2.8-2.6,5.7-4.7,5.7-4.7l-0.5,2.3c0,0-3.7,2.8-4.9,3.7
	c-1.2,0.9-4.3,3.6-4.3,3.6L16.7,23z"/>
<polygon class="st2" points="15.9,39.2 16,42.1 16.8,42.2 17.6,39.4 "/>
<path class="st2" d="M26,22.7L26,22.7c0-0.2-0.1-0.2-0.3-0.2l-11.4,2.4c-0.1,0-0.2,0.1-0.2,0.3v0.1c0,0.1,0.1,0.2,0.3,0.2l0.3-0.1
	c-0.2,2.6,0.3,5,1.2,7.4c0.6,1.5,1.9,2.6,3.6,2.7c0-0.1,0.1-0.2,0.2-0.4c-1.1-0.1-2.2-0.6-2.9-1.5c-0.9-1.5-1.5-3.2-1.6-5
	c-0.1-1.1-0.1-2.2-0.1-3.3L25.8,23C25.9,23,26,22.9,26,22.7L26,22.7z"/>
</svg>
