<?xml version="1.0" encoding="utf-8"?>
<!-- Generator: Adobe Illustrator 23.1.0, SVG Export Plug-In . SVG Version: 6.00 Build 0)  -->
<svg version="1.1" id="icons" xmlns="http://www.w3.org/2000/svg" xmlns:xlink="http://www.w3.org/1999/xlink" x="0px" y="0px"
	 viewBox="0 0 47 47" style="enable-background:new 0 0 47 47;" xml:space="preserve">
<style type="text/css">
	.st0{fill-rule:evenodd;clip-rule:evenodd;fill:#FF5D0B;}
	.st1{fill:#999999;}
	.st2{fill:#FF4000;}
	.st3{fill-rule:evenodd;clip-rule:evenodd;fill:#303030;}
	.st4{fill:#303030;}
	.st5{fill-rule:evenodd;clip-rule:evenodd;fill:#0096DB;}
	.st6{fill:#0096DB;}
	.st7{fill:#B3B3B3;}
	.st8{fill:#CCCCCC;}
	.st9{fill-rule:evenodd;clip-rule:evenodd;fill:#7AC8F1;}
	.st10{fill-rule:evenodd;clip-rule:evenodd;fill:#999999;}
	.st11{fill:#7AC8F1;}
</style>
<title>ScubaDiving</title>
<g id="scuda_diging">
	<path class="st0" d="M22.6,45.7H31c1.1,0,2.1-0.9,2.1-2.1V13.1c0-3.5-2.8-6.3-6.3-6.3l0,0c-3.5,0-6.3,2.8-6.3,6.3l0,0v30.5
		C20.5,44.7,21.4,45.7,22.6,45.7L22.6,45.7z"/>
	<rect x="26" y="1.2" class="st1" width="1.4" height="6.3"/>
	<rect x="24.3" y="5.8" class="st2" width="5.1" height="1.7"/>
	<path class="st3" d="M22.3,45.9h8.8c1.1,0,2.2-0.9,2.2-2.2v-5H20.1v5C20.1,44.8,21.2,45.9,22.3,45.9L22.3,45.9z"/>
	<rect x="20.1" y="17.2" class="st4" width="13.2" height="3.3"/>
	<rect x="24.7" y="2.5" class="st1" width="6.3" height="1.4"/>
	<path class="st3" d="M33.5,1.9c0.7-0.1,0.6,2.8,0,2.7l-3.4-0.6V2.5L33.5,1.9z"/>
	<rect x="31.9" y="16.8" class="st1" width="1.4" height="0.3"/>
	<rect x="31.9" y="20.6" class="st1" width="1.4" height="0.3"/>
	<rect x="33.4" y="16.8" class="st1" width="0.3" height="4"/>
</g>
<path class="st4" d="M12.3,25.8c0,1.7,0.6,3.1,1.9,4.2c1.7,1.5,3.6,2.6,5.9,3c2.5,0.5,5.1,0.5,7.6,0c3.3-0.7,6.3-2.6,8.3-5.5
	c2-3,3-6.4,3-9.9c0-2.2-0.4-4.3-1.3-6.4c-0.8-1.9-2.2-3.4-3.8-4.5C32,5.6,30.1,5.1,28,5.1c-3.5-0.2-6.8,1.7-8.4,4.8
	c-0.4,0.8-0.6,1.8-0.7,2.7c-0.1,0.8,0.1,1.7,0.4,2.5c0.8,1.9,2.8,3,4.9,2.8v0.9c-2.4,0.2-4.7-1.1-5.7-3.4c-0.4-0.9-0.5-2-0.5-2.9
	c0.1-1,0.3-2.1,0.8-3.1C20.1,6.4,23.3,4,28,4c2.3,0,4.4,0.6,6.3,1.9c1.9,1.2,3.3,3,4.1,5c0.9,2.2,1.4,4.4,1.4,6.8
	c0,3.7-1.1,7.3-3.2,10.4c-2.1,3-5.3,5.2-8.8,5.9c-2.7,0.6-5.4,0.6-8.1,0c-2.4-0.5-4.5-1.7-6.3-3.3c-1.3-1.3-2.1-3.1-2.1-5h0.8V25.8z
	"/>
<path class="st5" d="M28.3,14.3L28.3,14.3c1.3,0,2.5,1.1,2.5,2.5v6.1c0,0.9-0.5,1.8-1.3,2.2h-2.3c-0.8-0.4-1.3-1.2-1.3-2.2v-6.1
	C25.8,15.4,27,14.3,28.3,14.3z M27.4,24.4h1.9c0.5-0.3,0.8-0.9,0.8-1.5v-2h-3.6v1.9C26.4,23.5,26.8,24.1,27.4,24.4z"/>
<circle class="st6" cx="11.9" cy="16.3" r="4.5"/>
<path class="st3" d="M11.9,20c2.1,0,3.7-1.7,3.7-3.7s-1.7-3.7-3.7-3.7s-3.7,1.7-3.7,3.7l0,0C8.2,18.4,9.8,20,11.9,20z"/>
<path class="st5" d="M11.9,19.4c1.7,0,3.1-1.3,3.1-3.1c0-1.7-1.3-3.1-3.1-3.1s-3.1,1.3-3.1,3.1C8.9,18,10.2,19.3,11.9,19.4z"/>
<path class="st3" d="M11.9,18.3c1.1,0,2-0.9,2-2s-0.9-2-2-2s-2,0.8-2,2C9.9,17.4,10.8,18.3,11.9,18.3z"/>
<rect x="25.8" y="19.7" class="st4" width="5" height="0.4"/>
<rect x="27.1" y="21" class="st7" width="2.4" height="0.5"/>
<rect x="27.7" y="21" class="st8" width="1.1" height="0.5"/>
<rect x="27.8" y="25.8" class="st4" width="1.1" height="1.8"/>
<path class="st5" d="M29.4,25h-2.3v1c0,0.2,0.1,0.3,0.3,0.3h1.7c0.2,0,0.3-0.1,0.3-0.3l0,0L29.4,25z"/>
<path class="st9" d="M28.3,19.3c0.5,0,0.9-0.4,0.9-0.9s-0.4-0.9-0.9-0.9s-0.9,0.4-0.9,0.9l0,0C27.4,18.9,27.8,19.3,28.3,19.3z"/>
<rect x="27.2" y="25" class="st4" width="2.3" height="0.2"/>
<path class="st6" d="M27,28.4c0.2,0.5,0.7,0.8,1.3,0.8c0.3,0,0.5-0.1,0.7-0.2c0.2-0.1,0.4-0.3,0.5-0.6c0-0.1,0.1-0.2,0.1-0.2
	s0,0,0-0.1H27l0,0c0,0,0,0,0,0.1C27,28.3,27,28.3,27,28.4L27,28.4z M27.2,29.6c-0.3-0.2-0.6-0.5-0.8-0.9c-0.1-0.1-0.1-0.3-0.1-0.5
	s0-0.3,0.1-0.4c0.1-0.1,0.2-0.2,0.3-0.3l0,0c0.1,0,0.2-0.1,0.3-0.1h2.6c0.1,0,0.2,0,0.3,0.1c0.1,0.1,0.2,0.2,0.3,0.3
	c0.1,0.1,0.1,0.2,0.1,0.4c0,0.2-0.1,0.4-0.2,0.5c-0.2,0.3-0.4,0.6-0.8,0.8c-0.3,0.2-0.7,0.3-1,0.3C27.9,29.9,27.5,29.8,27.2,29.6
	L27.2,29.6z"/>
<polygon class="st10" points="27.8,27.5 28.8,27.2 28.8,27.3 27.8,27.6 "/>
<polygon class="st10" points="27.8,27.2 28.8,27 28.8,27.1 27.8,27.3 "/>
<polygon class="st10" points="27.8,27 28.8,26.8 28.8,26.9 27.8,27.1 "/>
<polygon class="st10" points="27.8,26.8 28.8,26.6 28.8,26.7 27.8,26.9 "/>
<polygon class="st10" points="27.8,26.6 28.8,26.3 28.8,26.5 27.8,26.7 "/>
<polygon class="st10" points="27.8,26.3 28.8,26.1 28.8,26.1 27.8,26.5 "/>
<rect x="10.6" y="20.8" class="st6" width="2.4" height="1.1"/>
<rect x="11.3" y="20.8" class="st11" width="1.1" height="1.1"/>
<rect x="10.2" y="21.8" class="st6" width="3.3" height="2.2"/>
<rect x="11.9" y="21.8" class="st11" width="1.2" height="2.2"/>
<rect x="11.3" y="24" class="st6" width="1.3" height="2.4"/>
<rect x="23.5" y="17.6" class="st11" width="2.4" height="1.8"/>
</svg>
