<?xml version="1.0" encoding="utf-8"?>
<!-- Generator: Adobe Illustrator 23.1.0, SVG Export Plug-In . SVG Version: 6.00 Build 0)  -->
<svg version="1.1" id="icons" xmlns="http://www.w3.org/2000/svg" xmlns:xlink="http://www.w3.org/1999/xlink" x="0px" y="0px"
	 viewBox="0 0 47 47" style="enable-background:new 0 0 47 47;" xml:space="preserve">
<style type="text/css">
	.st0{fill:#FF3B58;}
</style>
<title>SexualActivity</title>
<path class="st0" d="M9.1,19.6c0,0-0.7-3.6,1.3-5.9c2.1-2.6,6-3,8.6-0.9l0.1,0.1c2.3,2,2.8,5.4,3,8.1c0.1,3.5-0.2,6.9-0.9,10.3
	c-3.3,0.9-6.7,1.4-10.2,1.4c-2.6,0-6.1-0.4-8.2-2.7c-2.3-2.5-2.1-6.4,0.4-8.6c0-0.1,0.1-0.1,0.1-0.1C5.5,18.9,9.1,19.6,9.1,19.6z"/>
<path class="st0" d="M35,18.4c0,0,2.6-2.4,5.7-1.9c3.3,0.4,5.7,3.5,5.2,6.8c0,0.1,0,0.1,0,0.2c-0.5,3-3.2,5.2-5.3,6.7
	c-2.9,1.9-6,3.3-9.3,4.4c-2.5-2.4-4.6-5.1-6.4-8.1c-1.3-2.2-2.7-5.4-1.9-8.4c0.9-3.2,4.4-5,7.6-4.1h0.1C33.7,15.1,35,18.4,35,18.4z"
	/>
</svg>
