<?xml version="1.0" encoding="utf-8"?>
<!-- Generator: Adobe Illustrator 23.1.0, SVG Export Plug-In . SVG Version: 6.00 Build 0)  -->
<svg version="1.1" id="icons" xmlns="http://www.w3.org/2000/svg" xmlns:xlink="http://www.w3.org/1999/xlink" x="0px" y="0px"
	 viewBox="0 0 47 47" style="enable-background:new 0 0 47 47;" xml:space="preserve">
<style type="text/css">
	.st0{fill:#464646;}
	.st1{fill:#515151;}
</style>
<title>SimplyFitBoard</title>
<path class="st0" d="M2.9,38.1v0.5c0,0,11.9,3,14.1,3.5c2.7,0.7,7.4,1.9,10.3,2.4c3.9,0.6,7.8,0.6,11.7,0.1c1.8-0.2,3.6-0.6,5.4-1.2
	v-0.5L9.1,37.1L2.9,38.1z"/>
<path class="st0" d="M6.4,34.5c0,0,15.9,0.8,22.5,2.3c10.2,2.3,15.4,6,15.4,6C38,44.6,31.4,44.9,25,43.5C16.9,41.8,2.8,38,2.8,38
	L6.4,34.5z"/>
<path class="st1" d="M22.5,5.3c-0.1-0.2-0.3-0.4-0.2-0.7c0.1-0.5,0-1-0.3-1.4c-0.5-0.7-0.8-0.6-0.8-0.6c-1,0.3-1.8,1-2.4,1.8
	c-0.3,0.6-0.5,1.2-0.7,1.8C18,6.4,18,6.6,18,6.8c0,0.1-0.1,0.2-0.1,0.3c0.6,0.4,1.3,0.7,2,0.9c0.2-0.3,0.4-0.5,0.6-0.6
	c0.3,0,0.6,0.1,0.9,0.3c0.3,0,0.7-0.1,0.7-0.4s0-0.2,0.1-0.2s0.1-0.1,0.1-0.2c-0.1-0.1,0.2-0.1,0.1-0.2c-0.1-0.2-0.1-0.3,0.1-0.4
	s0.4-0.1,0.4-0.2C22.8,5.8,22.8,5.5,22.5,5.3z"/>
<path class="st1" d="M21.8,2.9c-0.2,0.5-0.5,1-0.9,1.4c-0.3,0.3-0.7,0.5-1,0.5c-0.2-0.4-0.5-0.5-0.7-0.4S18.8,4.7,18.8,5
	c0,0.2,0.1,0.4,0.1,0.7c0,0-0.7,0.8-0.9,1.2c-0.1-0.3-0.2-0.6-0.5-0.8c-0.8-1.1-0.7-2.6,0.4-3.5C18.6,1.9,20.1,1.2,21.8,2.9z"/>
<path class="st1" d="M23.5,27.6C23.3,26,21,19.9,21,19.9h-6.1c-0.2,1.2-0.2,2.4,0,3.6c0.4,1.8,1,3.5,1.7,5.2l-0.4,2.1l2.2,0.8
	c0.2-0.9,0.4-1.8,0.6-2.7c0-1.4-0.2-5.1-0.2-5.1c0.8,1.5,1.4,3,1.9,4.6c0.3,1,0.7,2.2,1.1,3.4l2.3-0.4C23.8,29.7,23.6,28,23.5,27.6z
	"/>
<path class="st1" d="M21,11c-0.1-0.9-0.4-1.8-0.9-2.5l0,0C20,8.4,19.9,8.2,20,8V7.9c-0.7-0.2-1.4-0.5-2-0.9
	c-0.1,0.2-0.2,0.4-0.3,0.5c-0.1,0.2-0.3,0.4-0.6,0.4c0.1,0.6,0.1,1.2,0,1.9c-0.2,0.8-0.6,2.1-1.4,2.4c0.2,1.3,0.2,2.5,0.1,3.8
	c-0.3,1.8-0.9,3.8-0.9,3.8h6.1c-0.3-1.1-0.5-2.3-0.5-3.5c0.1-1.4,0.3-2.8,0.6-4.2C21.1,11.9,21.1,11.4,21,11z"/>
<path class="st1" d="M17.3,8L17.3,8c-0.5,0.1-1.2,0.3-1.6,0.5c-0.7,0.4-1.3,0.9-1.7,1.6L12.5,12c-0.4,0.5-1.1,1.4-1.2,1.5
	c-1.5,1.2-3.1,2.2-4.8,2.9c-0.9,0.3-1.8,0.6-2.6,1c-1.5,0.8-1.2,1.1,0.3,1.1c0.7,0,1.1-0.4,1.5-0.3s0.3,0.4,0.4,0.7
	c0,0.4,0.4,0.4,0.4,0.4S6.4,17.7,7,17.5c1.7-0.7,3.3-1.5,4.8-2.4c0.4-0.3,1.1-0.9,1.7-1.5l0,0l0.2-0.2l0.1-0.1l0,0l0.4-0.4l0.2-0.2
	c0.7-0.7,1.2-1.2,1.2-1.2s0,0.3,0.1,0.7c0.8-0.4,1.2-1.6,1.4-2.4C17.3,9.2,17.3,8.6,17.3,8z"/>
<path class="st1" d="M32.3,18.6c-0.8-0.7-1.8-1.3-2.8-1.8c-1.7-0.7-4.1-1.8-4.5-2.5c-1-1.7-2.2-3.4-3.4-4.9
	c-0.3-0.3-0.7-0.5-1.1-0.7c-0.1-0.1-0.2-0.1-0.3-0.2l0,0c0.5,0.8,0.8,1.6,0.9,2.5c0,0.4,0,0.8,0,1.2l0,0c0,0,1.2,1.6,2.2,2.7
	c0.3,0.3,0.5,0.6,0.8,0.9c1.1,1,4,1.4,5.1,2.3c0.3,0.3,0.2,0.7,0.1,1.1s0,0.5,0.2,0.3s0.3-0.5,0.5-0.7s0.9,0.3,1.4,0.6
	C32.3,19.8,33.3,19.5,32.3,18.6z"/>
<path class="st1" d="M18.4,39.5c-0.6-0.3-1.2-0.8-1.5-1.4c-0.1-0.3-0.2-0.6-0.1-1l0,0c0.3-1.1,1.1-3.6,1.7-5.5l-2.2-0.8
	c-0.3,2-0.6,4-1.1,6c-0.1,0.4-0.3,0.8-0.6,1.2c-0.2,0.3-0.1,0.8,0.7,1.1c0.6,0.4,1.2,1.4,2.2,1.5s1.7,0,1.7-0.3S18.9,39.8,18.4,39.5
	z"/>
<path class="st1" d="M28.1,39.5c-0.6-0.3-2.3-1-2.6-1.6c-0.8-1.4-0.9-3.6-1.5-6.6l-2.3,0.4c0.5,1.8,1.5,4.3,1.9,5.7
	c0.2,0.7-0.2,1.7,0.4,1.8c0.7,0.2,1.3,0.5,1.9,0.9c0.6,0.3,1.2,0.5,1.9,0.4C28.5,40.4,28.9,40,28.1,39.5z"/>
</svg>
