<?xml version="1.0" encoding="utf-8"?>
<!-- Generator: Adobe Illustrator 23.1.0, SVG Export Plug-In . SVG Version: 6.00 Build 0)  -->
<svg version="1.1" id="icons" xmlns="http://www.w3.org/2000/svg" xmlns:xlink="http://www.w3.org/1999/xlink" x="0px" y="0px"
	 viewBox="0 0 47 47" style="enable-background:new 0 0 47 47;" xml:space="preserve">
<style type="text/css">
	.st0{fill:#4B6975;}
	.st1{fill:#608796;}
	.st2{fill:none;stroke:#608796;stroke-width:1.96;stroke-miterlimit:10;}
	.st3{fill:#FF2626;}
	.st4{fill:#FFFFFF;}
	.st5{fill:#FFD119;}
	.st6{fill:#DBDBDB;}
</style>
<title>Sittercise</title>
<g id="Insanity">
	<rect x="13.3" y="12.4" transform="matrix(0.8618 -0.5072 0.5072 0.8618 -5.4589 9.2498)" class="st0" width="1.9" height="4.5"/>
	<path class="st1" d="M12.1,11.8l0.5-0.3c0.4-0.2,1-0.1,1.2,0.3l1.8,3.2l0,0l-2,1.2l0,0L11.8,13C11.7,12.5,11.8,12,12.1,11.8z"/>
	<rect x="30.5" y="13.8" transform="matrix(0.5072 -0.8618 0.8618 0.5072 3.3913 35.4472)" class="st0" width="4.5" height="1.9"/>
	<path class="st1" d="M33.2,16.1l-2-1.2l0,0l1.8-3.2c0.2-0.4,0.7-0.5,1.2-0.3l0.5,0.3c0.4,0.2,0.5,0.7,0.3,1.2L33.2,16.1L33.2,16.1z
		"/>
	<circle class="st2" cx="23.5" cy="6.8" r="5.7"/>
	<rect x="21.6" y="10" class="st0" width="3.7" height="5"/>
	<circle class="st3" cx="23.5" cy="29.8" r="16.1"/>
	<circle class="st4" cx="23.5" cy="29.8" r="13.4"/>
	<path class="st5" d="M31.9,24.5l1.6-1c-1-1.6-2.3-2.9-3.8-3.8l-1,1.7C30,22.2,31,23.2,31.9,24.5z"/>
	<path class="st5" d="M28.1,21l1-1.6c-1.6-0.8-3.4-1.4-5.3-1.4v1.9C25.3,19.9,26.8,20.4,28.1,21z"/>
	<path class="st5" d="M33.4,29.5h1.9c-0.1-1.8-0.5-3.6-1.4-5.3l-1.6,1C32.9,26.4,33.4,27.9,33.4,29.5z"/>
	<path class="st5" d="M33.4,30.1c0,1.5-0.4,3-1.2,4.4l1.6,1c0.8-1.6,1.4-3.4,1.4-5.3C35.2,30.1,33.4,30.1,33.4,30.1z"/>
	<path class="st5" d="M15,35.1l-1.6,1c1,1.6,2.2,2.9,3.8,3.8l1-1.6C16.9,37.5,15.9,36.4,15,35.1z"/>
	<path class="st5" d="M23.8,39.8v1.9c1.8,0,3.6-0.5,5.3-1.4l-1-1.6C26.8,39.4,25.3,39.7,23.8,39.8z"/>
	<path class="st5" d="M28.7,38.3l1,1.6c1.6-1,2.9-2.3,3.8-3.8l-1.7-1C31.1,36.4,30,37.5,28.7,38.3z"/>
	<path class="st5" d="M13.5,30.1h-1.9c0,1.8,0.5,3.6,1.4,5.2l1.7-1C14,33.1,13.6,31.6,13.5,30.1z"/>
	<path class="st5" d="M18.8,38.6l-1,1.6c1.6,0.8,3.4,1.4,5.3,1.4v-1.9C21.6,39.7,20.1,39.3,18.8,38.6z"/>
	<path class="st6" d="M14.7,25.1l-1.6-1c-0.8,1.6-1.4,3.4-1.4,5.2h1.9C13.6,27.9,14,26.5,14.7,25.1z"/>
	<path class="st6" d="M18.2,21.4l-1-1.7c-1.6,1-2.9,2.2-3.8,3.8l1.6,1C15.9,23.2,16.9,22.2,18.2,21.4z"/>
	<path class="st6" d="M23.1,19.9V18c-1.8,0.1-3.6,0.5-5.2,1.5l1,1.6C20.1,20.4,21.6,19.9,23.1,19.9z"/>
	<path class="st1" d="M20.7,8h5.4c0.5,0,1.1,0.4,1.1,1.1v0.7c0,0.5-0.4,1.1-1.1,1.1h-5.4c-0.5,0-1.1-0.4-1.1-1.1V9
		C19.7,8.4,20.2,8,20.7,8z"/>
	<path class="st1" d="M23.5,27.4c-1.7,0-3.1-1.4-3.1-3.1c0-1.7,1.4-3.1,3.1-3.1c1.7,0,3.1,1.4,3.1,3.1l0,0
		C26.6,26,25.2,27.4,23.5,27.4z M23.5,21.7c-1.4,0-2.5,1.2-2.5,2.5c0,1.4,1.2,2.5,2.5,2.5s2.5-1.2,2.5-2.5
		C26,22.9,24.9,21.7,23.5,21.7L23.5,21.7L23.5,21.7z"/>
	<polygon class="st0" points="23.5,22.2 23.6,24.8 23.3,24.8 	"/>
	<path class="st0" d="M23.5,30.7c0.3,0,0.6-0.2,0.7-0.5l8.7-0.6h-8.7c-0.1-0.3-0.4-0.4-0.7-0.4s-0.5,0.2-0.7,0.4h-1.6v1l1.6-0.1
		C22.9,30.6,23.2,30.7,23.5,30.7z M23.3,30.2C23.1,30.1,23,30,23,29.8s0.1-0.3,0.2-0.4c0.1,0,0.1,0,0.2-0.1c0.1,0,0.1,0,0.2,0.1
		c0.1,0.1,0.2,0.2,0.2,0.3s-0.1,0.3-0.2,0.4c-0.1,0-0.1,0.1-0.2,0.1C23.4,30.2,23.4,30.2,23.3,30.2z"/>
</g>
</svg>
