<?xml version="1.0" encoding="utf-8"?>
<!-- Generator: Adobe Illustrator 23.1.0, SVG Export Plug-In . SVG Version: 6.00 Build 0)  -->
<svg version="1.1" id="Layer_1" xmlns="http://www.w3.org/2000/svg" xmlns:xlink="http://www.w3.org/1999/xlink" x="0px" y="0px"
	 viewBox="0 0 47 47" style="enable-background:new 0 0 47 47;" xml:space="preserve">
<style type="text/css">
	.st0{fill:#3F3F3F;}
	.st1{opacity:0.3;fill:#919191;enable-background:new    ;}
	.st2{fill:#353535;}
	.st3{fill:#757575;}
	.st4{fill:#E5E5E5;}
	.st5{fill:#F9F9F9;}
	.st6{fill:url(#SVGID_1_);}
	.st7{fill:#733D1D;}
	.st8{fill:#FF4200;}
</style>
<title>Skateboarding</title>
<g>
	<g id="icons">
		<g id="Skateboarding">
			<path class="st0" d="M38.5,26.6c0,1-0.8,1.8-1.8,1.8c-1,0-1.8-0.8-1.8-1.8c0-1,0.8-1.8,1.8-1.8l0,0
				C37.7,24.8,38.5,25.6,38.5,26.6z"/>
			<path class="st1" d="M36.7,25.1c1,0,1.7,0.8,1.7,1.6c0,0,0,0,0-0.1c0.1-1-0.6-1.8-1.6-1.8S35,25.4,35,26.4c0,0.1,0,0.2,0,0.3v0.1
				C35,25.7,35.8,25.1,36.7,25.1z"/>
			<path class="st0" d="M36.7,27.5c-0.4,0-0.9-0.4-0.9-0.9l0,0c0-0.4,0.3-0.9,0.9-0.9l0,0c0.4,0,0.9,0.4,0.9,0.9
				C37.6,27.1,37.2,27.5,36.7,27.5L36.7,27.5z"/>
			<path class="st2" d="M36.7,27c-0.2,0-0.4-0.2-0.4-0.4s0.2-0.4,0.4-0.4c0.2,0,0.4,0.2,0.4,0.4C37.2,26.9,36.9,27,36.7,27z"/>
			<rect x="37.8" y="24.1" transform="matrix(0.71 -0.7042 0.7042 0.71 -5.5745 35.1186)" class="st3" width="4.1" height="0.4"/>
			<path class="st4" d="M35.2,24.2c0.3,1,1.1,1.7,2,1.9c1.5,0.3,1.5-2.5,1.5-2.5L35.2,24.2z"/>
			<path class="st0" d="M40.2,27.2c0,1.2-1,2.1-2.1,2.1c-1.2,0-2.1-1-2.1-2.1s1-2.1,2.1-2.1C39.2,25.1,40.2,26.1,40.2,27.2z"/>
			<path class="st1" d="M38,25.5c1.1,0,2,0.9,2,1.9v-0.1c0.1-1.2-0.8-2.1-1.9-2.3C36.9,25,36,25.9,35.9,27c0,0.1,0,0.2,0,0.3v0.1
				C36,26.3,36.8,25.4,38,25.5z"/>
			<path class="st5" d="M38.1,28.4c-0.6,0-1.1-0.5-1.1-1.1c0-0.6,0.5-1.1,1.1-1.1c0.6,0,1.1,0.5,1.1,1.1l0,0
				C39.2,28,38.7,28.4,38.1,28.4z"/>
			<path class="st0" d="M38.1,27.9c-0.3,0-0.5-0.2-0.5-0.5s0.2-0.5,0.5-0.5s0.5,0.2,0.5,0.5S38.4,27.9,38.1,27.9L38.1,27.9z"/>
			<path class="st0" d="M7.9,26.5c0,1,0.8,1.8,1.8,1.8c1,0,1.8-0.8,1.8-1.8c0-1-0.8-1.8-1.8-1.8l0,0C8.7,24.7,7.9,25.5,7.9,26.5z"/>
			<path class="st1" d="M9.7,25.1c-1,0-1.7,0.8-1.7,1.6v-0.1c-0.1-1,0.6-1.8,1.6-1.8s1.8,0.6,1.8,1.6c0,0.1,0,0.2,0,0.3v0.1
				C11.3,25.7,10.6,25.1,9.7,25.1z"/>
			<path class="st5" d="M9.7,27.4c0.4,0,0.9-0.3,0.9-0.9l0,0c0-0.4-0.4-0.9-0.9-0.9c-0.4,0-0.9,0.4-0.9,0.9l0,0
				C8.8,27,9.2,27.4,9.7,27.4L9.7,27.4z"/>
			
				<linearGradient id="SVGID_1_" gradientUnits="userSpaceOnUse" x1="1132.4652" y1="-428.4323" x2="1133.248" y2="-427.9283" gradientTransform="matrix(-3.560167e-03 1 1 3.560167e-03 441.9223 -1104.8201)">
				<stop  offset="0" style="stop-color:#0A0B0D"/>
				<stop  offset="0.41" style="stop-color:#515254"/>
				<stop  offset="0.61" style="stop-color:#515254"/>
				<stop  offset="0.79" style="stop-color:#323335"/>
				<stop  offset="1" style="stop-color:#0A0B0D"/>
			</linearGradient>
			<path class="st6" d="M9.7,26.9c0.2,0,0.4-0.2,0.4-0.4c0-0.2-0.1-0.4-0.3-0.5c-0.2,0-0.4,0.1-0.5,0.3v0.1
				C9.3,26.8,9.4,26.9,9.7,26.9z"/>
			<rect x="6.3" y="22.1" transform="matrix(0.7094 -0.7048 0.7048 0.7094 -15.13 11.641)" class="st3" width="0.4" height="4.1"/>
			<path class="st4" d="M11.2,24.1c-0.3,1-1.1,1.6-2,1.9c-1.5,0.3-1.5-2.5-1.5-2.5L11.2,24.1z"/>
			<path class="st0" d="M6.3,26.9c0,1.2,1,2.1,2.1,2.1s2.1-1,2.1-2.1c0-1.2-1-2.1-2.1-2.1S6.3,25.7,6.3,26.9L6.3,26.9z"/>
			<path class="st1" d="M8.4,25c-1.1,0-2,0.9-2,1.9v-0.1c0-1.2,1-2,2-2c1.2,0,2,1,2,2l0,0v0.1C10.4,25.9,9.5,25,8.4,25z"/>
			<path class="st5" d="M8.4,27.9c0.6,0,1.1-0.4,1.1-1.1c0-0.6-0.4-1.1-1.1-1.1c-0.6,0-1.1,0.4-1.1,1.1l0,0
				C7.3,27.5,7.8,27.9,8.4,27.9z"/>
			<path class="st0" d="M8.4,27.5c0.3,0,0.5-0.2,0.5-0.5s-0.2-0.5-0.5-0.5c-0.3,0-0.5,0.2-0.5,0.5l0,0C7.9,27.1,8.1,27.4,8.4,27.5z"
				/>
			<path class="st7" d="M23.2,24.1H11.5c-7.7,0-9.8-3.2-10.4-4.7c-0.6-1.5,0.5-1.2,3.9-0.2c2.5,0.8,4.9,1.1,7.5,1.1l22.1,0.1
				c2.6,0.1,5-0.2,7.5-1c3.2-1,4.4-1.3,3.9,0.2c-0.6,1.5-2.8,4.6-10.5,4.6L23.2,24.1z"/>
			<path class="st8" d="M23.2,23.8H11.5c-7.7,0-9.9-3-10.4-4.3s0.5-1.1,3.9-0.2c2.5,0.6,4.9,1,7.5,1l22.1,0.1c2.6,0.1,5-0.2,7.5-0.9
				c3.2-0.9,4.4-1.2,3.9,0.2c-0.5,1.4-2.8,4.3-10.5,4.3L23.2,23.8z"/>
		</g>
	</g>
</g>
</svg>
