<?xml version="1.0" encoding="utf-8"?>
<!-- Generator: Adobe Illustrator 23.1.0, SVG Export Plug-In . SVG Version: 6.00 Build 0)  -->
<svg version="1.1" id="icons" xmlns="http://www.w3.org/2000/svg" xmlns:xlink="http://www.w3.org/1999/xlink" x="0px" y="0px"
	 viewBox="0 0 47 47" style="enable-background:new 0 0 47 47;" xml:space="preserve">
<style type="text/css">
	.st0{fill:#334A61;}
</style>
<title>SkiingCrossCountry</title>
<g id="Ski-Cross_Country">
	<path class="st0" d="M33.8,10.4c1.8,0,3.3-1.4,3.3-3.3c0-1.8-1.4-3.3-3.3-3.3c-1.8,0-3.3,1.4-3.3,3.3l0,0
		C30.6,8.9,32,10.4,33.8,10.4z"/>
	<path class="st0" d="M33.8,7.1"/>
	<path class="st0" d="M44.8,34.4C44.5,34,44,33.8,43.5,34c-1.1,0.9-2.5,1.3-3.9,1.3h-1.3l3.2-14.9l0.8,0.1l0.3-2.1L41.2,18L29.4,9.8
		c-0.8-0.5-1.8-0.5-2.5,0.1l-9,5.1l-4.1,5.9l0.4,0.2L6.1,34.7L5,34.1l-0.5,0.8l1.1,0.6l-0.7,1.1l0.9,0.5l0.7-1l1.1,0.7L8.1,36
		L7,35.3l8.2-13.6l0.3,0.2l4.8-5.2l4.1-1.9c-1.9,3.1-3.3,6.4-4.2,9.9l-2.8,10.4h-1.8l-0.7,1.6H17l-0.6,2.4H2.9l-0.7,1.6h26.5
		c3.7-0.1,3.4-2.4,3.4-2.4c-0.2-0.4-0.7-0.6-1.2-0.4c-1.1,0.9-2.5,1.3-3.8,1.2h-8.3l1-2.4H37l-0.9,4.1l-1.2-0.3l-0.2,0.9l1.3,0.3
		l-0.2,1l1,0.2l0.2-1l1.2,0.3l0.2-0.9L37.2,41l0.9-4.4h3.3C45,36.7,44.8,34.4,44.8,34.4z M20.5,35.2l4.3-9.8l5.3,2.2l0.5,7.6H20.5z
		 M37.3,35.2h-4.5l0.9-9l-6.6-4.8C27,21.3,27,21.1,27.3,21c0,0,0,0,0.1,0l5.3-4.8l8.2,4L37.3,35.2z"/>
</g>
</svg>
