<?xml version="1.0" encoding="utf-8"?>
<!-- Generator: Adobe Illustrator 23.1.0, SVG Export Plug-In . SVG Version: 6.00 Build 0)  -->
<svg version="1.1" id="icons" xmlns="http://www.w3.org/2000/svg" xmlns:xlink="http://www.w3.org/1999/xlink" x="0px" y="0px"
	 viewBox="0 0 47 47" style="enable-background:new 0 0 47 47;" xml:space="preserve">
<style type="text/css">
	.st0{fill:#334A61;}
</style>
<title>SkiingDownhill</title>
<g id="Skiing_Downhill">
	<path class="st0" d="M30,11.6c0.1,0,0.3,0,0.4,0l2.7,0.7l0,0c0.3,0.1,0.6,0.3,0.8,0.6c0.2,0.1,0.4,0.3,0.5,0.5l0,0
		c0-1.7-1.3-3.1-3-3.2c-1.4,0-2.6,0.8-3,2.1c0.2-0.1,0.4-0.2,0.6-0.3C29.3,11.8,29.6,11.7,30,11.6z"/>
	<path class="st0" d="M20.4,32.4c-0.7,0.6-0.9,1.7-0.2,2.4c0.3,0.4,0.8,0.6,1.3,0.6c0.4,0,0.8-0.1,1.1-0.4l6.1-5
		c-1.3-0.2-2.6-0.6-3.7-1.3L20.4,32.4z"/>
	<path class="st0" d="M20.2,27.1c-0.4-0.5-0.8-0.9-1-1.1l-5.9,2.8c-0.9,0.4-1.2,1.4-0.8,2.3c0.3,0.6,0.9,1,1.6,1
		c0.3,0,0.5-0.1,0.7-0.2l6.8-3.1c0.1-0.1,0.2-0.1,0.3-0.2C21.2,28.1,20.7,27.7,20.2,27.1z"/>
	<path class="st0" d="M30.7,16.7c1.7,0.3,3.3-0.9,3.6-2.6l0,0c0-0.2,0-0.4-0.2-0.6c0,0.1,0,0.2,0,0.2c0,0.1,0,0.2,0,0.4
		c-0.2,0.8-1,1.2-1.7,1c-0.6-0.2-1-0.7-1-1.3v-0.1c-0.2,0.5-0.7,0.9-1.3,0.9c-0.1,0-0.2,0-0.4,0c-0.6-0.2-1.1-0.7-1.1-1.4
		c0-0.1,0-0.2,0-0.4c0-0.1,0-0.1,0.1-0.2c-0.3,0.1-0.5,0.3-0.6,0.6C28,14.9,29.1,16.4,30.7,16.7z"/>
	<path class="st0" d="M30,11.9c-0.5,0-1,0.4-1.1,0.9c0,0.1,0,0.2,0,0.3c0,0.5,0.3,1,0.9,1.1h0.3c0.5,0,1-0.3,1.1-0.9l0.1-0.1l0,0
		h0.1c0.1,0,0.1,0,0.1,0.1v0.1l0,0l0,0c0,0.1,0,0.2,0,0.3c0,0.5,0.4,1,0.9,1.1c0.1,0,0.2,0,0.3,0c0.5,0,1-0.4,1.1-0.9
		c0-0.1,0-0.2,0-0.3c0-0.5-0.4-0.8-0.8-1l0,0l-2.7-0.7C30.2,11.9,30.1,11.9,30,11.9z"/>
	<path class="st0" d="M15.2,32.5l-1.5,0.3l-5.7-5.9c-0.2-0.1-0.4-0.1-0.5,0.1c-0.1,0.1-0.1,0.3,0,0.4l5.8,6c0,0.1,0.1,0.1,0.2,0.1
		h0.1l1.7-0.3c0.2,0,0.3-0.2,0.3-0.4l0,0C15.5,32.6,15.3,32.5,15.2,32.5L15.2,32.5z"/>
	<path class="st0" d="M23.1,35.8l-2,0.4l-4.7-4.6c-0.2-0.1-0.4-0.1-0.5,0.1c-0.1,0.1-0.1,0.3,0,0.4l4.8,4.7c0.1,0.1,0.1,0.1,0.2,0.1
		H21l2.1-0.4c0.2,0,0.3-0.2,0.3-0.4l0,0C23.5,35.9,23.3,35.8,23.1,35.8L23.1,35.8z"/>
	<path class="st0" d="M45.2,33l-0.9,0.9l-11-10.7l2.5-1.9c0.5-0.4,0.6-1.1,0.2-1.6l0,0l-2.6-3.3c-1.5,1.1-3.6,0.8-4.7-0.7
		C28,15,27.8,14,28,13.1c0-0.1,0-0.1,0.1-0.2l-5.2-0.9c-0.5-0.1-0.9,0.1-1.2,0.6l-2,3.8c-0.2,0.1-0.3,0.2-0.3,0.3L2.7,17.3v-1.2H2.2
		v1.3H1.3v0.7h0.9v1.3h0.5v-1.3l16.8-0.5c0.1,0.2,0.3,0.4,0.5,0.5c0.2,0.1,0.3,0.1,0.5,0.1c0.4,0,0.8-0.2,1-0.6v-0.1h1v-0.7h-0.6
		l1.2-2.3l2.4,0.4L21,21.3l0,0c-0.1,0.1-0.2,0.3-0.2,0.5l-1.2,3.6l0,0c0,0,0.1,0.2,0.3,0.4s0.5,0.6,0.8,0.9c0.5,0.5,1,1,1.5,1.4
		c0-0.1,0-0.2,0.1-0.3l1.1-3.4l0.6,0.4l1.4,3.5l0,0c0.3,0.2,0.5,0.3,0.8,0.4c0.9,0.5,1.9,0.7,2.9,0.8c0.2-0.4,0.2-0.9,0-1.3
		l-1.3-3.7l4.3-6.1l1.4,1.7l-1.8,1.4l-0.4-0.3l-0.5,0.5l0.3,0.3c-0.4,0.5-0.3,1.2,0.2,1.5c0.2,0.1,0.4,0.2,0.7,0.2
		c0.2,0,0.5-0.1,0.7-0.2l0,0l11,10.8l-0.9,0.9l0.3,0.4l0.9-0.9l0.6,0.6l0.5-0.5l-0.5-0.6l0.9-0.9L45.2,33z"/>
</g>
</svg>
