<?xml version="1.0" encoding="utf-8"?>
<!-- Generator: Adobe Illustrator 23.1.0, SVG Export Plug-In . SVG Version: 6.00 Build 0)  -->
<svg version="1.1" id="icons" xmlns="http://www.w3.org/2000/svg" xmlns:xlink="http://www.w3.org/1999/xlink" x="0px" y="0px"
	 viewBox="0 0 47 47" style="enable-background:new 0 0 47 47;" xml:space="preserve">
<style type="text/css">
	.st0{fill:#DC6C33;}
	.st1{fill:#F4CD1E;}
	.st2{fill:#F6DB6D;}
	.st3{fill:#668892;}
	.st4{fill:#586270;}
	.st5{fill:#F6AB27;}
	.st6{fill:#394F63;}
</style>
<title>skijumping</title>
<g>
	<path class="st0" d="M15.9,24.2l4.1,2l-6.4,11.4c-0.6,1.1-2,1.5-3.1,0.9S9,36.6,9.6,35.6l0,0L15.9,24.2z"/>
	<path class="st1" d="M29.6,13l-0.1-0.2c-0.6-0.7-1.3-1.3-2.2-1.7l-1.8-0.9c-0.7-0.3-1.4-0.5-2.2-0.6c-1.1-0.1-2.1,0.5-2.5,1.4
		l-5,13.2l4.1,2l9.6-10.6C30.3,14.9,30.3,13.8,29.6,13z"/>
	<path class="st2" d="M33.8,6.4c0,2.4-2.1,4.3-4.6,4.3s-4.6-1.9-4.6-4.3s2.1-4.3,4.6-4.3C31.8,2.1,33.8,4,33.8,6.4L33.8,6.4z"/>
	<path class="st3" d="M9.6,35.7c-0.6,1.1-0.2,2.4,1,2.9s2.5,0.2,3.1-0.9l0,0l0.8-1.4l-4-2.2L9.6,35.7z"/>
	<path class="st4" d="M33.8,6.4c0-1.7-1.1-3.3-2.8-4l-2.1,2.5c-0.6,0.8-0.5,1.9,0.3,2.5c0,0,0.1,0,0.1,0.1l3.1,2
		C33.3,8.7,33.8,7.6,33.8,6.4z"/>
	<path class="st5" d="M20.8,23c-1.7,0-3.1-1.3-3.1-2.9c0-0.5,0.1-0.9,0.3-1.3l3.8-6.9c0.2-0.4,0.7-0.5,1-0.3
		c0.1,0.1,0.2,0.1,0.3,0.3c0.1,0.2,0.1,0.5,0,0.7l-3.8,6.9c-0.4,0.7-0.1,1.6,0.6,1.9s1.7,0.1,2.1-0.6l4.1-7.3
		c0.1-0.2,0.4-0.4,0.7-0.4c0.3,0,0.5,0.1,0.7,0.3c0.1,0.2,0.1,0.5,0,0.7l-4,7.3C23,22.4,21.9,22.9,20.8,23z"/>
	<path class="st6" d="M3.2,44.6c-0.4,0-0.8-0.3-0.8-0.7c0-0.3,0.2-0.5,0.4-0.7l39.1-20.1c1.3-0.7,1.8-2.2,1.2-3.5
		c-0.2-0.4,0-0.8,0.3-1c0.4-0.2,0.8,0,1,0.3c1,2,0.2,4.3-1.8,5.4L3.5,44.5C3.4,44.6,3.3,44.6,3.2,44.6z"/>
</g>
</svg>
