<?xml version="1.0" encoding="utf-8"?>
<!-- Generator: Adobe Illustrator 23.1.0, SVG Export Plug-In . SVG Version: 6.00 Build 0)  -->
<svg version="1.1" id="icons" xmlns="http://www.w3.org/2000/svg" xmlns:xlink="http://www.w3.org/1999/xlink" x="0px" y="0px"
	 viewBox="0 0 47 47" style="enable-background:new 0 0 47 47;" xml:space="preserve">
<style type="text/css">
	.st0{fill:#1B1464;}
	.st1{fill:#FF9739;}
	.st2{fill:#FB8603;}
	.st3{fill:#F98A8A;}
	.st4{fill:#F52C84;}
	.st5{fill:#F9B406;}
	.st6{fill:#73201D;}
	.st7{fill:#757AD8;}
	.st8{fill:#603E6B;}
	.st9{fill:#B9BCFC;}
	.st10{fill:#ED1E79;}
	.st11{fill:#FFAA64;}
</style>
<title>SkiMachine</title>
<path class="st0" d="M26.2,41c-0.2,0.8-0.3,1.6-0.4,2.6h4.9c-0.5-0.7-1.3-1.2-2.2-1.5l-0.5-1H26.2z"/>
<path class="st0" d="M5.4,36.3c0.4,0.2,0.8,0.5,0.9,0.9c0.1,0.4,0.1,0.8,0,1.1l-4.8-2c0.7-0.7,1.4-1.4,2.3-2.1
	c0.5-0.2,1-0.3,1.6-0.3l1,1.2L5.4,36.3z"/>
<path class="st1" d="M22.9,15.7c0,0,2.9,2.6,3.8,2.5c1-0.1,4.7-3.6,4.7-4s-1.1-2.1-1.7-2.1c-1,0.3-2,0.8-2.8,1.4L23.2,11L22.9,15.7z
	"/>
<path class="st2" d="M20,28.9c0,0-3.3,3.2-3.4,3.2c-0.1,0-9.6,3.7-10.4,4.4s-2.7-1.5-2.7-2.4c0-0.8,6.1-3.9,7-3.9s2.6-1.6,3.5-3
	c0.6-0.9,1-2.1,1.2-3.2L20,28.9z"/>
<path class="st1" d="M14.9,24c0.3,0.9,0.6,2,1.1,2.8c0.9,1.8,8.9,6.3,8.9,6.3s0.9,5.7,0.9,6.9c0,1.1,0.8,1.1,0.8,1.1H29
	c0,0,0.7-7.7,0.4-8.8c-0.3-1.1-8-9.2-8-9.2L14.9,24z"/>
<path class="st3" d="M22.9,3.9c0.1,0.3,0.2,0.7,0.2,1c-0.1,0.4,0.5,0.8,0.5,0.8c-0.1,0.1-0.2,0.3-0.3,0.3c0.1,0.5,0,1-0.3,1.3
	c-0.8,0.8-2.2,0.9-3.2,0.4c-1.1-0.6-2.7-1.5-2-3.6C18.6,2.4,22.5,2.3,22.9,3.9z"/>
<path class="st4" d="M18.3,7c0,0,3.6-2.8,4.7-2.8l0,0c0.3-0.8-0.1-1.6-0.8-2.1c-0.4-0.1-0.8-0.1-1.1,0c-1.5,0.6-4,1.7-3.8,2.9
	C17.5,6.7,18.3,7,18.3,7z"/>
<path class="st5" d="M20.9,9.2c0,0,1.8,0.6,2.4,1.7c0.5,1.1,0.1,13.3,0.1,13.3s-7.7,1-8.8,1c0,0-0.1-11.3,0.3-13S18.9,7.7,20.9,9.2z
	"/>
<path class="st6" d="M41.2,43.4H11.3v-0.5h29.9c1.5,0.1,3-0.4,4.1-1.4l0,0C44.3,42.7,42.8,43.4,41.2,43.4z"/>
<path class="st0" d="M30,12.5c0,0,0.3-2.2,0.4-2.6c0.1-0.4,2.2,0.7,2.4,1.3c0.2,0.6-1.8,2.7-1.8,2.7L30,12.5z"/>
<polygon class="st0" points="45.3,30.8 28.1,7.9 28.4,7.7 45.6,30.5 45.8,31.1 "/>
<polygon class="st7" points="44.1,30.3 43.9,30.2 45.5,28.9 45.6,29 "/>
<path class="st8" d="M30.7,11.7L27.7,8l0.7-0.7l0,0l2.8,3.8L30.7,11.7z"/>
<path class="st9" d="M30.1,11.8c0.4-0.1,0.8-0.3,1.2-0.5c0.4-0.4-0.6-0.5-0.8-0.5C30.2,10.8,29.9,11.2,30.1,11.8z"/>
<path class="st7" d="M30.4,9.8c0,0,0.1,2.3,0.4,2.1c0.3-0.2,0.5-1.1,0.5-1.1s-0.5,1.2-0.2,1.4c0.3,0.1,0.6-1,0.6-1s-0.5,1.2-0.2,1.3
	c0.3,0.1,0.7-0.8,0.7-0.8s-0.3,0.6-0.1,0.7c0.2,0.1,0.7-0.6,0.7-0.9c0-0.3,0.1-0.7-0.4-0.9s-0.7-0.4-1-0.5
	C31.2,9.9,30.5,9.5,30.4,9.8z"/>
<path class="st0" d="M11.2,21.4c-0.1,1.1,0,2.3,0.1,3.4c0.3,0.2,0.8,0.1,1-0.2c0,0,0,0,0-0.1c0.3,0,0.7-0.1,0.9-0.3
	c0,0,0.6,0.1,0.9-0.2c0.3-0.3-1.5-3.3-1.5-3.3L11.2,21.4z"/>
<path class="st10" d="M17.9,6.7c0.1,0.5,0,1-0.1,1.4c-0.2,0.4,2.5,3.7,4.5,3.4c2.1-0.3,0.1-1.7,0-2.6c-0.1-0.8,0.6-0.8,0.9-1.1
	c0.2-0.3,0.3-0.6,0.3-1C21.8,7.3,19.8,7.2,17.9,6.7z"/>
<path class="st1" d="M9.4,14.4c0,0,5.5-3.7,7.1-3.7s3.1-0.1,3.5,1.1c0.5,1.2-1.4,2.6-3.9,3.4c-2.5,0.8-3.7,0.2-3.7,2
	s0.7,2.9,0.6,3.4c-0.5,0.8-1.4,1.2-2.5,1.1C9.9,21.7,8.3,15.5,9.4,14.4z"/>
<path class="st11" d="M9.2,14.2c0,0.1-0.5,0.5-0.4,2.1c0.1,1.6,0.9,5.1,1.8,5.5c-0.7-0.4-2-6.3-1-7.3c1.6-1,5.4-3.6,6.9-3.9
	C14.7,10.7,10.6,13.4,9.2,14.2z"/>
</svg>
