<?xml version="1.0" encoding="utf-8"?>
<!-- Generator: Adobe Illustrator 23.1.0, SVG Export Plug-In . SVG Version: 6.00 Build 0)  -->
<svg version="1.1" id="icons" xmlns="http://www.w3.org/2000/svg" xmlns:xlink="http://www.w3.org/1999/xlink" x="0px" y="0px"
	 viewBox="0 0 47 47" style="enable-background:new 0 0 47 47;" xml:space="preserve">
<style type="text/css">
	.st0{fill:#303030;}
	.st1{fill-rule:evenodd;clip-rule:evenodd;fill:#303030;}
	.st2{fill:#0096DB;}
	.st3{fill:#7AC8F1;}
	.st4{fill:none;stroke:#303030;stroke-width:3;stroke-linecap:round;stroke-linejoin:round;}
	.st5{fill-rule:evenodd;clip-rule:evenodd;fill:#999999;}
	.st6{fill-rule:evenodd;clip-rule:evenodd;fill:#4C4C4C;}
	.st7{fill:#FF5D0B;}
</style>
<title>Skindiving</title>
<path class="st0" d="M17.5,22c1.8-0.5,9.9-0.5,11.7,0c2.4,0.7,5.5,2.3,5.3,5.7H12.2C12.1,23.9,15,22.7,17.5,22z"/>
<path class="st1" d="M27,34.6l-4-6c0,0-3.7,5.9-3.8,6c2-0.9,2.4,0.2,3.9,0.2S24.9,33.7,27,34.6z"/>
<path class="st2" d="M10.2,26.5c1.4-1.6,3.7-2.3,6.1-2.7c4.5-0.4,9.1-0.4,13.6,0c2.3,0.2,4.4,1.1,6.1,2.7c0.6,0.8,1,1.8,1,2.9
	c0,0.9-0.1,1.9-0.4,2.8c-0.3,1-0.9,1.8-1.6,2.5c-0.9,0.8-2.2,1.3-3.4,1.4c-3.5,0.2-6.1-2.4-7.7-5.1c-0.5-0.8-1.1-0.7-1.5-0.1
	c-1.7,2.7-4.3,5.4-7.8,5.2c-1.3,0-2.5-0.5-3.4-1.4c-0.7-0.7-1.3-1.6-1.6-2.5c-0.3-0.9-0.4-1.8-0.4-2.8C9.2,28.4,9.6,27.4,10.2,26.5z
	"/>
<path class="st3" d="M16.6,25.4c-2.2,0.3-4.2,1-5.4,2.2c-0.4,0.5-0.6,1.2-0.6,1.9c0,0.8,0.1,1.5,0.3,2.2s0.6,1.4,1.2,1.9
	c0.7,0.6,1.5,0.9,2.4,1c3.4,0.2,6-3.1,7.2-6l0,0c0.3-0.7,0.5-1.4,0.7-2.1c0.1-0.8,0-1.3-1-1.3C19.9,25.2,18.3,25.2,16.6,25.4z"/>
<path class="st3" d="M35,27.7c-1.2-1.3-3.2-1.9-5.4-2.2c-1.7-0.2-3.5-0.3-5.2-0.2c-0.8,0-0.8,0.7-0.7,1.3c0.2,0.7,0.4,1.4,0.7,2.1
	l0,0c1.2,2.9,3.8,6.2,7.2,6c0.9,0,1.7-0.4,2.4-1c0.6-0.5,1-1.2,1.2-2c0.2-0.7,0.3-1.4,0.3-2.2C35.6,28.9,35.5,28.2,35,27.7z"/>
<path class="st2" d="M34.8,5v31.9c0.2,2.9-1.4,5.7-4,7c-0.9,0.4-1.8,0.7-2.7,0.7c-0.9,0-1.9-0.2-2.7-0.5c-2.4-1.2-3.9-3.7-3.8-6.4h2
	c-0.1,1.8,0.9,3.6,2.6,4.4c0.6,0.3,1.2,0.4,1.9,0.4c0.6,0,1.3-0.2,1.9-0.5c1.9-1,3-3,2.8-5.2V5H34.8z"/>
<path class="st4" d="M34.8,23.5h-1.5c-0.4,0-0.8-0.4-0.8-0.8l0,0c0-0.4,0.4-0.8,0.8-0.8h1.5"/>
<path class="st0" d="M35.1,36.9c0.2,3.1-1.5,5.9-4.2,7.3C30,44.6,29,44.9,28,44.9s-2-0.2-2.9-0.6c-2.5-1.2-4.1-3.8-3.9-6.7h2.7
	c-0.1,1.7,0.8,3.4,2.3,4.2c0.5,0.2,1.1,0.4,1.7,0.3c0.6,0,1.2-0.1,1.7-0.4c1.8-1,2.8-2.9,2.6-4.9h2.9V36.9z"/>
<path class="st5" d="M19,35.8l0.9-0.1l0.8,0.4l0.3,1.1c-0.9,0.2-1.8-0.4-2-1.2C19,35.9,19,35.8,19,35.8z"/>
<path class="st5" d="M26.1,35.8l-0.9-0.1l-0.8,0.4l-0.3,1.1c0.9,0.2,1.8-0.4,2-1.2C26.1,35.9,26.1,35.8,26.1,35.8z"/>
<path class="st1" d="M22,40.9c-1.1-2.2-2.9-3.4-3.5-5c-0.2-0.6,0.3-0.8,0.7-0.1c0.9,1.4,5.5,1.6,6.6,0c0.4-0.6,0.8-0.4,0.5,0.2
	c-0.5,1.2-2.2,2.5-2.2,3.5L22,40.9z"/>
<polygon class="st1" points="32.4,36.9 35.1,36.9 35.6,36.2 31.9,36.2 "/>
<polygon class="st6" points="32.4,35.6 35.1,35.6 35.6,36.2 31.9,36.2 "/>
<polygon class="st1" points="32.4,35.6 35.1,35.6 35.6,35 31.9,35 "/>
<polygon class="st6" points="32.4,34.3 35.1,34.3 35.6,35 31.9,35 "/>
<polygon class="st1" points="32.4,34.3 35.1,34.3 35.6,33.7 31.9,33.7 "/>
<polygon class="st6" points="32.4,33 35.1,33 35.6,33.7 31.9,33.7 "/>
<polygon class="st1" points="32.4,33 35.1,33 35.6,32.4 31.9,32.4 "/>
<polygon class="st6" points="32.4,31.8 35.1,31.8 35.6,32.4 31.9,32.4 "/>
<polygon class="st1" points="32.4,31.8 35.1,31.8 35.6,31.1 31.9,31.1 "/>
<polygon class="st6" points="32.4,30.5 35.1,30.5 35.6,31.1 31.9,31.1 "/>
<polygon class="st1" points="32.4,30.5 35.1,30.5 35.6,29.9 31.9,29.9 "/>
<polygon class="st6" points="32.4,29.2 35.1,29.2 35.6,29.9 31.9,29.9 "/>
<rect x="32.8" y="2.1" class="st7" width="2" height="2.8"/>
</svg>
