<?xml version="1.0" encoding="utf-8"?>
<!-- Generator: Adobe Illustrator 23.1.0, SVG Export Plug-In . SVG Version: 6.00 Build 0)  -->
<svg version="1.1" id="icons" xmlns="http://www.w3.org/2000/svg" xmlns:xlink="http://www.w3.org/1999/xlink" x="0px" y="0px"
	 viewBox="0 0 47 47" style="enable-background:new 0 0 47 47;" xml:space="preserve">
<style type="text/css">
	.st0{fill:#FF9FAF;}
	.st1{fill:#040501;}
	.st2{fill:#FF102D;}
	.st3{fill:#FFD7E0;}
	.st4{fill:#E50027;}
	.st5{fill:#00A9BF;}
	.st6{fill:#FCAB8B;}
	.st7{fill:#EF9373;}
	.st8{fill:#11C3D1;}
	.st9{fill:#FFFFFF;}
	.st10{fill:#D3694C;}
</style>
<title>SkyDiving</title>
<g id="Paragliding">
	<polygon class="st0" points="16.9,33.2 16.8,33.2 17.9,24.1 18.1,24.1 	"/>
	<path class="st0" d="M17.9,24c-4.1-3.6-12-10.6-12.2-10.7l0.1-0.2c0.2,0.1,8.3,7.3,11.3,9.9L7.1,12l0.1-0.1L17.9,24L17.9,24z"/>
	<polygon class="st0" points="17.9,24 9.5,10.9 9.7,10.8 17.5,23.1 11.8,10 12,10 18.1,24 	"/>
	<polygon class="st0" points="17.9,24 15.2,9.4 15.3,9.3 17.9,23.2 17.9,9 18.1,9 18.1,24 	"/>
	<path class="st1" d="M17.9,24c0,0,0.1,0.4,0.3,1.1c0.5,1.9,1.6,5.2,2,6.1c0.2,0.6,0.5,1.2,0.9,1.7c0,0-0.7-2.2-1.4-4.3
		s-1.6-4.7-1.6-4.7L17.9,24z"/>
	<path class="st1" d="M21,33.1c-0.9-1.1-1.6-2.4-2.2-3.7c-0.6-1.7-0.9-3.6-0.9-5.4h0.2c0,1.9,0.3,3.6,0.9,5.3
		c0.5,1.3,1.2,2.5,2.2,3.6L21,33.1z"/>
	<polygon class="st0" points="28.5,33.4 28.6,33.4 27.8,24.3 27.7,24.3 	"/>
	<path class="st0" d="M27.9,24.2c4.1-3.7,12-10.7,12.2-10.8L40,13.3c-0.2,0.1-8.3,7.3-11.2,9.9l10-11.1l-0.2,0l-10.8,12L27.9,24.2z"
		/>
	<polygon class="st0" points="27.9,24.2 36.3,11.1 36.1,11 28.3,23.3 34.1,10.2 33.9,10.1 27.8,24.1 	"/>
	<polygon class="st0" points="27.9,24.2 30.7,9.6 30.6,9.5 27.9,23.3 27.9,9.2 27.8,9.2 27.8,24.2 	"/>
	<path class="st1" d="M27.9,24.2l-0.3,1.1c-0.5,1.9-1.6,5.2-2,6.1c-0.2,0.6-0.5,1.2-0.8,1.7c0,0,0.7-2.2,1.4-4.4s1.5-4.7,1.5-4.7
		L27.9,24.2z"/>
	<path class="st1" d="M24.8,33.2l-0.1-0.1c0.9-1.1,1.6-2.4,2.2-3.7c0.6-1.7,0.9-3.5,0.9-5.3H28c0,1.9-0.4,3.7-0.9,5.4
		C26.5,30.9,25.8,32.1,24.8,33.2z"/>
	<path class="st2" d="M18.5,3.3C9.4,3.9,5.8,11,4.7,13.8L4.9,14c1.1,0.8,1.6,0.3,2.6-0.3c0.7,0.1,1.4-0.3,1.7-1
		c0.7,0.2,1.5-0.1,1.9-0.8c0.7,0.2,1.4,0,1.9-0.6c0.7,0.1,1.4-0.1,2-0.6c0.8,0.2,1.6,0,2.2-0.6c0.8,0.3,1.7,0.2,2.4-0.4
		c0.7,0.5,1.7,0.4,2.5-0.1c0.6,0.5,1.5,0.4,2.2-0.1c0.4,0.7,2,0.8,2.6,0.3c0.6,0.5,1.5,0.6,2.4,0.3c0.6,0.6,1.6,0.8,2.5,0.5
		c0.6,0.7,1.5,1,2.5,0.7c0.2,0.7,1.3,0.9,2.1,0.7c0.3,0.8,1.3,1.2,2.2,0.9l0,0c0,0.6,0.5,1.1,1.1,1.1c0.2,0,0.3,0,0.5-0.1
		c1.2,0.9,1.9,0.4,2.5-0.3C37.1,2.6,29.8,2.5,18.5,3.3z"/>
	<path class="st3" d="M36.6,4.3c-6.1-3.3-16.1-4-22.7-1.5c-4.1,1.5-7.4,4.6-9.1,8.5c-0.6,1.2-0.4,2.1,0.1,2.6
		c2.7-5.8,8.3-9.7,14.6-10.3c9.3-0.9,18.6,0.4,22.7,10l0.2-0.2C42.9,12.6,42.6,7.5,36.6,4.3z"/>
	<path class="st2" d="M14,3c-1.9,0.7-3.6,1.7-5.1,3.1C6,8.4,4.6,12.6,4.6,12.6c1-2,2.5-3.7,4.1-5.2s3.5-2.7,5.4-3.5
		C14.2,3.5,14.1,3.3,14,3z"/>
	<path class="st2" d="M32.2,2.8c1.9,0.6,3.7,1.5,5.2,2.8c3,2.2,4.6,6.3,4.6,6.3c-1.1-2-2.7-3.6-4.4-5C36,5.4,34.1,4.4,32,3.6
		C32.1,3.3,32.1,3.1,32.2,2.8z"/>
	<path class="st2" d="M17.1,2.3V3c4-0.9,8.1-0.9,12.1,0.1V2.3c-2-0.5-4-0.7-6-0.7C21.2,1.6,19.2,1.9,17.1,2.3z"/>
	<path class="st4" d="M5.8,11.7c0.2,0.5,0.5,0.9,0.8,1.4c0.2,0.3,0.5,0.5,0.8,0.7l-1-1.7c-0.1-0.2-0.3-0.4-0.4-0.6L5.8,11.7z"/>
	<path class="st4" d="M7.1,10c0.3,0.6,0.7,1.2,1.1,1.7c0.3,0.4,0.6,0.7,1,0.9L8,10.8c-0.2-0.3-0.5-0.7-0.6-1.1L7.1,10z"/>
	<path class="st4" d="M8.8,8.2c0,0,0.8,1.6,1.2,2.4c0.4,0.7,1,1.4,1,1.4s-0.6-1.5-1.1-2.5S9.1,7.8,9.1,7.8L8.8,8.2z"/>
	<path class="st4" d="M10.9,6.5c0.2,0.8,0.4,1.7,0.8,2.5s0.8,1.5,1.3,2.2c0,0-0.7-1.9-1.1-3c-0.4-1.1-0.6-2-0.6-2L10.9,6.5z"/>
	<path class="st4" d="M12.9,5.4c0,0,0.6,2.1,1,3.1c0.4,1,1,2.2,1,2.2S14.6,9,14,7.4c-0.2-0.8-0.5-1.5-0.8-2.4L12.9,5.4z"/>
	<path class="st4" d="M41.2,11.8c-0.2,0.4-0.5,0.8-0.8,1.2c-0.2,0.3-0.5,0.5-0.8,0.7c0,0,0.6-0.7,0.8-1.1c0.2-0.4,0.6-1,0.6-1
		L41.2,11.8z"/>
	<path class="st4" d="M40.1,10.1c-0.3,0.6-0.7,1.2-1.1,1.7c-0.3,0.4-0.6,0.7-1,0.9l1.2-1.9c0.3-0.4,0.5-0.8,0.7-1.2L40.1,10.1z"/>
	<path class="st4" d="M38.3,8.1c0,0-0.8,1.7-1.3,2.5c-0.4,0.5-0.8,1-1.2,1.4c0,0,0.9-1.5,1.4-2.5C37.7,8.6,38,7.8,38,7.8L38.3,8.1z"
		/>
	<path class="st4" d="M35.9,6.2c-0.1,0.9-0.4,1.9-0.8,2.7c-0.4,0.8-0.8,1.5-1.3,2.3c0,0,0.7-2,1.2-3.1c0.3-0.7,0.5-1.3,0.7-2.1
		L35.9,6.2z"/>
	<path class="st4" d="M33.5,4.9c0,0-0.6,2.4-1,3.4c-0.4,1-1,2.3-1,2.3s0.4-1.6,0.9-3.2c0.5-1.5,0.8-2.6,0.8-2.6L33.5,4.9z"/>
	<path class="st4" d="M15.5,4.4c0,0,0.4,1.4,0.7,2.6c0.3,1.1,0.9,3.1,0.9,3.1C17,9,16.9,8,16.6,6.9C16.1,5,16,4.1,16,4.1L15.5,4.4z"
		/>
	<path class="st4" d="M18.5,3.5c0,0,0.4,2.3,0.5,3.3c0.1,1,0.5,2.7,0.5,2.7c0.1-0.8,0.1-1.7,0-2.6c-0.1-1.1-0.2-2.4-0.4-3.5
		L18.5,3.5z"/>
	<path class="st4" d="M30.6,3.9c0,0-0.4,1.7-0.7,3c-0.3,1.2-0.9,3.1-0.9,3.1C29,9,29.2,8,29.5,6.9c0.5-1.9,0.7-3.1,0.7-3.1L30.6,3.9
		z"/>
	<path class="st4" d="M27.6,3.4l-0.5,3.5c-0.2,1-0.5,2.9-0.5,2.9c-0.1-1-0.1-2,0-2.9c0.1-1.7,0.5-3.6,0.4-3.6L27.6,3.4z"/>
	<path class="st4" d="M21.5,3.3c0,0,0.1,2.4,0.2,3.6C21.9,8.2,22,9.5,22,9.5c0.1-1.2,0.1-2.6,0.1-3.8C22,4,22,3.3,22,3.3
		S21.5,3.3,21.5,3.3z"/>
	<path class="st4" d="M24,3.2c0,0,0,1.2,0,2.8c0,1.2,0.1,3.4,0.1,3.4s0.3-2.4,0.3-3.7s0.1-2.5,0.1-2.5H24z"/>
	<path class="st1" d="M28.4,33.2c0,0-0.4,0.4-0.4,0.6c0,0.1,0.1,0.3,0.1,0.4c0,0,0.4,0,0.5-0.2C28.6,33.8,28.5,33.5,28.4,33.2z"/>
	<path class="st1" d="M20.3,29.8c0,0,0,2.1-0.1,2.9c-0.2,0.6,0.1,1.3,0.7,1.6c1.2,0.4,2.5,0.4,3.7-0.2c0.7-0.5,0.5-1.4,0.5-2.6
		c0-0.6,0-1.1-0.1-1.7L20.3,29.8z"/>
	<path class="st5" d="M18.9,37.7c-0.1,0,0.1,0.3,0.8,0.7s0.9,0.3,1,0.1C20.8,38.3,20.1,37.2,18.9,37.7z"/>
	<path class="st5" d="M25.2,38.5c0,0.1-0.5,0.3-1,0.4c-0.7,0.2-1,0.1-1.1-0.1C23,38.6,25,37.8,25.2,38.5z"/>
	<path class="st6" d="M28.3,34.5c0.1,0,0.2,0,0.3,0c0,0-0.1,0.1,0,0.2c0.1,0.1,0.1,0.1,0.1,0c0-0.1,0,0.1,0.1,0
		c0-0.1,0.1-0.2,0.1-0.3s0-0.2-0.2-0.3c-0.4-0.2-0.8-0.6-0.9-1c-0.3-0.6-0.6-1.2-1-1.7l-0.7-0.9l-1.1,0.7l1,1c0.2,0.2,0.8,1,1.3,1.5
		s0.4,0.5,0.5,0.7C27.9,34.6,28.1,34.5,28.3,34.5z"/>
	<path class="st7" d="M22.7,28.2c0.2,0,0.5-0.1,0.6-0.2c0,0-0.1-0.1-0.1-0.2c0-0.3,0-0.8,0-0.8L22,26.9c0,0.2,0,0.5,0,0.8
		c0,0.1,0,0.1,0,0.2C22.2,28.1,22.4,28.2,22.7,28.2z"/>
	<path class="st6" d="M21.4,28.6c0.3,0.4,0.7,0.6,1.2,0.7c0.5,0,0.9-0.3,1.2-0.7c-0.2-0.1-0.4-0.3-0.6-0.6c-0.2,0.1-0.4,0.2-0.6,0.2
		c-0.2,0-0.5-0.1-0.6-0.3C21.9,28.2,21.6,28.4,21.4,28.6z"/>
	<path class="st6" d="M22.7,27.8c-0.2,0-0.4-0.1-0.5-0.3c-0.2-0.2-0.3-0.4-0.4-0.6v-1c0-0.4,0.3-0.8,0.8-0.8h0.2
		c0.4,0,0.8,0.3,0.8,0.8v0.8c0,0.3-0.1,0.6-0.4,0.8C23,27.7,22.9,27.8,22.7,27.8z"/>
	<path class="st6" d="M22,26.5c0,0-0.2-0.3-0.3,0c-0.1,0.3,0,0.5,0.2,0.5S22,26.5,22,26.5z"/>
	<path class="st6" d="M23.4,26.5c0,0,0.2-0.3,0.3,0c0.1,0.3,0,0.5-0.2,0.5S23.4,26.5,23.4,26.5z"/>
	<path class="st6" d="M20.2,38.7c0.2-0.3,0.4-0.6,0.6-0.9c-0.1-0.1-0.1-0.2-0.2-0.3c-0.3-0.3-0.8-0.5-1.2-0.4c0,0.1-0.5,0.8-0.6,1.1
		c-0.1,0.3-0.1,0.6,0.1,1.1c0.2,0.6,0.4,1.3,0.5,2.1c0,0.2,0,0.3,0,0.5c0.2,0.1,0.3,0.1,0.5,0.2c0.2,0,0.3-0.1,0.4-0.2
		c0.1-0.6,0.1-1.2,0.1-1.9C20.4,39.5,20.4,39.1,20.2,38.7z"/>
	<path class="st6" d="M24.9,38.5c0-0.2-0.1-0.3-0.2-0.5c-0.5-0.2-1-0.1-1.4,0.3c0,0.5,0.1,1,0.3,1.5c-0.3,0.3-0.5,0.6-0.6,1
		c-0.2,0.6-0.4,1.1-0.5,1.7c0.1,0.2,0.2,0.3,0.3,0.3c0.2,0.1,0.4,0.1,0.5,0c0-0.2,0.1-0.3,0.2-0.5c0.4-0.6,0.7-1.1,1.2-1.6
		c0.4-0.4,0.5-0.6,0.5-1S24.9,38.5,24.9,38.5z"/>
	<path class="st1" d="M22.8,37.3c-0.5,0.1-0.9,0-1.3-0.4l-0.1,0.2c0.2,0.2,0.4,0.3,0.6,0.3c0.3,0.1,0.6,0.1,0.9,0
		C22.9,37.6,22.8,37.5,22.8,37.3z"/>
	<path class="st8" d="M24.4,37.8c-0.3-0.1-0.6-0.3-0.9-1.3c-0.3-1-0.5-2.4-0.5-2.4h1.4c0-0.1,0-0.2,0-0.2l-3.3-0.4l0,0l1.2,0.3
		c0,0-0.5,1.2-1,2.2c-0.5,0.9-0.8,1-1.1,1s-0.6,0-0.8,0c-0.1,0.2-0.2,0.4-0.3,0.6c0.7,0,1.4,0.3,1.9,0.8c0,0,0.8-1,1-1.4
		c0.2-0.4,0.6-1.3,0.6-1.3c0,0.6,0.1,1.1,0.2,1.7c0.1,0.4,0.2,0.9,0.4,1.3c0.6-0.4,1.4-0.5,2.1-0.2c0-0.2,0-0.2-0.1-0.5
		C24.9,37.9,24.6,37.8,24.4,37.8z"/>
	<path class="st5" d="M20.1,37c0.3-0.1,0.6-0.1,1.1-1c0.5-0.9,1-2.2,1-2.2L21,33.5c-0.1,0.2-0.8,1.4-1.1,2.2
		c-0.2,0.3-0.4,0.9-0.7,1.3C19.5,37,19.8,37,20.1,37z"/>
	<path class="st5" d="M23.5,36.4c0.3,1,0.6,1.2,0.9,1.3c0.2,0.1,0.5,0.1,0.7,0.2c-0.1-0.7-0.1-1.4-0.2-1.6c-0.2-1-0.4-1.9-0.5-2.2
		H23C23,34.1,23.2,35.3,23.5,36.4z"/>
	<path class="st1" d="M21.9,26.5c0.1-0.1,0.1-0.1,0.1-0.2c0-0.2,0.1-0.4,0.2-0.5c0.3-0.2,0.7-0.2,1.1,0c0.1,0.1,0.2,0.3,0.2,0.5
		c0,0.1,0,0.2,0.1,0.3c0,0,0.1-0.8,0.1-1.1c0-0.2-0.1-0.4-0.3-0.4c-0.2-0.1-0.3,0-0.6-0.2c-0.3-0.2-0.4,0-0.5,0.1
		C22.2,25,22.3,25,22,25c-0.3,0-0.2,0.2-0.2,0.3C21.8,25.7,21.8,26.1,21.9,26.5z"/>
	<path class="st2" d="M25.5,29.3c-0.3-0.5-0.8-0.8-1.3-0.8h-0.3h-0.1l0,0h-0.1c-0.1,0.3-0.2,0.7-1,0.7c-0.5,0-0.7-0.5-0.7-0.7h-0.2
		h-0.5c-0.4,0-0.8,0.3-1,0.7c-0.3,0.5-0.9,1.3-0.9,1.3c0.3,0.4,0.6,0.7,1.1,0.9c0.3-0.2,0.5-0.5,0.6-0.9c0,0.4,0.1,0.8,0.2,1.2
		c0.1,0.4,0.1,0.8,0.1,1.3c0,0.3-0.1,0.5-0.2,0.8c1,0.7,2.4,0.8,3.6,0.4c-0.2-0.4-0.2-0.6-0.2-0.9c0-0.5,0.1-1.4,0.2-2
		c0.1-0.5,0-0.8,0-1.1c0.1,0.4,0.3,0.7,0.6,1c0.4-0.3,0.8-0.6,1.1-1C26.3,30.4,25.8,29.8,25.5,29.3z"/>
	<path class="st9" d="M21.8,28.2c-0.1,0.1-0.1,0.1-0.2,0.1c0,0.2,0.1,0.4,0.3,0.5c0.3,0.3,0.8,0.4,1.3,0.3c0.4-0.2,0.5-0.8,0.5-0.8
		h-0.1c0,0.2-0.2,0.4-0.3,0.5c-0.3,0.2-0.7,0.1-1.1-0.1C22,28.6,21.9,28.4,21.8,28.2z"/>
	<path class="st10" d="M22.5,26.4c-0.1-0.1-0.2-0.1-0.3,0l0,0c0,0,0,0.1,0,0C22.3,26.4,22.4,26.4,22.5,26.4L22.5,26.4z"/>
	<path class="st10" d="M22.9,26.4c0.1-0.1,0.2-0.1,0.3,0l0,0c0,0,0,0.1,0,0C23.2,26.4,23.1,26.4,22.9,26.4
		C23,26.4,22.9,26.4,22.9,26.4z"/>
	<path class="st1" d="M22.6,26.1C22.5,26,22.4,26,22.3,26s-0.2,0.1-0.2,0.2l0,0C22.2,26.1,22.3,26,22.6,26.1
		C22.7,26.2,22.6,26.1,22.6,26.1z"/>
	<path class="st1" d="M22.9,26.1C23,26,23.1,26,23.2,26c0.1,0,0.2,0.1,0.2,0.2l0,0C23.4,26.2,23.1,26,22.9,26.1
		C22.8,26.2,22.9,26.1,22.9,26.1z"/>
	<path class="st7" d="M21.9,26.5v0.3c0,0-0.1,0-0.1-0.2S21.9,26.5,21.9,26.5z"/>
	<path class="st7" d="M23.5,26.5v0.3c0,0,0.1,0,0.1-0.2S23.5,26.5,23.5,26.5z"/>
	<path class="st1" d="M20.9,33.6L20.8,34c0.3,0.3,0.7,0.6,1,0.9c0.2,0.3,0.4,0.6,0.5,1l0.1-0.2c-0.2-0.4-0.4-0.8-0.6-1.2
		C21.5,34.2,21.2,33.9,20.9,33.6z"/>
	<path class="st1" d="M24.3,33.6l0.1,0.3c-0.4,0.2-0.8,0.4-1.1,0.8C23,35.2,22.5,36,22.5,36v-0.3c0.2-0.4,0.4-0.8,0.7-1.2
		C23.5,34.2,23.9,33.9,24.3,33.6z"/>
	<path class="st1" d="M21.1,32.6v0.5c0.5,0.2,1,0.3,1.6,0.3c0.6,0,1.1-0.1,1.7-0.2l0.1-0.4C24,32.9,23.4,33,22.8,33
		C22.2,33,21.6,32.8,21.1,32.6z"/>
	<path class="st1" d="M20.7,28.4c0,0,0,0.6,0.1,1c0.1,0.4,0.8,0.5,0.8-0.1c0-0.3,0-0.7-0.1-1C21.6,28.3,20.9,28.1,20.7,28.4z"/>
	<path class="st1" d="M24.5,28.5c0,0-0.1,0.5-0.1,1c-0.1,0.2-0.3,0.3-0.5,0.3c-0.2-0.1-0.3-0.2-0.3-0.4c0-0.3,0-0.7,0.1-1
		C23.6,28.3,24.3,28.3,24.5,28.5z"/>
	<path class="st1" d="M21.2,29.7c0,0,0.1,1.2,0.1,1.7c0,0.5,0.1,1.5,0.1,1.5h0.1c0,0,0-1.3-0.1-2.1c-0.1-0.7-0.1-1.2-0.1-1.2H21.2z"
		/>
	<path class="st1" d="M24.1,29.7L24,31.5c0,0.5-0.1,1.5-0.1,1.5h-0.1c0,0,0-1.3,0.1-2.1c0.1-0.7,0.1-1.2,0.1-1.2H24.1z"/>
	<path class="st1" d="M20.9,32.1c0.5,0.2,1,0.3,1.6,0.3c0.7,0,1.3-0.1,2.1-0.1v0.2c-0.7,0.1-1.4,0.1-2.2,0.1c-0.5,0-1-0.1-1.5-0.2
		V32.1z"/>
	<path class="st2" d="M19.4,41.8c0,0-0.5,0.8-0.7,1.1c-0.3,0.3-0.3,0.7,0,1c0.3,0.4,0.8,0.3,1.1-0.3c0.2-0.4,0.4-0.9,0.6-1.4
		c0.1-0.2,0.1-0.5,0-0.7C20.2,41.8,19.8,41.9,19.4,41.8z"/>
	<path class="st1" d="M18.5,43.6c0.1,0.1,0.3,0.2,0.4,0.3c0.2,0.1,0.4,0.2,0.6,0.1c0.3-0.4,0.5-0.8,0.6-1.2c0.1-0.3,0.2-0.5,0.3-0.8
		c0.1,0,0.1,0.3,0,0.5c-0.1,0.2-0.2,0.4-0.3,0.6c-0.1,0.2-0.1,0.5-0.3,0.7c-0.2,0.3-0.4,0.6-0.8,0.5C18.8,44.2,18.5,43.9,18.5,43.6z
		"/>
	<path class="st1" d="M19.4,41.4v0.4l0.2,0.1C19.7,41.8,19.6,41.6,19.4,41.4z"/>
	<path class="st1" d="M20.4,41.3c-0.2,0.1-0.4,0.2-0.6,0.3c-0.1,0.1-0.2,0.2-0.2,0.3c0.1,0.1,0.3,0.1,0.4,0c0.2-0.1,0.3-0.2,0.4-0.3
		C20.4,41.6,20.4,41.3,20.4,41.3z"/>
	<path class="st2" d="M23.3,42.9c0,0,0.3,0.9,0.5,1.3c0.2,0.3,0.1,0.8-0.2,1c-0.4,0.3-0.8,0.1-1-0.6c-0.1-0.5-0.2-1-0.3-1.5
		c0-0.2,0-0.5,0.1-0.7C22.5,42.8,22.9,43,23.3,42.9z"/>
	<path class="st1" d="M23.8,45c-0.1,0-0.3,0.1-0.4,0.2c-0.2,0.1-0.4,0.1-0.6-0.1c-0.2-0.4-0.3-0.9-0.4-1.3c0-0.3,0-0.6-0.1-0.8
		c-0.1,0-0.2,0.3-0.1,0.5c0.1,0.2,0.1,0.5,0.2,0.7c0,0.2,0,0.5,0.1,0.7c0.1,0.4,0.3,0.7,0.6,0.7C23.4,45.5,23.7,45.3,23.8,45z"/>
	<path class="st1" d="M23.4,42.6V43h-0.2C23.1,42.8,23.2,42.7,23.4,42.6z"/>
	<path class="st1" d="M22.4,42.2c0.2,0.1,0.4,0.3,0.5,0.5c0.1,0.1,0.1,0.2,0.2,0.4c-0.1,0-0.3,0-0.4-0.1c-0.1-0.1-0.3-0.2-0.3-0.4
		L22.4,42.2z"/>
	<path class="st1" d="M28.6,33.2c0.2,0.4,0.2,0.8,0.1,1.1c-0.2,0.1-0.5,0.2-0.7,0.1c0.3-0.3,0.4-0.7,0.4-1.1L28.6,33.2z"/>
	<path class="st6" d="M28,34.2c0.1,0,0.3,0.1,0.4,0.1c0.2,0.1,0.1,0.1,0.1,0.2s0.1,0.1,0.1,0s0-0.2,0-0.3c0,0-0.3-0.3-0.4-0.3
		C28.1,33.9,28,34.2,28,34.2L28,34.2z"/>
	<path class="st1" d="M17,33.2c0,0,0.4,0.4,0.4,0.6c0,0.1,0,0.3-0.1,0.4c0,0-0.5,0-0.5-0.2C16.8,33.6,16.9,33.4,17,33.2z"/>
	<path class="st6" d="M19.2,30.6l-0.4,0.6c-0.4,0.5-0.8,1.1-1.1,1.7c-0.2,0.4-0.5,0.8-0.9,1c-0.2,0.1-0.2,0.1-0.2,0.3
		c0,0.1,0.1,0.2,0.1,0.3h0.1h0.1c0,0-0.1-0.2,0-0.2c0.1,0,0.2,0,0.3,0c0.2,0,0.4,0,0.5-0.2c0.1-0.2,0-0.2,0.5-0.7
		c0.5-0.5,1-1.3,1.3-1.5l0.6-0.6C19.8,31.1,19.5,30.9,19.2,30.6z"/>
	<path class="st1" d="M16.8,33.1c-0.2,0.3-0.2,0.8-0.1,1.1c0.2,0.1,0.5,0.2,0.7,0.1c-0.3-0.3-0.4-0.7-0.4-1.1L16.8,33.1z"/>
	<path class="st6" d="M17.4,34.1c0,0-0.2,0.1-0.4,0.1s-0.1,0.1-0.1,0.2s-0.1,0.1-0.2,0c0-0.1,0-0.2,0-0.3c0,0,0.3-0.3,0.4-0.3
		S17.4,34.1,17.4,34.1L17.4,34.1z"/>
</g>
</svg>
