<?xml version="1.0" encoding="utf-8"?>
<!-- Generator: Adobe Illustrator 23.1.0, SVG Export Plug-In . SVG Version: 6.00 Build 0)  -->
<svg version="1.1" id="icons" xmlns="http://www.w3.org/2000/svg" xmlns:xlink="http://www.w3.org/1999/xlink" x="0px" y="0px"
	 viewBox="0 0 47 47" style="enable-background:new 0 0 47 47;" xml:space="preserve">
<style type="text/css">
	.st0{fill:#FFCB61;}
	.st1{fill:#992A2A;}
	.st2{fill:#DF3333;}
</style>
<title>Sledding</title>
<g id="Sledding">
	<path class="st0" d="M38.6,26.2c-0.4,0-0.7,0.3-0.7,0.7s0.3,0.7,0.7,0.7c2.6,0,4.8,2.1,4.8,4.8c0,0.4,0,0.8-0.1,1.1H28.4v-4.8H27
		v4.8H10.3v-4.8H9v8.4H2.9c-0.4,0-0.7,0.3-0.7,0.7s0.3,0.7,0.7,0.7h35.7c3.4,0,6.1-2.7,6.1-6.1C44.8,29,42,26.2,38.6,26.2z M27.1,37
		H10.3v-2.3H27V37H27.1z M38.6,37H28.4v-2.3h14.2C41.8,36.2,40.3,37,38.6,37z"/>
	<path class="st1" d="M30.5,16.5l-1.4,8.6l-4,5.4h2.7c3,0,5.4-2.4,5.4-5.4l0,0v-8.6H30.5z"/>
	<path class="st2" d="M30.5,25.1v-8.6c-1.5,0-2.7,1.2-2.7,2.7l0,0v5.9c0,0.7-0.6,1.4-1.3,1.4l0,0h-7.6c-0.7,0-1.4-0.6-1.4-1.3l0,0
		v-2.7c0-7.2-5.9-13.1-13.1-13.1l0,0v15.8c0,3,2.4,5.5,5.4,5.5c0,0,0,0,0.1,0h15.4C28.1,30.5,30.5,28.1,30.5,25.1L30.5,25.1z"/>
	<path class="st2" d="M26.4,27.1h-7.7c-1.1,0-2-0.9-2-2v-2.8c0-6.8-5.5-12.4-12.4-12.4l0,0H3.6c-0.4,0-0.7-0.3-0.7-0.7
		c0-0.4,0.3-0.7,0.7-0.7h0.7c7.6,0,13.8,6.2,13.8,13.8V25c0,0.4,0.3,0.7,0.7,0.7h7.7c0.4,0,0.7-0.3,0.7-0.7l0,0v-5.9
		c0-1.9,1.5-3.4,3.4-3.4H34c0.4,0,0.7,0.3,0.7,0.7s-0.3,0.7-0.7,0.7l0,0h-3.5c-1.1,0-2,0.9-2,2V25c0,1.1-0.8,2-1.9,2.1
		C26.5,27.1,26.5,27.1,26.4,27.1z"/>
</g>
</svg>
