<?xml version="1.0" encoding="utf-8"?>
<!-- Generator: Adobe Illustrator 23.1.0, SVG Export Plug-In . SVG Version: 6.00 Build 0)  -->
<svg version="1.1" id="icons" xmlns="http://www.w3.org/2000/svg" xmlns:xlink="http://www.w3.org/1999/xlink" x="0px" y="0px"
	 viewBox="0 0 47 47" style="enable-background:new 0 0 47 47;" xml:space="preserve">
<style type="text/css">
	.st0{fill:#FFB69E;}
	.st1{fill:#3C5A73;}
	.st2{fill:#FFA50A;}
</style>
<title>Slimnastics</title>
<g id="Slimnastics">
	<path class="st0" d="M16.1,45.5c-1.2-0.3-2-1.4-1.6-2.7l0,0l4.2-18.1c0.3-1.2,1.4-2,2.7-1.6s2,1.4,1.6,2.7l-4.2,18.1
		C18.5,44.9,17.2,45.7,16.1,45.5z"/>
	<path class="st0" d="M28,43.8l-4.2-18.1c-0.3-1.2,0.4-2.4,1.6-2.7c1.2-0.3,2.4,0.4,2.7,1.6l4.2,18.1c0.3,1.2-0.4,2.4-1.6,2.7
		S28.3,44.9,28,43.8z"/>
	<path class="st1" d="M21.3,32.9l1.6-7.2c0.3-1.2-0.4-2.4-1.6-2.7c-1.2-0.3-2.4,0.4-2.7,1.6l0,0l-1.8,7.4L21.3,32.9z"/>
	<path class="st1" d="M25.4,32.9l4.3-1L28,24.6c-0.3-1.2-1.4-2-2.7-1.6s-2,1.4-1.6,2.7L25.4,32.9z"/>
	<path class="st0" d="M42.7,9.2c-0.3-0.8-1.3-1.3-2.2-0.9L35,10.4l-6.7-0.5h-9.8l-6.7,0.5L6.1,8.2c-0.8-0.4-1.9,0-2.2,0.8
		s0,1.9,0.8,2.3c0.1,0,0.1,0,0.2,0.1l6,2.3c0.2,0.1,0.5,0.1,0.7,0.1l6.8-0.5v12.4h9.8V13.3l6.8,0.5c0.2,0,0.5,0,0.7-0.1l6-2.3
		C42.6,11,43,10.1,42.7,9.2z"/>
	<path class="st2" d="M28.3,9.8h-3c0,1.1-0.9,2-2,2c-1.1,0-2-0.9-2-2h-2.9L14,10.1v3.4l4.4-0.3v12.4h9.8V13.2l4.5,0.3v-3.3L28.3,9.8
		z"/>
	<circle class="st0" cx="23.3" cy="4.8" r="3.8"/>
</g>
</svg>
