<?xml version="1.0" encoding="utf-8"?>
<!-- Generator: Adobe Illustrator 23.1.0, SVG Export Plug-In . SVG Version: 6.00 Build 0)  -->
<svg version="1.1" id="icons" xmlns="http://www.w3.org/2000/svg" xmlns:xlink="http://www.w3.org/1999/xlink" x="0px" y="0px"
	 viewBox="0 0 47 47" style="enable-background:new 0 0 47 47;" xml:space="preserve">
<style type="text/css">
	.st0{fill:#414042;}
	.st1{fill:#CDCDCD;}
	.st2{fill:#231F20;}
	.st3{fill:#0F69D3;}
	.st4{fill:#232323;}
	.st5{fill:#FC8300;}
</style>
<title>Snorkeling</title>
<path class="st0" d="M29.8,30.9c0,2.5-3.8,2.9-6.7,2.9s-6.7-0.5-6.7-2.9c0-1.1,0.8,0,2.8-1.2c2.4-1.4,4.4-5.8,5.2-4.5
	C28.3,31.6,29.8,28.4,29.8,30.9z"/>
<path class="st1" d="M23.4,23.6h0.2c2,0.2,3.3,1.9,4.5,3.6c1,1.3,2.2,2.9,3.3,3c0.2,0,0.3,0,0.5,0c2.2,0,5.1-1.4,5.9-2.8
	c1.2-2.5,0.9-8.9-1-10.2c-3-2-8.9-2.9-13.2-2.9h-0.3c-4.2,0.1-10.2,0.9-13.1,2.9c-1.9,1.3-2.3,7.8-1,10.2c0.7,1.4,3.7,2.8,5.9,2.8
	c0.1,0,0.3,0,0.4,0c1.1-0.1,2.3-1.7,3.3-3c1.2-1.7,2.6-3.4,4.5-3.6H23.4z"/>
<path class="st0" d="M8.2,21.8c-0.2,1.5-1.6,2.5-3.1,2.4c-1.5,0.2-2.9-0.9-3.1-2.4c0.2-1.5,1.6-2.5,3.1-2.4
	C6.6,19.2,8,20.3,8.2,21.8z"/>
<path class="st2" d="M44.6,21.8c-0.2,1.5-1.6,2.5-3.1,2.4c-1.5,0.2-2.9-0.9-3.1-2.4c0.2-1.5,1.6-2.5,3.1-2.4
	C43,19.2,44.3,20.3,44.6,21.8z"/>
<path class="st3" d="M38.8,14.3c-4.5-3-12.4-3.5-14.9-3.5h-0.7c-2.5,0-10.5,0.5-14.9,3.5c-3.7,2.5-4.1,11.1-2.2,14.8
	c1.6,3.1,6.7,5.1,9.9,4.7c2.6-0.3,4.3-2.6,5.6-4.4c0.5-0.8,1.2-1.5,1.9-2.2c0.7,0.6,1.4,1.4,1.9,2.2c1.4,1.8,3,4,5.6,4.4
	c0.3,0,0.6,0,0.9,0l0,0c3.1,0,7.5-1.9,9-4.7C42.8,25.4,42.5,16.8,38.8,14.3z M37.8,27.4c-0.7,1.4-3.7,2.8-5.9,2.8
	c-0.2,0-0.3,0-0.5,0c-1.1-0.1-2.2-1.7-3.3-3c-1.2-1.7-2.6-3.4-4.5-3.6h-0.3c-2,0.2-3.3,1.9-4.5,3.6c-1,1.3-2.2,2.9-3.3,3
	c-0.1,0-0.3,0-0.4,0c-2.2,0-5.1-1.4-5.9-2.8c-1.2-2.5-0.9-8.9,1-10.2c3-2,8.9-2.9,13.1-2.9h0.3c4.2,0.1,10.2,0.9,13.2,2.9
	C38.6,18.5,39,24.9,37.8,27.4z"/>
<path class="st0" d="M29.3,29.8l0.4,0.3C29.6,29.9,29.4,29.8,29.3,29.8z"/>
<path class="st4" d="M31.3,35.1c0,1.7-0.3,4.6-2.7,4.6c-1.6,0-3.2-1.2-3.2-2.3c0-0.3-0.1-0.5-0.2-0.7l-3.3,1.5c0.5,2.9,3.7,5,6.6,5
	s6.2-2.1,6.2-8.1v-2.9h-3.5v2.9H31.3z"/>
<rect x="31.3" y="6.2" class="st5" width="3.5" height="26"/>
<rect x="31.3" y="31.2" class="st0" width="3.5" height="2.3"/>
<rect x="33" y="31.2" class="st2" width="1.7" height="2.3"/>
<rect x="31.3" y="4" class="st0" width="3.5" height="2.3"/>
<rect x="33" y="4" class="st2" width="1.7" height="2.3"/>
<path class="st2" d="M22.9,36.5l-2.3,1.1c-0.6,0.2-0.9,0.8-0.7,1.3c0.2,0.6,0.8,0.9,1.3,0.7c0.1,0,0.2-0.1,0.3-0.2l2.2-1l0,0
	L22.9,36.5z"/>
</svg>
