<?xml version="1.0" encoding="utf-8"?>
<!-- Generator: Adobe Illustrator 23.1.0, SVG Export Plug-In . SVG Version: 6.00 Build 0)  -->
<svg version="1.1" id="icons" xmlns="http://www.w3.org/2000/svg" xmlns:xlink="http://www.w3.org/1999/xlink" x="0px" y="0px"
	 viewBox="0 0 47 47" style="enable-background:new 0 0 47 47;" xml:space="preserve">
<style type="text/css">
	.st0{fill:#C8D8DB;}
	.st1{fill:#0B647D;}
	.st2{fill:#DAE7EA;}
	.st3{fill:#7A7AAE;}
	.st4{fill:#6969A5;}
	.st5{fill:#5E5D93;}
	.st6{fill:#F9653D;}
	.st7{fill:#EF5330;}
</style>
<title>Snowmobiling</title>
<g id="Snowmobiling">
	<path class="st0" d="M11.9,34.9c-0.1,0-0.1,0-0.2,0c-0.3-0.1-0.5-0.5-0.4-0.8l0,0l1.2-3.3c0.1-0.3,0.5-0.5,0.8-0.4
		c0.3,0.1,0.5,0.5,0.4,0.8l0,0l-1.2,3.3C12.4,34.7,12.2,34.9,11.9,34.9z"/>
	<path class="st0" d="M26.8,31.6H7.9c-0.3,0-0.6-0.3-0.6-0.6V29c0-0.4,0.2-0.7,0.6-0.7c0.4,0,0.7,0.2,0.7,0.6c0,0.1,0,0.1,0,0.2v1.3
		h18.3c0.4,0,0.6,0.3,0.6,0.6C27.4,31.2,27.1,31.6,26.8,31.6z"/>
	<path class="st1" d="M23.1,16.9c-0.4,0-0.6-0.3-0.6-0.6v-2.2H20c-0.4,0-0.6-0.4-0.6-0.7c0-0.3,0.3-0.5,0.6-0.6h3.2
		c0.4,0,0.6,0.3,0.6,0.6v2.8C23.9,16.6,23.5,16.9,23.1,16.9z"/>
	<path class="st2" d="M20.1,12.1v12.8H3.7c0,0,0.2-0.6,0.5-1.6c1.5-3.6,5.6-11.8,14-12.9c0.9-0.1,1.8,0.5,1.9,1.5
		C20.1,12,20.1,12,20.1,12.1z"/>
	<path class="st0" d="M4.3,23.3h15.8v1.6H3.7C3.7,24.9,3.9,24.3,4.3,23.3z"/>
	<rect x="38.3" y="20.2" class="st3" width="4.4" height="4.7"/>
	<rect x="38.3" y="20.2" class="st4" width="1.4" height="4.7"/>
	<path class="st4" d="M42.8,20.5h-4.5v-1.9h4.5c0.3,0,0.6,0.3,0.6,0.6l0,0v0.5C43.4,20.2,43.2,20.5,42.8,20.5L42.8,20.5z"/>
	<rect x="38.3" y="18.6" class="st5" width="1.4" height="1.9"/>
	<path class="st6" d="M38.6,11.9v13H25.4c0.1-0.5,0.2-1.1,0.4-1.6c0.5-1.8,2.2-3,4.2-3c5.2,0,4.4-6.9,6.9-9.1
		c0.4-0.3,1.1-0.3,1.4,0.1C38.5,11.4,38.6,11.6,38.6,11.9z"/>
	<path class="st7" d="M38.6,23.3v1.6H25.4c0.1-0.5,0.2-1.1,0.4-1.6H38.6z"/>
	<path class="st2" d="M44.3,25.4c0,2-1.6,3.6-3.6,3.6H5.9c-2,0-3.6-1.6-3.6-3.6c0-0.2,0.1-0.3,0.2-0.5c0.1-0.1,0.3-0.2,0.5-0.2h40.5
		c0.3,0,0.6,0.2,0.6,0.5C44.3,25.3,44.3,25.4,44.3,25.4z"/>
	<path class="st0" d="M44.3,25.4c0,2-1.6,3.6-3.6,3.6l0,0H25.3c0.1-2.1,1.9-3.8,4-3.8h14c0.3,0,0.5,0,0.8,0.1
		C44.3,25.3,44.3,25.4,44.3,25.4z"/>
	<polygon class="st6" points="22.4,24.7 18.1,28.9 11.5,28.9 15.8,24.7 	"/>
	<path class="st1" d="M43.4,35.2H29.3c-1.5,0-2.6-1.2-2.6-2.6l0,0v-3.4c0-1.5,1.2-2.6,2.6-2.7c0,0,0,0,0.1,0h14
		c1.5,0,2.6,1.2,2.6,2.6c0,0,0,0,0,0.1v3.4C46,34.1,44.9,35.2,43.4,35.2z"/>
	<path class="st6" d="M42.5,32.5H30.3c-0.5,0-0.9-0.4-0.9-0.9l0,0v-1.3c0-0.5,0.4-0.9,0.9-0.9h12.2c0.5,0,0.9,0.4,0.9,0.9l0,0v1.3
		C43.4,32.1,43,32.5,42.5,32.5z"/>
	<path class="st1" d="M21.6,35.3h-18c-0.9,0.1-2-0.3-2.5-1.1c-0.6-1.3,0.4-2.8,0.5-3c0.2-0.3,0.6-0.4,0.9-0.2l0,0
		C2.9,31.2,3,31.7,2.8,32l0,0c-0.3,0.4-0.6,1.3-0.4,1.7c0.2,0.4,0.6,0.4,1.4,0.4h18c0.4,0,0.7,0.2,0.7,0.6s-0.2,0.7-0.6,0.7
		C21.8,35.3,21.8,35.3,21.6,35.3z"/>
	<path class="st1" d="M33.1,31.6h-0.5c-0.4,0-0.7-0.2-0.7-0.6s0.2-0.7,0.6-0.7c0.1,0,0.1,0,0.2,0h0.5c0.4,0,0.6,0.4,0.6,0.7
		C33.7,31.2,33.4,31.6,33.1,31.6z"/>
	<path class="st1" d="M35.5,31.6H35c-0.4,0-0.6-0.4-0.6-0.7c0-0.3,0.3-0.5,0.6-0.6h0.5c0.4,0,0.7,0.2,0.7,0.6s-0.2,0.7-0.6,0.7
		C35.6,31.6,35.5,31.6,35.5,31.6z"/>
	<path class="st1" d="M37.7,31.6h-0.5c-0.4,0-0.7-0.2-0.7-0.6s0.2-0.7,0.6-0.7c0.1,0,0.1,0,0.2,0h0.5c0.4,0,0.7,0.2,0.7,0.6
		s-0.2,0.7-0.6,0.7C37.8,31.6,37.8,31.6,37.7,31.6z"/>
	<path class="st1" d="M40.2,31.6h-0.5c-0.4,0-0.7-0.2-0.7-0.6s0.2-0.7,0.6-0.7c0.1,0,0.1,0,0.2,0h0.5c0.4,0,0.6,0.4,0.6,0.7
		C40.7,31.2,40.5,31.6,40.2,31.6z"/>
	<polygon class="st6" points="13.7,24.7 9.5,28.9 7.6,28.9 11.8,24.7 	"/>
</g>
</svg>
