<?xml version="1.0" encoding="utf-8"?>
<!-- Generator: Adobe Illustrator 23.1.0, SVG Export Plug-In . SVG Version: 6.00 Build 0)  -->
<svg version="1.1" id="icons" xmlns="http://www.w3.org/2000/svg" xmlns:xlink="http://www.w3.org/1999/xlink" x="0px" y="0px"
	 viewBox="0 0 47 47" style="enable-background:new 0 0 47 47;" xml:space="preserve">
<style type="text/css">
	.st0{fill:#334A61;}
</style>
<title>SnowBoarding</title>
<g id="Snow_Boarding">
	<path class="st0" d="M45.9,39.6c-0.9-0.9-2.3-1-3.2-0.1l-1.5,1.4l-6-1.1V27.7c0-1.1-0.8-1.9-1.7-2.1L31.3,25l-4-9.9
		c0,0,0,0-0.1-0.1L42.9,4.7c1-0.8,1.2-2.1,0.4-3.1c-0.6-0.9-1.8-1.1-2.8-0.6l-38,24.8c-1.1,0.6-1.3,2-0.6,3.1c0.4,0.6,1.1,1,1.8,1
		c0.4,0,0.9-0.1,1.2-0.3l12-7.8l0.6,1.7h-0.2c-1.1,0-2,0.8-2.3,1.8L13.1,36l-7.3-1.3v-0.2c0.1-1.3-0.9-2.4-2-2.4
		c-1.3-0.2-2.4,0.6-2.5,1.9c0,0.1,0,0.2,0,0.3v2.1c0,1.1,0.8,2,1.8,2.3l38.2,6.8h0.4c0.5,0,1.1-0.2,1.5-0.6l2.4-2.1
		C46.7,41.9,46.7,40.5,45.9,39.6C46,39.6,45.9,39.6,45.9,39.6z M30.6,39l-13-2.3l1.6-8.9h4.3l5.5,1.3l0,0l1.6,0.3V39L30.6,39z"/>
	<circle class="st0" cx="17.2" cy="7.4" r="4.5"/>
</g>
</svg>
