<?xml version="1.0" encoding="utf-8"?>
<!-- Generator: Adobe Illustrator 23.1.0, SVG Export Plug-In . SVG Version: 6.00 Build 0)  -->
<svg version="1.1" id="Layer_1" xmlns="http://www.w3.org/2000/svg" xmlns:xlink="http://www.w3.org/1999/xlink" x="0px" y="0px"
	 viewBox="0 0 47 47" style="enable-background:new 0 0 47 47;" xml:space="preserve">
<style type="text/css">
	.st0{fill:#FF9D0B;}
	.st1{fill:#546F7A;}
	.st2{fill:#374C54;}
	.st3{fill:#E4E3E5;}
</style>
<title>Shoveling</title>
<g>
	<g id="icons">
		<path class="st0" d="M8.2,43l18.9-24.2c0.2-0.2,0.5-0.2,0.7-0.1l1.2,0.8c0.2,0.2,0.2,0.5,0.1,0.7l-19,24.2
			c-0.2,0.2-0.5,0.2-0.7,0.1l-1.2-0.8C8.1,43.5,8,43.2,8.2,43z"/>
		<path class="st1" d="M6.2,41.5l1-1.2c0.2-0.2,0.5-0.2,0.7-0.1l5,3.9c0.2,0.2,0.2,0.5,0.1,0.7l-0.8,1.2c-0.2,0.2-0.5,0.2-0.7,0.1
			l-5.1-3.9C6.1,42,6.1,41.7,6.2,41.5z"/>
		<path class="st1" d="M31,4.4c1.6-2,8.1-3.5,11-2.7c1.4,2.9,1.7,9.2,0,11.4l-6.1,7.8l-1.7-1.4l-7.6-5.9l-1.7-1.3L31,4.4z"/>
		<path class="st2" d="M33,13.3L32,17.7l-2.9,3.6c-0.3,0.3-0.7,0.4-1.1,0.1L26.3,20c-0.3-0.3-0.4-0.7-0.1-1.1l2.9-3.6L33,13.3z"/>
		<path class="st3" d="M26.7,13.5l3.9,3.1L42.1,1.8c0,0,0-0.1-0.1-0.1c-2.9-0.7-9.4,0.7-11,2.7l-6.1,7.8L26.7,13.5z"/>
		<path class="st1" d="M26.3,20.1l1,0.7l5.8-7.4v-0.1l-4.1,2l-2.9,3.6C25.9,19.3,26,19.8,26.3,20.1z"/>
		<path class="st0" d="M19.3,20.2l1.2-1.1c0.2-0.2,0.5-0.2,0.7,0l21.3,23.5c0.2,0.2,0.2,0.5,0,0.7l-1.2,1.1c-0.2,0.2-0.5,0.2-0.7,0
			L19.3,20.8C19.1,20.6,19.1,20.3,19.3,20.2z"/>
		<path class="st1" d="M37.8,44.2l4.9-4.4c0.2-0.2,0.5-0.2,0.7,0l1.1,1.2c0.2,0.2,0.2,0.5,0,0.7l-4.9,4.4c-0.2,0.2-0.5,0.2-0.7,0
			l-1.1-1.2C37.5,44.6,37.6,44.3,37.8,44.2z"/>
		<path class="st1" d="M3.9,12.8C1.1,9.9,1.2,5.4,4.1,2.6S11.5,0,14.2,2.8c0.1,0.1,0.2,0.2,0.2,0.3l0.4,0.2l0.2,0.2l6.3,7
			c0.8,0.8,0.7,2.2-0.1,3.1l0,0L14,20.4c-0.8,0.8-2.2,0.7-3.1-0.1l0,0l-6.3-6.9l-0.4-0.2L3.9,12.8z"/>
		<path class="st3" d="M10.6,20.3c0.8,1,2.2,1,3.1,0.2l0,0l3.7-3.4L4.4,2.6l0,0c-3,2.6-3.2,7.2-0.5,10.1l0,0l0.3,0.3l0.1,0.2
			L10.6,20.3z"/>
		<path class="st2" d="M14.7,13.8l4.3,1.9l3.2,3.5c0.3,0.3,0.2,0.8-0.1,1.1l-1.8,1.6c-0.3,0.3-0.8,0.2-1.1-0.1l-3.3-3.5L14.7,13.8z"
			/>
		<path class="st1" d="M20.4,22l1-0.8l-6.6-7.3h-0.1l1.4,4.5l3.2,3.5C19.5,22.2,20,22.2,20.4,22L20.4,22z"/>
	</g>
</g>
</svg>
