<?xml version="1.0" encoding="utf-8"?>
<!-- Generator: Adobe Illustrator 23.1.0, SVG Export Plug-In . SVG Version: 6.00 Build 0)  -->
<svg version="1.1" id="icons" xmlns="http://www.w3.org/2000/svg" xmlns:xlink="http://www.w3.org/1999/xlink" x="0px" y="0px"
	 viewBox="0 0 47 47" style="enable-background:new 0 0 47 47;" xml:space="preserve">
<style type="text/css">
	.st0{fill:#FF8400;}
</style>
<title>SnowShoeing</title>
<g id="Snow_Shoeing">
	<path class="st0" d="M14.7,45.9c-1.6,0-3.1-0.6-4.1-1.8C5.2,38.8,4.6,23,4.6,14v-0.3c0-3.9,1-12.9,10.2-12.9S25,9.8,25,13.7V14
		c0,8.9-0.6,24.7-5.9,30.1C17.7,45.3,16.3,45.9,14.7,45.9z M14.7,2.2c-7.5,0-8.6,7.2-8.6,11.4V14c-0.1,14.8,2,25.4,5.5,29
		c1.5,1.7,4.1,1.9,5.8,0.3c0.1-0.1,0.2-0.2,0.3-0.3c3.5-3.6,5.6-14.1,5.5-28.9v-0.3C23.3,9.3,22.2,2.2,14.7,2.2z"/>
	<path class="st0" d="M9.4,10.1c-0.4,0-0.7-0.3-0.7-0.7V3c0-0.4,0.3-0.7,0.7-0.7s0.7,0.3,0.7,0.7v6.3C10.2,9.7,9.8,10.1,9.4,10.1
		L9.4,10.1z"/>
	<path class="st0" d="M12.9,9.8c-0.4,0-0.7-0.3-0.7-0.7V1.6c0-0.4,0.3-0.7,0.7-0.7c0.4,0,0.7,0.3,0.7,0.7V9
		C13.7,9.4,13.3,9.8,12.9,9.8L12.9,9.8z"/>
	<path class="st0" d="M16.4,9.8c-0.4,0-0.7-0.3-0.7-0.7V1.6c0-0.4,0.3-0.7,0.7-0.7c0.4,0,0.7,0.3,0.7,0.7V9
		C17.1,9.4,16.8,9.8,16.4,9.8L16.4,9.8z"/>
	<path class="st0" d="M19.9,10.1c-0.4,0-0.7-0.3-0.7-0.7V3c0-0.4,0.3-0.7,0.7-0.7c0.4,0,0.7,0.3,0.7,0.7v6.3
		C20.6,9.7,20.3,10.1,19.9,10.1L19.9,10.1z"/>
	<path class="st0" d="M7.7,37.9c-0.1,0-0.2,0-0.3-0.1c-0.4-0.2-0.5-0.6-0.4-1l1.9-4.7c0.1-0.4,0.6-0.5,1-0.4l0,0
		c0.4,0.2,0.5,0.6,0.4,1l0,0l-1.9,4.7C8.3,37.6,8,37.9,7.7,37.9z M15.9,18.1c-0.1,0-0.2,0-0.3-0.1c-0.4-0.2-0.5-0.6-0.4-1l0,0
		l0.6-1.6c0.2-0.3,0.6-0.5,1.1-0.3c0.3,0.2,0.4,0.5,0.3,0.8l-0.6,1.6C16.5,17.9,16.3,18.1,15.9,18.1z"/>
	<path class="st0" d="M5.7,26.5c-0.1,0-0.2,0-0.3,0c-0.4-0.1-0.5-0.6-0.4-1l0,0l4-9.8c0.1-0.4,0.5-0.6,1-0.5s0.6,0.5,0.5,1
		c0,0.1,0,0.1-0.1,0.2l-3.9,9.6C6.3,26.3,6,26.5,5.7,26.5z"/>
	<path class="st0" d="M13.1,41c-0.1,0-0.2,0-0.3,0c-0.4-0.1-0.5-0.6-0.4-1l0,0l1-2.2c0.2-0.4,0.6-0.5,1-0.4c0.4,0.1,0.5,0.6,0.4,1
		l0,0l-1,2.2C13.6,40.9,13.4,41.1,13.1,41z M20.4,23.5c-0.1,0-0.2,0-0.3-0.1c-0.4-0.2-0.5-0.6-0.4-1l2.5-6.1c0.1-0.4,0.6-0.5,1-0.4
		l0,0c0.4,0.2,0.5,0.6,0.4,1l0,0L21,23C20.9,23.3,20.7,23.5,20.4,23.5z"/>
	<path class="st0" d="M19.9,40.8c-0.1,0-0.2,0-0.3-0.1c-0.4-0.2-0.5-0.6-0.4-1l2.5-6c0.2-0.4,0.6-0.5,1-0.4c0.3,0.1,0.5,0.6,0.4,1
		l0,0l-2.5,6C20.5,40.7,20.2,40.8,19.9,40.8z"/>
	<path class="st0" d="M21.6,37.9c-0.3,0-0.6-0.2-0.7-0.4l-1.9-4.7c-0.2-0.4,0-0.8,0.4-1l0,0c0.4-0.2,0.8,0,1,0.4l0,0l1.9,4.7
		c0.2,0.4,0,0.8-0.4,1C21.8,37.9,21.7,37.9,21.6,37.9z M13.4,18.1c-0.3,0-0.6-0.2-0.7-0.4L12,16.2c-0.1-0.4,0.1-0.8,0.5-1
		c0.3-0.1,0.7,0,0.8,0.3l0.6,1.6c0.2,0.4,0,0.8-0.4,1l0,0C13.6,18.1,13.5,18.1,13.4,18.1L13.4,18.1z"/>
	<path class="st0" d="M23.6,26.5c-0.3,0-0.6-0.2-0.7-0.4l-4-9.8c-0.2-0.4,0-0.8,0.4-1l0,0c0.4-0.2,0.8,0,1,0.4l0,0l4,9.8
		c0.2,0.4,0,0.8-0.4,1l0,0C23.8,26.5,23.7,26.5,23.6,26.5z"/>
	<path class="st0" d="M16.3,41c-0.3,0-0.6-0.2-0.7-0.4l-1-2.2c-0.1-0.4,0.1-0.8,0.5-1c0.3-0.1,0.7,0,1,0.4l1,2.2
		c0.2,0.4,0,0.8-0.4,1l0,0C16.5,41,16.4,41,16.3,41z M8.9,23.5c-0.3,0-0.6-0.2-0.7-0.4L5.7,17c-0.2-0.4,0-0.8,0.4-1
		c0.4-0.2,0.8,0,1,0.4l2.5,6.1c0.2,0.4,0,0.8-0.4,1l0,0C9.2,23.5,9.1,23.5,8.9,23.5z"/>
	<path class="st0" d="M9.4,40.8c-0.3,0-0.6-0.2-0.7-0.4l-2.5-6.1c-0.2-0.4,0-0.8,0.4-1c0.4-0.2,0.8,0,1,0.4l2.5,6
		c0.1,0.4,0,0.8-0.4,1C9.6,40.8,9.5,40.8,9.4,40.8z"/>
	<path class="st0" d="M14.7,41.1c-2,0-4-0.1-6-0.4c-0.4-0.1-0.7-0.4-0.6-0.8c0-0.4,0.4-0.7,0.8-0.6l0,0c3.8,0.5,7.7,0.5,11.7,0
		c0.4-0.1,0.7,0.2,0.8,0.6l0,0c0.1,0.4-0.2,0.8-0.6,0.8C18.7,40.9,16.7,41.1,14.7,41.1z"/>
	<path class="st0" d="M24,17.5h-0.1c-6-1.3-12.4-1.3-18.4,0c-0.4,0.1-0.8-0.2-0.8-0.6c-0.1-0.4,0.2-0.7,0.5-0.8
		c6.3-1.4,12.8-1.4,19.1,0c0.4,0.1,0.6,0.5,0.5,1C24.6,17.3,24.4,17.5,24,17.5L24,17.5z"/>
	<path class="st0" d="M23.7,10.6h-0.1c-5.9-1.3-12-1.3-17.9,0c-0.4,0.1-0.8-0.2-0.8-0.6C4.7,9.7,4.9,9.2,5.3,9.1
		c6-1.3,12.4-1.3,18.4,0c0.4,0.1,0.6,0.5,0.5,1C24.3,10.4,24,10.6,23.7,10.6L23.7,10.6z"/>
	<path class="st0" d="M14.7,36.9c-2.1,0-3.8-2.2-3.8-5c0-0.6,0.1-1.2,0.2-1.7c0.1-0.4,0.1-1-0.2-1.4c-0.6-1.3-1.1-2.5-1.1-4
		c0-3.6,2.1-6.5,4.7-6.5s4.8,2.9,4.8,6.5c0,1.4-0.3,2.8-1.1,4c-0.2,0.4-0.3,1-0.1,1.4c0.1,0.5,0.2,1.2,0.2,1.7
		C18.5,34.7,16.8,36.9,14.7,36.9z M14.7,19.9c-1.8,0-3.3,2.2-3.3,4.9c0,1.2,0.2,2.2,0.8,3.2c0.4,0.7,0.5,1.7,0.3,2.5
		c-0.1,0.4-0.2,0.8-0.2,1.4c0,1.8,1.1,3.4,2.3,3.4s2.3-1.6,2.3-3.4c0-0.4-0.1-0.8-0.2-1.3c-0.2-0.8-0.1-1.8,0.3-2.5
		c0.5-1,0.8-2.1,0.8-3.2C17.8,22.2,16.5,19.9,14.7,19.9z"/>
	<path class="st0" d="M32.1,45.9c-3.8,0-6.6-3.5-8.3-10.7c-0.1-0.4,0.1-0.8,0.5-1l0,0c0.4-0.1,0.8,0.1,1,0.5
		c1.5,6.4,3.8,9.5,6.8,9.5c1.2,0,2.3-0.5,3.1-1.4c3.5-3.6,5.6-14.1,5.5-28.9v-0.3c0-3.4-0.8-11.4-8.6-11.4c-2.8-0.2-5.3,1.2-6.8,3.5
		c-0.2,0.3-0.6,0.4-1.1,0.2c-0.3-0.2-0.4-0.6-0.2-1.1l0,0c1.7-2.8,4.8-4.3,8.1-4.2c6.4,0,10.2,4.9,10.2,12.9v0.3
		c0,8.9-0.6,24.7-5.9,30.1C35.1,45.3,33.5,45.9,32.1,45.9z"/>
	<path class="st0" d="M26.8,10.1c-0.4,0-0.7-0.3-0.7-0.7V3c0-0.4,0.4-0.7,0.8-0.6c0.3,0,0.6,0.3,0.6,0.6v6.3
		C27.5,9.7,27.2,10,26.8,10.1z"/>
	<path class="st0" d="M30.3,9.8c-0.4,0-0.7-0.3-0.7-0.7V1.6c0-0.4,0.2-0.8,0.6-0.8C30.6,0.8,31,1,31,1.4c0,0.1,0,0.1,0,0.2V9
		C31,9.4,30.7,9.8,30.3,9.8z"/>
	<path class="st0" d="M33.7,9.8C33.3,9.8,33,9.4,33,9V1.6c0-0.4,0.3-0.7,0.7-0.7s0.7,0.3,0.7,0.7V9C34.5,9.4,34.2,9.8,33.7,9.8
		L33.7,9.8z"/>
	<path class="st0" d="M37.2,10.1c-0.4,0-0.7-0.3-0.7-0.7l0,0V3c0-0.4,0.3-0.7,0.7-0.7S38,2.6,38,3v6.3C38,9.7,37.7,10.1,37.2,10.1z"
		/>
	<path class="st0" d="M25.1,37.9c-0.1,0-0.2,0-0.3-0.1c-0.4-0.2-0.5-0.6-0.4-1l2-4.7c0.2-0.4,0.6-0.5,1.1-0.3c0.3,0.2,0.5,0.5,0.3,1
		l-2,4.7C25.6,37.6,25.4,37.9,25.1,37.9z M33.3,18.1c-0.1,0-0.2,0-0.3-0.1c-0.4-0.2-0.5-0.6-0.4-1l0,0l0.6-1.6
		c0.2-0.3,0.6-0.5,1.1-0.3c0.3,0.2,0.4,0.5,0.3,0.8L34,17.7C33.9,17.9,33.6,18.1,33.3,18.1L33.3,18.1z"/>
	<path class="st0" d="M26.2,18.9c-0.1,0-0.2,0-0.3,0c-0.4-0.2-0.5-0.6-0.4-1l0.8-2.1c0.1-0.4,0.5-0.6,1-0.5c0.4,0.1,0.6,0.5,0.5,1
		c0,0.1,0,0.1-0.1,0.2l-0.8,2.1C26.9,18.8,26.5,18.9,26.2,18.9z"/>
	<path class="st0" d="M30.4,41c-0.1,0-0.2,0-0.3,0c-0.4-0.2-0.5-0.6-0.4-1l1-2.2c0.2-0.4,0.6-0.5,1-0.4c0.4,0.2,0.5,0.6,0.4,1
		l-1,2.2C31,40.9,30.7,41.1,30.4,41z M37.8,23.5c-0.1,0-0.2,0-0.3-0.1c-0.4-0.2-0.5-0.6-0.4-1l2.5-6.1c0.2-0.4,0.6-0.5,1-0.4
		c0.4,0.2,0.5,0.6,0.4,1L38.4,23C38.3,23.3,38.1,23.5,37.8,23.5L37.8,23.5z"/>
	<path class="st0" d="M37.2,40.8c-0.1,0-0.2,0-0.3-0.1c-0.4-0.2-0.5-0.6-0.4-1l2.5-6c0.2-0.4,0.6-0.5,1-0.4c0.3,0.1,0.5,0.6,0.4,1
		l0,0l-2.5,6C37.9,40.7,37.6,40.8,37.2,40.8z"/>
	<path class="st0" d="M38.9,37.9c-0.3,0-0.6-0.2-0.7-0.4l-2-4.7c-0.2-0.4,0-0.8,0.4-1c0.4-0.2,0.8,0,1,0.4l2,4.7
		c0.1,0.4,0,0.8-0.4,1C39.2,37.9,39,37.9,38.9,37.9z M30.8,18.1c-0.3,0-0.6-0.2-0.7-0.4l-0.6-1.5c-0.1-0.4,0.1-0.8,0.5-1
		c0.3-0.1,0.7,0,0.8,0.3l0.6,1.6c0.2,0.4,0,0.8-0.4,1l0,0C30.9,18.1,30.8,18.1,30.8,18.1L30.8,18.1z"/>
	<path class="st0" d="M41,26.5c-0.3,0-0.6-0.2-0.7-0.4l-4-9.8c-0.2-0.3-0.1-0.8,0.3-1.1c0.3-0.2,0.8-0.1,1.1,0.3
		c0,0,0.1,0.1,0.1,0.2l4,9.8c0.2,0.4,0,0.8-0.4,1l0,0C41.2,26.5,41.1,26.5,41,26.5z"/>
	<path class="st0" d="M33.6,41c-0.3,0-0.5-0.2-0.7-0.4l-1-2.2c-0.2-0.4-0.1-0.8,0.3-1.1c0.4-0.2,0.8-0.1,1.1,0.3c0,0,0,0.1,0.1,0.1
		l1,2.2c0.2,0.4,0,0.8-0.4,1C33.9,41,33.7,41,33.6,41z M26.2,23.5c-0.3,0-0.5-0.2-0.7-0.4l-0.2-0.3c-0.2-0.4,0-0.8,0.4-1.1
		s0.8,0,1.1,0.4l0,0l0.1,0.3c0.2,0.4,0,0.8-0.4,1l0,0C26.5,23.5,26.4,23.5,26.2,23.5z"/>
	<path class="st0" d="M26.8,40.8c-0.3,0-0.6-0.2-0.7-0.4l-2.2-5.3c-0.2-0.4,0-0.8,0.4-1c0.4-0.1,0.8,0,1,0.4l2.2,5.3
		c0.1,0.4,0,0.8-0.4,1C27,40.8,26.9,40.8,26.8,40.8z"/>
	<path class="st0" d="M32.1,41.1c-2,0-4-0.1-6-0.4c-0.4-0.1-0.7-0.4-0.6-0.8c0.1-0.4,0.4-0.7,0.8-0.6c3.9,0.5,7.8,0.5,11.7,0
		c0.4-0.1,0.7,0.2,0.8,0.6l0,0c0.1,0.4-0.2,0.8-0.6,0.8C36.1,40.9,34.1,41.1,32.1,41.1z"/>
	<path class="st0" d="M41.4,17.5h-0.2c-4.9-1.1-9.9-1.3-14.8-0.6c-0.4,0-0.8-0.2-0.8-0.6c0-0.4,0.2-0.7,0.6-0.8
		c5.1-0.6,10.3-0.4,15.3,0.6c0.4,0.1,0.6,0.5,0.5,1C42,17.3,41.7,17.5,41.4,17.5L41.4,17.5z"/>
	<path class="st0" d="M41.1,10.6h-0.2c-4.9-1-10-1.2-14.8-0.5c-0.4,0.1-0.8-0.1-1-0.5c-0.1-0.4,0.1-0.8,0.5-1c0.1,0,0.1,0,0.2,0
		c5.1-0.7,10.3-0.5,15.4,0.5c0.4,0.1,0.6,0.5,0.5,1C41.7,10.4,41.4,10.7,41.1,10.6L41.1,10.6z"/>
	<path class="st0" d="M32.1,36.9c-2.1,0-3.8-2.2-3.8-5c0-0.6,0.1-1.2,0.2-1.7c0.1-0.4,0.1-1-0.1-1.4c-0.6-1.3-1.1-2.7-1.1-4
		c0-3.6,2.1-6.5,4.8-6.5s4.8,2.9,4.8,6.5c0,1.4-0.3,2.8-1.1,4c-0.2,0.4-0.3,1-0.1,1.4c0.2,0.5,0.2,1.2,0.2,1.7
		C35.9,34.7,34.1,36.9,32.1,36.9z M32.1,19.9c-1.8,0-3.3,2.2-3.3,4.9c0,1.2,0.3,2.2,0.8,3.2c0.4,0.7,0.5,1.7,0.3,2.5
		c-0.2,0.5-0.2,1-0.2,1.4c0,1.8,1.1,3.4,2.3,3.4s2.3-1.6,2.3-3.4c0-0.4-0.1-0.8-0.2-1.3c-0.3-0.8-0.1-1.8,0.3-2.5
		c0.5-1,0.8-2.1,0.8-3.2C35.2,22.2,33.9,19.9,32.1,19.9z"/>
</g>
</svg>
