<?xml version="1.0" encoding="utf-8"?>
<!-- Generator: Adobe Illustrator 23.1.0, SVG Export Plug-In . SVG Version: 6.00 Build 0)  -->
<svg version="1.1" id="icons" xmlns="http://www.w3.org/2000/svg" xmlns:xlink="http://www.w3.org/1999/xlink" x="0px" y="0px"
	 viewBox="0 0 47 47" style="enable-background:new 0 0 47 47;" xml:space="preserve">
<style type="text/css">
	.st0{fill:#F6F9F9;}
	.st1{fill:#001D26;}
	.st2{fill:#ECECEF;}
</style>
<title>Soccer</title>
<g>
	<path class="st0" d="M23.4,32.5l8.6-6.3l7.9,2.6l2,8.6c-0.6,0.8-1.3,1.6-2.1,2.4c-2.5,2.5-5.6,4.4-8.8,5.5l-7.6-4.7L23.4,32.5z"/>
	<path class="st1" d="M23.4,32.5l-8.6-6.3l3.3-10.1h10.7l3.3,10.1L23.4,32.5z"/>
	<path class="st0" d="M14.8,26.2l8.6,6.3v8.2l-7.6,4.7c-3.3-1.1-6.3-3-8.9-5.5c-0.8-0.8-1.4-1.5-2.1-2.4l2-8.7L14.8,26.2z"/>
	<path class="st1" d="M31,45.4c-2.4,0.8-5,1.3-7.6,1.3c-2.6,0-5.2-0.4-7.6-1.3l7.6-4.7L31,45.4z"/>
	<path class="st2" d="M18.1,16.1l-3.3,10.1L7,28.8l-6.7-5.9c0.1-4.7,1.6-9.1,4.2-12.8l8.9-0.7L18.1,16.1z"/>
	<path class="st0" d="M28.8,16.1H18.1l-4.8-6.7l3.4-8.2c2.2-0.7,4.4-1,6.7-1c2.3,0,4.6,0.3,6.8,1l3.4,8.2L28.8,16.1z"/>
	<path class="st2" d="M39.9,28.8l-7.9-2.6l-3.3-10.1l4.9-6.7l8.8,0.7c2.6,3.7,4.1,8.2,4.2,12.9L39.9,28.8z"/>
	<g>
		<path class="st1" d="M4.9,37.5c-3.1-4-4.7-8.9-4.7-14c0-0.2,0-0.3,0-0.5L7,28.8L4.9,37.5z"/>
		<path class="st1" d="M4.4,10.1C5.2,9,6.1,8,7,7c2.7-2.7,6.1-4.7,9.7-5.8l-3.4,8.2L4.4,10.1z"/>
		<path class="st1" d="M42.5,10.1l-8.8-0.7l-3.4-8.2c3.6,1.1,6.9,3.1,9.7,5.8C40.8,8,41.7,9,42.5,10.1z"/>
		<path class="st1" d="M46.7,23c0,0.2,0,0.3,0,0.5c0,5.1-1.7,10-4.7,14l-2-8.6L46.7,23z"/>
	</g>
</g>
</svg>
