<?xml version="1.0" encoding="utf-8"?>
<!-- Generator: Adobe Illustrator 23.1.0, SVG Export Plug-In . SVG Version: 6.00 Build 0)  -->
<svg version="1.1" id="icons" xmlns="http://www.w3.org/2000/svg" xmlns:xlink="http://www.w3.org/1999/xlink" x="0px" y="0px"
	 viewBox="0 0 47 47" style="enable-background:new 0 0 47 47;" xml:space="preserve">
<style type="text/css">
	.st0{fill:#E6E6E6;}
	.st1{fill:#BC8F80;}
	.st2{fill:#9B7267;}
	.st3{fill:#DB4545;}
	.st4{fill:#BC3333;}
</style>
<title>Softball</title>
<g id="Playing_Catc">
	<ellipse class="st0" cx="23.5" cy="23.4" rx="23.1" ry="23"/>
	<path class="st1" d="M0.5,23.1c0.5-1.9,1.3-3.6,2.1-5.2c1-1.6,2.2-3.1,3.8-4.2c1.6-0.8,3.4-1.6,5.2-2c1.9-0.4,3.7-0.6,5.6-0.6
		c1.9-0.1,3.7,0,5.6,0s3.7-0.1,5.5-0.4c1.9-0.2,3.6-0.7,5.2-1.6c0.7-0.4,1.5-1,2.1-1.7c0.5-0.7,0.8-1.6,1-2.5l0,0
		c0,1-0.2,1.9-0.7,2.8c-0.5,0.7-1.3,1.5-2.1,2c-1.6,0.8-3.5,1.5-5.4,1.7c-2,0.2-3.7,0.4-5.6,0.2c-1.9,0-3.7-0.2-5.6-0.2
		s-3.5,0.2-5.3,0.5c-1.7,0.4-3.5,1.3-5,2.2C3.9,16.4,2,19.8,0.5,23.1L0.5,23.1z"/>
	<path class="st2" d="M11.1,42.5c3.4,0.4,6.9,0,10.1-1.2c3.3-1.3,6.2-3.3,8.4-5.8c1.3-1.3,2.2-2.7,3.5-3.8c1.2-1.3,2.5-2.5,3.7-3.5
		c1.4-1.2,2.9-2,4.7-2.7c0.8-0.4,1.7-0.5,2.7-0.6c0.8-0.1,1.7,0.1,2.5,0.6l0,0c-0.7-0.4-1.6-0.5-2.5-0.4c-0.8,0.1-1.6,0.4-2.3,0.7
		c-1.5,0.7-3,1.6-4.3,2.7c-1.4,1.2-2.7,2.2-3.7,3.4c-1.3,1.3-2.3,2.5-3.6,3.7c-2.5,2.5-5.4,4.5-8.5,6.2C18.1,43,14.4,43.4,11.1,42.5
		L11.1,42.5z"/>
	<path class="st3" d="M34.5,4.7c0.5,0.2,1,0.6,1.3,1c0.4,0.5,0.5,1.2,0.4,1.6l-0.4-0.4c0.4-0.1,0.8-0.1,1.3-0.1s0.7,0.1,1.2,0.4
		c-0.4,0-0.7,0-1.2,0c-0.4,0-0.7,0.1-1,0.2l-0.5,0.2V7.3c0-0.2,0-0.4,0-0.6c0-0.2-0.1-0.5-0.3-0.6C35.1,5.5,34.9,5.2,34.5,4.7z"/>
	<path class="st3" d="M32.2,6.6C32.8,7,33,7.4,33.2,8c0.1,0.2,0.1,0.6,0.1,0.8c0,0.4,0,0.6-0.1,0.8l-0.4-0.4c0.5-0.1,1.2-0.1,1.6,0
		c0.5,0.2,1,0.5,1.5,0.8c-0.5-0.1-1-0.1-1.5-0.2c-0.5,0-1,0-1.4,0.1l-0.6,0.1l0.1-0.5c0.1-0.2,0.1-0.5,0.1-0.7c0-0.2,0-0.5,0-0.7
		C32.8,7.6,32.5,7,32.2,6.6z"/>
	<path class="st3" d="M29.5,7.4c0.5,0.5,0.7,1,0.8,1.7c0,0.6-0.1,1.4-0.5,1.9l-0.2-0.5c0.2,0,0.6,0,0.8,0.1c0.2,0.1,0.5,0.2,0.6,0.4
		c0.4,0.4,0.7,0.7,0.8,1.3c-0.4-0.4-0.7-0.6-1.2-0.8c-0.2,0.1-0.4,0-0.6-0.1c-0.2,0-0.4-0.1-0.6-0.1h-0.6l0.2-0.5
		c0.2-0.5,0.5-1,0.5-1.5C29.9,8.7,29.8,8,29.5,7.4z"/>
	<path class="st3" d="M26.6,8.7c0.2,0.4,0.2,1,0.1,1.5c0,0.5-0.2,1-0.6,1.4V11c0.4,0.4,0.6,0.7,1,1.2c0.2,0.4,0.5,0.8,0.5,1.4
		c-0.4-0.8-1-1.5-1.9-1.9l-0.2-0.4l0.4-0.2C26.5,10.5,26.8,9.5,26.6,8.7z"/>
	<path class="st3" d="M23.5,9.3c0.1,0.4,0.1,0.8,0,1.3c0,0.2-0.1,0.4-0.2,0.6c-0.1,0.2-0.4,0.4-0.5,0.5l0.1-0.5
		c0.4,0.4,0.6,0.7,0.7,1.3c0.2,0.5,0.2,1,0.2,1.5c-0.4-0.8-0.8-1.6-1.5-2.3l-0.2-0.4l0.4-0.1c0.1-0.1,0.2-0.1,0.4-0.2
		c0.1-0.1,0.2-0.2,0.2-0.4C23.2,10.1,23.4,9.6,23.5,9.3z"/>
	<path class="st3" d="M19.7,9c0.1,0.4,0.1,0.7,0.1,1.2c-0.1,0.4-0.2,0.7-0.6,1.2v-0.4c0.2,0.5,0.2,1,0.4,1.5c0,0.5,0,1-0.2,1.5
		C19.3,13,19,12,18.8,11.1V11l0.1-0.1c0.2-0.2,0.4-0.5,0.6-0.7C19.6,9.7,19.7,9.4,19.7,9z"/>
	<path class="st3" d="M16.5,8.9c0.2,0.5,0.2,1,0.1,1.4c-0.1,0.2-0.1,0.5-0.4,0.6c-0.1,0.2-0.4,0.4-0.5,0.5l0.1-0.4
		c0.2,0.5,0.4,1,0.5,1.5c0.1,0.5,0,1-0.2,1.5c0-0.5-0.1-0.8-0.2-1.4c-0.1-0.4-0.2-0.8-0.5-1.3l-0.1-0.2l0.2-0.1
		c0.1-0.1,0.2-0.2,0.4-0.4c0.2-0.2,0.2-0.4,0.4-0.5C16.4,9.7,16.5,9.4,16.5,8.9z"/>
	<path class="st3" d="M12.5,9.1c0.2,0.4,0.5,0.8,0.5,1.4c0,0.2-0.1,0.5-0.1,0.7c-0.2,0.2-0.4,0.5-0.6,0.6l0.1-0.4
		c0.2,0.5,0.2,0.8,0.4,1.4c0,0.5,0,1-0.2,1.4c0-0.5,0-0.8-0.1-1.4c-0.2-0.2-0.4-0.7-0.6-1.2v-0.2l0.1-0.1c0.1-0.1,0.2-0.2,0.4-0.4
		c0.1-0.1,0.1-0.4,0.2-0.5C12.5,10.1,12.5,9.6,12.5,9.1z"/>
	<path class="st3" d="M9.1,9.7c0.4,0.4,0.6,1,0.6,1.4c0,0.4-0.1,1.2-0.3,1.7v-0.2c0.2,0.4,0.4,0.7,0.5,1.3c0.1,0.4,0.1,0.8,0,1.4
		c-0.2-0.5-0.3-1-0.4-1.4c-0.1-0.4-0.4-0.7-0.6-1l-0.1-0.2l0.1-0.1c0.2-0.5,0.4-0.8,0.4-1.4C9.4,10.8,9.2,10.3,9.1,9.7z"/>
	<path class="st3" d="M6,11.2c0.4,0.2,0.7,0.7,0.8,1.3C7,13,7,13.7,6.9,14.1l-0.1-0.4c0.4,0.4,0.7,0.7,1,1.2c0.2,0.5,0.2,1,0.2,1.5
		c0-0.3-0.3-0.7-0.6-1.1c-0.2-0.4-0.6-0.6-1-0.8l-0.1-0.1v-0.2c0.1-0.5,0.1-0.8,0.1-1.4C6.3,12.2,6.1,11.6,6,11.2z"/>
	<path class="st3" d="M3.5,13.4c0.4,0.2,0.7,0.6,1,1.2c0.2,0.5,0.2,1,0.2,1.5l-0.1-0.2c0.4,0.4,0.7,0.7,1,1.2
		C5.9,17.5,6,17.9,6,18.4c-0.2-0.4-0.5-0.7-0.8-1.2c-0.2-0.2-0.6-0.6-1-0.8l-0.1-0.1V16c0-0.5,0-0.8-0.1-1.3
		C3.9,14.3,3.8,13.8,3.5,13.4z"/>
	<path class="st3" d="M1.9,16.4c0.4,0,0.7,0.4,1,0.7C3,17.6,3.1,18,3.1,18.4v-0.3c0.4,0.2,0.7,0.5,1,0.8c0.2,0.4,0.5,0.7,0.6,1.2
		c-0.4-0.2-0.6-0.5-0.8-0.7c-0.5-0.4-0.7-0.6-1.2-0.7l-0.2-0.1v-0.2c0-0.4,0-0.6,0-1C2.4,16.8,2.1,16.6,1.9,16.4z"/>
	<path class="st3" d="M1.3,21c0.4,0.1,0.7,0.2,1.2,0.4c0.2,0.1,0.6,0.4,0.8,0.7c-0.5-0.4-1.3-0.6-1.9-0.5L1.3,21z"/>
	<path class="st3" d="M0.5,24.1c0.4,0,0.8,0,1.3,0c0.4,0.1,0.7,0.2,1,0.5c-0.6-0.4-1.4-0.4-2,0L0.5,24.1z"/>
	<path class="st4" d="M44.8,22.5c0.2,0.4,0.2,0.8,0.2,1.3c0,0.4-0.1,0.8-0.4,1.3l-0.1-0.4c0.4,0.2,0.6,0.5,0.7,0.8
		c0.2,0.4,0.2,0.7,0.1,1.2c-0.1-0.2-0.4-0.6-0.5-0.8c-0.2-0.2-0.5-0.4-0.7-0.6L43.8,25l0.1-0.2c0.1-0.4,0.2-0.7,0.4-1
		C44.7,23.4,44.8,22.9,44.8,22.5z"/>
	<path class="st4" d="M40.9,22.9c0.4,0.4,0.5,0.8,0.6,1.4c0,0.2,0,0.5,0,0.7c0,0.2-0.1,0.5-0.4,0.7v-0.5c0.4,0.2,0.6,0.5,0.8,0.8
		c0.2,0.4,0.5,0.7,0.5,1.2c-0.5-0.5-1.2-1-1.7-1.5l-0.2-0.1l0.1-0.2c0.1-0.1,0.1-0.4,0.2-0.5c0-0.2,0.1-0.4,0.1-0.6
		C41.2,23.7,41.2,23.4,40.9,22.9z"/>
	<path class="st4" d="M37.9,23.7c0.5,0.4,0.7,0.8,0.8,1.5c0.1,0.6,0.1,1.2,0,1.7l-0.2-0.3c0.2,0.1,0.4,0.1,0.5,0.2
		c0.1,0.1,0.2,0.2,0.4,0.4c0.2,0.2,0.4,0.6,0.5,1c-0.2-0.2-0.5-0.5-0.8-0.6c-0.1-0.1-0.2-0.1-0.4-0.2c-0.2-0.1-0.2-0.1-0.4-0.1h-0.2
		V27c0.1-0.5,0.1-1,0.1-1.5C38.3,24.8,38.1,24.3,37.9,23.7z"/>
	<path class="st4" d="M35,25.5c0.2,0.2,0.4,0.5,0.5,0.7c0.1,0.2,0.2,0.6,0.2,0.8c0.1,0.6,0.1,1.3,0.1,1.9l-0.2-0.4
		c0.5,0,1,0.2,1.4,0.5c0.4,0.2,0.7,0.6,0.8,1.2c-0.4-0.4-0.7-0.6-1.2-0.7c-0.4-0.1-0.8-0.2-1.3-0.2h-0.2v-0.2c0-0.6,0-1.2,0-1.7
		C35.4,26.7,35.2,26.2,35,25.5z"/>
	<path class="st4" d="M32,27.2c0.5,0.5,0.8,1.2,1.2,1.9c0.2,0.7,0.4,1.5,0.4,2.2l-0.2-0.2c0.5,0.1,1,0.2,1.4,0.5
		c0.5,0.2,0.8,0.5,1.2,1c-0.4-0.2-0.7-0.5-1.3-0.6c-0.5-0.1-1.1-0.2-1.6-0.2h-0.2v-0.2c0-0.7-0.1-1.4-0.2-2.1
		C32.5,28.6,32.2,27.9,32,27.2z"/>
	<path class="st4" d="M29.9,30.7c0.5,0.2,0.8,0.6,1.2,1.2c0.2,0.5,0.5,1,0.6,1.5l-0.2-0.2c0.4,0.1,0.8,0.2,1.3,0.5
		c0.4,0.2,0.7,0.5,0.8,0.8c-0.6-0.4-1.4-0.7-2.2-0.8h-0.1v-0.1c-0.1-0.5-0.4-1-0.5-1.4C30.5,31.6,30.2,31.2,29.9,30.7z"/>
	<path class="st4" d="M27.5,33.3c0.5,0.1,1,0.5,1.3,1c0.4,0.5,0.5,1,0.6,1.5L29,35.5c0.5-0.1,1,0,1.6,0.1c0.5,0.1,1,0.4,1.3,0.7
		c-0.5-0.1-0.8-0.2-1.4-0.4c-0.5,0-0.8,0-1.4,0h-0.2v-0.2c-0.1-0.5-0.2-0.8-0.5-1.4C28.1,34,27.9,33.5,27.5,33.3z"/>
	<path class="st4" d="M25.6,35.1c0.5,0.4,0.7,0.8,1,1.4c0.2,0.5,0.2,1.2,0.2,1.8l-0.2-0.4c0.5,0,1,0.1,1.5,0.4
		c0.5,0.1,0.8,0.4,1.3,0.7c-0.8-0.2-1.9-0.5-2.8-0.5h-0.2v-0.2c0-0.5,0-1-0.1-1.5C25.9,36.2,25.7,35.6,25.6,35.1z"/>
	<path class="st4" d="M22.8,37.1c0.5,0.4,0.8,0.8,1,1.5c0.1,0.6,0.1,1.2,0.1,1.7L23.5,40c0.5,0,0.8,0.1,1.4,0.2
		c0.4,0.1,0.7,0.5,1,0.7c-0.4-0.1-0.8-0.2-1.3-0.4c-0.4-0.1-0.7-0.1-1.2-0.1H23v-0.2c0-0.5,0-1.2,0-1.6S23,37.5,22.8,37.1z"/>
	<path class="st4" d="M19.7,38.7c0.4,0.5,0.6,1,0.7,1.6c0.1,0.6,0,1.3-0.1,1.7l-0.2-0.4c0.5,0.1,1,0.2,1.5,0.5
		c0.5,0.3,0.8,0.6,1.2,1c-0.4-0.2-0.8-0.5-1.4-0.6c-0.5-0.1-0.8-0.2-1.4-0.2h-0.4l0.1-0.4c0.1-0.5,0.2-1,0.2-1.5
		C20,39.9,19.9,39.2,19.7,38.7z"/>
	<path class="st4" d="M16.5,39.5c0.2,0.5,0.5,1.2,0.5,1.6c0,0.2,0,0.6-0.1,0.8c-0.1,0.4-0.2,0.6-0.4,0.8l-0.1-0.5
		c0.5,0.2,0.8,0.5,1.3,0.8c0.4,0.2,0.7,0.6,1,1.2c-0.4-0.2-0.7-0.5-1.3-0.7L16.1,43l-0.2-0.2l0.2-0.4c0.1-0.1,0.2-0.4,0.4-0.6
		s0.1-0.5,0.1-0.7C16.6,40.6,16.6,40,16.5,39.5z"/>
	<path class="st4" d="M12.4,42.6c0.2-0.4,0.4-0.8,0.5-1.3c0.1-0.5,0.1-0.8,0-1.4c0.2,0.5,0.4,1,0.2,1.4c0,0.5-0.1,1-0.2,1.4
		L12.4,42.6z"/>
	<path class="st4" d="M9.2,41.3c0.3-0.6,0.5-1.3,0.5-1.8c0.1,0.7,0.1,1.4,0,2.1L9.2,41.3z"/>
</g>
</svg>
