<?xml version="1.0" encoding="utf-8"?>
<!-- Generator: Adobe Illustrator 23.1.0, SVG Export Plug-In . SVG Version: 6.00 Build 0)  -->
<svg version="1.1" id="icons" xmlns="http://www.w3.org/2000/svg" xmlns:xlink="http://www.w3.org/1999/xlink" x="0px" y="0px"
	 viewBox="0 0 47 47" style="enable-background:new 0 0 47 47;" xml:space="preserve">
<style type="text/css">
	.st0{fill-rule:evenodd;clip-rule:evenodd;fill:#4C4F51;}
	.st1{fill-rule:evenodd;clip-rule:evenodd;fill:#8D8F92;}
	.st2{fill-rule:evenodd;clip-rule:evenodd;fill:#B8BABC;}
	.st3{fill-rule:evenodd;clip-rule:evenodd;fill:#A3A5A7;}
</style>
<title>SoulCycle</title>
<g id="SoulCycle">
	<path class="st0" d="M26.8,2.2L26.8,2.2l0.4,0.1h0.2h0.2L28,2.4l0,0c2.7,0.6,5.3,1.7,7.6,3.2l0.1,0.1L36,5.8L36.3,6l0.1,0.1
		c2.2,1.7,4.1,3.8,5.5,6.1l0,0c0.1,0.1,0.1,0.2,0.2,0.3l0.1,0.2l0.1,0.2l0.2,0.4l0,0c2.1,4.1,2.9,8.8,2.2,13.3l0,0l-0.1,0.4v0.2
		c0,0.1,0,0.2,0,0.2L44.5,28l0,0c-0.6,2.7-1.7,5.3-3.2,7.6l-0.1,0.1L41,36.1l-0.2,0.3l-0.1,0.1c-1.7,2.2-3.8,4.1-6.1,5.5l0,0
		l-0.4,0.2l-0.2,0.1l0.1,0.1l-0.4,0.2l0,0c-2,1.1-4.2,2-6.5,2.4c-2.3,0.4-4.6,0.4-6.9,0l0,0h-0.5h-0.2h-0.2l-0.4-0.1l0,0
		c-2.7-0.6-5.3-1.7-7.6-3.2l-0.1-0.1l-0.3-0.2l-0.3-0.3L10.4,41c-2.2-1.7-4.1-3.8-5.5-6.1l0,0c-0.1-0.1-0.2-0.2-0.2-0.4l-0.1-0.2
		l-0.2-0.1c-0.1-0.1-0.1-0.3-0.2-0.4l0,0c-1-2-1.8-4.2-2.2-6.5s-0.4-4.6,0-6.9l0,0v-0.4v-0.2c0-0.1,0-0.1,0-0.2l0.1-0.4l0,0
		c0.6-2.7,1.7-5.3,3.2-7.6l0.1-0.1l0.3-0.3l0.2-0.3c0.1,0,0.2-0.1,0.2-0.2C7.8,8.3,9.9,6.5,12.3,5l0,0l0.4-0.2l0.2-0.1l0.2-0.1
		l0.4-0.2l0,0c2-1,4.2-1.8,6.5-2.2C22.1,1.9,24.4,1.9,26.8,2.2L26.8,2.2z M23,20.9L23,20.9v-0.1l-0.1,0.2L23,20.9L23,20.9L23,20.9z
		 M22.8,20.6L22.8,20.6L22.2,20l-0.1,0.5l0.5,0.4C22.7,20.9,22.8,20.6,22.8,20.6z M22.1,20.6L22.1,20.6L22,21.2l0,0l0,0
		c0.1-0.1,0.3-0.2,0.5-0.2L22.1,20.6L22.1,20.6z M23.4,20.8L23.4,20.8c0.2,0,0.4,0,0.5,0l0,0l-0.2-0.5L23.4,20.8L23.4,20.8z
		 M24.5,21.1L24.5,21.1v-0.2l-0.2,0.1L24.5,21.1L24.5,21.1z M24.5,20.7L24.5,20.7l-0.3-0.8l-0.3,0.4l0.3,0.6L24.5,20.7L24.5,20.7z
		 M25.1,21.4L25.1,21.4l0.2,0.2v-0.5l-0.5,0.2L25.1,21.4L25.1,21.4z M25.5,21.7L25.5,21.7c0.1,0.1,0.1,0.1,0.1,0.2v-0.2H25.5z
		 M25.7,21.6L25.7,21.6l0.2-0.8l-0.5,0.2v0.6H25.7z M25.8,22.2L25.8,22.2L25.8,22.2L25.8,22.2c0.1,0.1,0.2,0.3,0.2,0.5l0.3-0.4
		L25.8,22.2L25.8,22.2z M26.2,23L26.2,23v0.1l0.1-0.1l-0.2-0.1C26.2,22.9,26.2,23,26.2,23L26.2,23z M26.5,22.9L26.5,22.9l0.6-0.6
		l-0.5-0.1l-0.4,0.5C26.2,22.8,26.5,22.9,26.5,22.9z M26.3,23.6L26.3,23.6c0,0.2,0,0.3,0,0.5l0,0v0.1l0.5-0.2L26.3,23.6L26.3,23.6z
		 M26.1,24.6L26.1,24.6h0.2l-0.1-0.1L26.1,24.6L26.1,24.6z M26.4,24.5L26.4,24.5l0.8-0.2L26.8,24l-0.6,0.3L26.4,24.5z M25.9,24.8
		L25.9,24.8l0.2,0.6h0.5l-0.5-0.7L25.9,24.8L25.9,24.8z M26.3,25.5L26.3,25.5l0.2,0.5l0.8,0.2l-0.4-0.7H26.3L26.3,25.5z M27.6,26.4
		L27.6,26.4l3.5,0.9l-2.1-1.6l-2-0.1L27.6,26.4z M28.9,25.5L28.9,25.5l-1.6-1.1l-0.9,0.2l0.5,0.8C27,25.4,28.9,25.5,28.9,25.5z
		 M25.7,25.1L25.7,25.1l-0.2,0.3h0.5L25.8,25L25.7,25.1L25.7,25.1L25.7,25.1z M25.3,25.5L25.3,25.5v0.3l0.8,0.2l-0.2-0.5H25.3
		L25.3,25.5z M25.2,25.6L25.2,25.6l-0.1,0.1h0.1V25.6L25.2,25.6z M24.9,25.8L24.9,25.8l-0.1,0.6l0.4,0.3v-0.9H24.9L24.9,25.8z
		 M24.8,26.7L24.8,26.7l-0.1,0.5l0.6,0.6V27L24.8,26.7L24.8,26.7z M25.5,28L25.5,28l2.6,2.6l-0.9-2.3l-1.7-1.1V28z M27,28L27,28
		l-0.7-1.8l-0.9-0.2l0.1,0.9C25.4,27,27,28,27,28z M23.9,26.4L23.9,26.4L23.9,26.4L23.9,26.4L23.9,26.4L23.9,26.4z M24,26.5L24,26.5
		l0.6,0.6l0.1-0.5l-0.5-0.4l0,0L24,26.5z M24.7,26.5L24.7,26.5l0.1-0.4c-0.1,0.1-0.3,0.1-0.4,0.2C24.3,26.3,24.7,26.5,24.7,26.5z
		 M23.6,26.4L23.6,26.4l-0.4,0.5l0.2,0.5l0.4-0.7L23.6,26.4L23.6,26.4z M23,27L23,27l-0.3,0.4l0.2,0.8l0.4-0.7L23,27z M23,28.5
		L23,28.5l0.9,3.4l0.3-2.5l-0.8-1.8L23,28.5L23,28.5z M24.4,29.2L24.4,29.2l0.2-1.9L24,26.6l-0.4,0.8L24.4,29.2L24.4,29.2z
		 M23.4,26.4L23.4,26.4c-0.1,0-0.3,0-0.4,0l0,0l0.2,0.4L23.4,26.4L23.4,26.4z M22.4,26.2L22.4,26.2L22.4,26.2L22.4,26.2L22.4,26.2
		L22.4,26.2z M22.5,26.4L22.5,26.4l0.2,0.8l0.3-0.4l-0.3-0.5l0,0L22.5,26.4L22.5,26.4z M22.2,26.1L22.2,26.1l-0.6,0.2v0.5l0.7-0.5
		v-0.2l0,0H22.2z M21.5,26.4L21.5,26.4l-0.5,0.2l-0.2,0.8l0.7-0.4V26.4L21.5,26.4z M20.7,27.6L20.7,27.6l-0.9,3.4l1.5-2l0.1-2
		L20.7,27.6L20.7,27.6z M21.5,28.9L21.5,28.9l1.1-1.6l-0.3-0.8L21.6,27L21.5,28.9L21.5,28.9z M21.9,25.8L21.9,25.8
		c-0.1,0-0.1-0.1-0.2-0.2v0.4l0.4-0.2L21.9,25.8L21.9,25.8L21.9,25.8z M21.6,25.6L21.6,25.6L21.6,25.6h-0.2l-0.2,0.8l0.5-0.2v-0.6
		H21.6z M21.4,25.3L21.4,25.3L21.4,25.3L21.4,25.3z M21.2,25.1L21.2,25.1L21.2,25.1L20.5,25l-0.3,0.4h0.9V25.1L21.2,25.1z M20.3,25
		L20.3,25l-0.5-0.1l-0.6,0.6H20L20.3,25L20.3,25z M19.1,25.7L19.1,25.7l-2.5,2.6l2.3-0.9l1.1-1.7H19.1L19.1,25.7z M19.1,27.2
		L19.1,27.2l1.8-0.7l0.2-0.9h-0.9L19.1,27.2L19.1,27.2z M20.7,24.1L20.7,24.1L20.7,24.1L20.7,24.1L20.7,24.1L20.7,24.1L20.7,24.1
		L20.7,24.1z M20.5,24.2L20.5,24.2l-0.6,0.6l0.5,0.1l0.3-0.5l0,0L20.5,24.2L20.5,24.2z M20.5,24.9L20.5,24.9h0.4
		c-0.1-0.1-0.1-0.3-0.2-0.4L20.5,24.9L20.5,24.9z M20.6,23.9L20.6,23.9l-0.5-0.4l-0.4,0.2l0.8,0.4C20.4,24.1,20.6,23.9,20.6,23.9z
		 M20,23.3L20,23.3L19.6,23l-0.7,0.2l0.7,0.4L20,23.3z M18.7,23.2L18.7,23.2l-3.4,0.9l2.5,0.3l1.8-0.9L18.7,23.2z M17.9,24.5
		L17.9,24.5l1.9,0.2l0.6-0.6l-0.8-0.4L17.9,24.5z M20.7,23.6L20.7,23.6c0-0.1,0-0.3,0-0.4l0,0l0,0l-0.4,0.2L20.7,23.6L20.7,23.6z
		 M20.9,22.5L20.9,22.5h-0.1l0.1,0.1V22.5z M20.6,22.6L20.6,22.6l-0.8,0.2l0.4,0.3l0.6-0.3l0,0L20.6,22.6z M21.3,22L21.3,22l0.2-0.2
		h-0.5l0.2,0.5C21.2,22.2,21.2,22.1,21.3,22L21.3,22L21.3,22z M21.7,21.6L21.7,21.6l0.2-0.1h-0.2V21.6L21.7,21.6z M21.5,21.4
		L21.5,21.4l-0.8-0.1l0.2,0.5h0.7L21.5,21.4L21.5,21.4z M14.7,7.3L14.7,7.3L14.6,7l0,0c-1,0.5-2,1.1-2.8,1.9L12,9.2l0,0l0.9,1.4
		l5.6,5.5L14.7,7.3z M12.2,10L12.2,10l-0.4-0.7l0,0L11.6,9l-0.1,0.1l0.3,0.3l0,0l0.6,0.6L12.2,10z M18.4,16.4L18.4,16.4l-5.3-5.3
		l4.2,6.4l2.2,1.5L18.4,16.4L18.4,16.4z M19.6,19L19.6,19l-2.1-1.4l2,3l0.8,0.2L19.6,19L19.6,19z M19.3,20.6L19.3,20.6l-2.1-3.1
		l-8.1-5.4l0,0l-0.4-0.2c-0.2,0.3-0.5,0.6-0.7,0.9l-0.4,0.5l0.3,0.2l0,0l7.8,6L19.3,20.6L19.3,20.6z M11.2,9.2L11.2,9.2
		c-0.8,0.7-1.7,1.6-2.4,2.5l0.3,0.2l0,0l7.9,5.3l-4.4-6.6l-1.1-1l0,0l-0.3-0.3L11.2,9.2z M20.4,21.1L20.4,21.1l-0.7-0.2l0.4,0.7h0.5
		L20.4,21.1L20.4,21.1z M20.7,21.8L20.7,21.8h-0.5l0.5,0.7l0.3-0.1L20.7,21.8L20.7,21.8z M20.5,22.5L20.5,22.5L20,21.7l-1.9-0.1
		l1.5,1.1L20.5,22.5z M17.9,21.5L17.9,21.5l2,0.1l-0.5-0.7l-3.4-0.9L17.9,21.5L17.9,21.5z M20.5,20.9L20.5,20.9l0.9,0.2l-0.1-0.9
		l-1.6-1L20.5,20.9z M19.7,19L19.7,19l1.7,1.1v-0.9l-2.6-2.6L19.7,19L19.7,19z M21.5,19.3L21.5,19.3v0.8l0.4,0.3l0.1-0.5L21.5,19.3
		L21.5,19.3z M22,20.6L22,20.6l-0.4-0.3v0.9l0.3,0.1L22,20.6L22,20.6z M18.7,16.3L18.7,16.3l2.7,2.6L21.2,15l-4.4-8.6l0,0l-0.2-0.4
		c-0.6,0.2-1.1,0.5-1.8,0.7l0.1,0.4l0,0L18.7,16.3z M16.8,5.9L16.8,5.9L17,6.4l0,0l4.2,8.4l-0.5-7.9l-0.4-1.4l0,0L20,5.1
		c-0.9,0.2-1.8,0.4-2.6,0.7L16.8,5.9L16.8,5.9z M20.7,7.5L20.7,7.5l0.4,7.6l1.1,2.4l0.3-2.6L20.7,7.5L20.7,7.5z M22.3,17.7
		L22.3,17.7l-0.9-2.3l0.2,3.6l0.6,0.6l0.3-2L22.3,17.7z M24,5.1L24,5.1L24,5.1V4.8h-0.5c-0.8,0-1.8,0.1-2.6,0.2h-0.1v0.4l0,0
		l0.1,1.5l2.1,7.6L24,5.1L24,5.1z M20.5,6.2L20.5,6.2V5.3l0,0V5h-0.2l0.1,0.4l0,0l0.2,0.7H20.5z M22.2,19.9L22.2,19.9l0.7,0.6
		l0.4-0.8l-0.8-1.8L22.2,19.9z M22.5,17.7L22.5,17.7l0.9,1.8l0.4-0.8l-0.9-3.5L22.5,17.7z M23.9,18.9L23.9,18.9l-0.4,0.8l0.2,0.5
		l0.3-0.4C24.1,19.7,23.9,18.9,23.9,18.9z M23.7,20.2L23.7,20.2l-0.2-0.3L23,20.7l0.2,0.2l0.4-0.5V20.2z M22.8,14.7L22.8,14.7
		l1.1,3.9l1.8-3.4l0.6-9.7l0,0V4.9c-0.6-0.1-1.3-0.2-1.9-0.2v0.4l0,0l-1.4,9.7L22.8,14.7z M26.7,4.9L26.7,4.9h-0.2v0.4l0,0l-0.6,9.3
		l3.5-7.2L29.7,6l0,0l0.1-0.4c-1-0.3-2.1-0.6-3.1-0.8L26.7,4.9z M29.3,8.2L29.3,8.2l-3.4,6.9l-0.2,2.6l1.7-2.1L29.3,8.2z M25.5,17.9
		L25.5,17.9l0.2-2.5l-1.7,3.3l0.2,0.8L25.5,17.9L25.5,17.9z M33.2,7.9L33.2,7.9L33.2,7.9l0.2-0.3c-0.9-0.6-2-1.1-3-1.6l-0.2,0.3l0,0
		l-0.5,1.3l-2.1,7.8L33.2,7.9z M29.7,7L29.7,7L30,6.4l0,0L30.2,6h-0.1L30,6.5l0,0L29.8,7H29.7z M24.3,19.8L24.3,19.8l0.2,0.9
		l0.8-0.5l0.1-2C25.5,18.2,24.3,19.8,24.3,19.8z M25.6,18L25.6,18l-0.1,2.1l0.7-0.5l0.9-3.5C27.2,15.9,25.6,18,25.6,18z M26.3,19.8
		L26.3,19.8l-0.7,0.4v0.6l0.5-0.2L26.3,19.8L26.3,19.8z M25.3,20.8L25.3,20.8v-0.5l-0.7,0.5l0.1,0.3L25.3,20.8L25.3,20.8z
		 M27.4,15.7L27.4,15.7l-0.9,3.8l3.2-2.2l5.2-8.1l0,0l0.2-0.4c-0.3-0.2-0.6-0.5-0.9-0.7l-0.6-0.4L33.3,8l0,0L27.4,15.7L27.4,15.7z
		 M37.8,11.4L37.8,11.4c-0.7-0.8-1.6-1.7-2.5-2.4l-0.2,0.3l0,0L30,17l6.8-4.5l0.8-0.9l0,0L37.8,11.4L37.8,11.4z M36.3,13.1
		L36.3,13.1l-6.5,4.3l-1.5,2.3l2.5-1.1L36.3,13.1L36.3,13.1z M28,19.7L28,19.7l1.5-2.2l-3.1,2l-0.2,1L28,19.7L28,19.7z M39.7,14.9
		L39.7,14.9L39.7,14.9l0.4-0.2l0,0c-0.5-1-1.1-2-1.9-2.8l-0.3,0.3l0,0l-1,0.7l-5.6,5.7L39.7,14.9L39.7,14.9z M37.3,12.3L37.3,12.3
		l0.5-0.3v-0.1l0.3-0.2v-0.1l-0.3,0.3l0,0l-0.4,0.4L37.3,12.3z M26.1,20.6L26.1,20.6l-0.2,0.9h0.9l1.1-1.8L26.1,20.6L26.1,20.6z
		 M28.1,19.9L28.1,19.9L27,21.6h0.9l2.6-2.6L28.1,19.9z M27.7,21.7L27.7,21.7h-0.8l-0.3,0.5l0.6,0.1L27.7,21.7L27.7,21.7z
		 M26.5,22.2L26.5,22.2l0.3-0.4h-0.9l-0.1,0.3L26.5,22.2L26.5,22.2z M30.8,18.8L30.8,18.8l-2.7,2.7l3.9-0.3l8.6-4.3l0,0l0.4-0.2
		c-0.2-0.6-0.5-1.3-0.8-1.8l-0.4,0.2l0,0L30.8,18.8L30.8,18.8z M41.2,16.9L41.2,16.9l-0.4,0.2l0,0l-8.4,4.1l8-0.5l1.1-0.3l0,0
		l0.4-0.1c-0.2-0.9-0.4-1.8-0.7-2.6c-0.1-0.2-0.1-0.4-0.2-0.6L41.2,16.9z M39.8,20.8L39.8,20.8l-7.7,0.5l-2.6,1.1l2.6,0.3l7.5-2.1
		L39.8,20.8z M29.4,22.5L29.4,22.5l2.3-1.1l-3.8,0.2l-0.6,0.6L29.4,22.5L29.4,22.5z M41.8,24.2L41.8,24.2L41.8,24.2l0.4,0.1
		c0-0.2,0-0.4,0-0.6c0-0.9-0.1-1.9-0.2-2.8h-0.4l0,0l-1.3,0.1L32.5,23L41.8,24.2L41.8,24.2z M41.1,20.6L41.1,20.6h0.5v-0.1H42l0,0
		l-0.4,0.1l0,0l-0.5,0.1V20.6z M27.2,22.4L27.2,22.4l-0.7,0.7l0.8,0.4l1.8-0.8C29.1,22.6,27.2,22.4,27.2,22.4z M29.4,22.7L29.4,22.7
		l-1.8,0.9l0.8,0.4l3.5-0.9L29.4,22.7z M28.1,24L28.1,24l-0.7-0.3L26.9,24l0.4,0.3L28.1,24z M26.7,23.9L26.7,23.9l0.5-0.2l-0.8-0.4
		l-0.2,0.2C26.2,23.5,26.7,23.9,26.7,23.9z M32.3,23L32.3,23l-3.8,1l3.4,1.8l9.7,0.6l0,0h0.4c0.1-0.6,0.1-1.4,0.2-1.9h-0.5l0,0
		L32.3,23L32.3,23z M42.1,26.7L42.1,26.7v-0.1h-0.4l0,0L32.4,26l7.2,3.5l1.4,0.3l0,0l0.4,0.1c0.4-1,0.6-2.1,0.8-3.2L42.1,26.7z
		 M38.9,29.4L38.9,29.4l-7-3.4l-2.6-0.2l2.1,1.7L38.9,29.4L38.9,29.4z M29.1,25.6L29.1,25.6l2.6,0.2l-3.3-1.7l-0.9,0.2L29.1,25.6
		L29.1,25.6z M39.1,33.3L39.1,33.3L39.1,33.3l0.4,0.3c0.6-1,1.1-2.1,1.6-3.1l-0.4-0.2l0,0l-1.1-0.5l-7.8-2.1
		C31.7,27.6,39.1,33.3,39.1,33.3z M40.1,29.8L40.1,29.8l0.5,0.3l0,0l0.4,0.2v-0.1l-0.4-0.1V30L40.1,29.8L40.1,29.8z M31.3,27.5
		L31.3,27.5l-3.6-0.9l2.1,3.2l8.1,5.4l0,0l0.4,0.2c0.2-0.2,0.4-0.5,0.6-0.7c0.2-0.3,0.3-0.5,0.5-0.7L39,33.7l0,0L31.3,27.5
		L31.3,27.5z M35.6,38L35.6,38c0.8-0.7,1.7-1.6,2.4-2.4l-0.3-0.2l0,0l-7.8-5.2l4.4,6.6l1,1l0,0L35.6,38L35.6,38z M33.9,36.3
		L33.9,36.3l-4.3-6.4l-2.3-1.5l1,2.5L33.9,36.3z M27.2,28.1L27.2,28.1l2.2,1.5l-2-3l-0.9-0.2L27.2,28.1L27.2,28.1z M32,39.8L32,39.8
		l0.2,0.4h0.1l0,0c1-0.5,2-1.1,2.8-1.9L34.9,38l0,0l-0.7-1.1l-5.7-5.6L32,39.8L32,39.8z M34.7,37.3L34.7,37.3l0.4,0.5l0,0l0.3,0.4
		l0.1-0.1l-0.3-0.3l0,0L34.7,37.3L34.7,37.3z M28.2,30.8L28.2,30.8l-2.7-2.6l0.2,3.8l4.4,8.8l0,0l0.2,0.4c0.6-0.2,1.1-0.5,1.8-0.7
		l-0.2-0.5l0,0L28.2,30.8L28.2,30.8z M30.1,41.3L30.1,41.3l-0.2-0.4l0,0l-4.3-8.4l0.5,7.9l0.4,1.5l0,0l0.1,0.4
		c0.9-0.2,1.8-0.4,2.6-0.7l0.6-0.2H30.1z M26.1,39.6L26.1,39.6L25.6,32l-1.3-2.4l-0.3,2.6L26.1,39.6L26.1,39.6z M24.5,29.4
		L24.5,29.4l1.1,2.3L25.4,28l-0.6-0.6L24.5,29.4z M22.7,42L22.7,42L22.7,42v0.4h0.7c0.8,0,1.8-0.1,2.6-0.2h0.1v-0.5l0,0l-0.1-1.4
		L24,32.6L22.7,42L22.7,42z M26.4,41L26.4,41v0.8l0,0v0.5h0.2l-0.1-0.4l0,0l-0.2-0.8L26.4,41z M24,32.3L24,32.3l-1-3.6L21.4,32
		l-0.6,9.8l0,0v0.6c0.6,0.1,1.3,0.1,1.9,0.2l0.1-0.4l0,0L24,32.3L24,32.3z M20.2,42.2L20.2,42.2h0.2v-0.4l0,0l0.6-9.5l-3.5,7
		l-0.4,1.6l0,0L17,41.4c1,0.3,2.1,0.6,3.1,0.8H20.2z M17.8,38.7L17.8,38.7l3.3-6.8l0.2-2.6l-1.6,2.1L17.8,38.7L17.8,38.7z
		 M21.5,29.2L21.5,29.2l-0.1,2.4l1.6-3.2l-0.3-0.8L21.5,29.2z M13.7,39.2L13.7,39.2L13.7,39.2l-0.3,0.3c0.9,0.6,2,1.1,3,1.6l0.2-0.4
		l0,0l0.7-1.5l2-7.6L13.7,39.2L13.7,39.2z M17.3,39.9L17.3,39.9l-0.4,0.8l0,0l-0.2,0.4l0.2,0.1l0.1-0.4h0.1L17.3,39.9L17.3,39.9z
		 M19.6,31.3L19.6,31.3l0.9-3.6l-3.1,2.1L12,37.9l0,0l-0.2,0.4c0.3,0.2,0.6,0.5,0.9,0.7l0.5,0.4l0.3-0.3l0,0L19.6,31.3L19.6,31.3z
		 M9.1,35.8L9.1,35.8c0.7,0.8,1.6,1.7,2.5,2.4l0.2-0.3l0,0l5.3-7.9l-6.6,4.3l-1.3,1.3l0,0L9.1,35.8L9.1,35.8z M11,33.8L11,33.8
		l6.3-4.2l1.4-2.2l-2.4,1L11,33.8L11,33.8z M19,27.3L19,27.3l-1.4,2.1l3-2l0.2-0.8C20.8,26.6,19,27.3,19,27.3z M7.2,32.2L7.2,32.2
		L7.2,32.2l-0.4,0.2v0.1c0.5,0.9,1.1,1.9,1.9,2.8l0.4-0.2l0,0l1.4-1l5.6-5.5L7.2,32.2L7.2,32.2z M10,34.6L10,34.6l-0.8,0.5v0.1
		l-0.4,0.2l0.1,0.2l0.3-0.3h0.1L10,34.6L10,34.6z M16.3,28.3L16.3,28.3l2.6-2.6L15.1,26l-8.9,4.4l0,0l-0.4,0.2
		c0.2,0.5,0.5,1.1,0.7,1.7L7,32l0,0L16.3,28.3L16.3,28.3z M5.8,30.3L5.8,30.3l0.4-0.2l0,0l8.5-4.3L7,26.4l-1.8,0.4l0,0l-0.4,0.1
		c0.2,0.9,0.4,1.8,0.7,2.6c0.1,0.2,0.1,0.4,0.2,0.6L5.8,30.3z M7.6,26.3L7.6,26.3l7.5-0.5l2.3-1.1l-2.6-0.3L7.6,26.3L7.6,26.3z
		 M17.7,24.6L17.7,24.6l-2.3,1.1l3.5-0.2l0.6-0.6L17.7,24.6z M5,22.9L5,22.9L5,22.9H4.6c0,0.2,0,0.4,0,0.7c0,0.8,0.1,1.8,0.2,2.6
		v0.1h0.4l0,0L7,26.3l7.5-2.1L5,22.9L5,22.9z M6.4,26.5L6.4,26.5l-1,0.1v0.1H4.8c0,0.1,0,0.1,0,0.2l0.4-0.1l0,0L6.4,26.5L6.4,26.5z
		 M14.8,24.1L14.8,24.1l3.6-1l-3.3-1.6l-9.8-0.6l0,0H4.8c-0.1,0.6-0.1,1.3-0.1,1.8h0.4l0,0l9.8,1.4v0.1H14.8z M4.8,20.3L4.8,20.3
		v0.2h0.4l0,0l9.5,0.6l-7.1-3.4L6,17.3l0,0l-0.4-0.1C5.3,18.2,5,19.3,4.8,20.3L4.8,20.3z M8.3,17.9L8.3,17.9l6.8,3.3l2.6,0.2
		l-2.2-1.6L8.3,17.9L8.3,17.9z M17.9,21.6L17.9,21.6l-2.5-0.2l3.2,1.6l0.8-0.2L17.9,21.6L17.9,21.6z M7.8,13.8L7.8,13.8L7.8,13.8
		l-0.3-0.2c-0.6,0.9-1.1,2-1.6,3l0.3,0.2l0,0l1.6,0.7l7.6,2L7.8,13.8L7.8,13.8z M7.1,17.4L7.1,17.4L6.2,17l0,0l-0.3-0.2
		c0,0.1,0,0.1,0,0.2l0.4,0.1v0.1L7.1,17.4z"/>
	<path class="st1" d="M23.4,3.5c11,0,20.1,9,20.1,20.1s-9.1,20-20.1,20s-20.1-9-20.1-20.1S12.4,3.5,23.4,3.5L23.4,3.5z M23.4,4.9
		L23.4,4.9c-10.3,0-18.8,8.3-18.8,18.8c0,10.3,8.4,18.8,18.8,18.8S42.2,34,42.2,23.7l0,0C42.2,13.2,33.8,4.9,23.4,4.9L23.4,4.9
		L23.4,4.9z"/>
	<path class="st2" d="M23.4,26.5c1.6,0,2.9-1.3,2.9-2.9c0-1.6-1.3-2.9-2.9-2.9c-1.6,0-2.9,1.3-2.9,2.9S21.9,26.5,23.4,26.5
		L23.4,26.5z"/>
	<path class="st3" d="M23.4,21.4c1.3,0,2.3,1,2.3,2.3s-1,2.3-2.3,2.3s-2.3-1-2.3-2.3l0,0C21.2,22.3,22.2,21.4,23.4,21.4z M23.4,21.6
		L23.4,21.6c-1.1,0-2,0.9-2,2c0,1.1,0.9,2,2,2c1.1,0,2-0.9,2-2S24.6,21.6,23.4,21.6L23.4,21.6z"/>
</g>
</svg>
