<?xml version="1.0" encoding="utf-8"?>
<!-- Generator: Adobe Illustrator 23.1.0, SVG Export Plug-In . SVG Version: 6.00 Build 0)  -->
<svg version="1.1" id="icons" xmlns="http://www.w3.org/2000/svg" xmlns:xlink="http://www.w3.org/1999/xlink" x="0px" y="0px"
	 viewBox="0 0 47 47" style="enable-background:new 0 0 47 47;" xml:space="preserve">
<style type="text/css">
	.st0{fill:#4B6975;}
	.st1{fill:#608796;}
	.st2{fill:none;stroke:#608796;stroke-width:1.96;stroke-miterlimit:10;}
	.st3{fill:#FF2626;}
	.st4{fill:#FFFFFF;}
	.st5{fill:#FFD119;}
	.st6{fill:#DBDBDB;}
</style>
<title>SpartanSGXWODAbs</title>
<g id="Insanity">
	<rect x="13.6" y="12.8" transform="matrix(0.8618 -0.5072 0.5072 0.8618 -5.571 9.4291)" class="st0" width="1.8" height="4.4"/>
	<path class="st1" d="M12.5,12.1l0.5-0.3c0.4-0.2,0.9-0.1,1.1,0.3l1.8,3l0,0l-2,1.1l0,0l-1.8-3C12.1,12.8,12.2,12.3,12.5,12.1z"/>
	<rect x="30.2" y="14" transform="matrix(0.5072 -0.8618 0.8618 0.5072 3.139 35.2242)" class="st0" width="4.4" height="1.8"/>
	<path class="st1" d="M33,16.3l-2-1.1l0,0l1.8-3c0.2-0.4,0.7-0.5,1.1-0.3l0.5,0.3c0.4,0.2,0.5,0.7,0.3,1.1L33,16.3L33,16.3z"/>
	<circle class="st2" cx="23.5" cy="7.3" r="5.6"/>
	<rect x="21.7" y="10.7" class="st0" width="3.5" height="4.6"/>
	<circle class="st3" cx="23.5" cy="29.6" r="15.7"/>
	<circle class="st4" cx="23.5" cy="29.6" r="13"/>
	<path class="st5" d="M31.6,24.5l1.6-0.9c-0.9-1.6-2.2-2.8-3.7-3.7l-0.9,1.6C29.8,22.2,30.9,23.2,31.6,24.5z"/>
	<path class="st5" d="M28,21.1l0.9-1.6c-1.6-0.8-3.3-1.4-5.1-1.4V20C25.3,20,26.7,20.4,28,21.1z"/>
	<path class="st5" d="M33.1,29.3h1.9c-0.1-1.8-0.5-3.5-1.4-5.1L32,25.1C32.6,26.4,33.1,27.8,33.1,29.3z"/>
	<path class="st5" d="M33.1,29.9c0,1.5-0.4,2.9-1.1,4.2l1.6,0.9c0.8-1.6,1.4-3.3,1.4-5.1H33.1z"/>
	<path class="st5" d="M15.3,34.7l-1.6,0.9c0.9,1.6,2.2,2.8,3.7,3.7l0.9-1.6C17.1,37,16,35.9,15.3,34.7z"/>
	<path class="st5" d="M23.7,39.2v1.9c1.8,0,3.5-0.5,5.1-1.4l-0.9-1.6C26.6,38.8,25.3,39.2,23.7,39.2z"/>
	<path class="st5" d="M28.6,37.8l0.9,1.6c1.6-0.9,2.8-2.2,3.7-3.7l-1.6-0.9C30.9,35.9,29.8,37.1,28.6,37.8z"/>
	<path class="st5" d="M13.8,29.9H12c0,1.8,0.5,3.5,1.4,5.1l1.6-0.9C14.3,32.8,13.8,31.3,13.8,29.9z"/>
	<path class="st5" d="M18.9,38.1L18,39.7c1.6,0.8,3.3,1.4,5.1,1.4v-1.8C21.6,39.2,20.2,38.8,18.9,38.1z"/>
	<path class="st6" d="M15,25.1l-1.6-0.9c-0.8,1.6-1.4,3.3-1.4,5.1h1.9C13.8,27.8,14.3,26.4,15,25.1z"/>
	<path class="st6" d="M18.3,21.5l-0.9-1.6c-1.6,0.9-2.8,2.2-3.7,3.7l1.6,0.9C16.1,23.2,17.2,22.2,18.3,21.5z"/>
	<path class="st6" d="M23.1,20v-1.9c-1.8,0.1-3.5,0.5-5.1,1.5l0.9,1.6C20.3,20.4,21.6,20,23.1,20z"/>
	<path class="st1" d="M20.9,8.4h5.2c0.5,0,1,0.4,1,1v0.7c0,0.5-0.4,1-1,1h-5.2c-0.5,0-1-0.4-1-1V9.4C19.9,8.8,20.3,8.4,20.9,8.4z"/>
	<path class="st1" d="M23.5,27.2c-1.7,0-3-1.4-3-2.9c0-1.7,1.4-3,2.9-3c1.7,0,3,1.4,3,2.9l0,0C26.4,25.9,25.2,27.2,23.5,27.2z
		 M23.5,21.8c-1.4,0-2.5,1.1-2.5,2.5s1.1,2.5,2.5,2.5c1.4,0,2.5-1.1,2.5-2.5S24.9,21.8,23.5,21.8L23.5,21.8L23.5,21.8z"/>
	<polygon class="st0" points="23.5,22.2 23.6,24.7 23.3,24.7 	"/>
	<path class="st0" d="M23.5,30.4c0.3,0,0.6-0.2,0.7-0.5l8.5-0.6h-8.4c-0.1-0.3-0.4-0.4-0.7-0.4c-0.3,0-0.5,0.2-0.7,0.4h-1.6v0.9
		l1.6-0.1C23,30.3,23.2,30.4,23.5,30.4z M23.3,30c-0.2-0.1-0.3-0.2-0.3-0.4c0-0.2,0.1-0.3,0.2-0.4c0.1,0,0.1,0,0.2-0.1
		c0.1,0,0.1,0,0.2,0.1c0.1,0.1,0.2,0.2,0.2,0.3c0,0.1-0.1,0.3-0.2,0.4c-0.1,0-0.1,0.1-0.2,0.1C23.4,30,23.4,30,23.3,30z"/>
</g>
</svg>
