<?xml version="1.0" encoding="utf-8"?>
<!-- Generator: Adobe Illustrator 23.1.0, SVG Export Plug-In . SVG Version: 6.00 Build 0)  -->
<svg version="1.1" id="icons" xmlns="http://www.w3.org/2000/svg" xmlns:xlink="http://www.w3.org/1999/xlink" x="0px" y="0px"
	 viewBox="0 0 47 47" style="enable-background:new 0 0 47 47;" xml:space="preserve">
<style type="text/css">
	.st0{fill:#47568C;}
	.st1{fill:#2C3B73;}
	.st2{fill:#DCDCFF;}
	.st3{fill:#FF3943;}
</style>
<title>spinbicycling</title>
<g>
	<path class="st0" d="M6.2,42.3h2.6v3.3H6.2V42.3z"/>
	<path class="st0" d="M35.7,42.3h2.6v3.3h-2.6V42.3z"/>
	<path class="st1" d="M35.7,42.3h2.6v3.3h-2.6V42.3z"/>
	<path class="st0" d="M40.4,22h-2.6V9.2l5.5-4.8V1.5h2.6v4l-5.5,4.8V22z"/>
	<path class="st1" d="M40.4,22h-2.6V9.2l5.5-4.8V1.5h2.6v4l-5.5,4.8V22z"/>
	<path class="st2" d="M10.6,18.3h2.6v5.6h-2.6V18.3z"/>
	<path class="st3" d="M35.4,20.6l-6.3,9.1h-7.3c-0.6-1.9-1.8-3.6-3.4-4.8c-1.9-1.5-4.2-2.3-6.6-2.3c-5.9,0-10.6,4.6-10.6,10.5l0,0
		v4.2c0,3.5,2.8,6.3,6.3,6.3H37c3.5,0,6.3-2.8,6.3-6.3V20.6H35.4z"/>
	<path class="st0" d="M14.9,13l-4.9-0.8c-0.2,0-0.4-0.1-0.7-0.1c-2.2,0-4,1.8-4,4l0,0v3.6h14.2v-1.3C19.4,15.7,17.5,13.4,14.9,13z"
		/>
	<path class="st0" d="M11.8,27.9c-2.6,0.1-4.7,2.2-4.7,4.9c0.1,2.6,2.2,4.7,4.9,4.7c2.6,0,4.7-2.2,4.7-4.8
		C16.7,30.1,14.6,27.9,11.8,27.9z"/>
	<path class="st2" d="M19.4,38.9h-4.2l-4.3-5.3l2-1.7l3.6,4.3h2.9L19.4,38.9z"/>
</g>
</svg>
