<?xml version="1.0" encoding="utf-8"?>
<!-- Generator: Adobe Illustrator 23.1.0, SVG Export Plug-In . SVG Version: 6.00 Build 0)  -->
<svg version="1.1" id="icons" xmlns="http://www.w3.org/2000/svg" xmlns:xlink="http://www.w3.org/1999/xlink" x="0px" y="0px"
	 viewBox="0 0 47 47" style="enable-background:new 0 0 47 47;" xml:space="preserve">
<style type="text/css">
	.st0{fill:#3F52E9;}
	.st1{fill:#2E3192;}
	.st2{fill:#F4F5F7;}
	.st3{fill:#0FB397;}
	.st4{fill:#FF9098;}
	.st5{fill:#FB4B72;}
</style>
<title>Squash</title>
<path class="st0" d="M34.4,1.4c-4.1,0-7.8,2.2-9.6,5.9c-0.8,1.7-1.6,3.5-2.2,5.2c-0.7,1.8-1.2,3.8-1.6,5.7l-1.5,7l-8.6,8.6l1.8,1.8
	l8.6-8.6l7-1.5c3.8-0.8,7.6-2.1,11-3.9c3.6-1.8,5.9-5.6,5.9-9.6C45.1,6.3,40.3,1.5,34.4,1.4z"/>
<path class="st1" d="M11.6,35l0.9,0.9l8.6-8.6l7-1.5c3.8-0.8,7.6-2.1,11-3.9c5.3-2.7,7.5-9.2,4.7-14.5c-0.5-1-1.2-1.9-2-2.8L11.6,35
	z"/>
<path class="st2" d="M40.2,6.4C37,3.2,31.8,3.2,28.5,6.5c-0.6,0.6-1.1,1.3-1.4,2c-0.8,1.6-1.5,3.3-2.1,4.9c-0.6,1.7-1.1,3.6-1.5,5.4
	l-1.2,5.5l5.5-1.2c3.6-0.8,7-2,10.3-3.7c4.1-2,5.7-7,3.6-11.1C41.3,7.7,40.9,7,40.2,6.4z"/>
<path class="st3" d="M43.7,30.6c0,2.1-1.7,3.9-3.9,3.9s-3.9-1.7-3.9-3.9s1.7-3.9,3.9-3.9C42,26.8,43.7,28.4,43.7,30.6z"/>
<path class="st4" d="M5,45.1l-3.6-3.6l8.6-8.6h3.6v3.6L5,45.1z"/>
<path class="st5" d="M5,45.1l8.6-8.6v-3.6L3.3,43.3L5,45.1z"/>
</svg>
