<?xml version="1.0" encoding="utf-8"?>
<!-- Generator: Adobe Illustrator 23.1.0, SVG Export Plug-In . SVG Version: 6.00 Build 0)  -->
<svg version="1.1" id="icons" xmlns="http://www.w3.org/2000/svg" xmlns:xlink="http://www.w3.org/1999/xlink" x="0px" y="0px"
	 viewBox="0 0 47 47" style="enable-background:new 0 0 47 47;" xml:space="preserve">
<style type="text/css">
	.st0{fill:#334A61;}
</style>
<title>Squats</title>
<path id="Squats" class="st0" d="M21,0.9c-2.5,0-4.5,2.1-4.5,4.7s2.1,4.5,4.7,4.5s4.5-2.1,4.5-4.7l0,0C25.6,2.8,23.6,0.8,21,0.9z
	 M18.3,12.2c-1.7,0-3.2,1-4,2.3c0,0-2.7,9.7-3.7,12.2c-0.8,2.1-0.5,4.9,1.4,6c1.7,1.1,10,1.9,12.5,2.2l-6.8,11.3h5.7l6.1-10.4
	c0.6-1.4,0.6-3.1-0.2-4.3c-1-1-2.2-1.7-3.6-1.9c-1.6-0.4-4.7-1.1-6.8-1.6l3.6-11.3h14.6v-4.5C37.1,12.2,18.3,12.2,18.3,12.2z"/>
</svg>
