<?xml version="1.0" encoding="utf-8"?>
<!-- Generator: Adobe Illustrator 23.1.0, SVG Export Plug-In . SVG Version: 6.00 Build 0)  -->
<svg version="1.1" id="icons" xmlns="http://www.w3.org/2000/svg" xmlns:xlink="http://www.w3.org/1999/xlink" x="0px" y="0px"
	 viewBox="0 0 47 47" style="enable-background:new 0 0 47 47;" xml:space="preserve">
<style type="text/css">
	.st0{fill:#324A5E;}
	.st1{fill:#FF7058;}
</style>
<title>Stairmaster</title>
<g id="Stair_Treadmill_Ergometer">
	<path class="st0" d="M31.6,10.1c-0.6-0.5-1.5-0.5-2.1,0l-3.4,3.2l-4.2-3.9l0,0c0-0.1-0.1-0.1-0.2-0.2c0,0,0,0-0.1,0
		C21.4,9,21.3,9,21.2,9h-0.1C21,9,21,9,20.9,9h-0.2l-7.2,1.1c-0.4,0.1-0.8,0.3-1.1,0.7l-1.9,3.4c-0.4,0.7-0.1,1.6,0.5,2
		c0,0,0,0,0.1,0c0.2,0.1,0.4,0.2,0.7,0.2c0.5,0,1.1-0.3,1.3-0.7l1.6-2.8l4.2-0.6l-2,7.3l-1.8,5.8l-4.6,4.1c-0.6,0.5-0.6,1.5-0.1,2.1
		c0.3,0.3,0.6,0.5,1.2,0.5c0.3,0,0.7-0.2,1-0.4l4.9-4.4c0.2-0.2,0.3-0.4,0.4-0.6l1.5-4.8l3.7,1.5L21,29c-0.3,0.7,0,1.6,0.8,1.9
		c0.2,0.1,0.3,0.1,0.5,0.1c0.6,0,1.2-0.4,1.4-1l2.8-6.8c0.3-0.7,0-1.6-0.8-1.9l-5.4-2l1.6-5.9l3.5,3.2c0.5,0.5,1.5,0.5,2,0l4.4-4.2
		C32.1,11.7,32.1,10.7,31.6,10.1L31.6,10.1z"/>
	<circle class="st0" cx="22.5" cy="4.5" r="3.4"/>
	<polygon class="st1" points="28.9,25 28.9,32.6 18.2,32.6 18.2,37.8 7.5,37.8 7.5,47 39.5,47 39.5,25 	"/>
</g>
</svg>
