<?xml version="1.0" encoding="utf-8"?>
<!-- Generator: Adobe Illustrator 23.1.0, SVG Export Plug-In . SVG Version: 6.00 Build 0)  -->
<svg version="1.1" id="icons" xmlns="http://www.w3.org/2000/svg" xmlns:xlink="http://www.w3.org/1999/xlink" x="0px" y="0px"
	 viewBox="0 0 47 47" style="enable-background:new 0 0 47 47;" xml:space="preserve">
<style type="text/css">
	.st0{fill:#324A5E;}
	.st1{fill:#FF7058;}
</style>
<title>StairTreadmillErgometer</title>
<g id="Stair_Treadmill_Ergometer">
	<path class="st0" d="M32,10.7c-0.6-0.5-1.5-0.5-2.1,0l-3.3,3.1l-4.2-3.8l0,0c0-0.1-0.1-0.1-0.2-0.2c0,0,0,0-0.1,0
		c-0.1-0.1-0.2-0.1-0.3-0.1h-0.1c-0.1,0-0.1,0-0.2,0h-0.2l-7.1,1c-0.4,0.1-0.8,0.3-1,0.7l-1.9,3.3c-0.4,0.7-0.1,1.6,0.5,2
		c0,0,0,0,0.1,0c0.2,0.1,0.4,0.2,0.7,0.2c0.5,0,1-0.3,1.2-0.7l1.6-2.7l4.2-0.6l-2,7.2l-1.8,5.7l-4.5,4c-0.6,0.5-0.6,1.5-0.1,2.1
		c0.3,0.3,0.6,0.5,1.1,0.5c0.3,0,0.7-0.2,0.9-0.4l4.8-4.3c0.2-0.2,0.3-0.4,0.4-0.6l1.5-4.7l3.6,1.5l-2.1,5.3c-0.3,0.7,0,1.6,0.8,1.9
		c0.2,0.1,0.3,0.1,0.5,0.1c0.6,0,1.1-0.4,1.3-0.9l2.7-6.6c0.3-0.7,0-1.6-0.8-1.9l-5.3-2l1.6-5.8l3.4,3.1c0.5,0.5,1.5,0.5,2,0
		l4.3-4.2C32.5,12.2,32.5,11.3,32,10.7L32,10.7z"/>
	<circle class="st0" cx="23.1" cy="5.3" r="3.3"/>
	<polygon class="st1" points="29.3,25.3 29.3,32.7 18.9,32.7 18.9,37.8 8.4,37.8 8.4,46.8 39.7,46.8 39.7,25.3 	"/>
</g>
</svg>
