<?xml version="1.0" encoding="utf-8"?>
<!-- Generator: Adobe Illustrator 23.1.0, SVG Export Plug-In . SVG Version: 6.00 Build 0)  -->
<svg version="1.1" id="icons" xmlns="http://www.w3.org/2000/svg" xmlns:xlink="http://www.w3.org/1999/xlink" x="0px" y="0px"
	 viewBox="0 0 47 47" style="enable-background:new 0 0 47 47;" xml:space="preserve">
<style type="text/css">
	.st0{fill:#334A61;}
</style>
<title>Stand-UpPaddleboarding</title>
<path class="st0" d="M24.3,9.7C24,9.6,24,9.5,23.8,9.4c0-0.3-0.1-0.6-0.3-0.8c-0.2-0.3-0.6-0.4-0.9-0.5c-0.3-0.1-0.7-0.1-1,0.1
	S21,8.6,20.9,8.9l0,0c-0.1,0.2-0.1,0.5-0.1,0.7s0,0.4,0.1,0.6c-0.1,0.2,0,0.4,0.1,0.6c0.1,0.1,0.1,0.2,0.2,0.3
	c0.1,0.3,0.1,0.6,0.1,0.8c0,0,0,0,0,0.1c-0.1,0.1-0.3,0.2-0.4,0.3l-0.3,0.1c-0.2,0-0.5,0-0.7,0.1c-0.4,0.1-0.7,0.3-0.9,0.6
	c-0.2,0.3-0.3,0.8-0.2,1.2l0,0c0,0,0,0.1,0.1,0.1c0,0.1,0.1,0.1,0.1,0.2c0,0.1,0,0.2,0,0.3c0,0.3,0,0.6,0,0.8c0,0.3,0,0.3,0,0.4l0,0
	c-0.1,0.3,0,0.6-0.1,0.9s-0.1,0.7-0.1,1s0,0.7,0,1v0.3c-0.1,0.5-0.2,0.8-0.2,1.2s-0.1,0.7-0.1,1s0,0.8,0,1.1c0,0.4,0,0.6,0.1,0.9
	v0.1l0,0c0,0.2,0,0.3,0,0.5s0,0.4,0.1,0.6c0,0.2,0.1,0.4,0.1,0.6c0.1,0.2,0.1,0.4,0.1,0.5c0.1,0.2,0,0,0,0l0,0v0.1
	c-0.1,0.2-0.1,0.4-0.2,0.5c-0.1,0.2-0.1,0.4-0.2,0.6c-0.1,0.4-0.1,0.8-0.1,1.2c0,0.1,0,0.2,0,0.2v0.1c-0.1,0.1-0.2,0.2-0.2,0.3
	c-0.1,0.1-0.1,0.3-0.2,0.4c-0.1,0.2-0.1,0.5-0.1,0.7l0,0c0,0.2-0.1,0.3-0.1,0.5s-0.1,0.4-0.1,0.6c0,0.4-0.1,0.7-0.1,1.1
	c-0.1,0.4-0.1,0.8-0.1,1.1s-0.1,0.7-0.1,1c0,0.1,0,0.2-0.1,0.3c-1.3,0-2.6,0-3.9-0.1c-1.8,0.1-3.6,0-5.3-0.1c-1.1,0-2.2,0-3.3,0
	c-1-0.2-2.1,0.2-2.7,1.1c-0.6,1.3,1.2,1.8,1.9,1.9c1.4,0.3,2.8,0.4,4.2,0.5c1.7,0.3,3.5,0.4,5.2,0.3c1.5,0.1,3,0.2,4.5,0.3
	c1.8,0.1,3.6,0.3,5.4,0.3c1.8,0.1,3.6,0,5.4,0l3-0.1h0.1c0.4,0,0.7,0,1.1,0H33c0.9,0,1.8-0.1,2.7-0.2c1.1-0.1,2.2-0.2,3.3-0.4
	c1.1-0.1,2.2-0.4,3.3-0.7c0.5-0.2,1-0.4,1.5-0.7c0.2-0.1,0.4-0.3,0.7-0.4c0.2-0.2,0.5-0.3,0.5-0.6c0-0.1-0.1-0.2-0.1-0.2
	c0-0.2-0.2-0.3-0.4-0.3l0,0c-1.5,0.2-3,0.3-4.5,0.3s-3-0.1-4.6-0.1s-3,0-4.6,0c-1.3,0-2.5-0.1-3.8-0.1C27,35.1,26.9,35,26.8,35
	c-0.1,0-0.3,0-0.4,0l0,0c-0.1,0-0.2,0-0.3-0.1c-0.1,0-0.2,0-0.3-0.1c-0.2-0.1-0.3-0.1-0.5-0.2c-0.2-0.2-0.4-0.4-0.6-0.6
	c0-0.3-0.1-0.5-0.1-0.8c0-0.4,0-0.9,0.1-1.3c0-0.1,0-0.1,0-0.2l2-8.9c0-0.1,0-0.2,0.1-0.3l0,0c0.1,0,0.1-0.1,0.1-0.2s0-0.2,0-0.3
	c0-0.1,0.1-0.1,0.1-0.2c0,0,0,0,0-0.1l0.7-3.2l0,0c0,0,0.1,0,0.1-0.1c0.1,0,0.2,0,0.3,0c0.1,0,0.1-0.1,0.1-0.2c0.1,0,0.2,0,0.2-0.1
	c0.1,0,0.1-0.1,0.1-0.2l0,0c0-0.1,0-0.2,0-0.2v-0.2c0-0.1,0-0.2-0.1-0.2v-0.1c-0.2-0.1-0.5-0.2-0.7-0.2l-0.8-0.1
	c-0.2-0.1-0.4-0.2-0.6-0.2s-0.4,0-0.5,0h-0.1l0,0c-0.2-0.1-0.5-0.1-0.7-0.2s-0.4-0.1-0.5-0.2c0-0.1,0-0.2,0-0.3
	c0-0.4,0.1-0.8,0.1-1.2c0-0.3-0.1-0.5-0.2-0.7l0,0c-0.2-0.3-0.5-0.5-0.8-0.7c-0.1-0.1-0.1-0.1-0.2-0.2c-0.1-0.3-0.1-0.6-0.1-0.9l0,0
	c0.1-0.1,0.1-0.2,0.1-0.3c0.1-0.1,0.1-0.3,0.2-0.4c0-0.2,0-0.3,0.1-0.5c0-0.1,0.1-0.3,0.1-0.4c0.1-0.2,0.1-0.3,0.1-0.5
	S24,9.9,24,9.7C23.9,9.9,24,9.8,24.3,9.7C24.3,9.8,24.3,9.8,24.3,9.7L24.3,9.7z M18.4,34.9c0-0.3,0-0.5,0.1-0.8
	c0-0.2,0.1-0.4,0.2-0.7c0.1-0.2,0.1-0.4,0.2-0.6s0.1-0.3,0.2-0.5c0.1-0.1,0.2-0.3,0.2-0.5c0.1-0.2,0.1-0.4,0.2-0.6s0.2-0.6,0.3-0.9
	c0.2,0.1,0.4,0.1,0.5,0.2s0.3,0.1,0.5,0.1c0.1,0,0.3,0,0.3-0.1l0.1-0.2c0,0,0.1-0.1,0.1-0.2l0,0c0.1-0.2,0.2-0.4,0.2-0.6
	c0.1-0.2,0.2-0.5,0.2-0.7l0,0c0.2-0.5,0.3-1,0.4-1.5c0-0.2,0.1-0.4,0.1-0.6c0,0.2,0.1,0.4,0.1,0.6l0.2,1c0.1,0.4,0.1,0.7,0.2,1.1
	l0,0c0.1,0.8,0.2,1.7,0.3,2.5c0.1,0.4,0.1,0.8,0.1,1.3v0.6c0,0.2,0,0.3,0,0.5c0,0.1-0.1,0.2-0.1,0.3s0,0.1,0,0.2
	c-1.4-0.1-2.9-0.2-4.4-0.2L18.4,34.9z M24.9,28.3L24.9,28.3L24.9,28.3L24.9,28.3z M25.1,27.4c0-0.2,0-0.5,0-0.7S25,26.3,25,26
	c-0.1-0.2-0.2-0.4-0.2-0.6s0-0.3-0.1-0.5c0-0.1-0.1-0.2-0.1-0.3c0,0,0-0.1-0.1-0.1c-0.1-0.3-0.1-0.5-0.2-0.8c0-0.4-0.1-0.8-0.2-1.2
	c0-0.1,0-0.2-0.1-0.2c0-0.1,0-0.2-0.1-0.3c-0.1-0.1,0-0.2,0-0.3c0-0.2,0.1-0.5,0.1-0.8c0.2,0.1,0.4,0.3,0.6,0.4
	c0.2,0.2,0.4,0.3,0.6,0.5c0.1,0.2,0.2,0.4,0.4,0.5c0,0.1,0,0.1,0,0.2s0.1,0.2,0.2,0.2c0.1,0.1,0.2,0.2,0.3,0.2L25.1,27.4z
	 M26.4,21.5L26.4,21.5c-0.1-0.1-0.3-0.1-0.4-0.2c-0.2-0.2-0.4-0.4-0.6-0.6s-0.6-0.6-0.8-0.9c-0.2-0.2-0.3-0.4-0.5-0.6v-0.1l0,0
	c0-0.4,0-0.8,0-1.2c0.3,0,0.7,0,1,0s0.6,0,0.9,0c0.1,0.1,0.1,0.1,0.2,0.2c0.2,0.1,0.4,0.2,0.6,0.3c0,0.1,0.1,0.3,0.2,0.3
	c0,0,0,0,0.1,0L26.4,21.5z"/>
</svg>
