<?xml version="1.0" encoding="utf-8"?>
<!-- Generator: Adobe Illustrator 23.1.0, SVG Export Plug-In . SVG Version: 6.00 Build 0)  -->
<svg version="1.1" id="icons" xmlns="http://www.w3.org/2000/svg" xmlns:xlink="http://www.w3.org/1999/xlink" x="0px" y="0px"
	 viewBox="0 0 47 47" style="enable-background:new 0 0 47 47;" xml:space="preserve">
<style type="text/css">
	.st0{fill:#FFB600;}
	.st1{fill:#FFC412;}
	.st2{fill:#FF9940;}
	.st3{fill:#F5760F;}
</style>
<title>StationaryRowing</title>
<path class="st0" d="M45.2,5.9l-3.6-3.6c-1.1-1.1-3-1.1-4.1,0l0,0l-7.9,7.9c-0.1,0.1-0.2,0.3-0.2,0.5l0.2,4.3c0,0.2,0.1,0.3,0.2,0.5
	l2.1,2.1c0.1,0.1,0.3,0.2,0.5,0.2l4.3,0.2l0,0c0.2,0,0.4-0.1,0.5-0.2l7.9-7.9C46.2,8.8,46.2,7.1,45.2,5.9L45.2,5.9z"/>
<path class="st1" d="M38.8,5.8c-0.7,0-1.5,0.3-2.1,0.8l-7.2,7.2l0.1,1.2c0,0.2,0.1,0.3,0.2,0.5l2.1,2.1c0.1,0.1,0.3,0.2,0.5,0.2
	l1.2,0.1l7.2-7.2c1.1-1.1,1.1-3,0-4.1C40.2,6.2,39.5,5.8,38.8,5.8z"/>
<path class="st2" d="M7.8,41.8L39.8,9.8c0.5-0.5,0.5-1.4,0-2.1c-0.5-0.5-1.4-0.5-2.1,0l0,0L5.7,39.8c-0.9-0.2-1.8,0.2-2.4,0.8
	c-0.9,1-0.7,2.7,0.3,3.6c1,0.9,2.7,0.7,3.6-0.3C7.8,43.3,8,42.6,7.8,41.8L7.8,41.8z"/>
<path class="st3" d="M24.8,20.7l-3.6,3.6l2.1,2.1l3.6-3.6L24.8,20.7z"/>
<path class="st0" d="M18.3,10.3l-7.9-7.9c-1.1-1.1-3-1.1-4.1,0l0,0L2.6,5.9c-1.1,1.1-1.1,3,0,4.1l7.9,7.8c0.1,0.1,0.3,0.2,0.5,0.2
	l0,0l4.3-0.2c0.2,0,0.3-0.1,0.5-0.2l2.1-2.1c0.1-0.1,0.2-0.3,0.2-0.5l0.2-4.3C18.5,10.7,18.4,10.4,18.3,10.3z"/>
<path class="st1" d="M15.9,17.7l2.1-2.1c0.1-0.1,0.2-0.3,0.2-0.5l0.1-1.2l-7.2-7.2c-1.1-1.1-3-1.1-4.1,0s-1.1,3,0,4.1l7.2,7.2
	l1.2-0.1C15.7,17.9,15.8,17.8,15.9,17.7z"/>
<path class="st2" d="M40,41.8L8.1,9.8c-0.6-0.6-0.6-1.4,0-2.1c0.5-0.5,1.4-0.5,2.1,0l0,0l32.1,32.1c0.9-0.2,1.8,0.2,2.4,0.8
	c0.9,1,0.7,2.7-0.3,3.6c-1,0.9-2.7,0.7-3.6-0.3C40.1,43.3,39.9,42.6,40,41.8L40,41.8z"/>
</svg>
