<?xml version="1.0" encoding="utf-8"?>
<!-- Generator: Adobe Illustrator 23.1.0, SVG Export Plug-In . SVG Version: 6.00 Build 0)  -->
<svg version="1.1" id="icons" xmlns="http://www.w3.org/2000/svg" xmlns:xlink="http://www.w3.org/1999/xlink" x="0px" y="0px"
	 viewBox="0 0 47 47" style="enable-background:new 0 0 47 47;" xml:space="preserve">
<style type="text/css">
	.st0{fill:#334A61;}
</style>
<title>stretching</title>
<path class="st0" d="M8.4,18l-1.3-0.7c-0.7-0.3-1.3-0.7-1.8-1.2l-1.8-1.4c-0.3-0.3-0.7-0.3-1-0.1l0,0c-0.4,0.2-0.6,0.7-0.4,1.1
	l1.5,3.2c0.3,0.6,0.8,0.9,1.5,1L6.5,20l0.7,0.4L8,20l0.5-1.1L8.4,18z"/>
<path class="st0" d="M39.1,26.9c-0.2-0.6-1.3-1.2-2.5-1.7l-0.3-0.1c-2.9-1-6.1-1.1-9.1-0.3l-5,1.4l-1.4,2.1v3.1H36
	C38.6,31.4,39.1,26.9,39.1,26.9L39.1,26.9z"/>
<path class="st0" d="M39.1,26.9c-0.2-0.6-1.3-1.2-2.5-1.7l-0.3-0.1L36,25c-0.2,1.3-0.9,6.5-3.4,6.4h3.5
	C38.6,31.4,39.1,26.9,39.1,26.9L39.1,26.9z"/>
<path class="st0" d="M13.6,24l-6.5-3.8l1.3-2.3l8.1,3c0.2,0.1,0.3,0.1,0.5,0.2l6.3,4.6l-0.9,5.5h-1.9c-1.3,0-2.4-0.6-3.1-1.7l-3.2-5
	C14.1,24.4,13.9,24.2,13.6,24z"/>
<path class="st0" d="M19,15.2l-1.4-0.4c-0.7-0.2-1.3-0.5-1.9-0.8l-1.8-1.1c-0.3-0.2-0.7-0.2-0.9,0l0,0c-0.3,0.3-0.4,0.7-0.2,1.1
	l1.9,2.7c0.3,0.5,0.9,0.7,1.5,0.7l1.3-0.1l0.7,0.2l0.6-0.4l0.4-1.1L19,15.2z"/>
<path class="st0" d="M19,15.2l-0.9,2.3L23,20c0.2,0.1,0.3,0.4,0.2,0.6c0,0,0,0,0,0.1l-5.6,6.5c-0.7,1.2-0.6,2.6,0.4,3.6l0.6,0.6h4
	L28,20.1c0.4-0.7,0-1.6-0.7-1.9c0,0-0.1,0-0.1-0.1L19,15.2z"/>
<path class="st0" d="M34,28.2c0.6,0.7,1.6,0.8,2.3,0.2c0.7-0.6,0.8-1.5,0.2-2.2l-6-6c-1-0.9-2.2-1.7-3.4-2.2L26,17.6
	c-0.2-0.1-0.4,0.3-0.2,0.5L34,28.2z"/>
<path class="st0" d="M43.5,26.4c1.6-1.3,1.8-3.5,0.5-5.1c-1.2-1.5-3.4-1.8-5-0.7l-0.7,0.5c-1.6,1.3-1.8,3.5-0.5,5.1
	c1.2,1.5,3.4,1.8,5,0.7L43.5,26.4z"/>
<path class="st0" d="M44.3,21.4c-0.2-0.3-0.4-0.5-0.7-0.7c-0.2,1.1-0.8,2.1-1.7,2.8l-4.1,2.9c1.3,1.4,3.5,1.7,5,0.5l0.7-0.5
	C45,25.3,45.3,23,44.3,21.4L44.3,21.4z"/>
<path class="st0" d="M44.3,21.4c-1-1.3-2.7-1.8-4.3-1.2l1.7,2.2c0.4,0.5,0.3,1.3-0.2,1.7c-0.2,0.2-0.4,0.4-0.5,0.7l-0.6,2.9
	c0.9,0.1,1.8-0.2,2.5-0.7l0.7-0.5C45.1,25.3,45.5,23,44.3,21.4L44.3,21.4z"/>
<path class="st0" d="M44.3,21.4L44.3,21.4c-0.2-0.3-0.4-0.5-0.7-0.7c-0.2,1.1-0.8,2.1-1.7,2.8l0,0c-0.1,0.2-0.2,0.4-0.4,0.5
	c-0.2,0.2-0.4,0.4-0.5,0.7l-0.6,2.9l0,0c0.9,0.1,1.8-0.2,2.5-0.7l0.7-0.5C45.1,25.2,45.5,23,44.3,21.4L44.3,21.4z"/>
<path class="st0" d="M43.8,33.6H3.1c-0.6,0-1.1-0.5-1.1-1.1c0-0.6,0.5-1.1,1.1-1.1l0,0h40.6c0.6,0,1.1,0.5,1.1,1.1
	C45,33.1,44.5,33.6,43.8,33.6L43.8,33.6z"/>
<path class="st0" d="M43.8,31.3h-2.3v2.2h2.3c0.6,0,1.1-0.5,1.1-1.1C45,31.8,44.5,31.3,43.8,31.3L43.8,31.3z"/>
</svg>
