<?xml version="1.0" encoding="utf-8"?>
<!-- Generator: Adobe Illustrator 23.1.0, SVG Export Plug-In . SVG Version: 6.00 Build 0)  -->
<svg version="1.1" id="icons" xmlns="http://www.w3.org/2000/svg" xmlns:xlink="http://www.w3.org/1999/xlink" x="0px" y="0px"
	 viewBox="0 0 47 47" style="enable-background:new 0 0 47 47;" xml:space="preserve">
<style type="text/css">
	.st0{fill:#334A61;}
</style>
<title>Surfing</title>
<path class="st0" d="M24.5,10.6c1.8-0.3,3-2,2.7-3.9c-0.3-1.8-2-3-3.9-2.7s-3,2-2.7,3.8C20.9,9.7,22.6,10.9,24.5,10.6
	C24.4,10.6,24.4,10.6,24.5,10.6z"/>
<path class="st0" d="M40.5,33.5c-0.1-1.1-3.9-1.6-9.3-1.6l0.1-8.6c0-1.2-0.9-2.3-2.2-2.3c-0.1,0-0.2,0-0.3,0L25,21.5l1.1-6.2
	l6.3-2.3c0.3-0.1,0.6-0.3,0.8-0.6l3-5c0.4-0.7,0.2-1.6-0.5-2c-0.7-0.4-1.6-0.2-2,0.5L31,10.3l-4.4,1.5l-3.5-0.6c-0.2,0-0.4,0-0.6,0
	l-7.2,0.9c-0.3,0-0.5,0.2-0.7,0.3l-4.7,3.8c-0.6,0.5-0.7,1.4-0.2,2l0,0c0.5,0.6,1.4,0.7,2,0.2l0,0l4.3-3.6l4.1-0.5l-1.4,8.2
	l-4.1,1.8c-1,0.4-1.5,1.6-1.2,2.8l1.9,5.9c-3.9,0.7-6.8,1.5-7.9,2.4c1.9-0.6,4.1-0.2,5.7,0.9c1.1-0.8,2.5-1.2,3.8-1.2l0,0
	c1.3,0,2.7,0.4,3.8,1.2c2.3-1.6,5.3-1.6,7.6,0c2-1.4,4.7-1.6,6.9-0.4C38.4,35.2,40.6,34.3,40.5,33.5z M26.7,31.8
	c-1,0.1-2.2,0.1-3.3,0.2c-1.2,0.1-2.5,0.2-3.7,0.4l-1.5-4.7l3-1.3l5.5-0.7L26.7,31.8z"/>
<path class="st0" d="M45.8,38.6c-0.6-0.6-1.5-0.6-2,0c-0.5,0.5-1.2,0.5-1.7,0c-1.6-1.5-4.3-1.5-5.9,0c-0.5,0.4-1.2,0.4-1.6,0
	c-1.6-1.5-4.3-1.5-5.9,0c-0.5,0.4-1.2,0.4-1.7,0c-1.6-1.5-4.3-1.5-5.9,0c-0.5,0.4-1.2,0.4-1.6,0l0,0c-0.8-0.8-1.8-1.2-3-1.2l0,0
	c-1.1,0-2.2,0.4-3,1.2c-0.5,0.4-1.2,0.4-1.6,0C10,37,7.4,37,5.7,38.6c-0.5,0.5-1.2,0.5-1.7,0c-0.6-0.6-1.5-0.6-2,0l0,0
	c-0.6,0.6-0.6,1.5,0,2.2c1.6,1.6,4.3,1.6,5.9,0c0.5-0.4,1.2-0.4,1.6,0c1.6,1.5,4.3,1.5,5.9,0c0.2-0.2,0.5-0.3,0.8-0.3l0,0
	c0.3,0,0.6,0.1,0.8,0.3l0,0c0.8,0.8,1.8,1.2,3,1.2s2.2-0.4,3-1.2c0.5-0.4,1.2-0.4,1.6,0c1.6,1.5,4.2,1.5,5.9,0
	c0.5-0.4,1.2-0.4,1.7,0c1.6,1.6,4.3,1.6,5.9,0c0.5-0.4,1.2-0.4,1.7,0c1.6,1.6,4.3,1.6,5.9,0C46.4,40.1,46.4,39.2,45.8,38.6z"/>
</svg>
