<?xml version="1.0" encoding="utf-8"?>
<!-- Generator: Adobe Illustrator 23.1.0, SVG Export Plug-In . SVG Version: 6.00 Build 0)  -->
<svg version="1.1" id="icons" xmlns="http://www.w3.org/2000/svg" xmlns:xlink="http://www.w3.org/1999/xlink" x="0px" y="0px"
	 viewBox="0 0 47 47" style="enable-background:new 0 0 47 47;" xml:space="preserve">
<style type="text/css">
	.st0{fill:#FFB680;}
	.st1{fill:#FC2E3D;}
	.st2{fill:#ED8A40;}
	.st3{fill:#383838;}
	.st4{fill:#6B6B6B;}
	.st5{fill:#13B6D1;}
	.st6{fill:#41D6E5;}
</style>
<title>Swimming</title>
<path class="st0" d="M32.2,1.2c-1.9,0.3-3.7,1.1-5.2,2.1c-1.1,0.8-9.6,5-11.1,9.1c-0.3,1.1-0.8,6.1-1.5,7.8
	c-1.6,4.3-1.5,6.4-2.1,8.1c-0.5,0.5-1.1,1.1-1.6,1.7c-1.1,1.4-2.1,2.9-3.1,4.3c-0.8,1.4-2,2.4-3.4,3.3c-0.8,0.4-1.8,0.6-2.8,0.7l0,0
	L5.1,44h11.5c0.7-0.3,2-1.1,2.5-1.4c2.1-1.4,3.9-3.1,5.3-5.1c-0.1-0.6-0.2-1.2-0.4-1.7l0,0l0,0c-0.1-0.4-0.2-1-0.4-1.4l0,0l0,0
	c0-0.2,0-0.4,0.1-0.6c0.5-0.6,1.2-1.2,2-1.5c0.7,0,1.2,0.4,1.5,1.1c0.5,0.8,1.4-0.2,1.8,0.1c0.3,0.2,0.3-0.1,0.4-0.3
	c0.1-0.2,0.4,0.1,0.5,0.1s0.2-0.4,0.3-0.5c0.3-0.2,1.2,0.6,1.4,0.3c0.4-0.6,0.5-2.4,1.1-2.6c0.8-0.3,1.5-0.8,1.9-1.6
	c0.5-0.7,0.7-1.6,0.5-2.5c-0.2-1.2-2.3-4.5-4.8-4.8c-2.4-0.3-4,2.2-4.6,3.2c-0.6,1.3-1.4,2.4-2.2,3.6c-0.7,0.6-1.6,1.1-2.5,1.4H21
	c-0.5-0.6-1-1.5-1.1-2.3c-0.1-0.8-0.1-1.8-0.2-2.8c0-1.6,0.8-8.3,0.7-11c0-0.7,6.7-7.5,8.6-8.3c2.6-1.2,5.7,0,7.6-0.6
	C40.3,3.5,37.4,1.6,32.2,1.2z"/>
<path class="st1" d="M34.1,29.7c-1.3-1.7-3.1-2.6-5.2-2.9c-1.5,0-3,0.1-4.5,0.5c0-1.7,0.5-3.3,1.7-4.6c2.3-2.6,7.3-1.4,8.7,1.3
	C36,25.9,35.7,28.3,34.1,29.7z"/>
<path class="st2" d="M14.5,25.9c0.3,1,0.8,2.3,0.3,3.3c-0.5,0.6-1.4,0.8-2.1,0.6C12.2,29.3,14.5,25.9,14.5,25.9z"/>
<path class="st3" d="M31.5,30.6c0.3,0.4,1,0.6,1.4,0.3c0.3-0.2,0.4-0.6,0.3-1.1c-0.2-0.7-1.2-1.8-2-1.5
	C30.7,28.6,31.1,30.1,31.5,30.6z"/>
<polygon class="st3" points="31.3,28.8 26.6,22.5 26.9,22.2 31.7,28.7 "/>
<path class="st4" d="M31.8,29.3c-0.2,0.1-0.5,0.5-0.1,1.2c0.1,0.4,0.5,0.5,1,0.4c0,0,0.1,0,0.1-0.1c0.2-0.1,0.3-0.6,0.1-1
	C32.7,29.5,32.2,28.9,31.8,29.3z"/>
<path class="st5" d="M44.3,37c-1.8-1.9-3.7-3.3-5.7-1.1c-0.6,0.6-1.4,1.2-2.1,1.6c-1.3,0.6-2.8,0.4-3.9-0.6
	c-1.9-2.5-3.7-3.3-5.7-1.1c-0.7,1-1.6,1.5-2.5,1.8c-0.8,0.2-1.7-0.1-2.4-0.7c-1.9-1.9-3.6-3.3-5.7-1.1c-0.6,0.6-1.4,1.3-2.1,1.7
	c-1.3,0.6-2.8,0.4-3.9-0.6c-1.9-2.5-3.7-3.3-5.7-1.1c-2.6,3-4.1,1.8-4.1,1.8v6.1h46.6v-5.9C45.9,37.9,45,37.6,44.3,37z"/>
<path class="st6" d="M44.3,40.1c-1.8-1.9-3.7-3.3-5.7-1.1c-0.6,0.6-1.4,1.2-2.1,1.6c-1.3,0.6-2.8,0.4-3.9-0.5
	c-1.9-2.5-3.7-3.3-5.7-1.1c-0.7,1-1.6,1.5-2.5,1.8c-0.8,0.2-1.7-0.1-2.4-0.7c-1.8-1.9-3.7-3.3-5.7-1.1c-0.6,0.6-1.4,1.2-2.1,1.6
	c-1.3,0.6-2.8,0.4-3.9-0.5c-1.9-2.5-3.7-3.3-5.7-1.1c-2.6,2.9-4.1,1.7-4.1,1.7v6.1h46.6v-6C45.9,40.9,45,40.7,44.3,40.1z"/>
</svg>
