<?xml version="1.0" encoding="utf-8"?>
<!-- Generator: Adobe Illustrator 23.1.0, SVG Export Plug-In . SVG Version: 6.00 Build 0)  -->
<svg version="1.1" id="icons" xmlns="http://www.w3.org/2000/svg" xmlns:xlink="http://www.w3.org/1999/xlink" x="0px" y="0px"
	 viewBox="0 0 47 47" style="enable-background:new 0 0 47 47;" xml:space="preserve">
<style type="text/css">
	.st0{fill:#C48E5A;}
	.st1{fill:#D8A976;}
	.st2{fill:#25282B;}
	.st3{fill:#CD2C39;}
	.st4{fill:#F1672A;}
</style>
<title>TableTennis</title>
<g id="ping_pong">
	<g>
		<path class="st0" d="M19.7,30.3c0.9-0.8,3.6,0.4,4.4,0.8c1,0.3,2.2,0.6,3.2,1.1c1.3,0.5,2.6,1.2,3.8,1.9c0.3,0.2,1.8,1.1,1.6,1.7
			c-0.2,0.4-2.3,0.3-2.7,0.4c-1.2,0.2-2.3,0.8-3.2,1.6c-1.1,1-3.8-0.6-3.9-1.8c-0.3-1.1-0.8-2-1.5-2.9c-0.4-0.8-1.1-1.3-1.5-1.9
			C19.6,30.8,19.4,30.8,19.7,30.3z"/>
		<path class="st1" d="M23.6,46.6l-5-2c0.3-0.6,0.6-1.3,1-1.8c1.5-2.9,2.7-6.1,4.4-8.9c0.4-0.6,1.2-0.9,1.8-0.6
			c0.3,0.1,0.6,0.2,0.9,0.3h0.1c1,0.5,0.8,1.6,0.3,2.8c0,0.1,0,0.1-0.1,0.2c-1,2.8-1.8,5.6-2.9,8.4C24,45.3,23.9,46,23.6,46.6z"/>
		<path class="st0" d="M22.1,46l-1.9-0.9c0.6-1.5,1.4-3,2-4.5c0.6-1.5,1.3-2.7,1.8-4c0.4-1.2,1.1-2.4,1.7-3.4l0.1-0.1
			c0.3-0.3,0.8-0.4,1,0.2v0.1c-0.1,0.5-0.2,1.2-0.5,1.7c-0.9,2.4-1.8,4.6-2.7,7C23.5,42.5,22.8,44.3,22.1,46z"/>
		<path class="st2" d="M27.2,10.6c-2.5,1-4.6,2.6-6.2,4.7c-1.6,2-2.7,4.4-3.2,7c-0.4,2.7,0,5.4,1.3,7.8c1,1.2,2.2,1.9,3.7,2.4l5,2.2
			c0.8,0.3,1.5,0.6,2.3,1c1.6,0.6,2.8,1.1,4.5,0.4c1.5-0.8,2.8-1.7,3.9-2.9c1.9-2,3.3-4.5,4.1-7.2c0.6-2.5,0.5-5.1-0.1-7.5
			c-0.5-2.4-1.9-4.5-3.8-6C35.2,9.7,31,9.1,27.2,10.6z"/>
	</g>
	<g>
		<path class="st0" d="M9.3,29.5c0.5-1,3.4-1,4.4-1c1-0.1,2.3-0.3,3.3-0.3c1.4,0,2.8,0.1,4.2,0.3c0.4,0.1,2.2,0.3,2.2,1
			c0,0.4-1.9,1.2-2.4,1.4c-1,0.6-1.8,1.6-2.4,2.7c-0.6,1.3-3.7,0.9-4.3-0.2c-0.6-0.9-1.5-1.5-2.5-2c-0.6-0.4-1.5-0.6-2.2-1.2
			C9.5,29.9,9.1,30,9.3,29.5z"/>
		<path class="st1" d="M19.3,42.9h-5.4c0-0.6,0.1-1.4,0.2-2c0.2-3.2,0.1-6.7,0.5-9.9c0.1-0.8,0.6-1.3,1.4-1.4c0.3,0,0.6,0,1,0h0.1
			c1.1,0.1,1.3,1.3,1.4,2.5c0,0.1,0,0.1,0,0.2c0.2,2.9,0.5,5.9,0.5,8.8C19.1,41.4,19.3,42.3,19.3,42.9z"/>
		<path class="st0" d="M17.6,42.9h-2.2c0-1.6,0.1-3.3,0.1-5c0-1.7,0.1-2.9,0.1-4.4c-0.1-1.3,0-2.6,0.3-3.8v-0.1
			c0.2-0.4,0.5-0.8,1-0.2l0.1,0.1c0.1,0.5,0.2,1.2,0.2,1.7c0.1,2.6,0.2,5,0.2,7.5C17.5,39.2,17.6,41.2,17.6,42.9z"/>
		<path class="st3" d="M8.6,8.4c-1.9,1.8-3.2,4.2-3.9,6.8c-0.6,2.5-0.8,5.1-0.2,7.6c0.6,2.4,1.9,5.2,4.1,6.6c1.3,0.6,2.8,1,4.3,0.9
			h5.4c0.8,0,1.6,0,2.5,0c1.7-0.1,3-0.1,4.3-1.4c1.1-1.2,1.9-2.7,2.5-4.2c1-2.6,1.3-5.5,1-8.2c-0.4-2.5-1.5-4.8-3-6.9
			c-1.5-1.9-3.6-3.3-5.9-4.1C15.6,4.5,11.4,5.6,8.6,8.4z"/>
	</g>
	<circle class="st4" cx="28.1" cy="4.4" r="4"/>
</g>
</svg>
