<?xml version="1.0" encoding="utf-8"?>
<!-- Generator: Adobe Illustrator 23.1.0, SVG Export Plug-In . SVG Version: 6.00 Build 0)  -->
<svg version="1.1" id="icons" xmlns="http://www.w3.org/2000/svg" xmlns:xlink="http://www.w3.org/1999/xlink" x="0px" y="0px"
	 viewBox="0 0 47 47" style="enable-background:new 0 0 47 47;" xml:space="preserve">
<style type="text/css">
	.st0{fill:#E2E2E2;}
	.st1{fill:#919191;}
	.st2{fill:#BFBFBF;}
	.st3{fill:#232323;}
</style>
<title>TaeBo</title>
<g id="Martial_Arts">
	<path class="st0" d="M29.9,5.5H17.2c-8.3,0-15.1,6.8-15.1,15.1v11.1c0,0.2,0.2,0.4,0.4,0.4l0,0h6c0.2,0,0.4-0.2,0.4-0.4V20.6
		c0-1.9,0.7-3.8,1.9-5.2l0.8,13.3c0,0.7,0,1.4-0.1,2.1l-1,7.5c-0.1,0.5,0.3,1,0.9,1.1h0.1h23.9c0.5,0,1-0.4,1-1v-0.1l-1.1-7.6
		c-0.1-0.7-0.1-1.4-0.1-2.1L36,15.4c1.3,1.5,1.9,3.3,2,5.2v11.1c0,0.2,0.2,0.4,0.4,0.4l0,0h6c0.2,0,0.4-0.2,0.4-0.4l0,0V20.6
		C44.9,12.3,38.2,5.5,29.9,5.5z"/>
	<path class="st1" d="M29.4,9.3l-5.5,7.4l-5.5-7.4c-0.4-0.5-0.6-1.1-0.6-1.8c0-1.6,1.3-3,3-3h6.3c1.6,0,3,1.3,3,3
		C29.9,8.2,29.8,8.8,29.4,9.3z"/>
	<path class="st2" d="M10.6,38.3L31.7,9.8c1.4-1.9,0.9-4.6-1-5.9c-0.7-0.5-1.6-0.8-2.4-0.8h-8.9c-2.3,0-4.2,1.9-4.2,4.3
		c0,0.9,0.3,1.7,0.8,2.4l5.9,8L11.4,32.1L10.6,38.3z M23.8,15.3l-5-6.7L18.4,8c-0.4-0.5-0.2-1.3,0.3-1.7c0.2-0.1,0.4-0.2,0.7-0.2
		h8.8c0.7,0,1.2,0.5,1.2,1.2c0,0.2-0.1,0.5-0.2,0.7l-0.5,0.7L23.8,15.3z"/>
	<path class="st3" d="M35.3,32.3H11.7c-0.2,0-0.4-0.2-0.4-0.4v-2.2c0-0.2,0.2-0.4,0.4-0.4l0,0h23.6c0.2,0,0.4,0.2,0.4,0.4v2.1
		C35.7,32.1,35.5,32.3,35.3,32.3z"/>
	<path class="st3" d="M24.6,29.6l-0.4-0.1c-0.4-0.1-0.9-0.2-1.3-0.1s-0.8,0.3-1.2,0.5l-16,11.5c-0.2,0.1-0.2,0.4-0.1,0.6l0,0
		l1.3,1.8C7,44,7.3,44,7.5,43.9l0,0l15.7-11.3c0.2-0.1,0.4-0.2,0.6-0.1c5.4,1.6,10.3,4.7,14.1,9c0.2,0.2,0.4,0.2,0.6,0l1.6-1.4
		c0.2-0.2,0.2-0.4,0-0.6l0,0C36,34.8,30.6,31.3,24.6,29.6z"/>
	<path class="st3" d="M26.4,31.1c0,1.4-1.1,2.6-2.5,2.6s-2.6-1.1-2.6-2.5s1.1-2.6,2.5-2.6l0,0C25.2,28.6,26.4,29.7,26.4,31.1
		L26.4,31.1z"/>
</g>
</svg>
