<?xml version="1.0" encoding="utf-8"?>
<!-- Generator: Adobe Illustrator 23.1.0, SVG Export Plug-In . SVG Version: 6.00 Build 0)  -->
<svg version="1.1" id="icons" xmlns="http://www.w3.org/2000/svg" xmlns:xlink="http://www.w3.org/1999/xlink" x="0px" y="0px"
	 viewBox="0 0 47 47" style="enable-background:new 0 0 47 47;" xml:space="preserve">
<style type="text/css">
	.st0{fill:#D0DC12;}
	.st1{fill:#9A946F;}
	.st2{fill:#E1E53C;}
	.st3{fill:#CCE106;}
	.st4{fill:#777F05;}
	.st5{fill:#D6E227;}
	.st6{fill:#BAB183;}
</style>
<title>Tennis</title>
<ellipse class="st0" cx="23.2" cy="23.1" rx="22.4" ry="22.3"/>
<path class="st1" d="M18.3,24.1c-4.5-9.9-11.3-8.8-13.8-7.6c0.3-0.8,0.7-1.6,1.1-2.4c3.1-0.8,9.9-1.1,14.6,9.2
	c2,4.2,4.7,7.1,7.8,8.3c2.3,0.8,4.8,0.7,6.9-0.4c2-1,3.4-3,3.8-5.1c1.3-5.2-1-13.4-6.9-20.6c1.4,0.7,2.8,1.6,4.1,2.4
	c4.4,6.8,6.2,13.4,4.8,18.6c-0.6,2.8-2.4,5.2-4.9,6.5c-1.6,0.7-3.1,1.1-4.8,1.1c-1.3,0-2.5-0.3-3.7-0.7
	C23.5,32.2,20.5,28.9,18.3,24.1z"/>
<path class="st2" d="M32.2,5.9c-3.5-1.6-7.5-2.1-11.3-1.6c-2.5,0.4-5.1,1.3-7.3,2.5S9.4,9.9,7.8,12c-0.4,0.6-0.8,1.1-1.1,1.8
	l-1.3,0.3c0.4-0.8,1-1.8,1.7-2.7c5.8-7.6,16.1-10.2,24.7-6.2L32.2,5.9z"/>
<path class="st2" d="M5.4,16.2C4,19.6,3.4,23.3,4,26.8c0.3,2.5,1.1,5.1,2.5,7.3c1.3,2.3,3.1,4.4,5.1,6.1l0,0
	C4.1,34.8,1.2,25.1,4.3,16.5L5.4,16.2z"/>
<path class="st3" d="M35.8,7.8c8.8,6.8,10.3,19.4,3.4,28c-6.7,8.5-19,10.2-27.7,3.8l0.1-0.1c0.6,0.3,1.1,0.6,1.7,0.8
	c0.6,0.3,1.1,0.4,1.8,0.7c1.1,0.4,2.4,0.7,3.7,0.8c1.3,0.1,2.4,0.3,3.7,0.3c1.3,0,2.4-0.1,3.7-0.4c9.9-2,16.7-10.9,15.8-20.8
	C41.6,16,39.3,11.4,35.8,7.8L35.8,7.8z"/>
<path class="st4" d="M35.8,7.8c1.6,2.4,2.8,4.9,3.8,7.5c1,2.7,1.6,5.5,1.4,8.3c0,2.8-1.1,5.7-3.1,7.8c-1,1-2.3,1.7-3.7,2.1
	c-1.4,0.4-2.8,0.7-4.2,0.6c-2.8-0.3-5.5-1.6-7.5-3.5c-2-1.9-3.5-4.4-4.7-7.1c-1.1-2.5-3-4.8-5.4-6.4C10,15.5,7,15.3,4.3,16.4l0,0
	c2.7-1.3,5.8-1,8.3,0.4c2.4,1.6,4.2,3.8,5.5,6.5c1.1,2.5,2.7,4.9,4.7,6.9s4.5,3.2,7.3,3.4c1.4,0.1,2.7,0,4.1-0.4
	c1.3-0.4,2.5-1.1,3.5-2c2-2,3-4.7,3.1-7.5c0-2.8-0.4-5.7-1.4-8.2C38.5,12.8,37.3,10.3,35.8,7.8L35.8,7.8z"/>
<path class="st5" d="M35.8,7.8c1.7,2.3,3.1,4.8,4.2,7.3c1.1,2.7,1.7,5.5,1.7,8.5c0,3.1-1.1,5.9-3.2,8.2c-1.1,1.1-2.4,1.8-4,2.3
	c-1.4,0.6-3,0.7-4.5,0.6c-3-0.1-5.8-1.4-7.9-3.7c-2-2.1-3.7-4.5-4.7-7.3c-1.1-2.5-2.8-4.7-5.1-6.4c-2.2-1.4-5.2-1.8-7.9-0.8l0,0
	c2.7-1.1,5.7-1,8.2,0.6c2.4,1.6,4.2,3.8,5.4,6.5s2.7,5.1,4.7,7.1s4.7,3.2,7.5,3.5c1.4,0.1,2.8-0.1,4.1-0.6c1.4-0.4,2.5-1.1,3.5-2.1
	c2-2.1,3-4.8,3.1-7.6s-0.4-5.7-1.4-8.3C38.6,12.8,37.3,10.3,35.8,7.8L35.8,7.8z"/>
<path class="st6" d="M5.5,14.1c2.7-0.8,5.7-0.4,8.1,1c2.4,1.6,4.2,3.7,5.7,6.1c0.7,1.3,1.3,2.5,1.8,3.7c0.7,1.3,1.4,2.4,2.4,3.4
	c0.8,1,2,2,3.2,2.5c1.3,0.7,2.5,1,4,1.1c2.8,0.1,5.5-1.1,6.9-3.5c1.3-2.5,1.7-5.4,1.1-8.1c-1-5.5-3.4-10.6-7.1-14.8l0,0
	c3.8,4.1,6.5,9.3,7.6,14.8c0.3,1.4,0.3,2.8,0.1,4.4c0,0.4-0.1,0.7-0.1,1.1s0,0.3-0.1,0.6C39,26.5,39,26.8,39,27
	c-0.1,0.7-0.4,1.4-0.7,2c-0.7,1.4-2,2.4-3.4,3.1c-1.4,0.6-2.8,1-4.4,1c-3-0.1-5.8-1.6-7.8-4c-1-1.1-1.7-2.3-2.4-3.5
	c-0.4-0.6-0.7-1.3-1-2s-0.6-1.3-0.8-1.8c-1.1-2.4-3-4.5-5.2-6.1c-1.1-0.8-2.4-1.3-3.8-1.6C8.2,13.9,6.8,13.9,5.5,14.1L5.5,14.1z"/>
<path class="st3" d="M5.5,14.1c2.7-1,5.8-0.8,8.3,0.6s4.7,3.7,6.1,6.2c0.4,0.6,0.7,1.3,1.1,1.8c0.4,0.6,0.6,1.3,1,1.8
	c0.6,1.1,1.4,2.3,2.3,3.2c0.8,1,1.8,1.7,3,2.3c0.6,0.3,1.1,0.6,1.7,0.7s1.1,0.3,1.8,0.3c1.3,0,2.4-0.1,3.5-0.7
	c1.1-0.4,2-1.3,2.5-2.3c1.1-2.3,1.6-4.9,1.1-7.5c-0.3-2.7-1-5.4-2.1-7.8c-1.1-2.5-2.4-4.9-4-7.2l0.1-0.1c3.7,4.2,6.1,9.5,7.1,15
	c0.6,2.8,0.1,5.7-1.1,8.2c-0.7,1.3-1.7,2.3-3.1,2.8c-1.3,0.6-2.7,0.8-4.1,0.8s-2.8-0.4-4.1-1.1c-1.1-0.6-2.1-1.5-3.1-2.6
	c-1-1-1.7-2.3-2.4-3.4c-0.7-1.3-1.1-2.5-1.8-3.7c-1.3-2.4-3.2-4.5-5.5-6.1C11,13.8,8.2,13.4,5.5,14.1L5.5,14.1z"/>
</svg>
