<?xml version="1.0" encoding="utf-8"?>
<!-- Generator: Adobe Illustrator 23.1.0, SVG Export Plug-In . SVG Version: 6.00 Build 0)  -->
<svg version="1.1" id="icons" xmlns="http://www.w3.org/2000/svg" xmlns:xlink="http://www.w3.org/1999/xlink" x="0px" y="0px"
	 viewBox="0 0 47 47" style="enable-background:new 0 0 47 47;" xml:space="preserve">
<style type="text/css">
	.st0{fill:#334A61;}
</style>
<title>Tobogganing</title>
<g id="Tobogganing">
	<path class="st0" d="M3.9,22.8L36,39.3L35.6,40c-0.7,1.5-2.5,2-3.9,1.3L2.2,26.1c-0.9-0.4-1.4-1.6-0.8-2.5l0,0
		C1.8,22.7,2.9,22.2,3.9,22.8L3.9,22.8z M44.1,33.9l-18.6-9.3c-0.2-1.3-1-2.2-2.1-2.8l-11.3-5.6C10,15.2,7.7,16,6.7,17.9
		s-0.2,4.3,1.8,5.3l11.3,5.6c0.5,0.3,1.1,0.4,1.8,0.4c0.4,0,0.7-0.1,1.1-0.2l19,9.5c1.3,0.7,2.9,0.3,3.6-1c0.7-1.3,0.3-2.9-1-3.6
		C44.3,34,44.2,33.9,44.1,33.9L44.1,33.9z M6.1,15.2c2.8,0,5-2.3,5-5s-2.2-5-5-5s-5,2.2-5,5S3.4,15.2,6.1,15.2z"/>
</g>
</svg>
