<?xml version="1.0" encoding="utf-8"?>
<!-- Generator: Adobe Illustrator 23.1.0, SVG Export Plug-In . SVG Version: 6.00 Build 0)  -->
<svg version="1.1" id="icons" xmlns="http://www.w3.org/2000/svg" xmlns:xlink="http://www.w3.org/1999/xlink" x="0px" y="0px"
	 viewBox="0 0 47 47" style="enable-background:new 0 0 47 47;" xml:space="preserve">
<style type="text/css">
	.st0{fill:#ABE0DA;}
	.st1{fill:#38AAFF;}
	.st2{fill:#FFDF49;}
	.st3{fill:#FFBD47;}
	.st4{fill:#4C78A0;}
	.st5{fill:#628FB1;}
	.st6{fill:#BFA394;}
	.st7{fill:#D6BCAB;}
	.st8{fill:#2081F6;}
	.st9{fill:#FECAA8;}
	.st10{fill:#FFB38C;}
	.st11{fill:#D0F4EF;}
</style>
<title>Trampoline</title>
<path class="st0" d="M44.4,33.4c0-2.7-9.2-4.8-20.6-4.8S3.2,30.8,3.2,33.4c0,2.6,9.2,4.8,20.5,4.8S44.4,36,44.4,33.4z"/>
<path class="st1" d="M6,44c-0.5,0-0.8-0.4-0.8-0.8V31.3H7v11.8C6.9,43.5,6.6,44,6,44z"/>
<path class="st1" d="M23.8,46.1L23.8,46.1c-0.5,0-0.8-0.4-0.9-0.8V33.4h1.8v11.8C24.7,45.7,24.3,46.1,23.8,46.1L23.8,46.1z"/>
<path class="st1" d="M41.5,44c-0.5,0-0.8-0.4-0.9-0.8V31.3h1.8v11.8C42.4,43.5,42,44,41.5,44z"/>
<path class="st2" d="M44.4,30.8c0-2.7-9.2-4.8-20.5-4.8S3.2,28.2,3.2,30.8s9.2,4.8,20.5,4.8S44.4,33.5,44.4,30.8z"/>
<path class="st3" d="M44.4,30.8c0,0.2,0,0.4-0.1,0.6c-1.4-2.3-9.9-4.2-20.3-4.2S4.9,29.1,3.5,31.4c-0.1-0.2-0.2-0.4-0.2-0.6
	c0-2.7,9.2-4.8,20.5-4.8S44.4,28.2,44.4,30.8z"/>
<path class="st4" d="M38.8,30.8c0-1.4-6.7-2.4-15-2.4s-15,1-15,2.4s6.7,2.4,15,2.4S38.8,32.1,38.8,30.8z"/>
<path class="st5" d="M12.7,18H8.7c-0.4,0-0.8-0.3-0.8-0.8c0-0.2,0.1-0.5,0.3-0.6c1-0.9,2.4-1.5,3.8-1.5h0.8c0.4,0,0.7,0.3,0.7,0.7
	v1.4C13.6,17.7,13.3,18,12.7,18C12.9,18,12.9,18,12.7,18z"/>
<path class="st4" d="M13.9,10.2H9.7c-0.4,0-0.8-0.4-0.8-0.8C9,9.1,9.1,8.9,9.2,8.7c1-0.9,2.4-1.4,3.8-1.4h0.8c0.4,0,0.7,0.3,0.7,0.7
	v1.4C14.6,9.8,14.3,10.2,13.9,10.2z"/>
<path class="st6" d="M25,12c-0.4,0-0.7-0.2-0.9-0.4l-4-4.8l-5.9,1.6c-0.7,0.1-1.4-0.5-1.4-1.2c0-0.5,0.2-1,0.7-1.3l6.7-1.8
	c0.5-0.1,1,0,1.4,0.4l4.5,5.4c0.4,0.5,0.4,1.4-0.1,1.8C25.5,11.9,25.3,12.1,25,12L25,12z"/>
<path class="st7" d="M12.5,15.9c-0.7,0-1.3-0.5-1.3-1.3c0-0.3,0.1-0.7,0.4-0.9c2.3-2,5.2-3.1,8.3-3.1c1.5,0,2.8,0.1,4.3,0.5
	c0.6,0.2,1,0.9,0.8,1.6c-0.2,0.6-0.9,1-1.6,0.8c-1.2-0.3-2.3-0.4-3.6-0.4c-2.4,0-4.8,0.8-6.6,2.5C13.2,15.8,12.9,15.9,12.5,15.9z"/>
<path class="st8" d="M26.4,4.6c1.5,2.7,3.7,4.9,6.4,6.4L34,9.2c-2.4-1.3-4.4-3.1-5.8-5.5C28,3.2,27.5,3,27.1,3.1
	c-0.1,0-0.2,0.1-0.3,0.1C26.3,3.5,26,4.1,26.4,4.6z"/>
<path class="st1" d="M36.8,11.5c-0.1,1.3-0.3,2.4-0.8,3.6c-1.4,2.7-3.9,4.6-6.9,4.9h-0.2c-0.5,0-1-0.4-1-0.9
	c-0.1-0.6,0.3-1.2,0.9-1.3c2.2-0.3,4.1-1.6,5.2-3.5l0,0c-0.2,0.1-0.4,0.2-0.7,0.3c-1.5,0.7-3,1-4.7,1h-0.4c-2-0.1-4-0.7-5.8-1.7
	c-0.3-0.1-0.4-0.5-0.2-0.7l0,0l0.5-0.8l2-3.2c0.1-0.3,0.5-0.3,0.7-0.2c1.6,1,3.6,1.2,5.2,0.4c0.5-0.2,0.9-0.5,1.4-0.8
	c0.5-0.4,1.3-0.4,1.7,0l2.6,2C36.6,10.8,36.8,11.1,36.8,11.5z"/>
<path class="st8" d="M33.9,14.4c-0.2,0.1-0.5,0.2-0.7,0.3c-1.5,0.7-3,1-4.7,1h-0.3c-2-0.1-4-0.7-5.8-1.7c-0.3-0.1-0.4-0.5-0.2-0.7
	l0,0l0.5-0.8c3.6,2.2,8,2.3,11.6,0.4C34.3,13.5,34.2,14,33.9,14.4z"/>
<path class="st8" d="M33.9,14.4L33.9,14.4l-0.7,0.3L32.7,15c-0.3-0.2-0.3-0.6-0.2-0.8c0.2-0.3,0.3-0.7,0.3-1c0-0.4,0.3-0.7,0.6-0.7
	c0.4,0,0.7,0.3,0.7,0.7C34.3,13.5,34.2,14,33.9,14.4z"/>
<path class="st9" d="M27.6,20.4h-1.3c-0.3,0-0.6-0.2-0.7-0.4l-0.4-0.8c-0.2-0.4,0-0.8,0.4-1c0.1,0,0.2-0.1,0.3-0.1h1.7
	c0.6,0,1.3,0.5,1.3,1.3C28.8,19.8,28.2,20.4,27.6,20.4z"/>
<path class="st10" d="M26,3l-0.1-1.3c0-0.3,0.1-0.6,0.4-0.7l0.8-0.4c0.4-0.2,0.8-0.1,1,0.3c0,0.1,0.1,0.2,0.1,0.3l0.1,1.6
	c0,0.6-0.4,1.3-1.2,1.3C26.7,4.3,26.1,3.8,26,3L26,3z"/>
<path class="st9" d="M37.3,7.5c0,0.6-0.2,1.4-0.7,1.8c-0.9,1.2-2.6,1.4-3.8,0.4c-0.6-0.5-1-1.4-0.9-2.2c0-0.7,0.3-1.6,0.9-2
	c1-1,2.7-0.9,3.8,0.1C37,6.2,37.3,6.8,37.3,7.5z"/>
<path class="st10" d="M37.3,7.5c0,0.6-0.2,1.4-0.7,1.8C36.3,9.2,36,9,35.8,8.8l-2.2-2.1c-0.4-0.4-0.6-0.8-0.8-1.4
	c1-1,2.7-0.9,3.8,0.1C37,6.1,37.3,6.8,37.3,7.5L37.3,7.5z"/>
<path class="st2" d="M34.4,6l2.2,2.1c0.4,0.4,1,0.4,1.5,0l0.7-0.7c0.6-0.6,0.6-1.6,0-2.2l-3.4-3.2c-0.2-0.2-0.4-0.2-0.6,0l-0.4,0.4
	C33.4,3.3,33.4,5,34.4,6z"/>
<path class="st11" d="M18.6,21c-0.4,0-0.7-0.3-0.7-0.7l0,0v-7.9c0-0.4,0.3-0.7,0.7-0.7c0.4,0,0.7,0.3,0.7,0.7v7.9
	C19.3,20.7,19,21,18.6,21L18.6,21z"/>
<path class="st11" d="M20.9,18.6c-0.4,0-0.7-0.3-0.7-0.7l0,0v-1.6c0-0.4,0.3-0.7,0.7-0.7l0,0c0.4,0,0.7,0.3,0.7,0.7v1.6
	C21.5,18.4,21.3,18.6,20.9,18.6z"/>
<path class="st11" d="M35.5,22.7c-0.3,0-0.6-0.3-0.6-0.6v-6.9c-0.1-0.4,0.1-0.7,0.5-0.8c0.4-0.1,0.7,0.1,0.8,0.5c0,0.1,0,0.2,0,0.4
	v6.9C36.1,22.4,35.8,22.7,35.5,22.7L35.5,22.7z"/>
<path class="st11" d="M37.3,20.1c-0.4,0-0.7-0.3-0.7-0.7l0,0v-1.7c-0.1-0.4,0.1-0.7,0.5-0.8c0.4-0.1,0.7,0.1,0.8,0.5
	c0,0.1,0,0.2,0,0.4v1.6C38,19.8,37.7,20.1,37.3,20.1z"/>
<path class="st11" d="M10.8,21.9c-0.4,0-0.7-0.3-0.7-0.7l0,0v-1c-0.1-0.4,0.1-0.7,0.5-0.8c0.4-0.1,0.7,0.1,0.8,0.5
	c0,0.1,0,0.2,0,0.4v1C11.4,21.6,11.1,21.9,10.8,21.9z"/>
<path class="st11" d="M12.6,23.7c-0.4,0-0.7-0.3-0.7-0.7v-2.8c-0.1-0.4,0.1-0.7,0.5-0.8c0.4-0.1,0.7,0.1,0.8,0.5c0,0.1,0,0.2,0,0.4
	V23C13.4,23.2,13.1,23.6,12.6,23.7z"/>
</svg>
