<?xml version="1.0" encoding="utf-8"?>
<!-- Generator: Adobe Illustrator 23.1.0, SVG Export Plug-In . SVG Version: 6.00 Build 0)  -->
<svg version="1.1" id="icons" xmlns="http://www.w3.org/2000/svg" xmlns:xlink="http://www.w3.org/1999/xlink" x="0px" y="0px"
	 viewBox="0 0 47 47" style="enable-background:new 0 0 47 47;" xml:space="preserve">
<style type="text/css">
	.st0{fill:#EEA886;}
	.st1{fill:#666BAD;}
	.st2{fill:#D1C0BA;}
	.st3{fill:#292C47;}
	.st4{fill:#CF8C6C;}
	.st5{fill:#DB9C7C;}
	.st6{fill:#FF556F;}
	.st7{fill:#754836;}
	.st8{fill:#A77860;}
	.st9{fill:#1B1C2E;}
	.st10{fill:#3C3F66;}
	.st11{fill:#575B94;}
</style>
<title>Treadmill Desk, Walking</title>
<g id="Treadmill_Desk_Walking">
	<polygon class="st0" points="3.7,33.9 3.2,34.2 4.1,35.5 4.6,35.2 	"/>
	<path class="st1" d="M3.2,34.2l0.7,0.9c0.2,0.3,0.5,0.2,0.4,0.4C4,36,3.8,36.5,3.8,37c0,0.4,0.3,2.7-0.2,2.9s-0.9-0.8-1.5-2.3
		C1.6,36,1.2,36.1,1.2,35C1.2,34.7,3.2,34.2,3.2,34.2z"/>
	<rect x="37.7" y="42.7" class="st2" width="3.1" height="1.9"/>
	<rect x="6.5" y="42.7" class="st2" width="3.1" height="1.9"/>
	<path class="st0" d="M17.5,27.6c0,0-3.8,4.4-5,4.8c-2.3,0.7-8,2.9-8,2.9L3.6,34c0,0,3.7-2.3,5-3c1.7-0.9,2.7-1,3.3-2.4
		c0.4-0.9,1.5-4.2,1.5-4.2L17.5,27.6z"/>
	<polygon class="st0" points="29.8,39 30.1,39.5 31.4,38.6 31,38.1 	"/>
	<path class="st3" d="M19.7,24.8c0,0-0.2,0.2-0.4,0.6c-0.2,0.2-0.4,0.5-0.6,0.8l0,0l-0.3,0.3l-0.5,0.6l-0.3,0.4l0,0
		c-1.7-0.2-3.2-0.6-4.8-1.4c0.3-0.7,0.5-1.5,0.7-2.2l0,0c0.2-1.5,0.7-2.8,1.6-4.1C15.5,19.5,19.7,24.8,19.7,24.8z"/>
	<path class="st0" d="M28.2,15.1c0,0,0.2-0.7,0.3-0.8c0-0.1,0.3-0.3,0.6-0.4c0.3-0.1,0.5-0.2,0.8-0.2c0.1,0,0.2,0.1,0.2,0.2
		c0,0.1,0.1,0.2,0.1,0.3c0.1,0.1,0.1,0.2,0.1,0.3c0.1,0.1,0.1,0.2,0.1,0.3c0.1,0.1,0.1,0.2,0.1,0.3c-0.1,0.1-0.2,0.2-0.3,0.3
		c-0.4,0.3-0.7,0.5-1.3,0.6C29.1,15.9,28.4,16.3,28.2,15.1z"/>
	<path class="st4" d="M29.2,14.7c0,0.1,0,0.3,0,0.4c-0.1,0.1,0.7,0.3,0.7,0.3S29.6,14.7,29.2,14.7z"/>
	<path class="st0" d="M28,15.4c0.1-0.1,0.3-0.3,0.4-0.5s0.6,0.9,0.6,0.9c-0.3,0-0.7,0.1-0.9,0.2C27.8,16.4,28,15.4,28,15.4z"/>
	<path class="st5" d="M29.9,13.6c0,0-0.7,0.5-0.7,0.6s0.1,0.1,0.2,0.1l-0.2,0.3c0,0,0,0.3,0.3,0.2c0,0-0.1,0.3,0.3,0.2
		c0,0,0,0.2,0.2,0.2c0.2-0.1,0.4-0.2,0.6-0.3c0,0,0.1-0.1-0.1-0.3c0-0.1,0-0.2-0.1-0.3c0-0.1,0-0.2-0.1-0.3
		C30.2,14.1,30.2,13.6,29.9,13.6L29.9,13.6z"/>
	<path class="st0" d="M28.5,14.3c0.3,0,0.6,0,0.9,0.1c0.1,0,0.1,0.1,0.2,0.1s-0.1,0.2-0.4,0.2c-0.2,0-0.4,0.1-0.6,0.2
		C28.6,15,28.4,14.9,28.5,14.3z"/>
	<path class="st0" d="M20.9,10.6l2,5.1c0,0,0.1,0.7,1.6,0.2c1.5-0.5,3.9-1,3.9-1s0.7,1,0.5,1.1c-2.1,1-4.2,1.9-6.4,2.6
		c-1.4,0.3-4-6.6-4-6.6L20.9,10.6z"/>
	<path class="st0" d="M23.2,24.2c0,0,3.6,3.9,3.7,5.1c0.1,1.3,4.4,9,4.4,9L30,39.2c0,0-4.5-6-5.3-7.3c-0.9-1.6-0.6-1.9-2.1-2.7
		c-0.8-0.5-2.9-1.7-2.9-1.7L23.2,24.2z"/>
	<path class="st3" d="M20.7,21.2c0,0,1.8,2,3.4,4c0,0-2.8,1.5-4.4,2.4c0,0-5.6-3.9-6.1-5.2C13.5,21.7,20.7,21.2,20.7,21.2z"/>
	<path class="st6" d="M22.2,18.1c-0.5,1.4-1.4,2.9-0.9,3.8c-2.6,0.6-5.3,0.9-8,0.9c0,0,1.5-2.3,2.8-4.8c0.1-0.1,0.1-0.2,0.2-0.4
		c0.7-1.3,1.3-2.6,1.6-4.1c0-0.2,0-0.5,0-0.7c0-0.3,0-0.6,0.1-0.9c0.2-1.1,0.6-2.1,1.4-2.9l0.3-0.3c0.3-0.3,0.6-0.5,1-0.7
		c0.6,0.3,1.1,0.7,1.6,1.3c0.8,1.3,1.4,2.6,1.6,4.1C23.8,15.7,23,16.3,22.2,18.1z"/>
	<path class="st1" d="M30.1,39.4l1-0.7c0.3-0.2,0.2-0.5,0.4-0.4c0.4,0.3,0.9,0.5,1.5,0.6c0.4,0,2.8-0.3,3,0.2s-0.8,1-2.4,1.5
		c-1.6,0.5-1.5,0.9-2.6,0.9C30.6,41.5,30.1,39.4,30.1,39.4z"/>
	<path class="st0" d="M24.9,4.6c0,0,0.3,1,0,1.1s0,1,0,1.3s-0.4,0.2-0.5,0.2c-0.1,0.1-0.7,1.3-1,1.1c-0.8-0.3-1.6-0.8-2.2-1.6
		c-0.3-1.1-0.2-2.4,0.3-3.4C21.9,2.5,24.4,2.7,24.9,4.6z"/>
	<path class="st0" d="M22.5,7.8L22.4,8c0,0.1-0.1,0.2-0.1,0.4c-0.1,0.4-0.1,0.7-0.1,1.1c0,0.4-1.7-1.7-1.7-1.7c0.2-0.9,0.4-2,0.4-3
		C21,3.3,22.5,7.8,22.5,7.8z"/>
	<path class="st7" d="M24.9,4.8c0.4-0.5,0.4-1.4,0-1.9c-0.7-0.9-2.8-0.1-3-0.1s-1.4-0.2-1.3,1.9s0.1,1.8,0.1,1.8s0.4-0.8,0.8-0.8
		s1,0.1,1,0.1s0-0.9,0.5-0.9C23.6,4.8,24.5,4.5,24.9,4.8z"/>
	<path class="st0" d="M22.2,5.1c0-0.1,0-0.5-0.5-0.3S21.5,6,21.6,6C21.8,6,22.4,6.2,22.2,5.1z"/>
	<path class="st8" d="M22.4,8c0,0.1-0.1,0.2-0.1,0.4C21.9,8,21.5,7.6,21.2,7C21.5,7.4,22,7.7,22.4,8z"/>
	<path class="st9" d="M18.3,26.6l-0.5,0.6c-0.7-0.8-1.5-1.8-2.1-2.7C16.4,25.1,18.3,26.6,18.3,26.6z"/>
	<path class="st0" d="M21,12.3l-4.9,2.3c0,0-0.7,0.1-0.1,1.6c0.6,1.5,1.3,3.8,1.3,3.8s-0.9,0.8-1,0.6c-1.1-2-2.2-4.1-3-6.2
		C12.8,13,19.5,10,19.5,10L21,12.3z"/>
	<path class="st6" d="M21.3,10.6c0,0,1,1.8-2.5,3l-0.6-3C18.2,10.5,20.4,8.6,21.3,10.6z"/>
	<path class="st0" d="M20.5,7.9c0,0,3.6,6.9,3.1,4.8c-0.2-1.3-0.6-2.5-1.4-3.7L20.5,7.9z"/>
	<rect x="1.5" y="41.7" class="st10" width="44.3" height="2.1"/>
	<polygon class="st10" points="43.8,43.5 34.2,29.2 42.7,13.4 43.8,14 35.4,29.1 44.7,42.9 	"/>
	<path class="st11" d="M28.4,21.8h10.9c0.3,0,0.5,0.2,0.5,0.5v0.4c0,0.3-0.2,0.5-0.5,0.5H28.4c-0.3,0-0.5-0.2-0.5-0.5v-0.4
		C27.9,22,28.2,21.8,28.4,21.8z"/>
	<path class="st11" d="M38.2,21.7l5.5-10c0.2-0.4,0.8-0.6,1.3-0.3l0.4,0.2c0.4,0.2,0.6,0.8,0.3,1.3l-5.5,10
		c-0.2,0.4-0.8,0.6-1.3,0.3L38.5,23C38,22.7,37.8,22.1,38.2,21.7z"/>
	<path class="st0" d="M16.9,22.4c-0.1-0.1-0.1-0.1-0.2-0.2L16.6,22v-0.1c-0.1-0.1-0.2-0.3-0.2-0.4c-0.1-0.2-0.2-0.9-0.2-0.9l0.6-0.2
		l0.4-0.4c0.4,0.3,0.7,0.7,1,1v0.1c0,0.1,0,0.3,0,0.4c0,0,0.1,0.4,0,0.4c0,0.1-0.1,0.1-0.2,0.1c-0.1,0.1-0.2,0.2-0.4,0.2
		c-0.1,0.1-0.3,0.1-0.4,0.1C17.3,22.3,17.1,22.4,16.9,22.4z"/>
</g>
</svg>
