<?xml version="1.0" encoding="utf-8"?>
<!-- Generator: Adobe Illustrator 23.1.0, SVG Export Plug-In . SVG Version: 6.00 Build 0)  -->
<svg version="1.1" id="icons" xmlns="http://www.w3.org/2000/svg" xmlns:xlink="http://www.w3.org/1999/xlink" x="0px" y="0px"
	 viewBox="0 0 47 47" style="enable-background:new 0 0 47 47;" xml:space="preserve">
<style type="text/css">
	.st0{fill:#FF8B00;}
	.st1{fill:#FFFFFF;}
</style>
<title>TRX</title>
<circle class="st0" cx="23.7" cy="23.1" r="23"/>
<path class="st1" d="M14.4,18.8h-3.3v-1.2h8.2v1.3h-3.4v9.6h-1.4L14.4,18.8z"/>
<path class="st1" d="M20.4,17.7c0.8-0.1,1.8-0.2,2.8-0.2c1.2-0.1,2.2,0.2,3.2,0.8c0.5,0.5,0.8,1.3,0.8,2.1c0,1.3-0.8,2.4-2.1,2.8
	l0,0c0.8,0.4,1.5,1.3,1.6,2.2c0.2,1.1,0.4,2,0.8,3H26c-0.3-0.8-0.5-1.7-0.7-2.6c-0.3-1.5-1-2.1-2.2-2.1h-1.4v4.8h-1.4L20.4,17.7z
	 M21.7,22.7h1.5c1.5,0,2.4-0.8,2.4-2.1c0-1.3-1.1-2-2.5-2c-0.4,0-1,0-1.4,0.1V22.7z"/>
<path class="st1" d="M35.1,28.5l-1.4-2.4c-0.5-1-1-1.5-1.3-2.1l0,0c-0.3,0.6-0.6,1.2-1.2,2.2l-1.4,2.4h-1.6l3.3-5.4l-3.2-5.4H30
	l1.5,2.5c0.4,0.7,0.7,1.3,1.1,1.8l0,0c0.3-0.6,0.6-1.2,1-1.8l1.5-2.5h1.6l-3.3,5.3l3.4,5.5h-1.6V28.5z"/>
</svg>
