<?xml version="1.0" encoding="utf-8"?>
<!-- Generator: Adobe Illustrator 23.1.0, SVG Export Plug-In . SVG Version: 6.00 Build 0)  -->
<svg version="1.1" id="icons" xmlns="http://www.w3.org/2000/svg" xmlns:xlink="http://www.w3.org/1999/xlink" x="0px" y="0px"
	 viewBox="0 0 47 47" style="enable-background:new 0 0 47 47;" xml:space="preserve">
<style type="text/css">
	.st0{fill:#E6E6E6;}
	.st1{fill:#A8A8A8;}
</style>
<title>Volleyball</title>
<g id="Volleyball">
	<circle class="st0" cx="23.7" cy="23.7" r="22.8"/>
	<path class="st1" d="M46.2,19.9c0-0.3-0.1-0.7-0.2-1C40,27.5,18.3,24,18.1,24H18h-0.1c-2.4,1.2-4.7,2.7-6.6,4.6
		c-2.8,2.5-4.7,6.1-5,10l0.8,0.9c0.1-9.2,9.9-14.1,11.1-14.6C20,25,39.5,27.9,46.2,19.9z"/>
	<path class="st1" d="M17.6,24.7h0.8C18,16.2,15.3,11,13.2,8C12.4,7,11.4,6,10.4,5L9.9,5.5C12.4,7.7,17.2,13.4,17.6,24.7z"/>
	<path class="st1" d="M20.3,1c5,7.2,8.3,15.3,9.4,24l0.8-0.1C29.3,16.3,26.1,8.2,21.2,1C21.2,1,20.3,1,20.3,1z"/>
	<path class="st1" d="M34.2,3.4c3.7,6,5.9,12.8,6.2,19.9h0.8c-0.3-6.7-2.3-13.1-5.5-18.9C35.1,3.9,34.7,3.7,34.2,3.4z"/>
	<path class="st1" d="M15.1,11.4c-2.7,1-5.3,2.4-7.7,4.1c-2.7,2.1-5,4.7-6.6,7.7c0,0.5,0,1.2,0,1.7c3.9-9.4,14.4-12.8,14.6-12.8
		L15.1,11.4z"/>
	<path class="st1" d="M21,38.3c-4.7-0.7-9-2.3-13-4.9l-0.4,0.7c4,2.6,8.6,4.2,13.4,5c1.3,0.2,2.7,0.3,4,0.3c6.1,0,13.6-2.1,20.7-9.3
		c0.1-0.5,0.2-1,0.4-1.5C38.8,36.4,30.4,39.8,21,38.3z"/>
</g>
</svg>
