<?xml version="1.0" encoding="utf-8"?>
<!-- Generator: Adobe Illustrator 23.1.0, SVG Export Plug-In . SVG Version: 6.00 Build 0)  -->
<svg version="1.1" id="icons" xmlns="http://www.w3.org/2000/svg" xmlns:xlink="http://www.w3.org/1999/xlink" x="0px" y="0px"
	 viewBox="0 0 47 47" style="enable-background:new 0 0 47 47;" xml:space="preserve">
<style type="text/css">
	.st0{fill:none;stroke:#28B1BB;stroke-width:2;stroke-linecap:round;}
	.st1{fill:none;stroke:#9E9E9E;stroke-width:2;}
	.st2{fill:none;stroke:#28B1BB;stroke-width:2;}
	.st3{fill:#9E9E9E;}
</style>
<title>TreadmillNo Incline</title>
<g id="pedometer_icon" transform="translate(1 1.124)">
	<path id="Path_7719" class="st0" d="M2.1,31h13.7"/>
	<path id="Path_7718" class="st0" d="M0.5,34.3h18.2"/>
	<path id="Path_7691" class="st1" d="M4.9,15.8l17.6,17.5c1.2,1,2.8,1.5,4.2,1.4c2.6-0.1,17.8,0,17.8,0"/>
	<path id="Path_7688" class="st1" d="M44.5,34.1v2.1c0,1-0.6,1.6-1.6,1.6l0,0h-17c-1.8,0-3.6-0.8-5-2c-2.3-2.3-7-7-16.2-16.2
		c-1-1-1.3-2.6-0.4-3.4l2.6-2.6l17.6,17.5c0.5,0.5,1.4,1,2.1,1h17.7C44.4,32.7,44.5,33.4,44.5,34.1z"/>
	<path id="Path_7684" class="st2" d="M36.8,26.3h-3.1c-1.1,0-2-0.5-2.5-1.6c-1.6-3-3.4-5.7-5.6-8.3c-0.3-0.3-0.8-0.6-1.3-0.6l-5.4-1
		c-2.6-0.6-4.3-3.2-4.1-5.9l0.1-0.5c0-0.3-0.1-0.8-0.3-1.1c-0.4-0.4-1.3-0.4-1.7,0l-8.7,8.8c-0.8,0.8-0.5,2.5,0.4,3.4
		c9.2,9.2,13.9,13.9,16.2,16.2c1.4,1.4,3.1,2,5,2h17c1,0,1.6-0.6,1.6-1.6v-2C44.5,29.8,41.1,26.3,36.8,26.3L36.8,26.3z"/>
	<path id="Path_7685" class="st3" d="M24.5,20c-0.2-0.3-0.1-0.6,0.2-1l0,0l3.5-2.3c0.3-0.2,0.6-0.1,1,0.2c0.2,0.3,0.1,0.6-0.2,1
		l-3.5,2.3C25,20.4,24.6,20.3,24.5,20z"/>
	<path id="Path_7686" class="st3" d="M26.2,22.8c-0.2-0.3-0.1-0.6,0.2-1l0,0l3.5-2.3c0.3-0.2,0.6-0.1,1,0.2c0.2,0.3,0.1,0.6-0.2,1
		L27.1,23C26.9,23.3,26.4,23.1,26.2,22.8z"/>
	<path id="Path_7687" class="st3" d="M28,25.8c-0.2-0.3-0.1-0.6,0.2-1l0,0l3.5-2.3c0.3-0.2,0.6-0.1,1,0.2c0.2,0.3,0.1,0.6-0.2,1
		L29,26C28.6,26.1,28.3,26,28,25.8z"/>
</g>
</svg>
