<?xml version="1.0" encoding="utf-8"?>
<!-- Generator: Adobe Illustrator 23.1.0, SVG Export Plug-In . SVG Version: 6.00 Build 0)  -->
<svg version="1.1" id="icons" xmlns="http://www.w3.org/2000/svg" xmlns:xlink="http://www.w3.org/1999/xlink" x="0px" y="0px"
	 viewBox="0 0 47 47" style="enable-background:new 0 0 47 47;" xml:space="preserve">
<style type="text/css">
	.st0{fill:#334A61;}
</style>
<title>Walking</title>
<g id="Leslie_Sansone_Just_Walk">
	<path class="st0" d="M29.3,23.5c0,0.8,0.6,1.4,1.3,1.4c0.8,0,1.4-0.6,1.4-1.3c0-0.8-0.6-1.4-1.3-1.4C29.8,22.2,29.3,22.8,29.3,23.5
		L29.3,23.5z"/>
	<polygon class="st0" points="29.3,23.9 28.1,21 29.5,20.5 30.5,22.9 	"/>
	<path class="st0" d="M28.3,22.5l2.6-1l-4.6-9L24,8.9c-0.4-0.6-1.3-0.7-1.9-0.3l0,0c-0.6,0.4-0.7,1.3-0.3,1.9l3.4,5L28.3,22.5z"/>
	<path class="st0" d="M22.8,9.6L22.8,9.6c-0.6,0-1-0.5-1-1V4.4l0,0H24l0,0v4C23.9,9,23.3,9.6,22.8,9.6L22.8,9.6z"/>
	<path class="st0" d="M20,4.4c0,1.3,1.1,2.4,2.4,2.4s2.4-1.1,2.4-2.4S23.7,2,22.4,2l0,0C21.1,2,20,3.1,20,4.4z"/>
	<path class="st0" d="M21.6,7.8L21.6,7.8c0.6,0,1.1-0.5,1.1-1.1V4.4H20v1.9C20,7.1,20.8,7.8,21.6,7.8z"/>
	<path class="st0" d="M20.1,4.9l-0.5,0.8c-0.1,0.1,0,0.2,0.1,0.3h0.1l0.6,0.1L20.1,4.9z"/>
	<path class="st0" d="M20,4.4c0,1.3,1.1,2.4,2.4,2.4s2.4-1.1,2.4-2.4S23.7,2,22.4,2l0,0C21.1,2,20,3.1,20,4.4z"/>
	<path class="st0" d="M24.3,9.3V8c0,0-2.7-0.5-3.6,0.8l1.4,1.8L24.3,9.3z"/>
	<polygon class="st0" points="19.3,41.3 18.8,43.8 17,43.2 17.4,40.8 	"/>
	<path class="st0" d="M20.1,20.2L18,30.9l-1.3,10.6l3.1,0.8l1.9-10.9l3.2-7.9c0.2-0.3,0.4-0.7,0.5-1c0.3-0.7,0.4-1.4,0.4-2.2v-1.5
		L20.1,20.2z"/>
	<path class="st0" d="M19.1,43.1c0-0.1-0.1-0.2-0.2-0.1c0,0,0,0-0.1,0c-0.3,0.2-0.7,0.2-1,0.1c-0.3,0-0.6-0.3-0.7-0.6
		c0-0.1-0.1-0.2-0.2-0.1l0,0l-1.7,0.7c-0.7,0.1-1.4,0.2-2.1,0.5l0,0c-0.1,0.1,0,0.3,0.1,0.4h0.1l5.3,0.8c0.2,0,0.4-0.1,0.4-0.3l0,0
		l0.1-1c0,0,0,0,0-0.1C19.2,43.5,19.2,43.1,19.1,43.1z"/>
	<polygon class="st0" points="31.9,38.5 33.3,40.1 31.8,41.2 30.4,39.5 	"/>
	<path class="st0" d="M20.1,20.2l2.3,10c0.2,1.1,0.6,2.1,1.2,3.1l6.9,7.1l2.4-1.8l-6.2-8l-1.9-9.7L20.1,20.2z"/>
	<path class="st0" d="M20.1,20.2v-1.4h5.7c0.5,1.7,0.1,3.5-1,4.9L20.1,20.2z"/>
	<path class="st0" d="M33.2,39.5c-0.1,0-0.2,0-0.2,0.1l0,0c0,0.4-0.2,0.7-0.4,0.9c-0.2,0.3-0.6,0.4-0.9,0.3c-0.1,0-0.2,0-0.2,0.1
		l0,0l-0.3,1.9c-0.3,0.6-0.5,1.3-0.6,2l0,0c0.1,0.1,0.2,0.2,0.4,0.1c0,0,0.1,0,0.1-0.1l3.4-4.1c0.1-0.2,0.1-0.4,0-0.5l0,0l-0.9-0.6
		l0,0L33.2,39.5z"/>
	<path class="st0" d="M19.3,21.8c2.6,0.6,5.3,0.5,7.8-0.4l-0.9-9.3c-0.2-2.1-1-3.7-2.3-3.7l0,0c-2.3,0.2-4.1,3.7-4.1,4.8L19.3,21.8z
		"/>
	<path class="st0" d="M13.5,22.4c-0.7,0.3-1,1.1-0.7,1.8c0.3,0.7,1.1,1,1.8,0.7s1-1.1,0.7-1.8C15,22.4,14.2,22.1,13.5,22.4z"/>
	<polygon class="st0" points="13.2,22.6 15.4,20.4 16.4,21.4 14.6,23.3 	"/>
	<path class="st0" d="M14,21l2,1.9l5.6-5.2l2.9-6.2c0.4-0.7,0.1-1.5-0.5-1.9l0,0c-0.7-0.4-1.5-0.1-1.9,0.5L19.4,16L14,21z"/>
</g>
</svg>
