<?xml version="1.0" encoding="utf-8"?>
<!-- Generator: Adobe Illustrator 23.1.0, SVG Export Plug-In . SVG Version: 6.00 Build 0)  -->
<svg version="1.1" id="icons" xmlns="http://www.w3.org/2000/svg" xmlns:xlink="http://www.w3.org/1999/xlink" x="0px" y="0px"
	 viewBox="0 0 47 47" style="enable-background:new 0 0 47 47;" xml:space="preserve">
<style type="text/css">
	.st0{fill:#F9CFB4;}
	.st1{fill:#4671C6;}
	.st2{fill:#FF9D00;}
	.st3{fill:#5B5B5B;}
	.st4{fill:#396DFF;}
</style>
<title>WaterWalking</title>
<g id="Water_Jogging">
	<path class="st0" d="M22.4,12.4l-1,0.9L20,14.5L18.2,16c-0.1,0.1-0.2,0.1-0.3,0.1l-5.5,0.2c-0.1,0-0.3,0-0.4-0.1l-1.7-1.5
		c-0.1,0-0.1,0-0.2,0c-0.2,0.1-0.2,0.3-0.1,0.5l0.3,0.5c0,0.1,0,0.1-0.1,0.2c0,0,0,0-0.1,0l-2.1-0.4c-0.1,0-0.3,0.1-0.3,0.2l0,0
		l-0.3,2.1c0.2,0.2,0.3,0.3,0.4,0.3l1.2,0.4c0.3,0.1,0.6,0.1,1,0.1l2-0.3c0.1,0,0.1,0,0.2,0l6.2,1.1c0.4,0.1,0.9,0,1.3-0.3l3.2-2.3
		l2.8-5.4c-0.4-0.1-0.9-0.1-1.2,0c-0.5,0.1-1,0.3-1.4,0.5L22.4,12.4z"/>
	<path class="st0" d="M28.6,20.3c-0.3-0.4-0.4-1.1-0.3-1.6l0.5-1.8v-1.9c0-1.6-1.1-3-2.6-3.4v-0.6c1.3-0.2,2.3-1.3,2.3-2.6V5.4
		c-0.1-1.5-1.4-2.7-2.9-2.7h-1.7c-1.4-0.1-2.6,1-2.7,2.4v1.8C21.2,7,21.1,7.1,21,7c-0.2,0-0.4,0.2-0.5,0.4c0,0.2,0.2,0.4,0.4,0.5
		c0,0,0,0,0.1,0h0.2v0.4c0,1.1,0.8,2,1.9,2.4v1.1c-1.1,0.6-1.8,1.8-1.8,3v0.9c0,0.6,0,1.3,0.1,1.9l0.6,3.5v2.8h7.6
		C29.9,22.6,29.4,21.4,28.6,20.3L28.6,20.3z"/>
	<path class="st0" d="M37.3,40.2l-1-0.8l-5.5-8.6L30,23.5l-6.9,1l3.7,7.6l7.2,8.8l-1.5,2.5l-1,0.5c-0.3,0.1-0.3,0.5-0.2,0.8l0,0
		c0.1,0.2,0.3,0.3,0.5,0.3l1.9-0.2c0.1,0,0.3-0.1,0.4-0.2l3-2.3c0.3-0.2,0.5-0.6,0.5-1C37.8,40.9,37.6,40.5,37.3,40.2z"/>
	<path class="st1" d="M30.4,27.6L30,23.5l-6.9,1l1.8,3.9l0.5,1l5.2-0.9L30.4,27.6z"/>
	<path class="st0" d="M27.3,40.4l-0.2,0.9c-0.1,0.2-0.3,0.4-0.5,0.4c-0.2,0-0.4-0.1-0.5-0.4l-0.2-0.9l0,0l-0.8-4L15,30
		c-0.5-0.3-1-0.9-1.1-1.5c-0.1-1.1,0.5-2,1.5-2.4l5.2-1.6l2.6,4.2l-2.1,0.1C21,28.8,21,28.9,21,29v0.1l5.2,4.7h1
		c0.3,0,0.8,0.1,1,0.4c0.3,0.3,0.4,0.6,0.4,1.1c0,0.5-0.1,1-0.2,1.4L27.3,40.4z"/>
	<path class="st2" d="M30.3,23.1c-0.2-1-0.8-1.9-1.5-2.6c-0.3-0.3-0.5-0.8-0.5-1.2c0-0.2,0-0.4,0.1-0.6l0.5-1.8v-1.9
		c0-2-1.7-3.8-3.8-3.8s-3.8,1.7-3.8,3.8v0.9c0,0.6,0,1.3,0.1,1.9l0.6,3.5V24l-1.5,0.4l2.6,4.2h1l0,0C24.2,28.7,31.6,28.9,30.3,23.1z
		 M27.3,15.6c-0.1,1.1-1.1,1.9-2.1,1.8c-1-0.1-1.7-0.9-1.8-1.8v-1.6h4V15.6L27.3,15.6z"/>
	<path class="st0" d="M24.6,15.3l0.4,0.1l1.3,0.4l1.7,0.5l2.3,0.6c0.1,0,0.2,0.1,0.3,0.2c3.3,4.7,3.2,4.5,3.1,4.7l-0.5,2.1
		c0,0.1,0,0.1,0.1,0.1l0,0c0.2,0.1,0.4,0,0.5-0.2l0.3-0.5c0-0.1,0.1-0.1,0.2,0l0,0l0.8,2c0.1,0.1,0.2,0.2,0.3,0.1l0,0l2-0.9
		c0.1,0,0.2-0.2,0.2-0.3l-0.2-1.1c-0.1-0.3-0.2-0.5-0.4-0.8l-1.4-1.5L35.6,21l-2.3-5.6c-0.2-0.4-0.5-0.8-0.9-0.9l-3.7-1.5L26,11.9
		c-1-0.4-2,0-2.5,0.9l0,0.1c-0.4,0.9-0.1,1.9,0.8,2.5C24.4,15.3,24.5,15.3,24.6,15.3L24.6,15.3z"/>
	<path class="st3" d="M29.2,1.8L29.2,1.8c-0.8-0.8-1.8-1.3-3-1.3h-0.9c-2.3-0.1-4.1,1.7-4.1,3.9l0,0l0,0v0.4
		c2.3-0.6,4.6,0.5,5.4,2.9c0.1,0.5,0.2,1.1,0.2,1.6v0.1c0,0.2,0.1,0.4,0.3,0.5l0.5,0.2C29.1,9.3,30,8,30.4,6.4l0,0
		C30.8,4.7,30.4,3,29.2,1.8L29.2,1.8z"/>
	<path class="st4" d="M47.3,24.6c-4,0-4,3.7-7.9,3.7s-4-3.7-7.9-3.7s-4,3.7-7.8,3.7s-4-3.7-7.9-3.7s-4,3.7-7.8,3.7s-4-3.7-7.9-3.7
		v22.6h47.5V24.6z"/>
</g>
</svg>
