<?xml version="1.0" encoding="utf-8"?>
<!-- Generator: Adobe Illustrator 23.1.0, SVG Export Plug-In . SVG Version: 6.00 Build 0)  -->
<svg version="1.1" id="icons" xmlns="http://www.w3.org/2000/svg" xmlns:xlink="http://www.w3.org/1999/xlink" x="0px" y="0px"
	 viewBox="0 0 47 47" style="enable-background:new 0 0 47 47;" xml:space="preserve">
<style type="text/css">
	.st0{fill:#FF9D00;}
	.st1{fill:#FFFFFF;}
</style>
<title>WaterVolleyball</title>
<g id="Water_Volleyball">
	<circle class="st0" cx="23.4" cy="23.6" r="23.2"/>
	<path class="st1" d="M46.3,19.7c0-0.3-0.1-0.6-0.2-1.1c-6.2,8.7-28.2,5.2-28.4,5.2h-0.1h-0.1c-2.5,1.2-4.8,2.7-6.7,4.6
		C7.8,31,6,34.7,5.6,38.6l0.8,0.9C6.5,30,16.6,25.1,17.6,24.5C19.6,24.9,39.6,27.9,46.3,19.7z"/>
	<path class="st1" d="M17.2,24.5H18c-0.3-8.5-3-13.9-5.3-17c-0.8-1.1-1.7-2.2-2.7-3L9.3,5.1C11.9,7.4,16.7,13,17.2,24.5z"/>
	<path class="st1" d="M20,0.4c5.1,7.2,8.4,15.7,9.6,24.4l0.8-0.1C29.2,16,25.8,7.7,20.9,0.4C20.9,0.4,20,0.4,20,0.4z"/>
	<path class="st1" d="M34.1,2.9C37.8,9,40,16,40.4,23.1h0.8c-0.4-6.8-2.4-13.4-5.7-19.3C35,3.5,34.6,3.3,34.1,2.9z"/>
	<path class="st1" d="M14.7,11c-2.8,1-5.5,2.4-7.9,4.2C4,17.3,1.8,20,0.1,23c0,0.6,0,1.2,0,1.8c4-9.6,14.7-13,14.8-13.1L14.7,11z"/>
	<path class="st1" d="M20.6,38.5c-4.8-0.6-9.2-2.4-13.2-5l-0.4,0.8c4.1,2.6,8.7,4.3,13.5,5.1c1.4,0.2,2.7,0.3,4.1,0.3
		c6.2,0,13.8-2.1,21.2-9.5c0.1-0.5,0.3-1.1,0.4-1.6C38.8,36.5,30.2,39.9,20.6,38.5z"/>
</g>
</svg>
