<?xml version="1.0" encoding="utf-8"?>
<!-- Generator: Adobe Illustrator 23.1.0, SVG Export Plug-In . SVG Version: 6.00 Build 0)  -->
<svg version="1.1" id="icons" xmlns="http://www.w3.org/2000/svg" xmlns:xlink="http://www.w3.org/1999/xlink" x="0px" y="0px"
	 viewBox="0 0 47 47" style="enable-background:new 0 0 47 47;" xml:space="preserve">
<style type="text/css">
	.st0{fill:#F9CFB4;}
	.st1{fill:#4671C6;}
	.st2{fill:#FF9D00;}
	.st3{fill:#5B5B5B;}
	.st4{fill:#396DFF;}
</style>
<title>WaterJogging</title>
<g id="Water_Jogging">
	<path class="st0" d="M22.4,12.6l-1,0.9L20,14.6l-1.8,1.5c-0.1,0.1-0.2,0.1-0.4,0.1l-5.5,0.2c-0.1,0-0.3,0-0.4-0.1l-1.7-1.5
		c-0.1,0-0.1,0-0.2,0c-0.2,0.1-0.2,0.3-0.1,0.5l0.3,0.5c0,0.1,0,0.1-0.1,0.2H9.9l-2.1-0.4c-0.1,0-0.3,0.1-0.3,0.2l0,0L7.1,18
		c0,0.1,0.1,0.2,0.2,0.3l1.4,0.4c0.3,0.1,0.6,0.1,1,0.1l2-0.3c0.1,0,0.1,0,0.2,0l6.2,1.1c0.4,0.1,0.9,0,1.3-0.3l3.2-2.2l2.8-5.4
		c-0.4-0.1-0.9-0.1-1.3,0c-0.5,0.1-1,0.3-1.4,0.5L22.4,12.6z"/>
	<path class="st0" d="M28.7,20.4c-0.3-0.4-0.4-1.1-0.3-1.6l0.5-1.8v-2c0-1.6-1.1-3-2.7-3.4V11c1.3-0.2,2.2-1.3,2.3-2.6V5.5
		c-0.1-1.5-1.4-2.8-2.9-2.7H24c-1.4-0.1-2.6,1.1-2.7,2.4v1.8c0,0.1-0.1,0.2-0.2,0.2c-0.2,0-0.4,0.2-0.5,0.4c0,0.2,0.2,0.4,0.4,0.5
		c0,0,0,0,0.1,0h0.2v0.4c0,1.1,0.9,2,1.9,2.3v1.1c-1.1,0.6-1.8,1.8-1.8,3.1v0.9c0,0.6,0,1.3,0.1,1.9l0.6,3.5v2.8h7.7
		C29.8,22.8,29.5,21.5,28.7,20.4L28.7,20.4z"/>
	<path class="st0" d="M37.3,40.4l-1-0.7L30.8,31l-0.9-7.3l-6.9,1l3.7,7.7l7.2,8.8l-1.5,2.4l-1,0.5c-0.3,0.1-0.4,0.5-0.2,0.7l0,0
		c0.1,0.2,0.3,0.3,0.5,0.3l1.9-0.2c0.1,0,0.3-0.1,0.4-0.2l3-2.3c0.3-0.2,0.5-0.6,0.5-1C37.9,41.1,37.7,40.7,37.3,40.4z"/>
	<path class="st1" d="M30.5,27.8l-0.5-4.2L23,24.7l1.8,3.8l0.5,1l5.2-0.9L30.5,27.8z"/>
	<path class="st0" d="M27.3,40.7l-0.2,0.9c-0.1,0.2-0.3,0.4-0.5,0.4s-0.4-0.1-0.5-0.4l-0.2-1l0,0L25,36.6l-10-6.5
		c-0.5-0.3-1-0.9-1.1-1.5c-0.1-1.1,0.5-2,1.5-2.3l5.1-1.6l2.6,4.3L21,29.1c-0.1,0-0.2,0.1-0.1,0.2v0.1l5.2,4.8h1
		c0.4,0,0.7,0.1,1,0.4c0.3,0.3,0.4,0.6,0.4,1.1c0,0.5-0.1,1-0.2,1.5L27.3,40.7z"/>
	<path class="st2" d="M30.4,23.2c-0.2-1-0.7-1.9-1.5-2.6c-0.3-0.3-0.5-0.7-0.6-1.2c0-0.2,0-0.4,0.1-0.6l0.5-1.8v-1.9
		c0-2-1.7-3.7-3.7-3.7s-3.7,1.7-3.7,3.7V16c0,0.6,0,1.3,0.1,1.9l0.6,3.5v2.8l-1.5,0.4l2.6,4.3h1l0,0C24.2,28.9,31.5,29.1,30.4,23.2z
		 M27.3,15.8c-0.1,1.1-1.1,1.9-2.1,1.8c-1-0.1-1.7-0.9-1.8-1.8v-1.7h3.9V15.8L27.3,15.8z"/>
	<path class="st0" d="M24.6,15.5l0.4,0.2l1.3,0.4l1.8,0.5l2.3,0.6c0.1,0,0.2,0.1,0.3,0.2c3.3,4.7,3.2,4.5,3.2,4.8l-0.5,2.1
		c0,0.1,0,0.1,0.1,0.1l0,0c0.2,0.1,0.4,0,0.5-0.2l0.3-0.5c0-0.1,0.1-0.1,0.2,0l0,0l0.7,2c0.1,0.1,0.2,0.2,0.3,0.1l0,0l2.1-0.9
		c0.1,0,0.2-0.2,0.2-0.3l-0.2-1.1c-0.1-0.3-0.2-0.5-0.4-0.7L36,21.5c0,0-0.1-0.1-0.1-0.2l-2.2-5.6c-0.2-0.4-0.5-0.7-0.9-0.9L29,13.2
		l-2.9-1.3c-1-0.4-2,0-2.4,0.9L23.5,13c-0.4,0.9-0.1,2,0.7,2.4C24.4,15.4,24.5,15.5,24.6,15.5L24.6,15.5z"/>
	<path class="st3" d="M29.3,1.9L29.3,1.9c-0.7-0.9-1.9-1.3-3-1.3h-0.9c-2.3-0.1-4.2,1.7-4.2,3.8l0,0l0,0v0.4
		c2.2-0.7,4.7,0.5,5.4,2.9c0.1,0.5,0.1,1.2,0.1,1.7v0.1c0,0.2,0.1,0.4,0.3,0.5l0.5,0.2c1.4-0.9,2.3-2.2,2.7-3.7l0,0
		C30.9,4.8,30.5,3.1,29.3,1.9L29.3,1.9z"/>
	<path class="st4" d="M47,25.3c-3.9,0-3.9,3.5-7.8,3.5c-3.9,0-3.9-3.5-7.8-3.5s-3.9,3.5-7.8,3.5s-3.9-3.5-7.8-3.5s-3.9,3.5-7.8,3.5
		s-3.9-3.5-7.8-3.5V47h46.8V25.3H47z"/>
</g>
</svg>
