<?xml version="1.0" encoding="utf-8"?>
<!-- Generator: Adobe Illustrator 23.1.0, SVG Export Plug-In . SVG Version: 6.00 Build 0)  -->
<svg version="1.1" id="icons" xmlns="http://www.w3.org/2000/svg" xmlns:xlink="http://www.w3.org/1999/xlink" x="0px" y="0px"
	 viewBox="0 0 47 47" style="enable-background:new 0 0 47 47;" xml:space="preserve">
<style type="text/css">
	.st0{fill:#FFB680;}
	.st1{fill:#2AA854;}
	.st2{fill:#FF9003;}
	.st3{fill:#EA7A00;}
	.st4{fill:#D6182F;}
	.st5{fill:#13B6D1;}
	.st6{fill:#41D6E5;}
</style>
<title>WaterPolo</title>
<path class="st0" d="M26,39.7c0,0-1.7-2.8-2.5-4.6c-0.5-1.3-1.6-2.2-2.8-2.8l-1.3-0.8c0.1,0,0.1,0,0,0l0,0c-0.3-0.2-0.6-0.4-1-0.5
	l0,0l0,0l0,0l0,0c-0.1-0.1-0.2-0.2-0.2-0.4c-0.1-0.7,0-1.4,0.3-2c0.4-0.3,1.1-0.4,1.5-0.2c0.7,0.2,0.6-0.8,1.2-1
	c0.5-0.1,0.1-0.3,0.1-0.4c-0.1-0.2,0.3-0.1,0.4-0.2c0.1-0.1-0.1-0.3-0.1-0.4c0.1-0.3,1.1-0.3,1-0.6c-0.1-0.6-1.1-1.8-1-2.2
	c0.3-0.6,0.4-1.4,0.2-2.1c-0.1-0.7-0.5-1.4-1.2-1.8c-0.7-0.6-3.9-1.4-5.5-0.1c-1.6,1.2-1.2,3.7-1,4.6c0.3,1.2,0.6,2.3,0.7,3.5
	c-0.1,0.7-0.4,1.5-0.7,2.2c0,0,0,0-0.1,0.1c-0.7-0.1-1.4-0.3-1.9-0.7c-0.5-0.4-1.2-1-1.7-1.6c-1-0.8-4.2-5.4-5.8-7
	C4.3,20.1,4.3,12,4.9,10.4c1-2.2,1.9-2.5,2.7-3.9c1.4-2.7,0-3.8-2.9-1.8C4,5.1,3.6,5.9,3.5,6.6c-0.1,1.6-0.4,3.2-1,4.7
	c-0.3,1.2-2.9,7.7-1.4,11c0.3,0.8,3,4.1,3.5,5.5c1.5,3.5,2.8,4.7,3.4,6c0,0.6,0,1.3,0,1.9c0.1,1.5,0.3,2.9,0.6,4.3
	c0.2,1,0.2,1.9,0.1,2.8h8.5l2.2-2.2c0.2-0.6,0.6-1.8,0.7-2.2c0.1-0.2,0.1-0.4,0.2-0.6v1.9H26z"/>
<path class="st1" d="M20.4,19.2c-1.6-1.1-3.6-1-5.1,0.2c-1.5,1.2-1.9,2.8-1.1,4.9c0.4,1,1,1.8,1.7,2.5c0.8,0.3,1.8,0.5,2.8,0.5
	c-0.1-2.3,1.1-4.5,3.1-5.6C21.8,20.7,21.2,19.8,20.4,19.2z"/>
<polygon class="st1" points="18.1,27.2 18.9,28.4 19.2,28.3 18.5,26.9 "/>
<path class="st2" d="M4.7,10.1c-0.1,0.1-0.1,0.2-0.2,0.3c0.2,0.4,1.1,1.9,4,1.2C8.6,11,8.8,10.3,9,9.8L5.4,8.4
	C5.3,9.1,5,9.6,4.7,10.1z"/>
<path class="st2" d="M7.1,12.2c-1.2,0.1-2.3-0.4-3-1.5c-0.5,0.5-1.2,1-1.9,1.3c1.7,1.5,4,1.7,5.9,0.6c0-0.2,0.1-0.3,0.1-0.5
	C8,12.1,7.5,12.2,7.1,12.2z"/>
<path class="st2" d="M5.3,5.5c0.1,0.1,0.1,0.2,0.1,0.3C7.2,5.2,9.2,6,10.2,7.7c0.2-0.3,0.3-0.5,0.5-0.7c-0.4-2.4-2.5-4.1-5.1-4.1
	C5.1,2.8,4.6,2.9,4,3C4.7,3.8,5.1,4.5,5.3,5.5z"/>
<path class="st2" d="M5.5,6.2c0.1,0.6,0.1,1.3,0,1.8l3.7,1.4c0.1-0.3,0.3-0.6,0.4-1C9.8,8.3,9.8,8.1,9.9,8C9.1,6.4,7.2,5.7,5.5,6.2z
	"/>
<path class="st2" d="M8.8,12.2c1.3-1,2.1-2.5,2.1-4.1c0-0.2,0-0.3,0-0.5c-0.3,0.3-0.6,0.6-0.8,1.1C9.4,9.8,9,11,8.8,12.2z"/>
<path class="st2" d="M4.3,9.8c0.8-1.3,1.1-2.9,0.6-4.2C4.7,4.7,4.3,3.9,3.5,3.2c-2.7,1.2-3.8,4.2-2.7,6.9c0.2,0.5,0.6,1.1,1,1.5
	C2.9,11.3,3.7,10.6,4.3,9.8z"/>
<path class="st3" d="M10.7,6.9c-0.2,0.2-0.3,0.4-0.5,0.7c-1-1.7-3-2.4-4.8-1.9c0-0.1,0-0.2-0.1-0.3C5.1,4.5,4.7,3.8,4,3L3.5,3.2
	c0.7,0.6,1.2,1.4,1.4,2.3c0.4,1.5,0.2,3-0.6,4.2c-0.6,0.8-1.5,1.5-2.4,1.8c0.1,0.1,0.3,0.3,0.4,0.4c0.7-0.3,1.4-0.7,1.9-1.3
	c0.6,1.1,1.8,1.6,3,1.5c0.4,0,0.8-0.1,1.3-0.1c0,0.2-0.1,0.3-0.1,0.5c0.2-0.1,0.3-0.2,0.5-0.3c0.3-1.3,0.7-2.4,1.3-3.5
	c0.2-0.4,0.5-0.7,0.7-1.2C10.8,7.4,10.8,7.1,10.7,6.9z M8.5,11.6c-3,0.6-3.8-0.8-4-1.2c0.1-0.1,0.1-0.2,0.2-0.3
	c0.4-0.5,0.6-1.1,0.7-1.7L9,9.7C8.8,10.3,8.6,11,8.5,11.6L8.5,11.6z M9.8,8.4c-0.2,0.3-0.3,0.6-0.5,1L5.5,8c0.1-0.6,0.1-1.3,0-1.8
	C7.2,5.7,9.1,6.4,9.9,8C9.9,8.2,9.8,8.3,9.8,8.4L9.8,8.4z"/>
<path class="st0" d="M45.5,23.4c-0.2-0.6-0.2-1.4-0.2-2c0-0.7-0.1-1.4-0.5-2c-1.2-1.3-1.5-0.1-1.2,1.4c0.1,0.7,0.3,1.4,0.7,2
	c0.3,1.6,0.3,3.3,0.1,4.9c-0.8,0.7-2.4,3-2.9,3.4c-0.2,0.2-0.4,0.4-0.5,0.5c-0.3,0.2-0.6,0.3-1.1,0.4l0,0c-0.2-0.3-0.3-0.7-0.4-1.2
	c0.1-0.6,0.3-1.3,0.5-1.8c0.1-0.4,0.4-1.7-0.4-2.4c-1-0.5-2-0.5-3,0c-0.3,0.2-0.5,0.5-0.6,1c-0.1,0.3,0,0.7,0.1,1.1
	c0.1,0.2-0.4,0.8-0.5,1.2s0.4,0.2,0.5,0.3c0.1,0.1-0.1,0.1,0,0.2c0.1,0.1,0.2,0.1,0.2,0.1s-0.1,0.2,0,0.2c0.1,0,0.2,0.6,0.6,0.5
	c0.3-0.1,0.5-0.1,0.8,0.1c0.1,0.3,0.2,0.7,0.2,1.1c0,0.1-0.1,0.2-0.1,0.2l0,0c-0.8-0.2-1.7-0.6-2.4-1.3c-0.4,0-2-3.6-2-3.6
	s0-3.9-0.1-4.6s1-2.8-0.5-3.1c-1.2-0.3-0.7,2.2-0.5,3.1c0.2,0.8-0.5,2.2-0.4,4.9c0.1,1.5,0.5,3,1.3,4.3c0.6,1.3,1.5,2.3,2.5,3.1
	c0.5,1.3,1.2,2.5,1.9,3.7h5c0-0.4,0-1,0.1-1.4c0.2-1.1,0.2-2.2,0.1-3.3c0.6-1,1.2-1.9,1.6-3c0.3-0.6,1.1-2.1,1.3-2.5
	C46.4,27.3,45.6,23.9,45.5,23.4z"/>
<path class="st4" d="M36.5,26.7c0.8-0.5,1.9-0.4,2.8,0.1c0.7,0.4,1.1,1.5,0.5,2.2c-0.2,0.4-0.5,0.8-1,1.2c-0.4,0.1-1,0.2-1.5,0.2
	c0-1.2-0.6-2.2-1.7-2.7C35.9,27.3,36.1,26.9,36.5,26.7z"/>
<polygon class="st4" points="38.1,30.1 37.4,31.3 37.7,31.4 38.2,30.3 "/>
<path class="st5" d="M44.2,37.5c-1.8-1.7-3.7-3-5.7-1c-0.6,0.5-1.3,1.1-2,1.5c-1.3,0.6-2.9,0.4-3.9-0.5c-1.9-2.3-3.7-3-5.7-1
	c-0.6,0.7-1.6,1.4-2.5,1.6c-0.8,0.1-1.8-0.1-2.4-0.7c-1.8-1.7-3.7-3-5.7-1c-0.6,0.5-1.3,1.1-2,1.5c-1.3,0.6-2.9,0.4-3.9-0.5
	c-2-2.1-3.7-2.9-5.8-0.7c-2.5,2.5-4.1,1.5-4.1,1.5v5.6h46.6v-5.5C45.8,38.3,45,38.1,44.2,37.5z"/>
<path class="st6" d="M44.4,40.5c-1.9-1.7-3.7-3-5.8-1c-0.6,0.5-1.3,1.1-2.1,1.5c-1.3,0.6-2.9,0.4-3.9-0.5c-1.9-2.3-3.7-3-5.8-1
	c-0.6,0.7-1.6,1.4-2.5,1.6c-0.8,0.1-1.8-0.1-2.4-0.7c-1.8-1.7-3.7-3-5.7-1c-0.6,0.5-1.3,1.1-2.1,1.5c-1.3,0.6-2.9,0.4-3.9-0.5
	c-1.9-2.3-3.6-3-5.7-1c-2.4,2.8-4,1.7-4,1.7v5.6h46.7v-5.5C45.9,41.3,45.1,41.1,44.4,40.5z"/>
</svg>
