<?xml version="1.0" encoding="utf-8"?>
<!-- Generator: Adobe Illustrator 23.1.0, SVG Export Plug-In . SVG Version: 6.00 Build 0)  -->
<svg version="1.1" id="icons" xmlns="http://www.w3.org/2000/svg" xmlns:xlink="http://www.w3.org/1999/xlink" x="0px" y="0px"
	 viewBox="0 0 47 47" style="enable-background:new 0 0 47 47;" xml:space="preserve">
<style type="text/css">
	.st0{fill:#FF8B00;}
	.st1{fill:#334A61;}
	.st2{fill:none;stroke:#565656;stroke-miterlimit:10;}
</style>
<title>WaterAerobics</title>
<path class="st0" d="M29.6,29c0,0,0.5-8.7,14-16.9c2.8-1.8-1.7-9.6-6.3-3.6s-15,19-26.7,1.6c-3.5-5.2-9.1-4-8,0.5
	c0.5,2.3,13.2,11.8,14,19.6c0.2,2.3,3-4.4,9.2,0.9C27.8,32.7,29.6,29,29.6,29z"/>
<path class="st1" d="M13.8,32.9c-0.7,0-1.3-0.3-1.8-0.8c-1-1.1-2.3-1.8-3.8-2c-1.2,0-2.4,0.5-3.3,1.2c-0.5,0.4-1.2,0.4-1.7,0
	s-0.5-1.1-0.1-1.6c0,0,0,0,0.1-0.1c1.4-1.2,3.2-1.9,5.1-1.9c2.1,0.1,4.2,1.1,5.6,2.7l0,0c0.6-0.2,1.2-0.5,1.8-0.9
	c1.9-1.2,4.7-3,8-1.2l0.3,0.1c2.1,1.1,2.9,1.6,3.8,1.5c0.8-0.1,2.4-0.8,5.1-2.3l0,0c1.3-0.7,2.7,0.2,4,1c2.1,1.4,3.6,2.1,5.3,0.6
	c0.5-0.4,1.2-0.4,1.7,0s0.5,1.1,0.1,1.6c0,0,0,0-0.1,0.1c-1,0.9-2.2,1.5-3.6,1.5c-1.7-0.2-3.4-0.8-4.8-1.9c-0.5-0.3-1-0.6-1.6-0.8
	c-3,1.6-4.5,2.4-6,2.5c-1.5,0.1-2.9-0.6-5.2-1.8l-0.3-0.1c-1.8-1-3.3-0.2-5.4,1.1c-0.7,0.5-1.4,0.9-2.2,1.2
	C14.5,32.8,14.1,32.8,13.8,32.9z"/>
<path class="st1" d="M17,38c-0.5,0-0.9-0.2-1.2-0.6c-0.6-0.8-1.5-1.4-2.5-1.5c-0.8,0-1.6,0.4-2.2,0.9c-0.3,0.3-0.8,0.3-1.1,0l0,0
	c-0.3-0.4-0.3-0.9,0-1.3c0.9-0.9,2.1-1.4,3.3-1.4c1.5,0.1,2.8,0.9,3.7,2.1l0,0c0.4-0.2,0.8-0.4,1.2-0.7c1.3-0.9,3.1-2.3,5.4-0.9
	l0.2,0.1c1.3,0.9,2,1.2,2.5,1.2c1.2-0.4,2.3-0.9,3.3-1.7l0,0c0.9-0.5,1.8,0.1,2.7,0.8c1.4,1.1,2.4,1.6,3.5,0.5
	c0.3-0.3,0.8-0.4,1.1-0.1c0,0,0.1,0,0.1,0.1c0.3,0.4,0.3,0.9,0,1.2c-0.6,0.7-1.5,1.1-2.4,1.1c-1.2-0.1-2.3-0.6-3.2-1.4
	c-0.3-0.3-0.7-0.5-1-0.7c-2,1.2-3,1.8-4,1.9c-1,0.1-1.9-0.4-3.5-1.3l-0.2-0.1c-1.2-0.7-2.2-0.1-3.6,0.9c-0.4,0.4-0.9,0.7-1.5,0.9
	C17.5,38,17.3,38,17,38z"/>
<path class="st1" d="M26.6,45.3c-0.7,0-1.4-0.3-1.9-0.8c-1.1-1.4-2.8-2.2-4.5-2.4l0,0c-1.2,0-2.3,0.5-3.1,1.3
	c-0.3,0.3-0.9,0.3-1.2,0s-0.3-0.9,0-1.2c1.2-1.1,2.7-1.8,4.3-1.8c2.3,0.1,4.4,1.2,5.8,2.9c0.2,0.2,0.4,0.3,0.7,0.3
	c1.1,0,2.6-1.6,3-2.1c0.3-0.4,0.8-0.4,1.2-0.1l0,0c0.4,0.3,0.4,0.8,0.1,1.2c-0.2,0.3-2.2,2.7-4.3,2.7L26.6,45.3z"/>
<circle class="st2" cx="23.5" cy="8.5" r="6.4"/>
</svg>
