<?xml version="1.0" encoding="utf-8"?>
<!-- Generator: Adobe Illustrator 23.1.0, SVG Export Plug-In . SVG Version: 6.00 Build 0)  -->
<svg version="1.1" id="icons" xmlns="http://www.w3.org/2000/svg" xmlns:xlink="http://www.w3.org/1999/xlink" x="0px" y="0px"
	 viewBox="0 0 47 47" style="enable-background:new 0 0 47 47;" xml:space="preserve">
<style type="text/css">
	.st0{fill:#4DBFD9;}
	.st1{fill:#4F4F4F;}
	.st2{fill:#666666;}
</style>
<title>WeightLifting</title>
<g id="Resistance_Training">
	<path class="st0" d="M45.8,23.8c0,0.4-0.2,0.6-0.4,0.6H1.6c-0.2,0-0.4-0.3-0.4-0.6v-0.6c0-0.3,0.2-0.6,0.4-0.6h43.8
		c0.2,0,0.4,0.3,0.4,0.6V23.8z"/>
	<path class="st1" d="M7.7,17.7v11.2c-0.1,0.9,0.6,1.8,1.5,1.9h0.1V16.2l0,0C8.5,16.2,7.8,16.8,7.7,17.7z"/>
	<path class="st2" d="M9.3,16.2v14.5c0.9-0.1,1.6-0.9,1.5-1.8V17.7C10.8,16.8,10.1,16.2,9.3,16.2z"/>
	<path class="st1" d="M4.8,17.7v11.2c-0.1,0.9,0.6,1.7,1.5,1.8h0.1V16.2l0,0C5.6,16.2,4.8,16.8,4.8,17.7L4.8,17.7z"/>
	<path class="st2" d="M6.3,16.2v14.5c0.9-0.1,1.6-0.9,1.5-1.8V17.7C7.8,16.8,7.1,16.2,6.3,16.2L6.3,16.2z"/>
	<path class="st1" d="M36.1,17.7v11.2c-0.1,0.9,0.6,1.8,1.5,1.9h0.1V16.2l0,0C37,16.2,36.2,16.8,36.1,17.7L36.1,17.7z"/>
	<path class="st2" d="M37.6,16.2v14.5c0.9-0.1,1.6-0.9,1.5-1.8V17.7C39.2,16.8,38.4,16.2,37.6,16.2z"/>
	<path class="st1" d="M39.1,17.7v11.2c-0.1,0.9,0.6,1.8,1.5,1.9h0.1V16.2l0,0C39.9,16.2,39.2,16.8,39.1,17.7L39.1,17.7z"/>
	<path class="st2" d="M40.6,16.2v14.5c0.9-0.1,1.6-0.9,1.5-1.8V17.7C42.1,16.8,41.4,16.2,40.6,16.2z"/>
	<path class="st1" d="M12.3,15L12.3,15c-0.8,0-1.6,0.6-1.6,1.5l0,0v13.6c-0.1,0.9,0.6,1.8,1.5,1.9l0,0L12.3,15z"/>
	<path class="st2" d="M12.3,15L12.3,15V32l0,0c0.9-0.1,1.6-0.9,1.6-1.9V16.5C13.8,15.6,13.1,15,12.3,15L12.3,15z"/>
	<path class="st1" d="M33.1,16.5v13.6c-0.1,0.9,0.6,1.8,1.5,1.9l0,0V15h-0.1C33.7,15.1,33.1,15.7,33.1,16.5z"/>
	<path class="st2" d="M34.7,15L34.7,15V32l0,0c0.9-0.1,1.6-0.9,1.6-1.9V16.5C36.1,15.6,35.5,15,34.7,15L34.7,15z"/>
</g>
</svg>
