<?xml version="1.0" encoding="utf-8"?>
<!-- Generator: Adobe Illustrator 23.1.0, SVG Export Plug-In . SVG Version: 6.00 Build 0)  -->
<svg version="1.1" id="icons" xmlns="http://www.w3.org/2000/svg" xmlns:xlink="http://www.w3.org/1999/xlink" x="0px" y="0px"
	 viewBox="0 0 47 47" style="enable-background:new 0 0 47 47;" xml:space="preserve">
<style type="text/css">
	.st0{fill:#BBBBC4;}
	.st1{fill:#474867;}
	.st2{fill:#616281;}
	.st3{fill:#5B5B5B;}
	.st4{fill:#707070;}
	.st5{fill:#DDDDE2;}
	.st6{fill:#FF6D00;}
	.st7{fill:#FFFFFF;}
	.st8{fill:#828282;}
	.st9{fill:#D35500;}
</style>
<title>Wheelchair</title>
<path class="st0" d="M23.6,31.9h10.1v1.3H23.6V31.9z"/>
<path class="st1" d="M25.6,11.1h-2.7l2.7,2.7h2.7C28.3,12.3,27.1,11.1,25.6,11.1z"/>
<path class="st2" d="M22.9,11.1h-9.5v2.7h12.2C25.6,12.3,24.4,11.1,22.9,11.1z"/>
<path class="st2" d="M13.5,17.8h17.5v9.4H13.5V17.8z"/>
<path class="st1" d="M33.7,17.8v9.4H31l-4-4.7l4-4.7h2.7V17.8z"/>
<path class="st3" d="M45.3,38h-2.1l-1.3,1.3l1.3,1.3h2.1c0.4,0,0.7-0.3,0.7-0.6l0,0v-1.3C46.1,38.3,45.7,38,45.3,38L45.3,38z"/>
<path class="st4" d="M40.1,38l1.1,2.7h2V38H40.1z"/>
<path class="st5" d="M41.3,40.7L39,29.2c-0.3-1.5-1.7-2.7-3.3-2.7H22.3v1.3h13.4c0.9,0,1.8,0.7,2,1.7L40,40.7H41.3z"/>
<path class="st0" d="M34.4,37.4h-1.3V16.4c0-1.1-0.9-2.1-2.1-2.1H14.2V13H31c1.9,0,3.4,1.5,3.4,3.4V37.4z"/>
<circle class="st2" cx="33.7" cy="40.7" r="4"/>
<circle class="st5" cx="33.7" cy="40.7" r="1.3"/>
<path class="st2" d="M2.7,2.8C2,2.8,1.4,3.4,1.4,4.1v0.1C1.5,5,2.1,5.5,2.8,5.5h10.7l-1.4-2.7C12.1,2.8,2.7,2.8,2.7,2.8z"/>
<path class="st5" d="M12.1,2.8v19.1h2.7V5.5C14.8,3.9,13.7,2.8,12.1,2.8z"/>
<circle class="st6" cx="13.4" cy="32.6" r="12.2"/>
<path class="st7" d="M22.6,32.6c0-5.3-3.5-9.4-7.7-9.4c-6,0-10.8,4.2-10.8,9.4S8.9,42,14.9,42C19.2,42,22.6,37.8,22.6,32.6z"/>
<circle class="st8" cx="13.4" cy="32.6" r="2.1"/>
<path class="st9" d="M13.5,42.7C8,42.7,3.4,38.2,3.4,32.6S8,22.5,13.5,22.5S23.7,27,23.7,32.6l0,0C23.6,38.2,19.1,42.7,13.5,42.7z
	 M13.5,23.9c-4.9,0-8.8,3.9-8.8,8.8s3.9,8.8,8.8,8.8s8.8-3.9,8.8-8.8l0,0C22.2,27.8,18.3,23.9,13.5,23.9z"/>
</svg>
