<?xml version="1.0" encoding="utf-8"?>
<!-- Generator: Adobe Illustrator 23.1.0, SVG Export Plug-In . SVG Version: 6.00 Build 0)  -->
<svg version="1.1" id="icons" xmlns="http://www.w3.org/2000/svg" xmlns:xlink="http://www.w3.org/1999/xlink" x="0px" y="0px"
	 viewBox="0 0 47 47" style="enable-background:new 0 0 47 47;" xml:space="preserve">
<style type="text/css">
	.st0{fill:#999999;}
	.st1{fill:#BABABA;}
	.st2{fill:#4C4C4C;}
	.st3{fill:#2D2D2D;}
	.st4{fill:#00BDFF;}
	.st5{fill:#FFFFFF;}
	.st6{fill:none;}
</style>
<title>WiiSports</title>
<g>
	<polygon class="st0" points="3.2,36.1 10.2,37 8.8,46.5 1.7,45.3 	"/>
	<polygon class="st1" points="43,34.9 10.2,37 8.8,46.5 42.1,42.7 	"/>
	<polygon class="st2" points="14.7,0.6 9.4,36.8 42.1,35 43.7,23.3 45.3,11.6 	"/>
	<path class="st3" d="M43.8,23.3c0,0-6.6,8.3-33.6,9.4l-0.7,4.1L42.1,35L43.8,23.3z"/>
	<polygon class="st2" points="14.7,0.6 9.4,1 4.2,36.1 9.4,36.8 	"/>
	<path class="st4" d="M8.4,33.8L8.4,33.8c-0.3,0-0.5-0.3-0.5-0.5l0,0L12.3,4c0-0.3,0.3-0.5,0.5-0.4c0.3,0,0.5,0.3,0.4,0.5
		c0,0,0,0,0,0.1L8.9,33.4C8.8,33.6,8.6,33.8,8.4,33.8z"/>
	<path class="st5" d="M8.4,33.4L8.4,33.4c-0.1,0-0.1-0.1-0.1-0.1l0,0l4.4-29.4c0-0.1,0.1-0.1,0.1-0.1l0,0c0.2,0,0.2,0,0.2,0.1l0,0
		L8.5,33.3C8.5,33.4,8.5,33.4,8.4,33.4z"/>
	<line class="st6" x1="12.8" y1="3.8" x2="8.4" y2="33.3"/>
</g>
</svg>
