<?xml version="1.0" encoding="utf-8"?>
<!-- Generator: Adobe Illustrator 23.1.0, SVG Export Plug-In . SVG Version: 6.00 Build 0)  -->
<svg version="1.1" id="icons" xmlns="http://www.w3.org/2000/svg" xmlns:xlink="http://www.w3.org/1999/xlink" x="0px" y="0px"
	 viewBox="0 0 47 47" style="enable-background:new 0 0 47 47;" xml:space="preserve">
<style type="text/css">
	.st0{fill:#5B5B5B;}
	.st1{fill:#FF5500;}
</style>
<title>WorkoutVideo</title>
<path class="st0" d="M44.3,1.4H2.8C2.1,1.4,1.4,2,1.4,2.7v41.7c0,0.7,0.6,1.3,1.3,1.3l0,0h41.5c0.7,0,1.3-0.6,1.3-1.3l0,0V2.6
	C45.5,2,45.1,1.4,44.3,1.4L44.3,1.4z M4.1,36.2V10.9H43v25.3H4.1z M43,8.2h-4.4V3.9H43V8.2z M36.1,8.2h-4.3V3.9h4.4L36.1,8.2z
	 M29.2,8.2h-4.4V3.9h4.4V8.2z M22.2,8.2h-4.4V3.9h4.4C22.2,3.9,22.2,8.2,22.2,8.2z M15.1,8.2H11V3.9h4.4L15.1,8.2z M4,3.8h4.3v4.4
	H4.1L4,3.8z M4,38.6h4.3V43H4.1L4,38.6z M11,38.6h4.4V43h-4.3L11,38.6z M18,38.6h4.4V43H18V38.6z M24.9,38.6h4.4V43h-4.4V38.6z
	 M32,38.6h4.4V43h-4.5L32,38.6z M43.2,43h-4.6v-4.4H43L43.2,43z"/>
<g id="Punk_Rope_Class">
	<path class="st1" d="M29.9,24.5v-5.3c-0.2-3.4-3.1-6-6.4-5.8c-3.2,0.2-5.7,2.7-5.8,5.8v5.3c-0.3,0.3-0.4,0.8-0.2,1.1
		c0.3,0.4,0.8,0.4,1.1,0.2l2.3-1.7c0.2-0.2,0.3-0.4,0.3-0.6v-2.8c0-0.1,0.1-0.2,0.2-0.2l0,0c0.1,0,0.2,0.1,0.2,0.2l0,0v13.6
		c0,0.5,0.4,1,1,1l0,0c0.5,0,1-0.4,1-1v-7.8h0.4v7.8c0,0.5,0.4,1,1,1c0.5,0,1-0.4,1-1l0,0V20.7c0-0.1,0.1-0.2,0.2-0.2l0,0
		c0.1,0,0.2,0.1,0.2,0.2l0,0l0,0v2.8c0,0.3,0.1,0.5,0.3,0.6l2.3,1.7c0.4,0.3,0.9,0.2,1.1-0.2C30.3,25.2,30.2,24.7,29.9,24.5z
		 M29,23.8L27.9,23v-2.3l0,0c0-1.1-0.9-1.8-1.8-1.8h-4.4c-1.1,0-1.8,0.9-1.8,1.8V23l-1.1,0.8v-4.7c-0.1-2.9,2-5.2,4.8-5.4
		c2.9-0.1,5.2,2,5.4,4.8c0,0.2,0,0.4,0,0.5v4.8H29z"/>
	<circle class="st1" cx="23.8" cy="16.5" r="1.6"/>
</g>
</svg>
