<?xml version="1.0" encoding="utf-8"?>
<!-- Generator: Adobe Illustrator 23.1.0, SVG Export Plug-In . SVG Version: 6.00 Build 0)  -->
<svg version="1.1" id="icons" xmlns="http://www.w3.org/2000/svg" xmlns:xlink="http://www.w3.org/1999/xlink" x="0px" y="0px"
	 viewBox="0 0 47 47" style="enable-background:new 0 0 47 47;" xml:space="preserve">
<style type="text/css">
	.st0{fill:#0091EA;}
	.st1{fill:#B7AA72;}
	.st2{fill:#FF0000;}
</style>
<title>Wrestling</title>
<path class="st0" d="M46.5,38.8l-3.7-8.1c0,0,1.6-6.8,1.6-6.9c0-0.6-0.2-1.1-0.6-1.6l-7.4-7.6c0.2,0.4,0.4,0.7,0.5,1.1
	c0.2,0.9,0,1.9-0.5,2.7l1.1,4.6c0.3,1.3-0.4,2.6-1.7,3.1l-4.4,1.5c-0.7,0.4-1.2,1.1-1.2,2l-0.4,10.1c-0.1,1.3,1,2.4,2.3,2.5h0.1
	c1.3,0,2.3-1,2.4-2.3l0.4-8.8l3.4-1.8l-0.2,1c-0.3,0.6-0.3,1.1-0.1,1.6l4.1,8.9c0.5,1.2,1.9,1.8,3.1,1.3c0,0,0,0,0.1,0
	C46.5,41.5,47.2,40.1,46.5,38.8C46.5,38.9,46.5,38.8,46.5,38.8z"/>
<path class="st0" d="M32,20.4v1.1L24.6,24c-1,0.4-1.6,1.5-1.2,2.5c0.3,0.8,1,1.3,1.8,1.3c0.2,0,0.4,0,0.6-0.1l8.6-3
	c0.8-0.3,1.3-1,1.3-1.8v-4c-0.5,0.5-1.1,0.8-1.8,1L32,20.4z"/>
<path class="st1" d="M20.7,11.3c1.6,0.9,3.6,0.4,4.7-1c0.4,2,2.3,3.3,4.3,3c2-0.4,3.3-2.3,3-4.3c-0.4-2-2.3-3.3-4.3-3
	c-0.7,0.1-1.4,0.5-1.9,1c-0.1,0.1-0.3,0.3-0.4,0.5c-0.3-2-2.2-3.4-4.2-3.1s-3.4,2.2-3.1,4.2C18.9,9.8,19.6,10.8,20.7,11.3z"/>
<path class="st2" d="M25.2,29.8l-6.3-3.9l2.2-3.9l0.9,1.4c0.1,0.2,0.3,0.4,0.5,0.5c0.4-0.6,1-1,1.7-1.2l3.6-1.2h-0.2
	c-0.4,0.1-0.7,0-1-0.1l-4-1.8l-3.1-1.4l7.5,1.7c0.3,0.1,0.6,0.1,0.8,0l6.2-1.3c1.1-0.2,1.7-1.3,1.5-2.3s-1.3-1.7-2.3-1.5L27.5,16
	l-7.1-1.6h2.3c-0.1-0.1-0.3-0.2-0.5-0.3l-1.2-0.7c-1.5-0.9-3.4-0.3-4.3,1.2L7.2,31.8l-6,6.4c-0.9,0.9-0.9,2.4,0.1,3.3
	s2.4,0.9,3.3-0.1l6.3-6.7c0.2-0.2,0.3-0.4,0.4-0.6l2.8-5.7l0,0l7.5,4.7l0.1,6.7c0,1.3,1.1,2.3,2.4,2.3l0,0c1.3,0,2.4-1.1,2.3-2.4
	l0,0l-0.1-8C26.2,31,25.8,30.2,25.2,29.8z"/>
</svg>
