<?xml version="1.0" encoding="utf-8"?>
<!-- Generator: Adobe Illustrator 23.1.0, SVG Export Plug-In . SVG Version: 6.00 Build 0)  -->
<svg version="1.1" id="icons" xmlns="http://www.w3.org/2000/svg" xmlns:xlink="http://www.w3.org/1999/xlink" x="0px" y="0px"
	 viewBox="0 0 47 47" style="enable-background:new 0 0 47 47;" xml:space="preserve">
<style type="text/css">
	.st0{fill:#FF6700;}
	.st1{fill:#342922;}
	.st2{fill:#716558;}
	.st3{fill:#9DCB3B;}
</style>
<title>Yardwork</title>
<g id="Yardwork">
	<path class="st0" d="M9.8,37.1h17.3c0-2.1,1.6-3.8,3.7-4l-1-5.7l-6,1.6v-1.8H12.5v4.8l-5.1,1.4C8.9,34.1,9.8,35.5,9.8,37.1z"/>
	<polygon class="st1" points="46,8.5 44.7,5.9 35.1,9.6 38,11.6 	"/>
	<path class="st0" d="M31.1,33.1c0.5,0,1,0.1,1.5,0.3l0.4-0.2l-0.8-3.9l5.8-2.1V11.6l-2.9-2v16l-3.5,0.7l-0.1-0.5l-1.8,0.7l0.1,0.8
		l1,5.7L31.1,33.1z"/>
	<path class="st1" d="M9.8,37.1c0-1.6-0.9-3-2.4-3.7c-0.5-0.2-1.1-0.4-1.6-0.4c-2.2,0-4,1.8-4,4c0,2.2,1.8,4,4,4
		C8,41.1,9.8,39.3,9.8,37.1C9.8,37.1,9.8,37.1,9.8,37.1z M3.7,37.1c0-1.2,0.9-2.1,2.1-2.1c1.2,0,2.1,0.9,2.1,2.1
		c0,1.2-0.9,2.1-2.1,2.1c0,0,0,0,0,0C4.6,39.2,3.7,38.3,3.7,37.1z"/>
	<circle class="st2" cx="5.8" cy="37.1" r="2.1"/>
	<path class="st1" d="M31.1,33.1h-0.3c-2.2,0.2-3.9,2.1-3.7,4.3c0.2,2.2,2.1,3.9,4.3,3.7c2.2-0.2,3.9-2.1,3.7-4.3
		C35,35.3,34,34,32.6,33.4C32.1,33.2,31.6,33.1,31.1,33.1z M31.1,39.2c-1.2,0-2.1-0.9-2.1-2.1c0-1.2,0.9-2.1,2.1-2.1
		c1.2,0,2.1,0.9,2.1,2.1c0,0,0,0,0,0C33.2,38.3,32.2,39.2,31.1,39.2C31.1,39.2,31.1,39.2,31.1,39.2z"/>
	<circle class="st2" cx="31.1" cy="37.1" r="2.1"/>
	<polygon class="st1" points="25.6,27.3 25.6,22.7 9.8,22.7 9.8,27.3 12.5,27.3 23.8,27.3 	"/>
	<path class="st3" d="M37.1,40.5c-1.3-3.4-0.8-8.1-0.8-8.1c-2.2,0.8-3.8,8.7-3.8,8.7c0-2.3-0.5-4.5-1.5-6.6c-0.3-0.5-0.7-1-1.1-1.4
		c0.6,2.6,0.4,5.4-0.5,7.9c-2-1.1-2.4-5.9-2.4-5.9c-2,1.5-2.1,6.3-2.1,6.3c-2.4-2-1.9-5.6-1.9-5.6C19.9,39.9,21,47,21,47l26.2,0.3
		c0.1-8.6-2.2-11.9-2.2-11.9c-0.8,5.1-2.9,5.9-2.9,5.9c-1.1-1.4-1.5-3.3-1.1-5.1c-1.9,1.1-2.9,6.1-2.9,6.1
		C37.7,41.7,37.4,41.1,37.1,40.5z"/>
	<rect x="-0.3" y="40.8" class="st3" width="22.2" height="6.3"/>
</g>
</svg>
