<?xml version="1.0" encoding="utf-8"?>
<!-- Generator: Adobe Illustrator 23.1.0, SVG Export Plug-In . SVG Version: 6.00 Build 0)  -->
<svg version="1.1" id="icons" xmlns="http://www.w3.org/2000/svg" xmlns:xlink="http://www.w3.org/1999/xlink" x="0px" y="0px"
	 viewBox="0 0 47 47" style="enable-background:new 0 0 47 47;" xml:space="preserve">
<style type="text/css">
	.st0{fill:#334A61;}
</style>
<title>Yoga</title>
<path class="st0" d="M46.5,33.7c0.1-0.1,0.1-0.3,0-0.4c0-0.1-0.1-0.1-0.2-0.1c-0.3-0.1-1.3,0.5-1.4,0.6c-0.2,0.1-0.7,0.4-0.7,0.4
	c0.1-0.3,0.2-0.7,0.3-1c-0.1-0.6-0.2-1.2-0.3-1.8c0-0.3-0.3-0.2-0.3-0.2c-0.4-0.5-0.5-0.2-0.9,0.2c-0.4,0.6-1,1-1.7,1.2
	c-0.4,0.1-0.7,0.4-0.9,0.7c-1.3-0.2-2.6-0.7-3.6-1.6c-1.3-1.1-2.5-1.7-2.8-2.1c-0.4-0.6-0.5-1.3-0.6-2c-0.2-0.8-0.5-1.6-0.9-2.4
	c0-0.6,0.1-1.3,0.2-1.9c0-1-0.2-2.1-0.5-3c-0.1-0.5-0.4-0.9-0.8-1.2c-0.4-0.2-0.7-0.5-1.1-0.7c-0.3-0.1-2.3-0.1-2.5-0.2
	c-0.2-0.1-1.7-1.1-1.8-1.6c-0.1-0.5-0.3-2,0.1-2.4c0.3-0.4,0.5-0.8,0.6-1.2c0.3,0,0.6-0.4,0.9-1.6s-0.3-1.2-0.3-1.2
	C27.6,5,24.2,5,23.5,5c-0.7,0-4.2,0-3.8,5.1c0,0-0.6,0-0.3,1.2c0.3,1.2,0.6,1.6,0.9,1.6c0.1,0.5,0.3,0.9,0.6,1.2
	c0.4,0.4,0.2,1.9,0.1,2.4c-0.1,0.5-1.6,1.5-1.7,1.6c-0.1,0.1-2.2,0-2.5,0.2c-0.4,0.2-0.8,0.4-1.1,0.7c-0.4,0.2-0.6,0.6-0.8,1.2
	c-0.3,1-0.5,2-0.5,3c0.1,0.6,0.2,1.3,0.2,1.9c-0.4,0.8-0.7,1.6-0.9,2.4c0,0.7-0.2,1.4-0.5,2c-0.3,0.4-1.5,1-2.8,2.1
	c-1,0.9-2.3,1.4-3.6,1.6c-0.2-0.4-0.5-0.7-0.9-0.7C5.1,32.4,4.4,32,4,31.4c-0.3-0.4-0.5-0.7-0.9-0.2c0,0-0.3-0.1-0.3,0.2
	c-0.1,0.6-0.2,1.2-0.4,1.8c0.1,0.4,0.2,0.7,0.3,1c0,0-0.5-0.3-0.7-0.4S1,33.1,0.7,33.2c-0.2,0-0.3,0.2-0.3,0.3c0,0.1,0,0.1,0.1,0.2
	c0.4,0.1,0.8,0.3,1.1,0.7C2,34.6,2.5,34.9,3,35.1c-0.1,0.1-0.3,0.2-0.5,0.2c-1.3-0.1-1.4,0-1.4,0.2s0,0.3,0.3,0.2
	c0.3,0,0.6,0,0.9,0.1c0.3,0,0.6,0,0.9,0.1l0.6-0.3l0.4,0.2C4,35.9,3.8,36,3.5,36.1c-0.2,0-0.3,0.1-0.4,0.3c0,0.2,0.2,0.2,0.2,0.2
	l0.2-0.2c0.2,0,0.4-0.1,0.5-0.1c0.2-0.1,0.5-0.2,0.5-0.2l0.6-0.8l0.4-0.1l0.9-0.2c0,0-1,1.2-1,1.9c0,0.7,0.2,0.6,0.4,1.1
	c0.2,0.5,0.7,0.9,1.2,1.1c0.4,0.3,0.8,0.6,1.2,0.9c1.2,1.4,2.7,2.5,4.5,3c2.3,0.4,4.6,0.7,6.9,0.8c0.6,0,3.5-0.2,3.8-0.2
	c0.3,0,3.2,0.2,3.8,0.2c2.3-0.1,4.6-0.4,6.9-0.8c1.7-0.5,3.3-1.6,4.5-3c0.4-0.3,0.8-0.6,1.2-0.9c0.5-0.2,0.9-0.6,1.2-1.1
	c0.2-0.5,0.3-0.4,0.4-1.1s-1-1.9-1-1.9l0.9,0.2l0.4,0.1c0.2,0.3,0.6,0.8,0.6,0.8s0.2,0.1,0.5,0.2c0.2,0.1,0.3,0.1,0.5,0.1l0.3,0.2
	c0,0,0.2,0,0.2-0.2c0-0.2-0.2-0.3-0.4-0.3c-0.2-0.1-0.4-0.2-0.6-0.3l0.4-0.2l0.6,0.3c0.3-0.1,0.6-0.1,0.9-0.1
	c0.3-0.1,0.6-0.1,0.9-0.1c0.3,0,0.3,0,0.3-0.2s-0.2-0.4-1.4-0.2c-0.2,0-0.4,0-0.6-0.2c0.5-0.2,1-0.4,1.4-0.8
	C45.7,34,46.1,33.8,46.5,33.7z M4.2,33.5c0,0-0.3,0.4-0.3,0.5s-0.1,0.1-0.1,0.1C3.7,34,3.6,34,3.5,34c0,0,0-0.3-0.1-0.6
	C3.3,33,3.2,33,3.3,32.8c0-0.2,0-0.4,0-0.6c0-0.1,0-0.2,0.1-0.2c0.2,0.2,0.4,0.4,0.5,0.7C4,32.9,4.1,33.2,4.2,33.5L4.2,33.5z
	 M17.2,35.1c-0.1,0.6-0.3,1.6-0.3,1.6s-4.2-0.9-5.1-1.1c-0.9-0.4-1.9-0.7-3-0.9c0,0,3-0.8,3.5-1c0.5-0.2,2.6-1.4,3-1.6
	s0.3-0.5,0.4-0.8c0.6-0.9,1-1.8,1.3-2.8c0.2-1.2,0.3-2.3,0.3-2.3c0.4,1.9,0.7,3.9,0.9,5.8C18.2,33.3,17.3,34.4,17.2,35.1z
	 M35.2,35.6c-0.8,0.2-5.1,1.1-5.1,1.1s-0.2-1-0.3-1.6c-0.1-0.6-1-1.8-1-3c0.2-2,0.5-3.9,0.9-5.9c0.1,0.8,0.2,1.5,0.3,2.3
	c0.3,1,0.7,2,1.3,2.8c0.1,0.3,0.1,0.6,0.4,0.8c0.3,0.2,2.4,1.4,3,1.6c0.5,0.2,3.5,1,3.5,1C37.1,34.9,36.1,35.2,35.2,35.6L35.2,35.6z
	 M43.6,33.4c-0.1,0.2-0.1,0.4-0.1,0.6c0,0-0.2,0.1-0.2,0.1c0,0-0.1,0-0.1-0.1c0-0.1-0.3-0.5-0.3-0.5c0-0.3,0.1-0.6,0.2-0.8
	c0.2-0.2,0.3-0.5,0.5-0.7c0.1-0.1,0.1,0.1,0.1,0.2c0,0.2,0,0.4,0,0.6C43.8,33,43.8,33,43.6,33.4L43.6,33.4z"/>
<ellipse class="st0" cx="23.5" cy="4.5" rx="1.1" ry="1.7"/>
</svg>
