<?xml version="1.0" encoding="utf-8"?>
<!-- Generator: Adobe Illustrator 23.1.0, SVG Export Plug-In . SVG Version: 6.00 Build 0)  -->
<svg version="1.1" id="icons" xmlns="http://www.w3.org/2000/svg" xmlns:xlink="http://www.w3.org/1999/xlink" x="0px" y="0px"
	 viewBox="0 0 47 47" style="enable-background:new 0 0 47 47;" xml:space="preserve">
<style type="text/css">
	.st0{fill:#334A61;}
	.st1{fill:#334A61;stroke:#334A61;stroke-width:0.75;stroke-miterlimit:10;}
	.st2{fill:#334A61;stroke:#334A61;stroke-miterlimit:10;}
</style>
<title>Zumba</title>
<g id="zumba">
	<path class="st0" d="M20.7,3c0,0-4.9,0-3.8,3.3c1.4,4.5-2,4.9-2,4.9S18.1,13.9,20.7,3z"/>
	<circle class="st0" cx="25" cy="5.2" r="4.4"/>
	<polygon class="st0" points="19.7,11.4 30,11.4 25.9,28.1 19.4,22.1 	"/>
	<path class="st1" d="M11.4,21.2c-0.2,0-0.4-0.1-0.6-0.3c-0.3-0.3-0.3-0.7,0-1c0,0,0,0,0,0l9.1-8.1c0.3-0.3,0.8-0.3,1.1,0
		c0.3,0.3,0.3,0.7,0,1c0,0,0,0,0,0L11.9,21C11.8,21.1,11.6,21.2,11.4,21.2z"/>
	<path class="st1" d="M37.2,23.5c0,0.2-0.1,0.5-0.3,0.7c-0.3,0.3-0.7,0.3-1,0c0,0-0.1-0.1-0.1-0.1l-7.7-10.9
		c-0.3-0.4-0.2-0.9,0.1-1.3c0.3-0.3,0.7-0.3,1,0c0,0,0.1,0.1,0.1,0.1L37,22.9C37.1,23.1,37.2,23.3,37.2,23.5z"/>
	<path class="st2" d="M30.1,34c0,0.3-0.1,0.5-0.3,0.7c-0.3,0.3-0.8,0.3-1.1,0.1c0,0-0.1-0.1-0.1-0.1l-8.6-11.8
		c-0.3-0.4-0.3-1,0.1-1.4c0.3-0.3,0.7-0.3,1-0.1c0,0,0.1,0.1,0.1,0.2l8.7,11.8C30,33.6,30.1,33.8,30.1,34z"/>
	<path class="st0" d="M27.1,42.3c-0.2,0-0.3,0-0.4-0.1c-0.8-0.3-1.2-1.2-0.9-2l1.9-6.4c0.2-0.8,0.9-1.2,1.7-1.1c0,0,0.1,0,0.1,0
		c0.8,0.3,1.2,1.2,0.9,2l-1.9,6.4C28.4,41.8,27.8,42.3,27.1,42.3z"/>
	<path class="st2" d="M20.9,38.3c-0.4,0.4-1,0.4-1.3,0c-0.2-0.2-0.3-0.5-0.3-0.7l0.5-15.1c0.1-0.5,0.5-0.9,1.1-0.8
		c0.4,0.1,0.8,0.4,0.8,0.8l-0.5,15.1C21.2,37.9,21.1,38.1,20.9,38.3z"/>
	<path class="st0" d="M17.1,45.3c-0.2,0-0.3-0.1-0.4-0.1c-0.8-0.4-1.1-1.3-0.7-2l2.7-5.8c0.3-0.7,1.1-1.1,1.9-0.8c0,0,0.1,0,0.1,0
		c0.7,0.4,1,1.3,0.7,2l-2.7,5.8C18.3,45,17.7,45.4,17.1,45.3z"/>
	<path class="st0" d="M11.6,26.1c-0.6,0-1.2,0.5-1.3,1.1l0,0v5.3l-3.9,0.5v-4.6c0.3,0.2,0.6,0.4,1,0.4c0.6,0.1,1.2-0.2,1.3-0.9
		c0.1-0.6-0.2-1.2-0.9-1.3c-0.2,0-0.3,0-0.5,0c-0.6,0-1.2,0.5-1.3,1.1l0,0v6l0,0v0.1l4.6-0.6v-0.7v-4.6c0.3,0.2,0.6,0.4,1,0.4
		c0.6,0.1,1.2-0.3,1.3-0.9c0.1-0.6-0.3-1.2-0.9-1.3C11.9,26.1,11.8,26.1,11.6,26.1L11.6,26.1z"/>
	<path class="st0" d="M40.3,8.5L40.3,8.5V2.9l0,0V2.8L36,3.4v4.9c-0.2-0.2-0.6-0.3-0.9-0.3c-0.6,0-1.1,0.4-1.2,1
		c0.2,0.7,0.9,1,1.6,0.8c0.4-0.1,0.7-0.4,0.8-0.8l0,0V4.6L40,4.1v3.7c-0.3-0.2-0.6-0.3-0.9-0.3c-0.6,0-1.1,0.4-1.2,1
		c0.2,0.7,0.9,1,1.6,0.8C39.8,9.1,40.2,8.8,40.3,8.5L40.3,8.5L40.3,8.5z M36.3,4.3V4L40,3.5v0.3L36.3,4.3z"/>
</g>
</svg>
