<?xml version="1.0" encoding="utf-8"?>
<!-- Generator: Adobe Illustrator 23.1.0, SVG Export Plug-In . SVG Version: 6.00 Build 0)  -->
<svg version="1.1" id="Layer_1" xmlns="http://www.w3.org/2000/svg" xmlns:xlink="http://www.w3.org/1999/xlink" x="0px" y="0px"
	 viewBox="0 0 127.3 434.7" style="enable-background:new 0 0 127.3 434.7;" xml:space="preserve">
<style type="text/css">
	.st0{fill-rule:evenodd;clip-rule:evenodd;fill:#A1825F;}
	.st1{fill-rule:evenodd;clip-rule:evenodd;fill:#F1B287;}
	.st2{fill-rule:evenodd;clip-rule:evenodd;fill:#FEC19B;}
	.st3{fill-rule:evenodd;clip-rule:evenodd;fill:#E8A476;}
	.st4{fill-rule:evenodd;clip-rule:evenodd;fill:#F5BC95;}
	.st5{fill-rule:evenodd;clip-rule:evenodd;fill:#D6976D;}
	.st6{fill-rule:evenodd;clip-rule:evenodd;fill:#975B36;}
	.st7{fill-rule:evenodd;clip-rule:evenodd;fill:#753005;}
	.st8{fill-rule:evenodd;clip-rule:evenodd;fill:#FFFFFF;}
	.st9{fill-rule:evenodd;clip-rule:evenodd;fill:#E85A4E;}
	.st10{fill-rule:evenodd;clip-rule:evenodd;fill:#4F4742;}
	.st11{fill-rule:evenodd;clip-rule:evenodd;}
	.st12{fill-rule:evenodd;clip-rule:evenodd;fill:#3B545C;}
	.st13{fill-rule:evenodd;clip-rule:evenodd;fill:#4F6F7A;}
	.st14{fill-rule:evenodd;clip-rule:evenodd;fill:#6D98A6;}
	.st15{fill:#FFFFFF;}
	.st16{fill-rule:evenodd;clip-rule:evenodd;fill:#B89772;}
	.st17{fill-rule:evenodd;clip-rule:evenodd;fill:#C7A77D;}
	.st18{fill-rule:evenodd;clip-rule:evenodd;fill:#D6B788;}
	.st19{fill-rule:evenodd;clip-rule:evenodd;fill:#E5D4AF;}
	.st20{fill-rule:evenodd;clip-rule:evenodd;fill:#FFF7E8;}
	.st21{fill-rule:evenodd;clip-rule:evenodd;fill:#F0E2C5;}
	.st22{fill-rule:evenodd;clip-rule:evenodd;fill:#FAF7F1;}
	.st23{fill-rule:evenodd;clip-rule:evenodd;fill:#FCF1DB;}
	.st24{fill-rule:evenodd;clip-rule:evenodd;fill:#FFFAF2;}
	.st25{fill:#FEC19B;}
	.st26{fill:#A1BDD2;}
</style>
<g id="W_Apple" transform="translate(-40.879 -15.534)">
	<g id="head3" transform="matrix(1, 0.017, -0.017, 1, 75.47, 15.495)">
		<g id="Group_381" transform="translate(2.174 2.756)">
			<path id="Path_3781" class="st0" d="M20.6,68.2c-0.7-5.4-2.8-7-4.6-9.7c0.6,1.2,1.2,2.4,1.6,3.7c-1.7-1.9-3.1-4.1-4-6.5
				c0.1,0.5,0.2,1.2,0.4,2.3c-2.6-3.7-4.2-10-4.4-11.3C11.6,51.4,22,57.2,20.6,68.2z"/>
			<path id="Path_3782" class="st0" d="M25.6,9.9c0.4-12.5-13-10.1-21-5c6-4.6,13.8-6.3,18.4-3.9c2.9,1.5,4.5,4.6,3.8,9.6L25.6,9.9z
				"/>
			<path id="Path_3783" class="st0" d="M21.5,4.1C8.3,1.1,2.3,8.2,0.2,19.5C0.7,7,8.4-0.9,23.5,2.1L21.5,4.1z"/>
			<path id="Path_3784" class="st0" d="M6.1,40.7c0.3,7.2,11.8,18.6,15.6,25.2c0.9,1.5,17.7,5.1,18.2,1.3c0.7-5.4,2.8-7,4.6-9.7
				c-0.6,1.2-1.2,2.4-1.6,3.7c1.7-1.9,3.1-4.1,4-6.5c-0.1,0.5-0.2,1.2-0.4,2.3c2.6-3.7,4.2-10,4.4-11.3c0.5-3.3,3-6.6,0.7-11.1
				s-7.9-10.5-13.6-13.4S23.5,18,18.7,18.4s-5.9,1-8.2,5S5.8,35.2,6.1,40.7z"/>
		</g>
		<g id="Group_403" transform="translate(0 8.571)">
			<g id="Group_382" transform="translate(0 53.627)">
				<path id="Path_3785" class="st1" d="M9.9,23.3"/>
				<path id="Path_3786" class="st1" d="M0.2,24.4"/>
				<path id="Path_3787" class="st2" d="M51.1,23.3c-7-3.2-9.4-9.5-8.6-22.8L21.9,0c2,8.7,0.4,17.4-3.8,20.7
					c-0.9,0.5-4.5,2.4-7.8,4.2"/>
				<path id="Path_3788" class="st1" d="M48.1,23.1"/>
				<path id="Path_3789" class="st3" d="M21.5,0c1.9,8.6,0.8,16.7-3.1,20.5C27.3,23.7,38.4,13.8,42,6c0-2.3,0.2-2.4,0.4-5.5L21.5,0z
					"/>
				<path id="Path_3790" class="st3" d="M35.9,11.7"/>
				<path id="Path_3791" class="st4" d="M51.1,24.2"/>
			</g>
			<path id="Path_3794" class="st5" d="M22,55.9c1.7,2.1,5.2,6.3,6.8,6.8c2,0.7,6,1,7.8-0.1c2.5-1.5,4.1-3.9,5.6-5.9
				c0-1.6,0.1-1.3,0.2-3.3l-21-0.3C21.7,54.4,21.8,54.8,22,55.9z"/>
			<g id="Group_402" transform="translate(8.797)">
				<g id="Group_383" transform="translate(41.335 28.696)">
					<path id="Path_3795" class="st1" d="M1.6,3.8C2.9,0.9,4.4-1,5.4,0.6c1.5,2.4-0.9,6.8-1.7,9c-1.1,3.3-0.9,5.2-2.5,5
						c-0.7,0-1.1-0.9-1.1-2.1c0.1-1.4,0.4-2.7,0.7-4L1.6,3.8z"/>
					<path id="Path_3796" class="st6" d="M1.2,8.9c0.1-0.4,0.2-0.8,0.2-1c0.8-3,1.4-2.9,1.3-2.2c-0.1,0.7-0.4,1.4-0.6,2
						C2,8,2.3,8.9,2,9.6C1.7,10.4,0.8,10.6,1.2,8.9z"/>
				</g>
				<g id="Group_384" transform="translate(0 28.696)">
					<path id="Path_3797" class="st3" d="M4.4,3.8C3.2,0.9,1.7-1,0.7,0.6c-1.5,2.4,0.9,6.8,1.6,9c1.1,3.3,0.9,5.2,2.5,5
						c0.7-0.1,1.1-0.9,1.1-2.1c-0.1-1.4-0.4-2.7-0.7-4L4.4,3.8z"/>
					<path id="Path_3798" class="st6" d="M4.9,8.9c-0.1-0.4-0.2-0.8-0.2-1C3.9,4.9,3.3,5,3.3,5.7c0.2,0.7,0.4,1.4,0.7,2
						C4.1,8,3.8,8.9,4.1,9.6C4.4,10.4,5.3,10.6,4.9,8.9z"/>
				</g>
				<path id="Path_3799" class="st1" d="M43.8,10.8c2.7,8.5,0.4,21-2,30c-1.3,5-2,6.8-3.2,8.6c-2.7,4-6.6,8-10.1,11.7
					c-1.3,1.4-2.5,1.5-4.3,1.5c-1.9,0.1-3.2,0-4.7-1.4C16,57.6,12,53.7,9.2,49.8c-1.3-1.8-2.1-3.6-3.5-8.5c-2.5-9-5.2-21.4-2.7-30
					C7.4-3.5,39.1-3.9,43.8,10.8z"/>
				<g id="Group_385" transform="translate(15.334 48.523)">
					<path id="Path_3801" class="st3" d="M4.9,3.4c-1.1-0.6-2.2-1-3.4-1.2c0.6,1.2,1.3,2.3,2.1,3.4c1.1,1.6,3,2.4,4.9,2.2
						c1.7,0,3.4-0.8,4.4-2.1c0.9-1.1,1.6-2.4,2.2-3.6c-1,0.2-2,0.6-2.8,1.2C10.1,4.8,7.2,4.9,4.9,3.4z"/>
					<path id="Path_3802" class="st7" d="M4.7,2.1c1.4,0,3.9-0.5,5.4-0.4c1.1,0.3,2.1,0.4,3.2,0.4c1.1-0.1,2.3-1.1,2.6-1
						c0.2,0.1,0.2,0.3,0.2,0.4c0,0.2-0.1,0.4-0.4,0.5c-0.4,0.1-0.8,0.1-1.3,0.3c-0.9,0.4-3.5,2.1-4.2,2.5c-0.7,0.4-5,0-5.2-0.2
						S2.5,2.5,2.4,2.5c-0.5-0.2-1-0.3-1.5-0.3C0.5,2.1,0.2,2.1,0.2,1.8c0-0.1,0-0.6,0.3-0.6s0.7,0.5,1.4,0.6C2.9,2,3.9,2.1,4.7,2.1z
						"/>
					<path id="Path_3803" class="st8" d="M4.8,2.6c1,1.5,5.6,2.2,7.4-0.3C8.2,1.6,9,1.4,4.8,2.6z"/>
					<path id="Path_3804" class="st9" d="M8.3,0.7C7.7,0.2,7,0,6.3,0C4.5,0.1,2.1,1.8,1.5,1.7c0.8,0.7,1.9,1.1,3,1.1
						C5.8,3,7,2.3,8.3,2.2c1.2,0.3,2.5,0.6,3.8,0.6c1.1,0,2.2-0.4,3-1.1C14.5,1.8,12,0.1,10.2,0C9.5,0,8.8,0.2,8.3,0.7z"/>
					<path id="Path_3806" class="st9" d="M5,3c-1-0.4-2-0.6-3-0.6c0.5,1,1.1,1.9,1.8,2.8c1.1,1.5,2.8,2.3,4.7,2.2
						c1.7,0,3.3-0.7,4.3-2.1c0.8-0.9,1.4-1.9,1.9-3c-0.9,0.1-1.7,0.3-2.5,0.6C10,4.4,7.2,4.5,5,3z"/>
				</g>
				<g id="Group_386" transform="translate(19.45 43.835)">
					<path id="Path_3814" class="st3" d="M5.4,0.7c0.5-0.3,1-0.5,1.5-0.7c0.4-0.2,1,0.1,1.1,0.5c0.1,0.1,0.1,0.2,0.1,0.3
						c0.1,0.9-1,1.1-1.7,1.2C5.9,2,5.5,2.1,5.1,2.2c-0.6,0.2-1.3,0.2-2,0C2.7,2.1,2.3,2,1.8,2C1.1,1.9,0,1.7,0.1,0.8
						c0-0.5,0.5-0.8,1-0.8c0,0,0.1,0,0.2,0c0.6,0.2,1.1,0.4,1.6,0.7C3.7,1.2,4.7,1.2,5.4,0.7z"/>
					<path id="Path_3815" class="st6" d="M5.1,1.7c0.4-0.3,0.8-0.7,1.2-1c0.4-0.2,0.8-0.3,1-0.1C7.5,0.8,7.5,1,7.4,1.2
						c0,0.1-0.2,0.2-0.3,0.2C6.4,1.5,5.8,1.6,5.1,1.7z"/>
					<path id="Path_3816" class="st6" d="M3.3,1.8C2.9,1.5,2.5,1.2,2.1,0.9c-0.4-0.2-0.8-0.3-1-0.1C0.8,0.9,0.8,1.2,1,1.4
						c0.1,0.1,0.2,0.1,0.3,0.1C2,1.6,2.6,1.7,3.3,1.8z"/>
				</g>
				<path id="Path_3817" class="st4" d="M23.5,35c-0.1,2.1-0.3,4.1-0.5,6c-0.1,0.7-0.3,1.4-0.6,2.1c0,0.3,0.4,0.7,1.4,0.8
					c0.9-0.3,1.3-0.5,1.4-0.8c0-0.3-0.5-0.5-0.6-2c-0.1-1.7,0-3.8-0.1-6.1C24.4,31.2,23.7,31.3,23.5,35z"/>
				<g id="Group_401_1_" transform="translate(4.262 21.347)">
					<g id="Group_400_2_">
						<g id="Group_399_2_" transform="translate(1.12 6.075)">
							<path id="Path_3834_2_" class="st10" d="M2.6,1.1C7,0.9,10.2,0.8,13.2,4.9C10.3,1.5,6.5,1.2,2.6,1.1z"/>
							<g id="Group_398_2_" transform="translate(0 0)">
								<path id="Path_3835_2_" class="st11" d="M13.2,6.7c-1.2-2.3-3.4-4-5.9-4.5C5,1.9,2.8,2,0.8,1.2C2.2,4,2.6,6.4,6.1,7.1
									c2.1,0.6,4.3,0,6.1,0C10.9,7,9.6,7,8.3,7S5.9,6.6,4.9,5.7c-0.7-0.7-1.3-1.8,0-2c0.5-0.1,1-0.2,1.4-0.2
									C8.9,3.6,11.7,5.4,13.2,6.7z"/>
								<g id="Group_397_2_" transform="translate(3.544 3.222)">
									<path id="Path_3836_2_" class="st8" d="M9.7,3.5c0,0.2,0.2,0.5,0,0.5C9.3,4.1,9,4.1,8.7,3.9C6.8,3.5,4.6,4.3,2.5,3.2
										C1.5,2.9-0.4,1,1.4,0.5c0.4-0.2,0.9-0.2,1.4-0.2C5.4,0.4,8.2,2.2,9.7,3.5z"/>
									<g>
										<g>
											<g>
												<g>
													<g>
														<g>
															<g>
																<g id="Group_396_2_">
																	<g id="Group_395_2_" transform="translate(1.101 -1.675)">
																		<g id="Group_394_2_">
																			<path id="Path_3837_2_" class="st12" d="M3,5.5c1,0,1.7-0.7,1.7-1.6C4.7,3,3.9,2.2,3,2.2S1.3,2.9,1.3,3.8l0,0
																				C1.2,4.7,2,5.5,3,5.5z"/>
																			<path id="Path_3838_2_" class="st11" d="M3,4.9c0.6,0,1.1-0.5,1.1-1.1s-0.5-1-1.1-1S1.9,3.3,1.9,3.9
																				S2.4,4.9,3,4.9z"/>
																			<path id="Path_3839_2_" class="st13" d="M3,2.3C2.1,2.3,1.4,3,1.4,3.8s0.7,1.5,1.5,1.5c0.8,0,1.6-0.7,1.6-1.5
																				l0,0C4.5,3,3.8,2.3,3,2.3L3,2.3z M3,2.7c0.6,0,1.2,0.5,1.2,1.1S3.6,4.9,3,4.9S1.8,4.5,1.8,3.8l0,0
																				C1.8,3.2,2.3,2.7,3,2.7z"/>
																			<path id="Path_3840_2_" class="st14" d="M3.5,5.1c0.3,0,0.4-0.2,0.4-0.4S3.7,4.3,3.5,4.3S3.2,4.5,3.2,4.7
																				C3.2,4.9,3.3,5.1,3.5,5.1L3.5,5.1z"/>
																			<path id="Path_3841_2_" class="st8" d="M2,3.8c0.1,0,0.3-0.1,0.3-0.2c0-0.1-0.1-0.3-0.3-0.3
																				c-0.1,0-0.3,0.1-0.3,0.3l0,0C1.7,3.7,1.9,3.8,2,3.8z"/>
																			
																				<ellipse id="Ellipse_295_2_" transform="matrix(-0.9999 1.700008e-02 -1.700008e-02 -0.9999 7.1034 9.2264)" class="st15" cx="3.5" cy="4.6" rx="0.1" ry="0.1"/>
																		</g>
																	</g>
																</g>
															</g>
														</g>
													</g>
												</g>
											</g>
										</g>
									</g>
								</g>
								<path id="Path_3843_2_" class="st11" d="M5.7,2.5c-1.5-0.2-2.6-1-3.4-2.2c0.2,1.1,1,2,2,2.3L5.7,2.5z"/>
								<path id="Path_3844_2_" class="st11" d="M7.2,2.7c-1.4-0.2-2.6-1-3.4-2.1c0.2,1.1,1,2,2,2.3L7.2,2.7z"/>
								<path id="Path_3845_2_" class="st11" d="M8.6,3.2C7.3,2.9,6.1,2,5.4,0.8c0.1,1.1,0.8,2.1,1.9,2.4L8.6,3.2z"/>
							</g>
						</g>
						<path id="Path_3846_2_" class="st16" d="M15.3,4.6c0.2,0.6,0.1,1.2-0.2,1.7c-0.2,0.4-0.2,0.9-0.9,0.5
							c-1.3-0.7-2.6-1.6-3.9-2.4c-5.2-3.6-4.5-3.6-9.5-2c5.1-3,4-2.7,10.3,0.2C12.6,3.2,14,3.8,15.3,4.6z"/>
					</g>
					<g id="Group_401_2_" transform="translate(4.262 21.347)">
						<g id="Group_400_1_">
							<g id="Group_399_1_" transform="translate(1.12 6.075)">
								<path id="Path_3834_1_" class="st10" d="M30.5-20.9c-4.9,0-8.5,0-11.7,4.3C21.9-20.3,26.2-20.7,30.5-20.9z"/>
								<g id="Group_398_1_" transform="translate(0 0)">
									<path id="Path_3835_1_" class="st11" d="M18.9-14.9c1.3-2.3,3.7-4.1,6.4-4.7c2.4-0.5,5-0.5,7.2-1.3
										c-1.5,2.8-1.8,5.4-5.7,6.2C24.5-14,22-14.5,20-14.5c1.3-0.1,2.8-0.2,4.4-0.2c1.6,0,2.7-0.5,3.7-1.4c0.8-0.7,1.4-1.8-0.1-2
										c-0.6-0.1-1.1-0.2-1.6-0.1C23.5-18.2,20.5-16.3,18.9-14.9z"/>
									<g id="Group_397_1_" transform="translate(3.544 3.222)">
										<path id="Path_3836_1_" class="st8" d="M15.3-18.1c0,0.2-0.2,0.5,0,0.5c0.5,0.1,0.8,0.1,1.1-0.1c2-0.5,4.6,0.2,6.9-0.9
											c1-0.3,3.1-2.3,1-2.7c-0.5-0.2-1-0.2-1.6-0.1C19.9-21.4,16.9-19.5,15.3-18.1z"/>
										<g>
											<g>
												<g>
													<g>
														<g>
															<g>
																<g>
																	<g id="Group_396_1_">
																		<g id="Group_395_1_" transform="translate(1.101 -1.675)">
																			<g id="Group_394_1_">
																				<path id="Path_3837_1_" class="st12" d="M20.5-16.3c-1.1,0-1.9-0.7-1.9-1.6s0.8-1.7,1.8-1.7
																					c1,0,1.9,0.7,1.9,1.6l0,0C22.5-17.1,21.6-16.3,20.5-16.3z"/>
																				<path id="Path_3838_1_" class="st11" d="M20.4-16.8c-0.7,0-1.3-0.5-1.3-1.1c0-0.6,0.6-1,1.2-1
																					c0.6,0,1.3,0.5,1.3,1.1C21.6-17.2,21.1-16.8,20.4-16.8z"/>
																				<path id="Path_3839_1_" class="st13" d="M20.4-19.6c1,0,1.7,0.6,1.8,1.4c0,0.8-0.7,1.5-1.7,1.5
																					c-0.9,0-1.7-0.6-1.8-1.4l0,0C18.6-18.8,19.4-19.5,20.4-19.6L20.4-19.6z M20.4-19.2c-0.7,0-1.3,0.6-1.3,1.2
																					c0,0.6,0.7,1.1,1.4,1c0.6,0,1.3-0.5,1.3-1.1l0,0C21.8-18.7,21.1-19.2,20.4-19.2z"/>
																				<path id="Path_3840_1_" class="st14" d="M19.9-16.6c-0.3,0-0.5-0.2-0.5-0.4c0-0.2,0.2-0.4,0.5-0.4
																					c0.2,0,0.4,0.2,0.4,0.4C20.3-16.8,20.1-16.6,19.9-16.6L19.9-16.6z"/>
																				<path id="Path_3841_1_" class="st8" d="M21.6-18c-0.2,0-0.3-0.1-0.3-0.3c0-0.1,0.1-0.3,0.3-0.3
																					c0.2,0,0.3,0.1,0.3,0.3l0,0C21.9-18.2,21.7-18.1,21.6-18z"/>
																				
																					<ellipse id="Ellipse_295_1_" transform="matrix(-0.9999 1.700008e-02 -1.700008e-02 -0.9999 39.3138 -34.8344)" class="st15" cx="19.8" cy="-17.3" rx="0.2" ry="0.1"/>
																			</g>
																		</g>
																	</g>
																</g>
															</g>
														</g>
													</g>
												</g>
											</g>
										</g>
									</g>
									<path id="Path_3843_1_" class="st11" d="M27.2-19.4c1.6-0.3,2.8-1.1,3.7-2.2c-0.2,1.1-1,2-2.2,2.4L27.2-19.4z"/>
									<path id="Path_3844_1_" class="st11" d="M25.5-19.2c1.6-0.3,2.9-1.1,3.7-2.2c-0.2,1.1-1,2-2.2,2.4L25.5-19.2z"/>
									<path id="Path_3845_1_" class="st11" d="M23.9-18.6c1.4-0.3,2.8-1.3,3.6-2.5c-0.1,1.1-0.8,2.1-2,2.5L23.9-18.6z"/>
								</g>
							</g>
							<path id="Path_3846_1_" class="st16" d="M18.5-17c-0.2,0.6-0.1,1.2,0.3,1.7c0.2,0.4,0.3,0.9,1,0.5c1.4-0.7,2.9-1.7,4.3-2.5
								c5.7-3.9,4.9-3.9,10.7-2.3c-5.9-2.7-4.7-2.5-11.6,0.6C21.5-18.5,20.1-17.9,18.5-17z"/>
						</g>
					</g>
				</g>
			</g>
		</g>
		<path id="Path_3849" class="st17" d="M21.8,6.8c3.8-7.4,11.9-7.4,16.9-6.2c8,1.9,15.1,7.6,15.9,11.7c-3-3.7-9.4-9.3-21.3-9.8
			C43.1,4,58.9,9.9,57.4,22.4c-0.2-1.8-0.9-3.5-2.1-4.9c1.5,5.2,5.6,13.2,1.3,21.7c1.1-4.3,1.3-7.2,0.6-8.8c-0.1,6-1.1,6.8-2.7,9.2
			c-2,3-2.8,9-4.8,14.4c0.3-7.2,3.6-14.7-3.1-19.6C42,31,35.4,31.6,29.1,29.7c1.5,1.2,3.1,2.2,5,2.7c-9.2-0.3-14.3-2.5-19.7-10
			c-0.5,3-0.3,6,0.5,8.9c-1.3-1.9-2-4.2-1.9-6.4c-2.1,11-1.7,13.7,3.3,28.1c1.2,3.5,2.8,6.8,5,9.8c-3.8-2.7-5.4-6.4-6.8-7.8
			c-4-3.8-8.8-10.6-8.8-16.5c-2.9-2-2-3.5-1.9-7.2C4.3,24,6,20.6,10.5,14.7c-6.1,5.9-7.2,10-7.1,18.9C0.5,24.4,4.2,10.5,13.9,7.2
			C16.4,6.1,19.2,6,21.8,6.8z"/>
		<path id="Path_3850" class="st18" d="M39.4,31c8.3,1.9,13.8,3.9,10.9,20.2c4.2-16.7,1.8-18-13.7-27.6c11.5,6.4,16.7,7.5,15.6,19.7
			c2.6-11.7-0.3-16.1-6-21.7c3.8,3,9.6,8.9,7.3,18.3c6.4-11.6,0.9-16.3-7.3-21.5c-6.9-4.3-17.8-6.1-25.7-7.9
			C20.8,26.1,25.6,27.9,39.4,31z"/>
		<path id="Path_3851" class="st18" d="M18.3,39.8c-6.2-6.2-6-10.3-6.7-14.7c-2,11.5,2.5,19,9.4,26.9C0.7,43.1,3.6,13.1,22,7
			C11.2,18.2,11.7,30.6,18.3,39.8z"/>
		<path id="Path_3852" class="st19" d="M18.3,39.8c-6.2-6.2-5.5-15.2-6.2-19.6C6,35.2,15.5,46.6,18.6,50C3.8,39.5,4.3,16.9,21.5,7.5
			C10.9,18.6,11.7,30.6,18.3,39.8z"/>
		<path id="Path_3853" class="st19" d="M19,11.4c-5.6,12.5,1.8,18.5,15.7,23C25,30.1,18.5,22.5,19,11.4z"/>
		<path id="Path_3854" class="st20" d="M19.2,10.3c-2.3,13,7.7,22.9,18.9,25.4C27.9,32.5,18.7,21.5,19.2,10.3z"/>
		<path id="Path_3855" class="st19" d="M51.2,38.9C50.4,26.2,39,30.7,29.3,19c7.2,4.6,18.2,6,21.8,14.6c-2.7-15-21.8-15.5-31.2-23.4
			C19.9,36.8,48.2,23.2,51.2,38.9z"/>
		<path id="Path_3856" class="st21" d="M50.7,38c-1-12.8-23.5-10.3-24.9-21.7c6.7,2.9,18.3,7.8,22.9,12.4
			c-3.4-6.9-18-22.8-28.7-18.5C24.2,35.3,47.6,22.2,50.7,38z"/>
		<path id="Path_3857" class="st19" d="M18.7,9.9c3.8-3.6,6.7-5.2,10.5-6c12.5-2.6,26,7,27.4,14.2c-3.9-5.9-10.5-7.2-17.2-9.5
			c5.5,3.3,6.6,2.5,11.1,7.7c-1.8-1.4-1.3-1.3-3.6-2c5.8,5.3,8.2,7.2,8.8,16.5c-1.9-7.5-9.8-12.4-15.8-14.3c1.9,2.3,2,2.1,3.2,4.9
			C36.1,14.5,29.1,9.7,18.7,9.9z"/>
		<path id="Path_3858" class="st16" d="M2.4,29.6c1.1-8.7,2.9-13.1,10.7-18.1C-2.9,31,6.4,46,19.9,60.9c-4-6.1-7.2-11.4-10.7-17.7
			c1.3,1.8,3.1,4.5,4.4,6.4C10.8,43.7,6.8,36.3,6.8,30c0-9.5,5.2-18.2,13.4-22.8C7.3,7,1.4,19,2.4,29.6z"/>
		<path id="Path_3859" class="st22" d="M20.5,9.2c4,25.1,28.8,11,30.9,31.3C48.1,20.1,21.5,35.9,20.5,9.2z"/>
		<path id="Path_3860" class="st23" d="M21.3,8.8c5.8,10.1,15.9,3.1,26.9,19.6C38.6,9.2,29.3,14.2,21.3,8.8z"/>
		<path id="Path_3861" class="st24" d="M21.1,9c1.9,11.2,17.8,8.2,25.1,16.7C39.5,16.1,25.2,18.8,21.1,9z"/>
		<path id="Path_3862" class="st20" d="M20.6,8.4c-11.4,9.7-14.1,22-6.3,37.4C4.7,31.1,7.7,16.9,20.6,8.4z"/>
		<path id="Path_3863" class="st20" d="M21,8.6c7.7-2.1,31.6-3,36.2,11.7C54.1,4.4,27.4,2.4,21,8.6z"/>
		<path id="Path_3864" class="st20" d="M22.9,9.4c6.4,1.2,25.6,4.7,32.2,19.2C45.7,8.9,27.7,8.1,22.9,9.4z"/>
		<path id="Path_3865" class="st19" d="M54.3,15.9c3.3,8.1,4.6,13.8,2.3,24.3C60.4,27.5,58.7,23.4,54.3,15.9z"/>
		<path id="Path_3866" class="st19" d="M47.3,11.1C53,17.8,56,22.8,57,33.5C56.7,20.2,53.8,16.8,47.3,11.1z"/>
		<path id="Path_3867" class="st19" d="M51.9,27.6c1.6,8.6,1.8,14.5-2.6,24.2C55.6,40.2,54.7,35.8,51.9,27.6z"/>
		<path id="Path_3868" class="st19" d="M5.7,26.6c-1.2,9.1-0.9,17.9,6,27.4C3.2,43.9,2.6,38.6,5.7,26.6z"/>
		<path id="Path_3869" class="st24" d="M39,16.3c8.3,5.2,12.9,15,13.5,24.1C53.5,30.3,47.6,19.1,39,16.3z"/>
		<path id="Path_3870" class="st0" d="M18.8,7.7C9,12.3,3.3,21.2,2.7,30.2C1.8,20.2,8.9,10.2,18.8,7.7z"/>
		<path id="Path_3871" class="st0" d="M11.3,14.7c-6.1,9-6.4,19.5-2.3,27.6C3.1,34.1,4.1,21.9,11.3,14.7z"/>
		<path id="Path_3872" class="st0" d="M23.9,4.4c9.4-5.2,19-3.1,26.3,2.3C43-0.5,29.3-2.1,23.9,4.4z"/>
		<path id="Path_3873" class="st0" d="M23,5.8C15.7,4,9.5,7.2,5.4,12.1C9,6,18,2.5,23,5.8z"/>
		<path id="Path_3874" class="st0" d="M22.8,5.3C30,3.5,40.9,3.2,46,8.7C40.7,1.7,27.6,1.9,22.8,5.3z"/>
		<path id="Path_3875" class="st0" d="M39.4,11.4c6.8,3.2,15.5,9.8,16,17.3C55.7,20,45.4,11.9,39.4,11.4z"/>
		<path id="Path_3876" class="st0" d="M47.3,20.7c4.2,5.6,8.2,10.5,6,23.3C57,31.3,54.1,24,47.3,20.7z"/>
	</g>
	<path id="Apple_Body" class="st25" d="M130.6,101c4.7,1,9.1,1.6,13.2,2.9c5,1.5,8.1,5.3,10.2,10.1c4.4,10.3,5.4,21.2,5.8,32.2
		c0.4,9.9,0.7,19.9,1.7,29.8c0.6,5.5,3.4,10.8,3.8,16.3c1.4,17.5,2.6,34.9,2.9,52.4c0.1,9.1-4.3,17-12.5,22.5
		c0.5-6.6,5.6-12.4,2.8-19.9c-1.3,2.6-2.7,5.2-4,7.8c0-6.1,0-12.3,3.3-17.5c1.7-2.5,2.2-5.6,1.4-8.5c-2-8.6-4.4-17.2-6.2-25.8
		c-2.7-12.6-5.1-25.3-7.8-38c-1.8-8.6-3.9-17.3-5.8-26c-8.9,11.5-3.6,22.8-0.9,34.3c2.8,11.9,6.6,24,6.6,36.1
		c0,18.8,0.2,37.9-4.8,56.4c-2.2,8.2-4.5,16.4-7.1,24.4c-3.6,11.4-4.8,23.4-3.4,35.3c1.9,18.1,0.7,35.9-2.1,53.9
		c-2.5,16-6.2,31.9-4.8,48.3c0.4,5.1,1.2,10.1,1.8,15.2c0.5,4.2-0.9,6.1-5.1,6.7c-1.9,0.3-3.9,0.4-5.9,0.5c-5.3,0.4-7.1-1.7-5.5-6.8
		c3.3-10.3,4.2-21,4.1-31.7c-0.1-8.9-1.7-17.7-2.3-26.6c-0.9-13.7-2-27.4-2.2-41.1c-0.1-7.4,2.4-14.8,2.1-22.2
		c-0.8-26.2-2.3-52.5-3.5-78.7c0-0.9-1-1.7-1.5-2.5c-0.5,0.9-1.4,1.7-1.4,2.6c-0.8,17.8-1.4,35.5-2.1,53.3c-0.2,6.1-1,12.3-0.8,18.4
		c0.2,8.7,1.4,17.4,1.4,26.1c0,12-0.4,24-1.3,36c-1.6,19.4-5,38.7-1,58.2c0.6,2.9,1.6,5.8,2.3,8.7c1.1,4.5-0.1,6.2-4.7,6.2
		c-2.5,0.1-5-0.1-7.4-0.6c-2.7-0.6-5.4-1.8-4.6-5.5c4.8-22.8,0.3-45.1-3.4-67.4c-2.7-16.6-3.6-33.2-1.7-50c1.6-14.7-0.5-29-5.5-43.1
		c-6.7-19.3-9.9-39.7-9.3-60.1c0-1.8-0.1-3.6-0.4-5.4c-1.8-9.6,0.5-18.9,2.4-28.2c1.8-9.1,4.6-17.9,6.8-26.9
		c0.9-3.4,1.4-6.9,1.5-10.4c0-2.2-1.1-4.3-1.8-6.5c-0.7-2.2-1.6-4.3-2.7-7.3c-0.8,2.5-1.6,4.4-2,6.4c-3.2,16.1-6.2,32.3-9.7,48.4
		c-2.1,9.8-4.9,19.5-7.5,29.2c-1.5,5.9-2.4,11.2,1,17.2c2.5,4.3,2.5,10.1,3.2,15.3c-3-1.8-1.7-6.6-5.9-7.6c-1.3,7.2,2.8,13,4,19.5
		c-5.6-2.7-8.5-7.4-10.7-12.6c-3.4-7.9-2.4-16.3-2.2-24.4c0.3-11,1.3-21.9,2.2-32.9c0.3-3.6,0.6-7.4,1.9-10.8
		c3.9-10,3.7-20.5,4.4-30.9c0.6-8.7,0.4-17.6,1.7-26.2c1-6,2.9-11.9,5.5-17.4c2-4.8,6.5-8.1,11.7-8.5c3.3-0.3,6.5-1.5,10.4-2.5"/>
	<g id="apple" transform="translate(-381.691 -2743.512)">
		<path id="Path_7242" class="st26" d="M488.7,2900.4c-1.3-2.8-3.3-5.3-5.7-7.1c-1.5-1.3-3.7-1.2-5,0.3l-0.1,0.1
			c-1.3,1.6-1.1,4,0.4,5.3c0.1,0.1,6.7,3.9,5.4,15.9c1,0.2,1.9,0.6,2.7,1.1c0,0,1.9-0.6,4.6-1.3c0.4-4.4-0.1-8.8-1.6-12.9
			C489.1,2901.3,488.9,2900.8,488.7,2900.4C488.7,2900.3,488.7,2900.4,488.7,2900.4z"/>
		<path id="Path_7243" class="st26" d="M491.4,2916c-0.9-0.5-1.8-0.9-2.7-1.1l0,0c-1.4-0.4-3.2-0.8-5.2-1.1
			c-1.4-0.2-2.7-0.4-3.8-0.5c-9.7-1.1-22.2,0-27.6,11.3c-9.2,19.5-3,46.3,12.9,57.9c14.1,10.4,24.7,6.6,26.8,5.7V2916
			C491.6,2916,491.4,2916,491.4,2916z"/>
		<path id="Path_7244" class="st26" d="M521.4,2924.6c-2.4-5.2-7.1-9-12.7-10.4c0.1,0.1,0.2,0.1,0.3,0.2c-0.1-0.1-0.2-0.1-0.3-0.2
			c-8.5-2.4-18.4-0.6-23.6,0.8v-0.1c-2,0.5-3.5,0.9-4.2,1.1v72.2c0.2-0.1,0.4-0.2,0.4-0.2s11.5,6.2,27.3-5.5
			C524.5,2970.8,530.5,2944.1,521.4,2924.6z"/>
	</g>
</g>
</svg>
