<?xml version="1.0" encoding="utf-8"?>
<!-- Generator: Adobe Illustrator 23.1.0, SVG Export Plug-In . SVG Version: 6.00 Build 0)  -->
<svg version="1.1" id="Layer_1" xmlns="http://www.w3.org/2000/svg" xmlns:xlink="http://www.w3.org/1999/xlink" x="0px" y="0px"
	 viewBox="0 0 108 411.3" style="enable-background:new 0 0 108 411.3;" xml:space="preserve">
<style type="text/css">
	.st0{fill-rule:evenodd;clip-rule:evenodd;fill:#A1825F;}
	.st1{fill-rule:evenodd;clip-rule:evenodd;fill:#F1B287;}
	.st2{fill-rule:evenodd;clip-rule:evenodd;fill:#FEC19B;}
	.st3{fill-rule:evenodd;clip-rule:evenodd;fill:#E8A476;}
	.st4{fill-rule:evenodd;clip-rule:evenodd;fill:#F5BC95;}
	.st5{fill-rule:evenodd;clip-rule:evenodd;fill:#D6976D;}
	.st6{fill-rule:evenodd;clip-rule:evenodd;fill:#975B36;}
	.st7{fill-rule:evenodd;clip-rule:evenodd;fill:#753005;}
	.st8{fill-rule:evenodd;clip-rule:evenodd;fill:#FFFFFF;}
	.st9{fill-rule:evenodd;clip-rule:evenodd;fill:#E85A4E;}
	.st10{fill-rule:evenodd;clip-rule:evenodd;fill:#4F4742;}
	.st11{fill-rule:evenodd;clip-rule:evenodd;}
	.st12{fill-rule:evenodd;clip-rule:evenodd;fill:#3B545C;}
	.st13{fill-rule:evenodd;clip-rule:evenodd;fill:#4F6F7A;}
	.st14{fill-rule:evenodd;clip-rule:evenodd;fill:#6D98A6;}
	.st15{fill:#FFFFFF;}
	.st16{fill-rule:evenodd;clip-rule:evenodd;fill:#B89772;}
	.st17{fill-rule:evenodd;clip-rule:evenodd;fill:#C7A77D;}
	.st18{fill-rule:evenodd;clip-rule:evenodd;fill:#D6B788;}
	.st19{fill-rule:evenodd;clip-rule:evenodd;fill:#E5D4AF;}
	.st20{fill-rule:evenodd;clip-rule:evenodd;fill:#FFF7E8;}
	.st21{fill-rule:evenodd;clip-rule:evenodd;fill:#F0E2C5;}
	.st22{fill-rule:evenodd;clip-rule:evenodd;fill:#FAF7F1;}
	.st23{fill-rule:evenodd;clip-rule:evenodd;fill:#FCF1DB;}
	.st24{fill-rule:evenodd;clip-rule:evenodd;fill:#FFFAF2;}
	.st25{fill:#FEC19B;}
	.st26{fill:#A1BDD2;}
</style>
<g id="Hour_Glass" transform="translate(0.003 0)">
	<g id="head3" transform="translate(25.662 0)">
		<g id="Group_381" transform="translate(2.098 2.66)">
			<path id="Path_3781" class="st0" d="M16.8,62c-0.6-4.9-2.5-6.4-4.2-8.8c0.6,1.1,1,2.3,1.5,3.4c-1.6-1.7-2.8-3.8-3.5-5.9
				c0.1,0.5,0.2,1.1,0.4,2.2c-1.8-3.2-3.2-6.6-4-10.3C8.7,46.7,18,52,16.8,62z"/>
			<path id="Path_3782" class="st0" d="M21.3,9C21.7-2.4,9.7-0.2,2.5,4.5C7.9,0.3,15-1.3,19.1,1c2.6,1.4,4.2,4.2,3.4,8.8L21.3,9z"/>
			<path id="Path_3783" class="st0" d="M17.6,3.7C5.7,1,0.3,7.4-1.7,17.6C-1.1,6.3,5.7-0.8,19.4,1.8L17.6,3.7z"/>
			<path id="Path_3784" class="st0" d="M3.7,37C4,43.5,14.4,53.9,17.8,60c0.7,1.4,16,4.6,16.5,1.2c0.6-4.9,2.5-6.4,4.2-8.8
				c-0.6,1.1-1,2.3-1.5,3.4c1.6-1.7,2.8-3.8,3.5-5.9c-0.1,0.5-0.2,1.1-0.4,2.2c1.8-3.2,3.2-6.6,4.1-10.3c0.4-3,2.7-6,0.6-10.1
				c-2.9-5.1-7.1-9.3-12.3-12.1c-5.2-2.6-12.9-3-17.3-2.6s-5.4,0.9-7.4,4.5S3.4,31.9,3.7,37z"/>
		</g>
		<g id="Group_403" transform="translate(0 8.27)">
			<g id="Group_382" transform="translate(0 51.748)">
				<path id="Path_3785" class="st1" d="M7.3,18"/>
				<path id="Path_3786" class="st1" d="M-1.5,18.9"/>
				<path id="Path_3787" class="st2" d="M44.5,18c-6.4-2.9-8.4-8.7-7.8-20.8L18.2-3.3c1.8,7.9,0.4,15.8-3.4,18.8
					c-0.8,0.4-4.2,2.2-7,3.8"/>
				<path id="Path_3788" class="st1" d="M41.9,17.8"/>
				<path id="Path_3789" class="st3" d="M17.7-3.3c1.7,7.8,0.7,15.2-2.8,18.6c8,2.9,18.1-6.1,21.4-13.2c0-2.1,0.2-2.2,0.3-5
					L17.7-3.3z"/>
				<path id="Path_3790" class="st3" d="M30.7,7.3"/>
				<path id="Path_3791" class="st4" d="M44.5,18.8"/>
			</g>
			<path id="Path_3794" class="st5" d="M18.3,50.5c1.6,1.9,4.8,5.7,6.2,6.2c1.8,0.7,5.5,0.9,7-0.1c2.2-1.3,3.6-3.6,5.1-5.4
				c0-1.5,0.1-1.2,0.2-3l-19-0.3C18,49.1,18.1,49.4,18.3,50.5z"/>
			<g id="Group_402" transform="translate(8.489)">
				<g id="Group_383" transform="translate(39.886 27.691)">
					<path id="Path_3795" class="st1" d="M-3.2,1.6c1.1-2.8,2.5-4.6,3.4-3c1.3,2.2-0.8,6.2-1.5,8.2c-1,2.9-0.8,4.7-2.2,4.6
						c-0.6-0.1-1-0.9-1-2S-4.2,7-4,5.8L-3.2,1.6z"/>
					<path id="Path_3796" class="st6" d="M-3.7,6.2c0.1-0.4,0.2-0.7,0.2-1c0.7-2.7,1.3-2.6,1.2-2c-0.1,0.7-0.3,1.3-0.6,1.9
						C-3,5.3-2.7,6.1-3,6.8C-3.2,7.5-4,7.8-3.7,6.2z"/>
				</g>
				<g id="Group_384" transform="translate(0 27.691)">
					<path id="Path_3797" class="st3" d="M1.8,1.6C0.7-1.2-0.8-3-1.6-1.4C-3,0.8-0.9,4.9,0,6.8c1,2.9,0.8,4.7,2.2,4.6
						c0.6-0.1,1-0.8,1-2C3.1,8.3,2.8,7,2.6,5.8L1.8,1.6z"/>
					<path id="Path_3798" class="st6" d="M2.2,6.2C2.1,5.8,2,5.5,2,5.2c-0.6-2.7-1.2-2.6-1.2-2C1,3.9,1.2,4.5,1.4,5.1
						c0.1,0.2-0.2,1.1,0.1,1.8S2.6,7.8,2.2,6.2z"/>
				</g>
				<path id="Path_3799" class="st1" d="M37.3,9.5c2.4,7.7,0.4,19.1-1.8,27.4c-1.1,4.5-1.8,6.1-2.9,7.8c-2.4,3.7-6,7.2-9.1,10.5
					c-1.2,1.2-2.2,1.3-4,1.4c-1.8,0.1-2.9,0-4.3-1.3c-2.9-3.2-6.6-6.7-9.1-10.3c-1.1-1.6-1.8-3.3-3-7.7C0.7,29.1-1.7,17.7,0.6,10
					C4.4-3.6,33.2-3.9,37.3,9.5z"/>
				<g id="Group_385" transform="translate(14.795 46.822)">
					<path id="Path_3801" class="st3" d="M1.4,0.1c-1-0.6-2-1-3.1-1.2c0.6,1.2,1.2,2.2,1.9,3.2c1,1.4,2.6,2.2,4.3,2.1
						c1.6,0,3-0.7,4.1-2c0.7-1,1.5-2.2,1.9-3.3C9.6-0.9,8.8-0.5,7.9,0.1C6,1.4,3.4,1.4,1.4,0.1z"/>
					<path id="Path_3802" class="st7" d="M1.3-1.2c1.2,0,3.5-0.4,4.9-0.3C7-1.2,8-1.1,9.1-1.1c1-0.1,2-1,2.3-0.8
						c0.2,0.1,0.2,0.3,0.2,0.4c0,0.2-0.1,0.4-0.4,0.5c-0.4,0.1-0.7,0.1-1.1,0.3C9.3-0.4,6.8,1.1,6.2,1.5S1.7,1.4,1.5,1.3
						C1.3,1.2-1-0.7-1.1-0.8c-0.4-0.1-0.8-0.3-1.2-0.3s-0.6,0-0.6-0.3c0-0.1,0-0.6,0.3-0.6S-2-1.5-1.4-1.4C-0.6-1.2,0.2-1.2,1.3-1.2
						z"/>
					<path id="Path_3803" class="st8" d="M1.3-0.7c0.9,1.3,5,2.1,6.6-0.3C4.3-1.6,5-1.8,1.3-0.7z"/>
					<path id="Path_3804" class="st9" d="M4.4-2.4C3.9-2.8,3.3-3,2.6-3C1.1-2.9-1.3-1.4-1.8-1.4c0.7,0.7,1.8,1,2.7,1
						C2.2-0.3,3.3-0.9,4.4-1c1.1,0.3,2.2,0.5,3.3,0.6c1,0,1.9-0.4,2.7-1C9.9-1.4,7.6-2.9,6.1-3C5.5-3,4.9-2.8,4.4-2.4z"/>
					<path id="Path_3806" class="st9" d="M1.4-0.3C0.5-0.6-0.4-0.8-1.3-0.8c0.5,0.9,1,1.7,1.7,2.5c0.9,1.4,2.5,2.1,4.3,2
						c1.5,0,3-0.7,3.8-1.9C9.2,1,9.9,0.1,10.4-0.9C9.7-0.8,8.8-0.6,8.1-0.3C6,1,3.4,1,1.4-0.3z"/>
				</g>
				<g id="Group_386" transform="translate(18.765 42.274)">
					<path id="Path_3814" class="st3" d="M1.5-2.1C2-2.4,2.3-2.6,2.8-2.7c0.4-0.2,0.8,0,1,0.5c0,0.1,0,0.1,0.1,0.2
						C4-1.2,3.1-1,2.3-0.9c-0.3,0-0.7,0-1.1,0.1C0.6-0.7,0-0.7-0.6-0.8c-0.3-0.1-0.7-0.1-1-0.2c-0.7,0-1.7-0.2-1.6-1
						c0.1-0.5,0.5-0.8,0.8-0.8l0,0c0.1,0,0.2,0,0.2,0.1c0.5,0.2,1,0.4,1.5,0.7C0-1.6,0.9-1.6,1.5-2.1z"/>
					<path id="Path_3815" class="st6" d="M1.3-1.2c0.3-0.4,0.6-0.7,1-0.8c0.4-0.2,0.8-0.3,1-0.1s0.2,0.4,0,0.6c0,0-0.1,0.1-0.2,0.1
						C2.4-1.5,1.9-1.4,1.3-1.2z"/>
					<path id="Path_3816" class="st6" d="M-0.3-1.1c-0.4-0.3-0.8-0.5-1.1-0.8C-1.8-2.1-2.1-2.2-2.3-2s-0.2,0.4,0,0.6
						C-2.2-1.3-2.1-1.2-2-1.2C-1.5-1.3-1-1.2-0.3-1.1z"/>
				</g>
				<path id="Path_3817" class="st4" d="M19.1,31.4c-0.1,1.9-0.3,3.8-0.5,5.5c-0.1,0.7-0.3,1.3-0.6,1.9c0,0.3,0.4,0.7,1.3,0.8
					c0.8-0.3,1.2-0.5,1.2-0.8s-0.5-0.5-0.6-1.9c-0.1-1.6,0-3.4-0.1-5.6C19.8,28,19.3,28.1,19.1,31.4z"/>
				<g id="Group_401" transform="translate(4.262 21.347)">
					<g id="Group_400">
						<g id="Group_399" transform="translate(1.12 6.075)">
							<path id="Path_3834" class="st10" d="M-0.8-1.8C3.2-2,6.1-2,8.7,1.9C6.2-1.4,2.7-1.7-0.8-1.8z"/>
							<g id="Group_398" transform="translate(0 0)">
								<path id="Path_3835" class="st11" d="M8.6,3.5c-1-2.1-2.9-3.6-5.3-4.1c-2-0.5-4-0.4-5.8-1.2C-1.2,0.8-0.9,3,2.3,3.7
									c1.9,0.5,3.8,0,5.5,0c-1.2,0-2.4,0-3.5,0S2,3.3,1.2,2.5C0.6,1.9,0,0.8,1.2,0.7c0.5-0.1,0.9-0.2,1.3-0.2
									C4.9,0.6,7.4,2.3,8.6,3.5z"/>
								<g id="Group_397" transform="translate(3.544 3.222)">
									<path id="Path_3836" class="st8" d="M5.1,0.3c0,0.2,0.2,0.5,0,0.5c-0.3,0-0.6,0-0.9-0.2C2.6,0.3,0.6,0.9-1.4-0.1
										c-0.8-0.3-2.5-2-0.9-2.5C-1.9-2.7-1.5-2.7-1-2.7C1.4-2.6,3.9-0.9,5.1,0.3z"/>
									<g>
										<g>
											<g>
												<g>
													<g>
														<g>
															<g>
																<g id="Group_396">
																	<g id="Group_395" transform="translate(1.101 -1.675)">
																		<g id="Group_394">
																			<path id="Path_3837" class="st12" d="M-1,2.2c0.9,0,1.6-0.6,1.6-1.4s-0.7-1.6-1.5-1.6s-1.6,0.6-1.6,1.4l0,0
																				C-2.7,1.4-1.9,2.2-1,2.2z"/>
																			<path id="Path_3838" class="st11" d="M-1,1.6c0.5,0,1-0.4,1-1s-0.4-0.9-1-0.9s-1,0.4-1,1S-1.5,1.6-1,1.6z"/>
																			<path id="Path_3839" class="st13" d="M-0.9-0.7c-0.8,0-1.5,0.6-1.5,1.3S-1.8,2-1.1,2s1.5-0.6,1.5-1.3l0,0
																				C0.4-0.1-0.2-0.7-0.9-0.7L-0.9-0.7z M-0.9-0.4c0.5,0,1.1,0.5,1.1,1s-0.6,1-1.1,1S-2,1.2-2,0.6l0,0
																				C-2,0.1-1.6-0.4-0.9-0.4z"/>
																			<path id="Path_3840" class="st14" d="M-0.5,1.8c0.3,0,0.4-0.2,0.4-0.4c0-0.1-0.2-0.3-0.4-0.3s-0.3,0.2-0.3,0.4
																				C-0.8,1.6-0.7,1.8-0.5,1.8L-0.5,1.8z"/>
																			<path id="Path_3841" class="st8" d="M-1.9,0.6c0.1,0,0.3-0.1,0.3-0.2s-0.1-0.3-0.3-0.3c-0.1,0-0.3,0.1-0.3,0.3
																				l0,0C-2.1,0.5-1.9,0.6-1.9,0.6z"/>
																			<ellipse id="Ellipse_295" class="st15" cx="-0.4" cy="1.4" rx="0.1" ry="0.1"/>
																		</g>
																	</g>
																</g>
															</g>
														</g>
													</g>
												</g>
											</g>
										</g>
									</g>
								</g>
								<path id="Path_3843" class="st11" d="M1.9-0.5c-1.3-0.2-2.3-0.9-3-2c0.2,1,0.9,1.8,1.8,2.1L1.9-0.5z"/>
								<path id="Path_3844" class="st11" d="M3.3-0.2C2-0.4,1-1.1,0.3-2.2c0.2,1,0.9,1.8,1.8,2.1L3.3-0.2z"/>
								<path id="Path_3845" class="st11" d="M4.6,0.2C3.4,0,2.2-1,1.6-2.1c0.1,1,0.7,1.9,1.7,2.2L4.6,0.2L4.6,0.2z"/>
							</g>
						</g>
						<path id="Path_3846" class="st16" d="M10.9,2.2c0.2,0.5,0.1,1.1-0.2,1.5c-0.2,0.4-0.2,0.8-0.8,0.4C8.7,3.5,7.5,2.6,6.4,1.9
							c-4.7-3.3-4-3.3-8.6-2c4.8-2.5,3.7-2.3,9.4,0.4C8.4,0.8,9.6,1.4,10.9,2.2z"/>
					</g>
					<g id="Group_401_1_" transform="translate(4.262 21.347)">
						<g id="Group_400_1_">
							<g id="Group_399_1_" transform="translate(1.12 6.075)">
								<path id="Path_3834_1_" class="st10" d="M24.2-23.3c-4.5-0.1-7.7-0.1-10.6,3.6C16.4-22.9,20.2-23.2,24.2-23.3z"/>
								<g id="Group_398_1_" transform="translate(0 0)">
									<path id="Path_3835_1_" class="st11" d="M13.5-18c1.2-2.1,3.3-3.6,5.9-4.1c2.2-0.4,4.6-0.4,6.6-1.1
										c-1.4,2.5-1.7,4.8-5.3,5.5c-2.1,0.6-4.4,0.1-6.2,0.1c1.2-0.1,2.5-0.1,4-0.1s2.5-0.4,3.3-1.2c0.7-0.6,1.3-1.6-0.1-1.8
										c-0.5-0.1-1-0.2-1.5-0.1C17.8-20.8,15.1-19.1,13.5-18z"/>
									<g id="Group_397_1_" transform="translate(3.544 3.222)">
										<path id="Path_3836_1_" class="st8" d="M9.9-21.2c0,0.2-0.2,0.5,0,0.5c0.5,0.1,0.7,0.1,1-0.1c1.8-0.4,4.2,0.3,6.3-0.7
											c0.9-0.3,2.9-2,1-2.4c-0.5-0.2-0.9-0.2-1.5-0.1C14.2-24,11.5-22.3,9.9-21.2z"/>
										<g>
											<g>
												<g>
													<g>
														<g>
															<g>
																<g>
																	<g id="Group_396_1_">
																		<g id="Group_395_1_" transform="translate(1.101 -1.675)">
																			<g id="Group_394_1_">
																				<path id="Path_3837_1_" class="st12" d="M14.5-19.3c-1,0-1.7-0.7-1.7-1.5s0.8-1.5,1.7-1.5s1.7,0.7,1.7,1.5l0,0
																					C16.3-20,15.5-19.3,14.5-19.3z"/>
																				<path id="Path_3838_1_" class="st11" d="M14.4-19.8c-0.6,0-1.2-0.5-1.2-1s0.6-0.9,1.1-0.9s1.2,0.5,1.2,1
																					S15.1-19.8,14.4-19.8z"/>
																				<path id="Path_3839_1_" class="st13" d="M14.5-22.2c0.9,0,1.5,0.6,1.6,1.3c0,0.7-0.7,1.4-1.6,1.3
																					c-0.8,0-1.5-0.6-1.6-1.3l0,0C12.9-21.5,13.7-22.1,14.5-22.2L14.5-22.2z M14.5-21.9c-0.6,0-1.2,0.5-1.2,1.1
																					c0,0.5,0.6,1,1.3,0.9c0.5,0,1.2-0.4,1.2-1l0,0C15.7-21.4,15.1-21.8,14.5-21.9z"/>
																				<path id="Path_3840_1_" class="st14" d="M14-19.6c-0.3,0-0.5-0.2-0.4-0.4c0.1-0.2,0.2-0.4,0.5-0.4
																					c0.2,0,0.4,0.2,0.4,0.4C14.3-19.8,14.2-19.6,14-19.6L14-19.6z"/>
																				<path id="Path_3841_1_" class="st8" d="M15.5-20.7c-0.2,0-0.3-0.1-0.3-0.3c0-0.1,0.1-0.3,0.3-0.3
																					s0.3,0.1,0.3,0.3l0,0C15.8-20.9,15.6-20.8,15.5-20.7z"/>
																				<ellipse id="Ellipse_295_1_" class="st15" cx="13.9" cy="-20.1" rx="0.2" ry="0.1"/>
																			</g>
																		</g>
																	</g>
																</g>
															</g>
														</g>
													</g>
												</g>
											</g>
										</g>
									</g>
									<path id="Path_3843_1_" class="st11" d="M21.1-22c1.5-0.2,2.6-1,3.3-1.9c-0.2,1-0.9,1.8-2,2.1L21.1-22z"/>
									<path id="Path_3844_1_" class="st11" d="M19.5-21.7c1.5-0.2,2.7-1,3.3-1.9c-0.2,1-0.9,1.8-2,2.1L19.5-21.7z"/>
									<path id="Path_3845_1_" class="st11" d="M18.2-21.2c1.3-0.3,2.6-1.1,3.2-2.2c-0.1,1-0.8,1.9-1.9,2.2H18.2z"/>
								</g>
							</g>
							<path id="Path_3846_1_" class="st16" d="M13.4-19.3c-0.2,0.5-0.1,1.1,0.2,1.5c0.2,0.4,0.3,0.8,0.9,0.5c1.3-0.6,2.7-1.5,4-2.2
								c5.2-3.4,4.5-3.4,9.7-1.9c-5.3-2.5-4.2-2.3-10.5,0.4C16.2-20.6,14.9-20.1,13.4-19.3z"/>
						</g>
					</g>
				</g>
			</g>
		</g>
		<path id="Path_3849" class="st17" d="M18.1,6.2c3.4-6.8,10.7-6.7,15.3-5.6C40.6,2.3,47,7.5,47.7,11.2C44.9,7.7,39,2.7,28.4,2.3
			c9,1.4,23.3,6.8,21.9,18.1c-0.2-1.7-0.8-3.2-1.8-4.4c1.4,4.7,5.1,12,1.2,19.7c1-3.9,1.1-6.5,0.6-8c-0.1,5.5-1,6.2-2.4,8.4
			c-1.8,2.7-2.5,8.2-4.4,13.1c0.3-6.5,3.2-13.4-2.8-17.8c-4.3-2.9-10.2-2.4-15.9-4.1c1.3,1.1,2.8,2,4.5,2.4
			c-8.3-0.3-12.9-2.4-17.8-9.1c-0.4,2.7-0.3,5.5,0.5,8.1c-1.1-1.7-1.8-3.8-1.8-5.8c-1.8,10-1.6,12.4,3,25.6c1,3.2,2.5,6.2,4.5,8.9
			c-3.3-2.4-4.9-5.7-6.1-7.1c-3.6-3.4-8-9.7-8-15c-2.6-1.9-1.8-3.2-1.7-6.5c0.4-6.7,1.9-9.7,6-15.1c-5.6,5.4-6.6,9-6.5,17.1
			c-2.5-8.4,0.8-21.1,9.5-24.2C13.2,5.7,15.7,5.6,18.1,6.2z"/>
		<path id="Path_3850" class="st18" d="M34,28.2c7.5,1.7,12.5,3.6,9.8,18.4c3.7-15.2,1.6-16.4-12.4-25.1
			c10.4,5.7,15.1,6.6,14.1,17.8c2.3-10.6-0.3-14.6-5.5-19.7c3.4,2.7,8.7,8.1,6.6,16.6c5.8-10.5,0.8-14.8-6.7-19.6
			c-6.2-4-16.1-5.6-23.3-7.2C17.1,23.8,21.4,25.4,34,28.2z"/>
		<path id="Path_3851" class="st18" d="M14.8,36.3c-5.6-5.6-5.5-9.4-6.1-13.4C6.9,33.4,11,40.3,17.1,47.6C-1.2,39.5,1.3,12.2,18,6.6
			C8.5,16.6,8.9,27.9,14.8,36.3z"/>
		<path id="Path_3852" class="st19" d="M14.8,36.3c-5.6-5.6-5-13.8-5.6-17.8c-5.6,13.6,3,24.1,5.9,27.1C1.8,36.1,2.3,15.4,17.8,6.9
			C8.1,16.9,8.9,27.9,14.8,36.3z"/>
		<path id="Path_3853" class="st19" d="M15.4,10.5c-5.1,11.4,1.6,16.8,14.1,21C20.9,27.4,14.9,20.6,15.4,10.5z"/>
		<path id="Path_3854" class="st20" d="M15.7,9.5c-2,11.9,6.9,20.9,17.1,23.2C23.5,29.7,15.1,19.6,15.7,9.5z"/>
		<path id="Path_3855" class="st19" d="M44.6,35.6c-0.7-11.6-11-7.5-19.8-18.1c6.5,4.2,16.4,5.5,19.7,13.3
			C42.1,17,24.9,16.6,16.3,9.4C16.3,33.5,41.9,21.2,44.6,35.6z"/>
		<path id="Path_3856" class="st21" d="M44.2,34.5c-0.9-11.7-21.4-9.4-22.7-19.7C27.6,17.4,38,22,42.3,26.1
			c-3-6.2-16.3-20.8-26-16.8C20.2,32.1,41.5,20.2,44.2,34.5z"/>
		<path id="Path_3857" class="st19" d="M15.1,9c3.4-3.2,6-4.7,9.4-5.5c11.2-2.4,23.6,6.3,24.8,12.9C45.9,11,40,9.8,33.9,7.8
			c5,3,6,2.3,10,7.1c-1.7-1.2-1.1-1.2-3.2-1.8c5.3,4.8,7.5,6.6,8,15.1c-1.8-6.8-8.9-11.3-14.2-13c1.7,2.1,1.8,1.9,2.8,4.4
			C30.9,13.3,24.7,8.9,15.1,9z"/>
		<path id="Path_3858" class="st16" d="M0.5,26.9c0.9-7.8,2.6-11.9,9.6-16.4c-14.4,17.7-6.1,31.4,6.1,45c-3.5-5.6-6.6-10.4-9.6-16.1
			c1.2,1.6,2.8,4.1,4,5.7C8,39.9,4.4,33,4.4,27.3c0-8.6,4.7-16.5,12.1-20.8C4.9,6.4-0.5,17.3,0.5,26.9z"/>
		<path id="Path_3859" class="st22" d="M16.9,8.5C20.5,31.3,43,18.6,44.8,37C41.9,18.4,17.7,32.7,16.9,8.5z"/>
		<path id="Path_3860" class="st23" d="M17.6,8.1c5.3,9.1,14.3,2.8,24.3,17.8C33.3,8.5,24.9,13,17.6,8.1z"/>
		<path id="Path_3861" class="st24" d="M17.4,8.3c1.7,10.2,16.1,7.4,22.7,15.2C34.2,14.8,21.1,17.1,17.4,8.3z"/>
		<path id="Path_3862" class="st20" d="M17,7.7c-10.3,8.8-12.8,20.1-5.7,34C2.6,28.3,5.3,15.4,17,7.7z"/>
		<path id="Path_3863" class="st20" d="M17.3,7.9C24.3,6,45.8,5.2,50,18.5C47.2,4.1,23.1,2.3,17.3,7.9z"/>
		<path id="Path_3864" class="st20" d="M19,8.6c5.7,1.1,23.2,4.2,29.2,17.4C39.7,8.2,23.4,7.4,19,8.6z"/>
		<path id="Path_3865" class="st19" d="M47.5,14.5c3,7.3,4.3,12.6,2,22.1C52.9,25,51.4,21.4,47.5,14.5z"/>
		<path id="Path_3866" class="st19" d="M41.1,10.2c5.2,6.1,7.9,10.6,8.7,20.4C49.6,18.5,46.9,15.3,41.1,10.2z"/>
		<path id="Path_3867" class="st19" d="M45.3,25.1c1.5,7.8,1.6,13.2-2.3,22.1C48.6,36.7,47.9,32.6,45.3,25.1z"/>
		<path id="Path_3868" class="st19" d="M3.5,24.3c-1,8.2-0.7,16.3,5.5,24.9C1.3,40.1,0.7,35.3,3.5,24.3z"/>
		<path id="Path_3869" class="st24" d="M33.7,14.9c7.5,4.7,11.6,13.6,12.3,22C46.7,27.7,41.4,17.5,33.7,14.9z"/>
		<path id="Path_3870" class="st0" d="M15.2,7.1c-8.9,4.2-14,12.2-14.5,20.6C0.1,18.2,6.2,9.6,15.2,7.1z"/>
		<path id="Path_3871" class="st0" d="M8.6,13.5C3,21.6,2.8,31.2,6.4,38.6C1.2,30.7,2,20.2,8.6,13.5z"/>
		<path id="Path_3872" class="st0" d="M19.8,4.1C28.2-0.6,37,1.3,43.7,6.2C37.2-0.3,24.9-1.8,19.8,4.1z"/>
		<path id="Path_3873" class="st0" d="M19.1,5.4C12.4,3.8,6.8,6.6,3.2,11.1C6.4,5.6,14.6,2.4,19.1,5.4z"/>
		<path id="Path_3874" class="st0" d="M18.9,4.9C25.6,3.2,35.4,2.9,40,8C35.2,1.6,23.4,1.8,18.9,4.9z"/>
		<path id="Path_3875" class="st0" d="M34,10.5c6.2,2.9,14.1,8.9,14.4,15.7C48.7,18.3,39.3,10.9,34,10.5z"/>
		<path id="Path_3876" class="st0" d="M41.1,18.9c3.7,5.2,7.4,9.5,5.5,21.3C49.9,28.5,47.2,21.9,41.1,18.9z"/>
	</g>
	<path id="Hourglass_Body" class="st25" d="M78.5,78c3.6,0.8,7.2,1.7,10.7,2.4c4.3,0.9,6.9,3.4,8.5,7.4c3.1,7.7,4.3,15.7,4.5,24.1
		c0.4,13.6,0.1,27.4,2.4,40.6c2.4,13.5,3.5,27.2,3.2,40.9c-0.2,7.5-0.1,15.2-0.8,22.8c-0.7,7.9-4.6,14.6-10.6,19.9
		c-0.6,0.5-1.5,0.7-3,1.3l6.4-18l-1.4-0.7c-3.4,0.7-2.9,4.7-5.4,7.3c-0.1-5.9,0.8-11.1,3.5-15.3c3-4.8,3-9.8,1.9-14.7
		c-5.4-23.5-7.8-47.5-11.4-71c-0.4-2.6-1.2-5.2-2.4-7.5c-1.5,3.6-3.3,7.1-4.5,10.8c-2,7-3.6,14.2-5.6,21.4
		c-1.9,7.2,2.1,12.2,5.5,17.8c3.1,5.5,7.4,11.1,8.2,17.1c1.4,10.1,1.4,20.3,0.1,30.4c-2,15.2-6,30.2-8.7,45.4
		c-2.2,12.2-3.1,24.8-1.8,37.3c1.3,11.4,1.1,23-0.6,34.3c-2.1,14.8-4.8,29.6-5.9,44.4c-0.7,9,0.7,18.4,1.3,27.6
		c0.3,4.3-0.9,6.1-5.3,6.6c-1.7,0.2-3.4,0.5-5.2,0.7c-4.5,0.4-6.5-2.2-5.2-6.5c3.4-12,4.8-24.6,3.6-37c-1.3-16.9-3.2-34-4.1-51
		c-0.4-7.6,1.7-15.2,1.9-23.1c0.2-5.9-0.7-11.9-0.9-17.8c-0.3-12.7-0.4-25.4-0.7-38.1c-0.3-8.1-0.8-16.2-1.5-24.3
		c-0.1-0.9-1.2-1.8-1.8-2.6l-1.7,0.8c-0.4,20.9-0.7,41.6-1.3,62.5c-0.1,4.8-1.5,9.7-1.3,14.5c0.2,6.4,1.9,12.8,1.8,19.3
		c-0.1,12.2-0.8,24.7-1.6,36.9c-0.6,11.7-2.4,23.3-2.3,35c0.1,8.2,2.1,16.5,3.7,24.7c1,5.2-0.2,7.1-5.5,6.6
		C32,410,34.9,407.8,36.3,399c2.2-14.2,0.6-28.3-1.7-42.4c-3-19.1-6.8-38.4-4.5-57.9c2-17.2-0.5-34-4.7-50.6
		c-4.6-17.7-6.8-36.1-6.8-54.3c0.1-10.8,4.3-19.7,10.4-27.7c5-6.4,5.6-12.9,3.4-20.3c-2.8-9.4-5.6-18.9-8.4-28.5l-1.5,0.1
		c-0.8,4.9-1.8,9.7-2.5,14.6c-2.2,14.6-4.3,29.4-6.5,44c-1.4,8.8-3.2,17.5-4.6,26.5c-0.3,2.1,0.8,4.4,1.5,6.6
		c1.8,5.5,3.7,10.9,5.6,16.3l-1,0.6l-5.1-8.7c-1.6,8.1,3,13.4,5.1,20.1c-4.4-0.1-5.9-3.1-7.5-5.2c-4-5.3-6.7-11.2-6.7-18.2
		c0-9.3-0.6-18.6-0.8-28.1c-0.2-11.1,1.5-21.6,3.1-32c1.9-12.4,1.7-25.3,2.7-38c0.6-8.1,1.6-16.2,3-24.3c1.3-6.5,5.1-11.2,12.6-11.8
		c2.7-0.2,5.5-1.2,8.2-1.9"/>
	<g id="hourglass" transform="translate(25.693 116.8)">
		<path id="Path_7040" class="st26" d="M-1.5-6.6h59.2L28,41.6L-1.5-6.6z"/>
		<path id="Path_7041" class="st26" d="M57.6,89.5H-1.5l29.4-48.1L57.6,89.5z"/>
	</g>
</g>
</svg>
