<?xml version="1.0" encoding="utf-8"?>
<!-- Generator: Adobe Illustrator 23.1.0, SVG Export Plug-In . SVG Version: 6.00 Build 0)  -->
<svg version="1.1" id="Layer_1" xmlns="http://www.w3.org/2000/svg" xmlns:xlink="http://www.w3.org/1999/xlink" x="0px" y="0px"
	 viewBox="0 0 126.4 438.2" style="enable-background:new 0 0 126.4 438.2;" xml:space="preserve">
<style type="text/css">
	.st0{fill:#FEC19B;}
	.st1{fill-rule:evenodd;clip-rule:evenodd;fill:#A1825F;}
	.st2{fill-rule:evenodd;clip-rule:evenodd;fill:#F1B287;}
	.st3{fill-rule:evenodd;clip-rule:evenodd;fill:#FEC19B;}
	.st4{fill-rule:evenodd;clip-rule:evenodd;fill:#E8A476;}
	.st5{fill-rule:evenodd;clip-rule:evenodd;fill:#F5BC95;}
	.st6{fill-rule:evenodd;clip-rule:evenodd;fill:#D6976D;}
	.st7{fill-rule:evenodd;clip-rule:evenodd;fill:#975B36;}
	.st8{fill-rule:evenodd;clip-rule:evenodd;fill:#753005;}
	.st9{fill-rule:evenodd;clip-rule:evenodd;fill:#FFFFFF;}
	.st10{fill-rule:evenodd;clip-rule:evenodd;fill:#E85A4E;}
	.st11{fill-rule:evenodd;clip-rule:evenodd;fill:#4F4742;}
	.st12{fill-rule:evenodd;clip-rule:evenodd;}
	.st13{fill-rule:evenodd;clip-rule:evenodd;fill:#3B545C;}
	.st14{fill-rule:evenodd;clip-rule:evenodd;fill:#4F6F7A;}
	.st15{fill-rule:evenodd;clip-rule:evenodd;fill:#6D98A6;}
	.st16{fill:#FFFFFF;}
	.st17{fill-rule:evenodd;clip-rule:evenodd;fill:#B89772;}
	.st18{fill-rule:evenodd;clip-rule:evenodd;fill:#C7A77D;}
	.st19{fill-rule:evenodd;clip-rule:evenodd;fill:#D6B788;}
	.st20{fill-rule:evenodd;clip-rule:evenodd;fill:#E5D4AF;}
	.st21{fill-rule:evenodd;clip-rule:evenodd;fill:#FFF7E8;}
	.st22{fill-rule:evenodd;clip-rule:evenodd;fill:#F0E2C5;}
	.st23{fill-rule:evenodd;clip-rule:evenodd;fill:#FAF7F1;}
	.st24{fill-rule:evenodd;clip-rule:evenodd;fill:#FCF1DB;}
	.st25{fill-rule:evenodd;clip-rule:evenodd;fill:#FFFAF2;}
	.st26{fill:#A1BDD2;}
</style>
<g id="Triangle_Spoon_W" transform="translate(-46.212 -13.534)">
	<path id="Triangle_Body" class="st0" d="M135.6,102.3c4,0.7,7.5,1.3,11,2c4.2,0.7,6.9,3.4,8.6,6.8c4.7,9,6.2,18.8,7.5,28.7
		c2.1,16.3,5.4,32.4,7.9,48.7c1.2,7.3,1.8,14.5,1.9,21.9c0.1,12,0,24-0.7,36.1c-0.5,7.9-4.8,14.3-10.7,19.6
		c-0.8,0.6-1.8,0.9-2.9,0.9c1.5-6.6,5.8-12.6,3.7-20.2l-4.7,8.4c0.1-5.8,1.4-11.6,3.8-17c1.4-2.6,2-5.5,1.9-8.4
		c-0.7-6.6-2.2-13.2-3.5-19.7c-2.3-12.4-4.2-25-7.1-37.3c-2.9-13-6.6-25.7-10.6-38.5c2.1,7.4-3.7,12.4-5.2,18.6
		c-3.6,15.1-2.8,29.6,3.8,44c3.5,7.9,6.4,16.2,8.5,24.6c4.1,15.9,1,31.5-3.3,46.8c-2.3,8.2-5.4,16.2-7.8,24.3
		c-3.2,11.1-4.2,22.7-3.1,34.2c1.8,17.2,1.3,34.6-1.7,51.6c-2.8,16.3-6.2,32.4-5.3,49.1c0.3,5.7,1.1,11.5,1.9,17.1
		c0.5,3.6-1,5.6-4.4,6.2c-2.8,0.5-5.5,0.8-8.4,0.9c-3.8,0-4.9-2.5-4.1-7c1.7-10.8,4-21.7,4.1-32.5c0.1-11.2-1.7-22.4-3.1-33.6
		c-2-16.2-2.3-32.3,0.3-48.5c0.7-4.6,0-9.3-0.1-14c-0.2-11.3-0.4-22.5-0.8-33.8c-0.5-12.6-1.3-25.4-2-38c0-0.8-1-1.6-1.4-2.3
		c-0.6,0.9-1.7,1.9-1.7,2.8c-0.7,19.3-1.3,38.4-2,57.7c-0.2,4.5-1,8.8-1.1,13.3c-0.1,6.2-0.3,12.6,0.6,18.8
		c2,13.5,1.5,26.8,0.1,40.3c-1.4,13.9-3.3,27.9-3.4,41.8c-0.1,9.2,2.2,18.6,3.9,27.8c1.1,5.7-0.5,7.9-6.5,7.3
		c-11.4-1.2-11.6-1.3-9.7-12.1c2.3-13.3,1.1-26.3-0.8-39.5c-2.5-18.2-7.1-36.3-6.4-54.9c0.2-5.7,0.7-11.5,1.2-17.2
		c1.2-15-0.8-30.1-6.1-44.2c-5.8-15.6-10.3-31.8-9.9-48.6c0.2-9.6,1.7-19.2,6.1-28.2c3.4-7.1,6.9-14.6,8.6-22.4
		c2.8-13.2,3-26.4-3.7-39c-1.5-2.7-1.8-5.9-2.9-9.6c-2.2,8.1-4.6,15.9-6.3,23.6c-3,13.8-5.4,27.7-8.2,41.4
		c-1.8,8.9-3.8,17.8-5.8,26.8c-0.7,3.4-0.2,6.9,1.5,10c2.7,5.3,3.9,11.3,5.8,17l-1.4,0.5l-4.8-8.3c-2.4,7.6,2.1,13.4,4.5,19.7
		l-1.1,0.7c-1.2-0.6-2.7-1-3.5-2c-5.7-6.4-10.1-13.4-10.1-22.4c0-6.9-0.5-13.9-0.6-20.8c-0.3-14.9,1.1-29.7,4.2-44.3
		c3.5-16.2,4.6-32.8,7.2-49.2c1.3-8,3.4-15.9,9.5-22.1c0.8-0.9,2-1.8,3.2-2.2c3.9-0.8,8.1-1.5,12.2-2.2"/>
	<g id="head3" transform="matrix(1, 0.017, -0.017, 1, 75.47, 13.495)">
		<g id="Group_381" transform="translate(2.174 2.756)">
			<path id="Path_3781" class="st1" d="M23.6,70.2c-0.7-5.6-3-7.3-4.9-10c0.6,1.2,1.3,2.5,1.7,3.8c-1.8-2-3.3-4.2-4.2-6.7
				c0.1,0.5,0.2,1.2,0.4,2.4c-2.8-3.8-4.5-10.4-4.7-11.7C14.1,52.8,25.1,58.8,23.6,70.2z"/>
			<path id="Path_3782" class="st1" d="M29.1,9.8c0.4-13-13.8-10.5-22.3-5.2c6.4-4.8,14.7-6.5,19.5-4c3.1,1.6,4.8,4.8,4,9.9
				L29.1,9.8z"/>
			<path id="Path_3783" class="st1" d="M24.6,3.7C10.6,0.6,4.2,8,2,19.7c0.5-13,8.7-21.1,24.8-18L24.6,3.7z"/>
			<path id="Path_3784" class="st1" d="M8.2,41.7C8.5,49.2,20.7,61,24.8,67.8c1,1.6,18.8,5.3,19.3,1.3c0.7-5.6,3-7.3,4.9-10.1
				c-0.6,1.2-1.3,2.5-1.7,3.8c1.8-2,3.3-4.2,4.3-6.7c-0.1,0.5-0.2,1.2-0.4,2.4c2.8-3.8,4.5-10.4,4.7-11.7c0.5-3.4,3.2-6.8,0.7-11.5
				s-8.4-10.9-14.4-13.9s-15.4-3.3-20.5-2.9s-6.3,1-8.7,5.2S7.9,36,8.2,41.7z"/>
		</g>
		<g id="Group_403" transform="translate(0 8.571)">
			<g id="Group_382" transform="translate(0 53.627)">
				<path id="Path_3785" class="st2" d="M12.1,25.8"/>
				<path id="Path_3786" class="st2" d="M1.8,26.9"/>
				<path id="Path_3787" class="st3" d="M56,25.8c-7.4-3.3-10-9.8-9.1-23.6l-22-0.5c2.1,9,0.4,18-4,21.4c-1,0.5-4.8,2.5-8.3,4.4"/>
				<path id="Path_3788" class="st2" d="M52.8,25.6"/>
				<path id="Path_3789" class="st4" d="M24.4,1.6c2,8.9,0.8,17.3-3.3,21.2c9.5,3.3,21.4-7,25.2-15c0-2.4,0.2-2.5,0.4-5.7L24.4,1.6z
					"/>
				<path id="Path_3790" class="st4" d="M39.8,13.8"/>
				<path id="Path_3791" class="st5" d="M56,26.7"/>
			</g>
			<path id="Path_3794" class="st6" d="M25,57.6c1.8,2.2,5.5,6.5,7.2,7c2.1,0.7,6.4,1,8.3-0.1c2.7-1.6,4.4-4,6-6.1
				c0-1.7,0.1-1.3,0.2-3.4l-22.3-0.3C24.6,56.1,24.8,56.5,25,57.6z"/>
			<g id="Group_402" transform="translate(8.797)">
				<g id="Group_383" transform="translate(41.335 28.696)">
					<path id="Path_3795" class="st2" d="M6.5,4.7c1.4-3,3-5,4-3.3c1.6,2.5-1,7-1.8,9.3c-1.2,3.4-1,5.4-2.7,5.2
						c-0.7,0-1.2-0.9-1.2-2.2c0.1-1.5,0.4-2.8,0.7-4.1L6.5,4.7z"/>
					<path id="Path_3796" class="st7" d="M6.1,10c0.1-0.4,0.2-0.8,0.2-1c0.9-3.1,1.5-3,1.4-2.3s-0.4,1.4-0.6,2C7,9,7.3,9.9,7,10.7
						C6.6,11.5,5.7,11.7,6.1,10z"/>
				</g>
				<g id="Group_384" transform="translate(0 28.696)">
					<path id="Path_3797" class="st4" d="M6.8,4.7c-1.3-3-2.9-5-3.9-3.3c-1.6,2.5,1,7,1.7,9.3c1.2,3.4,1,5.4,2.7,5.2
						C8,15.8,8.5,15,8.5,13.7C8.3,12.2,8,10.9,7.7,9.6L6.8,4.7z"/>
					<path id="Path_3798" class="st7" d="M7.4,10C7.3,9.6,7.2,9.2,7.2,9C6.4,5.9,5.7,6,5.7,6.7c0.2,0.7,0.4,1.5,0.7,2.1
						c0.1,0.3-0.2,1.2,0.1,2C6.8,11.5,7.8,11.7,7.4,10z"/>
				</g>
				<path id="Path_3799" class="st2" d="M48.8,10.9c2.9,8.8,0.4,21.8-2.1,31.1c-1.4,5.2-2.1,7-3.4,8.9c-2.9,4.1-7,8.3-10.7,12.1
					c-1.4,1.5-2.7,1.6-4.6,1.6c-2,0.1-3.4,0-5-1.4c-3.8-3.7-8.1-7.8-11-11.8c-1.4-1.9-2.2-3.7-3.7-8.8c-2.7-9.3-5.5-22.2-2.9-31.1
					C10-3.9,43.8-4.3,48.8,10.9z"/>
				<g id="Group_385" transform="translate(15.334 48.523)">
					<path id="Path_3801" class="st4" d="M8.4,5C7.2,4.4,6.1,4,4.8,3.8C5.4,5,6.2,6.1,7,7.3c1.2,1.7,3.2,2.5,5.2,2.3
						c1.8,0,3.6-0.8,4.7-2.2c1-1.1,1.7-2.5,2.3-3.7c-1.1,0.2-2.1,0.6-3,1.2C13.9,6.4,10.9,6.5,8.4,5z"/>
					<path id="Path_3802" class="st8" d="M8.2,3.6c1.5,0,4.1-0.5,5.7-0.4c1.2,0.3,2.2,0.4,3.4,0.4c1.2-0.1,2.4-1.1,2.8-1
						c0.2,0.1,0.2,0.3,0.2,0.4c0,0.2-0.1,0.4-0.4,0.5c-0.4,0.1-0.8,0.1-1.4,0.3c-1,0.4-3.7,2.2-4.5,2.6c-0.7,0.4-5.3,0-5.5-0.2
						S5.8,4,5.6,4c-0.5-0.2-1-0.3-1.5-0.3C3.6,3.6,3.3,3.6,3.3,3.3c0-0.1,0-0.6,0.3-0.6s0.7,0.5,1.5,0.6C6.2,3.5,7.2,3.6,8.2,3.6z"
						/>
					<path id="Path_3803" class="st9" d="M8.3,4.1c1.1,1.6,5.9,2.3,7.9-0.3C11.9,3.1,12.8,2.9,8.3,4.1z"/>
					<path id="Path_3804" class="st10" d="M12,2.2c-0.6-0.5-1.4-0.7-2.1-0.7C8,1.6,5.3,3.3,4.7,3.2c0.8,0.7,2,1.1,3.2,1.1
						c1.5,0.2,2.8-0.5,4.1-0.6c1.3,0.3,2.7,0.6,4,0.6c1.2,0,2.3-0.4,3.2-1.1C18.6,3.3,16,1.6,14,1.5C13.3,1.5,12.6,1.7,12,2.2z"/>
					<path id="Path_3806" class="st10" d="M8.5,4.6c-1-0.5-2.1-0.7-3.2-0.7c0.5,1,1.2,2,1.9,2.9c1.2,1.6,3,2.4,5,2.3
						c1.8,0,3.5-0.7,4.6-2.2c0.9-0.9,1.5-2,2-3.1c-1,0.1-1.8,0.3-2.7,0.6C13.8,6,10.9,6.1,8.5,4.6z"/>
				</g>
				<g id="Group_386" transform="translate(19.45 43.835)">
					<path id="Path_3814" class="st4" d="M9.2,2c0.5-0.3,1.1-0.5,1.6-0.7c0.4-0.2,1.1,0.1,1.2,0.5c0.1,0.1,0.1,0.2,0.1,0.3
						C12.2,3,11,3.3,10.3,3.4c-0.5,0-1,0.1-1.4,0.2c-0.6,0.2-1.4,0.2-2.1,0C6.3,3.5,5.9,3.4,5.4,3.4C4.6,3.3,3.5,3,3.6,2.1
						c0-0.5,0.5-0.8,1.1-0.8c0,0,0.1,0,0.2,0C5.5,1.5,6,1.7,6.5,2C7.4,2.5,8.5,2.5,9.2,2z"/>
					<path id="Path_3815" class="st7" d="M8.9,3c0.4-0.3,0.9-0.7,1.3-1c0.4-0.2,0.9-0.3,1.1-0.1c0.2,0.2,0.2,0.4,0.1,0.6
						c0,0.1-0.2,0.2-0.3,0.2C10.3,2.8,9.6,2.9,8.9,3z"/>
					<path id="Path_3816" class="st7" d="M7,3.1C6.5,2.8,6.1,2.5,5.7,2.2C5.3,2,4.8,1.9,4.6,2.1C4.3,2.2,4.3,2.5,4.5,2.7
						c0.1,0.1,0.2,0.1,0.3,0.1C5.6,2.9,6.2,3,7,3.1z"/>
				</g>
				<path id="Path_3817" class="st5" d="M27.2,36c-0.1,2.2-0.3,4.2-0.5,6.2c-0.1,0.7-0.3,1.5-0.6,2.2c0,0.3,0.4,0.7,1.5,0.8
					c1-0.3,1.4-0.5,1.5-0.8c0-0.3-0.5-0.5-0.6-2.1c-0.1-1.8,0-3.9-0.1-6.3C28.2,32,27.4,32.1,27.2,36z"/>
				<g id="Group_401_1_" transform="translate(4.262 21.347)">
					<g id="Group_400_2_">
						<g id="Group_399_2_" transform="translate(1.12 6.075)">
							<path id="Path_3834_2_" class="st11" d="M5.6,1.8c4.6-0.2,8.1-0.3,11.2,4.1C13.8,2.2,9.7,1.9,5.6,1.8z"/>
							<g id="Group_398_2_" transform="translate(0 0)">
								<path id="Path_3835_2_" class="st12" d="M16.8,7.8c-1.3-2.5-3.6-4.2-6.3-4.7C8.2,2.6,5.8,2.7,3.7,1.9c1.5,3,1.9,5.6,5.6,6.4
									c2.3,0.6,4.5,0,6.5,0c-1.3-0.1-2.7-0.1-4.1-0.1S9.1,7.7,8.1,6.7C7.3,6,6.7,4.8,8.1,4.6c0.5-0.1,1.1-0.2,1.5-0.2
									C12.3,4.5,15.3,6.4,16.8,7.8z"/>
								<g id="Group_397_2_" transform="translate(3.544 3.222)">
									<path id="Path_3836_2_" class="st9" d="M13.3,4.6c0,0.2,0.2,0.5,0,0.5c-0.4,0.1-0.8,0.1-1.1-0.1c-1.9-0.4-4.3,0.3-6.6-0.8
										c-1-0.3-3-2.4-1.1-2.9c0.4-0.2,1-0.2,1.5-0.2C8.8,1.3,11.8,3.2,13.3,4.6z"/>
									<g>
										<g>
											<g>
												<g>
													<g>
														<g>
															<g>
																<g id="Group_396_2_">
																	<g id="Group_395_2_" transform="translate(1.101 -1.675)">
																		<g id="Group_394_2_">
																			<path id="Path_3837_2_" class="st13" d="M6.3,6.6c1.1,0,1.8-0.8,1.8-1.7S7.3,3.1,6.3,3.1S4.5,3.8,4.5,4.8l0,0
																				C4.4,5.8,5.2,6.6,6.3,6.6z"/>
																			<path id="Path_3838_2_" class="st12" d="M6.3,6c0.6,0,1.2-0.5,1.2-1.2S6.9,3.7,6.3,3.7S5.1,4.3,5.1,4.9
																				S5.7,6,6.3,6z"/>
																			<path id="Path_3839_2_" class="st14" d="M6.3,3.2c-1,0-1.7,0.8-1.7,1.6s0.8,1.6,1.6,1.6s1.7-0.8,1.7-1.6l0,0
																				C7.9,3.9,7.2,3.2,6.3,3.2L6.3,3.2z M6.3,3.6c0.6,0,1.3,0.5,1.3,1.2S6.9,6,6.3,6S5,5.5,5,4.8l0,0
																				C5,4.1,5.5,3.6,6.3,3.6z"/>
																			<path id="Path_3840_2_" class="st15" d="M6.8,6.2c0.3,0,0.4-0.2,0.4-0.4S7.1,5.3,6.8,5.3S6.5,5.5,6.5,5.8
																				C6.5,6,6.6,6.2,6.8,6.2L6.8,6.2z"/>
																			<path id="Path_3841_2_" class="st9" d="M5.2,4.8c0.1,0,0.3-0.1,0.3-0.2c0-0.1-0.1-0.3-0.3-0.3
																				c-0.1,0-0.3,0.1-0.3,0.3l0,0C4.9,4.7,5.1,4.8,5.2,4.8z"/>
																			
																				<ellipse id="Ellipse_295_2_" transform="matrix(-0.9999 1.700008e-02 -1.700008e-02 -0.9999 13.949 11.1735)" class="st16" cx="6.9" cy="5.6" rx="0.1" ry="0.1"/>
																		</g>
																	</g>
																</g>
															</g>
														</g>
													</g>
												</g>
											</g>
										</g>
									</g>
								</g>
								<path id="Path_3843_2_" class="st12" d="M8.9,3.3C7.3,3.1,6.2,2.2,5.3,1c0.2,1.2,1.1,2.2,2.2,2.5L8.9,3.3z"/>
								<path id="Path_3844_2_" class="st12" d="M10.5,3.5C9,3.3,7.7,2.4,6.9,1.2C7.1,2.4,8,3.4,9.1,3.7L10.5,3.5z"/>
								<path id="Path_3845_2_" class="st12" d="M12,4c-1.4-0.3-2.7-1.3-3.4-2.6c0.1,1.2,0.9,2.3,2,2.6H12z"/>
							</g>
						</g>
						<path id="Path_3846_2_" class="st17" d="M19.1,5.2c0.2,0.6,0.1,1.3-0.2,1.8c-0.2,0.4-0.2,1-1,0.5c-1.4-0.8-2.8-1.7-4.1-2.6
							C8.3,1.1,9.1,1.1,3.7,2.8C9.2-0.3,8,0,14.7,3C16.2,3.7,17.6,4.3,19.1,5.2z"/>
					</g>
					<g id="Group_401_2_" transform="translate(4.262 21.347)">
						<g id="Group_400_1_">
							<g id="Group_399_1_" transform="translate(1.12 6.075)">
								<path id="Path_3834_1_" class="st11" d="M35.6-20.3c-5.2,0-9.1,0-12.4,4.5C26.5-19.6,31-20,35.6-20.3z"/>
								<g id="Group_398_1_" transform="translate(0 0)">
									<path id="Path_3835_1_" class="st12" d="M23.2-13.9c1.4-2.5,3.9-4.3,6.8-5c2.6-0.5,5.3-0.5,7.7-1.4c-1.6,3-1.9,5.7-6,6.6
										c-2.5,0.8-5.1,0.2-7.2,0.2c1.4-0.1,3-0.2,4.6-0.2c1.6,0,2.9-0.5,3.9-1.5c0.9-0.8,1.5-1.9-0.1-2.2c-0.6-0.1-1.2-0.2-1.7-0.1
										C28.2-17.3,25-15.3,23.2-13.9z"/>
									<g id="Group_397_1_" transform="translate(3.544 3.222)">
										<path id="Path_3836_1_" class="st9" d="M19.6-17.1c0,0.2-0.2,0.5,0,0.5c0.5,0.1,0.9,0.1,1.2-0.1c2.2-0.5,4.8,0.2,7.3-1
											c1.1-0.3,3.3-2.5,1.1-2.9c-0.5-0.2-1.1-0.2-1.7-0.1C24.6-20.5,21.4-18.5,19.6-17.1z"/>
										<g>
											<g>
												<g>
													<g>
														<g>
															<g>
																<g>
																	<g id="Group_396_1_">
																		<g id="Group_395_1_" transform="translate(1.101 -1.675)">
																			<g id="Group_394_1_">
																				<path id="Path_3837_1_" class="st13" d="M25.2-15.3c-1.2,0-2-0.8-2-1.7c0-1,0.9-1.8,1.9-1.8s2,0.8,2,1.7l0,0
																					C27.4-16.1,26.4-15.3,25.2-15.3z"/>
																				<path id="Path_3838_1_" class="st12" d="M25.1-15.8c-0.8,0-1.4-0.5-1.4-1.2s0.6-1.1,1.3-1.1s1.4,0.5,1.4,1.2
																					S25.9-15.8,25.1-15.8z"/>
																				<path id="Path_3839_1_" class="st14" d="M25.1-18.7c1.1,0,1.8,0.6,1.9,1.5c0,0.9-0.8,1.6-1.8,1.6
																					c-1,0-1.8-0.6-1.9-1.5l0,0C23.3-17.9,24.1-18.6,25.1-18.7L25.1-18.7z M25.1-18.3c-0.8,0-1.4,0.6-1.4,1.3
																					s0.8,1.2,1.5,1.1c0.6,0,1.4-0.5,1.4-1.2l0,0C26.6-17.8,25.9-18.3,25.1-18.3z"/>
																				<path id="Path_3840_1_" class="st15" d="M24.6-15.6c-0.3,0-0.5-0.2-0.5-0.4c0-0.2,0.2-0.4,0.5-0.4
																					c0.2,0,0.4,0.2,0.4,0.4S24.8-15.6,24.6-15.6L24.6-15.6z"/>
																				<path id="Path_3841_1_" class="st9" d="M26.4-17c-0.2,0-0.3-0.1-0.3-0.3c0-0.1,0.1-0.3,0.3-0.3
																					c0.2,0,0.3,0.1,0.3,0.3l0,0C26.7-17.2,26.5-17.1,26.4-17z"/>
																				
																					<ellipse id="Ellipse_295_1_" transform="matrix(-0.9999 1.700008e-02 -1.700008e-02 -0.9999 48.7498 -32.8788)" class="st16" cx="24.5" cy="-16.2" rx="0.2" ry="0.1"/>
																			</g>
																		</g>
																	</g>
																</g>
															</g>
														</g>
													</g>
												</g>
											</g>
										</g>
									</g>
									<path id="Path_3843_1_" class="st12" d="M32.1-18.6c1.7-0.3,3-1.2,3.9-2.4c-0.2,1.2-1.1,2.2-2.4,2.6L32.1-18.6z"/>
									<path id="Path_3844_1_" class="st12" d="M30.3-18.4c1.7-0.3,3.1-1.2,3.9-2.4c-0.2,1.2-1.1,2.2-2.4,2.6L30.3-18.4z"/>
									<path id="Path_3845_1_" class="st12" d="M28.6-17.8c1.5-0.3,3-1.4,3.8-2.7c-0.1,1.2-0.9,2.3-2.2,2.7H28.6z"/>
								</g>
							</g>
							<path id="Path_3846_1_" class="st17" d="M22.8-16.4c-0.2,0.6-0.1,1.3,0.3,1.8c0.2,0.4,0.3,1,1.1,0.5c1.5-0.8,3.1-1.8,4.5-2.7
								c6-4.1,5.2-4.1,11.3-2.5c-6.3-2.9-5-2.7-12.3,0.6C26-18,24.5-17.4,22.8-16.4z"/>
						</g>
					</g>
				</g>
			</g>
		</g>
		<path id="Path_3849" class="st18" d="M24.8,6.4c4-7.7,12.6-7.7,18-6.4c8.5,2,16,7.9,16.9,12.1C56.4,8.3,49.6,2.5,37,2
			c10.5,1.5,27.3,7.7,25.7,20.6c-0.2-1.9-1-3.6-2.2-5.1c1.6,5.4,5.9,13.7,1.4,22.5c1.2-4.5,1.4-7.5,0.6-9.1c-0.1,6.2-1.2,7-2.9,9.5
			c-2.1,3.1-3,9.3-5.1,14.9c0.3-7.5,3.8-15.2-3.3-20.3c-4.9-3.5-11.9-2.9-18.6-4.9c1.6,1.2,3.3,2.3,5.3,2.8
			c-9.8-0.3-15.2-2.6-20.9-10.4c-0.5,3.1-0.3,6.2,0.5,9.2c-1.4-2-2.1-4.4-2-6.6c-2.2,11.4-1.8,14.2,3.5,29.1c1.3,3.6,3,7,5.3,10.2
			c-4-2.8-5.7-6.6-7.2-8.1c-4.2-3.9-9.3-11-9.3-17.1c-3.1-2.1-2.1-3.6-2-7.5c0.4-7.6,2.2-11.1,7-17.2C6.3,20.7,5.1,25,5.2,34.2
			C2.1,24.7,6.1,10.3,16.4,6.9C19,5.7,22,5.6,24.8,6.4z"/>
		<path id="Path_3850" class="st19" d="M43.6,31.5c8.8,2,14.7,4,11.6,20.9c4.5-17.3,1.9-18.6-14.5-28.6c12.2,6.6,17.7,7.8,16.6,20.4
			c2.8-12.1-0.3-16.7-6.4-22.5c4,3.1,10.2,9.2,7.7,19c6.8-12,1-16.9-7.7-22.3c-7.3-4.5-18.9-6.3-27.4-8.2
			C23.7,26.4,28.8,28.3,43.6,31.5z"/>
		<path id="Path_3851" class="st19" d="M21,40.6c-6.6-6.4-6.4-10.7-7.1-15.2c-2.1,11.9,2.6,19.7,10,27.9C2.3,44.1,5.4,13,25,6.7
			C13.5,18.3,14,31.1,21,40.6z"/>
		<path id="Path_3852" class="st20" d="M21,40.6c-6.6-6.4-5.8-15.7-6.6-20.3c-6.4,15.6,3.7,27.4,7,30.9C5.6,40.3,6.2,16.9,24.5,7.2
			C13.2,18.7,14,31.1,21,40.6z"/>
		<path id="Path_3853" class="st20" d="M21.8,11.2c-6,13,1.9,19.2,16.7,23.8C28.2,30.6,21.3,22.7,21.8,11.2z"/>
		<path id="Path_3854" class="st21" d="M22,10.1c-2.4,13.5,8.2,23.7,20.1,26.3C31.2,33.1,21.5,21.7,22,10.1z"/>
		<path id="Path_3855" class="st20" d="M56.1,39.7c-0.8-13.2-13-8.5-23.3-20.6c7.6,4.8,19.3,6.2,23.2,15.1
			c-2.9-15.5-23.2-16-33.2-24.2C22.7,37.5,52.9,23.4,56.1,39.7z"/>
		<path id="Path_3856" class="st22" d="M55.6,38.8C54.5,25.5,30.5,28.1,29,16.3c7.1,3,19.4,8.1,24.4,12.8C49.8,22,34.3,5.5,22.9,10
			C27.3,36,52.3,22.4,55.6,38.8z"/>
		<path id="Path_3857" class="st20" d="M21.5,9.7c4-3.7,7.1-5.4,11.2-6.2C46,0.8,60.4,10.7,61.9,18.2c-4.1-6.1-11.2-7.5-18.3-9.8
			c5.8,3.4,7,2.6,11.8,8c-1.9-1.4-1.4-1.3-3.8-2.1c6.2,5.5,8.7,7.5,9.3,17.1c-2-7.8-10.4-12.8-16.8-14.8c2,2.4,2.1,2.2,3.4,5.1
			C40.1,14.4,32.6,9.4,21.5,9.7z"/>
		<path id="Path_3858" class="st17" d="M4.2,30.1c1.2-9,3.1-13.6,11.4-18.8c-17,20.2-7.1,35.7,7.2,51.2c-4.2-6.3-7.6-11.8-11.4-18.3
			c1.4,1.9,3.3,4.7,4.7,6.6c-3-6.1-7.2-13.8-7.2-20.3c0-9.8,5.5-18.9,14.2-23.6C9.4,6.7,3.1,19.1,4.2,30.1z"/>
		<path id="Path_3859" class="st23" d="M23.4,8.9c4.2,26,30.7,11.4,32.9,32.4C52.8,20.2,24.4,36.6,23.4,8.9z"/>
		<path id="Path_3860" class="st24" d="M24.2,8.5c6.2,10.5,16.9,3.2,28.7,20.3C42.7,8.9,32.8,14.1,24.2,8.5z"/>
		<path id="Path_3861" class="st25" d="M24,8.7c2,11.6,18.9,8.5,26.8,17.3C43.7,16.1,28.4,18.9,24,8.7z"/>
		<path id="Path_3862" class="st21" d="M23.5,8.1c-12.1,10.1-15,22.8-6.7,38.8C6.6,31.6,9.8,16.9,23.5,8.1z"/>
		<path id="Path_3863" class="st21" d="M23.9,8.3c8.2-2.2,33.7-3.1,38.6,12.1C59.2,3.9,30.8,1.9,23.9,8.3z"/>
		<path id="Path_3864" class="st21" d="M25.9,9.1C32.7,10.4,53.2,14,60.3,29C50.3,8.6,31.2,7.8,25.9,9.1z"/>
		<path id="Path_3865" class="st20" d="M59.4,15.9c3.5,8.4,4.9,14.3,2.4,25.2C65.9,27.9,64.1,23.6,59.4,15.9z"/>
		<path id="Path_3866" class="st20" d="M52,10.9c6,6.9,9.2,12.1,10.3,23.2C62,20.3,58.9,16.8,52,10.9z"/>
		<path id="Path_3867" class="st20" d="M56.9,28c1.7,8.9,1.9,15-2.8,25.1C60.8,41,59.8,36.5,56.9,28z"/>
		<path id="Path_3868" class="st20" d="M7.7,27c-1.3,9.4-1,18.5,6.4,28.4C5,44.9,4.4,39.4,7.7,27z"/>
		<path id="Path_3869" class="st25" d="M43.2,16.3c8.8,5.4,13.7,15.5,14.3,25C58.6,30.8,52.3,19.2,43.2,16.3z"/>
		<path id="Path_3870" class="st1" d="M21.6,7.4c-10.4,4.8-16.5,14-17.1,23.3C3.5,20.3,11.1,10,21.6,7.4z"/>
		<path id="Path_3871" class="st1" d="M13.6,14.6C7.1,24,6.8,34.8,11.2,43.2C4.9,34.7,6,22.1,13.6,14.6z"/>
		<path id="Path_3872" class="st1" d="M27,4c10-5.4,20.2-3.2,28,2.4C47.4-1.1,32.9-2.8,27,4z"/>
		<path id="Path_3873" class="st1" d="M26.1,5.4c-7.8-1.9-14.3,1.5-18.7,6.5C11.2,5.6,20.7,2,26.1,5.4z"/>
		<path id="Path_3874" class="st1" d="M25.8,4.9C33.6,3,45.2,2.7,50.6,8.4C45,1.2,31,1.4,25.8,4.9z"/>
		<path id="Path_3875" class="st1" d="M43.6,11.2c7.2,3.3,16.5,10.1,17,17.9C60.9,20.1,50,11.7,43.6,11.2z"/>
		<path id="Path_3876" class="st1" d="M52,20.8c4.5,5.8,8.7,10.9,6.4,24.1C62.3,31.8,59.2,24.2,52,20.8z"/>
	</g>
	<g id="Spoon" transform="translate(1 -21.167)">
		<path id="Path_7246" class="st26" d="M108.6,159L108.6,159c-13.1,0.9-16,16-16.3,16.7c-0.6,3.2,1.4,15.4-9.8,35.7
			s-12.1,43-12.1,43c0,50.6,34.1,50.9,38.9,50.7V159C109,159,108.8,159,108.6,159z"/>
		<path id="Path_7247" class="st26" d="M135,211.4c-11.3-20.4-9.5-32.5-9.8-35.7c-0.1-0.6-3.2-15.6-16.3-16.6V159
			c-0.2,0-0.5,0-0.7,0v146c4.9,0.2,38.9-0.2,38.9-50.7C147.1,254.3,146.3,231.8,135,211.4z"/>
	</g>
</g>
</svg>
