<?xml version="1.0" encoding="utf-8"?>
<!-- Generator: Adobe Illustrator 23.1.0, SVG Export Plug-In . SVG Version: 6.00 Build 0)  -->
<svg version="1.1" id="Layer_1" xmlns="http://www.w3.org/2000/svg" xmlns:xlink="http://www.w3.org/1999/xlink" x="0px" y="0px"
	 viewBox="0 0 108 417.3" style="enable-background:new 0 0 108 417.3;" xml:space="preserve">
<style type="text/css">
	.st0{fill-rule:evenodd;clip-rule:evenodd;fill:#A1825F;}
	.st1{fill-rule:evenodd;clip-rule:evenodd;fill:#F1B287;}
	.st2{fill-rule:evenodd;clip-rule:evenodd;fill:#FEC19B;}
	.st3{fill-rule:evenodd;clip-rule:evenodd;fill:#E8A476;}
	.st4{fill-rule:evenodd;clip-rule:evenodd;fill:#F5BC95;}
	.st5{fill-rule:evenodd;clip-rule:evenodd;fill:#D6976D;}
	.st6{fill-rule:evenodd;clip-rule:evenodd;fill:#975B36;}
	.st7{fill-rule:evenodd;clip-rule:evenodd;fill:#753005;}
	.st8{fill-rule:evenodd;clip-rule:evenodd;fill:#FFFFFF;}
	.st9{fill-rule:evenodd;clip-rule:evenodd;fill:#E85A4E;}
	.st10{fill-rule:evenodd;clip-rule:evenodd;fill:#4F4742;}
	.st11{fill-rule:evenodd;clip-rule:evenodd;}
	.st12{fill-rule:evenodd;clip-rule:evenodd;fill:#3B545C;}
	.st13{fill-rule:evenodd;clip-rule:evenodd;fill:#4F6F7A;}
	.st14{fill-rule:evenodd;clip-rule:evenodd;fill:#6D98A6;}
	.st15{fill:#FFFFFF;}
	.st16{fill-rule:evenodd;clip-rule:evenodd;fill:#B89772;}
	.st17{fill-rule:evenodd;clip-rule:evenodd;fill:#C7A77D;}
	.st18{fill-rule:evenodd;clip-rule:evenodd;fill:#D6B788;}
	.st19{fill-rule:evenodd;clip-rule:evenodd;fill:#E5D4AF;}
	.st20{fill-rule:evenodd;clip-rule:evenodd;fill:#FFF7E8;}
	.st21{fill-rule:evenodd;clip-rule:evenodd;fill:#F0E2C5;}
	.st22{fill-rule:evenodd;clip-rule:evenodd;fill:#FAF7F1;}
	.st23{fill-rule:evenodd;clip-rule:evenodd;fill:#FCF1DB;}
	.st24{fill-rule:evenodd;clip-rule:evenodd;fill:#FFFAF2;}
	.st25{fill:#FEC19B;}
	.st26{fill:#27AE60;}
</style>
<g id="Rectangle_W" transform="translate(-48.89 -13.534)">
	<g id="head3" transform="matrix(1, 0.017, -0.017, 1, 75.47, 13.495)">
		<g id="Group_381" transform="translate(2.174 2.756)">
			<path id="Path_3781" class="st0" d="M19.5,66.4c-0.7-5.3-2.7-6.8-4.5-9.5c0.6,1.2,1.2,2.3,1.6,3.6c-1.7-1.9-3-4-3.9-6.3
				c0.1,0.5,0.2,1.2,0.4,2.2c-2.5-3.6-4.1-9.7-4.3-11C11,49.8,20.9,55.5,19.5,66.4z"/>
			<path id="Path_3782" class="st0" d="M24.5,9.1C24.9-3.1,11.8-0.8,4.2,4.2C10-0.3,17.5-1.9,22,0.4c2.8,1.5,4.4,4.5,3.7,9.4
				L24.5,9.1z"/>
			<path id="Path_3783" class="st0" d="M20.4,3.4C7.7,0.5,1.9,7.4-0.2,18.6c0.5-12.3,8-20,22.5-17.1L20.4,3.4z"/>
			<path id="Path_3784" class="st0" d="M5.6,39.4c0.3,7,11.5,18.2,15,24.8c0.9,1.5,17,5,17.5,1.3c0.7-5.3,2.7-6.8,4.5-9.5
				c-0.6,1.2-1.2,2.3-1.6,3.6c1.7-1.9,3-4,3.9-6.3c-0.1,0.4-0.2,1.1-0.4,2.1c2.5-3.6,4.1-9.7,4.3-11c0.5-3.2,2.9-6.4,0.7-10.8
				s-7.7-10.2-13.3-13.2s-13.9-3.1-18.6-2.7s-5.7,1-8,4.9S5.3,33.9,5.6,39.4z"/>
		</g>
		<g id="Group_403" transform="translate(0 8.571)">
			<g id="Group_382" transform="translate(0 53.627)">
				<path id="Path_3785" class="st1" d="M9.4,21.1"/>
				<path id="Path_3786" class="st1" d="M-0.1,22.3"/>
				<path id="Path_3787" class="st2" d="M49.2,21.2c-6.8-3.1-9.2-9.3-8.4-22.3L20.9-1.6c1.9,8.5,0.4,17.1-3.7,20.3
					c-0.9,0.5-4.4,2.3-7.6,4.1"/>
				<path id="Path_3788" class="st1" d="M46.3,21"/>
				<path id="Path_3789" class="st3" d="M20.5-1.7c1.9,8.4,0.8,16.4-3,20.1c8.7,3.1,19.4-6.5,22.9-14.2c0-2.2,0.2-2.3,0.4-5.4
					L20.5-1.7z"/>
				<path id="Path_3790" class="st3" d="M34.6,9.8"/>
				<path id="Path_3791" class="st4" d="M49.2,22.1"/>
			</g>
			<path id="Path_3794" class="st5" d="M21,54.1c1.7,2,5.1,6.1,6.6,6.6c1.9,0.7,5.8,1,7.6-0.1c2.4-1.5,4-3.8,5.5-5.7
				c0-1.6,0.1-1.3,0.2-3.2l-20.4-0.3C20.7,52.7,20.8,53.1,21,54.1z"/>
			<g id="Group_402" transform="translate(8.797)">
				<g id="Group_383" transform="translate(41.335 28.696)">
					<path id="Path_3795" class="st1" d="M-0.3,2.5C1-0.3,2.4-2.3,3.4-0.6C4.8,1.8,2.5,6,1.7,8.2c-1.1,3.2-0.9,5.1-2.4,4.9
						c-0.7,0-1.1-0.9-1.1-2c0.1-1.4,0.4-2.7,0.7-4L-0.3,2.5z"/>
					<path id="Path_3796" class="st6" d="M-0.7,7.5c0.1-0.4,0.2-0.8,0.2-1c0.8-2.9,1.4-2.8,1.3-2.1S0.4,5.8,0.2,6.3
						C0.1,6.6,0.4,7.5,0.1,8.2C-0.2,9-1.1,9.2-0.7,7.5z"/>
				</g>
				<g id="Group_384" transform="translate(0 28.696)">
					<path id="Path_3797" class="st3" d="M3.8,2.5C2.6-0.4,1.1-2.2,0.2-0.7C-1.3,1.7,1.1,6,1.8,8.2c1,3.2,0.8,5.1,2.4,4.9
						c0.7-0.1,1.1-0.9,1.1-2C5,9.7,4.7,8.4,4.5,7.1L3.8,2.5z"/>
					<path id="Path_3798" class="st6" d="M4.2,7.5C4.1,7.1,4,6.7,4,6.5C3.3,3.6,2.7,3.7,2.7,4.4c0.2,0.7,0.4,1.4,0.7,1.9
						c0.1,0.3-0.2,1.2,0.1,1.9C3.8,9,4.6,9.2,4.2,7.5z"/>
				</g>
				<path id="Path_3799" class="st1" d="M41.9,10c2.6,8.3,0.4,20.6-1.9,29.4c-1.3,4.9-1.9,6.6-3.1,8.4c-2.6,3.9-6.4,7.8-9.8,11.4
					c-1.3,1.4-2.4,1.5-4.2,1.5c-1.9,0.1-3.1,0-4.6-1.4c-3.6-3.5-7.5-7.3-10.2-11.2c-1.3-1.8-2-3.5-3.4-8.3c-2.4-8.8-5.1-21-2.6-29.4
					C6.5-4.1,37.3-4.5,41.9,10z"/>
				<g id="Group_385" transform="translate(15.334 48.523)">
					<path id="Path_3801" class="st3" d="M3.8,1.6C2.7,1.1,1.6,0.7,0.5,0.5c0.6,1.2,1.3,2.2,2,3.3C3.6,5.4,5.4,6.2,7.3,6
						c1.7,0,3.3-0.8,4.3-2c0.9-1.1,1.6-2.3,2.1-3.5c-1,0.2-1.9,0.6-2.7,1.2C8.8,3.1,6,3.2,3.8,1.6z"/>
					<path id="Path_3802" class="st7" d="M3.6,0.4C5,0.4,7.4-0.1,8.9,0c1.1,0.3,2,0.4,3.1,0.4c1.1-0.1,2.2-1.1,2.5-1
						c0.2,0.1,0.2,0.3,0.2,0.4c0,0.2-0.1,0.4-0.4,0.5c-0.4,0.1-0.8,0.1-1.3,0.3C12.1,1,9.6,2.6,8.9,3C8.2,3.5,4,3.1,3.8,2.8
						c-0.2-0.2-2.5-2-2.6-2c-0.5-0.2-1-0.3-1.5-0.3c-0.3-0.1-0.6-0.1-0.6-0.4c0-0.1,0-0.6,0.3-0.6S0.1,0,0.7,0.1
						C1.7,0.3,2.7,0.4,3.6,0.4z"/>
					<path id="Path_3803" class="st8" d="M3.7,0.9c1,1.5,5.5,2.1,7.2-0.3C7-0.1,7.8-0.3,3.7,0.9z"/>
					<path id="Path_3804" class="st9" d="M7.1-1c-0.6-0.5-1.3-0.7-2-0.7C3.4-1.6,0.9,0.1,0.4,0c0.7,0.7,1.8,1.1,2.9,1.1
						c1.4,0.2,2.5-0.5,3.8-0.6c1.2,0.3,2.4,0.6,3.7,0.6c1.1,0,2.1-0.4,2.9-1.1c-0.6,0.1-3-1.6-4.8-1.7C8.3-1.7,7.6-1.5,7.1-1z"/>
					<path id="Path_3806" class="st9" d="M3.9,1.2C2.9,0.8,2,0.6,1,0.6c0.5,1,1.1,1.9,1.8,2.7c1.1,1.5,2.7,2.2,4.6,2.1
						c1.7,0,3.2-0.7,4.2-2c0.8-0.9,1.4-1.9,1.9-2.9c-0.9,0.1-1.7,0.3-2.4,0.6C8.7,2.6,6,2.7,3.9,1.2z"/>
				</g>
				<g id="Group_386" transform="translate(19.45 43.835)">
					<path id="Path_3814" class="st3" d="M4.1-0.9c0.5-0.3,1-0.5,1.5-0.7c0.4-0.2,1,0.1,1.1,0.5C6.8-1,6.8-0.9,6.8-0.8
						c0.1,0.9-1,1.1-1.7,1.2c-0.5,0-0.9,0.1-1.3,0.2c-0.6,0.2-1.3,0.2-1.9,0C1.5,0.5,1.1,0.4,0.6,0.4C0,0.3-1.1,0.1-1-0.8
						c0-0.5,0.5-0.8,1-0.8c0,0,0.1,0,0.2,0c0.5,0.2,1,0.4,1.5,0.7C2.5-0.4,3.5-0.4,4.1-0.9z"/>
					<path id="Path_3815" class="st6" d="M3.9,0.1c0.3-0.3,0.7-0.7,1.1-1C5.4-1.1,5.8-1.2,6-1s0.2,0.4,0.1,0.6
						c0,0.1-0.2,0.2-0.3,0.2C5.1-0.1,4.5,0,3.9,0.1z"/>
					<path id="Path_3816" class="st6" d="M2.1,0.2C1.7-0.1,1.3-0.4,0.9-0.7C0.5-0.9,0.2-1,0-0.8c-0.3,0.1-0.3,0.4-0.1,0.6
						C0-0.1,0.1-0.1,0.2-0.1C0.8,0,1.4,0.1,2.1,0.2z"/>
				</g>
				<path id="Path_3817" class="st4" d="M22.3,33.7c-0.1,2-0.3,4-0.5,5.8c-0.1,0.7-0.3,1.4-0.6,2c0,0.3,0.4,0.7,1.4,0.8
					c0.9-0.3,1.3-0.5,1.4-0.8c0-0.3-0.5-0.5-0.6-1.9c-0.1-1.7,0-3.7-0.1-5.9C23.2,30,22.5,30.1,22.3,33.7z"/>
				<g id="Group_401_1_" transform="translate(4.262 21.347)">
					<g id="Group_400_2_">
						<g id="Group_399_2_" transform="translate(1.12 6.075)">
							<path id="Path_3834_2_" class="st10" d="M1.6-0.1C5.9-0.3,9.1-0.4,12,3.8C9.2,0.3,5.4,0,1.6-0.1z"/>
							<g id="Group_398_2_" transform="translate(0 0)">
								<path id="Path_3835_2_" class="st11" d="M12,5.6c-1.2-2.3-3.3-3.9-5.8-4.4C4,0.7,1.8,0.8-0.2,0C1.2,2.9,1.6,5.3,5,6
									c2.1,0.6,4.2,0,6,0C9.8,5.9,8.5,5.9,7.2,5.9S4.8,5.5,3.9,4.6c-0.7-0.7-1.3-1.8,0-2c0.5-0.1,1-0.2,1.4-0.2
									C7.8,2.5,10.6,4.3,12,5.6z"/>
								<g id="Group_397_2_" transform="translate(3.544 3.222)">
									<path id="Path_3836_2_" class="st8" d="M8.5,2.4c0,0.2,0.2,0.5,0,0.5C8.1,3,7.8,3,7.5,2.8c-1.8-0.4-4,0.3-6.1-0.7
										c-0.9-0.3-2.8-2.2-1-2.7c0.4-0.2,0.9-0.2,1.4-0.2C4.3-0.7,7.1,1.1,8.5,2.4z"/>
									<g>
										<g>
											<g>
												<g>
													<g>
														<g>
															<g>
																<g id="Group_396_2_">
																	<g id="Group_395_2_" transform="translate(1.101 -1.675)">
																		<g id="Group_394_2_">
																			<path id="Path_3837_2_" class="st12" d="M1.9,4.4c1,0,1.7-0.7,1.7-1.6S2.8,1.1,1.9,1.1S0.2,1.8,0.2,2.7l0,0
																				C0.1,3.6,0.9,4.4,1.9,4.4z"/>
																			<path id="Path_3838_2_" class="st11" d="M1.9,3.8C2.5,3.8,3,3.3,3,2.7s-0.5-1-1.1-1S0.8,2.2,0.8,2.8
																				S1.3,3.8,1.9,3.8z"/>
																			<path id="Path_3839_2_" class="st13" d="M1.9,1.2C1,1.2,0.3,1.9,0.3,2.7S1,4.2,1.8,4.2s1.6-0.7,1.6-1.5l0,0
																				C3.4,1.9,2.7,1.2,1.9,1.2L1.9,1.2z M1.9,1.6c0.6,0,1.2,0.5,1.2,1.1S2.5,3.8,1.9,3.8S0.7,3.4,0.7,2.7l0,0
																				C0.7,2.1,1.2,1.6,1.9,1.6z"/>
																			<path id="Path_3840_2_" class="st14" d="M2.4,4c0.3,0,0.4-0.2,0.4-0.4S2.6,3.2,2.4,3.2S2.1,3.4,2.1,3.6
																				C2.1,3.8,2.2,4,2.4,4L2.4,4z"/>
																			<path id="Path_3841_2_" class="st8" d="M0.9,2.7c0.1,0,0.3-0.1,0.3-0.2c0-0.1-0.1-0.3-0.3-0.3
																				c-0.1,0-0.3,0.1-0.3,0.3l0,0C0.6,2.6,0.8,2.7,0.9,2.7z"/>
																			
																				<ellipse id="Ellipse_295_2_" transform="matrix(-0.9999 1.700008e-02 -1.700008e-02 -0.9999 5.0848 6.7616)" class="st15" cx="2.5" cy="3.4" rx="0.1" ry="0.1"/>
																		</g>
																	</g>
																</g>
															</g>
														</g>
													</g>
												</g>
											</g>
										</g>
									</g>
								</g>
								<path id="Path_3843_2_" class="st11" d="M4.6,1.3c-1.4-0.2-2.5-1-3.3-2.1c0.2,1.1,1,2,2,2.3L4.6,1.3z"/>
								<path id="Path_3844_2_" class="st11" d="M6.1,1.6c-1.4-0.2-2.6-1-3.3-2.1c0.2,1.1,1,2,2,2.3L6.1,1.6z"/>
								<path id="Path_3845_2_" class="st11" d="M7.5,2.1C6.2,1.8,5,0.8,4.3-0.4C4.4,0.7,5.1,1.7,6.2,2C6.2,2.1,7.5,2.1,7.5,2.1z"/>
							</g>
						</g>
						<path id="Path_3846_2_" class="st16" d="M14.2,3.5c0.2,0.6,0.1,1.2-0.2,1.7c-0.2,0.4-0.2,0.9-0.9,0.5C11.8,5,10.5,4.1,9.3,3.3
							c-5.1-3.6-4.4-3.6-9.4-2c5.1-2.9,4-2.6,10.2,0.2C11.5,2.1,12.8,2.7,14.2,3.5z"/>
					</g>
					<g id="Group_401_2_" transform="translate(4.262 21.347)">
						<g id="Group_400_1_">
							<g id="Group_399_1_" transform="translate(1.12 6.075)">
								<path id="Path_3834_1_" class="st10" d="M29-22.1c-4.8,0-8.4,0-11.5,4.2C20.6-21.5,24.7-21.9,29-22.1z"/>
								<g id="Group_398_1_" transform="translate(0 0)">
									<path id="Path_3835_1_" class="st11" d="M17.6-16.1c1.3-2.3,3.6-4,6.3-4.6c2.4-0.5,4.9-0.5,7.1-1.3
										c-1.5,2.8-1.8,5.3-5.6,6.1c-2.3,0.7-4.7,0.2-6.7,0.2c1.3-0.1,2.8-0.2,4.3-0.2s2.7-0.5,3.6-1.4c0.8-0.7,1.4-1.8-0.1-2
										c-0.6-0.1-1.1-0.2-1.6-0.1C22.1-19.3,19.2-17.4,17.6-16.1z"/>
									<g id="Group_397_1_" transform="translate(3.544 3.222)">
										<path id="Path_3836_1_" class="st8" d="M14-19.3c0,0.2-0.2,0.5,0,0.5c0.5,0.1,0.8,0.1,1.1-0.1c2-0.5,4.5,0.2,6.8-0.9
											c1-0.3,3.1-2.3,1-2.7c-0.5-0.2-1-0.2-1.6-0.1C18.5-22.5,15.6-20.6,14-19.3z"/>
										<g>
											<g>
												<g>
													<g>
														<g>
															<g>
																<g>
																	<g id="Group_396_1_">
																		<g id="Group_395_1_" transform="translate(1.101 -1.675)">
																			<g id="Group_394_1_">
																				<path id="Path_3837_1_" class="st12" d="M19-17.5c-1.1,0-1.9-0.7-1.9-1.6s0.8-1.7,1.8-1.7s1.9,0.7,1.9,1.6l0,0
																					C21-18.3,20.1-17.5,19-17.5z"/>
																				<path id="Path_3838_1_" class="st11" d="M18.9-18c-0.7,0-1.3-0.5-1.3-1.1s0.6-1,1.2-1s1.3,0.5,1.3,1.1
																					S19.6-18,18.9-18z"/>
																				<path id="Path_3839_1_" class="st13" d="M18.9-20.7c1,0,1.7,0.6,1.8,1.4c0,0.8-0.7,1.5-1.7,1.5
																					c-0.9,0-1.7-0.6-1.8-1.4l0,0C17.2-19.9,18-20.6,18.9-20.7L18.9-20.7z M18.9-20.3c-0.7,0-1.3,0.6-1.3,1.2
																					s0.7,1.1,1.4,1c0.6,0,1.3-0.5,1.3-1.1l0,0C20.3-19.8,19.6-20.3,18.9-20.3z"/>
																				<path id="Path_3840_1_" class="st14" d="M18.4-17.8c-0.3,0-0.5-0.2-0.5-0.4c0-0.2,0.2-0.4,0.5-0.4
																					c0.2,0,0.4,0.2,0.4,0.4S18.6-17.8,18.4-17.8L18.4-17.8z"/>
																				<path id="Path_3841_1_" class="st8" d="M20.1-19.1c-0.2,0-0.3-0.1-0.3-0.3c0-0.1,0.1-0.3,0.3-0.3
																					c0.2,0,0.3,0.1,0.3,0.3l0,0C20.4-19.3,20.2-19.2,20.1-19.1z"/>
																				
																					<ellipse id="Ellipse_295_1_" transform="matrix(-0.9999 1.700008e-02 -1.700008e-02 -0.9999 36.3018 -37.0061)" class="st15" cx="18.3" cy="-18.3" rx="0.2" ry="0.1"/>
																			</g>
																		</g>
																	</g>
																</g>
															</g>
														</g>
													</g>
												</g>
											</g>
										</g>
									</g>
									<path id="Path_3843_1_" class="st11" d="M25.7-20.5c1.6-0.3,2.8-1.1,3.6-2.2c-0.2,1.1-1,2-2.2,2.4L25.7-20.5z"/>
									<path id="Path_3844_1_" class="st11" d="M24-20.3c1.6-0.3,2.9-1.1,3.6-2.2c-0.2,1.1-1,2-2.2,2.4L24-20.3z"/>
									<path id="Path_3845_1_" class="st11" d="M22.5-19.7c1.4-0.3,2.8-1.3,3.5-2.5c-0.1,1.1-0.8,2.1-2,2.5H22.5z"/>
								</g>
							</g>
							<path id="Path_3846_1_" class="st16" d="M17.3-18.1c-0.2,0.6-0.1,1.2,0.3,1.7c0.2,0.4,0.3,0.9,1,0.5c1.4-0.7,2.9-1.7,4.2-2.5
								c5.6-3.8,4.8-3.8,10.5-2.3c-5.8-2.7-4.6-2.5-11.4,0.6C20.2-19.6,18.8-19,17.3-18.1z"/>
						</g>
					</g>
				</g>
			</g>
		</g>
		<path id="Path_3849" class="st17" d="M20.8,6.1c3.7-7.2,11.6-7.2,16.3-6c7.7,1.8,14.5,7.4,15.3,11.5c-2.8-3.7-9-9.2-20.4-9.7
			c9.6,1.5,24.8,7.2,23.4,19.5c-0.2-1.8-0.9-3.4-2-4.8c1.5,5.1,5.5,13,1.3,21.2c1.1-4.2,1.3-7,0.6-8.6c-0.1,5.8-1.1,6.6-2.6,9
			c-1.9,2.9-2.7,8.8-4.7,14c0.3-7,3.5-14.4-3-19.2c-4.5-3.3-10.9-2.7-16.9-4.6c1.5,1.2,3,2.1,4.9,2.6c-9-0.3-13.8-2.4-19-9.7
			c-0.5,2.9-0.3,5.8,0.5,8.7c-1.3-1.9-1.9-4.1-1.9-6.2c-2,10.7-1.7,13.4,3.2,27.6c1.2,3.4,2.7,6.6,4.9,9.5c-3.8-2.6-5.4-6.2-6.6-7.6
			C10,49.7,5.4,43.1,5.4,37.2c-2.8-1.9-1.9-3.4-1.9-7c0.4-7.1,2-10.4,6.4-16.3C4,19.7,2.9,23.7,3,32.4C0.2,23.5,3.8,9.7,13.1,6.5
			C15.5,5.4,18.2,5.3,20.8,6.1z"/>
		<path id="Path_3850" class="st18" d="M38,29.9c8.1,1.9,13.3,3.8,10.6,19.8c4.1-16.4,1.8-17.6-13.3-27.1c11.2,6.2,16.1,7.3,15,19.3
			c2.5-11.4-0.3-15.8-5.8-21.2c3.7,2.9,9.4,8.7,7.1,17.9c6.2-11.3,0.9-16-7.1-21c-6.7-4.2-17.1-5.9-24.9-7.7
			C19.8,25.1,24.5,26.9,38,29.9z"/>
		<path id="Path_3851" class="st18" d="M17.3,38.6c-6-6-5.8-10-6.5-14.4C9,35.4,13.3,42.8,20,50.6C0.4,41.9,3.2,12.4,21,6.4
			C10.6,17.4,11.1,29.5,17.3,38.6z"/>
		<path id="Path_3852" class="st19" d="M17.3,38.6c-6-6-5.4-14.9-6-19.2C5.5,34,14.6,45.3,17.6,48.6C3.4,38.3,3.9,16.1,20.5,6.8
			C10.3,17.8,11.1,29.5,17.3,38.6z"/>
		<path id="Path_3853" class="st19" d="M18,10.6C12.6,23,19.8,28.8,33.3,33.2C23.9,29,17.5,21.6,18,10.6z"/>
		<path id="Path_3854" class="st20" d="M18.2,9.5c-2.2,12.8,7.5,22.4,18.2,25C26.7,31.4,17.7,20.6,18.2,9.5z"/>
		<path id="Path_3855" class="st19" d="M49.3,37.7c-0.8-12.5-11.8-8-21.1-19.5c7,4.5,17.5,5.8,21,14.3c-2.6-14.7-21-15.2-30.3-23
			C18.9,35.5,46.4,22.3,49.3,37.7z"/>
		<path id="Path_3856" class="st21" d="M48.8,36.8c-1-12.6-22.8-10-24.2-21.2c6.5,2.8,17.6,7.6,22.2,12.2C43.6,20.9,29.5,5.3,19,9.5
			C23.1,34.1,45.8,21.3,48.8,36.8z"/>
		<path id="Path_3857" class="st19" d="M17.7,9.1c3.7-3.5,6.5-5.1,10.2-5.8c12.2-2.5,25.3,6.8,26.7,14c-3.8-5.7-10.2-7-16.6-9.3
			c5.4,3.2,6.4,2.4,10.8,7.5c-1.8-1.4-1.3-1.3-3.5-1.9c5.7,5.2,8,7,8.6,16.2c-1.9-7.3-9.5-12.2-15.2-14c1.9,2.2,1.9,2,3.1,4.8
			C34.8,13.6,28,8.9,17.7,9.1z"/>
		<path id="Path_3858" class="st16" d="M2.1,28.5c1.1-8.5,2.8-13,10.4-17.8C-3,29.8,6,44.6,19,59.1C15.1,53.2,12,48,8.6,41.8
			c1.3,1.8,3,4.4,4.3,6.2c-2.6-5.6-6.5-13-6.5-19.1c0-9.3,5.1-17.8,13-22.3C6.8,6.3,1.1,18.2,2.1,28.5z"/>
		<path id="Path_3859" class="st22" d="M19.5,8.5c3.9,24.7,28,10.9,30,30.7C46.3,19.3,20.5,34.7,19.5,8.5z"/>
		<path id="Path_3860" class="st23" d="M20.3,8.1c5.7,9.8,15.3,3,26.1,19.2C37.2,8.5,28.2,13.3,20.3,8.1z"/>
		<path id="Path_3861" class="st24" d="M20.1,8.3c1.9,10.9,17.1,8,24.4,16.4C38.1,15.3,24.1,18,20.1,8.3z"/>
		<path id="Path_3862" class="st20" d="M19.6,7.7C8.7,17.3,6,29.3,13.5,44.4C4.3,30,7.2,16.1,19.6,7.7z"/>
		<path id="Path_3863" class="st20" d="M20,7.9c7.5-2,30.7-2.9,35.2,11.5C52.1,3.8,26.3,1.8,20,7.9z"/>
		<path id="Path_3864" class="st20" d="M21.8,8.7c6.2,1.2,24.8,4.6,31.3,18.8C43.9,8.2,26.6,7.4,21.8,8.7z"/>
		<path id="Path_3865" class="st19" d="M52.3,15.2c3.2,7.9,4.5,13.5,2.2,23.8C58.3,26.5,56.6,22.5,52.3,15.2z"/>
		<path id="Path_3866" class="st19" d="M45.5,10.3c5.6,6.5,8.5,11.5,9.5,21.9C54.7,19.4,51.8,16.1,45.5,10.3z"/>
		<path id="Path_3867" class="st19" d="M50,26.6c1.6,8.4,1.8,14.2-2.5,23.7C53.6,39,52.7,34.6,50,26.6z"/>
		<path id="Path_3868" class="st19" d="M5.3,25.6c-1.2,8.9-0.9,17.5,5.8,26.9C2.8,42.6,2.2,37.3,5.3,25.6z"/>
		<path id="Path_3869" class="st24" d="M37.6,15.5c8.1,5.1,12.6,14.7,13.2,23.7C51.5,29.2,45.8,18.3,37.6,15.5z"/>
		<path id="Path_3870" class="st0" d="M17.8,7C8.5,11.5,2.9,20.3,2.3,29.1C1.5,19.4,8.4,9.4,17.8,7z"/>
		<path id="Path_3871" class="st0" d="M10.7,13.8C4.8,22.7,4.5,32.9,8.5,41C2.7,32.9,3.7,21,10.7,13.8z"/>
		<path id="Path_3872" class="st0" d="M22.8,3.8C32-1.3,41.1,0.8,48.3,6C41.4-1,28.2-2.6,22.8,3.8z"/>
		<path id="Path_3873" class="st0" d="M21.9,5.1C14.8,3.4,9,6.5,5,11.3C8.5,5.3,17.1,1.9,21.9,5.1z"/>
		<path id="Path_3874" class="st0" d="M21.7,4.7c7.1-1.8,17.5-2,22.5,3.3C39.2,1.1,26.5,1.3,21.7,4.7z"/>
		<path id="Path_3875" class="st0" d="M38,10.6c6.6,3.1,14.9,9.5,15.4,17C53.7,19.2,43.6,11.1,38,10.6z"/>
		<path id="Path_3876" class="st0" d="M45.5,19.9c4.1,5.5,8,10.2,5.8,22.8C54.9,30.2,52.1,23.1,45.5,19.9z"/>
	</g>
	<path id="Rectangle_Body" class="st25" d="M127.2,97.6c3.6,0.8,7,1.7,10.4,2.2c3.9,0.6,7.2,3.1,8.7,6.7c3,6.9,4.7,14.5,4.9,22.1
		c0.5,12.8,1,25.4,1.6,38.2c0.1,2.7,1,5.4,1.3,8.1c1,7.5,2.6,15,2.8,22.5c0.3,12.3-0.2,24.5-0.7,36.7c-0.3,7.9-4,14.5-9.5,20.1
		c-1.1,1.1-2.5,1.7-4.1,1.8c1.9-5.7,3.9-11.5,5.9-17.6c-2.8,0.3-2.8,0.3-6.6,7.2c-0.2-0.6-0.4-1-0.4-1.3c1.7-5.6,3.3-11,5-16.7
		c0.6-2,1.7-4.2,1.4-6.1c-1.6-9.6-3.6-19.3-5.2-29c-1.5-9.1-2.5-18.2-3.9-27.4c-1.5-9.8-3-19.9-4.6-29.8H133
		c-0.7,3.2-1.4,6.4-1.9,9.6c-0.6,3.4-0.8,6.9-1.5,10.2c-3.3,15.5,0.2,30.3,3.8,45.3c2,8.7,2.1,18.1,2.1,27.2c0,17.9-4,35.4-7.4,52.8
		c-2.5,12.2-3,24.6-1.6,36.9c1.9,14.5-0.1,28.8-2,43.2c-2,14.8-3.8,29.7-4.9,44.6c-0.5,6.2,1,12.7,1.8,18.9c0.4,2.8-0.5,4.7-3.2,5.4
		c-2.9,0.7-5.8,1.2-8.8,1.3c-2.2,0.1-4.2-1.6-4.4-3.8c0-0.6,0.1-1.3,0.3-1.8c6.7-20.1,4.2-40.4,1.7-60.7c-2.1-16.9-2.9-33.8,0-50.7
		c0.6-3.2,0.2-6.6,0.2-10c-0.2-8.8-0.4-17.6-0.8-26.5c-0.7-14.7-1.6-29.4-2.4-44c0-0.8-1-1.6-1.6-2.3c-0.5,1-1.4,2-1.4,3
		c-0.6,16.1-1.1,32.2-1.8,48.2c-0.3,7-1.2,14.1-1.2,21.2c0,6.7,0.5,13.4,1.4,20.1c1.8,12.8,0.3,25.4-1,38.1
		c-1.2,11.2-2.8,22.6-2.7,33.9c0.1,9.5,2.2,19.2,3.8,28.7c0.8,4.7-0.6,6.9-5.4,6.6c-0.6,0-1.3-0.2-1.9-0.3c-9.2-1.2-9.6-1.5-8-10.3
		c2.4-12.9,1.2-25.6-0.5-38.4c-2.1-15.9-4.6-31.9-5.7-47.8c-0.7-10.4,1.7-21.1,0.9-31.7c-1.1-13.8-3.7-27.7-5.9-41.4
		c-2.5-15.8-4.9-31.6-3.1-47.6c0.8-7.6,2.1-15.2,4.2-22.6c3.7-13.7,2.9-27.4,0.7-41.2c-0.9-5.3-1.8-10.4-2.7-15.7l-0.8-0.1
		c-1.1,6.9-2.2,13.9-3.3,20.9c-3.1,19.1-6.3,38.4-9.5,57.5c-0.6,3.7-1.1,7.4-1.4,11.1c-0.1,1.4,0.3,2.6,1.1,3.7
		c3.7,5.4,4.7,11.6,4.9,18.2l-4.2-8.3c-2.6,7.3,2.2,12.8,4.7,20.1c-2-1-3.4-1.3-4.2-2c-5.7-5.7-9.8-12.5-10-21
		c-0.4-12-1.1-23.9-0.7-36c0.3-8.1,2.3-16.2,3.2-24.4c0.9-7.9,1.6-15.9,2-23.8c0.4-6.3,0.3-12.8,0.4-19.1c0-8,1.5-15.9,4.5-23.3
		c1.6-4.3,5.4-7.3,9.9-7.9c3.1-0.5,6.1-1.3,9-1.9"/>
	<path id="Path_7248" class="st26" d="M77.1,236.6V123.4h50.3v113L77.1,236.6L77.1,236.6z"/>
</g>
</svg>
