<?xml version="1.0" encoding="utf-8"?>
<!-- Generator: Adobe Illustrator 23.1.0, SVG Export Plug-In . SVG Version: 6.00 Build 0)  -->
<svg version="1.1" id="Layer_1" xmlns="http://www.w3.org/2000/svg" xmlns:xlink="http://www.w3.org/1999/xlink" x="0px" y="0px"
	 viewBox="0 0 126.4 438.2" style="enable-background:new 0 0 126.4 438.2;" xml:space="preserve">
<style type="text/css">
	.st0{fill:#FEC19B;}
	.st1{fill:#A1BDD2;}
	.st2{fill-rule:evenodd;clip-rule:evenodd;fill:#A1825F;}
	.st3{fill-rule:evenodd;clip-rule:evenodd;fill:#F1B287;}
	.st4{fill-rule:evenodd;clip-rule:evenodd;fill:#FEC19B;}
	.st5{fill-rule:evenodd;clip-rule:evenodd;fill:#E8A476;}
	.st6{fill-rule:evenodd;clip-rule:evenodd;fill:#F5BC95;}
	.st7{fill-rule:evenodd;clip-rule:evenodd;fill:#D6976D;}
	.st8{fill-rule:evenodd;clip-rule:evenodd;fill:#975B36;}
	.st9{fill-rule:evenodd;clip-rule:evenodd;fill:#753005;}
	.st10{fill-rule:evenodd;clip-rule:evenodd;fill:#FFFFFF;}
	.st11{fill-rule:evenodd;clip-rule:evenodd;fill:#E85A4E;}
	.st12{fill-rule:evenodd;clip-rule:evenodd;fill:#4F4742;}
	.st13{fill-rule:evenodd;clip-rule:evenodd;}
	.st14{fill-rule:evenodd;clip-rule:evenodd;fill:#3B545C;}
	.st15{fill-rule:evenodd;clip-rule:evenodd;fill:#4F6F7A;}
	.st16{fill-rule:evenodd;clip-rule:evenodd;fill:#6D98A6;}
	.st17{fill:#FFFFFF;}
	.st18{fill-rule:evenodd;clip-rule:evenodd;fill:#B89772;}
	.st19{opacity:0.2;fill-rule:evenodd;clip-rule:evenodd;fill:#4D423B;enable-background:new    ;}
	.st20{fill-rule:evenodd;clip-rule:evenodd;fill:#C7A77D;}
	.st21{fill-rule:evenodd;clip-rule:evenodd;fill:#D6B788;}
	.st22{fill-rule:evenodd;clip-rule:evenodd;fill:#E5D4AF;}
	.st23{fill-rule:evenodd;clip-rule:evenodd;fill:#FFF7E8;}
	.st24{fill-rule:evenodd;clip-rule:evenodd;fill:#F0E2C5;}
	.st25{fill-rule:evenodd;clip-rule:evenodd;fill:#FAF7F1;}
	.st26{fill-rule:evenodd;clip-rule:evenodd;fill:#FCF1DB;}
	.st27{fill-rule:evenodd;clip-rule:evenodd;fill:#FFFAF2;}
</style>
<g id="Top_Hour_Glass_W" transform="translate(-51.212 -15.534)">
	<path id="Inverted_Triangle_Body" class="st0" d="M145.5,104.7c6.6,0.9,13.9,1,18.5,6.3c2.6,3.3,4.2,7.1,4.7,11.3
		c0.9,10.1,0.9,20.3,1.1,30.5c0.2,8.7-0.2,17.2,0.1,25.9c0.1,4,1.8,7.9,2.3,11.9c0.8,9.5,1.7,19,1.9,28.5c0.2,9.2-0.2,18.3-0.7,27.5
		c-0.3,8.5-4,16.4-10.5,22.1c-1,0.8-2.3,1.6-3.4,2.3l-1-0.6l6.6-17.8l-1.7-1.1c-1,1-2.2,2-3,3.2c-0.8,1.4-1.5,2.9-2.2,4.4l-1.7-0.6
		c2.1-5.8,4.1-11.5,6.1-17.3c0.8-2.1,2.2-4.5,1.8-6.4c-1.6-10-4-20-5.6-30c-1.9-12.3-3.4-24.8-5-37.2c-0.9-7.3-1.9-14.7-3.2-22
		c-5.1,14.6-8.6,29.8-10.2,45.2c-0.3,3.7,1,7.9,2.8,11.2c8.7,16.6,8.4,34.2,6.1,51.8c-1.9,15.4-4.7,30.7-7.3,46
		c-2.3,13.4-2.2,26.7-0.8,40.2c1.3,13-0.5,25.8-2.4,38.6c-2.1,13.6-4.6,27-5.6,40.7c-0.7,8.6,0.9,17.5,1.9,26.1c0.5,4.4,0,6-4.2,7
		c-2.9,0.7-5.8,0.9-8.9,0.8c-3.7-0.1-5.4-2.6-4.2-5.9c5.6-17.7,5.1-35.4,3-53.5c-1.7-14.2-2.5-28.6-3.3-42.9
		c-0.2-5.3,1.3-10.6,1.6-15.9c0.3-5.7,0.5-11.4,0.3-17.1c-0.2-13.3-0.6-26.6-1-39.9c-0.5-10.4-1.3-20.8-2.2-31.2
		c-0.1-1-1-1.9-1.6-2.9l-1.9,0.5c-0.6,20.9-0.9,41.7-1.5,62.7c0,2.2-0.1,4.4-0.5,6.6c-2.3,10.7,0.5,21.3,0.8,31.9
		c0.5,11.4-0.5,23-1.1,34.4c-0.8,12.2-3.2,24.4-3.2,36.6c0,9.8,2.3,19.6,4.2,29.3c1.1,5.8-0.2,8.2-6.6,7.6c-2.1-0.1-4-0.3-6.1-0.7
		c-3-0.8-5.5-2.3-4.6-5.8c4.7-20.3,0.8-40.2-2.4-60.3c-1.9-12.9-3.2-25.9-4-38.9c-0.5-5.7,0.6-11.4,1.1-17.1
		c1.8-15.4-1.5-30.4-4.2-45.4c-3.9-20.7-7.2-41.5-5-62.7c0.7-6.6,3.5-13.3,6.3-19.5c3.5-7.9,3.8-15.6,1.7-23.7
		c-2.5-10.4-5-20.8-7.4-31.2c-0.3-0.8-0.7-1.6-1-2.4l-0.8,0.1c-1.7,14.1-3.1,28.3-5.3,42.4c-1.6,10.9-4,21.8-6.1,32.8
		c-0.8,4.9-1.7,9.8-2.3,14.7c-0.1,1.6,0.3,3.3,1.3,4.7c4.1,5.6,4.8,12,5.1,18.8l-4.4-7.4l-1.1,0.6c-1.5,6.9,3.9,12.2,6,19.6
		c-2.3-1.1-3.7-1.5-4.6-2.4c-6.1-5.9-10.5-12.6-10.9-21.2c-0.3-12.2-0.8-24.6-0.8-36.8c0-6.7,0.2-13.8,1.9-20.2
		c3.8-14,2.4-28,1.9-42c-0.3-11.2,0-22.5,3.2-33.4c1.4-4.5,4.6-6.9,9-8.1c5.1-1.3,10.4-2.4,16-3.8"/>
	<path id="Triangle" class="st1" d="M114.9,234.6c-12.6-33-24.4-63.7-36.4-95.2h72.6C139.1,170.6,127.4,201.4,114.9,234.6z"/>
	<g id="head3" transform="matrix(1, 0.017, -0.017, 1, 75.47, 15.495)">
		<g id="Group_381" transform="translate(2.174 2.756)">
			<path id="Path_3781" class="st2" d="M29.2,71.1c-0.9-5.6-3.1-7.3-5-10.1c0.7,1.2,1.3,2.5,1.8,3.9c-1.9-1.9-3.4-4.3-4.3-6.8
				c0.1,0.5,0.2,1.3,0.4,2.4c-2.7-3.9-4.7-10.5-4.9-11.8C19.3,53.5,30.7,59.6,29.2,71.1z"/>
			<path id="Path_3782" class="st2" d="M34.8,9.9C35.2-3.3,20.5-0.7,11.7,4.7C18.3-0.1,26.9-2,32,0.6c3.2,1.6,5,4.9,4.2,10.1
				L34.8,9.9z"/>
			<path id="Path_3783" class="st2" d="M30.2,3.8C15.6,0.6,9.1,8.1,6.7,20C7.3,6.9,15.8-1.4,32.3,1.7L30.2,3.8z"/>
			<path id="Path_3784" class="st2" d="M13.2,42.3c0.3,7.6,13,19.6,17.1,26.5c0.9,1.6,19.4,5.4,20.1,1.3c0.8-5.6,3.1-7.4,5.1-10.1
				c-0.7,1.2-1.3,2.6-1.8,3.9c1.9-1.9,3.4-4.3,4.4-6.8c-0.1,0.5-0.2,1.3-0.5,2.5c2.8-3.9,4.7-10.5,4.9-11.8
				c0.6-3.5,3.3-6.9,0.7-11.6c-2.5-4.7-8.7-11-15-14.1s-15.8-3.4-21.1-3c-5.4,0.4-6.5,1.1-8.9,5.3S12.9,36.5,13.2,42.3z"/>
		</g>
		<g id="Group_403" transform="translate(0 8.571)">
			<g id="Group_382" transform="translate(0 53.627)">
				<path id="Path_3785" class="st3" d="M17.2,27"/>
				<path id="Path_3786" class="st3" d="M6.4,28.1"/>
				<path id="Path_3787" class="st4" d="M62.6,27C54.8,23.6,52.3,17,53,3.1L30.4,2.4c2.2,9.1,0.4,18.3-4.2,21.7
					c-0.9,0.5-5,2.6-8.6,4.4"/>
				<path id="Path_3788" class="st3" d="M59.3,26.7"/>
				<path id="Path_3789" class="st5" d="M30,2.4c2,9.1,0.9,17.6-3.4,21.5c9.8,3.3,22.1-7.1,26.1-15.3c0-2.4,0.2-2.6,0.5-5.8L30,2.4z
					"/>
				<path id="Path_3790" class="st5" d="M45.8,14.8"/>
				<path id="Path_3791" class="st6" d="M62.6,27.9"/>
			</g>
			<path id="Path_3794" class="st7" d="M30.5,58.6c1.9,2.1,5.8,6.6,7.4,7.1c2.2,0.7,6.6,1,8.6-0.1c2.6-1.5,4.5-4.1,6.2-6.2
				c0-1.7,0.1-1.4,0.2-3.5l-23-0.3C30.2,57,30.3,57.3,30.5,58.6z"/>
			<g id="Group_402" transform="translate(8.797)">
				<g id="Group_383" transform="translate(41.335 28.696)">
					<path id="Path_3795" class="st3" d="M13.2,5.1c1.3-3.1,3-5.1,4.1-3.4c1.6,2.5-1,7.1-1.8,9.5c-1.2,3.5-0.9,5.5-2.8,5.3
						c-0.8-0.1-1.3-1-1.3-2.2c0.1-1.4,0.5-2.9,0.8-4.2L13.2,5.1z"/>
					<path id="Path_3796" class="st8" d="M12.8,10.5c0.1-0.4,0.2-0.8,0.3-1.1c0.8-3.2,1.5-3.1,1.5-2.2c-0.2,0.7-0.5,1.4-0.8,2.1
						c-0.1,0.2,0.2,1.3-0.1,2C13.3,12.1,12.3,12.3,12.8,10.5z"/>
				</g>
				<g id="Group_384" transform="translate(0 28.696)">
					<path id="Path_3797" class="st5" d="M12,5.2c-1.2-3-2.9-5.1-4.1-3.3c-1.6,2.5,1,7.1,1.8,9.4c1.1,3.5,0.9,5.5,2.7,5.3
						c0.8-0.1,1.3-1,1.3-2.2c-0.1-1.4-0.4-2.9-0.9-4.2L12,5.2z"/>
					<path id="Path_3798" class="st8" d="M12.6,10.6c-0.1-0.4-0.2-0.8-0.3-1.1c-0.9-3.2-1.5-3.1-1.5-2.2C11,8,11.2,8.7,11.5,9.4
						c0.1,0.2-0.2,1.3,0.1,2C12,12.2,13,12.4,12.6,10.6z"/>
				</g>
				<path id="Path_3799" class="st3" d="M55.5,11.1c3,9,0.4,22-2.1,31.5c-1.4,5.2-2.3,7.1-3.6,9.1c-2.9,4.2-7.2,8.4-11.1,12.3
					c-1.5,1.4-2.8,1.5-4.8,1.6c-2.2,0.1-3.5,0-5.1-1.5c-4-3.7-8.5-7.7-11.4-11.9c-1.4-1.9-2.3-3.8-3.9-9c-2.7-9.5-5.7-22.5-3-31.5
					C15.3-4,50.4-4.3,55.5,11.1z"/>
				<g id="Group_385" transform="translate(15.334 48.523)">
					<path id="Path_3801" class="st5" d="M14.1,5.8c-1.1-0.6-2.4-1.1-3.8-1.3C11,5.8,11.9,7,12.7,8.2c1.1,1.6,3.2,2.5,5.4,2.3
						c1.9,0,3.8-0.8,4.9-2.3c0.9-1.2,1.8-2.5,2.4-3.9c-1,0.2-2.2,0.6-3.1,1.2C19.9,7.3,16.7,7.3,14.1,5.8z"/>
					<path id="Path_3802" class="st9" d="M14,4.4c1.5,0,4.2-0.5,5.8-0.4c1.1,0.3,2.4,0.4,3.5,0.5c1.1-0.1,2.4-1.1,2.9-1
						c0.2,0.1,0.2,0.3,0.2,0.4c0,0.2-0.2,0.5-0.5,0.5c-0.5,0.1-0.9,0.1-1.4,0.3C23.7,5.1,20.7,7,20,7.4c-0.8,0.4-5.6,0-5.7-0.2
						c-0.2-0.2-3-2.3-3.1-2.3c-0.6-0.2-1-0.3-1.6-0.3c-0.5,0-0.8,0-0.8-0.3c0-0.1,0-0.6,0.3-0.6s0.8,0.6,1.5,0.7
						C11.8,4.4,12.9,4.4,14,4.4z"/>
					<path id="Path_3803" class="st10" d="M14,4.9c1,1.5,6.2,2.3,8.1-0.3C17.8,3.8,18.7,3.6,14,4.9z"/>
					<path id="Path_3804" class="st11" d="M17.9,2.9c-0.6-0.5-1.4-0.8-2.2-0.7C13.9,2.3,11,4,10.4,4c0.9,0.7,2.2,1.1,3.3,1.1
						c1.5,0.1,2.8-0.6,4.2-0.6c1.4,0.4,2.8,0.6,4.1,0.6c1.1,0,2.4-0.4,3.3-1.1C24.7,4.1,22,2.3,20,2.2C19.3,2.1,18.5,2.4,17.9,2.9z"
						/>
					<path id="Path_3806" class="st11" d="M14.2,5.4c-1-0.4-2.2-0.6-3.3-0.6c0.6,1,1.3,2,2.1,3c1.1,1.5,3.1,2.4,5.1,2.2
						c1.8,0,3.7-0.8,4.7-2.2c0.8-0.9,1.6-2,2.2-3.2c-0.9,0.1-1.9,0.3-2.8,0.6C19.8,6.9,16.7,6.9,14.2,5.4z"/>
				</g>
				<g id="Group_386" transform="translate(19.45 43.835)">
					<path id="Path_3814" class="st5" d="M15.2,2.7c0.6-0.3,1-0.5,1.6-0.7s1,0.1,1.3,0.5c0,0.1,0,0.2,0.1,0.2c0.1,1-1,1.2-1.9,1.3
						c-0.5,0-0.9,0.1-1.4,0.2c-0.8,0.2-1.5,0.2-2.2,0C12.2,4.1,11.8,4,11.3,4c-0.8,0-2.1-0.2-2-1.3c0-0.5,0.6-0.9,1-0.8
						c0.1,0,0.2,0,0.2,0.1c0.7,0.2,1.1,0.4,1.8,0.7C13.2,3.2,14.4,3.2,15.2,2.7z"/>
					<path id="Path_3815" class="st8" d="M14.8,3.8c0.5-0.4,0.8-0.7,1.3-1c0.5-0.2,0.9-0.3,1.1-0.1s0.2,0.5,0.1,0.7
						c-0.1,0.1-0.2,0.2-0.5,0.2C16.3,3.5,15.6,3.6,14.8,3.8z"/>
					<path id="Path_3816" class="st8" d="M12.9,3.9c-0.5-0.4-0.8-0.7-1.3-1c-0.6-0.1-0.9-0.3-1.1-0.1c-0.3,0.1-0.4,0.4-0.1,0.7
						c0.1,0.1,0.2,0.2,0.5,0.2C11.4,3.7,12.1,3.8,12.9,3.9z"/>
				</g>
				<path id="Path_3817" class="st6" d="M33.1,36.5c-0.1,2.2-0.3,4.4-0.6,6.3c-0.1,0.7-0.3,1.5-0.7,2.1c0,0.4,0.5,0.7,1.6,0.9
					c0.9-0.3,1.5-0.5,1.5-0.8s-0.6-0.5-0.7-2.1c-0.2-1.8,0-4-0.1-6.4C34,32.5,33.5,32.6,33.1,36.5z"/>
				<g id="Group_401_1_" transform="translate(4.262 21.347)">
					<g id="Group_400_2_">
						<g id="Group_399_2_" transform="translate(1.12 6.075)">
							<path id="Path_3834_2_" class="st12" d="M10.2,2.1c4.9-0.2,8.6-0.3,11.9,4.3C18.9,2.6,14.5,2.2,10.2,2.1z"/>
							<g id="Group_398_2_" transform="translate(0 0)">
								<path id="Path_3835_2_" class="st13" d="M22.1,8.4c-1.4-2.6-3.8-4.4-6.6-4.9c-2.5-0.4-5-0.3-7.3-1.2
									c1.6,3.1,2.1,5.8,5.9,6.6c2.4,0.7,4.8,0,6.9,0c-1.4-0.1-2.9-0.1-4.3-0.1S14,8.4,12.9,7.3c-0.8-0.8-1.5-2,0-2.2
									C13.5,5,14,4.9,14.5,4.9C17.3,4.9,20.5,6.9,22.1,8.4z"/>
								<g id="Group_397_2_" transform="translate(3.544 3.222)">
									<path id="Path_3836_2_" class="st10" d="M18.6,5.2c0,0.2,0.2,0.6,0,0.6c-0.5,0.1-0.8,0.1-1.1-0.1c-2.1-0.4-4.6,0.3-7-0.8
										c-1-0.3-3.2-2.5-1.1-3c0.5-0.2,1-0.2,1.6-0.2C13.8,1.7,17,3.7,18.6,5.2z"/>
									<g>
										<g>
											<g>
												<g>
													<g>
														<g>
															<g>
																<g id="Group_396_2_">
																	<g id="Group_395_2_" transform="translate(1.101 -1.675)">
																		<g id="Group_394_2_">
																			<path id="Path_3837_2_" class="st14" d="M11.2,7.2c1.1,0,1.9-0.8,1.9-1.8s-0.9-1.9-1.9-1.9S9.3,4.3,9.3,5.3l0,0
																				C9.1,6.3,10,7.2,11.2,7.2z"/>
																			<path id="Path_3838_2_" class="st13" d="M11.2,6.6c0.7,0,1.3-0.6,1.3-1.2c0-0.7-0.6-1.1-1.3-1.1S9.9,4.9,9.9,5.5
																				S10.5,6.6,11.2,6.6z"/>
																			<path id="Path_3839_2_" class="st15" d="M11.2,3.7c-1,0-1.8,0.8-1.8,1.7s0.8,1.7,1.7,1.7s1.8-0.8,1.8-1.7l0,0
																				C12.9,4.4,12.1,3.7,11.2,3.7L11.2,3.7z M11.2,4.1c0.7,0,1.4,0.6,1.4,1.2c0,0.7-0.7,1.2-1.4,1.2S9.8,6.1,9.8,5.3
																				l0,0C9.8,4.7,10.4,4.1,11.2,4.1z"/>
																			<path id="Path_3840_2_" class="st16" d="M11.7,6.8c0.3,0,0.5-0.2,0.5-0.4C12.2,6.2,12,6,11.7,6s-0.3,0.2-0.3,0.4
																				C11.4,6.6,11.5,6.8,11.7,6.8L11.7,6.8z"/>
																			<path id="Path_3841_2_" class="st10" d="M10,5.3c0.1,0,0.3-0.1,0.3-0.2S10.2,4.8,10,4.8c-0.1,0-0.3,0.1-0.3,0.3
																				l0,0C9.7,5.2,9.9,5.3,10,5.3z"/>
																			
																				<ellipse id="Ellipse_295_2_" transform="matrix(-0.9999 1.700008e-02 -1.700008e-02 -0.9999 23.8412 12.2841)" class="st17" cx="11.9" cy="6.2" rx="0.1" ry="0.1"/>
																		</g>
																	</g>
																</g>
															</g>
														</g>
													</g>
												</g>
											</g>
										</g>
									</g>
								</g>
								<path id="Path_3843_2_" class="st13" d="M13.6,3.7C12,3.5,10.7,2.6,9.8,1.3C10,2.6,11,3.6,12.1,3.9L13.6,3.7z"/>
								<path id="Path_3844_2_" class="st13" d="M15.3,3.9c-1.6-0.2-3-1.1-3.8-2.4c0.2,1.2,1.1,2.2,2.3,2.6L15.3,3.9z"/>
								<path id="Path_3845_2_" class="st13" d="M16.9,4.5c-1.5-0.3-2.9-1.3-3.7-2.7c0.1,1.2,0.9,2.4,2.2,2.7H16.9z"/>
							</g>
						</g>
						<path id="Path_3846_2_" class="st18" d="M24.4,5.4c0.2,0.7,0.1,1.3-0.2,1.9c-0.2,0.4-0.2,1-1,0.6c-1.5-0.8-3-1.8-4.3-2.7
							c-5.8-4-5-4-10.7-2.2c5.8-3.3,4.6-2.9,11.7,0.2C21.3,3.8,22.8,4.5,24.4,5.4z"/>
					</g>
					<g id="Group_401_2_" transform="translate(4.262 21.347)">
						<g id="Group_400_1_">
							<g id="Group_399_1_" transform="translate(1.12 6.075)">
								<path id="Path_3834_1_" class="st12" d="M42.3-19.9c-5.5,0-9.6,0-13.2,4.7C32.6-19.3,37.4-19.7,42.3-19.9z"/>
								<g id="Group_398_1_" transform="translate(0 0)">
									<path id="Path_3835_1_" class="st13" d="M29.1-13.3c1.5-2.6,4.1-4.5,7.2-5.2c2.7-0.6,5.6-0.6,8.1-1.5
										c-1.7,3.1-2.1,6-6.4,6.8c-2.6,0.8-5.4,0.2-7.7,0.2c1.5-0.1,3.2-0.2,4.9-0.2s3.1-0.6,4.1-1.6c0.9-0.8,1.6-2-0.1-2.2
										c-0.7-0.1-1.3-0.2-1.8-0.1C34.4-16.9,31-14.8,29.1-13.3z"/>
									<g id="Group_397_1_" transform="translate(3.544 3.222)">
										<path id="Path_3836_1_" class="st10" d="M25.5-16.5c0,0.2-0.2,0.6,0,0.6c0.6,0.1,0.9,0.1,1.3-0.1c2.3-0.6,5.1,0.2,7.8-1
											c1.1-0.3,3.5-2.6,1.1-3c-0.6-0.2-1.1-0.2-1.8-0.1C30.8-20.1,27.4-18,25.5-16.5z"/>
										<g>
											<g>
												<g>
													<g>
														<g>
															<g>
																<g>
																	<g id="Group_396_1_">
																		<g id="Group_395_1_" transform="translate(1.101 -1.675)">
																			<g id="Group_394_1_">
																				<path id="Path_3837_1_" class="st14" d="M31.5-14.7c-1.3,0-2.2-0.8-2.2-1.8s0.9-1.9,2.1-1.9
																					c1.1,0,2.2,0.8,2.2,1.8l0,0C33.8-15.6,32.8-14.7,31.5-14.7z"/>
																				<path id="Path_3838_1_" class="st13" d="M31.4-15.3c-0.8,0-1.5-0.6-1.5-1.2c0-0.7,0.7-1.1,1.4-1.1
																					c0.7,0,1.5,0.6,1.5,1.2C32.8-15.7,32.2-15.3,31.4-15.3z"/>
																				<path id="Path_3839_1_" class="st15" d="M31.4-18.3c1.1,0,1.9,0.7,2.1,1.6c0,0.9-0.8,1.7-1.9,1.7
																					c-1,0-1.9-0.7-2.1-1.6l0,0C29.5-17.4,30.4-18.2,31.4-18.3L31.4-18.3z M31.4-17.8c-0.8,0-1.5,0.7-1.5,1.3
																					c0,0.7,0.8,1.2,1.6,1.1c0.7,0,1.5-0.6,1.5-1.2l0,0C33-17.3,32.2-17.8,31.4-17.8z"/>
																				<path id="Path_3840_1_" class="st16" d="M30.8-15c-0.3,0-0.6-0.2-0.6-0.4s0.2-0.4,0.6-0.4
																					c0.2,0,0.5,0.2,0.5,0.4C31.3-15.3,31.1-15,30.8-15L30.8-15z"/>
																				<path id="Path_3841_1_" class="st10" d="M32.8-16.5c-0.2,0-0.3-0.1-0.3-0.3c0-0.1,0.1-0.3,0.3-0.3
																					s0.3,0.1,0.3,0.3l0,0C33.1-16.7,32.9-16.6,32.8-16.5z"/>
																				
																					<ellipse id="Ellipse_295_1_" transform="matrix(-0.9999 1.700008e-02 -1.700008e-02 -0.9999 61.1581 -31.8591)" class="st17" cx="30.7" cy="-15.7" rx="0.2" ry="0.1"/>
																			</g>
																		</g>
																	</g>
																</g>
															</g>
														</g>
													</g>
												</g>
											</g>
										</g>
									</g>
									<path id="Path_3843_1_" class="st13" d="M38.5-18.3c1.8-0.3,3.2-1.2,4.1-2.5c-0.2,1.2-1.1,2.2-2.5,2.7L38.5-18.3z"/>
									<path id="Path_3844_1_" class="st13" d="M36.6-18c1.8-0.3,3.3-1.2,4.1-2.5c-0.2,1.2-1.1,2.2-2.5,2.7L36.6-18z"/>
									<path id="Path_3845_1_" class="st13" d="M34.8-17.4c1.6-0.3,3.2-1.5,4-2.8c-0.1,1.2-0.9,2.4-2.3,2.8H34.8z"/>
								</g>
							</g>
							<path id="Path_3846_1_" class="st18" d="M28.6-16.2c-0.2,0.7-0.1,1.3,0.3,1.9c0.2,0.4,0.3,1,1.1,0.6c1.6-0.8,3.3-1.9,4.8-2.8
								c6.4-4.3,5.5-4.3,12-2.6c-6.6-3-5.3-2.8-13,0.7C31.9-17.9,30.3-17.2,28.6-16.2z"/>
						</g>
					</g>
				</g>
			</g>
		</g>
		<path id="Path_3848" class="st19" d="M32.5,12.1c11.5-21.5,46,2.5,27.6,45.3c0.6-7,3.3-14.8-1.9-19.2c-4.7-4-6.9-3.5-13.8-5.4
			c1.5,1.2,3.1,2,5,2.5c-10.2-0.3-20.8-1.9-26.6-9.7c-0.3,3.3,0.2,6.6,1.4,9.7c-1.5-1.3-2.6-3-3.3-4.9c-2.7,9.8,4.4,28.9,10.1,35.4
			c-4.1-2.3-9.8-10.3-10.3-15.1C19,46.4,5.7,14.9,32.5,12.1z"/>
		<path id="Path_3849" class="st20" d="M30.3,6.5C34.6-1.4,43.5-1.3,49-0.1c8.8,1.9,16.6,7.9,17.5,12.3C63.2,8.2,56.1,2.3,43,1.8
			c10.9,1.7,28.4,7.8,26.6,20.9c-0.2-1.9-0.9-3.7-2.4-5.2c1.7,5.5,6.2,13.9,1.3,22.9c1.3-4.5,1.4-7.6,0.7-9.2
			c-0.1,6.3-1.2,7.1-3,9.7c-2.2,3.2-3,9.5-5.4,15.2c0.4-7.6,3.9-15.4-3.4-20.6c-5.1-3.6-12.4-2.9-19.2-4.9c1.6,1.3,3.4,2.2,5.5,2.8
			C33.6,33.2,28,30.9,22.1,23c-0.6,3.2-0.4,6.3,0.5,9.4c-1.4-2-2.2-4.4-2.2-6.7c-2.2,11.5-2,14.4,3.6,29.5c1.3,3.7,3.1,7.1,5.5,10.3
			c-4.1-2.8-5.8-6.7-7.4-8.2c-4.2-4.1-9.5-11.3-9.5-17.4c-3.1-2.1-2.3-3.7-2-7.5c0.5-7.8,2.3-11.2,7.3-17.5
			c-6.8,6.2-7.9,10.5-7.8,19.9C6.9,25.1,11,10.4,21.6,6.9C24.4,5.8,27.5,5.6,30.3,6.5z"/>
		<path id="Path_3850" class="st21" d="M49.8,32c9.2,2,15.2,4.1,12,21.2c4.6-17.6,2.1-18.9-15-29c12.6,6.6,18.4,7.7,17.2,20.6
			c2.9-12.4-0.4-16.9-6.6-22.8c4.2,3.2,10.6,9.4,8,19.2c7-12.2,0.9-17.2-8.2-22.7c-7.6-4.6-19.6-6.4-28.4-8.3
			C29.2,26.8,34.5,28.6,49.8,32z"/>
		<path id="Path_3851" class="st21" d="M26.5,41.2c-6.9-6.5-6.6-10.8-7.4-15.4c-2.3,12.1,2.8,20,10.2,28.2C7,44.7,10,13.1,30.4,6.8
			C18.6,18.4,19.2,31.5,26.5,41.2z"/>
		<path id="Path_3852" class="st22" d="M26.5,41.2c-6.9-6.5-5.9-16-6.8-20.6c-6.8,15.7,3.7,27.8,7.1,31.2
			C10.4,40.9,11.1,17.1,30,7.2C18.2,18.8,19.2,31.5,26.5,41.2z"/>
		<path id="Path_3853" class="st22" d="M27.2,11.3c-6.1,13.2,1.9,19.4,17.2,24.1C33.8,31,26.6,23,27.2,11.3z"/>
		<path id="Path_3854" class="st23" d="M27.5,10.2c-2.6,13.7,8.4,24.1,20.8,26.6C37,33.5,26.8,21.9,27.5,10.2z"/>
		<path id="Path_3855" class="st22" d="M62.7,40.2c-0.8-13.4-13.4-8.7-24-20.9c7.9,4.8,20,6.3,23.9,15.3
			c-2.9-15.8-24-16.2-34.5-24.6C28.1,38,59.5,23.7,62.7,40.2z"/>
		<path id="Path_3856" class="st24" d="M62.2,39.2c-1-13.5-26-10.8-27.6-22.7c7.3,3,20.1,8.2,25.2,13C56,22.3,40,5.7,28,10.2
			C32.9,36.4,58.8,22.6,62.2,39.2z"/>
		<path id="Path_3857" class="st22" d="M26.9,9.7c4.2-3.7,7.3-5.5,11.5-6.3c13.7-2.8,28.7,7.3,30.2,14.8c-4.2-6.1-11.5-7.6-18.9-9.9
			c6.1,3.5,7.3,2.5,12.2,8.1c-2.1-1.4-1.4-1.3-4-2c6.4,5.6,9,7.6,9.7,17.3c-2.2-7.9-10.7-13-17.3-15c2.1,2.4,2.2,2.2,3.4,5.1
			C46.1,14.6,38.4,9.4,26.9,9.7z"/>
		<path id="Path_3858" class="st18" d="M9,30.5c1.2-9.1,3.2-13.8,11.8-19c-17.6,20.4-7.4,36.2,7.3,51.9c-4.3-6.3-8-11.9-11.8-18.7
			c1.5,1.9,3.4,4.8,4.8,6.7c-3-6.1-7.5-13.9-7.5-20.6c0-9.9,5.7-19.1,14.8-24C14.4,6.7,7.8,19.3,9,30.5z"/>
		<path id="Path_3859" class="st25" d="M28.9,9c4.4,26.3,31.7,11.5,34,32.8C59.4,20.4,29.9,37,28.9,9z"/>
		<path id="Path_3860" class="st26" d="M29.7,8.5c6.4,10.6,17.4,3.2,29.7,20.6C48.9,9,38.8,14.2,29.7,8.5z"/>
		<path id="Path_3861" class="st27" d="M29.5,8.8c2,11.7,19.7,8.6,27.7,17.5C50,16.2,34.2,19,29.5,8.8z"/>
		<path id="Path_3862" class="st23" d="M29,8.2c-12.5,10.2-15.5,23.2-7,39.2C11.5,32,14.8,17.1,29,8.2z"/>
		<path id="Path_3863" class="st23" d="M29.4,8.3c8.6-2.3,35-3.2,40,12.2C66,3.9,36.5,1.8,29.4,8.3z"/>
		<path id="Path_3864" class="st23" d="M31.6,9.1c7.1,1.2,28.3,4.8,35.6,20C56.6,8.6,36.9,7.8,31.6,9.1z"/>
		<path id="Path_3865" class="st22" d="M66.2,16c3.6,8.6,5.1,14.6,2.6,25.5C73,28.1,71,23.9,66.2,16z"/>
		<path id="Path_3866" class="st22" d="M58.3,10.9c6.2,7,9.5,12.3,10.7,23.5C68.7,20.5,65.5,16.9,58.3,10.9z"/>
		<path id="Path_3867" class="st22" d="M63.5,28.3c1.8,9.1,1.9,15.2-2.9,25.5C67.6,41.5,66.6,36.8,63.5,28.3z"/>
		<path id="Path_3868" class="st22" d="M12.6,27.3c-1.3,9.5-1,18.9,6.6,28.8C9.9,45.5,9.2,40,12.6,27.3z"/>
		<path id="Path_3869" class="st27" d="M49.3,16.3c9.2,5.5,14.2,15.8,14.9,25.3C65.2,31.1,58.8,19.4,49.3,16.3z"/>
		<path id="Path_3870" class="st2" d="M27,7.4C16.2,12.2,10,21.6,9.2,31.1C8.3,20.6,16.1,10.1,27,7.4z"/>
		<path id="Path_3871" class="st2" d="M18.7,14.8c-6.8,9.4-7,20.5-2.6,29C9.6,35.3,10.8,22.3,18.7,14.8z"/>
		<path id="Path_3872" class="st2" d="M32.5,3.9c10.3-5.4,20.9-3.3,29.1,2.3C53.8-1.2,38.7-2.8,32.5,3.9z"/>
		<path id="Path_3873" class="st2" d="M31.7,5.5c-8-2-15,1.4-19.5,6.6C16.2,5.7,26.1,1.9,31.7,5.5z"/>
		<path id="Path_3874" class="st2" d="M31.3,4.9c8-2,20.1-2.3,25.6,3.5C51.3,1,36.8,1.4,31.3,4.9z"/>
		<path id="Path_3875" class="st2" d="M49.8,11.2c7.6,3.4,17.1,10.3,17.6,18.1C67.7,20.2,56.4,11.8,49.8,11.2z"/>
		<path id="Path_3876" class="st2" d="M58.4,21c4.6,5.9,9,11,6.6,24.5C69.2,32.1,65.9,24.5,58.4,21z"/>
	</g>
</g>
</svg>
