<?xml version="1.0" encoding="utf-8"?>
<!-- Generator: Adobe Illustrator 23.1.0, SVG Export Plug-In . SVG Version: 6.00 Build 0)  -->
<svg version="1.1" id="Layer_1" xmlns="http://www.w3.org/2000/svg" xmlns:xlink="http://www.w3.org/1999/xlink" x="0px" y="0px"
	 viewBox="0 0 119 423.5" style="enable-background:new 0 0 119 423.5;" xml:space="preserve">
<style type="text/css">
	.st0{fill:#FEC19B;}
	.st1{fill-rule:evenodd;clip-rule:evenodd;fill:#A1825F;}
	.st2{fill-rule:evenodd;clip-rule:evenodd;fill:#F1B287;}
	.st3{fill-rule:evenodd;clip-rule:evenodd;fill:#FEC19B;}
	.st4{fill-rule:evenodd;clip-rule:evenodd;fill:#E8A476;}
	.st5{fill-rule:evenodd;clip-rule:evenodd;fill:#F5BC95;}
	.st6{fill-rule:evenodd;clip-rule:evenodd;fill:#D6976D;}
	.st7{fill-rule:evenodd;clip-rule:evenodd;fill:#975B36;}
	.st8{fill-rule:evenodd;clip-rule:evenodd;fill:#753005;}
	.st9{fill-rule:evenodd;clip-rule:evenodd;fill:#FFFFFF;}
	.st10{fill-rule:evenodd;clip-rule:evenodd;fill:#E85A4E;}
	.st11{fill-rule:evenodd;clip-rule:evenodd;fill:#4F4742;}
	.st12{fill-rule:evenodd;clip-rule:evenodd;}
	.st13{fill-rule:evenodd;clip-rule:evenodd;fill:#3B545C;}
	.st14{fill-rule:evenodd;clip-rule:evenodd;fill:#4F6F7A;}
	.st15{fill-rule:evenodd;clip-rule:evenodd;fill:#6D98A6;}
	.st16{fill:#FFFFFF;}
	.st17{fill-rule:evenodd;clip-rule:evenodd;fill:#B89772;}
	.st18{fill-rule:evenodd;clip-rule:evenodd;fill:#C7A77D;}
	.st19{fill-rule:evenodd;clip-rule:evenodd;fill:#D6B788;}
	.st20{fill-rule:evenodd;clip-rule:evenodd;fill:#E5D4AF;}
	.st21{fill-rule:evenodd;clip-rule:evenodd;fill:#FFF7E8;}
	.st22{fill-rule:evenodd;clip-rule:evenodd;fill:#F0E2C5;}
	.st23{fill-rule:evenodd;clip-rule:evenodd;fill:#FAF7F1;}
	.st24{fill-rule:evenodd;clip-rule:evenodd;fill:#FCF1DB;}
	.st25{fill-rule:evenodd;clip-rule:evenodd;fill:#FFFAF2;}
	.st26{fill:#A1BDD2;}
</style>
<g id="Trangle_W" transform="translate(-46.212 -13.534)">
	<path id="Triangle_Body" class="st0" d="M130.4,99.8c3.8,0.7,7.1,1.3,10.4,1.9c4,0.7,6.5,3.3,8.1,6.6c4.4,8.7,5.8,18.1,7.1,27.7
		c2,15.7,5.1,31.3,7.4,47c1.1,7,1.7,14,1.8,21.1c0.1,11.6,0,23.2-0.7,34.8c-0.5,7.6-4.5,13.8-10.1,18.9c-0.8,0.6-1.7,0.9-2.7,0.9
		c1.4-6.4,5.5-12.2,3.5-19.5l-4.4,8.1c0.1-5.6,1.3-11.2,3.6-16.4c1.3-2.5,1.9-5.3,1.8-8.1c-0.7-6.4-2.1-12.7-3.3-19
		c-2.2-12-4-24.1-6.7-36c-2.7-12.5-6.2-24.8-10-37.2c2,7.1-3.5,12-4.9,18c-3.4,14.6-2.6,28.6,3.6,42.5c3.3,7.6,6,15.6,8,23.7
		c3.9,15.3,0.9,30.4-3.1,45.2c-2.2,7.9-5.1,15.6-7.3,23.5c-3,10.7-4,21.9-2.9,33c1.7,16.6,1.2,33.4-1.6,49.8
		c-2.6,15.7-5.8,31.3-5,47.4c0.3,5.5,1,11.1,1.8,16.5c0.5,3.5-0.9,5.4-4.1,6c-2.6,0.5-5.2,0.8-7.9,0.9c-3.6,0-4.6-2.4-3.9-6.8
		c1.6-10.4,3.8-20.9,3.9-31.4c0.1-10.8-1.6-21.6-2.9-32.4c-1.9-15.6-2.2-31.2,0.3-46.8c0.7-4.4,0-9-0.1-13.5
		c-0.2-10.9-0.4-21.7-0.8-32.6c-0.5-12.2-1.2-24.5-1.9-36.7c0-0.8-0.9-1.5-1.3-2.2c-0.6,0.9-1.6,1.8-1.6,2.7
		c-0.7,18.6-1.2,37.1-1.9,55.7c-0.2,4.3-0.9,8.5-1,12.8c-0.1,6-0.3,12.2,0.6,18.1c1.9,13,1.4,25.9,0.1,38.9
		c-1.3,13.4-3.1,26.9-3.2,40.3c-0.1,8.9,2.1,18,3.7,26.8c1,5.5-0.5,7.6-6.1,7c-10.7-1.2-10.9-1.3-9.1-11.7c2.2-12.8,1-25.4-0.8-38.1
		c-2.4-17.6-6.7-35-6-53c0.2-5.5,0.7-11.1,1.1-16.6c1.1-14.5-0.8-29.1-5.7-42.7c-5.5-15.1-9.7-30.7-9.3-46.9
		c0.2-9.3,1.6-18.5,5.7-27.2c3.2-6.9,6.5-14.1,8.1-21.6c2.6-12.7,2.8-25.5-3.5-37.6c-1.4-2.6-1.7-5.7-2.7-9.3
		c-2.1,7.8-4.3,15.3-5.9,22.8c-2.8,13.3-5.1,26.7-7.7,40c-1.7,8.6-3.6,17.2-5.5,25.9c-0.7,3.3-0.2,6.7,1.4,9.7
		c2.5,5.1,3.7,10.9,5.5,16.4l-1.3,0.5l-4.5-8c-2.3,7.3,2,12.9,4.2,19l-1,0.7c-1.1-0.6-2.5-1-3.3-1.9c-5.4-6.2-9.5-12.9-9.5-21.6
		c0-6.7-0.5-13.4-0.6-20.1c-0.3-14.4,1-28.7,4-42.8c3.3-15.6,4.3-31.7,6.8-47.5c1.2-7.7,3.2-15.3,8.9-21.3c0.8-0.9,1.9-1.7,3-2.1
		c3.7-0.8,7.6-1.4,11.5-2.1"/>
	<g id="head3" transform="matrix(1, 0.017, -0.017, 1, 75.47, 13.495)">
		<g id="Group_381" transform="translate(2.174 2.756)">
			<path id="Path_3781" class="st1" d="M20.4,68.2c-0.7-5.4-2.8-7-4.6-9.7c0.6,1.2,1.2,2.4,1.6,3.7c-1.7-1.9-3.1-4.1-4-6.5
				c0.1,0.5,0.2,1.2,0.4,2.3c-2.6-3.7-4.2-10-4.4-11.3C11.4,51.4,21.8,57.2,20.4,68.2z"/>
			<path id="Path_3782" class="st1" d="M25.5,9.9c0.4-12.5-13-10.1-21-5c6-4.6,13.8-6.3,18.4-3.9c2.9,1.5,4.5,4.6,3.8,9.6L25.5,9.9z
				"/>
			<path id="Path_3783" class="st1" d="M21.3,4.1C8.1,1.1,2.1,8.2,0,19.5C0.5,7,8.2-0.9,23.3,2.1L21.3,4.1z"/>
			<path id="Path_3784" class="st1" d="M5.9,40.7c0.3,7.2,11.8,18.6,15.6,25.2c0.9,1.5,17.7,5.1,18.2,1.3c0.7-5.4,2.8-7,4.6-9.7
				c-0.6,1.2-1.2,2.4-1.6,3.7c1.7-1.9,3.1-4.1,4-6.5c-0.1,0.5-0.2,1.2-0.4,2.3c2.6-3.7,4.2-10,4.4-11.3c0.5-3.3,3-6.6,0.7-11.1
				s-7.9-10.5-13.6-13.4S23.3,18,18.5,18.4s-5.9,1-8.2,5S5.6,35.2,5.9,40.7z"/>
		</g>
		<g id="Group_403" transform="translate(0 8.571)">
			<g id="Group_382" transform="translate(0 53.627)">
				<path id="Path_3785" class="st2" d="M9.7,23.3"/>
				<path id="Path_3786" class="st2" d="M0,24.4"/>
				<path id="Path_3787" class="st3" d="M51,23.3c-7-3.2-9.4-9.5-8.6-22.8L21.7,0c2,8.7,0.4,17.4-3.8,20.7c-0.9,0.5-4.5,2.4-7.8,4.2
					"/>
				<path id="Path_3788" class="st2" d="M48,23.1"/>
				<path id="Path_3789" class="st4" d="M21.3,0c1.9,8.6,0.8,16.7-3.1,20.5c8.9,3.2,20.1-6.7,23.7-14.5c0-2.3,0.2-2.4,0.4-5.5
					L21.3,0z"/>
				<path id="Path_3790" class="st4" d="M35.8,11.7"/>
				<path id="Path_3791" class="st5" d="M51,24.2"/>
			</g>
			<path id="Path_3794" class="st6" d="M21.8,55.9c1.7,2.1,5.2,6.3,6.8,6.8c2,0.7,6,1,7.8-0.1c2.5-1.5,4.1-3.9,5.6-5.9
				c0-1.6,0.1-1.3,0.2-3.3l-21-0.3C21.5,54.4,21.6,54.8,21.8,55.9z"/>
			<g id="Group_402" transform="translate(8.797)">
				<g id="Group_383" transform="translate(41.335 28.696)">
					<path id="Path_3795" class="st2" d="M1.5,3.8C2.8,0.9,4.3-1,5.3,0.6c1.5,2.4-0.9,6.8-1.7,9c-1.1,3.3-0.9,5.2-2.5,5
						c-0.7,0-1.1-0.9-1.1-2.1c0.1-1.4,0.4-2.7,0.7-4L1.5,3.8z"/>
					<path id="Path_3796" class="st7" d="M1.1,8.9c0.1-0.4,0.2-0.8,0.2-1c0.8-3,1.4-2.9,1.3-2.2C2.5,6.4,2.2,7.1,2,7.7
						C1.9,8,2.2,8.9,1.9,9.6C1.6,10.4,0.7,10.6,1.1,8.9z"/>
				</g>
				<g id="Group_384" transform="translate(0 28.696)">
					<path id="Path_3797" class="st4" d="M4.2,3.8C3,0.9,1.5-1,0.5,0.6C-1,3,1.4,7.4,2.1,9.6c1.1,3.3,0.9,5.2,2.5,5
						c0.7-0.1,1.1-0.9,1.1-2.1c-0.1-1.4-0.4-2.7-0.7-4L4.2,3.8z"/>
					<path id="Path_3798" class="st7" d="M4.7,8.9c-0.1-0.4-0.2-0.8-0.2-1C3.7,4.9,3.1,5,3.1,5.7c0.2,0.7,0.4,1.4,0.7,2
						C3.9,8,3.6,8.9,3.9,9.6C4.2,10.4,5.1,10.6,4.7,8.9z"/>
				</g>
				<path id="Path_3799" class="st2" d="M43.7,10.8c2.7,8.5,0.4,21-2,30c-1.3,5-2,6.8-3.2,8.6c-2.7,4-6.6,8-10.1,11.7
					c-1.3,1.4-2.5,1.5-4.3,1.5c-1.9,0.1-3.2,0-4.7-1.4c-3.6-3.6-7.6-7.5-10.4-11.4c-1.3-1.8-2.1-3.6-3.5-8.5c-2.5-9-5.2-21.4-2.7-30
					C7.2-3.5,39-3.9,43.7,10.8z"/>
				<g id="Group_385" transform="translate(15.334 48.523)">
					<path id="Path_3801" class="st4" d="M4.8,3.4c-1.1-0.6-2.2-1-3.4-1.2C2,3.4,2.7,4.5,3.5,5.6c1.1,1.6,3,2.4,4.9,2.2
						c1.7,0,3.4-0.8,4.4-2.1c0.9-1.1,1.6-2.4,2.2-3.6c-1,0.2-2,0.6-2.8,1.2C10,4.8,7.1,4.9,4.8,3.4z"/>
					<path id="Path_3802" class="st8" d="M4.6,2.1C6,2.1,8.5,1.6,10,1.7c1.1,0.3,2.1,0.4,3.2,0.4c1.1-0.1,2.3-1.1,2.6-1
						C16,1.2,16,1.4,16,1.5c0,0.2-0.1,0.4-0.4,0.5c-0.4,0.1-0.8,0.1-1.3,0.3c-0.9,0.4-3.5,2.1-4.2,2.5s-5,0-5.2-0.2S2.3,2.5,2.2,2.5
						c-0.5-0.2-1-0.3-1.5-0.3C0.3,2.1,0,2.1,0,1.8c0-0.1,0-0.6,0.3-0.6S1,1.7,1.7,1.8C2.7,2,3.7,2.1,4.6,2.1z"/>
					<path id="Path_3803" class="st9" d="M4.7,2.6c1,1.5,5.6,2.2,7.4-0.3C8.1,1.6,8.9,1.4,4.7,2.6z"/>
					<path id="Path_3804" class="st10" d="M8.2,0.7C7.6,0.2,6.9,0,6.2,0C4.4,0.1,1.9,1.8,1.3,1.7c0.8,0.7,1.9,1.1,3,1.1
						C5.7,3,6.9,2.3,8.2,2.2c1.2,0.3,2.5,0.6,3.8,0.6c1.1,0,2.2-0.4,3-1.1c-0.6,0.1-3.1-1.6-4.9-1.7C9.4,0,8.7,0.2,8.2,0.7z"/>
					<path id="Path_3806" class="st10" d="M4.9,3c-1-0.4-2-0.6-3-0.6c0.5,1,1.1,1.9,1.8,2.8c1.1,1.5,2.8,2.3,4.7,2.2
						c1.7,0,3.3-0.7,4.3-2.1c0.8-0.9,1.4-1.9,1.9-3c-0.9,0.1-1.7,0.3-2.5,0.6C9.9,4.4,7.1,4.5,4.9,3z"/>
				</g>
				<g id="Group_386" transform="translate(19.45 43.835)">
					<path id="Path_3814" class="st4" d="M5.3,0.7c0.5-0.3,1-0.5,1.5-0.7c0.4-0.2,1,0.1,1.1,0.5C8,0.6,8,0.7,8,0.8
						C8.1,1.7,7,1.9,6.3,2C5.8,2,5.4,2.1,5,2.2c-0.6,0.2-1.3,0.2-2,0C2.6,2.1,2.2,2,1.7,2C1,1.9-0.1,1.7,0,0.8C0,0.3,0.5,0,1,0
						c0,0,0.1,0,0.2,0c0.6,0.2,1.1,0.4,1.6,0.7C3.6,1.2,4.6,1.2,5.3,0.7z"/>
					<path id="Path_3815" class="st7" d="M5,1.7c0.4-0.3,0.8-0.7,1.2-1c0.4-0.2,0.8-0.3,1-0.1S7.4,1,7.3,1.2c0,0.1-0.2,0.2-0.3,0.2
						C6.3,1.5,5.7,1.6,5,1.7z"/>
					<path id="Path_3816" class="st7" d="M3.2,1.8C2.8,1.5,2.4,1.2,2,0.9C1.6,0.7,1.2,0.6,1,0.8C0.7,0.9,0.7,1.2,0.9,1.4
						C1,1.5,1.1,1.5,1.2,1.5C1.9,1.6,2.5,1.7,3.2,1.8z"/>
				</g>
				<path id="Path_3817" class="st5" d="M23.4,35c-0.1,2.1-0.3,4.1-0.5,6c-0.1,0.7-0.3,1.4-0.6,2.1c0,0.3,0.4,0.7,1.4,0.8
					c0.9-0.3,1.3-0.5,1.4-0.8c0-0.3-0.5-0.5-0.6-2c-0.1-1.7,0-3.8-0.1-6.1C24.3,31.2,23.6,31.3,23.4,35z"/>
				<g id="Group_401_1_" transform="translate(4.262 21.347)">
					<g id="Group_400_2_">
						<g id="Group_399_2_" transform="translate(1.12 6.075)">
							<path id="Path_3834_2_" class="st11" d="M1.8,1c4.4-0.2,7.7-0.3,10.7,3.9C9.6,1.4,5.7,1.1,1.8,1z"/>
							<g id="Group_398_2_" transform="translate(0 0)">
								<path id="Path_3835_2_" class="st12" d="M12.4,6.8c-1.2-2.4-3.4-4-5.9-4.5C4.2,1.8,2,1.9-0.1,1.1c1.4,2.9,1.8,5.3,5.3,6
									c2.2,0.6,4.3,0,6.2,0c-1.2-0.1-2.6-0.1-3.9-0.1S5.1,6.7,4.1,5.7C3.4,5,2.8,3.9,4.1,3.7c0.5-0.1,1-0.2,1.4-0.2
									C8.1,3.6,11,5.4,12.4,6.8z"/>
								<g id="Group_397_2_" transform="translate(3.544 3.222)">
									<path id="Path_3836_2_" class="st9" d="M8.9,3.6c0,0.2,0.2,0.5,0,0.5C8.5,4.2,8.2,4.2,7.9,4C6.1,3.6,3.8,4.3,1.7,3.3
										C0.7,2.9-1.2,1,0.6,0.5C1,0.3,1.6,0.3,2.1,0.3C4.6,0.4,7.5,2.2,8.9,3.6z"/>
									<g>
										<g>
											<g>
												<g>
													<g>
														<g>
															<g>
																<g id="Group_396_2_">
																	<g id="Group_395_2_" transform="translate(1.101 -1.675)">
																		<g id="Group_394_2_">
																			<path id="Path_3837_2_" class="st13" d="M2.2,5.6c1,0,1.7-0.7,1.7-1.6S3.1,2.2,2.2,2.2S0.5,2.9,0.5,3.8l0,0
																				C0.4,4.8,1.2,5.6,2.2,5.6z"/>
																			<path id="Path_3838_2_" class="st12" d="M2.2,5c0.6,0,1.1-0.5,1.1-1.1s-0.5-1-1.1-1S1.1,3.3,1.1,3.9S1.6,5,2.2,5
																				z"/>
																			<path id="Path_3839_2_" class="st14" d="M2.2,2.3C1.3,2.3,0.6,3,0.6,3.8s0.7,1.5,1.5,1.5s1.6-0.7,1.6-1.5l0,0
																				C3.7,3,3,2.3,2.2,2.3L2.2,2.3z M2.2,2.7c0.6,0,1.2,0.5,1.2,1.1S2.8,5,2.2,5S1,4.5,1,3.8l0,0
																				C1,3.2,1.5,2.7,2.2,2.7z"/>
																			<path id="Path_3840_2_" class="st15" d="M2.7,5.2C3,5.2,3.1,5,3.1,4.8S2.9,4.3,2.7,4.3S2.4,4.5,2.4,4.8
																				C2.4,5,2.5,5.2,2.7,5.2L2.7,5.2z"/>
																			<path id="Path_3841_2_" class="st9" d="M1.2,3.8c0.1,0,0.3-0.1,0.3-0.2c0-0.1-0.1-0.3-0.3-0.3
																				c-0.1,0-0.3,0.1-0.3,0.3l0,0C0.9,3.7,1.1,3.8,1.2,3.8z"/>
																			
																				<ellipse id="Ellipse_295_2_" transform="matrix(-0.9999 1.700008e-02 -1.700008e-02 -0.9999 5.667 9.2321)" class="st16" cx="2.8" cy="4.6" rx="0.1" ry="0.1"/>
																		</g>
																	</g>
																</g>
															</g>
														</g>
													</g>
												</g>
											</g>
										</g>
									</g>
								</g>
								<path id="Path_3843_2_" class="st12" d="M4.9,2.5c-1.4-0.2-2.6-1-3.4-2.2c0.2,1.1,1,2.1,2.1,2.4L4.9,2.5z"/>
								<path id="Path_3844_2_" class="st12" d="M6.4,2.7C5,2.5,3.7,1.6,3,0.5c0.2,1.1,1,2.1,2.1,2.4L6.4,2.7z"/>
								<path id="Path_3845_2_" class="st12" d="M7.8,3.2C6.5,2.9,5.3,1.9,4.5,0.7c0.1,1.1,0.8,2.2,1.9,2.5H7.8z"/>
							</g>
						</g>
						<path id="Path_3846_2_" class="st17" d="M14.7,4.6c0.2,0.6,0.1,1.2-0.2,1.7c-0.2,0.4-0.2,0.9-0.9,0.5
							c-1.3-0.7-2.7-1.6-3.9-2.5C4.4,0.7,5.1,0.7,0,2.3c5.2-3,4.1-2.7,10.5,0.2C11.9,3.1,13.2,3.7,14.7,4.6z"/>
					</g>
					<g id="Group_401_2_" transform="translate(4.262 21.347)">
						<g id="Group_400_1_">
							<g id="Group_399_1_" transform="translate(1.12 6.075)">
								<path id="Path_3834_1_" class="st11" d="M30.1-21c-4.9,0-8.6,0-11.8,4.3C21.4-20.3,25.7-20.8,30.1-21z"/>
								<g id="Group_398_1_" transform="translate(0 0)">
									<path id="Path_3835_1_" class="st12" d="M18.3-14.9c1.3-2.4,3.7-4.1,6.5-4.7c2.5-0.5,5-0.5,7.3-1.3
										c-1.5,2.9-1.8,5.4-5.7,6.3c-2.4,0.7-4.8,0.2-6.9,0.2c1.3-0.1,2.9-0.2,4.4-0.2s2.8-0.5,3.7-1.4c0.8-0.7,1.4-1.8-0.1-2.1
										c-0.6-0.1-1.1-0.2-1.6-0.1C23.1-18.2,20-16.2,18.3-14.9z"/>
									<g id="Group_397_1_" transform="translate(3.544 3.222)">
										<path id="Path_3836_1_" class="st9" d="M14.7-18.1c0,0.2-0.2,0.5,0,0.5c0.5,0.1,0.8,0.1,1.1-0.1c2.1-0.5,4.6,0.2,7-0.9
											c1-0.3,3.2-2.4,1-2.8c-0.5-0.2-1-0.2-1.6-0.1C19.5-21.4,16.4-19.4,14.7-18.1z"/>
										<g>
											<g>
												<g>
													<g>
														<g>
															<g>
																<g>
																	<g id="Group_396_1_">
																		<g id="Group_395_1_" transform="translate(1.101 -1.675)">
																			<g id="Group_394_1_">
																				<path id="Path_3837_1_" class="st13" d="M20-16.3c-1.1,0-1.9-0.7-1.9-1.6c0-0.9,0.8-1.7,1.8-1.7
																					c1,0,1.9,0.7,1.9,1.6l0,0C22-17.1,21.1-16.3,20-16.3z"/>
																				<path id="Path_3838_1_" class="st12" d="M19.9-16.8c-0.7,0-1.3-0.5-1.3-1.1c0-0.6,0.6-1,1.2-1
																					c0.6,0,1.3,0.5,1.3,1.1C21.1-17.2,20.6-16.8,19.9-16.8z"/>
																				<path id="Path_3839_1_" class="st14" d="M19.9-19.6c1,0,1.7,0.6,1.8,1.4c0,0.8-0.7,1.5-1.7,1.5
																					c-0.9,0-1.7-0.6-1.8-1.4l0,0C18.1-18.8,19-19.5,19.9-19.6L19.9-19.6z M19.9-19.2c-0.7,0-1.3,0.6-1.3,1.2
																					c0,0.6,0.7,1.1,1.4,1c0.6,0,1.3-0.5,1.3-1.1l0,0C21.3-18.7,20.6-19.2,19.9-19.2z"/>
																				<path id="Path_3840_1_" class="st15" d="M19.4-16.6c-0.3,0-0.5-0.2-0.5-0.4c0-0.2,0.2-0.4,0.5-0.4
																					c0.2,0,0.4,0.2,0.4,0.4S19.6-16.6,19.4-16.6L19.4-16.6z"/>
																				<path id="Path_3841_1_" class="st9" d="M21.1-17.9c-0.2,0-0.3-0.1-0.3-0.3c0-0.1,0.1-0.3,0.3-0.3
																					c0.2,0,0.3,0.1,0.3,0.3l0,0C21.4-18.2,21.2-18.1,21.1-17.9z"/>
																				
																					<ellipse id="Ellipse_295_1_" transform="matrix(-0.9999 1.700008e-02 -1.700008e-02 -0.9999 38.3369 -34.7503)" class="st16" cx="19.3" cy="-17.2" rx="0.2" ry="0.1"/>
																			</g>
																		</g>
																	</g>
																</g>
															</g>
														</g>
													</g>
												</g>
											</g>
										</g>
									</g>
									<path id="Path_3843_1_" class="st12" d="M26.7-19.4c1.6-0.3,2.9-1.1,3.7-2.3c-0.2,1.1-1,2.1-2.3,2.5L26.7-19.4z"/>
									<path id="Path_3844_1_" class="st12" d="M25-19.2c1.6-0.3,3-1.1,3.7-2.3c-0.2,1.1-1,2.1-2.3,2.5L25-19.2z"/>
									<path id="Path_3845_1_" class="st12" d="M23.5-18.6c1.4-0.3,2.9-1.3,3.6-2.6C26.9-20,26.2-19,25-18.6H23.5z"/>
								</g>
							</g>
							<path id="Path_3846_1_" class="st17" d="M18-17c-0.2,0.6-0.1,1.2,0.3,1.7c0.2,0.4,0.3,0.9,1,0.5c1.4-0.7,3-1.7,4.3-2.6
								c5.7-3.9,4.9-3.9,10.8-2.4c-5.9-2.8-4.7-2.6-11.7,0.6C21-18.5,19.5-17.9,18-17z"/>
						</g>
					</g>
				</g>
			</g>
		</g>
		<path id="Path_3849" class="st18" d="M21.6,6.8c3.8-7.4,11.9-7.4,16.9-6.2c8,1.9,15.1,7.6,15.9,11.7C51.4,8.6,45,3,33.1,2.5
			C43,4,58.8,9.9,57.3,22.4c-0.2-1.8-0.9-3.5-2.1-4.9c1.5,5.2,5.6,13.2,1.3,21.7c1.1-4.3,1.3-7.2,0.6-8.8c-0.1,6-1.1,6.8-2.7,9.2
			c-2,3-2.8,9-4.8,14.4c0.3-7.2,3.6-14.7-3.1-19.6C41.9,31,35.3,31.6,29,29.7c1.5,1.2,3.1,2.2,5,2.7c-9.2-0.3-14.3-2.5-19.7-10
			c-0.5,3-0.3,6,0.5,8.9c-1.3-1.9-2-4.2-1.9-6.4c-2.1,11-1.7,13.7,3.3,28.1c1.2,3.5,2.8,6.8,5,9.8c-3.8-2.7-5.4-6.4-6.8-7.8
			c-4-3.8-8.8-10.6-8.8-16.5c-2.9-2-2-3.5-1.9-7.2c0.4-7.3,2.1-10.7,6.6-16.6c-6.1,5.9-7.2,10-7.1,18.9C0.3,24.4,4,10.5,13.7,7.2
			C16.2,6.1,19,6,21.6,6.8z"/>
		<path id="Path_3850" class="st19" d="M39.3,31c8.3,1.9,13.8,3.9,10.9,20.2c4.2-16.7,1.8-18-13.7-27.6C48,30,53.2,31.1,52.1,43.3
			c2.6-11.7-0.3-16.1-6-21.7c3.8,3,9.6,8.9,7.3,18.3c6.4-11.6,0.9-16.3-7.3-21.5c-6.9-4.3-17.8-6.1-25.8-7.9
			C20.6,26.1,25.4,27.9,39.3,31z"/>
		<path id="Path_3851" class="st19" d="M18.1,39.8c-6.2-6.2-6-10.3-6.7-14.7c-2,11.5,2.5,19,9.4,26.9c-20.3-8.9-17.4-38.9,1-45
			C11,18.2,11.5,30.6,18.1,39.8z"/>
		<path id="Path_3852" class="st20" d="M18.1,39.8c-6.2-6.2-5.5-15.2-6.2-19.6c-6.1,15,3.4,26.4,6.5,29.8
			C3.6,39.5,4.1,16.9,21.3,7.5C10.7,18.6,11.5,30.6,18.1,39.8z"/>
		<path id="Path_3853" class="st20" d="M18.8,11.4c-5.6,12.5,1.8,18.5,15.7,23C24.8,30.1,18.3,22.5,18.8,11.4z"/>
		<path id="Path_3854" class="st21" d="M19,10.3c-2.3,13,7.7,22.9,18.9,25.4C27.7,32.5,18.5,21.5,19,10.3z"/>
		<path id="Path_3855" class="st20" d="M51.1,38.9C50.3,26.2,38.9,30.7,29.2,19c7.2,4.6,18.2,6,21.8,14.6
			c-2.7-15-21.8-15.5-31.3-23.4C19.7,36.8,48.1,23.2,51.1,38.9z"/>
		<path id="Path_3856" class="st22" d="M50.6,38c-1-12.8-23.6-10.3-25-21.7c6.7,2.9,18.3,7.8,23,12.4c-3.4-6.9-18-22.8-28.8-18.5
			C24,35.3,47.5,22.2,50.6,38z"/>
		<path id="Path_3857" class="st20" d="M18.5,9.9c3.8-3.6,6.7-5.2,10.5-6c12.5-2.6,26.1,7,27.5,14.2c-3.9-5.9-10.5-7.2-17.2-9.5
			c5.5,3.3,6.6,2.5,11.1,7.7c-1.8-1.4-1.3-1.3-3.6-2c5.8,5.3,8.2,7.2,8.8,16.5c-1.9-7.5-9.8-12.4-15.8-14.3c1.9,2.3,2,2.1,3.2,4.9
			C36,14.5,29,9.7,18.5,9.9z"/>
		<path id="Path_3858" class="st17" d="M2.2,29.6c1.1-8.7,2.9-13.1,10.7-18.1C-3.1,31,6.2,46,19.7,60.9c-4-6.1-7.2-11.4-10.7-17.7
			c1.3,1.8,3.1,4.5,4.4,6.4C10.6,43.7,6.6,36.3,6.6,30c0-9.5,5.2-18.2,13.4-22.8C7.1,7,1.2,19,2.2,29.6z"/>
		<path id="Path_3859" class="st23" d="M20.3,9.2c4,25.1,28.9,11,31,31.3C48,20.1,21.3,35.9,20.3,9.2z"/>
		<path id="Path_3860" class="st24" d="M21.1,8.8c5.8,10.1,15.9,3.1,27,19.6C38.5,9.2,29.2,14.2,21.1,8.8z"/>
		<path id="Path_3861" class="st25" d="M20.9,9c1.9,11.2,17.8,8.2,25.2,16.7C39.4,16.1,25,18.8,20.9,9z"/>
		<path id="Path_3862" class="st21" d="M20.4,8.4C9,18.1,6.3,30.4,14.1,45.8C4.5,31.1,7.5,16.9,20.4,8.4z"/>
		<path id="Path_3863" class="st21" d="M20.8,8.6c7.7-2.1,31.7-3,36.3,11.7C54,4.4,27.3,2.4,20.8,8.6z"/>
		<path id="Path_3864" class="st21" d="M22.7,9.4c6.4,1.2,25.7,4.7,32.3,19.2C45.6,8.9,27.6,8.1,22.7,9.4z"/>
		<path id="Path_3865" class="st20" d="M54.2,15.9c3.3,8.1,4.6,13.8,2.3,24.3C60.3,27.5,58.6,23.4,54.2,15.9z"/>
		<path id="Path_3866" class="st20" d="M47.2,11.1c5.7,6.7,8.7,11.7,9.7,22.4C56.6,20.2,53.7,16.8,47.2,11.1z"/>
		<path id="Path_3867" class="st20" d="M51.8,27.6c1.6,8.6,1.8,14.5-2.6,24.2C55.5,40.2,54.6,35.8,51.8,27.6z"/>
		<path id="Path_3868" class="st20" d="M5.5,26.6c-1.2,9.1-0.9,17.9,6,27.4C3,43.9,2.4,38.6,5.5,26.6z"/>
		<path id="Path_3869" class="st25" d="M38.9,16.3c8.3,5.2,12.9,15,13.5,24.1C53.4,30.3,47.5,19.1,38.9,16.3z"/>
		<path id="Path_3870" class="st1" d="M18.6,7.7C8.8,12.3,3.1,21.2,2.5,30.2C1.6,20.2,8.7,10.2,18.6,7.7z"/>
		<path id="Path_3871" class="st1" d="M11.1,14.7c-6.1,9-6.4,19.5-2.3,27.6C2.9,34.1,3.9,21.9,11.1,14.7z"/>
		<path id="Path_3872" class="st1" d="M23.7,4.4c9.4-5.2,19-3.1,26.4,2.3C42.9-0.5,29.2-2.1,23.7,4.4z"/>
		<path id="Path_3873" class="st1" d="M22.8,5.8C15.5,4,9.3,7.2,5.2,12.1C8.8,6,17.8,2.5,22.8,5.8z"/>
		<path id="Path_3874" class="st1" d="M22.6,5.3c7.3-1.8,18.2-2.1,23.3,3.4C40.6,1.7,27.5,1.9,22.6,5.3z"/>
		<path id="Path_3875" class="st1" d="M39.3,11.4c6.8,3.2,15.5,9.8,16,17.3C55.6,20,45.3,11.9,39.3,11.4z"/>
		<path id="Path_3876" class="st1" d="M47.2,20.7c4.2,5.6,8.2,10.5,6,23.3C56.9,31.3,54,24,47.2,20.7z"/>
	</g>
	<path id="Path_7266" class="st26" d="M144.5,236.6l-76.7-1.3c13.6-44.8,26.7-88.3,40.6-134C120.6,147.1,132.3,191.2,144.5,236.6z"
		/>
</g>
</svg>
