<svg xmlns="http://www.w3.org/2000/svg" width="37.143" height="48.75" viewBox="0 0 37.143 48.75">
  <path id="LockIcon" d="M22.571,38.143A4.643,4.643,0,1,0,17.929,33.5,4.657,4.657,0,0,0,22.571,38.143ZM36.5,17.25H34.179V12.607a11.607,11.607,0,1,0-23.214,0V17.25H8.643A4.657,4.657,0,0,0,4,21.893V45.107A4.657,4.657,0,0,0,8.643,49.75H36.5a4.657,4.657,0,0,0,4.643-4.643V21.893A4.657,4.657,0,0,0,36.5,17.25ZM15.375,12.607a7.2,7.2,0,1,1,14.393,0V17.25H15.375ZM36.5,45.107H8.643V21.893H36.5Z" transform="translate(-4 -1)" fill="#ff900d"/>
</svg>
