<?xml version="1.0" encoding="utf-8"?>
<!-- Generator: Adobe Illustrator 23.1.0, SVG Export Plug-In . SVG Version: 6.00 Build 0)  -->
<svg version="1.1" id="Layer_1" xmlns="http://www.w3.org/2000/svg" xmlns:xlink="http://www.w3.org/1999/xlink" x="0px" y="0px"
	 viewBox="0 0 600 300" style="enable-background:new 0 0 600 300;" xml:space="preserve">
<style type="text/css">
	.st0{fill:#FF3333;}
	.st1{fill:#FFFFFF;}
	.st2{fill:#E8E8E8;}
	.st3{fill:#F7D2BA;}
	.st4{fill:#F2F2F2;}
	.st5{fill:#FF900D;}
	.st6{fill:#8C7168;}
	.st7{fill:#70594F;}
	.st8{fill:#F9B138;}
	.st9{fill:#83C15B;}
	.st10{fill:#68AD40;}
	.st11{fill:#CECECE;}
	.st12{fill:#FC7575;}
	.st13{fill:#34173A;}
	.st14{fill:#2846A6;}
	.st15{fill:#FD5E5A;}
	.st16{fill:#757AD8;}
	.st17{fill:#0F1D5B;}
	.st18{fill:#C5C6FC;}
	.st19{fill:#BE4744;}
	.st20{fill:#172866;}
	.st21{fill:#603E6B;}
	.st22{fill:#1B2B80;}
	.st23{fill:#B9BCFC;}
	.st24{fill:#E3E4FF;}
	.st25{fill:#795182;}
	.st26{fill:#552E5D;}
	.st27{fill:#C5C6FE;}
	.st28{fill:#2A417F;}
	.st29{fill:#FB8603;}
	.st30{fill:#0059AC;}
	.st31{fill:#3D2E3D;}
	.st32{fill:#4F80FF;}
	.st33{fill:#653870;}
	.st34{fill:#E6F7F0;}
	.st35{opacity:0.33;fill:#FB8603;enable-background:new    ;}
	.st36{fill:#95BAF9;}
	.st37{fill:#5C2C55;}
	.st38{fill:#F46060;}
	.st39{fill:#6265A8;}
	.st40{fill:#4F4F5B;}
	.st41{fill:#494949;}
	.st42{fill:#686868;}
	.st43{fill:#3A3A3A;}
</style>
<title>02fitslider5</title>
<g>
	<g>
		<g id="activity">
			<g>
				<path class="st0" d="M545,111.6c-2-14.3-12.5-28.4-28.2-31.9c-3.2-0.7-6.5-1.1-9.9-1.1c-9,0-17,3-25.2,9.4
					c-3.2,2.4-5.9,5.5-7.9,8.9l0,0l0,0c-2-3.5-4.7-6.5-7.9-8.9c-8.3-6.4-16.3-9.3-25.3-9.3c-3.3,0-6.6,0.4-9.9,1.2
					C415,83.4,406,97.4,404,111.8c-1.6,11.1,3.3,25.6,18.8,40.8c14.4,14.1,38.4,34.4,49.2,42.1l3.3,2.5l1.9-1.1
					c10.8-7.7,34.8-26.5,49.1-40.7C541.8,140.2,546.6,122.7,545,111.6z"/>
				<path class="st1" d="M547.9,138.8h-42.5c-0.9,0-1.8,0.5-2.2,1.3c-2,4.3-3.9,8.5-5.9,12.8c-2.8-10.7-5.6-21.3-8.3-32
					c-0.4-1.4-1.8-2.2-3.2-1.8c-0.9,0.2-1.6,0.9-1.8,1.8c-4.3,13.8-8.5,27.6-12.8,41.5l-6.5-60.6c-0.2-2.2-3.6-3.9-4.8-1.3
					L444.4,136l-1.6,3.6H437h-39c-3.3,0-3.3,5.1,0,5.1h46.4c0.9,0,1.8-0.5,2.2-1.3c4.6-10.6,9.2-21.2,13.8-31.8l6.8,63.4
					c0.1,1.4,1.3,2.5,2.7,2.4c1-0.1,1.9-0.7,2.3-1.7c4.6-14.9,9.2-29.8,13.8-44.7c2.7,10,5.3,20.1,8,30.1c0.5,2,3.8,2.7,4.7,0.6
					c2.4-5.2,4.8-10.4,7.2-15.6c0.4-0.7,0.6-1.5,0.9-2.2h6.3h34.8C551.2,143.9,551.2,138.8,547.9,138.8z"/>
			</g>
			<g>
				<path class="st2" d="M458.4,186.5c0,0-4.8-5.7-13.3-2.3c-2.1-2.9-5.7-4.1-9.1-3.1c0,0-4.2-9.5-14.5-9.5
					c-10.4,0-14.4,9.2-14.4,9.2s-10.3-1.9-14.7,5.7H458.4z"/>
				<path class="st3" d="M282.8,234.7h82.6c48.6-22.8,69.5-80.7,46.7-129.2S331.4,36,282.8,58.8s-69.5,80.7-46.7,129.2
					C245.8,208.6,262.3,225.1,282.8,234.7z"/>
				<path class="st4" d="M196.4,160.7c0,0,4.3-5.1,11.9-2.1c1.9-2.6,5.2-3.7,8.2-2.8c0,0,3.8-8.6,13-8.6c9.3,0,12.9,8.3,12.9,8.3
					s9.2-1.7,13.2,5.1L196.4,160.7z"/>
				<path class="st1" d="M301.4,119.9c0,0,4.1-4.9,11.4-2c1.8-2.5,4.9-3.6,7.9-2.7c0,0,3.6-8.2,12.5-8.2s12.4,7.9,12.4,7.9
					s8.8-1.6,12.7,4.9L301.4,119.9z"/>
				<path class="st1" d="M423,137.4c0,0-5.2-6.2-14.4-2.5c-2.2-3.1-6.2-4.5-9.9-3.4c0,0-4.5-10.4-15.8-10.4s-15.7,10-15.7,10
					s-11.2-2-16,6.2L423,137.4z"/>
			</g>
			<g>
				<g>
					
						<rect x="380" y="175.7" transform="matrix(0.9996 -2.652589e-02 2.652589e-02 0.9996 -4.5813 10.2461)" class="st5" width="7.9" height="4.2"/>
					<g>
						<path class="st6" d="M398.9,183.8c-0.7-0.5-1-1.3-0.8-2.2l0.5-2.4c0-0.5,0.4-0.8,0.9-0.8c0.2,0,0.4,0.1,0.5,0.2l4.5,3.2
							c0.4,0.2,0.6,0.8,0.4,1.2c-0.1,0.2-0.2,0.3-0.4,0.4l-1.9,1.3c-0.7,0.4-1.6,0.4-2.3,0L398.9,183.8z"/>
						<path class="st6" d="M369.5,184.6c0.6-0.6,0.9-1.4,0.7-2.2l-0.7-2.3c-0.1-0.5-0.5-0.8-1-0.7c-0.2,0-0.3,0.1-0.5,0.2l-4.3,3.5
							c-0.4,0.3-0.6,0.8-0.3,1.2c0.1,0.2,0.2,0.3,0.4,0.4l2,1.2c0.7,0.4,1.6,0.3,2.3-0.2L369.5,184.6z"/>
					</g>
					<g>
						<path class="st5" d="M410.1,203.7c0.4,14-10.7,25.7-24.7,26c-14,0.4-25.7-10.7-26-24.7c-0.4-14,10.7-25.6,24.6-26
							C398,178.6,409.7,189.7,410.1,203.7C410.1,203.7,410.1,203.7,410.1,203.7z"/>
						<path class="st1" d="M404,203.9c0.3,10.7-8.1,19.5-18.8,19.8s-19.5-8.1-19.8-18.8c-0.3-10.7,8.1-19.5,18.8-19.8c0,0,0,0,0,0
							C394.9,184.8,403.7,193.2,404,203.9C404,203.9,404,203.9,404,203.9z"/>
						<g>
							<path class="st7" d="M385.3,187.9c0,0.5-0.3,0.9-0.8,0.9c0,0,0,0,0,0c-0.5,0-0.9-0.4-0.9-0.8c0-0.5,0.4-0.9,0.8-0.9
								c0,0,0,0,0,0C384.9,187.1,385.2,187.4,385.3,187.9C385.3,187.9,385.3,187.9,385.3,187.9z"/>
							<path class="st7" d="M377.1,190.6c0,0.5-0.4,0.9-0.8,0.9c0,0,0,0,0,0c-0.5,0-0.9-0.4-0.9-0.9c0-0.5,0.4-0.9,0.9-0.9
								C376.7,189.8,377.1,190.2,377.1,190.6z"/>
							<path class="st7" d="M371.4,196.5c0,0.5-0.3,0.9-0.8,0.9c-0.5,0-0.9-0.3-0.9-0.8c0-0.5,0.3-0.9,0.8-0.9c0,0,0,0,0,0
								C371,195.6,371.3,196,371.4,196.5C371.4,196.5,371.4,196.5,371.4,196.5z"/>
							<path class="st7" d="M369,204.7c0,0.5-0.4,0.9-0.8,0.9c-0.5,0-0.9-0.4-0.9-0.8c0-0.5,0.4-0.9,0.8-0.9
								C368.6,203.9,369,204.2,369,204.7C369,204.7,369,204.7,369,204.7z"/>
							<path class="st7" d="M371.8,213.2c0,0.5-0.4,0.9-0.8,0.9c-0.5,0-0.9-0.4-0.9-0.8c0-0.5,0.4-0.9,0.8-0.9c0,0,0,0,0,0
								C371.4,212.3,371.8,212.7,371.8,213.2z"/>
							<path class="st7" d="M377.8,218.8c0,0.5-0.4,0.9-0.8,0.9c0,0,0,0,0,0c-0.5,0.1-0.9-0.3-1-0.8c-0.1-0.5,0.3-0.9,0.8-1
								c0.1,0,0.1,0,0.2,0C377.4,218,377.8,218.3,377.8,218.8z"/>
							<path class="st7" d="M386.1,220.8c-0.1,0.5-0.5,0.8-1,0.8c-0.4,0-0.7-0.4-0.8-0.8c0-0.5,0.4-0.9,0.8-0.9c0,0,0,0,0,0
								C385.7,219.9,386.1,220.3,386.1,220.8C386.1,220.7,386.1,220.8,386.1,220.8z"/>
							<path class="st7" d="M391.7,190.3c0,0.5,0.4,0.8,0.9,0.8c0,0,0,0,0,0c0.5,0.1,0.9-0.3,1-0.8c0.1-0.5-0.3-0.9-0.8-1
								c-0.1,0-0.1,0-0.2,0C392.1,189.4,391.7,189.7,391.7,190.3C391.7,190.2,391.7,190.2,391.7,190.3z"/>
							<path class="st7" d="M397.7,195.8c0,0.5,0.4,0.9,0.9,0.8c0.5,0,0.9-0.4,0.8-0.9c0-0.5-0.4-0.9-0.9-0.8
								C398,194.9,397.7,195.3,397.7,195.8C397.7,195.8,397.7,195.8,397.7,195.8z"/>
							<path class="st7" d="M400.5,203.9c0,0.5,0.4,0.8,0.9,0.8c0.5,0,0.8-0.4,0.8-0.8c0,0,0,0,0,0c0-0.5-0.4-0.8-0.9-0.8
								c0,0,0,0,0,0C400.8,203,400.4,203.4,400.5,203.9z"/>
							<path class="st7" d="M398.1,212.5c-0.1,0.5,0.3,0.9,0.8,1c0.5,0.1,0.9-0.3,1-0.8c0-0.1,0-0.1,0-0.2c-0.1-0.5-0.5-0.8-1-0.8
								C398.5,211.8,398.2,212.1,398.1,212.5z"/>
							<path class="st7" d="M392.4,218.5c0,0.5,0.4,0.8,0.9,0.8c0.5,0,0.8-0.4,0.8-0.9c0-0.5-0.4-0.8-0.9-0.8
								C392.8,217.6,392.4,218,392.4,218.5z"/>
						</g>
					</g>
				</g>
				<g>
					<path class="st7" d="M386.9,204.3c0,1.2-0.9,2.2-2.1,2.2c-1.2,0-2.2-0.9-2.2-2.1c0-1.2,0.9-2.2,2.1-2.2
						C385.9,202.2,386.9,203.1,386.9,204.3C386.9,204.3,386.9,204.3,386.9,204.3z"/>
					<path class="st7" d="M382.6,208L382.6,208c2.2-2.4,14.2-15.3,13.3-15.3c-0.9,0-12.3,12.1-14.4,14.3l0,0l-1.8,1l0.8,0.8l0.3,0.3
						l0.8,0.8L382.6,208z"/>
				</g>
				<path class="st5" d="M377.9,177.1l12-0.3c0.9,0,1.6-0.8,1.6-1.7c0-0.9-0.8-1.6-1.7-1.6l-12,0.3c-0.9,0.1-1.6,0.9-1.5,1.8
					C376.4,176.4,377.1,177,377.9,177.1z"/>
			</g>
			<g>
				<g>
					<rect x="505" y="206.8" class="st8" width="3.7" height="22.5"/>
					<path class="st9" d="M506.8,164.7c-8.5,0-11.9,25.1-13.2,41.1c-0.6,7,5.5,12.9,13.2,12.9l0,0c7.7,0,13.8-6,13.2-12.9
						C518.7,189.8,515.4,164.7,506.8,164.7z"/>
					<path class="st10" d="M493.6,205.8c1.3-16,4.7-41.1,13.2-41.1h0.4c-4.2,8.2-6.2,24.4-7.1,35.8c-0.6,7,5.5,12.9,13.2,12.9l0,0
						c1.7,0,3.5-0.3,5.1-0.9c-2.5,3.9-6.9,6.3-11.6,6.3l0,0C499.1,218.7,493.1,212.8,493.6,205.8z"/>
				</g>
				<g>
					<rect x="490.2" y="214.8" class="st8" width="2.4" height="14.5"/>
					<path class="st9" d="M491.4,187.7c-5.5,0-7.7,16.2-8.5,26.5c-0.4,4.5,3.5,8.3,8.5,8.3l0,0c5,0,8.9-3.8,8.5-8.3
						C499,203.8,496.8,187.7,491.4,187.7z"/>
					<path class="st10" d="M482.8,214.2c0.8-10.3,3-26.5,8.5-26.5h0.3c-2.7,5.3-4,15.7-4.6,23.1c-0.4,4.5,3.5,8.3,8.5,8.3l0,0
						c1.1,0,2.2-0.2,3.3-0.6c-1.6,2.5-4.5,4.1-7.5,4l0,0C486.4,222.5,482.5,218.7,482.8,214.2z"/>
				</g>
				<path class="st9" d="M73.2,240.9H577c3.2,0,5.8-2.6,5.9-5.8l0,0c0-3.2-2.6-5.8-5.9-5.9H73.2c-3.2,0-5.8,2.6-5.9,5.9l0,0
					C67.3,238.3,69.9,240.9,73.2,240.9z"/>
				<g>
					<path class="st9" d="M552.5,229.2c0,0-0.8-7.6-4.8-11c-4-3.5-6.5,3.7-6.5,3.7s-2.6-5.3,4.3-8.3c6.8-3,9.7,10.4,9.7,10.4
						c0.4-3,0.2-6.1-0.7-9c-1.5-4.6-3-7.1-6.3-6c0,0,0.7-1.6,4.3-2.2s7,9.4,6.3,16.3c0,0,2.4-10.4,4.2-12.2s5.1,3.6,5.1,3.6
						c-0.9-0.2-1.7-0.4-2.6-0.5c-0.8,0-3.8,9.4-3.8,9.4s4.2-4.7,5.7-4.9s3.6,5.1,3.6,5.1c-1.5-0.7-3.2-1.2-4.8-1.5
						c-1.3,0-4.1,7.2-4.1,7.2L552.5,229.2z"/>
					<path class="st1" d="M541.5,219.4c0.1-0.3,0.2-0.6,0.4-0.9c0.4-0.8,0.8-1.5,1.4-2.2c0.4-0.5,0.8-0.9,1.3-1.3
						c0.3-0.2,0.6-0.3,0.9-0.4c0.3-0.1,0.7-0.1,1.1,0c0.7,0.2,1.3,0.5,1.9,1c0.6,0.5,1.1,1,1.6,1.5c0.4,0.6,0.9,1.1,1.3,1.7
						c0.2,0.3,0.4,0.6,0.6,0.9c0.2,0.3,0.3,0.6,0.4,0.9c0.2,0.6,0.4,1.3,0.6,1.9c0.2,0.6,0.3,1.2,0.4,1.7c0.3,1,0.4,1.9,0.5,2.5
						l0.2,1l-0.3-1c-0.2-0.6-0.4-1.5-0.7-2.5c-0.3-1.2-0.7-2.3-1.1-3.5c-0.1-0.3-0.3-0.6-0.4-0.9c-0.2-0.3-0.3-0.6-0.5-0.9
						c-0.4-0.6-0.8-1.1-1.3-1.7c-0.4-0.5-0.9-1-1.5-1.5c-0.5-0.4-1.1-0.8-1.7-0.9c-0.3-0.1-0.6-0.1-0.9,0c-0.3,0.1-0.6,0.2-0.8,0.4
						c-0.5,0.3-0.9,0.7-1.3,1.1c-0.6,0.6-1.1,1.3-1.5,2.1C541.7,218.7,541.6,219.1,541.5,219.4z"/>
					<path class="st1" d="M550.7,208h0.2c0.2,0,0.5,0,0.7,0.1c0.4,0.1,0.7,0.2,1.1,0.3c0.5,0.2,0.9,0.4,1.3,0.7
						c0.4,0.4,0.8,0.8,1.1,1.3l0.2,0.4l0.2,0.4c0.1,0.3,0.2,0.6,0.3,0.9c0.2,0.6,0.3,1.3,0.4,2c0.1,0.7,0.2,1.4,0.3,2
						c0.2,1.4,0.3,2.7,0.5,4c0.1,1.3,0.2,2.5,0.3,3.5c0.1,1,0.1,1.9,0.1,2.5s0,1,0,1s-0.2-1.4-0.4-3.4c-0.1-1-0.2-2.2-0.4-3.5
						c-0.2-1.3-0.3-2.6-0.5-4c-0.1-0.7-0.2-1.4-0.3-2c-0.1-0.7-0.2-1.3-0.4-1.9c-0.1-0.3-0.2-0.6-0.3-0.9c-0.1-0.3-0.1-0.3-0.2-0.4
						l-0.2-0.4c-0.3-0.5-0.6-0.9-1-1.3c-0.3-0.3-0.7-0.6-1.1-0.8c-0.3-0.2-0.7-0.3-1-0.4C551.4,208.1,551,208,550.7,208z"/>
					<path class="st1" d="M566.1,213l-0.7-0.3c-0.2-0.1-0.5-0.2-0.8-0.3l-0.5-0.1c-0.1,0-0.2,0-0.3,0c0,0,0,0.1-0.1,0.2
						c-0.2,0.4-0.3,0.8-0.4,1.3l-0.4,1.4c-0.3,1-0.6,2-0.9,3l-0.9,3l-0.8,2.6c-0.2,0.8-0.5,1.4-0.6,1.8l-0.2,0.7l0.2-0.7
						c0.1-0.5,0.3-1.1,0.5-1.9c0.2-0.8,0.4-1.7,0.7-2.7s0.6-2,0.9-3c0.3-1,0.6-2.1,1-3c0.2-0.5,0.3-0.9,0.5-1.4
						c0.1-0.4,0.3-0.8,0.5-1.3l0.1-0.1c0,0,0.1-0.1,0.2-0.1c0.1,0,0.2,0,0.3,0c0.2,0.1,0.3,0.1,0.5,0.2l0.8,0.4L566.1,213z"/>
					<path class="st1" d="M570,222.4l-1.5-1.1l-0.7-0.6c-0.3-0.2-0.5-0.4-0.8-0.6h-0.1l0,0l0,0h-0.1c-0.1,0.1-0.3,0.2-0.4,0.4
						c-0.3,0.3-0.5,0.5-0.8,0.8c-0.5,0.6-1,1.1-1.5,1.7l-1.3,1.5l-0.9,1l-0.4,0.4c0,0,0.1-0.2,0.3-0.4s0.5-0.7,0.8-1.1
						c0.4-0.5,0.7-1,1.2-1.6s0.9-1.1,1.5-1.7c0.3-0.3,0.5-0.6,0.8-0.8c0.1-0.1,0.3-0.3,0.4-0.4c0,0,0.1-0.1,0.2-0.1h0.1h0.1
						c0.1,0,0.2,0.1,0.3,0.1c0.3,0.2,0.6,0.4,0.8,0.6c0.3,0.2,0.5,0.4,0.7,0.6c0.4,0.4,0.8,0.7,1,1L570,222.4z"/>
				</g>
			</g>
			<g>
				<path class="st11" d="M70.7,155.2H31.6c-0.1,0-0.2-0.1-0.2-0.2s0.1-0.2,0.2-0.2h39.1c0.1,0,0.2,0.1,0.2,0.2
					S70.8,155.2,70.7,155.2z"/>
				<path class="st11" d="M67.5,165.2H17.3c-0.1,0-0.2-0.1-0.2-0.2c0-0.1,0.1-0.2,0.2-0.2l0,0h50.3c0.1,0,0.2,0.1,0.2,0.2
					C67.7,165.1,67.7,165.2,67.5,165.2L67.5,165.2z"/>
				<path class="st11" d="M51.8,177.5H24.4c-0.1,0-0.2-0.1-0.2-0.2c0-0.1,0.1-0.2,0.2-0.2h0h27.4c0.1,0,0.2,0.1,0.2,0.2
					C52,177.4,51.9,177.5,51.8,177.5z"/>
				<g>
					<path class="st12" d="M102.9,196.9c-1.5,0.5-5.9,2.2-7.1,3.9l1.8,1.3c0,2.6,2.9,17.8,4.9,28.3c1.3-0.5,2.6-0.7,4-0.6l-1.6-29.5
						L102.9,196.9z"/>
					<path class="st13" d="M111.6,130.8c-0.1,0.1,0.8,6.7,0.4,7l-1.3,0.7L111.6,130.8z"/>
					<path class="st14" d="M106.9,131c0,0-2.8-2.2-4-2.2c-1.2,0-2.9,1.3-3.7,1c-0.8-0.3-0.8-0.8-0.8-0.8c-0.3,0.3-0.5,0.8-0.5,1.2
						c-0.1,0.6,1.9,1.1,2.7,1.4s0.9,0.6,0.9,0.6s-2.9,1.1-4.5-0.3c-0.8-0.6-1.5-1.4-2-2.2c0,0-0.6,1.5-0.3,2c-1-0.2-1.8-0.8-2.1-1.8
						c-0.5-1.5-0.2-1.9-0.2-1.9c-0.5,0.2-0.9,0.6-1,1.1c-0.3,1-1.4,0.7-1.4,0.7c-0.3,1.2-0.1,2.6,0.6,3.6c1.7,2.5,4.4,4,7.4,4.1
						c2.2,0,5.6-0.9,6.3-2.7c0.4-1,0.9-1.9,1.6-2.7L106.9,131z"/>
					<path class="st15" d="M104.3,142.8c1.1,0.4,2.1,1,2.9,1.8c1.4,1.4-2,18.5,0,18.5c2,0,11.9-2.3,13.4-3.8
						c1.5-1.5,1.3-3.2,4.3-3.6c3-0.3,1.3,1.4,0.6,1.4s-1,0.4-1,0.7c0,0.3,1.9,0.1,2.4,0.7c0.5,0.5,0.1,5-1,5c-1.1,0-1.6-1.5-4.3-0.6
						c-2.8,0.9-17.3,8.4-20.2,6.3C98.3,167.1,104.3,142.8,104.3,142.8z"/>
					<path class="st16" d="M102.6,142.3c0,0,3.4-0.2,4.8,0.7c1.5,0.9,0,16,0,16l-7.7-2.2L102.6,142.3z"/>
					<path class="st17" d="M74.4,171.9l13.3,9.1c0,0,2.1-3.2,3.9-6.8L80.9,168C76.1,169.7,74.4,171.9,74.4,171.9z"/>
					<path class="st18" d="M106.9,157.4c2.9-2.8,1.1-4.3,0-9.2c-0.6-2.5-0.9-5-1-7.5c0-3.1-6.1-3-6.7-2.3s-8.2,9.3-11,16.5
						c-2,4.6-4.5,9-7.3,13.1l10.7,6.1c0.5-1,1-2,1.4-2.9C94.9,166.6,104.1,160.2,106.9,157.4z"/>
					<path class="st15" d="M106.7,130.8l-7.6,7.5c0,0,3.8,4.9,5.9,4.4c0.5-1.7,1.3-3.4,2.4-4.8c1.4-1.4,4-2.5,3.4-2.5
						S106.7,130.8,106.7,130.8z"/>
					<path class="st19" d="M105.8,131.8l1-1c0,0,3.5,4.7,4.1,4.7c0.6,0-0.8,0.6-2,1.4C107.5,135.4,106.5,133.7,105.8,131.8z"/>
					<path class="st15" d="M67.8,195.1l-0.6,1.5c-1.7-0.7-3.4-1.1-5.2-1.4c-1.3,0-13.9,1-22.6,1.5c-1.2,1.2-2.3,2.6-3.1,4.1
						c10.5,1.4,31.9,4.2,33.8,4.2c0.6,0,1.9-1.2,3.3-3C71.7,199.7,69.7,197.4,67.8,195.1z"/>
					<g>
						<path class="st20" d="M31.7,203.6c0,0,7.1-6.3,9-6c1.6,0.4,2.5,1.9,2.2,3.5c0,0.1,0,0.1,0,0.2c-0.4,1.2-2.9,0.7-4.7,1.1
							c-1.8,0.5-3.6,1.1-5.3,1.7L31.7,203.6z"/>
						<path class="st5" d="M41,194.9l-12.6,0.4l-3.4,13.5c0,0,2.1,1.5,3.4,0.7c1.3-0.8,6-6.7,8.3-7.2c2.3-0.5,5.2-1.7,5.1-3.9
							C41.8,197.2,41.5,196,41,194.9z"/>
						<path class="st17" d="M32,194.3c0.7,0.6,1,1.6,0.7,2.5c-0.7,1.4-4.4,2.2-5.5,4.2c-1.1,2-1.3,8-1.3,8.3c0,0.3-0.8,0.8-1.3-0.6
							c-0.6-1.4,2.9-12.8,3.4-13.9C28.5,193.7,32,194.3,32,194.3z"/>
						<path class="st17" d="M29,196.1c0-0.3,0.4-2.9-0.5-4.3c-0.6-0.9-1.5-1.6-2.5-1.9l-1.1,2.9c0.9,0.9,1.5,2,1.7,3.2
							C26.8,197.5,29,196.1,29,196.1z"/>
						<path class="st21" d="M25.7,198.4c-1,0-1.8-0.9-1.8-1.9c0,0,0,0,0,0c-0.1-1,0.7-1.9,1.7-2c1,0,1.8,0.9,1.8,1.9c0,0,0,0,0,0
							C27.5,197.4,26.7,198.4,25.7,198.4z"/>
						<path class="st21" d="M24.5,202.6c-1,0-1.8-0.9-1.8-1.9c0,0,0,0,0,0c0.1-1,0.9-1.7,1.9-1.6c1,0.1,1.7,0.9,1.6,1.9
							C26.1,201.8,25.4,202.5,24.5,202.6z"/>
						<path class="st21" d="M23.3,207.3c-1.1,0.1-2.1-0.7-2.2-1.8c-0.1-1.1,0.7-2.1,1.8-2.2c1.1-0.1,2.1,0.7,2.2,1.8
							c0,0.1,0,0.1,0,0.2C25.1,206.3,24.3,207.2,23.3,207.3z"/>
						<path class="st21" d="M22,211.6c-1,0-1.8-0.8-1.8-1.9c-0.1-1,0.7-1.9,1.7-2c1,0,1.8,0.8,1.8,1.9
							C23.8,210.6,23.1,211.5,22,211.6z"/>
						<path class="st17" d="M25.7,204.1c0,0-4.8,4.6-4.5,5.8c0.2,1.2,3.8-1.1,3.8-1.1L25.7,204.1z"/>
						<path class="st22" d="M23.4,205.8l2-4.7l0.6-5.4l1.9-2c0.2-0.2,0.2-0.5,0-0.7c-0.2-0.2-0.4-0.2-0.6,0c0,0,0,0,0,0l-2.1,2.3
							l-0.6,5.6l-2,4.6c-0.1,0.2,0,0.5,0.2,0.7C23,206.1,23.3,206.1,23.4,205.8C23.4,205.8,23.4,205.8,23.4,205.8z"/>
						<path class="st23" d="M27.6,193.7c-0.1,0-0.2-0.1-0.2-0.2c0,0,0,0,0,0c0-0.1,0.1-0.3,0.2-0.3c0,0,0,0,0,0
							c0.1,0,0.3,0.1,0.3,0.3C27.8,193.5,27.7,193.6,27.6,193.7C27.6,193.7,27.6,193.7,27.6,193.7z"/>
						<path class="st23" d="M25.7,195.7c-0.1,0-0.2-0.1-0.2-0.3c0,0,0,0,0,0c0-0.1,0-0.3,0.2-0.3s0.3,0,0.3,0.2c0,0,0,0.1,0,0.1
							C25.9,195.5,25.8,195.7,25.7,195.7z"/>
						<path class="st23" d="M25.1,201c-0.1,0-0.2-0.1-0.2-0.3c0,0,0,0,0,0c0-0.1,0.1-0.2,0.3-0.2c0.1,0,0.2,0.1,0.2,0.3
							C25.3,200.9,25.2,201,25.1,201z"/>
						<path class="st23" d="M23,205.8c-0.1,0-0.3-0.1-0.3-0.3c0-0.1,0.1-0.3,0.3-0.3c0.1,0,0.2,0.1,0.3,0.2c0,0,0,0,0,0
							C23.3,205.6,23.2,205.8,23,205.8C23,205.8,23,205.8,23,205.8z"/>
						<path class="st23" d="M22,209.9c-0.1,0-0.2-0.1-0.2-0.3c0,0,0,0,0,0c0-0.1,0.1-0.2,0.2-0.3c0,0,0,0,0,0c0.1,0,0.2,0.1,0.2,0.2
							c0,0,0,0,0,0C22.2,209.7,22.1,209.8,22,209.9C22,209.9,22,209.9,22,209.9z"/>
						<path class="st22" d="M38.8,197.7l0.6,4.6l-2.2,0.4l-0.4-4.5c-0.1-0.6,0.2-1.1,0.7-1.3l0,0C38.1,196.8,38.6,197.1,38.8,197.7
							C38.8,197.7,38.8,197.7,38.8,197.7z"/>
						<path class="st22" d="M34.9,199.1L36,203l-2.2,1.3l-0.8-4.7c-0.1-0.6,0.2-1.1,0.7-1.3l0,0C34.2,198.1,34.8,198.4,34.9,199.1
							C34.9,199,34.9,199,34.9,199.1z"/>
						<path class="st22" d="M31.2,201.5l2,3.4l-1.8,1.7l-1.9-3.9c-0.3-0.5-0.1-1.1,0.3-1.5l0,0c0.4-0.3,1-0.2,1.3,0.2
							C31.1,201.5,31.1,201.5,31.2,201.5z"/>
					</g>
					<g>
						<path class="st20" d="M110.8,238.2c0,0-7.3-6.5-7.2-8.5c0-2,2.6-2.5,3.8-2.2c1.2,0.3,0.8,2.5,1.3,4.3c0.7,1.8,1.5,3.6,2.4,5.3
							L110.8,238.2z"/>
						<path class="st5" d="M100.8,229.7l1.9,12.9l14.2,1.9c0,0,1.3-2.3,0.3-3.6c-1-1.3-7.6-5.3-8.4-7.6c-0.8-2.3-2.4-5.1-4.6-4.8
							C102.9,228.6,101.8,229,100.8,229.7z"/>
						<path class="st17" d="M101.2,239c0.5-0.8,1.5-1.2,2.5-1c1.5,0.5,2.8,4.2,5,5.1c2.2,0.9,8.4,0.4,8.7,0.4c0.3,0,0.9,0.7-0.4,1.4
							c-1.3,0.8-13.4-1.4-14.7-1.8S101.2,239,101.2,239z"/>
						<path class="st17" d="M103.4,241.8c-0.3,0-3,0-4.3,1c-0.8,0.7-1.4,1.7-1.7,2.8l3.1,0.7c0.8-1,1.9-1.8,3.1-2.2
							C105.1,243.9,103.4,241.8,103.4,241.8z"/>
						<path class="st21" d="M106.2,244.9c0.1,1-0.7,2-1.7,2.1c0,0,0,0,0,0c-1,0.2-2.1-0.5-2.3-1.5c0-1.1,0.9-2.1,2-2.1
							C105.2,243.4,106,244,106.2,244.9z"/>
						<path class="st21" d="M110.6,245.7c0.1,1-0.7,2-1.7,2.1c0,0,0,0,0,0c-1,0.2-2.1-0.5-2.3-1.5c-0.1-1.1,0.7-2,1.7-2.1
							C109.3,244,110.4,244.6,110.6,245.7z"/>
						<path class="st21" d="M115.6,246.4c0,1.1-0.8,2.1-2,2.1c-1,0-1.8-0.6-2.1-1.6c-0.1-1.1,0.7-2,1.7-2.1c0,0,0,0,0,0
							C114.3,244.6,115.4,245.3,115.6,246.4z"/>
						<path class="st21" d="M120.1,247.1c0.1,1.1-0.7,2-1.7,2.1c-1,0.2-2.1-0.5-2.3-1.5c-0.1-1.1,0.7-2,1.7-2.1
							C118.8,245.3,119.9,246,120.1,247.1z"/>
						<path class="st17" d="M112,244.2c0,0,5.3,4.3,6.5,3.9s-1.6-3.7-1.6-3.7L112,244.2z"/>
						<path class="st22" d="M114,246.3l-5.1-1.5l-5.6,0.1l-2.3-1.7c-0.2-0.2-0.5-0.1-0.7,0.1c-0.2,0.2-0.2,0.4,0,0.6
							c0,0,0,0,0.1,0.1l2.5,1.9h5.8l4.9,1.5c0.3,0.1,0.5,0,0.7-0.3c0.1-0.2,0.1-0.5-0.1-0.6C114.1,246.4,114.1,246.4,114,246.3z"/>
						<path class="st23" d="M101.1,243.6c0,0.1-0.1,0.3-0.2,0.3c-0.1,0-0.3,0-0.3-0.2c0-0.1,0-0.3,0.2-0.3c0,0,0.1,0,0.1,0
							C100.9,243.4,101.1,243.4,101.1,243.6z"/>
						<path class="st23" d="M103.4,245.3c0,0.2-0.1,0.3-0.3,0.3c-0.1,0-0.2-0.1-0.3-0.2c0-0.1,0.1-0.3,0.2-0.3
							C103.2,245,103.4,245.1,103.4,245.3z"/>
						<path class="st23" d="M108.9,245.2c0,0.1-0.1,0.3-0.2,0.3c-0.1,0-0.3-0.1-0.3-0.2c0-0.1,0.1-0.3,0.2-0.3c0,0,0,0,0,0
							C108.8,245,108.9,245.1,108.9,245.2z"/>
						<path class="st23" d="M114.1,246.8c0,0.1-0.1,0.3-0.2,0.3c-0.1,0-0.3-0.1-0.3-0.2c0-0.1,0.1-0.3,0.2-0.3c0,0,0,0,0,0
							C113.9,246.5,114,246.6,114.1,246.8z"/>
						<path class="st23" d="M118.4,247.3c0,0.1-0.1,0.3-0.2,0.3c-0.1,0-0.3-0.1-0.3-0.2c0-0.1,0.1-0.3,0.2-0.3c0,0,0,0,0,0
							C118.2,247.1,118.3,247.2,118.4,247.3z"/>
						<path class="st22" d="M103.8,231.6l4.6-1.2l0.7,2.2l-4.5,0.9c-0.6,0.2-1.2,0-1.5-0.6l0,0C102.9,232.4,103.2,231.8,103.8,231.6
							C103.8,231.6,103.8,231.6,103.8,231.6z"/>
						<path class="st22" d="M105.7,235.4l3.9-1.6l1.6,2.1l-4.7,1.4c-0.6,0.2-1.2-0.1-1.4-0.6l0,0
							C104.8,236.2,105.1,235.6,105.7,235.4C105.7,235.4,105.7,235.4,105.7,235.4z"/>
						<path class="st22" d="M108.7,238.9l3.2-2.4l2,1.6l-3.8,2.5c-0.5,0.3-1.2,0.3-1.6-0.2l0,0c-0.4-0.4-0.4-1,0-1.4
							C108.6,239,108.7,239,108.7,238.9z"/>
					</g>
					<path class="st17" d="M75.6,176.2l-8,19.2c1.9,2.3,4.1,4.3,5.8,6.7c4.6-5.6,11.9-17,11.9-17L75.6,176.2z"/>
					<path class="st14" d="M82,170.3c-6.5-3.3-12.3,5.7-9.5,10.6c2.1,3.8,21.7,19,24.1,20.6c1.8-1.1,4.5-3.6,6.6-4.3
						C98.6,190,87.6,173.1,82,170.3z"/>
					<path class="st12" d="M123.2,158.5c0,0,4.2-0.5,4.4,0c0.4,1.3-0.2,1-0.2,1.7c0,0.7,0.3,0.7,0,1s-0.3,0.5-0.3,1.3
						c0,0.7-1,1.9-1.4,1.6c-0.4-0.4-3.5-1.4-3.5-2s2.1,0.3,2.1,0.3s-2.4-1-2.4-1.4s3.3,0.5,3.3,0.5s-2.9-0.7-3.1-1.3
						s1.5-0.5,3.2-0.2c-0.9-0.1-1.8-0.4-2.6-0.8C122.3,158.6,123.2,158.5,123.2,158.5z"/>
					<path class="st12" d="M100.7,143.3c0,5-16.4-1.3-17,3.5s3.5,19.1,4.3,19.1s3.3,1.5,3.3,2.6s0.4,2.9-0.1,3.4
						c-0.5,0.5-0.9,0.3-1.4,0.3s-0.9,0.3-1.7,0.3c-0.8,0-0.8,0.4-1.6,0.4c-0.9,0-1.7-0.2-2-2.2c0-1.6-0.3-3.1-0.9-4.6
						c-0.7-1.5-6.2-19.5-5-24.8C79.9,135.9,100.7,138.4,100.7,143.3z"/>
					<path class="st12" d="M114.7,121.5c0,0,2.5,1.4,2.5,3.6s-1.5,2.7-1.5,4c0,1,1.4,2,2,2.3c0.2,0.1,0.2,0.3,0.1,0.4c0,0,0,0,0,0
						c-0.2,0.4-0.5,0.7-0.9,1c0.1,0.4,0.2,0.8,0.2,1.3c0,0.5-0.7,0.4-0.7,0.4s0.4,0.8,0,0.9s-0.4,0.1-0.6,0.2
						c-0.4,0.3-0.7,0.8-0.8,1.3c-0.4,1-2.2,1.8-3.6-0.1c-2.2-3-3.5-5-3.8-6.6c-0.3-1.6-1.6-1.6-1.3-2.2c0.3-0.6,1.9-6.5,4.8-6.5
						L114.7,121.5z"/>
					<path class="st14" d="M112,121c-1.9,0.3-3.7,1.1-5.3,2.3c-2.7,2-1.9,7.7,0,8c1.9,0.3,5.2-3,5.2-4.7
						C111.9,124.8,114.7,122.9,112,121z"/>
					<path class="st12" d="M110.7,128.1c0,0-0.5-2.4-1.6-2s-1.4,2.2-1.4,3.2c0.1,0.8,0.8,1.4,1.6,1.3c0.3,0,0.6-0.1,0.8-0.3
						C110.6,129.6,110.8,128.8,110.7,128.1z"/>
					<path class="st15" d="M108.9,126.4c0,0,1.1,1.1,0.7,2.1s-0.9,0.9-1.4,0.4S107.7,125.9,108.9,126.4z"/>
					<path class="st14" d="M114.7,129.9c0.4-0.3,0.6-0.7,0.5-1.2L114.7,129.9z"/>
					<path class="st17" d="M116.8,128.6c-1,0.2-2.8,0.3-3.5-0.4C113.7,129.1,115.7,129.2,116.8,128.6z"/>
					<path class="st14" d="M113.3,127.4c0,0,1.7-0.7,2.1-0.5c0.3,0.2,0.2,0.5,0,0.6c-0.4,0-0.8,0-1.3,0
						C113.8,127.6,113.5,127.5,113.3,127.4z"/>
					<path class="st14" d="M116.3,134.5c-0.4,0-0.9-0.1-1.3-0.3C115.5,134.3,115.9,134.4,116.3,134.5z"/>
					<path class="st24" d="M86.8,137.4l0.5,9c0,0,9.6,1.8,12.2,0c1.9-1.3,2.3-3.9,0.9-5.8c0,0,0-0.1-0.1-0.1
						C98,138,86.8,137.4,86.8,137.4z"/>
					<path class="st21" d="M103.5,122.7c-0.5,1.8,0.2,6,1.6,7.4c1.4,1.4,3.8,3.4,4.6,3.4s-0.1-5,0.8-6.3c1.1-1.5,4.5-0.9,6.7-0.3
						c0.7,0.2,2.7-1.8,1.3-4.8S105.8,114.1,103.5,122.7z"/>
					<path class="st24" d="M116.9,122.4c-4.2-3-8.1-2.4-9.5-0.5s-0.4,3.5-1.3,3.6c-0.4,0-0.5-0.5-0.4-0.4c0.1-4.8,4.3-6,8.1-4.5
						C114.9,121.1,116,121.7,116.9,122.4z"/>
					<path class="st24" d="M108.7,130.8l-0.8,0.5c0,0,1.8,6.1,2.9,7.2l1.3-0.7L108.7,130.8z"/>
					<path class="st25" d="M109.7,129.9c-0.1,1-1,1.7-1.9,1.6c-1-0.1-1.7-1-1.6-1.9c0.1-0.9,0.9-1.6,1.8-1.7
						C108.9,128,109.7,128.9,109.7,129.9C109.7,129.9,109.7,129.9,109.7,129.9z"/>
					<polygon points="101.1,201.5 96.9,201.6 97.8,204.8 101.3,202.1 					"/>
					<path class="st26" d="M105.1,206.4c0.9-1.9,1.4-4,1.4-6.1c-0.2-3-4.7-5.1-4.7-5.1s0.8,4.9-0.8,5c-1.6,0.1-0.8,3.5,0.4,2.8
						C103.5,201.9,105.1,206.4,105.1,206.4z"/>
					<polygon points="65.7,196.1 68.2,200.3 68.8,200.3 67.6,195.2 					"/>
					<path class="st26" d="M64.1,204.4c0,0,4.2,2.5,6.7,1.8c2.5-0.7,3.8-5.7,3.8-5.7s-4.6,0.5-5.3-0.9c-0.7-1.4-2.4-0.2-2.1,0.6
						C67.9,202.3,64.1,204.4,64.1,204.4z"/>
					<polygon points="82.5,144 83.8,146.4 85.1,145.4 82.8,143.3 					"/>
					<path class="st26" d="M82.8,138c0,0-3.7-0.1-5.2,2c-1.6,2.1,0.4,6.7,0.4,6.7s3-2.7,4.4-2c1.4,0.7,1.8-1.1,1-1.5
						C82.6,142.8,82.8,138,82.8,138z"/>
					<path class="st14" d="M105.2,127.6c-0.4,0-0.7,0.1-0.9,0.4c-0.2,0.3,0.2,0.7,0.6,0.8c0.7,0.1,1.9-1.3,2.7-0.7
						c0.2,0.2,0.8,0.9,1,1c0.8,0.3,1.7,0.1,2.3-0.5l0,0c-0.1,0.4-0.4,0.8-0.8,1c-1.7,1.1-2.6-0.4-3-0.8c-0.3,0-0.7,0.1-1,0.2
						c-0.4,0.2-0.9,0.4-1.4,0.3c-0.7-0.1-1.1-0.7-1-1.4c0.2-0.5,0.6-0.9,1.1-1.1L105.2,127.6z"/>
					<polygon points="106.6,161.6 104.1,164.7 104.9,165.1 107.5,163.2 					"/>
					<path class="st26" d="M100,164.1c0,0-1.3,4.1,0.9,5.6s6.7-0.5,6.7-0.5s-2.4-2.6-1.8-4c0.6-1.4-1.5-2.1-1.8-1.3
						C103.5,164.7,100,164.1,100,164.1z"/>
				</g>
			</g>
			<g>
				<path class="st12" d="M195.8,159.5c-5.5-2.4-11.9-5.6-15.2-9.9c-4.4-5.8-10.8-14.2-14-19.4c-2.9-4.7-8.3-5.3-8.3-0.2
					c0,2.3,2.9,6.7,5.5,10.6c6.2,9.2,17.8,16.3,29.5,20.4l3.2-1.1L195.8,159.5z"/>
				<polygon class="st15" points="148.9,159.1 178,182.7 166.6,216.4 172.9,220.2 161.5,219.9 163.5,215.1 168.8,184.7 142.5,173.5 
									"/>
				<path class="st27" d="M162.9,215.3l-1.4,4.6l11.3,0.2l-3.6-2.6c0,0-2,0.2-3,0.2C165.3,217.7,164.1,215.3,162.9,215.3z"/>
				<path class="st16" d="M161.2,219.2c0,0-0.2,0.8,0.2,0.9c0.4,0.2,11.3,0.4,11.5,0.2s0.1-0.4-0.5-0.5
					C171.9,219.7,161.2,219.2,161.2,219.2z"/>
				<polygon class="st28" points="180.9,183.1 152.5,161.3 143.5,167.4 148.7,177.9 167.3,186.9 				"/>
				<path class="st5" d="M91.3,196.6c17.5-5,28.4-10.6,44.5-4.1c2,0.8,4.1,1.7,6.1,2.5l0.5-1.3c-4.4-1.9-8-3.9-12.3-5.2
					c-13.3-3.8-26.7,1.4-39.9,4.5L91.3,196.6z"/>
				<path class="st5" d="M136.3,173.3l8.1,21.3c-0.9,0.3-1.8,0.6-2.8,0.8l-8.1-21.1L136.3,173.3z"/>
				<path class="st29" d="M144.3,175.2l-13.8-0.7l-0.2-2.1c-0.2-1.6,1-3.1,2.6-3.3c0.1,0,0.3,0,0.4,0c3,0,6,0.7,8.7,2
					C146.8,173.7,144.3,175.2,144.3,175.2z"/>
				<rect x="162.7" y="219.9" class="st5" width="7.7" height="1.4"/>
				<polygon class="st30" points="155.6,228.8 167,221.2 166.1,220.1 154.8,227.6 				"/>
				<polygon class="st29" points="115,221.1 137.7,198.5 143.8,197.6 143.4,196.2 136.8,197.6 113.9,220.2 				"/>
				<path class="st23" d="M112,221.1c0,1.4,1.1,2.5,2.5,2.5s2.5-1.1,2.5-2.5c0-1.4-1.1-2.5-2.5-2.5S112,219.7,112,221.1z"/>
				<path class="st31" d="M160.8,227.2c0.4-3.1-1.8-5.9-4.9-6.2c0,0-0.1,0-0.1,0l-39.1-3.4c-1.1-0.1-2.1,0.6-2.4,1.7
					c-0.4,1.2,0.3,2.5,1.5,2.8c0,0,0,0,0,0l37.8,10.1c3.1,0.8,6.2-1.1,7-4.2C160.8,227.8,160.8,227.5,160.8,227.2z"/>
				<g>
					<path class="st32" d="M117,221v-0.2l0.1-0.1l21.4-4.7v-0.3l-21.2,4.7l0.2-0.3l17.9-11.2l-0.2-0.2l-17.4,10.9l11-17.2l-0.2-0.1
						l-11.4,17.7l-0.3,0.2l-0.1-1.3l3.9-19.3h-0.3l-3.8,18.5l-2.1-18.2h-0.3l2.2,19l-0.3,1.5l-8.8-18.5l-0.3,0.1l8.8,18.6l-0.8-0.3
						l-14.1-13.3l-0.2,0.2l13.5,12.8l-17-7.3l-0.1,0.3l17.8,7.6l0.4,0.4l-1.8,0.4l-18-1.8v0.3l17.2,1.7l-16.5,3.6v0.3l17.3-3.8
						l1,0.1l-15.7,9.8l0.2,0.2l16-10l0.9,0.1l-0.1,0.4l-10.3,16l0.2,0.2l9.9-15.4l-3.6,17.6l0.3,0.1l3.8-18.3l0.3-0.5l0.2,0.2
						l0.3,0.6l2.1,18.8h0.3l-2-18l7.8,16.6l0.3-0.1l-8.1-17.3l14.5,13.8l0.2-0.2l-14.8-14v-0.3l1.5,0.2l18,7.8l0.1-0.3l-17.3-7.4
						l19.4,1.9v-0.3l-20.3-2L117,221z"/>
					<path class="st33" d="M136.8,234.9c-8.3,11.1-23.9,13.4-35,5.1c-3.3-2.4-5.9-5.7-7.7-9.4c-3.6-7.9-2.7-17.2,2.5-24.2
						c5.2-7.1,13.8-10.9,22.6-10c8.7,0.8,16.4,6.2,20.1,14.2C142.9,218.6,141.9,227.8,136.8,234.9z M135.8,212.2
						c-5-10.6-17.6-15.1-28.2-10.1c-3.1,1.5-5.9,3.7-8,6.5c-4.4,5.9-5.2,13.8-2.1,20.5c5,10.6,17.6,15.1,28.2,10.1
						c3.1-1.5,5.9-3.7,8-6.5C138.1,226.7,138.9,218.9,135.8,212.2L135.8,212.2z"/>
					<path class="st34" d="M138.6,235.2c-11.8,16-36.8,13.4-45-4.5s6.5-38,26.5-36S150.3,219.2,138.6,235.2z M137.5,211.3
						c-7-15.2-28.2-17.3-38.1-3.8c-9.9,13.5-1.2,32.6,15.7,34.3C132,243.5,144.5,226.5,137.5,211.3L137.5,211.3z"/>
					<path class="st26" d="M140.6,237.6c-6.3,8.4-16.5,12.9-27,11.9c-10.4-1-19.5-7.5-24-16.9c-4.3-9.4-3.2-20.4,3-28.8
						c9.8-13.2,28.5-16,41.7-6.2c3.9,2.9,7.1,6.8,9.2,11.2C147.9,218.2,146.8,229.2,140.6,237.6z M139.5,210.6
						c-6-12.6-21-18-33.6-12c-3.7,1.8-7,4.4-9.5,7.8c-5.2,7.1-6.2,16.4-2.5,24.4c6,12.6,21,18,33.6,12c3.7-1.8,7-4.4,9.5-7.8
						C142.2,227.9,143.1,218.6,139.5,210.6z"/>
				</g>
				<g>
					<path class="st32" d="M213.1,220.8v-0.2l0.1-0.1l24.1-5.3l-0.1-0.3l-23.8,5.3l0.2-0.3l20.1-12.5l-0.2-0.3L214,219.2l12.4-19.4
						l-0.3-0.2l-12.8,19.9l-0.4,0.2l-0.2-1.4l4.4-21.7h-0.3l-4.2,20.8l-2.3-20.4h-0.3l2.4,21.4l-0.3,1.7l-9.8-20.8l-0.3,0.1
						l9.8,20.9l-0.9-0.4l-15.8-15l-0.2,0.2l15.2,14.4l-19.1-8.2l-0.1,0.3l19.9,8.6l0.4,0.4l-2,0.5l-20.3-2v0.3l19.3,1.9l-18.5,4.1
						l0.1,0.3l19.4-4.3l1.2,0.1l-17.7,11l0.2,0.3l18-11.3l1,0.1l-0.1,0.5l-11.6,18l0.3,0.2l11.1-17.3l-4,19.8h0.3l4.2-20.6l0.3-0.5
						l0.3,0.3l0.3,0.7l2.4,21.2h0.3l-2.3-20.2l8.8,18.6l0.3-0.1l-9.2-19.5l16.3,15.5l0.2-0.2L213.3,222v-0.3l1.7,0.2l20.3,8.8
						l0.1-0.3l-19.4-8.4l21.9,2.2v-0.3l-22.8-2.3L213.1,220.8z"/>
					<path class="st33" d="M233.9,234.9c-8.6,11.7-25.1,14.1-36.7,5.5c-3.5-2.6-6.3-6-8.2-10c-3.8-8.3-2.8-18.1,2.6-25.4
						c8.6-11.7,25.1-14.1,36.7-5.5c3.5,2.6,6.3,6,8.2,10C240.4,217.8,239.4,227.5,233.9,234.9z M232.9,211.1
						c-3.3-7.1-10.1-11.9-17.8-12.7c-7.8-0.8-15.5,2.6-20.1,8.9c-4.6,6.2-5.5,14.5-2.2,21.5c5.3,11.1,18.6,15.9,29.7,10.6
						c3.3-1.6,6.2-3.9,8.3-6.8C235.3,226.4,236.2,218.1,232.9,211.1L232.9,211.1z"/>
					<path class="st34" d="M235.8,235.7c-12.4,16.9-38.8,14.1-47.4-4.7s6.9-40,27.9-37.9C237.3,195.2,248.1,218.9,235.8,235.7z
						 M234.7,210.6c-7.4-16.1-29.7-18.2-40.1-4c-10.4,14.2-1.3,34.3,16.5,36.1S242.1,226.5,234.7,210.6z"/>
					<path class="st26" d="M238,237.8c-10.3,13.9-30,16.8-43.9,6.5c-4.1-3.1-7.5-7.1-9.7-11.8c-4.5-9.9-3.3-21.6,3.2-30.3
						c6.6-8.9,17.4-13.6,28.4-12.5c11,1,20.6,7.8,25.2,17.8C245.8,217.4,244.5,229,238,237.8z M236.8,209.4
						c-6.3-13.3-22.1-18.9-35.4-12.7c-3.9,1.9-7.4,4.7-10,8.2c-5.5,7.5-6.4,17.3-2.6,25.7c6.3,13.3,22.1,19,35.3,12.7
						c4-1.9,7.4-4.7,10-8.2C239.7,227.6,240.7,217.7,236.8,209.4L236.8,209.4z"/>
					<path class="st5" d="M215.7,221c0.1,1.7-1.1,3.1-2.8,3.3c-1.7,0.1-3.1-1.1-3.3-2.8s1.1-3.1,2.8-3.3c0,0,0,0,0.1,0
						C214.1,218,215.6,219.3,215.7,221C215.7,221,215.7,221,215.7,221z"/>
				</g>
				<path class="st32" d="M162.6,221.7c-0.3-0.2-1-0.8-1.3-0.5l-2.5-1.8c0.1-0.3-0.6-0.8-0.9-1l-2.7-0.3c-0.4,0.1-1.2,0.5-1.1,0.8
					l-2.8,1.3c-0.2-0.3-1,0.1-1.3,0.3l-1.6,2.2c-0.1,0.3-0.2,1.3,0.2,1.3l-0.3,3c-0.3,0-0.4,0.9-0.4,1.3l1.1,2.4
					c0.3,0.2,1,0.8,1.3,0.5l2.5,1.8c-0.1,0.3,0.6,0.8,0.9,1l2.7,0.3c0.4-0.1,1.2-0.5,1.1-0.8l2.8-1.3c0.2,0.3,1-0.1,1.3-0.3l1.6-2.2
					c0.1-0.4,0.2-1.3-0.2-1.3l0.3-3c0.3,0,0.4-0.9,0.4-1.3L162.6,221.7z M159.3,221.3l0.2,0.2l-3.8,4l-4.2-3.7
					C153.7,219.9,157,219.6,159.3,221.3L159.3,221.3z M150.8,222.8L150.8,222.8l4.2,3.6l-3.8,4C149.3,228.3,149.1,225.1,150.8,222.8
					L150.8,222.8z M152.2,231.2C152.2,231.2,152.2,231.2,152.2,231.2l3.7-4l4.1,3.5C157.9,232.7,154.7,232.8,152.2,231.2
					L152.2,231.2z M160.8,229.7L160.8,229.7l-4.2-3.5l3.8-4C162.3,224.3,162.5,227.4,160.8,229.7L160.8,229.7z"/>
				<polygon class="st5" points="212.8,220.1 211,220.1 192.3,170.8 194.2,170 				"/>
				<g>
					<path class="st5" d="M193.2,165l-4.4,1.6l3.5,6.9c-14.9,3.9-29.3,9.4-42.9,16.6c-6.9,3.7-13.5,7.9-19.8,12.5
						c-6.4,4.7-12.2,10-17.5,15.9c-1.1,1.3-0.9,3.2,0.3,4.2c0,0,0,0,0.1,0.1c1.3,1.1,3.3,0.9,4.4-0.4c7.8-9.2,16.8-17.2,27-23.6
						c0.3,0.2,16,8.5,16,8.5c1.3-1.5,4.5-7.6,16.3-15.8c10.6-7.4,18.2-10.1,19.1-10.9l0.1,0.3l1.5,3.6l3.1-1.3L193.2,165z
						 M158.6,202l-11.4-5.4c12.6-7.8,26.1-14.1,40.2-18.8C177.1,183.8,165.4,192.3,158.6,202z"/>
					<path class="st35" d="M195.4,180.5L195.4,180.5c-0.8,0.5-1.6,0.9-2.5,1.3l0,0c0-2.8-0.3-5.5-0.8-8.2h0.2h0.1h0.1L195.4,180.5z"
						/>
				</g>
				<polygon class="st30" points="144.1,238.8 155.7,227.2 154.7,226.3 143.1,237.9 				"/>
				<path class="st12" d="M148.7,162.8c-0.1,0.2,11.3,37.4,11.3,37.4L144.7,230l1.6,6.7l2.6,1h-5.3l-6-7.7l4.7-1.7l9.2-30.4
					l-21.3-35.9c0,0,0-0.3,0-0.8C136.4,161.3,142.6,161.8,148.7,162.8z"/>
				<polygon class="st24" points="141.4,227.7 143.1,231.9 145.8,233.6 146.3,236.7 148.9,237.7 143.5,238.3 137,230.2 				"/>
				<path class="st36" d="M136.3,230.4c0,0,6.4,8.1,6.7,8.1c0.2,0,0.3-0.1,0.4-0.2l-6.5-8.1C136.9,230.2,136.6,229.8,136.3,230.4z"
					/>
				<polygon class="st32" points="134.4,156.7 130.3,161.3 130.3,162.1 130.6,166 148.7,199 161,198 150.1,162.5 				"/>
				<path class="st11" d="M94.1,99.3h49.5c0.2,0,0.3-0.1,0.4-0.3s-0.1-0.3-0.3-0.4c0,0-0.1,0-0.1,0H94.1c-0.2,0-0.3,0.1-0.4,0.3
					c0,0.2,0.1,0.3,0.3,0.4C94.1,99.3,94.1,99.3,94.1,99.3z"/>
				<path class="st11" d="M102.3,109.1h49.5c0.2,0,0.3-0.1,0.3-0.3c0-0.2-0.1-0.3-0.3-0.3h-49.5c-0.2,0-0.3,0.1-0.3,0.3
					C101.9,108.9,102.1,109.1,102.3,109.1z"/>
				<path class="st5" d="M156.4,121.7c2.8,0,8,2,8.4,4c0,0,3.5,10.4,1.8,13.5c-1.6,2.8-8.2,14-11.8,20.4c-1.4,2.4-4.1,3.6-6.8,3.2
					c-5.9-0.8-11.8-1.3-17.7-1.4C130.4,157.1,134.4,136.4,156.4,121.7z"/>
				<g>
					<path class="st12" d="M156.4,121.7c0,0,6.3-7.2,8.8-9.5l2.5,4.1l-3.2,10.5c-0.7,2.2-2.7,1.8-4.5,0.3S156.4,123.9,156.4,121.7z"
						/>
					<path class="st15" d="M161.4,116c1.4-1.6,2.8-3,3.6-3.8l2.6,4.1l-2.1,6.8l-0.4-0.2C163,122.1,161.5,119.2,161.4,116z"/>
					<path class="st12" d="M176.7,109.9c0,0-1.9,6.5-5.6,8.2s-2.3,2.3-4.5,1.6c-2.3-0.8-3.8-4.1-3.2-7.3c0,0,0.1-6.6,4.4-7.1
						S177.8,106.2,176.7,109.9z"/>
					<path class="st37" d="M173.8,101.9c0.5,1,1.4,1.6,2.5,1.7c0.9,0,1.7-0.2,2-0.9c0.7-1.6,2.1-1.7,3.4,0s-0.4,4.5-1.6,4.5
						c0,0,0.3,2.4-1.9,2.4c-1.5-0.2-2.9-0.9-4-2c0,0-1,0.8-3.5,0.1s-2.5-1.3-3.2-0.6c-0.7,0.7-0.2,4.2-1.3,4.2c-1,0-0.4-1.6-1.3-1.1
						c-0.9,0.4-1.9,4.9-1.9,4.9s-0.6,1-1.6,0c0,0,1,0.5,1-1.2c0-1.7-2.2-6.4-0.7-9.8c1.5-3.3,3-1.6,4-2.3c1.2-0.7,2.6-1.1,4-1.1
						C171.2,100.8,173,100.7,173.8,101.9z"/>
					<path class="st37" d="M180.9,108.9c-0.6,0.8-2.1,1.3-4.1,0.3c1.3,1.3,3.4,1.5,4.9,0.5L180.9,108.9z"/>
					<path class="st37" d="M165.9,102.5c0-1.5-0.7-2.8-2.3-2.9v0.5C165,100,165.7,101.1,165.9,102.5z"/>
					<path class="st12" d="M165.6,110.3c0,0,0.5-2.7-0.9-2.2c-1.4,0.6-1.7,3.6-0.7,3.9C165.1,112.3,165.6,110.3,165.6,110.3z"/>
					<path class="st15" d="M165.3,108.9c0,0,0.3,1.9-0.4,2.3c-0.7,0.4-1.1-0.8-0.8-1.6C164.4,108.7,165,108.2,165.3,108.9z"/>
					<path class="st1" d="M169.6,117.4c-0.9-0.5-1.7-1.3-2.3-2.2c0.1,0.9,0.4,1.8,1,2.5L169.6,117.4z"/>
					<path class="st14" d="M175.3,112.4c-0.4-1.2-2.2-1.4-2.1-0.9c0,0.1,0.1,0.1,0.2,0.1c0.7-0.1,1.4,0.2,1.7,0.9
						C175,112.7,175.3,112.6,175.3,112.4z"/>
					<path class="st14" d="M171.7,111.1c0.4-0.1-0.4-1.7-1.7-1.7c-1.2,0-1.5-0.1-1.5,0.2c0,0.6,2.2-0.7,3,1.5
						C171.5,111.1,171.6,111.2,171.7,111.1C171.7,111.1,171.7,111.1,171.7,111.1z"/>
					<path class="st14" d="M170.3,115.1l1.4,0.3c0.5-1.7,0.5-2.2,0.8-2.1c0,0,0,0.4-0.5,2.5l-1.7-0.4c-0.1,0-0.2-0.1-0.1-0.2
						C170.1,115.1,170.2,115,170.3,115.1z"/>
					<path class="st14" d="M169.5,111.8c0,0.4,0.3,0.7,0.7,0.7c0,0,0,0,0,0c0.3,0.1,0.7-0.1,0.8-0.4c0.1-0.3-0.1-0.7-0.4-0.8
						c-0.1,0-0.2,0-0.4,0C169.8,111.2,169.5,111.5,169.5,111.8z"/>
					<path class="st14" d="M173,114.1c0,0.4,0.3,0.7,0.7,0.7c0.3,0.1,0.7-0.1,0.8-0.4c0.1-0.3-0.1-0.7-0.4-0.8
						c-0.1-0.1-0.3-0.1-0.4,0C173.3,113.5,173,113.7,173,114.1z"/>
				</g>
				<polygon class="st5" points="139.6,239.7 149.8,238.7 149.7,237.3 139.5,238.2 				"/>
				<path class="st5" d="M157.6,226.3c0,1.1-0.8,1.9-1.9,2c-1.1,0-1.9-0.8-2-1.9c0-1.1,0.8-1.9,1.9-2c0,0,0,0,0,0
					C156.7,224.3,157.6,225.2,157.6,226.3C157.6,226.2,157.6,226.2,157.6,226.3z"/>
				<path class="st38" d="M193.8,161.2c0,0-1.3-0.5-1.3-0.2c0,0.2,0.1,0.3,0.1,0.5c0.2,0.4,1,1.3,1.5,1.1
					C194.6,162.6,193.8,161.2,193.8,161.2z"/>
				<path class="st39" d="M175,170.4c-0.2-0.3-0.1-0.7,0.2-0.9c0,0,0,0,0,0c0.4-0.3,4.2-2.8,6.5-2.4c1.3,0.2,2.5,0.5,3.8,0.9
					c0.8,0.3,1.7,0.2,2.5-0.2l6.5-2.8c0.1-0.1,0.2-0.2,0.1-0.3c0-0.1-0.1-0.1-0.1-0.1c-1.4-0.5-1.6-1.3-1.6-1.9
					c0-2.1,3.6-2.7,4.3-2.8c0.3,0,0.7,0.2,0.7,0.5c0.1,0.3-0.2,0.7-0.5,0.7c0,0,0,0,0,0c-1.9,0.3-4.5,1.5-2.4,2.3
					c0.8,0.3,1.2,1.2,0.9,2c-0.1,0.4-0.4,0.7-0.8,0.9l-6.5,2.8c-1.1,0.5-2.2,0.5-3.4,0.2c-1.2-0.4-2.3-0.7-3.5-0.9
					c-1.5-0.2-4.5,1.5-5.6,2.2C175.7,170.8,175.3,170.8,175,170.4C175,170.5,175,170.4,175,170.4z"/>
				<path class="st12" d="M179.6,166.1l-1-0.3c-4.5-2.7-9.8-6.9-12.5-12c-3.5-6.8-7.2-18.6-9.8-24.7c-2.4-5.6-8.1-4.3-8.2,1.7
					c0.2,4.6,1.1,9.2,2.5,13.6c3.8,11,25.2,23.8,25.2,23.8c0.6,0.6,1.9,2.4,2.4,2.4c0.8-0.1,1.6-0.2,2.3-0.3c0.1,0,0.2-0.1,0.3-0.2
					c0.3-0.3,0.7-0.6,1.2-0.8c0.1,0,0.5-0.2,0.6-0.2C183.6,168.6,181.4,166.5,179.6,166.1z"/>
				<path class="st12" d="M194,162.8c-0.1-0.6-0.3-1.2-0.7-1.7c-0.8-1.1,3.2-1.1,3.2-1.1l0,0c0.6,0.4,0.9,1.2,0.6,1.9
					c-0.2,0.5-0.5,0.9-0.9,0.9c-0.8,0-0.7,0.8-1.5,0.5C193.9,162.9,194,162.8,194,162.8z"/>
				<polygon class="st5" points="188.8,166.6 190.9,170.5 194.9,169.3 193.2,165 				"/>
			</g>
			<g>
				<path class="st40" d="M437.4,226.3c-8.1,0-8.9-0.2-9.7-0.7l-4.6-2.4c-6.5,2.3-7.1,2.3-7.8,2.3H400v-4.6h14.7c1-0.3,3.7-1.2,6-2
					c0.7-0.4,1.5-0.6,2.3-0.6c0.9,0,1.9,0.2,2.7,0.7l5.1,2.6c2.4,0.1,10.7,0.1,13.1,0l5.1-2.6c0.8-0.5,1.7-0.7,2.7-0.7
					c0.8,0,1.6,0.2,2.3,0.6c2.3,0.8,5,1.7,6,2h15.4v4.6h-15.8c-0.7,0-1.3,0-7.8-2.3l-4.6,2.4C446.3,226.2,445.5,226.3,437.4,226.3z"
					/>
				<g>
					<path class="st41" d="M460.1,230.4v-14.8c0.1-1.9,1.7-3.4,3.6-3.4v21.6C461.8,233.9,460.1,232.4,460.1,230.4
						C460.1,230.4,460.1,230.4,460.1,230.4z"/>
					<path class="st41" d="M463.7,233.8v-21.6c1.9-0.1,3.6,1.4,3.7,3.4v14.8C467.3,232.4,465.6,233.9,463.7,233.8z"/>
				</g>
				<g>
					<path class="st42" d="M467.3,226.9v-7.8c0.1-1.6,1.4-2.9,3-2.8v13.4C468.8,229.8,467.4,228.5,467.3,226.9
						C467.3,226.9,467.3,226.9,467.3,226.9z"/>
					<path class="st42" d="M470.4,229.7v-13.4c1.6-0.1,3,1.2,3,2.8v7.8C473.4,228.5,472,229.8,470.4,229.7
						C470.4,229.7,470.4,229.7,470.4,229.7z"/>
				</g>
				<g>
					<path class="st41" d="M407.8,230.4v-14.8c0.1-1.9,1.7-3.4,3.7-3.4v21.6C409.5,233.9,407.9,232.4,407.8,230.4z"/>
					<path class="st41" d="M411.5,233.8v-21.6c1.9-0.1,3.6,1.4,3.6,3.4v14.8C415,232.3,413.4,233.9,411.5,233.8
						C411.5,233.8,411.5,233.8,411.5,233.8z"/>
				</g>
				<g>
					<path class="st42" d="M401.7,226.9v-7.8c0.1-1.6,1.4-2.9,3-2.8v13.4C403.2,229.8,401.8,228.5,401.7,226.9
						C401.7,226.9,401.7,226.9,401.7,226.9z"/>
					<path class="st42" d="M404.8,229.7v-13.4c1.6-0.1,3,1.2,3,2.8v7.8C407.8,228.5,406.4,229.8,404.8,229.7
						C404.8,229.7,404.8,229.7,404.8,229.7z"/>
				</g>
			</g>
			<g>
				
					<rect x="289.3" y="220.9" transform="matrix(9.999500e-03 -0.9999 0.9999 9.999500e-03 58.6445 518.866)" class="st7" width="4.2" height="17.9"/>
				<path class="st43" d="M272.4,233l0-8.2c0-0.9,0.7-1.6,1.6-1.6l5.5,0c0.9,0,1.6,0.7,1.6,1.6l0,8.2c0,0.9-0.7,1.6-1.6,1.6l-5.5,0
					C273.1,234.6,272.4,233.9,272.4,233z"/>
				<path class="st43" d="M297,233.9l0.1-8.2c0-0.9,0.7-1.6,1.6-1.5l5.5,0.1c0.9,0,1.6,0.7,1.5,1.6l-0.1,8.2c0,0.9-0.7,1.6-1.6,1.5
					l-5.5-0.1C297.7,235.5,297,234.8,297,233.9z"/>
			</g>
			<g>
				
					<rect x="257.4" y="215.7" transform="matrix(1.832498e-02 -0.9998 0.9998 1.832498e-02 43.7628 480.0417)" class="st7" width="17.9" height="4.2"/>
				<path class="st43" d="M260.4,233.2l0.1-5.5c0-0.9,0.7-1.6,1.6-1.5l8.2,0.2c0.9,0,1.6,0.7,1.5,1.6l-0.1,5.5
					c0,0.9-0.7,1.6-1.6,1.5l-8.2-0.2C261.1,234.8,260.4,234.1,260.4,233.2z"/>
				<path class="st43" d="M260.8,210.5l0.1-5.5c0-0.9,0.7-1.6,1.6-1.5l8.2,0.1c0.9,0,1.6,0.7,1.5,1.6l-0.1,5.5
					c0,0.9-0.7,1.6-1.6,1.5l-8.2-0.1C261.5,212,260.8,211.3,260.8,210.5z"/>
			</g>
		</g>
	</g>
</g>
</svg>
