<?xml version="1.0" encoding="utf-8"?>
<!-- Generator: Adobe Illustrator 23.1.0, SVG Export Plug-In . SVG Version: 6.00 Build 0)  -->
<svg version="1.1" id="Layer_1" xmlns="http://www.w3.org/2000/svg" xmlns:xlink="http://www.w3.org/1999/xlink" x="0px" y="0px"
	 viewBox="0 0 600 300" style="enable-background:new 0 0 600 300;" xml:space="preserve">
<style type="text/css">
	.st0{fill:#ADADAD;}
	.st1{fill:#C66300;}
	.st2{fill:#FF900D;}
	.st3{fill:#EFEFEF;}
	.st4{fill:#D9F3F4;}
	.st5{fill:#BCBCBC;}
</style>
<title>02fitslider6</title>
<g id="sleep">
	<path class="st0" d="M358.5,85.1c-12.7-0.1-22.9-10.5-22.8-23.2c0.1-11.1,8.1-20.5,19-22.4c-1.4-0.2-2.8-0.3-4.3-0.3
		c-16.4,0-29.6,13.3-29.6,29.6c0,16.4,13.3,29.6,29.6,29.6c15.8,0,28.9-12.4,29.6-28.3C376.7,79.1,368.1,85.1,358.5,85.1z"/>
	<g>
		<path class="st1" d="M457.5,216.5h-22.7c0,19.1,0.7,36,2.5,42.3c0,0,11.5,2.6,20,0c0,0-0.9-28.7,0-39.9
			C457.3,218.3,457.4,217.5,457.5,216.5z"/>
		<path class="st1" d="M140.2,255.5c9.4,4.6,21.9,0,21.9,0c1.3-7.4,2.2-21.7,2.8-39h-24.4C140.5,236.1,140.2,255.5,140.2,255.5z"/>
		<path class="st1" d="M128.8,52.1c16.1,2.9,34,11.9,35.7,18.7c1.7,6.8,1.6,116.1,1.6,116.1l-40,12.7L128.8,52.1z"/>
		<path class="st1" d="M477.5,130.7c-7-1-27.1,3.5-37.2,8.1l0,0c-1.7,0.6-3.2,1.8-4.2,3.3c0,0-1.6,40.6-1.4,74.4h22.7
			c0.2-3.1,0.4-7.8,0.6-13.3l15.2-1.8L477.5,130.7z"/>
		<path class="st2" d="M464,136.3c0,0-1,29.1-1.4,60.2H137.9c1.1-60.5,0.5-135.2,0.5-135.2c-4.5-14.6-28.5-11.8-27.1,0
			s0.2,103.5,1.2,125.7c0.9,22.2,0,79.2,0,79.2c9.4,5.1,21.9,0,21.9,0c0.8-5,1.4-12.8,2-22.5h326.7c0.4,10.7,1.1,19.2,2.1,23.4
			c0,0,11.5,2.9,20,0c0,0-0.9-32.2,0-44.7s2.3-79.4,3.6-86.1C490.1,129.6,468.2,128,464,136.3z"/>
		<path class="st3" d="M309.8,177.3h-156c-8.4,0-15.9,5.4-17.6,19.2h327.2c0,0,3.2-19.2-27.7-19.2H309.8z"/>
		<path class="st2" d="M241.3,164.9c-4.9-1.9-32.4-2.9-40.3-12c-7.8-9.1-18.8-27.2-28-35.2s-15.2-9-19.9-7.8c-2,0.5-3.5,1.9-4.3,3.8
			l0,0c-3.7,4.3-9.4,0-9.8,6c-0.3,5.4,6.7,5,9.2,10.2c0.4,2.4,1.2,4.5,1.5,6.4c5.4,41.9,23.6,43,36.7,45.2
			c10.5,1.8,23.7,0.7,36.3,0.2c3.4-0.1,9.6,7.3,14.1,5.3c4.4-2,1.3-3.9,4.2-8.8l0,0C245.6,173.7,244.7,166.2,241.3,164.9z"/>
		<path class="st4" d="M158.4,116.3c1.8,2.1,7.7,6.5,3.8,5.7c-3.8-0.7-9.1-1.8-8.3,0s11.8,7.8,8.9,8.1c-2.8,0.3-10.1,1.1-9,2.1
			s14.2,3,12.2,5.8c-2,2.7-3.3,3.5-2.2,5s5.4,4.6,4.7,6.6c-0.8,2,4.2,3.1,3.4,6.4s-3.8,7.8-2.4,9c1.5,1.2,6.7-2.3,7.7-1.2
			s-5,7.4-2.7,8.2c2.2,0.8,9.9-7.9,11.4-7s-1,5.4,1.6,6.2s2.2-4.3,6.9-2.9c4.6,1.4,5.8,6.4,8.8,4.8c3-1.6,4,5.1,6.1,3s2.6-7.5,5.9-7
			c3.4,0.5,5.3,5.5,6.9,3.2s4.7-1.3,6.6-1.1c1.9,0.2,4.3,7.2,5.9,2.6c1.6-4.7,1.3-6.1,4-4.5c2.2,1.3,3.3-0.6,5.4,0
			c-0.1-1.9-1.1-3.6-2.8-4.5c-4.9-1.9-32.4-2.9-40.3-12c-7.1-8.3-16.8-24-25.6-32.9l-3.5-1.9C163.7,115.7,156.7,114.2,158.4,116.3z"
			/>
	</g>
	<path class="st5" d="M204,67c0,0,10.4-2,11.1-1.7s-5.9,10.7-5.9,11.1s8.9-3.5,9.1-3.1c0.5,1.3,0.8,2.8,0.9,4.2
		c-0.3,0.3-11.4,2.7-12.2,1.9c-0.7-0.7,4.8-11.7,5-12s-7,2.6-7.4,2.4C204.2,69.7,203.7,66.8,204,67z"/>
	<path class="st5" d="M220,44.3c0,0,10.2,3.1,10.5,3.7c0.4,0.6-10.2,6.8-10.4,7.1s9.5,1,9.5,1.4c-0.2,1.4-0.6,2.8-1.1,4.1
		c-0.4,0.1-11.4-2.9-11.7-3.9s9.7-8.1,10-8.3s-7.5-1-7.7-1.3S219.8,44,220,44.3z"/>
	<path class="st5" d="M193.9,34.1c0,0,12-2.9,12.7-2.5s-6.3,12.8-6.2,13.2c0,0.4,10.1-4.5,10.3-4.1c0.7,1.5,1.1,3.2,1.3,4.8
		c-0.3,0.3-13.1,3.7-14.1,2.9s5-13.8,5.3-14.2s-8.1,3.5-8.5,3.2S193.5,33.9,193.9,34.1z"/>
	<polygon class="st5" points="344.5,130.2 337.6,129.1 340.7,125.4 336.8,128.4 335.8,122.1 334.8,128.4 330.9,125.4 334,129.1 
		327.1,130.2 334,131.4 330.9,135.1 334.8,132.1 335.8,138.4 336.8,132.1 340.7,135.1 337.6,131.4 	"/>
	<polygon class="st5" points="405.4,134.3 398.5,133.1 401.5,129.4 397.6,132.4 396.6,126.2 395.7,132.4 391.7,129.4 394.8,133.1 
		387.9,134.3 394.8,135.4 391.7,139.1 395.7,136.1 396.6,142.4 397.6,136.1 401.5,139.1 398.5,135.4 	"/>
	<polygon class="st5" points="420.3,82.1 409.6,80.3 414.4,74.6 408.3,79.2 406.8,69.5 405.3,79.2 399.2,74.6 404,80.3 393.2,82.1 
		404,83.9 399.2,89.6 405.3,85 406.8,94.7 408.3,85 414.4,89.6 409.6,83.9 	"/>
</g>
</svg>
