<?xml version="1.0" encoding="utf-8"?>
<!-- Generator: Adobe Illustrator 23.1.0, SVG Export Plug-In . SVG Version: 6.00 Build 0)  -->
<svg version="1.1" id="Layer_1" xmlns="http://www.w3.org/2000/svg" xmlns:xlink="http://www.w3.org/1999/xlink" x="0px" y="0px"
	 viewBox="0 0 600 300" style="enable-background:new 0 0 600 300;" xml:space="preserve">
<style type="text/css">
	.st0{opacity:0.58;fill:#DCECFF;enable-background:new    ;}
	.st1{fill:#DFDFDF;}
	.st2{fill:#FFFFFF;}
	.st3{fill:#F4F4F4;}
	.st4{fill:#A1A1A1;}
	.st5{fill:#FF900D;}
	.st6{fill:#5A5A5A;}
	.st7{fill:#AAB400;}
	.st8{fill:#B4B4B4;}
	.st9{opacity:0.7;fill:#808080;enable-background:new    ;}
	.st10{fill:#FF6428;}
	.st11{fill:#505050;}
	.st12{fill:#787878;}
	.st13{fill:#DCDCDC;}
	.st14{fill:#FDBF13;}
	.st15{fill:#E67800;}
	.st16{fill:#646464;}
	.st17{fill:#FFE095;}
	.st18{fill:#CECECE;}
	.st19{fill:#BABABA;}
	.st20{fill:#F9D51A;}
	.st21{fill:#C98700;}
	.st22{fill:#64B4C8;}
	.st23{fill:#FF9600;}
	.st24{fill:#969696;}
	.st25{fill:#BAC713;}
	.st26{fill:#EDEDED;}
	.st27{fill:#FFD200;}
	.st28{fill:#AB391A;}
	.st29{fill:#A4D7F3;}
	.st30{opacity:0.18;fill:#FFFFFF;enable-background:new    ;}
	.st31{fill:#DCECFF;}
</style>
<title>02fitslider4</title>
<g>
	<g>
		<g id="foodmaker">
			<g>
				<rect x="12.5" y="231.3" class="st0" width="575" height="3.8"/>
				<rect x="12.5" y="225.3" class="st0" width="575" height="3.8"/>
			</g>
			<g>
				<g>
					<g>
						<path class="st1" d="M392.3,186.2c0,0-10.7-0.1-12.5-3.6c-0.1-0.1-0.2-0.4-0.2-0.6c-1-4-1.1-17.5,0-19.6s5.8-8.1,6.1-9.4
							c0-1.6,0-3.2-0.1-4.7c0-0.4,0.7-0.5,0.7-0.5l0.2,4.8c0,0-0.2,0.1-0.1,0.2c4,3.8,6.2,9.2,6.1,14.7c0,3.3,0,8.7,0,12.8
							C392.3,183.6,392.3,186.2,392.3,186.2z"/>
						<path class="st2" d="M412.1,181.2c-1.1,3-19.7,5-19.7,5c-0.1-2.1-0.1-4.1-0.2-5.9c-0.1-13.5,1.7-19.6-6.1-27.4c0,0,0,0,0.1,0
							c3.5-0.1,7.1-0.1,10.5,0.1c2.5,0.1,4.8,0.1,7.3,0c0.7,0,1.2,0.2,1.2,0.1c0.1-0.4,0.1-0.9,0.1-1.2l0.5,1.2
							c0.2,0.1,0.5,0.2,0.6,0.5c0.4,0.6,1.1,1.6,2,3c1.7,3,3.8,7.4,3.6,11C411.7,173.6,413.3,178.2,412.1,181.2z"/>
						<path class="st3" d="M406.3,149.2v4.3h-0.7l-2-0.1l-7.2-0.4l-8.9-0.1H386v-5.1l5.8,0.4l0,0h0.2h0.1l12.5,0.9h0.1L406.3,149.2z
							"/>
					</g>
					<g>
						<path class="st4" d="M395.7,177.9v0.2c0,0.1,0,0.2,0,0.4c0,0.2,0,0.4-0.1,0.5c-0.1,0.1-0.2,0.2-0.4,0.4
							c-0.4,0.1-0.5-0.5-0.6-1.7c-0.1-1.9-0.4-5.2-0.7-10c-0.1-2.5-0.4-5-0.7-7.3c0-0.9,0.4-1.4,1.1-1.4h0.5c0.1,0,0.4,0.1,0.5,0.2
							c0.1,0.2,0.2,0.5,0.2,0.7c0,0.4-0.1,0.5-0.4,0.5h-0.4c-0.4,0-0.5,0.1-0.5,0.2c0,0.7,0.1,2,0.4,3.5s0.2,2.7,0.4,3.5
							c0.1,0,0.2-0.1,0.2-0.1c0.2-0.1,0.4-0.2,0.6-0.2c0.1,0,0.2,0.1,0.4,0.2c0.1,0.1,0.1,0.4,0.1,0.5c0,0.6-0.4,0.9-1.4,1
							c0,1,0.1,2.5,0.4,4.3C395.5,175.2,395.5,176.9,395.7,177.9z"/>
						<path class="st4" d="M397.5,163.9l0.5,6.1c0,0.2,0,0.6,0,0.9v0.5l0.2,4.2c0.1,1.2,0.4,1.9,0.6,1.7l0.6-0.2
							c0.5-0.1,0.9,0,0.9,0.6c0,0.1,0,0.4-0.1,0.5c0,0.1-0.1,0.2-0.2,0.4c-0.5-0.1-1-0.1-1.4,0c-0.1,0.1-0.2,0.4-0.5,0.4
							c-0.1,0-0.4,0-0.4-0.1c-0.1-0.1-0.1-0.4-0.1-0.6c-0.1-1.4-0.1-3.5-0.2-6.1s-0.2-4.6-0.2-5.8v-0.1c-0.1-1-0.2-1.9-0.2-2.4
							c-0.1-1.6,0-2.4,0.4-2.4c0.1,0,0.2,0.1,0.2,0.1c0.1,0.1,0.1,0.2,0.1,0.4L397.5,163.9z"/>
						<path class="st4" d="M400.4,170v-1c0-0.1,0-0.1,0-0.1v-0.5c-0.1-1.7-0.2-3.6-0.1-5.3c0-0.5,0.1-1.1,0.2-1.6
							c0.1-0.2,0.2-0.2,0.4-0.2c1,0,1.9,0.9,2.4,2.6c0.4,1.2,0.6,2.5,0.6,3.7v0.1l0.2,2.6c0.5,4.6,0,7.1-1.1,7.4
							c-0.5,0.1-1-0.2-1.4-1.2c-0.4-0.9-0.6-1.9-0.7-2.9C400.6,172.4,400.5,171.1,400.4,170z M401,166.7l0.1,2.2
							c0.1,2.1,0.5,4.1,0.9,6.2c0.1,0.6,0.4,1.2,0.9,1.7c0.1,0,0.4-0.2,0.4-0.5c0.1-0.4,0.2-0.7,0.2-1c0-0.4,0.1-0.9,0.1-1.4
							c0-0.5,0-0.9,0-1.5c0-0.9-0.1-1.6-0.1-2.2s-0.1-1.5-0.4-2.7c-0.2-1.2-0.2-2.1-0.4-2.7v-0.4c0-0.5-0.2-1-0.5-1.5
							c-0.2-0.4-0.5-0.6-0.9-0.6s-0.5,0.2-0.5,0.9s0,1.2,0,1.9L401,166.7z"/>
						<path class="st4" d="M407.3,166v0.4c0.7,6.4,0.6,10-0.5,10.3c-0.4,0.1-0.7-0.1-1-0.7c-0.2-0.6-0.5-1.2-0.6-1.9
							c-0.1-1-0.4-2.1-0.5-3.5c-0.1-1.4-0.4-3.1-0.5-5.5l-0.4-3.1c0-0.4,0.1-0.5,0.2-0.5s0.2,0.1,0.2,0.4c0.1,0.2,0.1,0.5,0.1,0.9
							l0.6,6.1c0,0.5,0.1,1.4,0.4,2.4c0.2,1,0.2,1.9,0.4,2.5c0.1,1.1,0.4,1.6,1,1.5c0.6-0.1,0.4-4.2-0.4-12l-0.1-1.2v-0.4
							c0-0.1,0-0.2,0-0.4c0-0.1,0.1-0.1,0.2-0.1s0.1,0,0.2,0.1c0.1,0.1,0.1,0.1,0.1,0.2c0,0.2,0.1,0.5,0.1,0.6l0.1,2.1L407.3,166z"
							/>
						<path class="st4" d="M408.8,168.3l0.2,2.4c0.1,1.5,0.4,3,0.7,4.5v0.6l-0.2,0.1l-0.1-0.2c0-0.6-0.1-1.5-0.2-2.2
							c-0.1-0.7-0.4-2.6-0.6-5.2s-0.6-4.5-0.7-5.7c-0.1-0.6,0-1,0.2-1c0.4,0,0.7,0.2,1,0.5c0.4,0.5,0.5,1,0.5,1.6l0.1,1.4
							c0,0.4,0,0.7,0,1.1c0,0.4-0.1,0.7-0.1,1s-0.1,0.6-0.1,0.6c0.1,0.4,0.2,1,0.5,2c0.2,1.6,0.7,3.1,1.2,4.7
							c0.1,0.2,0.1,0.4,0.1,0.6c0,0.1,0,0.2,0,0.4c0,0.1-0.1,0.2-0.1,0.2s-0.4-0.2-0.5-1s-0.4-1.5-0.6-2.2c-0.5-2.5-0.9-3.8-1-4.1
							H408.8z M408.2,162.2v0.2c0,0.5,0.1,1.4,0.2,2.4c0.1,1,0.2,1.9,0.2,2.4c0.2-0.4,0.2-0.9,0.2-1.4c0-0.5,0-1.1,0-1.6
							c0-0.4-0.1-0.6-0.1-0.9c0-0.2-0.1-0.4-0.1-0.6C408.7,162.4,408.4,162.2,408.2,162.2z"/>
					</g>
				</g>
				<g>
					<rect x="393.7" y="185.6" class="st5" width="3.6" height="23.9"/>
					<path class="st5" d="M411.9,231.3v-23.7c0-7.3-5.9-13.3-13.3-13.3h-6.1c-7.3,0-13.3,5.9-13.3,13.3l0,0v23.7H411.9z"/>
					<path class="st6" d="M415.7,230.4c-0.2,1.6-1.6,2.6-3.2,2.5h-33.8c-1.6,0.1-3-0.9-3.2-2.5l0,0c0-1.4,1.5-2.5,3.2-2.5h33.8
						C414.1,227.8,415.5,228.9,415.7,230.4z"/>
					<path class="st2" d="M407.1,212.3c0,6.3-5.1,11.5-11.5,11.5c-6.3,0-11.5-5.1-11.5-11.5c0-6.3,5.1-11.5,11.5-11.5
						S407.1,205.9,407.1,212.3L407.1,212.3z"/>
					<path class="st6" d="M374.7,183.3c3.2,2.7,11.4,4.7,20.9,4.7c9.5,0,17.7-2,20.9-4.7H374.7z"/>
					<path class="st6" d="M406.3,212.3c0,0.4-0.4,0.7-0.7,0.7h-2.4c-0.4,0-0.7-0.2-0.7-0.7l0,0c0-0.4,0.4-0.7,0.7-0.7h2.4
						C406,211.5,406.3,211.9,406.3,212.3z"/>
					<path class="st6" d="M388.6,212.3c0,0.4-0.4,0.7-0.7,0.7h-2.4c-0.4,0-0.7-0.2-0.7-0.7l0,0c0-0.4,0.4-0.7,0.7-0.7h2.4
						C388.2,211.5,388.6,211.9,388.6,212.3L388.6,212.3z"/>
					<path class="st6" d="M395.7,201.5c0.4,0,0.7,0.4,0.7,0.7v2.4c0,0.4-0.4,0.7-0.7,0.7l0,0c-0.4,0-0.7-0.4-0.7-0.7v-2.4
						C394.9,201.7,395.3,201.5,395.7,201.5z"/>
					<path class="st6" d="M395.7,219.2c0.4,0,0.7,0.4,0.7,0.7v2.4c0,0.4-0.4,0.7-0.7,0.7l0,0c-0.4,0-0.7-0.4-0.7-0.7v-2.4
						C394.9,219.5,395.3,219.2,395.7,219.2z"/>
					<path class="st6" d="M397.4,212.3L397.4,212.3c0-0.4-1.7-4.8-1.7-4.8s-1.7,4.6-1.7,4.8l0,0l0,0v0.1c-0.1,1,0.6,1.9,1.6,2
						s1.9-0.6,2-1.6C397.5,212.6,397.5,212.5,397.4,212.3C397.5,212.4,397.5,212.3,397.4,212.3L397.4,212.3z"/>
				</g>
			</g>
			<g>
				<path class="st7" d="M188,142.5l0.4-4.2c0.1-2.1,0-3.5-0.6-3.5s-1.1,1.2-1.4,3.3l-0.4,4.2h-0.5l0.5-5.3c0.1-1.6,0.9-2.9,1.7-2.9
					c0.9,0,1.4,1.5,1.1,3.1l-0.4,5.2H188z"/>
				<path class="st5" d="M163.7,136.5l25,2.2c0,0,1.9,41.6-12.3,41.8c-14.1,0.1-12.1-15.7-11.8-19.8c0,0-4.5,9.3-8.4,6.6
					c-3.6-2.4,3.5-11.3,5.5-15.4C162.7,150.4,163.7,136.5,163.7,136.5z"/>
				<g>
					<path class="st2" d="M177.8,170.6c-2-4.5-5.8,1-1,1.5c-4.8-0.4-2.1,5.6,0.7,1.6c-2.9,4,3.8,4.6,1.7,0.1c2.1,4.5,5.8-1,1-1.5
						c4.8,0.4,2-5.6-0.7-1.6C182.4,166.8,175.8,166.2,177.8,170.6z"/>
					<path class="st8" d="M179.3,172.4c0-0.4-0.2-0.7-0.7-0.9c-0.5-0.1-0.7,0.2-0.9,0.7c0,0.4,0.2,0.7,0.7,0.9l0,0
						C178.9,173,179.3,172.7,179.3,172.4z"/>
				</g>
				<g>
					<path class="st2" d="M167.9,154c-2.1-4.5-5.8,1-1,1.5c-4.8-0.4-2.1,5.6,0.7,1.6c-2.9,4,3.8,4.6,1.7,0.1c2.1,4.5,5.8-1,1-1.5
						c4.8,0.4,2.1-5.6-0.7-1.6C172.5,150.3,165.8,149.7,167.9,154z"/>
					<path class="st8" d="M169.4,155.8c0-0.4-0.2-0.7-0.7-0.9c-0.5-0.1-0.7,0.2-0.9,0.7c0,0.4,0.2,0.7,0.7,0.9l0,0
						C169,156.5,169.4,156.1,169.4,155.8z"/>
				</g>
				<g>
					<path class="st2" d="M181,144c-2-4.5-5.8,1-1,1.5c-4.8-0.4-2,5.6,0.7,1.6c-2.9,4,3.8,4.6,1.7,0.1c2.1,4.5,5.8-1,1-1.5
						c4.8,0.4,2-5.6-0.7-1.6C185.5,140.1,178.9,139.5,181,144z"/>
					<path class="st8" d="M182.5,145.6c0-0.4-0.2-0.7-0.7-0.9c-0.4,0-0.7,0.2-0.9,0.7c0,0.4,0.2,0.7,0.7,0.9
						C182,146.3,182.4,146.1,182.5,145.6L182.5,145.6z"/>
				</g>
				<path class="st2" d="M170.4,167.4c0-0.5-0.4-1-0.9-1.1s-1,0.4-1.1,0.9c-0.1,0.5,0.4,1,0.9,1.1S170.4,168,170.4,167.4
					L170.4,167.4z"/>
				<path class="st2" d="M161.2,161.7c0.1-0.5-0.2-1-0.9-1.1c-0.5-0.1-1,0.2-1.1,0.9v0.1c0,0.5,0.4,1,0.9,1.1
					C160.7,162.6,161.2,162.2,161.2,161.7z"/>
				<path class="st2" d="M178.1,160.2c0-0.5-0.4-1-0.9-1.1c-0.5,0-1,0.4-1.1,0.9c0,0.5,0.4,1,0.9,1.1l0,0
					C177.6,161.2,178.1,160.8,178.1,160.2L178.1,160.2z"/>
				<path class="st2" d="M174.5,149.6c0-0.5-0.4-1-0.9-1.1c-0.5-0.1-1,0.4-1.1,0.9c0,0.5,0.4,1,0.9,1.1
					C174,150.6,174.3,150.2,174.5,149.6L174.5,149.6z"/>
				<path class="st2" d="M168.5,140.8c0-0.5-0.4-1-0.9-1.1l0,0c-0.5,0-1,0.4-1.1,0.9c0,0.5,0.4,1,0.9,1.1
					C167.9,141.8,168.4,141.4,168.5,140.8z"/>
				<path class="st2" d="M186.2,154.4c0-0.5-0.4-1-0.9-1.1c-0.5,0-1,0.4-1.1,0.9c0,0.5,0.4,1,0.9,1.1l0,0
					C185.6,155.4,186.1,155,186.2,154.4C186.2,154.5,186.2,154.5,186.2,154.4z"/>
			</g>
			<g>
				<path class="st9" d="M158.1,227.9l0.1-21.8v-3.2c0-1.5-1.1-2.7-2.6-2.7l0,0h-8.2c-1.5,0-2.7,1.1-2.7,2.6l0,0v3.2v0.5l-0.1,21.3
					L158.1,227.9z"/>
				<g>
					<g>
						
							<rect x="142" y="210.1" transform="matrix(7.329694e-03 -1 1 7.329694e-03 -65.0438 368.1443)" class="st10" width="21.8" height="13.5"/>
						<path class="st2" d="M155.3,221.8c0.2,0,0.5,0.2,0.5,0.5c0,0.2-0.2,0.5-0.5,0.5c-0.2,0-0.5-0.2-0.5-0.5
							C154.6,222.1,154.9,221.8,155.3,221.8L155.3,221.8z"/>
						
							<rect x="139.2" y="216.2" transform="matrix(7.329694e-03 -1 1 7.329694e-03 -69.6813 363.5588)" class="st2" width="18.1" height="1.4"/>
						<path class="st2" d="M153,225.5c-0.2,0-0.5-0.2-0.5-0.5c0-0.2,0.2-0.5,0.5-0.5l0,0c0.2,0,0.5,0.2,0.5,0.5
							C153.6,225.3,153.4,225.5,153,225.5L153,225.5z"/>
						<path class="st2" d="M154.1,224c-0.2,0-0.5-0.2-0.5-0.5c0-0.2,0.2-0.5,0.5-0.5c0.2,0,0.5,0.2,0.5,0.5
							C154.6,223.8,154.4,224,154.1,224z"/>
						<path class="st2" d="M155.1,225.5c-0.2,0-0.5-0.2-0.5-0.5c0-0.2,0.2-0.5,0.5-0.5c0.2,0,0.5,0.2,0.5,0.5
							C155.8,225.3,155.5,225.5,155.1,225.5z"/>
						<path class="st2" d="M156.3,224.2c-0.2,0-0.5-0.2-0.5-0.5c0-0.2,0.4-0.5,0.6-0.5c0.2,0,0.4,0.2,0.5,0.5
							C156.7,223.9,156.5,224.2,156.3,224.2L156.3,224.2z"/>
						<path class="st2" d="M157.4,225.6c-0.2,0-0.5-0.2-0.5-0.5c0-0.2,0.2-0.5,0.5-0.5c0.2,0,0.5,0.2,0.5,0.5
							C157.9,225.4,157.6,225.5,157.4,225.6z"/>
						<path class="st11" d="M159.7,202.8c0-1.5-1.2-2.7-2.6-2.7h-8.2c-1.5,0-2.7,1.2-2.7,2.7v3.7l13.5,0.1L159.7,202.8z"/>
						<path class="st12" d="M157,200.1h-4.1v6.3h6.8v-3.7C159.7,201.4,158.5,200.1,157,200.1z"/>
					</g>
					<path class="st11" d="M151,210.3h3.1c1.9,0,3.3,0.7,3.3,2.7s-1.6,2.9-3.3,2.9h-1.2v2.9H151V210.3z M154,214.5
						c1.1,0,1.6-0.5,1.6-1.4c0-0.9-0.5-1.2-1.6-1.2h-1.1v2.6H154z"/>
				</g>
			</g>
			<g>
				<path class="st9" d="M162.8,198.9v31.8H180v-27.1l0,0V203l0,0v-4.1c0-1.9-1.5-3.5-3.5-3.5h-10.4
					C164.4,195.5,162.8,197,162.8,198.9z"/>
				<g>
					<g>
						<rect x="162.8" y="203.5" class="st2" width="17.2" height="27.8"/>
						<rect x="164.2" y="204.8" class="st13" width="14.5" height="25"/>
						<path class="st11" d="M180,199.4c0-1.9-1.5-3.5-3.5-3.5h-10.4c-1.9,0-3.5,1.5-3.5,3.5v4.7h17.2L180,199.4z"/>
						<rect x="165.2" y="205.8" class="st2" width="1.7" height="23"/>
						<g>
							<path class="st2" d="M172.5,227.6c0,0.4-0.2,0.7-0.7,0.7c-0.5,0-0.7-0.2-0.7-0.7c0-0.5,0.2-0.7,0.7-0.7
								C172.2,226.9,172.5,227.3,172.5,227.6L172.5,227.6z"/>
							<path class="st2" d="M175.2,227.6c0,0.4-0.2,0.6-0.6,0.7l0,0c-0.4,0-0.7-0.2-0.7-0.7l0,0c0-0.4,0.2-0.7,0.7-0.7l0,0
								C174.8,226.9,175.2,227.3,175.2,227.6L175.2,227.6z"/>
							<path class="st2" d="M177.9,227.6c0,0.4-0.4,0.6-0.7,0.6c-0.4,0-0.5-0.2-0.6-0.6c0-0.4,0.4-0.6,0.7-0.6
								C177.7,227.1,177.9,227.3,177.9,227.6z"/>
							<path class="st2" d="M173.8,225.8c0,0.4-0.2,0.7-0.7,0.7l0,0c-0.4,0-0.7-0.2-0.7-0.7l0,0c0-0.4,0.2-0.7,0.7-0.7l0,0
								C173.5,225,173.8,225.4,173.8,225.8L173.8,225.8z"/>
							<path class="st2" d="M176.6,225.8c0,0.4-0.2,0.7-0.7,0.7l0,0c-0.4,0-0.7-0.2-0.7-0.7l0,0c0-0.4,0.2-0.7,0.7-0.7l0,0
								C176.2,225,176.6,225.4,176.6,225.8L176.6,225.8z"/>
							<path class="st2" d="M175.2,224.2c0,0.4-0.2,0.7-0.7,0.7l0,0c-0.4,0-0.7-0.2-0.7-0.7c0-0.5,0.2-0.7,0.7-0.7l0,0
								C174.8,223.4,175.2,223.8,175.2,224.2L175.2,224.2z"/>
						</g>
						<path class="st12" d="M176.7,195.9h-5.2v8.1h8.6v-4.7C180,197.5,178.6,195.9,176.7,195.9z"/>
					</g>
					<path class="st11" d="M170.7,216.4c0.7,0.6,1.6,1,2.5,1c1,0,1.4-0.4,1.4-1c0-0.6-0.6-0.9-1.5-1.2l-1.4-0.5
						c-1.2-0.4-2-1.5-2-2.7c0.1-1.7,1.7-3.1,3.5-3h0.1c1.2,0,2.4,0.5,3.2,1.4l-1.1,1.5c-0.6-0.5-1.4-0.7-2.1-0.7
						c-0.7,0-1.2,0.4-1.2,0.9s0.6,0.9,1.5,1.2l1.2,0.5c1.2,0.4,2,1.5,2,2.7c0,1.6-1.4,3.1-3.7,3.1c-1.4,0-2.7-0.5-3.7-1.5
						L170.7,216.4z"/>
				</g>
			</g>
			<g>
				<g>
					<g>
						<rect x="267.1" y="213" class="st14" width="6.3" height="12.2"/>
						<rect x="279" y="213" class="st14" width="6.3" height="12.2"/>
						<rect x="291" y="213" class="st14" width="6.3" height="12.2"/>
						<rect x="302.9" y="213" class="st14" width="6.3" height="12.2"/>
						<rect x="315.1" y="213" class="st14" width="6.3" height="12.2"/>
						<rect x="327" y="213" class="st14" width="6.3" height="12.2"/>
					</g>
					<rect x="263.4" y="224.8" class="st6" width="72.5" height="7"/>
					<g>
						<path class="st15" d="M270.5,207.5c0,4.4-12.5,11.4-3.9,17.3h2.4c-3.2-4,1.3-8.7,1.3-11.7c0,2.9,4.6,7.6,1.3,11.7h2.4
							C282.8,218.9,270.5,211.9,270.5,207.5z"/>
						<path class="st15" d="M282.1,207.5c0,4.4-12.5,11.4-3.9,17.3h2.4c-3.2-4,1.3-8.7,1.3-11.7c0,2.9,4.6,7.6,1.3,11.7h2.4
							C294.6,218.9,282.1,211.9,282.1,207.5z"/>
						<path class="st15" d="M294,207.5c0,4.4-12.5,11.4-3.9,17.3h2.4c-3.2-4,1.3-8.7,1.3-11.7c0,2.9,4.6,7.6,1.3,11.7h2.4
							C306.5,218.9,294,211.9,294,207.5z"/>
						<path class="st15" d="M306.1,207.5c0,4.4-12.5,11.4-3.9,17.3h2.4c-3.2-4,1.3-8.7,1.3-11.7c0,2.9,4.6,7.6,1.3,11.7h2.4
							C318.6,218.9,306.1,211.9,306.1,207.5z"/>
						<path class="st15" d="M318.2,207.5c0,4.4-12.5,11.4-3.9,17.3h2.4c-3.2-4,1.3-8.7,1.3-11.7c0,2.9,4.6,7.6,1.3,11.7h2.4
							C330.6,218.9,318.2,211.9,318.2,207.5z"/>
						<path class="st15" d="M330.1,207.5c0,4.4-12.5,11.4-3.9,17.3h2.4c-3.2-4,1.3-8.7,1.3-11.7c0,2.9,4.6,7.6,1.3,11.7h2.4
							C342.5,218.9,330.1,211.9,330.1,207.5z"/>
					</g>
				</g>
				<g>
					<g>
						<g>
							
								<rect x="321.8" y="47.1" transform="matrix(0.4866 -0.8736 0.8736 0.4866 114.9281 312.9834)" class="st6" width="4" height="23.3"/>
							
								<rect x="307.9" y="57.6" transform="matrix(0.4907 -0.8713 0.8713 0.4907 108.6292 303.6306)" class="st6" width="12.3" height="2.5"/>
							
								<rect x="324.6" y="66.1" transform="matrix(0.4866 -0.8736 0.8736 0.4866 111.029 323.593)" class="st6" width="12.5" height="2.5"/>
						</g>
						<path class="st6" d="M319.1,67.1c-50-27.9-58.9-5.4-58.9-5.4l94.6,52.6C354.7,114.5,369.1,94.9,319.1,67.1z"/>
						<path class="st2" d="M279,65.9l-10.9-6c0,0,14.9-9.5,49.4,9.8C293.5,56.2,279,65.9,279,65.9z"/>
						
							<rect x="328.3" y="57.3" transform="matrix(0.4907 -0.8713 0.8713 0.4907 113.1414 320.0212)" class="st16" width="4" height="11.8"/>
						<path class="st12" d="M354.7,114.5c0,0,14.3-19.6-35.6-47.4l-11.7,21L354.7,114.5z"/>
					</g>
					<g>
						<path class="st17" d="M299.4,119.6c0,0-14.7-6.2,2-18.4C301.4,101.2,293,110.3,299.4,119.6z"/>
						<path class="st17" d="M301.4,108.2c0,0,7.4-6.4,0.7-16.3C302.2,91.7,315.3,100.6,301.4,108.2z"/>
					</g>
					<g>
						<path class="st17" d="M293.5,101.2c0,0,14.7-6.2-2-18.4C291.5,82.9,300.1,92.1,293.5,101.2z"/>
						<path class="st17" d="M291.5,89.9c0,0-7.4-6.4-0.7-16.3C290.8,73.4,277.6,82.2,291.5,89.9z"/>
					</g>
					<path class="st18" d="M360.1,136.9l-5.9,6.6v-12.3h5.8v-6.3h-120v6.3h5.9v12.3l-5.9-6.6h-18.1v11.7h18.1l5.9,6.8v36.8
						c0,5.8,4.7,10.4,10.4,10.4h87.3c5.8,0,10.4-4.7,10.4-10.4v-36.8l5.9-6.8H378v-11.7H360.1z"/>
					<rect x="252" y="136.9" class="st2" width="12.3" height="59.1"/>
					<path class="st19" d="M343.7,202.7c5.8,0,10.4-4.7,10.4-10.4v-36.8l5.9-6.8h18.1v-11.7h-18.1l-5.9,6.6v-12.3h5.8v-6.3h-59.9
						v77.8H343.7z"/>
					<rect x="245.8" y="131.1" class="st8" width="108.4" height="2.1"/>
				</g>
				<g>
					<path class="st20" d="M277.7,110.2c-0.4,0.4-0.1,1.3-0.8,1.7c-0.7,0.4-1.1-0.3-1.6-0.1c-0.5,0.1-0.7,0.8-1.1,0.9
						c-0.4,0.1-1.5-0.5-2-0.5l-0.1,0.1c-1.3,0.3-0.4,3.2-2.5,0.3c-0.1-0.1-0.3-0.4-0.4-0.5c0-0.3-0.1-0.5-0.1-0.8l0,0l0,0
						c-0.1-0.7-0.1-1.3,0-2c0.1-0.7,0.3-1.3,0.4-2.1c0-0.1,0-0.1,0-0.3c0.3-1.1,1.5-3.8,0.7-4.8c-0.8-1.1-2.5-0.9-4.2-0.8
						c-0.8,0-1.6,0-2.4,0c-0.3,0-0.5-0.1-0.8-0.3c-1.6-0.5-3.9-1.7-2.8-3.1c0.5-0.7,1.5,0.1,1.7-0.7c0.3-0.5-0.7-1.6-0.1-1.9
						c0.4-0.1,0.9,0.1,1.2-0.3c0.3-0.4-0.4-0.7-0.4-1.1c0.1-1.2,0.5-0.5,1.2-0.3c2.1,0.3-0.3-1.3,0.9-2c0.5-0.4,1.2,0.7,1.7,0.7
						c0.4-1.1-0.4-2.1,1.1-2c0.5,0,0.7,0.7,1.2,0.1c0.3-0.3,0-0.9,0.4-1.2c0.4-0.3,1.1,0.4,1.3,0.8c0.1-0.3,0.5-1.1,0.9-1.2
						c0.7-0.3,1.2,1.3,1.9,0.9c0.8-0.3,0.1-1.6,1.2-0.9c0.3,0.1,0.5,1.2,0.7,2.5c0.1,1.5,0.1,2.9-0.3,4.4c0,0.1,0,0.3-0.1,0.4
						c-0.4,1.1-1.7,3.5-0.3,4.3c0.8,0.4,2.7,0,4.4,0.4h0.1c0.8,0.1,1.6,0.4,2.3,0.8c1.7,0.7,3.3,1.9,3.5,2.8c0,0.9-1.1-0.1-1.5,0.5
						c-0.3,0.9,1.2,1.1,0.9,1.9c-0.3,0.8-2.3-0.8-2,0.5c0.8,2.7-1.5,1.6-2,2c-0.4,0.4,0,1.5-0.7,1.7
						C279.2,111.4,278.4,109.8,277.7,110.2z"/>
					<path class="st21" d="M277.7,110.2c-0.4,0.4-0.1,1.3-0.8,1.7c-0.7,0.4-1.1-0.3-1.6-0.1c-0.5,0.1-0.7,0.8-1.1,0.9
						c-0.4,0.1-1.5-0.5-2-0.5l-0.1,0.1c-1.3,0.3-0.4,3.2-2.5,0.3c-0.1-0.1-0.3-0.4-0.4-0.5c0-0.3-0.1-0.5-0.1-0.8l0,0l0,0
						c5.6,0.1,11-3.1,13.3-8.3c0-0.7-0.1-1.3-0.5-1.9c1.7,0.7,3.3,1.9,3.5,2.8c0,0.9-1.1-0.1-1.5,0.5c-0.3,0.9,1.2,1.1,0.9,1.9
						c-0.3,0.8-2.3-0.8-2,0.5c0.8,2.7-1.5,1.6-2,2c-0.4,0.4,0,1.5-0.7,1.7C279.3,110.9,278.4,109.8,277.7,110.2z"/>
					<path class="st21" d="M262.7,101c-1.6-0.5-3.9-1.7-2.8-3.1c0.5-0.7,1.5,0.1,1.7-0.7c0.3-0.5-0.7-1.6-0.1-1.9
						c0.4-0.1,0.9,0.1,1.2-0.3c0.3-0.4-0.4-0.7-0.4-1.1c0.1-1.2,0.5-0.5,1.2-0.3c2.1,0.3-0.3-1.3,0.9-2c0.5-0.4,1.2,0.7,1.7,0.7
						c0.4-1.1-0.4-2.1,1.1-2c0.5,0,0.7,0.7,1.2,0.1c0.3-0.3,0-0.9,0.4-1.2s1.1,0.4,1.3,0.8c0.1-0.3,0.5-1.1,0.9-1.2
						c0.7-0.3,1.2,1.3,1.9,0.9c0.8-0.3,0.1-1.6,1.2-0.9c0.3,0.1,0.5,1.2,0.7,2.5c-1.3-0.1-2.8,0-4.3,0.4c-2.1,0.9-3.9,2.3-5.8,3.6
						C263.2,96.1,263.6,99,262.7,101z"/>
					<g>
						<path class="st20" d="M253.2,90.8c-0.5,0.4-0.5,1.6-1.3,1.7c-0.8,0.3-1.2-0.5-1.9-0.4c-0.5,0-0.9,0.8-1.3,0.9
							c-0.4,0.1-1.5-0.9-2.1-1.1l-0.1,0.1c-1.6,0.1-1.1,3.6-2.9-0.1c-0.1-0.1-0.3-0.5-0.3-0.7c0-0.3,0-0.5-0.1-0.9l0,0l0,0
							c0-0.8,0.1-1.5,0.4-2.3c0.3-0.8,0.5-1.5,0.9-2.4c0-0.1,0-0.1,0.1-0.3c0.5-1.2,2.4-3.9,1.7-5.4s-2.7-1.5-4.4-1.7
							c-0.9-0.1-1.7-0.3-2.7-0.5c-0.3-0.1-0.7-0.3-0.8-0.5c-1.6-0.9-4.2-2.8-2.5-4c0.7-0.5,1.7,0.4,2-0.5c0.4-0.5-0.5-1.9,0.3-2.1
							c0.5-0.1,1.1,0.3,1.5-0.1c0.4-0.4-0.4-0.8-0.3-1.2c0.4-1.3,0.8-0.4,1.5-0.1c2.4,0.7-0.1-1.6,1.5-2.1c0.7-0.3,1.2,0.9,1.9,1.2
							c0.7-1.2,0-2.4,1.7-2c0.7,0.1,0.7,0.8,1.3,0.4c0.4-0.3,0.1-1.1,0.7-1.3c0.5-0.3,1.2,0.8,1.5,1.2c0.3-0.3,0.8-1.1,1.3-1.2
							c0.8-0.1,1.1,1.7,2,1.5c0.9-0.3,0.4-1.9,1.5-0.8c0.3,0.3,0.4,1.5,0.3,2.9c-0.1,1.7-0.5,3.3-1.1,5.1c0,0.1-0.1,0.3-0.1,0.4
							c-0.8,1.2-2.7,3.5-1.2,4.8c0.8,0.5,3.1,0.5,5,1.2h0.1c0.9,0.4,1.7,0.8,2.4,1.5c1.9,1.2,3.5,2.8,3.3,3.9s-1.2-0.3-1.9,0.3
							c-0.5,0.9,1.2,1.5,0.7,2.3c-0.5,0.8-2.4-1.5-2.4,0.3c0.4,3.2-2,1.5-2.5,1.9s-0.3,1.6-1.1,1.9C254.8,92.5,254,90.3,253.2,90.8z
							"/>
						<path class="st21" d="M253.2,90.9c-0.5,0.4-0.4,1.5-1.2,1.7c-0.8,0.3-1.2-0.5-1.9-0.4c-0.7,0.1-0.9,0.8-1.3,0.8
							c-0.5,0.1-1.5-0.9-2.1-1.1l-0.1,0.1c-1.6,0-1.1,3.5-2.9-0.1c-0.1-0.1-0.3-0.5-0.3-0.7c0-0.3,0-0.5-0.1-0.9l0,0l0,0
							c6.4,1.3,13-1.3,16.6-6.6c0.1-0.8,0-1.5-0.3-2.3c1.9,1.2,3.5,2.8,3.3,3.9s-1.2-0.3-1.9,0.3c-0.5,0.9,1.2,1.5,0.7,2.3
							c-0.4,0.8-2.4-1.3-2.4,0.1c0.5,3.1-2,1.5-2.5,1.7c-0.5,0.4-0.3,1.6-1.1,1.9C254.8,92,253.8,90.5,253.2,90.9z"/>
						<path class="st21" d="M238,77.3c-1.6-0.9-4.2-2.8-2.5-4c0.7-0.5,1.7,0.4,2-0.5c0.4-0.5-0.5-1.9,0.3-2.1
							c0.5-0.1,1.1,0.3,1.5-0.1c0.4-0.4-0.4-0.8-0.3-1.2c0.4-1.3,0.8-0.4,1.5-0.1c2.4,0.7-0.1-1.6,1.5-2.1c0.7-0.3,1.2,0.9,1.9,1.2
							c0.7-1.2,0-2.4,1.7-2c0.7,0.1,0.7,0.8,1.3,0.4c0.4-0.3,0.1-1.1,0.7-1.3c0.5-0.3,1.2,0.8,1.5,1.2c0.3-0.3,0.8-1.1,1.3-1.2
							c0.8-0.1,1.1,1.7,2,1.5c0.9-0.3,0.4-1.9,1.5-0.8c0.3,0.3,0.4,1.5,0.3,2.9c-1.6-0.5-3.2-0.5-5-0.4c-2.5,0.7-5,1.7-7.2,3.1
							C239.5,71.9,239.4,75.1,238,77.3z"/>
					</g>
				</g>
			</g>
			<g>
				<path class="st22" d="M414.4,217.7c-0.2,0.9,0.1,1.9,1.1,2.2l46,10c1,0.1,1.7-0.6,1.9-1.5l0,0c0.2-0.9-0.1-1.9-1-2.2l-46-10
					C415.2,216.1,414.4,216.7,414.4,217.7z"/>
				<path class="st23" d="M422.6,219.5c-0.5,2.4,0,4.5,1.9,4.8l27.1,5.9c1.9,0.4,3.1-1.2,3.6-3.6l0,0c0.5-2.4,0-4.3-1.9-4.8l-27-5.9
					C424.3,215.5,423.1,217.1,422.6,219.5z"/>
			</g>
			<g>
				<path class="st11" d="M503.1,208.5l-3.2,4.3l-0.2-0.1c-1.2-1-1.7-2.4-1.1-3.2l0,0c-0.6,0.2-1.2,0.4-1.7,0.6
					c-0.1,1.5,0.6,3,2,3.8l3,2.2c0.9,0.6,1.9,1,2.9,1c1.1,0,2.1-0.5,2.7-1.4l4.1-6.4c-2-0.5-4.1-0.7-6.1-0.7
					C504.6,208.5,503.9,208.5,503.1,208.5z"/>
				<path class="st12" d="M521.9,210.3c0,5.9-7.4,10.8-16.7,10.8c-9.3,0-16.7-4.8-16.7-10.8c0-5.9,8.6-10.8,16.7-10.8
					C514,199.5,521.9,204.3,521.9,210.3z"/>
				<path class="st6" d="M521.9,210.3c0-5.9-7.9-10.8-16.7-10.8v21.6C514.5,221.1,521.9,216.2,521.9,210.3z"/>
				<path class="st24" d="M490.8,214.4c2.4,3.2,8.2,5.8,14.4,5.8c6.2,0,12.1-2.6,14.4-5.8c-2.1-2.4-4.7-4-7.7-5
					c-5.1-1.2-13.9,0.1-16,0.9C494.1,211.3,492.3,212.6,490.8,214.4z"/>
				<path class="st11" d="M501.7,205.8c-0.7,0.1-1.6,0.2-2.4,0.5l-1.9,2.1c-0.1,0.1-0.2,0.2-0.2,0.4c0.9-0.2,1.6-0.6,2.5-0.7
					L501.7,205.8z"/>
				<path class="st11" d="M503.9,207.6c0.5,0,1,0,1.4,0c2.2,0,4.5,0.2,6.7,1l1-1.6c-2.5-0.9-5.1-1.2-7.6-1.2L503.9,207.6z"/>
				<path class="st6" d="M516,201.9l-0.6,1.1c1.5,0.7,2.7,1.7,4,2.9c1.1,1.1,1.9,2.7,1.9,4.3v0.1v0.1c0,5.3-7.1,9.5-15.9,9.5
					c-8.8,0-15.9-4.3-15.9-9.5c0,0,0,0,0-0.1s0-0.1,0-0.1c0-1.6,0.7-3.1,1.9-4.3c3.5-3.5,8.3-5.5,13.3-5.3l1-1.2
					c-11.3,0-20.2,7.9-20.2,17.3c0,9.5,8.9,17.3,20,17.3c11,0,20-7.8,20-17.3C525.3,210.5,521.3,205.1,516,201.9z"/>
				<path class="st2" d="M487.1,216.5c0-1.4,0.2-2.6,0.6-3.8c0.5,2.5,1.9,4.6,3.7,6.2c-0.1,0.7-0.2,1.5-0.2,2.4
					c0,2.2,0.6,4.3,1.7,6.2C489.5,224.8,487.2,220.8,487.1,216.5z"/>
				<path class="st11" d="M506.1,200.7l1.2-1.5c-0.6,0-1.2-0.1-1.9-0.1l-1.4,1.6h1.1C505.2,200.7,506.1,200.7,506.1,200.7z"/>
				<path class="st11" d="M508.7,201c2.4,0.2,4.6,1,6.7,2l0.6-1.1c-2-1.1-4.1-1.9-6.3-2.2L508.7,201z"/>
				<g>
					<path class="st12" d="M525.3,216.5c0-5.9-4-11.5-9.3-14.6l-0.6,1.1c1.5,0.7,2.7,1.7,4,2.9c1.1,1.1,1.9,2.7,1.9,4.3v0.1v0.1
						c0,5.3-7.1,9.5-15.9,9.5v13.9C516.4,233.8,525.3,226,525.3,216.5z"/>
					<path class="st12" d="M505.3,199.3v0.2l0.2-0.2H505.3z"/>
				</g>
				<path class="st25" d="M489.6,201.4l-3.7-3.6c-0.4-0.2-0.9-0.2-1.1,0c-0.2,0.4-0.2,0.9,0,1.1l0,0l3.6,3.5
					c-3.1,16.4,22.9,16.5,22.9,16.5C502.4,197.5,492.8,199.7,489.6,201.4z"/>
				<g>
					<path class="st7" d="M514.6,212.9h-1.5c0,0.1-0.1,0.1-0.1,0.2c-0.1,0.1-0.1,0.1-0.1,0.2c0,0.1-0.1,0.2-0.1,0.4
						s-0.1,0.2-0.1,0.4c0,0.1-0.1,0.4-0.1,0.5s-0.1,0.4-0.1,0.5c0,0.2-0.1,0.4-0.2,0.5l-0.2,0.4c0,0.1-0.1,0.1-0.1,0.2
						c-0.1,0.1-0.2,0.2-0.4,0.4c-0.2,0.2-0.5,0.4-0.7,0.6c-0.5,0.4-0.7,0.5-0.7,0.5l0.7-0.6c0.2-0.2,0.5-0.4,0.7-0.6
						c0.1-0.1,0.2-0.2,0.4-0.4c0-0.1,0.1-0.1,0.1-0.2l0.1-0.2c0.1-0.1,0.1-0.4,0.1-0.5c0-0.2,0.1-0.4,0.1-0.5c0-0.1,0.1-0.4,0.1-0.5
						s0.1-0.2,0.1-0.4c0.1-0.1,0.1-0.2,0.2-0.4c0-0.1,0.1-0.1,0.2-0.2l0.2-0.1h-0.4H511h-0.4v0.1c0,0-0.1,0-0.1-0.1
						c-0.1,0-0.4,0-0.5,0h-1h-0.6l-0.1,0.2c-0.1,0.1-0.1,0.1-0.2,0.2c-0.1,0.1-0.1,0.2-0.2,0.4c-0.1,0.2-0.4,0.6-0.5,1
						s-0.2,0.4-0.4,0.5c-0.1,0.1-0.2,0.4-0.5,0.5l-0.5,0.4c-0.1,0.1-0.4,0.2-0.5,0.4s-0.6,0.5-0.9,0.7c-0.2,0.1-0.4,0.4-0.6,0.5
						l-0.2,0.1l0.2-0.2c0.1-0.1,0.4-0.4,0.5-0.5l0.7-0.7c0.1-0.1,0.2-0.2,0.5-0.4c0.2-0.1,0.4-0.2,0.5-0.4c0.1-0.1,0.2-0.2,0.4-0.5
						c0.1-0.1,0.2-0.4,0.4-0.5c0.1-0.1,0.4-0.6,0.6-0.9c0.1-0.1,0.1-0.2,0.2-0.4c0.1-0.1,0.1-0.1,0.2-0.2l0.2-0.1h-0.1h-1
						c-0.6,0-1.2-0.1-1.9-0.1l-3.6-0.4c-0.6-0.1-1.1-0.1-1.7-0.1h-0.5c-0.1,0-0.2,0.1-0.5,0.2c-0.4,0.2-1,0.5-1.5,0.7
						c-0.2,0.1-0.6,0.2-0.9,0.4c-0.2,0.1-0.5,0.1-0.7,0.1s-0.4,0-0.6,0h-0.2h0.2h0.2h0.4c0.5-0.1,1.1-0.4,1.6-0.5
						c0.6-0.2,1.1-0.5,1.6-0.6c0.1,0,0.2-0.1,0.4-0.1c-0.2,0-0.6,0-0.9,0c-0.5,0-1.1-0.1-1.6-0.1h-1.5c-0.5,0-0.9,0-1.4,0l-1.2-0.1
						c-0.7-0.1-1.4-0.1-2-0.1c-0.2,0-0.5,0-0.7,0c-0.1,0-0.4,0-0.5,0h-0.4c3.7,2.4,6.9,5.8,11.3,7.1c6.2,1.7,12.3-0.6,17.6-3.6
						c1.6-0.9,3.2-1.7,5-2.6l0.6-0.2l-3.8,0.1L514.6,212.9z M500.6,216c0.1-0.1,0.2-0.2,0.4-0.4l0.6-0.4l0.1-0.1l0.1-0.1l0.4-0.4
						c0.2-0.2,0.4-0.5,0.6-0.7c0.2-0.2,0.4-0.5,0.5-0.6c0.1-0.1,0.2-0.4,0.2-0.5l0.1-0.1c0,0.1,0,0.1,0,0.2s-0.1,0.4-0.2,0.5
						c-0.1,0.2-0.2,0.5-0.4,0.7c-0.1,0.1-0.1,0.2-0.2,0.4c-0.1,0.1-0.2,0.2-0.2,0.4c-0.1,0.1-0.2,0.2-0.4,0.4
						c-0.1,0.1-0.2,0.1-0.4,0.2c-0.2,0.1-0.5,0.2-0.7,0.4c-0.1,0-0.1,0.1-0.2,0.1C500.8,215.9,500.6,216,500.6,216l-0.1,0.1
						L500.6,216z M519.6,213.4c-0.1,0.2-0.4,0.4-0.6,0.6c-0.2,0.2-0.5,0.5-0.7,0.6c-0.2,0.2-0.6,0.4-0.9,0.5
						c-0.2,0.1-0.5,0.2-0.9,0.4c-0.2,0-0.4,0-0.6,0h-0.2h0.2c0.1,0,0.1,0,0.2,0c0.1,0,0.2-0.1,0.4-0.1c0.2-0.1,0.5-0.2,0.7-0.4
						c0.2-0.1,0.6-0.4,0.9-0.6C518.6,214.1,519.1,213.8,519.6,213.4l0.4-0.5l0.1-0.1C520,212.9,519.7,213.1,519.6,213.4L519.6,213.4
						z"/>
					<path class="st7" d="M494.9,208.1c-2,1-3.7,2.1-5.5,3.5l-0.1,0.1c0,0,0,0.1,0,0.2l0,0l0,0h0.4h0.5c0.2,0,0.5,0,0.7,0
						c0.5,0,1.2,0,2,0.1c0.4,0,0.7,0.1,1.2,0.1c0.5,0,0.9,0,1.4,0h1.5l1.6,0.1l1.2,0.1l0,0h0.4l1,0.1h-0.1c-0.1-0.1-0.4-0.2-0.5-0.4
						c-0.4-0.4-0.9-0.9-1.1-1.4c-0.4-0.5-0.7-0.9-1.1-1.4c-0.1-0.1-0.2-0.2-0.5-0.4l-0.1-0.1l0.2,0.1c0.1,0,0.1,0.1,0.2,0.1l0.2,0.2
						c0.2,0.1,0.4,0.4,0.6,0.6c0.2,0.2,0.4,0.5,0.6,0.7c0.4,0.5,0.7,1,1.1,1.4c0.1,0.1,0.2,0.2,0.4,0.4l0.1,0.1h0.6
						c1.1,0.1,2.4,0.2,3.6,0.4l1.9,0.1h1h1h1h0.2c-0.1-0.1-0.1-0.1-0.2-0.2c-0.1-0.1-0.2-0.2-0.2-0.5c-0.1-0.1-0.2-0.4-0.4-0.5
						s-0.1-0.2-0.2-0.2l-0.1-0.1l-0.1-0.1c-0.2-0.1-0.4-0.2-0.6-0.4s-0.5-0.2-0.7-0.4c-0.2-0.1-0.4-0.4-0.6-0.6
						c-0.1-0.2-0.4-0.4-0.5-0.6l-0.4-0.6c-0.1-0.1-0.2-0.4-0.4-0.5l-0.1-0.2l-0.2-0.1c-0.1-0.1-0.2-0.1-0.4-0.2l-0.4-0.2l0.4,0.1
						c0.1,0.1,0.2,0.1,0.4,0.2l0.2,0.1l0.2,0.2c0.1,0.1,0.2,0.2,0.5,0.5c0.1,0.2,0.2,0.4,0.5,0.6c0.2,0.2,0.2,0.4,0.5,0.6
						c0.1,0.2,0.4,0.4,0.6,0.5s0.5,0.2,0.6,0.4c0.2,0.1,0.5,0.2,0.6,0.5l0.1,0.1l0.1,0.1c0.1,0.1,0.1,0.2,0.2,0.4l0.2,0.5
						c0.1,0.1,0.1,0.4,0.2,0.5c0.1,0.1,0.1,0.2,0.2,0.4h0.6l1.9-0.1h1.4h-0.1c-0.1,0-0.2-0.1-0.5-0.2c-0.1-0.1-0.4-0.2-0.5-0.4
						c-0.1-0.1-0.2-0.2-0.5-0.5c-0.2-0.4-0.5-0.7-0.9-1c-0.1-0.1-0.2-0.4-0.5-0.5c-0.1-0.1-0.4-0.4-0.5-0.4s-0.6-0.5-0.9-0.7
						l-0.4-0.2l-0.5-0.6l-0.2-0.2l0.2,0.1c0.2,0.1,0.5,0.2,0.7,0.4c0.4,0.2,0.6,0.4,1,0.6c0.1,0.1,0.4,0.2,0.5,0.4
						c0.1,0.1,0.4,0.2,0.5,0.5c0.5,0.7,1,1.4,1.6,1.9l0.2,0.1c0,0,0.1,0.1,0.2,0.1c0.1,0,0.2,0.1,0.4,0.1h0.2l1.7-0.1l1.4-0.1
						c-0.1,0-0.2-0.1-0.4-0.1c-0.1-0.1-0.2-0.2-0.4-0.4c-0.2-0.2-0.5-0.6-0.7-0.9c-0.2-0.4-0.5-0.6-0.9-1c-0.4-0.2-0.7-0.5-1-0.7
						c-0.1-0.1-0.4-0.2-0.5-0.4c-0.1-0.1-0.2-0.2-0.5-0.2c-0.1-0.1-0.2-0.1-0.5-0.2l-0.4-0.1l-0.2-0.1h0.4l0.4,0.1
						c0.1,0,0.2,0.1,0.5,0.1l0.5,0.2c0.1,0.1,0.4,0.2,0.5,0.4c0.4,0.2,0.7,0.5,1.1,0.7c0.4,0.2,0.6,0.6,0.9,1c0.2,0.4,0.5,0.6,0.6,1
						c0.1,0.1,0.2,0.2,0.4,0.4c0.1,0.1,0.1,0.1,0.2,0.2h0.1l1.9-0.1l3-0.2l2-0.2c-4.6-1.6-9.2-3.6-13.9-5
						C505.6,205.1,499.9,205.5,494.9,208.1z M503.1,208.8l0.5,0.4c0.2,0.1,0.5,0.2,0.7,0.5c0.1,0.1,0.2,0.2,0.4,0.4
						c0.1,0.1,0.2,0.2,0.2,0.5c0.1,0.4,0.1,0.6,0.1,1c0,0.1,0,0.2,0,0.4c0,0.1,0.1,0.2,0.1,0.4c0,0.1,0.1,0.1,0.2,0.2l0.2,0.1
						l0.2,0.1h-0.2l-0.2-0.1l-0.1-0.1l-0.1-0.1c-0.1-0.1-0.1-0.2-0.1-0.4c0-0.1-0.1-0.2-0.1-0.5c0-0.4-0.1-0.6-0.1-1
						c0-0.1-0.1-0.2-0.1-0.4c-0.1-0.1-0.2-0.2-0.4-0.2l-0.6-0.5C503.2,209,503.1,208.9,503.1,208.8l-0.2-0.1L503.1,208.8z"/>
					<path class="st7" d="M524.8,211.9h-0.5c0,0,0,0.1-0.1,0.1l-0.6,0.5l0,0l5.5-0.1v-0.7l-1.7,0.1L524.8,211.9z"/>
				</g>
				<g>
					<path class="st7" d="M516.6,203.8l-1.4,0.6c0,0,0,0.1-0.1,0.2c0,0.1-0.1,0.1-0.1,0.2c0,0.1,0,0.2,0,0.4c0,0.1,0,0.2,0,0.5
						s0,0.4,0.1,0.5c0.1,0.1,0.1,0.4,0.1,0.5c0,0.2,0,0.4,0,0.6v0.2c0,0.1,0,0.2-0.1,0.2c0,0.1-0.1,0.4-0.2,0.5
						c-0.1,0.2-0.2,0.6-0.5,0.9c-0.1,0.2-0.4,0.5-0.5,0.9l0.4-0.9c0.1-0.2,0.2-0.5,0.4-0.9c0.1-0.4,0.1-0.4,0.1-0.5s0-0.2,0-0.2
						v-0.2c0-0.1,0-0.4,0-0.5c0-0.2,0-0.4-0.1-0.5c0-0.1-0.1-0.4-0.1-0.5s0-0.4,0-0.5c0-0.1,0-0.2,0.1-0.4c0-0.1,0.1-0.2,0.1-0.2
						l0.1-0.2l-0.4,0.1l-1.7,0.9l-0.4,0.1h0.1h-0.1l-0.5,0.2l-0.9,0.4l-0.6,0.2c0,0,0,0.1-0.1,0.2c0,0.1-0.1,0.2-0.1,0.4
						c0,0.1,0,0.2-0.1,0.4c-0.1,0.1,0,0.7-0.1,1.1c0,0.2,0,0.4-0.1,0.6c0,0.2-0.1,0.4-0.2,0.6c-0.1,0.2-0.1,0.4-0.2,0.6
						c-0.1,0.2-0.1,0.4-0.2,0.5c-0.1,0.4-0.4,0.7-0.5,1s-0.2,0.5-0.4,0.7l-0.1,0.2l0.1-0.2c0.1-0.2,0.2-0.5,0.2-0.7
						c0.1-0.2,0.2-0.6,0.4-1c0.1-0.2,0.1-0.4,0.2-0.6c0.1-0.2,0.1-0.4,0.2-0.6c0.1-0.2,0.1-0.4,0.2-0.6c0-0.2,0.1-0.4,0.1-0.6
						c0-0.4,0.1-0.7,0.1-1.1c0-0.1,0.1-0.2,0.1-0.4c0-0.1,0.1-0.2,0.1-0.4l0.1-0.2l-0.2,0.1l-0.9,0.4c-0.6,0.2-1.1,0.4-1.7,0.6
						c-1.1,0.4-2.4,0.7-3.5,1.1l-1.6,0.5l-0.6,0.2l0.4,0.4c-0.2,0.4-0.6,0.9-1.1,1.2c-0.2,0.2-0.4,0.5-0.6,0.6
						c-0.2,0.1-0.4,0.4-0.6,0.5c-0.1,0.1-0.4,0.1-0.5,0.2h-0.2h0.2l0.2-0.1l0.2-0.1c0.5-0.4,0.9-0.7,1.2-1.1
						c0.4-0.5,0.9-0.9,1.1-1.2l0.2-0.2l-0.9,0.4l-1.5,0.5l-1.4,0.6c-0.5,0.2-0.9,0.4-1.2,0.5l-1.1,0.4c-0.7,0.2-1.4,0.5-1.9,0.7
						c-0.2,0.1-0.5,0.2-0.6,0.4c-0.1,0.1-0.4,0.1-0.5,0.2l-0.4,0.2c4.3,0.6,8.8,2.4,13.1,1.7c6.3-0.9,10.9-5.6,14.5-10.4
						c1.1-1.5,2.2-3,3.5-4.3c0.1-0.1,0.2-0.4,0.5-0.5l-3.5,1.7L516.6,203.8z M505,212.4c0-0.2,0.1-0.4,0.2-0.5
						c0.1-0.2,0.4-0.4,0.5-0.6l0.1-0.1l0.1-0.2c0-0.1,0.1-0.2,0.1-0.4s0.1-0.6,0.2-0.9c0.1-0.2,0.1-0.5,0.1-0.7
						c0-0.1,0.1-0.4,0.1-0.5s0-0.2,0-0.2c0,0.1,0,0.1,0,0.2s0,0.4,0,0.5c0,0.2,0,0.5-0.1,0.9c0,0.1,0,0.2-0.1,0.4
						c0,0.1-0.1,0.2-0.1,0.5c0,0.1-0.1,0.2-0.1,0.5c-0.1,0.1-0.1,0.2-0.2,0.4c-0.1,0.2-0.4,0.4-0.5,0.6c-0.1,0.1-0.1,0.1-0.1,0.2
						C505,212.3,505,212.3,505,212.4l-0.1,0.2C504.8,212.5,505,212.4,505,212.4z M521.2,202.2c-0.1,0.2-0.1,0.5-0.2,0.9
						c-0.1,0.4-0.2,0.6-0.5,1c-0.1,0.2-0.4,0.6-0.6,0.9c-0.2,0.2-0.4,0.5-0.6,0.6c-0.1,0.1-0.2,0.1-0.4,0.2c-0.1,0-0.1,0.1-0.2,0.1
						l-0.2,0.1l0.2-0.1c0.1,0,0.1-0.1,0.2-0.1c0.1-0.1,0.2-0.1,0.2-0.2c0.2-0.2,0.4-0.4,0.5-0.6c0.2-0.2,0.4-0.6,0.5-0.9
						c0.2-0.5,0.6-1.1,0.7-1.7c0.1-0.2,0.1-0.4,0.2-0.6l0.1-0.2C521.3,201.6,521.3,201.9,521.2,202.2z"/>
					<path class="st7" d="M496.5,207.4c-1.4,1.7-2.5,3.5-3.6,5.5c0,0,0,0.1-0.1,0.1c0,0,0,0.1,0,0.2l0,0l0,0l0.4-0.2
						c0.1-0.1,0.2-0.2,0.5-0.2c0.1-0.1,0.4-0.2,0.6-0.4c0.6-0.2,1.2-0.5,1.9-0.7c0.4-0.1,0.7-0.2,1.1-0.4c0.4-0.1,0.7-0.4,1.2-0.5
						l1.4-0.6l1.5-0.6c0.4-0.1,0.7-0.2,1.1-0.4l0,0l0,0l0.4-0.1l1-0.4h-0.1c-0.1,0-0.4-0.1-0.5-0.1c-0.5-0.2-1.1-0.5-1.6-0.7
						c-0.5-0.2-1-0.6-1.6-0.7c-0.1-0.1-0.4-0.1-0.5-0.1h-0.2h0.1c0.1,0,0.1,0,0.2,0s0.2,0,0.4,0c0.2,0.1,0.5,0.1,0.7,0.2
						c0.2,0.1,0.6,0.2,0.9,0.4c0.6,0.4,1.1,0.6,1.5,0.9c0.1,0.1,0.4,0.1,0.5,0.2h0.1l0.6-0.2c1.1-0.4,2.2-0.7,3.3-1.1
						c0.6-0.2,1.1-0.4,1.7-0.6l0.9-0.4l0.9-0.4l0.9-0.4c0.1,0,0.1-0.1,0.2-0.1c-0.1,0-0.2-0.1-0.4-0.1c-0.1-0.1-0.4-0.1-0.5-0.2
						c-0.1-0.1-0.4-0.2-0.5-0.4c-0.1-0.1-0.2-0.1-0.2-0.1l-0.1-0.1h0.1c-0.2-0.1-0.5-0.1-0.7-0.1s-0.5,0-0.7-0.1
						c-0.2,0-0.5-0.1-0.7-0.2s-0.5-0.2-0.6-0.4l-0.6-0.4c-0.1-0.1-0.4-0.2-0.6-0.2l-0.2-0.1h-0.2c-0.1,0-0.2-0.1-0.4-0.1l-0.4-0.1
						h0.4c0.1,0,0.2,0,0.4,0h0.2l0.2,0.1c0.2,0.1,0.4,0.1,0.6,0.2c0.2,0.1,0.4,0.2,0.6,0.4l0.6,0.4c0.2,0.1,0.5,0.2,0.7,0.2
						s0.5,0.1,0.7,0.1s0.5,0,0.7,0.1l0.1,0.1l0.1,0.1l0.2,0.2l0.5,0.4c0.1,0.1,0.2,0.2,0.5,0.4c0.1,0.1,0.2,0.1,0.4,0.2l0.5-0.2
						l1.6-0.9c0.4-0.2,0.7-0.4,1.2-0.6h-0.1c-0.1,0-0.4,0-0.5,0c-0.2,0-0.4-0.1-0.5-0.1c-0.2,0-0.4-0.1-0.6-0.2
						c-0.4-0.2-0.7-0.4-1.2-0.6c-0.2-0.1-0.4-0.1-0.6-0.2s-0.4-0.1-0.6-0.2l-1.1-0.2c-0.1,0-0.4-0.1-0.5-0.1h-0.4l-0.4-0.1h0.4
						c0.2,0,0.5,0,0.9,0.1c0.4,0,0.7,0.1,1.1,0.2c0.2,0,0.4,0.1,0.6,0.1s0.5,0.1,0.6,0.2c0.7,0.5,1.5,0.9,2.2,1.1h0.2h0.2
						c0.1,0,0.2,0,0.4,0l0.2-0.1c0.5-0.2,1.1-0.6,1.6-0.9l1.2-0.6c-0.1,0-0.2,0-0.4,0s-0.4,0-0.5-0.1c-0.4-0.1-0.7-0.4-1-0.5
						c-0.4-0.2-0.7-0.4-1.1-0.5l-1.2-0.2l-0.6-0.1c-0.1,0-0.4,0-0.5,0h-0.5h-0.4h-0.2l0.2-0.1c0.1,0,0.2,0,0.4-0.1
						c0.1,0,0.4,0,0.5,0c0.1,0,0.4,0,0.5,0l0.6,0.1c0.4,0,0.9,0.1,1.2,0.2c0.5,0.1,0.9,0.4,1.2,0.6c0.4,0.2,0.6,0.4,1,0.6l0.4,0.1
						c0.1,0,0.2,0,0.4,0l0,0l1.6-0.9l2.6-1.5l1.7-1c-5,0.4-9.8,0.5-14.7,1.1C505.1,200.2,500,203.1,496.5,207.4z M504.2,204.8h0.6
						c0.2,0,0.5,0,0.9,0.1c0.1,0,0.4,0.1,0.5,0.1c0.1,0.1,0.2,0.2,0.4,0.4c0.2,0.2,0.4,0.5,0.5,0.9c0.1,0.1,0.1,0.2,0.2,0.4
						c0.1,0.1,0.1,0.2,0.2,0.2s0.1,0.1,0.2,0.1h0.2h0.2h-0.1c-0.1,0-0.1,0-0.2,0h-0.1h-0.1c-0.1-0.1-0.2-0.1-0.4-0.2
						c-0.1-0.1-0.2-0.2-0.2-0.4c-0.1-0.2-0.4-0.5-0.5-0.7c-0.1-0.1-0.2-0.2-0.4-0.2c-0.1-0.1-0.2-0.1-0.5-0.1l-0.9-0.2L504.2,204.8
						l-0.2-0.1L504.2,204.8z"/>
					<path class="st7" d="M525.4,198.6l-0.5,0.2v0.1c-0.1,0.2-0.2,0.5-0.4,0.6l0,0l4.8-2.4l-0.4-0.7l-1.5,0.9L525.4,198.6z"/>
				</g>
				<g>
					<path class="st13" d="M516.9,184.3L497,207.2c-1.4,1.5-0.7,4,1.2,5.5l3,2.2c0.2,0.1,0.5,0.4,0.7,0.5l0.2,0.1l0.5,0.2
						c0.1,0,0.2,0,0.4,0.1c0.1,0,0.2,0.1,0.5,0.1h0.4h0.4h0.5h0.4c0.1,0,0.2-0.1,0.5-0.1l0.2-0.1c0.1-0.1,0.2-0.1,0.4-0.2
						c0.1,0,0.1-0.1,0.2-0.1c0.2-0.1,0.4-0.4,0.5-0.6l16.1-25.7L516.9,184.3z"/>
					<path class="st26" d="M523.7,185c1.7,1.4,2.6,3.3,1.7,4.5c-0.9,1.1-3,1-4.7-0.4l-3.3-2.5c-1.7-1.4-2.6-3.3-1.7-4.5
						c0.9-1.1,3-1,4.7,0.4L523.7,185z"/>
					<path class="st2" d="M499.5,211.6l-0.2-0.1c-1.2-1-1.7-2.4-1.1-3.2v-0.1l19-21.8l0.7,0.5L499.5,211.6z"/>
				</g>
			</g>
			<g>
				<polygon class="st14" points="75.1,234.9 83.9,207.4 109.3,207.4 117.8,234.9 				"/>
				<polygon class="st27" points="96.4,234.9 117.8,234.9 109.3,207.4 96.4,207.4 				"/>
				<path class="st10" d="M91.8,222.9c0,0-5.5-0.4-5.3,4.2c0.1,4.6,7.6,5.8,10.8,2.6l1-0.5c2.4-2.2,2.9-5.8,1.4-8.7
					c-1.1-2.5-8.2-2.7-7.2,2.1L91.8,222.9z"/>
				<path class="st28" d="M98.8,222.7c-0.7-0.7-1.9-0.7-2.6-0.1c-0.6,0.6-0.4,1.9,0.6,2.7c0.4,0.4,0.9,0.6,1.4,0.7
					C98,224.9,98.1,223.7,98.8,222.7z"/>
				<path class="st28" d="M111.5,220.6c-2.2-3.2-6.9-3.7-10.5-1.2c-3.6,2.5-4.6,7.2-2.4,10.4c2.2,3.2,6.9,3.7,10.5,1.2
					C112.8,228.5,113.7,223.8,111.5,220.6z"/>
				<path class="st10" d="M106.4,227.3c-2.9,2-6.3,2-7.8,0c-1.5-2-0.2-5.3,2.6-7.3c2.9-2,6.3-2.1,7.8,0
					C110.5,222.1,109.4,225.2,106.4,227.3z"/>
				<path class="st28" d="M105.6,221.9c0.5,0.7,0.1,2-1,2.6c-0.7,0.7-2,0.7-2.9,0c-0.5-0.7-0.1-2,1-2.6
					C103.5,221.2,104.7,221.2,105.6,221.9z"/>
				<path class="st28" d="M97.6,229.5c-1.5,1.4-3.5,2-5.5,1.7c-3.3-0.4-5.8-2.4-5.7-4.7c0.1-2.1,2.6-3.6,5.6-3.6c0-0.2,0-0.5,0-0.7
					c-3.3,0-6.1,1.9-6.3,4.2c-0.2,2.6,2.6,5.1,6.3,5.5h0.9c2.1,0.1,4.1-0.7,5.5-2.2C98.1,229.6,97.9,229.5,97.6,229.5z"/>
				<g>
					<path class="st11" d="M74.1,229.6l26.1-34.2l5.5,3.5l-0.7,0.6c-0.2,0.2-0.4,0.6-0.4,1c0.2,1,0.7,1.9,1.6,2.4l0.6,0.5l-0.5,0.5
						c-0.7,0.9-17.2,20.7-30.1,24.9L74.1,229.6z M100.5,197.3l-22.4,29.4c11-5,24.2-20,26.8-23c-1-0.7-1.5-1.9-1.6-3
						c0-0.5,0.1-1,0.4-1.4L100.5,197.3z"/>
					<path class="st6" d="M100.5,195.9l10.2-13.1c0,0,7.3,2.6,3.7,6.6c-3.6,4-7.7,6.8-9.9,9.7l-4.3-2.7L100.5,195.9z"/>
					<path class="st2" d="M74.1,229.6l26.1-34.2l5.5,3.5l-0.7,0.6c-0.2,0.2-0.4,0.6-0.4,1c0.2,1,0.7,1.9,1.6,2.4l0.6,0.5l-0.5,0.5
						c-0.7,0.9-17.2,20.7-30.1,24.9L74.1,229.6z"/>
					<path class="st2" d="M100.5,197.3l-22.4,29.4c11-5,24.2-20,26.8-23c-1-0.7-1.5-1.9-1.6-3c0-0.5,0.1-1,0.4-1.4L100.5,197.3z"/>
					<path class="st13" d="M100.5,199.6c0,0-0.9,1.6-2.4,3.7c-0.7,1.1-1.6,2.4-2.6,3.7c-0.5,0.6-1,1.4-1.5,2.1l-1.6,2.1l-1.6,2.1
						c-0.5,0.7-1.1,1.4-1.6,2c-1.1,1.2-2.1,2.5-3,3.5c-1.7,2-3.1,3.2-3.1,3.2s0.9-1.6,2.4-3.7c0.7-1.1,1.6-2.4,2.6-3.7
						c0.5-0.6,1-1.4,1.5-2.1l1.6-2.1l1.6-2.1c0.5-0.7,1.1-1.4,1.6-2c1.1-1.2,2.1-2.5,3-3.5C99.1,200.9,100.5,199.6,100.5,199.6z"/>
					<path class="st12" d="M106.4,201.4c-0.2,0-0.4,0-0.6-0.1l-8.1-5.2c-0.5-0.4-0.6-1-0.2-1.5c0.4-0.5,0.9-0.6,1.4-0.2l8.1,5.2
						c0.5,0.4,0.6,1,0.2,1.5C107.2,201.1,106.8,201.2,106.4,201.4L106.4,201.4z"/>
				</g>
				<path class="st28" d="M92.7,225L92.7,225c-1.2-0.1-2.4,0.5-2.5,1.4c-0.1,0.9,0.9,1.7,2.1,1.9c0.7,0.1,1.6-0.1,2.1-0.7
					C93.7,226.9,93,226,92.7,225z"/>
				<path class="st28" d="M101.7,228.7c-0.6,0.5-1.4,0.7-2.2,0.7c-1.7-0.1-3.3-0.7-4.7-2c-2.5-2.2-3.2-5.5-1.7-7.1
					c0.6-0.7,1.6-1.1,2.6-1c1.6,0,3.1,0.6,4.2,1.6c0.1-0.1,0.4-0.4,0.5-0.5c-1.4-1.1-3-1.9-4.8-1.9c-1.1,0-2.4,0.4-3.1,1.2
					c-1.7,2-1,5.7,1.7,8.2c0.9,0.7,1.7,1.4,2.9,1.7c0.7,0.2,1.5,0.4,2.4,0.5c1.1,0,2.4-0.4,3.1-1.2l0.1-0.1
					C102.5,228.7,102.1,228.7,101.7,228.7z"/>
			</g>
			<g>
				<g>
					<rect x="147.1" y="67.3" class="st29" width="55.3" height="54.2"/>
					<polygon class="st30" points="190.9,69.3 148.9,111.3 148.9,119.6 161.1,119.6 201.5,79.2 201.5,69.3 					"/>
					<polygon class="st30" points="168.8,67.3 148.1,88 147.1,89 151.5,94.4 178.7,67.3 					"/>
					<polygon class="st30" points="204.3,103 186.2,120.9 186.2,120.9 194.7,122.4 203.6,113.5 					"/>
					<g>
						<rect x="145.1" y="65.4" class="st31" width="3.8" height="58.1"/>
						<rect x="173.1" y="65.4" class="st31" width="3.8" height="58.1"/>
						<rect x="201.2" y="65.4" class="st31" width="3.8" height="58.1"/>
						<rect x="145.1" y="65.4" class="st31" width="60.1" height="3.8"/>
						<rect x="145.1" y="119.6" class="st31" width="60.1" height="3.8"/>
						<rect x="145.1" y="92.4" class="st31" width="60.1" height="3.8"/>
					</g>
				</g>
				<g>
					<rect x="362.5" y="68.6" class="st29" width="55.3" height="54.2"/>
					<polygon class="st30" points="406.4,70.6 364.4,112.6 364.4,120.9 376.5,120.9 417,80.5 417,70.6 					"/>
					<polygon class="st30" points="384.1,68.6 363.4,89.3 362.5,90.2 366.9,95.8 394.1,68.6 					"/>
					<polygon class="st30" points="419.7,104.2 401.6,122.3 401.6,122.3 410,123.8 419.1,114.7 					"/>
					<g>
						<rect x="360.5" y="66.8" class="st31" width="3.8" height="58.1"/>
						<rect x="388.6" y="66.8" class="st31" width="3.8" height="58.1"/>
						<rect x="416.6" y="66.8" class="st31" width="3.8" height="58.1"/>
						<rect x="360.5" y="66.7" class="st31" width="60" height="3.8"/>
						<rect x="360.5" y="120.9" class="st31" width="60.1" height="3.8"/>
						<rect x="360.5" y="93.8" class="st31" width="60" height="3.8"/>
					</g>
				</g>
			</g>
		</g>
	</g>
</g>
</svg>
