<?xml version="1.0" encoding="utf-8"?>
<!-- Generator: Adobe Illustrator 23.1.0, SVG Export Plug-In . SVG Version: 6.00 Build 0)  -->
<svg version="1.1" id="Layer_1" xmlns="http://www.w3.org/2000/svg" xmlns:xlink="http://www.w3.org/1999/xlink" x="0px" y="0px"
	 viewBox="0 0 600 300" style="enable-background:new 0 0 600 300;" xml:space="preserve">
<style type="text/css">
	.st0{fill:#8FDAFF;}
	.st1{fill:#34B1ED;}
	.st2{fill:#FFFFFF;}
	.st3{opacity:0.7;fill:#8FDAFF;enable-background:new    ;}
	.st4{fill:#0086AF;}
	.st5{fill:url(#SVGID_1_);}
	.st6{fill:#FCB57A;}
	.st7{fill:#F7E0D8;}
</style>
<title>02fitslider2</title>
<g>
	<g>
		<g id="water">
			<g>
				<polygon class="st0" points="190.9,144.7 191.6,154.1 195.2,203.5 231.5,203.5 235.2,154.1 235.8,144.7 				"/>
				<path class="st1" d="M192.2,147.9l4.6,53.7c10.8-4.6,21.8-4.4,33.1,0l4.6-53.7H192.2z"/>
				<path class="st2" d="M200.8,147.2h-6.3l3.8,51.6c1.3-0.5,2.6-1,3.8-1.4L200.8,147.2z"/>
				<g>
					<circle class="st0" cx="228.8" cy="161.8" r="1.2"/>
					<ellipse class="st2" cx="228.1" cy="161.8" rx="0.3" ry="0.4"/>
				</g>
				<g>
					<circle class="st0" cx="214" cy="169.5" r="1.9"/>
					<path class="st2" d="M213.4,169.5c0,0.4-0.3,0.6-0.5,0.6c-0.3,0-0.5-0.3-0.5-0.6s0.1-0.6,0.5-0.6
						C213.2,168.8,213.4,169.1,213.4,169.5z"/>
				</g>
				<g>
					<path class="st0" d="M223.5,175.4c0,1-0.9,1.9-1.9,1.9s-1.9-0.9-1.9-1.9s0.9-1.9,1.9-1.9l0,0
						C222.6,173.5,223.5,174.4,223.5,175.4z"/>
					<path class="st2" d="M220.8,175.4c0,0.4-0.3,0.6-0.5,0.6s-0.5-0.3-0.5-0.6c0-0.4,0.3-0.6,0.5-0.6S220.8,175,220.8,175.4z"/>
				</g>
				<g>
					<path class="st0" d="M212,159c0,1-0.9,1.9-1.9,1.9s-1.9-0.9-1.9-1.9s0.9-1.9,1.9-1.9S212,157.9,212,159z"/>
					<path class="st2" d="M209.4,159c0,0.4-0.3,0.6-0.5,0.6s-0.5-0.3-0.5-0.6c0-0.4,0.1-0.6,0.5-0.6S209.4,158.6,209.4,159z"/>
				</g>
				<g>
					<path class="st0" d="M214,179.7c0,0.8-0.6,1.4-1.4,1.4s-1.4-0.6-1.4-1.4s0.6-1.4,1.4-1.4S214,178.9,214,179.7L214,179.7z"/>
					<path class="st2" d="M212.1,179.6c0,0.3-0.1,0.5-0.4,0.5s-0.4-0.3-0.4-0.5c0-0.3,0.1-0.5,0.4-0.5S212.1,179.4,212.1,179.6z"/>
				</g>
				<g>
					<path class="st0" d="M224.3,183.3c0,0.8-0.6,1.4-1.4,1.4c-0.8,0-1.4-0.6-1.4-1.4s0.6-1.4,1.4-1.4
						C223.6,181.9,224.3,182.6,224.3,183.3L224.3,183.3z"/>
					<ellipse class="st2" cx="222" cy="183.3" rx="0.4" ry="0.5"/>
				</g>
				<g>
					<path class="st0" d="M205.4,182.8c0,0.8-0.6,1.4-1.4,1.4c-0.8,0-1.4-0.6-1.4-1.4s0.6-1.4,1.4-1.4
						C204.8,181.4,205.4,182.1,205.4,182.8z"/>
					<path class="st2" d="M203.4,182.8c0,0.3-0.1,0.5-0.4,0.5c-0.3,0-0.4-0.3-0.4-0.5s0.1-0.5,0.4-0.5
						C203.2,182.3,203.4,182.6,203.4,182.8z"/>
				</g>
				<g>
					<circle class="st0" cx="217.3" cy="161.4" r="1.4"/>
					<path class="st2" d="M216.7,161.4c0,0.3-0.1,0.5-0.4,0.5s-0.4-0.3-0.4-0.5c0-0.3,0.1-0.5,0.4-0.5S216.7,161.2,216.7,161.4z"/>
				</g>
				<g>
					<path class="st0" d="M224.7,157.3c0,0.8-0.6,1.4-1.4,1.4c-0.8,0-1.4-0.6-1.4-1.4s0.6-1.4,1.4-1.4
						C224,155.9,224.7,156.4,224.7,157.3L224.7,157.3z"/>
					<path class="st2" d="M222.7,157.2c0,0.3-0.1,0.5-0.4,0.5s-0.4-0.3-0.4-0.5c0-0.3,0.1-0.5,0.4-0.5S222.7,156.9,222.7,157.2z"/>
				</g>
				<g>
					<circle class="st0" cx="205.5" cy="165.3" r="1.4"/>
					<path class="st2" d="M205,165.1c0,0.3-0.1,0.5-0.4,0.5c-0.3,0-0.4-0.3-0.4-0.5s0.1-0.5,0.4-0.5S205,164.9,205,165.1z"/>
				</g>
				<g>
					<circle class="st0" cx="205" cy="173.3" r="1.2"/>
					<ellipse class="st2" cx="204.4" cy="173.3" rx="0.3" ry="0.4"/>
				</g>
				<g>
					<circle class="st0" cx="225.8" cy="169.1" r="1.2"/>
					<path class="st2" d="M225.4,169c0,0.3-0.1,0.4-0.3,0.4c-0.1,0-0.3-0.1-0.3-0.4s0.1-0.4,0.3-0.4
						C225.3,168.6,225.4,168.8,225.4,169z"/>
				</g>
			</g>
			<g>
				<g>
					<circle class="st0" cx="343.8" cy="170.1" r="1.2"/>
					<path class="st2" d="M343.3,170.1c0,0.3-0.1,0.4-0.3,0.4c-0.1,0-0.3-0.1-0.3-0.4c0-0.3,0.1-0.4,0.3-0.4
						C343.2,169.7,343.3,169.9,343.3,170.1z"/>
				</g>
				<polygon class="st3" points="334.8,144.3 335.5,153.7 339.1,203.1 375.5,203.1 379.1,153.7 379.7,144.3 				"/>
				<path class="st1" d="M337.4,171.9l3.3,29.4c10.8-4.6,21.8-4.4,33.1,0l3.3-29.4C377.2,171.9,337.4,171.9,337.4,171.9z"/>
				<g>
					<circle class="st0" cx="359.6" cy="177.2" r="1.9"/>
					<path class="st2" d="M358.8,177.2c0,0.4-0.1,0.6-0.5,0.6s-0.5-0.3-0.5-0.6s0.3-0.6,0.5-0.6
						C358.6,176.5,358.8,176.8,358.8,177.2z"/>
				</g>
				<g>
					<path class="st0" d="M369,183.1c0,1-0.9,1.9-1.9,1.9s-1.9-0.9-1.9-1.9s0.9-1.9,1.9-1.9l0,0C368.1,181.2,369,182.1,369,183.1z"
						/>
					<path class="st2" d="M366.4,183.1c0,0.4-0.3,0.6-0.5,0.6c-0.3,0-0.5-0.3-0.5-0.6s0.3-0.6,0.5-0.6
						C366.1,182.4,366.4,182.7,366.4,183.1z"/>
				</g>
				<g>
					<path class="st0" d="M359.6,187.4c0,0.8-0.6,1.4-1.4,1.4s-1.4-0.6-1.4-1.4l0,0c0-0.8,0.6-1.4,1.4-1.4S359.6,186.5,359.6,187.4z
						"/>
					<path class="st2" d="M357.5,187.3c0,0.3-0.1,0.5-0.4,0.5s-0.4-0.3-0.4-0.5s0.1-0.5,0.4-0.5S357.5,187.1,357.5,187.3z"/>
				</g>
				<g>
					<path class="st0" d="M369.7,191c0,0.8-0.6,1.4-1.4,1.4s-1.4-0.6-1.4-1.4s0.6-1.4,1.4-1.4S369.7,190.3,369.7,191L369.7,191z"/>
					<ellipse class="st2" cx="367.4" cy="191" rx="0.4" ry="0.5"/>
				</g>
				<g>
					<path class="st0" d="M350.9,190.5c0,0.8-0.6,1.4-1.4,1.4s-1.4-0.6-1.4-1.4s0.6-1.4,1.4-1.4S350.9,189.8,350.9,190.5z"/>
					<path class="st2" d="M348.9,190.5c0,0.3-0.1,0.5-0.4,0.5s-0.4-0.3-0.4-0.5s0.1-0.5,0.4-0.5S348.9,190.3,348.9,190.5z"/>
				</g>
				<g>
					<circle class="st0" cx="350.5" cy="181" r="1.2"/>
					<ellipse class="st2" cx="349.8" cy="181" rx="0.3" ry="0.4"/>
				</g>
				<path class="st2" d="M344.7,146.7h-6.3l3.8,51.7c1.3-0.5,2.6-1,3.8-1.4L344.7,146.7z"/>
			</g>
			<g>
				<g>
					<path class="st0" d="M416.7,159.1c0,1-0.9,1.9-1.9,1.9s-1.9-0.9-1.9-1.9s0.9-1.9,1.9-1.9S416.7,158.1,416.7,159.1z"/>
					<path class="st2" d="M414,159.1c0,0.4-0.1,0.6-0.5,0.6s-0.5-0.3-0.5-0.6c0-0.4,0.3-0.6,0.5-0.6S414,158.7,414,159.1z"/>
				</g>
				<g>
					<circle class="st0" cx="415.1" cy="170.1" r="1.2"/>
					<path class="st2" d="M414.7,170.1c0,0.3-0.1,0.4-0.3,0.4s-0.3-0.1-0.3-0.4c0-0.3,0.1-0.4,0.3-0.4S414.7,169.9,414.7,170.1z"/>
				</g>
				<polygon class="st0" points="406.2,144.3 406.8,153.7 410.4,203.1 446.8,203.1 450.4,153.7 451,144.3 				"/>
				<path class="st1" d="M410,183.5l2.1,17.8c10.8-4.6,21.8-4.4,33.1,0l2.1-17.8C447.2,183.5,410,183.5,410,183.5z"/>
				<g>
					<path class="st0" d="M440.3,185.6c0,1-0.9,1.9-1.9,1.9s-1.9-0.9-1.9-1.9s0.9-1.9,1.9-1.9C439.4,183.7,440.3,184.6,440.3,185.6z
						"/>
					<path class="st2" d="M437.7,185.6c0,0.4-0.3,0.6-0.5,0.6c-0.3,0-0.5-0.3-0.5-0.6s0.1-0.6,0.5-0.6S437.7,185.3,437.7,185.6z"/>
				</g>
				<g>
					<path class="st0" d="M430.9,190c0,0.8-0.6,1.4-1.4,1.4s-1.4-0.6-1.4-1.4c0-0.8,0.6-1.4,1.4-1.4S430.9,189.1,430.9,190z"/>
					<path class="st2" d="M428.9,189.9c0,0.3-0.1,0.5-0.4,0.5s-0.4-0.3-0.4-0.5s0.1-0.5,0.4-0.5
						C428.7,189.4,428.9,189.6,428.9,189.9z"/>
				</g>
				<g>
					<path class="st0" d="M441,193.6c0,0.8-0.6,1.4-1.4,1.4s-1.4-0.6-1.4-1.4s0.6-1.4,1.4-1.4S441,192.8,441,193.6z"/>
					<ellipse class="st2" cx="438.7" cy="193.6" rx="0.4" ry="0.5"/>
				</g>
				<g>
					<path class="st0" d="M422.2,193.1c0,0.8-0.6,1.4-1.4,1.4s-1.4-0.6-1.4-1.4l0,0c0-0.8,0.6-1.4,1.4-1.4S422.2,192.3,422.2,193.1z
						"/>
					<path class="st2" d="M420.3,193.1c0,0.3-0.1,0.5-0.4,0.5s-0.4-0.3-0.4-0.5c0-0.3,0.1-0.5,0.4-0.5
						C420.1,192.6,420.3,192.8,420.3,193.1z"/>
				</g>
				<path class="st2" d="M416,146.7h-6.3l3.8,51.7c1.3-0.5,2.6-1,3.8-1.4L416,146.7z"/>
			</g>
			<g>
				<g>
					<path class="st0" d="M486.7,158.8c0,1-0.9,1.9-1.9,1.9s-1.9-0.9-1.9-1.9s0.9-1.9,1.9-1.9S486.7,157.8,486.7,158.8L486.7,158.8z
						"/>
					<path class="st2" d="M484,158.8c0,0.4-0.3,0.6-0.5,0.6c-0.3,0-0.5-0.3-0.5-0.6c0-0.4,0.3-0.6,0.5-0.6
						C483.8,158.2,484,158.5,484,158.8z"/>
				</g>
				<g>
					<circle class="st0" cx="485.2" cy="169.9" r="1.2"/>
					<path class="st2" d="M484.8,169.9c0,0.3-0.1,0.4-0.3,0.4c-0.1,0-0.3-0.1-0.3-0.4s0.1-0.4,0.3-0.4
						C484.7,169.5,484.8,169.6,484.8,169.9z"/>
				</g>
				<polygon class="st0" points="476.2,144.1 476.8,153.5 480.5,202.8 516.8,202.8 520.4,153.5 521.2,144.1 				"/>
				<path class="st1" d="M481.3,187.1l0.8,14c10.8-4.6,21.8-4.4,33.1,0l0.8-14H481.3z"/>
				<g>
					<path class="st0" d="M499.7,188.5c0,0.8-0.6,1.4-1.4,1.4s-1.4-0.6-1.4-1.4s0.6-1.4,1.4-1.4C499,186.9,499.7,187.6,499.7,188.5z
						"/>
					<path class="st2" d="M497.6,188.3c0,0.3-0.1,0.5-0.4,0.5s-0.4-0.3-0.4-0.5s0.1-0.5,0.4-0.5S497.6,188.1,497.6,188.3z"/>
				</g>
				<g>
					<path class="st0" d="M509.9,192.1c0,0.8-0.6,1.4-1.4,1.4s-1.4-0.6-1.4-1.4c0-0.8,0.6-1.4,1.4-1.4
						C509.3,190.7,509.9,191.3,509.9,192.1z"/>
					<path class="st2" d="M507.6,191.5c0.1,0,0.4,0.3,0.4,0.5s-0.1,0.5-0.4,0.5s-0.4-0.3-0.4-0.5S507.4,191.5,507.6,191.5z"/>
				</g>
				<g>
					<path class="st0" d="M491.1,191.5c0,0.8-0.6,1.4-1.4,1.4s-1.4-0.6-1.4-1.4s0.6-1.4,1.4-1.4S491.1,190.8,491.1,191.5
						L491.1,191.5z"/>
					<path class="st2" d="M489,191.5c0,0.3-0.1,0.5-0.4,0.5s-0.4-0.3-0.4-0.5s0.1-0.5,0.4-0.5S489,191.3,489,191.5z"/>
				</g>
				<path class="st2" d="M486.1,146.4h-6.3l3.8,51.7c1.3-0.5,2.6-1,3.8-1.4L486.1,146.4z"/>
			</g>
			<g>
				<polygon class="st0" points="544.6,143.6 545.3,152.9 548.9,202.3 585.2,202.3 588.8,152.9 589.6,143.6 				"/>
				<path class="st1" d="M549.7,191.7l0.8,8.9c10.8-4.6,21.8-4.4,33.1,0l0.8-8.9H549.7z"/>
				<path class="st2" d="M554.4,146h-6.3l3.8,51.7c1.3-0.5,2.6-1,3.8-1.4L554.4,146z"/>
			</g>
			<g>
				<g>
					<circle class="st0" cx="271.1" cy="166.3" r="1.2"/>
					<path class="st2" d="M270.7,166.3c0,0.3-0.1,0.4-0.3,0.4c-0.1,0-0.3-0.1-0.3-0.4s0.1-0.4,0.3-0.4
						C270.6,165.9,270.7,166,270.7,166.3z"/>
				</g>
				<polygon class="st0" points="262.1,144.3 262.7,153.7 266.3,203.1 302.8,203.1 306.4,153.7 307.1,144.3 				"/>
				<path class="st1" d="M264.7,165.5l3.3,35.8c10.8-4.6,21.8-4.4,33.1,0l2.1-35.8H264.7z"/>
				<g>
					<path class="st0" d="M295.1,180.6c0,1-0.8,1.9-1.9,1.9c-1,0-1.9-0.8-1.9-1.9c0-1,0.8-1.9,1.9-1.9h0.1
						C294.2,178.7,294.9,179.6,295.1,180.6z"/>
					<path class="st2" d="M292.4,180.5c0,0.4-0.1,0.6-0.5,0.6s-0.4-0.3-0.4-0.6s0.1-0.6,0.4-0.6
						C292.1,179.9,292.4,180.1,292.4,180.5z"/>
				</g>
				<g>
					<path class="st0" d="M285.6,184.9c0,0.8-0.6,1.4-1.4,1.4s-1.4-0.6-1.4-1.4l0,0c0-0.8,0.6-1.4,1.4-1.4
						C284.9,183.5,285.6,184,285.6,184.9z"/>
					<path class="st2" d="M283.5,184.8c0,0.3-0.1,0.5-0.4,0.5s-0.4-0.3-0.4-0.5s0.1-0.5,0.4-0.5
						C283.4,184.2,283.5,184.5,283.5,184.8z"/>
				</g>
				<g>
					<path class="st0" d="M295.8,188.5c0,0.8-0.6,1.4-1.4,1.4s-1.4-0.6-1.4-1.4s0.6-1.4,1.4-1.4S295.8,187.7,295.8,188.5z"/>
					<ellipse class="st2" cx="293.5" cy="188.5" rx="0.4" ry="0.5"/>
				</g>
				<g>
					<path class="st0" d="M276.9,188c0,0.8-0.6,1.4-1.4,1.4s-1.4-0.6-1.4-1.4s0.6-1.4,1.4-1.4S276.9,187.2,276.9,188L276.9,188z"/>
					<path class="st2" d="M274.9,188c0,0.3-0.1,0.5-0.4,0.5s-0.4-0.3-0.4-0.5s0.1-0.5,0.4-0.5C274.8,187.4,274.9,187.7,274.9,188z"
						/>
				</g>
				<g>
					<circle class="st0" cx="276.6" cy="178.5" r="1.2"/>
					<ellipse class="st2" cx="276" cy="178.5" rx="0.3" ry="0.4"/>
				</g>
				<g>
					<circle class="st0" cx="297.4" cy="174.2" r="1.2"/>
					<path class="st2" d="M297,174.1c0,0.3-0.1,0.4-0.3,0.4c-0.1,0-0.3-0.1-0.3-0.4c0-0.3,0.1-0.4,0.3-0.4
						C296.9,173.7,297,174,297,174.1z"/>
				</g>
				<path class="st2" d="M272,146.8h-6.3l3.8,51.7c1.3-0.5,2.6-1,3.8-1.4L272,146.8z"/>
			</g>
			<path class="st4" d="M531,178.7v-5.6h3.7v5.6h5.6v3.7h-5.6v5.6H531v-5.6h-5.6v-3.7H531z"/>
			<path class="st4" d="M461.1,180.9v-5.6h3.7v5.6h5.6v3.7h-5.6v5.5h-3.7v-5.6h-5.6v-3.7L461.1,180.9z"/>
			<path class="st4" d="M390.5,180.9v-5.6h3.7v5.6h5.6v3.7h-5.6v5.5h-3.7v-5.6h-5.6v-3.7L390.5,180.9z"/>
			<path class="st4" d="M318.8,181.5v-5.6h3.7v5.6h5.6v3.7h-5.6v5.6h-3.7v-5.6h-5.6v-3.7H318.8z"/>
			<path class="st4" d="M245.7,181.5v-5.6h3.7v5.6h5.6v3.7h-5.6v5.6h-3.7v-5.6H240v-3.7H245.7z"/>
			<path class="st4" d="M158.1,178.7h15v3.8h-15V178.7z M158.1,185.1h15v3.8h-15V185.1z"/>
			<g>
				<g>
					<g>
						<linearGradient id="SVGID_1_" gradientUnits="userSpaceOnUse" x1="77.5" y1="13.6351" x2="77.5" y2="374.7647">
							<stop  offset="0" style="stop-color:#EAB19C"/>
							<stop  offset="0.1094" style="stop-color:#ECB7A4"/>
							<stop  offset="0.1372" style="stop-color:#E8A992"/>
							<stop  offset="0.1623" style="stop-color:#EDBEAD"/>
							<stop  offset="0.3407" style="stop-color:#EEC2B2"/>
							<stop  offset="0.4053" style="stop-color:#EFC4B4"/>
							<stop  offset="0.4622" style="stop-color:#EFC5B5"/>
							<stop  offset="0.4969" style="stop-color:#EFC6B6"/>
							<stop  offset="0.5249" style="stop-color:#EFC4B3"/>
							<stop  offset="0.684" style="stop-color:#EDBDAB"/>
							<stop  offset="0.6909" style="stop-color:#ECB8A4"/>
							<stop  offset="0.7024" style="stop-color:#EBB5A1"/>
							<stop  offset="0.74" style="stop-color:#EDBBA9"/>
							<stop  offset="1" style="stop-color:#EAB19C"/>
						</linearGradient>
						<path class="st5" d="M146,202.8c-1-3.4-1.7-6.7-2.8-9.6c-1.1-2.9-3.7-8.7-4.3-10.8c-0.5-1.5-1.4-5.2-1.5-5.6
							c-0.6-2.2-1.1-5.7-1.1-11.5c0-13.8-2.8-25.8-4.4-29c-1.5-3.2-2.5-5.7-4.2-18.7c-1.8-13.1,1.6-10.9,0-26.7
							c-1.6-15.8-13.8-18.6-19.2-19.8c-5.4-1.3-16.5-5.8-18.7-7.5c-1.1-0.8-1.2-4.9-1.1-8.9c1.7-2.5,2.5-5.9,3.1-8.8
							c0.3,0.3,0.8,0.9,1.3,1c0.7,0.1,1.7-2.1,2-3.2c0.3-1.1,0.7-5,0.3-6.5c-0.5-1.5-1.6-0.3-1.9,0.3c-0.1,0.2-0.4,0.4-0.7,0.6
							c0.1-1.9,0.2-3.8,0.5-5.8c0.5-3.8,0.3-7.4-1-11C89.5,13.6,79,13,77.5,13v0l0,0l0,0v0c-1.5,0-12,0.6-14.7,8.2
							c-1.3,3.6-1.5,7.3-1,11c0.3,1.9,0.4,3.8,0.5,5.8c-0.3-0.2-0.6-0.4-0.7-0.6c-0.4-0.6-1.5-1.7-1.9-0.3c-0.5,1.5-0.1,5.4,0.3,6.5
							c0.3,1.1,1.3,3.3,2,3.2c0.5,0,1-0.7,1.3-1c0.6,2.9,1.5,6.3,3.1,8.8c0.1,4-0.1,8.1-1.1,8.9c-2.1,1.6-13.3,6.2-18.7,7.5
							c-5.4,1.3-17.5,4-19.2,19.8c-1.6,15.8,1.8,13.6,0,26.7c-1.8,13.1-2.7,15.5-4.2,18.7c-1.5,3.2-4.4,15.1-4.4,29
							c0,5.8-0.5,9.3-1.1,11.5c-0.1,0.4-1.1,4.1-1.5,5.6c-0.6,2-3.2,7.9-4.3,10.8c-1.1,2.9-1.8,6.2-2.8,9.6c-0.6,2.1-1.5,5-1.5,6.4
							c0,1.2,0.4,1.6,1.1,1.9c1,0.4,1.9-0.9,2.6-3.1c0.6-1.7,1.5-5.4,2.1-6.5c0.3-0.5,0.2,0.3,0,1.1c-0.6,2.1-2,6.5-2.7,9
							c-0.7,2.4-1,4.8-0.3,5.6c0.8,0.9,1.9,0.6,2.5-0.3c0.7-1.2,1-3.6,1.4-5.3c0.9-3,3-9.3,3-9.3s-2.1,7.7-2.9,10.4
							c-0.1,0.3-0.7,3.1-0.9,4.9c-0.2,1.8,0.3,3.4,1.6,3.1c2.5-0.5,2.7-5.4,3.6-8.9c0.9-3.4,2.7-9,2.7-9s-1.4,6.9-2.3,10.8
							c-0.9,3.8-0.5,6.2,1.2,5.5c1.7-0.7,2.5-3.3,2.8-4.8c0.3-1.5,1-4.3,1.5-6.7c0.5-2.4,2.2-9.4,3.2-9.2c0.9,0.2,0.7,5.5,3.6,8
							c2.8,2.6,4.7,0.3,3.8-1.5c-0.9-1.8-2-3.8-2.9-9.2c-0.6-3.2-2.2-6.1-4.2-8.6c-0.4-0.5-0.8-0.9-1-1.4c-0.1-0.3-0.2-0.6-0.2-0.9
							c0.5-1.8,1.1-3.7,1.1-3.7c1.9-5.8,6.4-19.8,9.4-28.4c3.8-11,2.5-14.8,3-19.5c0.4-3.1,3.6-10.8,5.9-19c3.5,7.4,7.2,18.3,5,29
							c-3.8,18.9-2.6,13.4-3.8,18.9c-1.3,6.1-2.6,12-3.2,18.2c-1.3,13.8-2.4,27.9-0.2,41.6c0.8,5,3.7,33.9,3.5,34.9
							c-0.7,3.8-2.9,11.7-3.8,16.1c-0.9,4.5-0.4,11.1-0.1,23.3c0.3,12.2,1.9,21.6,2.4,28.3c0.4,5.7-0.4,20.4-0.6,24.4
							c0,0.7-0.2,1.4-0.4,2.1c-0.5,1.5-1.3,3.6-2.2,5.4c-1.7,3.2-5.5,9.2-6.8,10.5c-1.3,1.3-3.4,4.4-1.4,5.3c0.7,0.3,1,0,1,0
							c-0.3,1,0.2,2.1,0.8,2.4c0.5,0.2,1.1,0.2,1.1,0.2c0.1,0.8,1,2.3,2.9,1.7c0,0,0.5,1.7,2,1.8c0.5,0,1,0,1.4-0.2
							c0.4-0.2,0.9-0.7,1.4-1.8c0,0-0.4,1.5,1.5,2.3c1.9,0.7,4.1-0.1,5.3-2.6c1.2-2.4,1-2.9,2-5c1-2.1,0.5-7.6,1.2-9.9
							c0.7-2.2,2.8-3,3-4.9c0.1-1.1,0.2-3.2-0.1-5.3c0,0,0.1-8.4,0.1-8.4l0.2-3.7c0.4-5.8,1.1-11.5,2.2-17.2
							c1.8-9.5,4.4-25.4,5.1-35c1-12.9,2.2-23.7,2.9-25.7c0-0.1,0.1-0.2,0.1-0.4c2.6-7.9,4.4-16,5.3-24.2c0.3-2.6,0.6-5.5,0.8-8.5
							c0.9-13.5,0.5-20.9,2.9-21.2c2.4,0.4,2,7.7,2.9,21.2c0.2,3.1,0.5,5.9,0.8,8.5c0.9,8.2,2.7,16.3,5.3,24.2
							c0.1,0.2,0.1,0.3,0.1,0.4c0.7,2.1,1.9,12.9,2.9,25.7c0.8,9.6,3.3,25.4,5.1,35c1.1,5.7,1.8,11.4,2.2,17.2l0.2,3.7
							c0,0,0.1,8.4,0.1,8.4c-0.3,2-0.2,4.1-0.1,5.3c0.2,1.9,2.2,2.6,3,4.9c0.7,2.2,0.3,7.8,1.2,9.9c1,2.1,0.8,2.6,2,5
							c1.2,2.4,3.4,3.3,5.3,2.6c1.9-0.7,1.5-2.3,1.5-2.3c0.5,1.2,1,1.7,1.4,1.8c0.5,0.2,0.9,0.2,1.4,0.2c1.5-0.1,2-1.8,2-1.8
							c1.9,0.5,2.8-0.9,2.9-1.7c0,0,0.6,0.1,1.1-0.2c0.6-0.3,1.1-1.4,0.8-2.4c0,0,0.3,0.3,1,0c1.9-0.9-0.1-4-1.4-5.3
							c-1.3-1.3-5.1-7.3-6.8-10.5c-0.9-1.8-1.7-3.9-2.2-5.4c-0.2-0.7-0.4-1.4-0.4-2.1c-0.2-4-1.1-18.7-0.6-24.4
							c0.5-6.7,2.1-16.1,2.4-28.3c0.3-12.2,0.8-18.9-0.1-23.3c-0.9-4.5-3.1-12.3-3.8-16.1c-0.2-1,2.7-29.9,3.5-34.9
							c2.2-13.7,1.2-27.7-0.2-41.6c-0.6-6.2-1.9-12.1-3.2-18.2c-1.2-5.5,0,0-3.8-18.9c-2.2-10.7,1.5-21.6,5-29
							c2.3,8.2,5.6,15.9,5.9,19c0.6,4.7-0.8,8.5,3,19.5c2.9,8.5,7.5,22.5,9.4,28.4l0.9,2.5c0.2,0.7,0.3,1.5,0,2.2
							c-0.3,0.5-0.6,1-1,1.4c-2.1,2.5-3.7,5.4-4.2,8.6c-0.9,5.3-2.1,7.4-2.9,9.2c-0.9,1.8,1,4,3.8,1.5c2.8-2.6,2.6-7.8,3.6-8
							c0.9-0.2,2.7,6.8,3.2,9.2c0.5,2.4,1.2,5.2,1.5,6.7c0.3,1.5,1.1,4.1,2.8,4.8c1.7,0.7,2.1-1.7,1.2-5.5
							c-0.9-3.8-2.3-10.8-2.3-10.8s1.7,5.5,2.7,9c0.9,3.4,1.1,8.4,3.6,8.9c1.3,0.2,1.9-1.3,1.6-3.1c-0.2-1.8-0.8-4.7-0.9-4.9
							c-0.8-2.8-2.9-10.4-2.9-10.4s2.1,6.2,3,9.3c0.5,1.7,0.8,4.1,1.4,5.3c0.5,0.9,1.6,1.2,2.5,0.3c0.7-0.8,0.4-3.2-0.3-5.6
							c-0.7-2.5-2.1-6.9-2.7-9c-0.2-0.8-0.3-1.7,0-1.1c0.6,1.2,1.5,4.8,2.1,6.5c0.8,2.2,1.6,3.5,2.6,3.1c0.6-0.3,1.1-0.7,1.1-1.9
							C147.5,207.8,146.6,204.9,146,202.8z"/>
						<path class="st6" d="M146,202.8c-1-3.4-1.7-6.7-2.8-9.6c-1.1-2.9-3.7-8.7-4.3-10.8c-0.5-1.5-1.4-5.2-1.5-5.6
							c-0.6-2.2-1.1-5.7-1.1-11.5c0-13.8-2.8-25.8-4.4-29c-1.5-3.2-2.5-5.7-4.2-18.7c-1.8-13.1,1.6-10.9,0-26.7
							c-1.6-15.8-13.8-18.6-19.2-19.8c-5.4-1.3-16.5-5.8-18.7-7.5c-1.1-0.8-1.2-4.9-1.1-8.9c1.7-2.5,2.5-5.9,3.1-8.8
							c0.3,0.3,0.8,0.9,1.3,1c0.7,0.1,1.7-2.1,2-3.2c0.3-1.1,0.7-5,0.3-6.5c-0.5-1.5-1.6-0.3-1.9,0.3c-0.1,0.2-0.4,0.4-0.7,0.6
							c0.1-1.9,0.2-3.8,0.5-5.8c0.5-3.8,0.3-7.4-1-11C89.5,13.6,79,13,77.5,13v0l0,0l0,0v0c-1.5,0-12,0.6-14.7,8.2
							c-1.3,3.6-1.5,7.3-1,11c0.3,1.9,0.4,3.8,0.5,5.8c-0.3-0.2-0.6-0.4-0.7-0.6c-0.4-0.6-1.5-1.7-1.9-0.3c-0.5,1.5-0.1,5.4,0.3,6.5
							c0.3,1.1,1.3,3.3,2,3.2c0.5,0,1-0.7,1.3-1c0.6,2.9,1.5,6.3,3.1,8.8c0.1,4-0.1,8.1-1.1,8.9c-2.1,1.6-13.3,6.2-18.7,7.5
							c-5.4,1.3-17.5,4-19.2,19.8c-1.6,15.8,1.8,13.6,0,26.7c-1.8,13.1-2.7,15.5-4.2,18.7c-1.5,3.2-4.4,15.1-4.4,29
							c0,5.8-0.5,9.3-1.1,11.5c-0.1,0.4-1.1,4.1-1.5,5.6c-0.6,2-3.2,7.9-4.3,10.8c-1.1,2.9-1.8,6.2-2.8,9.6c-0.6,2.1-1.5,5-1.5,6.4
							c0,1.2,0.4,1.6,1.1,1.9c1,0.4,1.9-0.9,2.6-3.1c0.6-1.7,1.5-5.4,2.1-6.5c0.3-0.5,0.2,0.3,0,1.1c-0.6,2.1-2,6.5-2.7,9
							c-0.7,2.4-1,4.8-0.3,5.6c0.8,0.9,1.9,0.6,2.5-0.3c0.7-1.2,1-3.6,1.4-5.3c0.9-3,3-9.3,3-9.3s-2.1,7.7-2.9,10.4
							c-0.1,0.3-0.7,3.1-0.9,4.9c-0.2,1.8,0.3,3.4,1.6,3.1c2.5-0.5,2.7-5.4,3.6-8.9c0.9-3.4,2.7-9,2.7-9s-1.4,6.9-2.3,10.8
							c-0.9,3.8-0.5,6.2,1.2,5.5c1.7-0.7,2.5-3.3,2.8-4.8c0.3-1.5,1-4.3,1.5-6.7c0.5-2.4,2.2-9.4,3.2-9.2c0.9,0.2,0.7,5.5,3.6,8
							c2.8,2.6,4.7,0.3,3.8-1.5c-0.9-1.8-2-3.8-2.9-9.2c-0.6-3.2-2.2-6.1-4.2-8.6c-0.4-0.5-0.8-0.9-1-1.4c-0.1-0.3-0.2-0.6-0.2-0.9
							c0.5-1.8,1.1-3.7,1.1-3.7c1.9-5.8,6.4-19.8,9.4-28.4c3.8-11,2.5-14.8,3-19.5c0.4-3.1,3.6-10.8,5.9-19c3.5,7.4,7.2,18.3,5,29
							c-3.8,18.9-2.6,13.4-3.8,18.9c-1.3,6.1-2.6,12-3.2,18.2c-1.3,13.8-2.4,27.9-0.2,41.6c0.8,5,3.7,33.9,3.5,34.9
							c-0.7,3.8-2.9,11.7-3.8,16.1c-0.9,4.5-0.4,11.1-0.1,23.3c0.3,12.2,1.9,21.6,2.4,28.3c0.4,5.7-0.4,20.4-0.6,24.4
							c0,0.7-0.2,1.4-0.4,2.1c-0.5,1.5-1.3,3.6-2.2,5.4c-1.7,3.2-5.5,9.2-6.8,10.5c-1.3,1.3-3.4,4.4-1.4,5.3c0.7,0.3,1,0,1,0
							c-0.3,1,0.2,2.1,0.8,2.4c0.5,0.2,1.1,0.2,1.1,0.2c0.1,0.8,1,2.3,2.9,1.7c0,0,0.5,1.7,2,1.8c0.5,0,1,0,1.4-0.2
							c0.4-0.2,0.9-0.7,1.4-1.8c0,0-0.4,1.5,1.5,2.3c1.9,0.7,4.1-0.1,5.3-2.6c1.2-2.4,1-2.9,2-5c1-2.1,0.5-7.6,1.2-9.9
							c0.7-2.2,2.8-3,3-4.9c0.1-1.1,0.2-3.2-0.1-5.3c0,0,0.1-8.4,0.1-8.4l0.2-3.7c0.4-5.8,1.1-11.5,2.2-17.2
							c1.8-9.5,4.4-25.4,5.1-35c1-12.9,2.2-23.7,2.9-25.7c0-0.1,0.1-0.2,0.1-0.4c2.6-7.9,4.4-16,5.3-24.2c0.3-2.6,0.6-5.5,0.8-8.5
							c0.9-13.5,0.5-20.9,2.9-21.2c2.4,0.4,2,7.7,2.9,21.2c0.2,3.1,0.5,5.9,0.8,8.5c0.9,8.2,2.7,16.3,5.3,24.2
							c0.1,0.2,0.1,0.3,0.1,0.4c0.7,2.1,1.9,12.9,2.9,25.7c0.8,9.6,3.3,25.4,5.1,35c1.1,5.7,1.8,11.4,2.2,17.2l0.2,3.7
							c0,0,0.1,8.4,0.1,8.4c-0.3,2-0.2,4.1-0.1,5.3c0.2,1.9,2.2,2.6,3,4.9c0.7,2.2,0.3,7.8,1.2,9.9c1,2.1,0.8,2.6,2,5
							c1.2,2.4,3.4,3.3,5.3,2.6c1.9-0.7,1.5-2.3,1.5-2.3c0.5,1.2,1,1.7,1.4,1.8c0.5,0.2,0.9,0.2,1.4,0.2c1.5-0.1,2-1.8,2-1.8
							c1.9,0.5,2.8-0.9,2.9-1.7c0,0,0.6,0.1,1.1-0.2c0.6-0.3,1.1-1.4,0.8-2.4c0,0,0.3,0.3,1,0c1.9-0.9-0.1-4-1.4-5.3
							c-1.3-1.3-5.1-7.3-6.8-10.5c-0.9-1.8-1.7-3.9-2.2-5.4c-0.2-0.7-0.4-1.4-0.4-2.1c-0.2-4-1.1-18.7-0.6-24.4
							c0.5-6.7,2.1-16.1,2.4-28.3c0.3-12.2,0.8-18.9-0.1-23.3c-0.9-4.5-3.1-12.3-3.8-16.1c-0.2-1,2.7-29.9,3.5-34.9
							c2.2-13.7,1.2-27.7-0.2-41.6c-0.6-6.2-1.9-12.1-3.2-18.2c-1.2-5.5,0,0-3.8-18.9c-2.2-10.7,1.5-21.6,5-29
							c2.3,8.2,5.6,15.9,5.9,19c0.6,4.7-0.8,8.5,3,19.5c2.9,8.5,7.5,22.5,9.4,28.4l0.9,2.5c0.2,0.7,0.3,1.5,0,2.2
							c-0.3,0.5-0.6,1-1,1.4c-2.1,2.5-3.7,5.4-4.2,8.6c-0.9,5.3-2.1,7.4-2.9,9.2c-0.9,1.8,1,4,3.8,1.5c2.8-2.6,2.6-7.8,3.6-8
							c0.9-0.2,2.7,6.8,3.2,9.2c0.5,2.4,1.2,5.2,1.5,6.7c0.3,1.5,1.1,4.1,2.8,4.8c1.7,0.7,2.1-1.7,1.2-5.5
							c-0.9-3.8-2.3-10.8-2.3-10.8s1.7,5.5,2.7,9c0.9,3.4,1.1,8.4,3.6,8.9c1.3,0.2,1.9-1.3,1.6-3.1c-0.2-1.8-0.8-4.7-0.9-4.9
							c-0.8-2.8-2.9-10.4-2.9-10.4s2.1,6.2,3,9.3c0.5,1.7,0.8,4.1,1.4,5.3c0.5,0.9,1.6,1.2,2.5,0.3c0.7-0.8,0.4-3.2-0.3-5.6
							c-0.7-2.5-2.1-6.9-2.7-9c-0.2-0.8-0.3-1.7,0-1.1c0.6,1.2,1.5,4.8,2.1,6.5c0.8,2.2,1.6,3.5,2.6,3.1c0.6-0.3,1.1-0.7,1.1-1.9
							C147.5,207.8,146.6,204.9,146,202.8z"/>
						<g>
							<path class="st7" d="M121.9,206.7c0,0,1.9-2.1-0.5-3.6c0,0-0.3,0.1-0.5,0.5c-0.3,0.6-0.9,1.7-0.8,1.8
								C120,205.7,120.5,207,121.9,206.7z"/>
							<path class="st7" d="M136.4,217.6c0,0-0.4-2.6-1.7-2.4c-1.6,0.3-1,2-0.6,2.7S136.2,218.7,136.4,217.6z"/>
							<path class="st7" d="M141.5,219.2c0,0-0.4-2.7-1.7-2.5c-1.4,0.2-1,2.2-0.7,2.9C139.4,220.3,141.1,220.3,141.5,219.2z"/>
							<path class="st7" d="M144.9,216.3c0,0-0.4-2.5-1.6-2.4c-1.3,0.2-1,2-0.7,2.7C142.9,217.3,144.5,217.3,144.9,216.3z"/>
							<path class="st7" d="M147.2,209.9c0,0-0.3-2.1-1.3-2c-1.1,0.1-0.8,1.7-0.6,2.2C145.6,210.7,146.9,210.7,147.2,209.9z"/>
						</g>
						<g>
							<path class="st7" d="M45.5,376.2c0,0,1.5,1.7,3.8,0.7c0,0,0.3-1.1-1.4-1.5C45.7,375,45.5,376.2,45.5,376.2z"/>
							<path class="st7" d="M40.9,376.3c0,0,0.7,1.8,2.5,0.6c0,0,0.5-1-1.1-1.4C41.1,375.2,40.9,376.3,40.9,376.3z"/>
							<path class="st7" d="M37.8,374.8c0,0,0.6,1.4,2.1,0.5c0,0,0.4-0.8-0.9-1.1C37.9,373.9,37.8,374.8,37.8,374.8z"/>
							<path class="st7" d="M35.6,372.9c0,0,0.4,1.4,1.8,0.7c0,0,0.5-0.7-0.7-1.1C35.7,372.2,35.6,372.9,35.6,372.9z"/>
							<path class="st7" d="M33.8,370.7c0,0,0.5,1.1,1.5,0.6c0,0,0.2-0.5-0.5-0.9C34.2,370.2,33.8,370.7,33.8,370.7z"/>
						</g>
						<g>
							<path class="st7" d="M109.5,376.2c0,0-1.5,1.7-3.8,0.7c0,0-0.3-1.1,1.4-1.5C109.3,375,109.5,376.2,109.5,376.2z"/>
							<path class="st7" d="M114,376.3c0,0-0.7,1.8-2.5,0.6c0,0-0.5-1,1.1-1.4C113.9,375.2,114,376.3,114,376.3z"/>
							<path class="st7" d="M117.2,374.8c0,0-0.6,1.4-2.1,0.5c0,0-0.4-0.8,0.9-1.1C117.1,373.9,117.2,374.8,117.2,374.8z"/>
							<path class="st7" d="M119.4,372.9c0,0-0.4,1.4-1.8,0.7c0,0-0.5-0.7,0.7-1.1C119.3,372.2,119.4,372.9,119.4,372.9z"/>
							<path class="st7" d="M121.2,370.7c0,0-0.5,1.1-1.5,0.6c0,0-0.2-0.5,0.5-0.9C120.8,370.2,121.2,370.7,121.2,370.7z"/>
						</g>
					</g>
					<path class="st1" d="M143.2,193.2c-1.1-2.9-3.7-8.7-4.3-10.8c-0.5-1.5-1.4-5.2-1.5-5.6c-0.6-2.2-1.1-5.7-1.1-11.5
						c0-13.8-2.8-25.8-4.4-29c-1.5-3.2-2.5-5.7-4.2-18.7c-1.6-12,1.1-11.2,0.3-23.1c-0.5-0.2-2.7-1.6-4.2-1.7
						c-5.6-0.5-7.9,4.2-13.5,3.2c-6.7-1.1-12.3-4.8-19.1-2.4c-5.1,1.7-9.9,2.2-15.1,0.6c-3.5-1.1-7-2.7-10.8-1.9
						c-3,0.7-5.9,1.4-8.9,2.1c-8.6,1.9-11.3-2-16.7-3.1c-4.7-1-8.1-0.1-12.3,1.2c-1.2,13.9,1.9,12.4,0.2,25
						c-1.8,13.1-2.7,15.5-4.2,18.7c-1.5,3.2-4.4,15.1-4.4,29c0,5.8-0.5,9.3-1.1,11.5c-0.1,0.4-1.1,4.1-1.5,5.6
						c-0.6,2-3.2,7.9-4.3,10.8c-1.1,2.9-1.8,6.2-2.8,9.6c-0.6,2.1-1.5,5-1.5,6.4c0,1.2,0.4,1.6,1.1,1.9c1,0.4,1.9-0.9,2.6-3.1
						c0.6-1.7,1.5-5.4,2.1-6.5c0.3-0.5,0.2,0.3,0,1.1c-0.6,2.1-2,6.5-2.7,9c-0.7,2.4-1,4.8-0.3,5.6c0.8,0.9,1.9,0.6,2.5-0.3
						c0.7-1.2,1-3.6,1.4-5.3c0.9-3,3-9.3,3-9.3s-2.1,7.7-2.9,10.4c-0.1,0.3-0.7,3.1-0.9,4.9c-0.2,1.8,0.3,3.4,1.6,3.1
						c2.5-0.5,2.7-5.4,3.6-8.9c0.9-3.4,2.7-9,2.7-9s-1.4,6.9-2.3,10.8c-0.9,3.8-0.5,6.2,1.2,5.5c1.7-0.7,2.5-3.3,2.8-4.8
						c0.3-1.5,1-4.3,1.5-6.7c0.5-2.4,2.2-9.4,3.2-9.2c0.9,0.2,0.7,5.5,3.6,8c2.5,2.3,4.3,0.7,4-0.9c0,0,0,0,0,0c0,0,0-0.1,0-0.1
						c0-0.1-0.1-0.3-0.1-0.4c-0.9-1.8-2-3.8-2.9-9.2c-0.6-3.2-2.2-6.1-4.2-8.6c-0.4-0.5-0.8-0.9-1-1.4c-0.1-0.3-0.2-0.6-0.2-0.9
						c0.5-1.8,1.1-3.7,1.1-3.7c1.9-5.8,6.4-19.8,9.4-28.4c3.8-11,2.5-14.8,3-19.5c0.4-3.1,3.6-10.8,5.9-19c3.5,7.4,7.2,18.3,5,29
						c-3.8,18.9-2.6,13.4-3.8,18.9c-1.3,6.1-2.6,12-3.2,18.2c-1.3,13.8-2.4,27.9-0.2,41.6c0.8,5,3.7,33.9,3.5,34.9
						c-0.7,3.8-2.9,11.7-3.8,16.1c-0.9,4.5-0.4,11.1-0.1,23.3c0.3,12.2,1.9,21.6,2.4,28.3c0.4,5.7-0.4,20.4-0.6,24.4
						c0,0.7-0.2,1.4-0.4,2.1c-0.5,1.5-1.3,3.6-2.2,5.4c-1.7,3.2-5.5,9.2-6.8,10.5c-1.3,1.3-3.4,4.4-1.4,5.3c0.7,0.3,1,0,1,0
						c-0.3,1,0.2,2.1,0.8,2.4c0.5,0.2,1.1,0.2,1.1,0.2c0.1,0.8,1,2.3,2.9,1.7c0,0,0.5,1.7,2,1.8c0.5,0,1,0,1.4-0.2
						c0.4-0.2,0.9-0.7,1.4-1.8c0,0-0.4,1.5,1.5,2.3c1.9,0.7,4.1-0.1,5.3-2.6c1.2-2.4,1-2.9,2-5c1-2.1,0.5-7.6,1.2-9.9
						c0.7-2.2,2.8-3,3-4.9c0.1-1.1,0.2-3.2-0.1-5.3c0,0,0.1-8.4,0.1-8.4l0.2-3.7c0.4-5.8,1.1-11.5,2.2-17.2c1.8-9.5,4.4-25.4,5.1-35
						c1-12.9,2.2-23.7,2.9-25.7c0-0.1,0.1-0.2,0.1-0.4c2.6-7.9,4.4-16,5.3-24.2c0.3-2.6,0.6-5.5,0.8-8.5c0.9-13.5,0.5-20.9,2.9-21.2
						c2.4,0.4,2,7.7,2.9,21.2c0.2,3.1,0.5,5.9,0.8,8.5c0.9,8.2,2.7,16.3,5.3,24.2c0.1,0.2,0.1,0.3,0.1,0.4
						c0.7,2.1,1.9,12.9,2.9,25.7c0.8,9.6,3.3,25.4,5.1,35c1.1,5.7,1.8,11.4,2.2,17.2l0.2,3.7c0,0,0.1,8.4,0.1,8.4
						c-0.3,2-0.2,4.1-0.1,5.3c0.2,1.9,2.2,2.6,3,4.9c0.7,2.2,0.3,7.8,1.2,9.9c1,2.1,0.8,2.6,2,5c1.2,2.4,3.4,3.3,5.3,2.6
						c1.9-0.7,1.5-2.3,1.5-2.3c0.5,1.2,1,1.7,1.4,1.8c0.5,0.2,0.9,0.2,1.4,0.2c1.5-0.1,2-1.8,2-1.8c1.9,0.5,2.8-0.9,2.9-1.7
						c0,0,0.6,0.1,1.1-0.2c0.6-0.3,1.1-1.4,0.8-2.4c0,0,0.3,0.3,1,0c1.9-0.9-0.1-4-1.4-5.3c-1.3-1.3-5.1-7.3-6.8-10.5
						c-0.9-1.8-1.7-3.9-2.2-5.4c-0.2-0.7-0.4-1.4-0.4-2.1c-0.2-4-1.1-18.7-0.6-24.4c0.5-6.7,2.1-16.1,2.4-28.3
						c0.3-12.2,0.8-18.9-0.1-23.3c-0.9-4.5-3.1-12.3-3.8-16.1c-0.2-1,2.7-29.9,3.5-34.9c2.2-13.7,1.2-27.7-0.2-41.6
						c-0.6-6.2-1.9-12.1-3.2-18.2c-1.2-5.5,0,0-3.8-18.9c-2.2-10.7,1.5-21.6,5-29c2.3,8.2,5.6,15.9,5.9,19c0.6,4.7-0.8,8.5,3,19.5
						c2.9,8.5,7.5,22.5,9.4,28.4l0.9,2.5c0.2,0.7,0.3,1.5,0,2.2c-0.3,0.5-0.6,1-1,1.4c-2.1,2.5-3.7,5.4-4.2,8.6
						c-0.9,5.3-2.1,7.4-2.9,9.2c-0.9,1.8,1,4,3.8,1.5c2.8-2.6,2.6-7.8,3.6-8c0.9-0.2,2.7,6.8,3.2,9.2c0.5,2.4,1.2,5.2,1.5,6.7
						c0.3,1.5,1.1,4.1,2.8,4.8c1.7,0.7,2.1-1.7,1.2-5.5c-0.9-3.8-2.3-10.8-2.3-10.8s1.7,5.5,2.7,9c0.9,3.4,1.1,8.4,3.6,8.9
						c1.3,0.2,1.9-1.3,1.6-3.1c-0.2-1.8-0.8-4.7-0.9-4.9c-0.8-2.8-2.9-10.4-2.9-10.4s2.1,6.2,3,9.3c0.5,1.7,0.8,4.1,1.4,5.3
						c0.5,0.9,1.6,1.2,2.5,0.3c0.7-0.8,0.4-3.2-0.3-5.6c-0.7-2.5-2.1-6.9-2.7-9c-0.2-0.8-0.3-1.7,0-1.1c0.6,1.2,1.5,4.8,2.1,6.5
						c0.8,2.2,1.6,3.5,2.6,3.1c0.6-0.3,1.1-0.7,1.1-1.9c0-1.3-0.9-4.3-1.5-6.4C144.9,199.4,144.3,196.1,143.2,193.2z"/>
				</g>
			</g>
		</g>
	</g>
</g>
</svg>
