<?xml version="1.0" encoding="utf-8"?>
<!-- Generator: Adobe Illustrator 23.1.0, SVG Export Plug-In . SVG Version: 6.00 Build 0)  -->
<svg version="1.1" id="Layer_1" xmlns="http://www.w3.org/2000/svg" xmlns:xlink="http://www.w3.org/1999/xlink" x="0px" y="0px"
	 viewBox="0 0 600 300" style="enable-background:new 0 0 600 300;" xml:space="preserve">
<style type="text/css">
	.st0{fill:#FFF188;}
	.st1{fill:#F4E662;}
	.st2{fill:#E8D160;}
	.st3{fill:#CCBD52;}
	.st4{fill:#FCBC1D;}
	.st5{fill:#FFAE0D;}
	.st6{fill:#FFC82C;}
	.st7{fill:#3F1D06;}
	.st8{fill:#FFFFFF;}
	.st9{fill:#FCD26D;}
	.st10{fill:#F9B55A;}
	.st11{opacity:0.2;fill:#FFFFFF;enable-background:new    ;}
	.st12{fill:#7BA1EA;}
	.st13{fill:#3F72C4;}
	.st14{fill:#D8D10E;}
	.st15{fill:#FF7900;}
	.st16{fill:#FF8827;}
	.st17{fill:#FF5500;}
	.st18{opacity:0.5;fill:#FF5500;enable-background:new    ;}
	.st19{fill:#EF6100;}
	.st20{opacity:0.2;fill:#801F18;enable-background:new    ;}
	.st21{fill:#847A20;}
	.st22{fill:#FF6700;}
	.st23{fill:#FF9D00;}
	.st24{fill:#BF300F;}
	.st25{opacity:0.3;fill:#BF300F;enable-background:new    ;}
	.st26{opacity:0.5;fill:url(#SVGID_1_);enable-background:new    ;}
	.st27{opacity:0.2;fill:#FF6700;enable-background:new    ;}
	.st28{fill:#9BC31C;}
	.st29{fill:#EAF490;}
	.st30{fill:#BFD856;}
	.st31{fill:#E0ED64;}
	.st32{fill:#39612A;}
	.st33{opacity:0.2;fill:#BDC31D;enable-background:new    ;}
	.st34{opacity:0.1;fill:#BDC31D;enable-background:new    ;}
	.st35{opacity:0.4;}
	.st36{opacity:0.72;fill:#FCC12F;enable-background:new    ;}
	.st37{opacity:0.55;}
	.st38{fill:#DA1727;}
	.st39{fill:#635E00;}
	.st40{fill:#51210E;}
	.st41{fill:#D11515;}
	.st42{fill:#29990A;}
	.st43{fill:#EEEA82;}
	.st44{fill:#BDC31D;}
	.st45{fill:#B58E48;}
	.st46{fill:#8E6342;}
	.st47{fill:#CEA972;}
	.st48{fill:#EF9B29;}
	.st49{fill:#FFB612;}
	.st50{fill:#FCC12F;}
	.st51{fill:#98890F;}
	.st52{fill:#FF9C31;}
	.st53{fill:#FD7408;}
	.st54{fill:#160A02;}
	.st55{fill:#775432;}
	.st56{fill:#A8A80F;}
	.st57{fill:#FCE700;}
	.st58{fill:#D6E84F;}
	.st59{fill:#9FFF5A;}
	.st60{fill:#00FFD2;}
	.st61{fill:#73BBFF;}
	.st62{fill:#AB85FF;}
	.st63{fill:#8683FF;}
	.st64{fill:#FFA2FA;}
	.st65{fill:#D0A8FF;}
	.st66{fill:#FF7473;}
	.st67{fill:#FFA351;}
	.st68{fill:#47FFB6;}
</style>
<title>02fitslider3</title>
<g>
	<g>
		<g id="nutrition">
			<g>
				<g>
					<g>
						<path class="st0" d="M341.9,183.5l37-21.8L366,200.8C366,200.8,343.3,197.4,341.9,183.5z"/>
						<path class="st1" d="M378.9,161.8l11.6,6.6l-6.5,32.5c0,0-2.4,0.5-18,0L378.9,161.8z"/>
					</g>
					<g>
						<path class="st2" d="M353.7,184c0.3,0.1,0.5,0.3,0.7,0.5c1,1,1.1,3.1,0.2,5.2c-0.9,2.1-2.5,3.5-3.9,3.7c-0.3,0-0.6,0-0.9-0.1
							c-1.6-0.6-2-3.1-0.9-5.7C350,185,352.1,183.4,353.7,184z"/>
						<path class="st3" d="M354.4,184.4c1,1,1.1,3.1,0.2,5.2c-0.9,2.1-2.5,3.5-3.9,3.7c-1-1-1.1-3.1-0.2-5.2S353,184.5,354.4,184.4z
							"/>
					</g>
					<g>
						<path class="st2" d="M380.1,195.6c-0.3-0.1-0.5-0.3-0.7-0.5c-1-1-1.1-3.1-0.2-5.2c0.9-2.1,2.5-3.5,3.9-3.7
							c0.3,0,0.6,0,0.9,0.1c1.6,0.6,2,3.1,0.9,5.7C383.8,194.6,381.6,196.2,380.1,195.6z"/>
						<path class="st3" d="M379.4,195.2c-1-1-1.1-3.1-0.2-5.2c0.9-2.1,2.5-3.5,3.9-3.7c1,1,1.1,3.1,0.2,5.2
							C382.4,193.6,380.8,195.1,379.4,195.2z"/>
					</g>
					<g>
						<path class="st2" d="M380,172.6c-0.2-0.1-0.3-0.2-0.4-0.3c-0.6-1-0.7-2.2-0.1-3.2c0.4-1.1,1.2-1.9,2.4-2.2
							c0.2,0,0.4,0,0.5,0.1c1,0.4,1.2,1.9,0.5,3.5S381,173,380,172.6z"/>
						<path class="st3" d="M379.6,172.3c-0.6-1-0.7-2.2-0.1-3.2c0.4-1.1,1.2-1.9,2.4-2.2c0.6,1,0.7,2.2,0.1,3.2
							C381.6,171.2,380.7,172,379.6,172.3z"/>
					</g>
					<g>
						<path class="st2" d="M367.5,175.7c0.3,0.1,0.5,0.3,0.7,0.5c1,1,1.1,3.1,0.2,5.2c-0.9,2.1-2.5,3.5-3.9,3.7
							c-0.3,0-0.6,0-0.9-0.1c-1.6-0.6-2-3.1-0.9-5.7C363.7,176.7,365.9,175.1,367.5,175.7z"/>
						<path class="st3" d="M368.1,176.1c1,1,1.1,3.1,0.2,5.2c-0.9,2.1-2.5,3.5-3.9,3.7c-1-1-1.1-3.1-0.2-5.2
							S366.7,176.2,368.1,176.1z"/>
					</g>
				</g>
				<g>
					<path class="st4" d="M363.7,147.7c3.4,17.6-11.3,34.3-29.2,42.4c-15,6.8-32.3,7.5-43.1-2.7l0,0c-4.7-0.3-4.4-4.5,0.3-4.1
						c26.6-6.1,45.2-18.2,67.1-37.7C360.9,141.4,365.8,143.5,363.7,147.7z"/>
					<path class="st5" d="M363.7,147.7c6.2,32.4-48.7,62-72.3,39.7C291.5,187.4,338.8,204.1,363.7,147.7z"/>
					<path class="st6" d="M358.9,145.6c0,0-11.8,19.4-29.8,29.7c-11.1,6.2-23.5,9.5-36.2,9.7l-1.1-1.8
						C318.4,177.1,337.1,165.1,358.9,145.6z"/>
					<path class="st7" d="M304.9,185.3c0,0,20.4-0.5,40.9-21.5C345.7,163.8,329.1,187,304.9,185.3z"/>
					<path class="st7" d="M363.7,147.7c-4.5,1.9-4.8-2-4.8-2C360.9,141.4,365.8,143.5,363.7,147.7z"/>
					<path class="st7" d="M291.5,187.4c-4.7-0.3-4.4-4.5,0.3-4.1C294.6,186.3,291.5,187.4,291.5,187.4z"/>
					<path class="st7" d="M334.6,190.1c-15,6.8-32.3,7.5-43.1-2.7C292,187.8,307.7,199.7,334.6,190.1z"/>
					<path class="st8" d="M336.4,166.5c0.6,1-3.8,4.4-9.8,7.7s-11.4,5.2-12,4.2s4.9-2.7,10.9-6C331.5,169.2,335.8,165.6,336.4,166.5
						z"/>
				</g>
				<g>
					<path class="st9" d="M301.4,205.6c-0.3,7.2-5.1,10.2-10.8,10s-10.2-3.5-9.9-10.8s5.3-15.4,11-15.2S301.7,198.4,301.4,205.6z"/>
					<path class="st10" d="M301.2,202.1c-0.2,2.9-0.5,5.4-3.1,7.7c-4.4,3.8-12.8,2.8-14.1-2.5c-1.9-7,1.4-14.5,8-17.7h-0.3
						c-5.7-0.2-10.7,8.1-11,15.2c-0.3,7.2,4.2,10.5,9.9,10.8s10.5-2.8,10.8-10C301.5,204.4,301.4,203.3,301.2,202.1z"/>
					<path class="st11" d="M297.8,196.7c1.2,3.3,0.7,6.5-1.1,7.1c-1.8,0.6-3.4-1.9-4.6-5.3c-1.2-3.3-1.4-6.2,0.3-6.8
						C294.3,191.2,296.7,193.4,297.8,196.7z"/>
				</g>
				<g>
					<path class="st12" d="M202,157.6l12.9,35.3c1.2,2.9-0.1,6.2-3,7.4c-0.1,0-0.2,0.1-0.3,0.1l-15.3,4.9c-3.2,0.8-6.5-0.9-7.5-4.1
						L175.9,166c-1.7-4.4-1.6-9.3,0.2-13.6l1.9-6c0.3-0.8,0.3-1.6,0-2.4l-0.6-1.6l7.9-2.5l0.6,1.6c0.1,0.3,0.3,0.7,0.5,1
						c0.3,0.4,0.6,0.7,0.9,0.9l5.5,3.7C197.1,149.3,200.3,153.1,202,157.6z"/>
					<path class="st13" d="M212.1,199.1l-16.8,5.4v-0.1C194.5,202.3,211.3,197,212.1,199.1L212.1,199.1z"/>
					<path class="st13" d="M185.7,141.1l-7.7,2.5c-1,0.4-2.2-0.2-2.6-1.2l-1.7-4.5c-0.3-1,0.2-2.1,1.2-2.4h0.1l7.7-2.5
						c1-0.4,2.2,0.2,2.6,1.2l1.7,4.5c0.3,1-0.2,2.1-1.2,2.4C185.8,141.1,185.8,141.1,185.7,141.1z"/>
					<g>
						<polygon class="st13" points="207.4,172.6 181.4,180.9 176.4,167.1 202.4,158.8 						"/>
					</g>
					<g>
						<path class="st8" d="M181.3,178l-3.5-5.5l0.8-0.3l1.7,2.8c0.4,0.7,0.8,1.4,1.2,1.9l0,0c-0.1-0.6-0.2-1.4-0.2-2.2l-0.2-3.3
							l0.8-0.3l1.7,2.8c0.4,0.6,0.8,1.3,1.1,1.9l0,0c-0.1-0.7-0.2-1.4-0.2-2.2l-0.2-3.3l0.8-0.3l0.3,6.5l-0.8,0.3l-1.8-2.9
							c-0.4-0.6-0.7-1.2-1-1.8l0,0c0.1,0.7,0.2,1.4,0.2,2.1l0.2,3.4L181.3,178z"/>
						<path class="st8" d="M187.7,173.8v2.1l-0.8,0.3l0.1-6.7l0.9-0.3l4,5.3l-0.8,0.3l-1.3-1.7L187.7,173.8z M189.5,172.5l-1.2-1.5
							c-0.3-0.4-0.5-0.7-0.7-1l0,0c0,0.4,0.1,0.8,0.1,1.2v1.9L189.5,172.5z"/>
						<path class="st8" d="M191.5,168.7l-1.8,0.6l-0.2-0.7l4.4-1.5l0.2,0.7l-1.8,0.6l1.8,5.3l-0.8,0.3L191.5,168.7z"/>
						<path class="st8" d="M198.6,169.1l-2.4,0.8l0.7,2.2l2.6-0.9l0.2,0.6l-3.4,1.1l-2-6l3.2-1.1l0.2,0.6l-2.5,0.8l0.6,1.9l2.4-0.8
							L198.6,169.1z"/>
						<path class="st8" d="M198.9,165.6c0.5-0.2,0.9-0.5,1.4-0.6c0.6-0.3,1.3-0.3,1.9-0.1c0.4,0.2,0.7,0.5,0.8,1
							c0.2,0.7,0,1.5-0.6,1.9l0,0c0.6,0.1,1,0.4,1.3,0.9s0.6,1,1,1.5l-0.8,0.3c-0.3-0.4-0.6-0.8-0.9-1.3c-0.4-0.8-0.9-1-1.6-0.8
							l-0.7,0.2l0.9,2.6l-0.8,0.3L198.9,165.6z M200.6,168l0.8-0.3c0.6-0.1,1.1-0.7,1-1.3c0-0.1,0-0.2-0.1-0.3
							c-0.3-0.8-0.9-0.9-1.7-0.7c-0.3,0.1-0.5,0.2-0.7,0.3L200.6,168z"/>
					</g>
					<path class="st8" d="M181.1,154.3c-0.4,1.7-0.7,3.2-1.5,3s-1.2-1.7-0.8-3.5s1.4-3,2.2-2.9C181.8,151.2,181.5,152.6,181.1,154.3
						z"/>
					<path class="st8" d="M193.8,201.5c-1.5-1.2-2.6-2.1-3.2-1.5c-0.5,0.6,0.2,2,1.6,3.2s3.1,1.6,3.6,1
						C196.4,203.5,195.3,202.6,193.8,201.5z"/>
				</g>
				<g>
					<g>
						<g>
							<path class="st14" d="M340,198.2c0,0-11.2-6.1-12.8-2.1c-0.5,1.4,8.4,3.8,8.4,3.8s-12.5,1.7-10,5.7c0.9,1.3,11.5-2,11.5-2
								s-9.6,4.6-7.2,6.5c2.7,2.1,10-5.4,10-5.4s-4.4,4.7-1.8,5.8s6.5-11.8,6.5-11.8s-4.5-9.9-8.2-8.6
								C334.3,191,340,198.2,340,198.2z"/>
							<path class="st15" d="M390.5,206.2c-12.6-7-26.2-11.8-40.4-14.3c-9.8-2.2-14.5,20.1-4.7,22.2c0,0,24,3.8,44-1.4
								C392.9,211.8,393.5,208,390.5,206.2z"/>
							<path class="st16" d="M346.7,195.9c-0.8,3,2.6,4.6,9.1,5.4c11.5,1.3,26,5.9,26.8,4.2c0.6-1.5-18.7-9.7-25-11.1
								C351.4,192.9,347.5,192.9,346.7,195.9z"/>
							<path class="st17" d="M345.4,192.9c-3.2,5.2-3.3,9.5-2.1,13.4c0.7,2.2,2.5,3.8,4.7,4.2c11.4,2.5,42,4.1,44.1-2.9
								c1.2,1.9,0.2,4.4-2.5,5.1c-20.1,5.2-44,1.4-44,1.4C337.4,212.4,339.1,197.2,345.4,192.9z"/>
						</g>
						<path class="st18" d="M356.2,194c-0.5,6.4-2.2,12.7-5.1,18.5C351.1,212.5,357.7,207,356.2,194z"/>
						<path class="st18" d="M366.8,199c-0.4,5.2-1.8,10.3-4.1,15C362.7,214,368.1,209.5,366.8,199z"/>
						<path class="st18" d="M377.7,199.8c-0.4,5.2-1.8,10.3-4.1,15C373.6,214.8,378.9,210.4,377.7,199.8z"/>
					</g>
					<g>
						<path class="st19" d="M334.3,171.8c-0.9,0-1.9,0.1-2.8,0.5c-0.3,0.1-0.6,0.2-0.9,0.4c-1.9-1.9-2.8-2.1-6.1-2.1
							c-1.6,0-3.2,0.6-4.3,1.8c-1.2-0.4-2.5-0.6-3.7-0.5c-1.9,0.1-3.7,0.8-5.2,2l-0.3,0.3c0.1,6.4,30.1,6.1,30.1-0.2
							C340.6,173.5,338.6,171.9,334.3,171.8z"/>
						<path class="st20" d="M320.1,172.3c1.2,1.6,1.8,3.5,1.8,5.5C321.9,177.7,323.4,173.6,320.1,172.3z"/>
						<path class="st20" d="M330.9,172.5c-1.2,1.6-1.8,3.5-1.8,5.5C329.2,177.9,327.6,173.8,330.9,172.5z"/>
						<path class="st21" d="M332.6,175.5c1.3,3.7-11.9,5.3-14.3,1.4c-1-1.6,1.3-3.3,3.2-2.9l0,0c0.3-0.5,0.5-1,0.6-1.5
							c0.2-0.7,0.3-1.4,0.4-2.2c0.3-2,0-4.1-0.9-6c-2.8-5.1-9.1-4-9.1-4c0-2.4,1.9-4.3,4.3-4.3c3.8-0.4,10.8,2.1,12.6,14.3
							c0.1,0.4,0.1,1.6,0.2,2.4c0,0.6,0.1,1.1,0.1,1.1C330.5,174,332.6,174.3,332.6,175.5z"/>
						<path class="st22" d="M356,197.5c-1.8,6.3-7.4,10.8-13.9,11.1c-0.4,0-0.8,0-1.2,0c1.8-1,3.2-2.5,4.2-4.3
							c1.7-2.7,3.1-6.9,2.5-13.2c-1.5-15.5-11.8-15.7-11.8-15.7c1-1.5,3.2-2.2,5.1-2.3c0.5,0,0.9,0,1.4,0.1
							C355.8,174.3,358.8,187.8,356,197.5z"/>
						<path class="st22" d="M345.1,204.4c-1,1.8-2.5,3.2-4.2,4.3c-2.6,1.8-5.9,2.2-8.9,1.2c0.5-1.3,0.9-2.6,1.2-3.9
							c1-4.4,1.5-8.9,1.3-13.3c-0.4-10.6-5.2-16-5.2-16c0.7-0.4,1.4-0.8,2.1-1c1.4-0.5,3-0.5,4.5-0.1c0,0,10.3,0.2,11.8,15.7
							C348.2,197.4,346.8,201.7,345.1,204.4z"/>
						<path class="st22" d="M333.2,205.9c-0.3,1.3-0.7,2.6-1.2,3.9c-1.3,2.4-10,2.4-11.8,0c-0.8-1-1.5-2.1-1.9-3.3
							c-1.8-4.5-2.6-9.3-2.4-14.2c0.2-12.6,4.3-15.8,4.3-15.8l0,0c1.9-1.2,4.1-1.6,6.3-1.2c1,0.2,1.9,0.6,2.8,1.2
							c0,0,4.7,5.4,5.2,16C334.7,197.1,334.2,201.5,333.2,205.9z"/>
						<path class="st23" d="M324.1,180.8c0.6,0.2,1.1,0.4,1.5,0.8c0,0,2.6,3.7,2.9,11c0.2,4-0.5,8.1-2.1,11.8
							c-1.1,1.6-4.7,1.7-5.8,0c0,0-2.5-3.3-2.4-12s2.4-10.8,2.4-10.8l0,0C321.6,180.9,322.9,180.6,324.1,180.8z"/>
						<path class="st22" d="M318.2,206.5c0.5,1.2,1.1,2.3,1.9,3.3c-2.9,0.9-6.1,0.3-8.5-1.5c-1.5-0.7-2.8-1.8-3.8-3.1
							c-2.4-3-4.4-8.1-3.7-15.6c0.4-6.7,4.7-12.5,11-14.9c1-0.4,2.1-0.4,3.1-0.1c1,0.2,1.7,1,2,1.9c0,0-4.1,3.1-4.3,15.8
							C315.6,197.2,316.4,202,318.2,206.5z"/>
						<path class="st22" d="M313.6,209.1c-10.8,1.2-18.1-8.3-18.6-16.8c-0.2-5.2,1.7-10.2,5.3-14c2.5-2.6,10.1-7.7,14.9-3.2
							c-6.3,2.4-10.6,8.2-11,14.9c-0.7,7.5,1.3,12.3,3.7,15.4C309.5,206.8,311.5,208.1,313.6,209.1z"/>
						<path class="st24" d="M315.9,175c-13.3,2.8-15.8,26.7-5,33.3l0,0c-12-5.9-9.2-31.7,5-33.5V175z"/>
						<path class="st25" d="M320.2,176.5c-3.9,4-4,11.5-4,16.5c0,5.4,0.5,12,4,16.7l0,0c-4-4.3-4.6-11.3-4.6-16.7
							c0-4.9,0.2-13.1,4.6-16.6V176.5z"/>
						<path class="st25" d="M329.3,176.5c7.4,8.6,7.1,23.6,2.7,33.3h-0.1c3.5-10,3.9-24.2-2.7-33.2L329.3,176.5z"/>
						<path class="st24" d="M335.9,175.4c14.7,0.4,16.4,27.5,5,33.3l0,0c10-6.3,9.5-31.9-5-33.1V175.4z"/>
						<path class="st23" d="M301.4,179.4c-2.9,2.5-5.3,8.9-5.2,13c0,4.1,2.3,10.7,7.3,12.7c-1.1,0.4-7.5-17.9,4.1-28.4
							C305.2,176.9,303,177.8,301.4,179.4z"/>
						<path class="st23" d="M349.7,179.4c3.4,1.8,4.9,9.1,4.7,13.2c-0.2,4.1-2.7,10.6-6.9,10.6c0,0,6.9-13.7-2.6-23.9
							C346.4,178.6,348.2,178.7,349.7,179.4z"/>
						
							<linearGradient id="SVGID_1_" gradientUnits="userSpaceOnUse" x1="305.7331" y1="-67.2772" x2="313.5918" y2="-67.2772" gradientTransform="matrix(1 0 0 1 0 260)">
							<stop  offset="0" style="stop-color:#FF9D00"/>
							<stop  offset="0.1" style="stop-color:#FF9F06;stop-opacity:0.98"/>
							<stop  offset="0.22" style="stop-color:#FFA516;stop-opacity:0.92"/>
							<stop  offset="0.36" style="stop-color:#FFAF30;stop-opacity:0.81"/>
							<stop  offset="0.51" style="stop-color:#FFBE55;stop-opacity:0.67"/>
							<stop  offset="0.67" style="stop-color:#FFD084;stop-opacity:0.48"/>
							<stop  offset="0.83" style="stop-color:#FFE6BE;stop-opacity:0.26"/>
							<stop  offset="1" style="stop-color:#FFFFFF;stop-opacity:0"/>
						</linearGradient>
						<path class="st26" d="M311.5,179.8L311.5,179.8c-1.3,0-2.5,0.8-3.1,1.9c-1.8,3.1-2.8,6.7-2.7,10.3c0.1,3.9,1,7.7,2.6,11.2
							c0.5,1.1,1.3,1.9,2.4,2.4h0.1c1.1,0.3,2.4-0.3,2.7-1.4c0.1-0.4,0.1-0.9,0-1.3c-1.5-6.6-1.5-13.5,0-20.1
							c0.4-1.2-0.2-2.4-1.4-2.8C311.9,179.9,311.7,179.8,311.5,179.8z"/>
						<path class="st23" d="M338.2,179.9L338.2,179.9c1.5,0,2.8,0.6,3.7,1.7c2.3,2.9,3.5,6.5,3.7,10.2c0.1,3.9-0.8,7.8-2.5,11.3
							c-0.5,1.1-1.5,2-2.6,2.4h-0.1c-1.2,0.5-2.6,0-3.1-1.2c-0.2-0.4-0.3-0.9-0.2-1.4c1.5-6.7,1.1-13.6-1.1-20.1
							c-0.4-1.2,0.2-2.5,1.4-2.9C337.7,180,338,179.9,338.2,179.9z"/>
						<path class="st24" d="M329.7,177.2c5.5,0.9,8.9,13.7,4.9,20.4C334.5,197.6,335,181.8,329.7,177.2z"/>
						<path class="st27" d="M326.8,188.7c0,0-0.5,9.1,0.3,13.6C327.3,197.8,327.2,193.3,326.8,188.7z"/>
						<path class="st24" d="M319.5,177.2c-1.3-0.1-2.5,0.5-3.2,1.6c-1.6,1.9-2.4,5.8-2.4,9.5c-0.2,3.2,0.5,6.4,1.9,9.3
							C315.8,197.6,314.9,181.8,319.5,177.2z"/>
					</g>
					<g>
						<g>
							<path class="st28" d="M205.9,194.6c-0.9,7.3-7.9,12.6-15.8,11.8c-7.8-0.8-13.4-7.4-12.6-14.8c0.9-7.3,7.9-12.6,15.8-11.8
								S206.8,187.2,205.9,194.6z"/>
							<ellipse class="st29" cx="191.8" cy="193.1" rx="13.1" ry="12.2"/>
							<path class="st30" d="M191.5,192.1l-1.7-6.8c-0.4-1.3,0.3-2.7,1.5-3.2c1.2-0.4,2.5-0.2,3.5,0.4c1,0.8,1.3,2.1,0.7,3.3
								l-3.5,6.4C192,192.4,191.4,192.4,191.5,192.1z"/>
							<path class="st30" d="M191.6,194.4l1.7,6.9c0.4,1.3-0.3,2.7-1.5,3.2c-1.2,0.4-2.5,0.2-3.5-0.4c-1-0.8-1.3-2.1-0.7-3.3
								l3.4-6.5C191.1,194,191.7,194.1,191.6,194.4z"/>
							<path class="st30" d="M192.5,192.4l4.3-5.8c0.8-1.2,2.2-1.6,3.5-1.1c1.1,0.5,1.8,1.6,2,2.7c0,1.3-0.8,2.4-2.1,2.7l-7.4,1.9
								C192.6,193,192.3,192.6,192.5,192.4z"/>
							<path class="st30" d="M190.8,194.1l-4.3,5.8c-0.8,1.2-2.2,1.7-3.5,1.2c-1.1-0.5-1.8-1.6-2-2.7c0-1.3,0.9-2.4,2.1-2.7l7.4-1.9
								C190.6,193.5,190.9,194,190.8,194.1z"/>
							<path class="st30" d="M192.8,193.3l7.4-1.3c1.3-0.3,2.7,0.3,3.3,1.6c0.3,1.1,0.1,2.3-0.6,3.3c-0.9,0.9-2.4,1.1-3.5,0.5
								l-6.7-3.5C192.5,193.8,192.6,193.2,192.8,193.3z"/>
							<path class="st30" d="M190.3,193.3l-7.4,1.2c-1.3,0.3-2.7-0.3-3.3-1.6c-0.3-1.1-0.1-2.3,0.6-3.3c0.9-0.9,2.4-1.1,3.5-0.5
								l6.7,3.5C190.7,192.8,190.6,193.4,190.3,193.3z"/>
							<path class="st30" d="M192.4,194.1l6.4,3.7c1.2,0.6,1.8,2,1.3,3.3c-0.6,1.1-1.6,1.8-2.8,2c-1.3,0.1-2.5-0.7-2.9-1.9l-2.5-6.9
								C191.7,194.2,192.3,193.9,192.4,194.1z"/>
							<path class="st30" d="M190.6,192.5l-6.3-3.8c-1.2-0.6-1.8-2-1.3-3.3c0.6-1.1,1.6-1.8,2.8-2c1.3-0.1,2.5,0.7,2.9,1.9l2.3,6.8
								C191.2,192.3,190.7,192.7,190.6,192.5z"/>
						</g>
						<g>
							<g>
								<path class="st31" d="M194.2,186c-0.1,0.4-0.4,0.7-0.6,0.7s-0.2-0.4-0.1-0.9c0.1-0.4,0.4-0.7,0.6-0.7S194.3,185.5,194.2,186
									z"/>
								<path class="st31" d="M191.4,184.2c0,0.4-0.1,0.8-0.3,0.8s-0.3-0.4-0.4-0.8c0-0.4,0.2-0.8,0.3-0.8
									C191.3,183.3,191.4,183.7,191.4,184.2z"/>
								<path class="st31" d="M192.5,189.7c0,0.4-0.2,0.8-0.4,0.8s-0.3-0.4-0.2-0.8c0.1-0.4,0.2-0.8,0.4-0.8
									C192.4,188.9,192.5,189.3,192.5,189.7z"/>
							</g>
							<g>
								<path class="st31" d="M199,190.6c-0.4,0.2-0.9,0.1-0.9,0c-0.1-0.1,0.2-0.4,0.7-0.6c0.4-0.2,0.9-0.1,0.9,0
									C199.8,190.1,199.5,190.4,199,190.6z"/>
								<path class="st31" d="M198.9,187.4c-0.4,0.3-0.8,0.4-0.9,0.2c-0.1-0.1,0.1-0.5,0.5-0.8s0.8-0.4,0.9-0.2
									S199.3,187.2,198.9,187.4z"/>
								<path class="st31" d="M194.7,191.5c-0.4,0.2-0.8,0.3-0.9,0.1s0.2-0.5,0.6-0.7s0.8-0.3,0.9-0.1S195.2,191.3,194.7,191.5z"/>
							</g>
							<g>
								<path class="st31" d="M197.7,198.2c-0.4-0.3-0.7-0.4-0.9-0.3c-0.1,0.1,0,0.5,0.4,0.8s0.7,0.4,0.9,0.3
									C198.2,198.9,198.1,198.5,197.7,198.2z"/>
								<path class="st31" d="M196.3,201.1c-0.2-0.4-0.6-0.6-0.7-0.5c-0.2,0.1-0.1,0.5,0.1,0.9c0.2,0.4,0.6,0.6,0.7,0.5
									C196.7,201.9,196.6,201.5,196.3,201.1z"/>
								<path class="st31" d="M194.2,195.8c-0.3-0.4-0.7-0.5-0.8-0.4s0,0.5,0.2,0.8c0.2,0.4,0.6,0.6,0.8,0.4
									C194.6,196.5,194.4,196.1,194.2,195.8z"/>
							</g>
							<g>
								<path class="st31" d="M199.6,192.8c-0.5,0-0.8,0.2-0.8,0.4s0.4,0.3,0.9,0.2c0.5,0,0.9-0.2,0.8-0.4
									C200.5,192.9,200.1,192.8,199.6,192.8z"/>
								<path class="st31" d="M200.9,195.7c-0.5-0.1-0.9,0-0.9,0.2s0.3,0.4,0.8,0.5s0.9,0,0.9-0.2S201.4,195.8,200.9,195.7z"/>
								<path class="st31" d="M195.3,193.6c-0.5,0-0.9,0.1-0.9,0.2c0,0.2,0.4,0.4,0.8,0.4c0.5,0,0.9-0.1,0.9-0.3
									C196.1,193.8,195.8,193.6,195.3,193.6z"/>
							</g>
						</g>
						<g>
							<g>
								<path class="st31" d="M189,200.7c0.1-0.4,0.4-0.7,0.6-0.7s0.2,0.4,0.1,0.9c-0.1,0.4-0.4,0.7-0.6,0.7S188.9,201.1,189,200.7z
									"/>
								<path class="st31" d="M191.7,202.4c0-0.4,0.2-0.8,0.3-0.8c0.2,0,0.4,0.4,0.4,0.8c0,0.4-0.1,0.8-0.3,0.8
									S191.7,202.9,191.7,202.4z"/>
								<path class="st31" d="M190.7,196.9c0-0.4,0.2-0.8,0.4-0.8s0.3,0.4,0.2,0.8c-0.1,0.4-0.2,0.8-0.4,0.8
									C190.8,197.7,190.7,197.3,190.7,196.9z"/>
							</g>
							<g>
								<path class="st31" d="M184.2,196c0.4-0.2,0.9-0.1,0.9,0c0.1,0.1-0.2,0.4-0.7,0.6c-0.4,0.2-0.9,0.1-0.9,0
									C183.4,196.5,183.7,196.2,184.2,196z"/>
								<path class="st31" d="M184.3,199.2c0.4-0.3,0.8-0.4,0.9-0.2s-0.1,0.5-0.5,0.8s-0.8,0.4-0.9,0.2
									C183.7,199.8,183.9,199.4,184.3,199.2z"/>
								<path class="st31" d="M188.5,195.1c0.4-0.2,0.8-0.3,0.9-0.1c0.1,0.2-0.2,0.5-0.6,0.7c-0.4,0.2-0.8,0.3-0.9,0.1
									S188,195.3,188.5,195.1z"/>
							</g>
							<g>
								<path class="st31" d="M185.5,188.4c0.4,0.3,0.7,0.4,0.9,0.3s-0.1-0.5-0.4-0.8c-0.3-0.3-0.7-0.4-0.9-0.3
									C185,187.7,185.1,188.1,185.5,188.4z"/>
								<path class="st31" d="M186.9,185.5c0.2,0.4,0.6,0.6,0.7,0.5s0.1-0.5-0.1-0.9c-0.2-0.4-0.6-0.6-0.7-0.5
									C186.5,184.8,186.6,185.2,186.9,185.5z"/>
								<path class="st31" d="M189.1,190.8c0.3,0.4,0.6,0.6,0.8,0.4c0.2-0.1,0-0.5-0.3-0.8c-0.3-0.4-0.6-0.6-0.8-0.4
									C188.6,190.1,188.8,190.5,189.1,190.8z"/>
							</g>
							<g>
								<path class="st31" d="M183.6,193.8c0.5,0,0.9-0.2,0.8-0.4s-0.4-0.3-0.9-0.2c-0.5,0-0.9,0.2-0.8,0.4
									C182.7,193.7,183.1,193.9,183.6,193.8z"/>
								<path class="st31" d="M182.3,190.9c0.5,0.1,0.9,0,0.9-0.2s-0.3-0.4-0.8-0.5s-0.9,0-0.9,0.1
									C181.5,190.6,181.8,190.8,182.3,190.9z"/>
								<path class="st31" d="M187.9,193c0.5,0,0.9-0.1,0.9-0.3s-0.4-0.4-0.8-0.4c-0.5,0-0.9,0.1-0.9,0.2
									C187,192.8,187.4,193,187.9,193z"/>
							</g>
						</g>
					</g>
					<g>
						<g>
							<g>
								<path class="st32" d="M210.2,169.6c2.4,1.5,3.1,4.7,1.6,7.2c-0.1,0.1-0.1,0.2-0.2,0.2c0,0-3.3,1.2-7.1-2.7s-6.7-9.1-6.1-9.9
									l0,0C199.1,163.6,204.3,164.7,210.2,169.6z"/>
								<path class="st33" d="M211.6,177c0,0-3.3,1.2-7.1-2.7s-6.7-9.1-6.1-9.9l0,0C203.7,167.5,208.2,171.9,211.6,177z"/>
							</g>
							<path class="st33" d="M209.2,174.6c-1.8-0.8-3.4-1.9-4.6-3.4c-2-2.4-4.1-4.9-4.1-4.9C203.8,168.7,206.8,171.5,209.2,174.6z"
								/>
							<path class="st34" d="M200.6,165.1c0,0,2.3,1.6,3.9,2.9c1.3,1.1,2.6,0.1,1.3-1S200.8,164.6,200.6,165.1z"/>
						</g>
						<g>
							<g>
								<path class="st32" d="M218.7,173.6c-0.9,2.2-3.4,3.4-5.7,2.8c0,0-1.7-2.1,0.6-5.7s5.9-7,6.7-6.7l0,0
									C221,164.3,221.3,168.3,218.7,173.6z"/>
								<path class="st33" d="M213,176.4c0,0-1.7-2.1,0.6-5.7s5.9-7,6.7-6.7l0,0C218.8,168.6,216.4,172.9,213,176.4z"/>
							</g>
							<path class="st33" d="M214.3,174.2c0.2-1.5,0.8-2.9,1.7-4.1c1.5-2,3-4.1,3-4.1C217.9,168.9,216.3,171.7,214.3,174.2z"/>
							<path class="st34" d="M220.1,165.7c0,0-0.7,2-1.4,3.5c-0.6,1.2,0.6,1.9,1.2,0.7S220.5,165.7,220.1,165.7z"/>
						</g>
						<g>
							<g>
								<ellipse class="st15" cx="221.1" cy="190.6" rx="19.9" ry="18.6"/>
								<g class="st35">
									<path class="st36" d="M221.4,175.7c-0.5-0.3-1.2-0.3-1.7,0c-0.1-0.1-0.2-0.1-0.3-0.2c-0.3-0.1-0.6,0-0.8,0.2h-0.4
										c0-0.2-0.3-0.4-0.7-0.4c-0.3,0-0.6,0.1-0.8,0.3h-0.4c-0.2-0.2-0.5-0.3-0.8-0.2c-0.3,0-0.6,0.2-0.7,0.4l-0.5,0.1
										c-0.2-0.1-0.5-0.1-0.8,0s-0.5,0.3-0.6,0.5l-0.3,0.1c0.1-0.2,0.2-0.4,0.2-0.6c-0.1-0.4-0.8-0.4-1.5,0s-1.2,1.1-1,1.4
										c0.1,0.1,0.2,0.2,0.4,0.2l-0.2,0.1c-0.3,0-0.5,0.1-0.7,0.3s-0.4,0.4-0.5,0.6c-0.2,0.2-0.4,0.4-0.5,0.5
										c-0.2,0.1-0.5,0.2-0.6,0.4c-0.2,0.2-0.3,0.4-0.4,0.7l-0.5,0.6c-0.2,0.1-0.4,0.3-0.5,0.5c-0.2,0.2-0.2,0.5-0.3,0.7
										s-0.3,0.5-0.4,0.7c-0.2,0.2-0.4,0.4-0.5,0.6c-0.1,0.2-0.2,0.5-0.2,0.7c-0.1,0.2-0.2,0.5-0.3,0.7c-0.1,0.1-0.2,0.2-0.3,0.3
										l0,0c-0.4-0.1-0.9,0.7-1.2,1.7s0.1,1.8,0.5,1.8c0,0.2,0,0.4-0.1,0.6c-0.2,0.2-0.2,0.5-0.2,0.8s0,0.6,0.2,0.8
										c0,0.2,0,0.4,0,0.6c-0.1,0.3-0.2,0.6-0.1,0.9c0,0.3,0.1,0.6,0.4,0.7l0.1,0.5c-0.1,0.3-0.1,0.6,0,0.9
										c0.1,0.4,0.3,0.6,0.5,0.6l0.2,0.4c-0.1,0.3-0.1,0.6,0.1,0.9c0.2,0.4,0.5,0.5,0.6,0.5l0.2,0.3c-0.1,0.3,0,0.7,0.2,0.9
										c0.2,0.4,0.6,0.4,0.8,0.3c0.1,0.1,0.1,0.2,0.2,0.3c-0.1,0.3,0,0.7,0.3,0.9c0.3,0.3,0.7,0.4,0.9,0.1l0,0l0.2,0.2l0,0
										c-0.1,0.2,0,0.6,0.4,0.8s0.8,0.2,0.9,0l0,0l0.3,0.1l0,0c-0.1,0.2,0.1,0.5,0.6,0.7c0.4,0.2,0.8,0,0.9-0.2v-0.1l0.4,0.1
										c0,0,0,0,0,0.1c-0.1,0.3,0.2,0.5,0.7,0.6c0.4,0,0.8-0.1,0.9-0.4v-0.1h0.4l-0.1,0.1c0,0.2,0.3,0.5,0.8,0.4s0.8-0.3,0.8-0.5
										c0,0,0-0.1,0-0.2c0.8-0.1,1.6-0.4,2.4-0.7c0,0.1-0.1,0.2-0.1,0.2s0,0.1,0.1,0.1c-0.3,0-0.6,0-0.9,0.1
										c-0.8,0.2-1.4,0.7-1.4,1.2s0.7,0.7,1.5,0.5c0.9-0.2,1.5-0.9,1.4-1.3c0-0.2-0.2-0.3-0.4-0.4c0.2,0,0.3-0.1,0.5-0.1
										c0.4-0.2,0.7-0.6,0.6-0.8c0-0.1-0.1-0.1-0.2-0.1l0.5-0.3c0,0.1,0,0.2,0,0.3c0.1,0.2,0.5,0.2,0.9-0.1s0.7-0.7,0.6-0.9
										c-0.1-0.1-0.2-0.1-0.2-0.1l0.5-0.4c0,0.1,0,0.2,0,0.3c0.1,0.2,0.5,0.1,0.9-0.3c0.4-0.4,0.6-0.8,0.4-1c-0.1,0-0.2,0-0.3,0
										l0.5-0.6c0,0.1,0,0.2,0,0.3c0.1,0.2,0.5,0,0.9-0.4c0.3-0.4,0.4-0.9,0.3-1c-0.2-0.1-0.2,0-0.3,0c0.2-0.2,0.3-0.4,0.4-0.6
										c0,0.1,0,0.2,0.1,0.3c0.2,0.1,0.5-0.1,0.8-0.6s0.3-0.9,0.1-1s-0.2,0-0.3,0.1c0.1-0.2,0.2-0.5,0.3-0.7c0,0.1,0,0.2,0.1,0.3
										c0.1,0,0.5-0.2,0.7-0.7s0.2-1,0-1s-0.2,0-0.3,0.1v-0.1c0.1-0.2,0.1-0.4,0.2-0.6c0,0.1,0.1,0.2,0.2,0.2
										c0.1,0,0.5-0.3,0.6-0.8s0-1-0.2-1c-0.1,0-0.2,0.1-0.2,0.2l0.1-0.7c0,0.1,0.1,0.2,0.2,0.2c0.1,0,0.4-0.4,0.5-0.9
										s-0.1-0.9-0.3-0.9c-0.1,0-0.2,0.1-0.2,0.2V187c0,0.1,0.1,0.1,0.2,0.1c0.2,0,0.4-0.5,0.4-1s-0.2-0.9-0.5-0.8
										s-0.1,0.1-0.2,0.1c0-0.2,0-0.3-0.1-0.5c0.1,0,0.1,0,0.2,0c0.2-0.1,0.4-0.5,0.2-1s-0.4-0.8-0.6-0.7c-0.1,0-0.1,0.1-0.1,0.1
										l-0.1-0.4h0.1c0.2-0.1,0.3-0.6,0.1-1c-0.2-0.5-0.5-0.7-0.7-0.5l-0.1,0.1c-0.1-0.1-0.1-0.3-0.2-0.4h0.1
										c0.2-0.1,0.2-0.6-0.1-1c-0.2-0.4-0.6-0.5-0.8-0.4c-0.2,0.2,0,0,0,0.1l-0.2-0.3l0,0c0.2-0.2,0.1-0.6-0.2-0.9
										s-0.7-0.4-0.9-0.2l0,0l-0.2-0.2l0,0c0.1-0.2,0-0.6-0.4-0.9c-0.1-0.1-0.2-0.1-0.3-0.2C222.5,176.5,222,175.9,221.4,175.7z"
										/>
									<path class="st36" d="M222.7,174.9c-0.4,0.4-0.1,1.2,0.5,1.7c0.6,0.6,1.4,0.8,1.8,0.4c0.4-0.4,0.2-1.2-0.4-1.9
										S223.1,174.5,222.7,174.9z"/>
									<path class="st36" d="M225,196.1c-0.3,0.4-0.5,0.8-0.3,1s0.5,0,0.9-0.4c0.3-0.4,0.4-0.9,0.3-1
										C225.6,195.5,225.3,195.7,225,196.1z"/>
									<path class="st36" d="M227.8,184.7c0.2,0.7,0.6,1.3,0.9,1.3c0.3,0,0.5-0.6,0.3-1.3c-0.2-0.8-0.7-1.3-1-1.3
										S227.6,184,227.8,184.7z"/>
									<path class="st36" d="M205.7,199.6c-0.3,0.4-0.1,1.2,0.5,1.7s1.3,0.6,1.6,0.2c0.3-0.4,0-1.1-0.6-1.6
										C206.7,199.4,206,199.3,205.7,199.6z"/>
									<path class="st36" d="M204.5,184.6c0.2-0.4,0.3-0.9,0.1-1s-0.5,0.2-0.8,0.7c-0.2,0.5-0.2,1,0,1
										C204.1,185.3,204.3,185,204.5,184.6z"/>
									<path class="st36" d="M226.7,191.4c-0.3,0.5-0.2,0.9-0.1,1s0.5-0.2,0.7-0.7c0.2-0.4,0.3-0.9,0.1-1S227,190.9,226.7,191.4z"
										/>
								</g>
								<g>
									<path class="st36" d="M215,182.6c-0.3-0.1-0.6-0.1-0.9,0c-0.1,0-0.1-0.1-0.2-0.1c-0.1-0.1-0.3,0-0.4,0.1h-0.2
										c-0.1-0.1-0.2-0.2-0.4-0.2s-0.3,0.1-0.4,0.2h-0.2c-0.1-0.1-0.3-0.1-0.4-0.1c-0.1,0-0.3,0.1-0.4,0.2h-0.2
										c-0.1,0-0.3,0-0.4,0c-0.1,0.1-0.3,0.1-0.3,0.3l-0.1,0.1c0.1-0.1,0.1-0.2,0.1-0.3c0-0.2-0.4-0.2-0.7,0
										c-0.4,0.2-0.6,0.6-0.5,0.7c0,0.1,0.1,0.1,0.2,0.1l-0.1,0.1c-0.1,0-0.3,0.1-0.3,0.2c-0.1,0.1-0.2,0.2-0.2,0.3l-0.3,0.3
										c-0.1,0-0.2,0.1-0.3,0.2c-0.1,0.1-0.2,0.2-0.2,0.3l-0.2,0.3c-0.1,0.1-0.2,0.1-0.3,0.2c-0.1,0.1-0.1,0.2-0.1,0.4l-0.2,0.4
										c-0.1,0.1-0.2,0.2-0.2,0.3c-0.1,0.1-0.1,0.3-0.1,0.4c-0.1,0.1-0.1,0.2-0.2,0.4c-0.1,0-0.1,0.1-0.1,0.2l0,0
										c-0.2,0-0.5,0.4-0.6,0.9s0,0.9,0.2,0.9c0,0.1,0,0.2,0,0.3c-0.1,0.1-0.1,0.3-0.1,0.4c0,0.1,0,0.3,0.1,0.4c0,0.1,0,0.2,0,0.3
										c-0.1,0.1-0.1,0.3-0.1,0.4c0,0.1,0.1,0.3,0.2,0.4c0,0.1,0,0.2,0,0.2c-0.1,0.1-0.1,0.3,0,0.5c0,0.2,0.2,0.3,0.3,0.3
										s0,0.1,0.1,0.2c-0.1,0.2-0.1,0.3,0,0.5s0.2,0.3,0.3,0.2l0.1,0.2c-0.1,0.2,0,0.3,0.1,0.5s0.3,0.2,0.4,0.2l0.1,0.1
										c-0.1,0.2,0,0.3,0.2,0.4c0.2,0.2,0.4,0.2,0.4,0l0,0l0.1,0.1l0,0c-0.1,0.1,0,0.3,0.2,0.4c0.2,0.1,0.4,0.1,0.5,0l0,0l0.2,0.1
										l0,0c0,0.1,0.1,0.3,0.3,0.4s0.4,0,0.5-0.1l0,0h0.2l0,0c0,0.1,0.1,0.3,0.3,0.3s0.4-0.1,0.4-0.2c0,0,0,0,0-0.1
										c0.1,0,0.1,0,0.2,0c0,0,0,0,0,0.1s0.2,0.2,0.4,0.2s0.4-0.2,0.4-0.3v-0.1c0.4-0.1,0.8-0.2,1.2-0.4v0.1l0,0
										c-0.1,0-0.3,0-0.4,0.1c-0.4,0.1-0.7,0.3-0.7,0.6c0,0.2,0.4,0.3,0.8,0.2c0.4-0.1,0.7-0.4,0.7-0.7c0-0.1-0.1-0.2-0.2-0.2
										c0.1,0,0.2,0,0.2,0c0.2-0.1,0.4-0.3,0.3-0.4c0-0.1,0,0-0.1-0.1l0.3-0.2v0.1c0,0.1,0.2,0.1,0.5,0s0.3-0.4,0.3-0.5H215
										l0.3-0.2c0,0,0,0.1,0,0.2c0,0.1,0.3,0,0.5-0.1s0.3-0.4,0.2-0.5s-0.1,0-0.1,0l0.3-0.3c0,0.1,0,0.1,0,0.2
										c0.1,0.1,0.3,0,0.4-0.2c0.2-0.2,0.2-0.4,0.1-0.5c-0.1-0.1-0.1,0-0.2,0l0.2-0.3c0,0.1,0,0.1,0,0.2s0.3-0.1,0.4-0.3
										c0.1-0.2,0.2-0.5,0.1-0.5c-0.1,0-0.1,0-0.2,0l0.2-0.4c0,0.1,0,0.1,0.1,0.1s0.3-0.1,0.4-0.4s0.1-0.5,0-0.5h-0.1l0,0
										c0-0.1,0.1-0.2,0.1-0.3s0,0.1,0.1,0.1s0.3-0.2,0.3-0.4c0.1-0.3,0-0.5-0.1-0.5s-0.1,0-0.1,0.1l0.1-0.3l0.1,0.1
										c0.1,0,0.2-0.2,0.3-0.5c0-0.3-0.1-0.5-0.2-0.5s-0.1,0-0.1,0.1s0-0.2,0-0.3h0.1c0.1,0,0.2-0.2,0.2-0.5s-0.1-0.4-0.2-0.4
										l-0.1,0.1v-0.3h0.1c0.1,0,0.2-0.3,0.1-0.5s-0.2-0.4-0.3-0.3c0,0,0,0,0,0.1c0-0.1,0-0.1-0.1-0.2h0.1c0.1,0,0.1-0.3,0-0.5
										s-0.3-0.3-0.4-0.3l0,0c0-0.1-0.1-0.1-0.1-0.2h0.1c0.1-0.1,0.1-0.3,0-0.5s-0.3-0.3-0.4-0.2c-0.1,0.1,0,0,0,0l-0.1-0.2l0,0
										c0.1-0.1,0-0.3-0.1-0.5s-0.4-0.2-0.4-0.1l0,0l-0.1-0.1l0,0c0.1-0.2,0-0.4-0.2-0.4l-0.2-0.1
										C215.5,182.8,215.3,182.6,215,182.6z"/>
									<path class="st36" d="M215.7,182.2c-0.2,0.2-0.1,0.6,0.3,0.9c0.3,0.3,0.7,0.4,0.9,0.2s0.1-0.6-0.2-1
										C216.3,182,215.9,182,215.7,182.2z"/>
									<path class="st36" d="M216.8,193c-0.2,0.2-0.2,0.4-0.2,0.5c0.1,0.1,0.3,0,0.4-0.2c0.2-0.2,0.2-0.5,0.1-0.5
										C217.2,192.7,217,192.8,216.8,193z"/>
									<path class="st36" d="M218.3,187.2c0.1,0.4,0.3,0.6,0.5,0.6s0.2-0.3,0.2-0.7c-0.1-0.4-0.4-0.7-0.5-0.6
										C218.2,186.5,218.1,186.8,218.3,187.2z"/>
									<path class="st36" d="M207,194.8c-0.2,0.2,0,0.6,0.3,0.9c0.3,0.3,0.7,0.3,0.8,0.1s0-0.6-0.3-0.8
										C207.5,194.7,207.1,194.6,207,194.8z"/>
									<path class="st36" d="M206.4,187.2c0.1-0.2,0.1-0.5,0-0.5c-0.1-0.1-0.3,0.1-0.4,0.3c-0.1,0.2-0.1,0.5,0,0.5
										C206.1,187.6,206.2,187.4,206.4,187.2z"/>
									<path class="st36" d="M217.7,190.6c-0.1,0.2-0.1,0.5,0,0.5s0.3-0.1,0.4-0.3s0.1-0.5,0-0.5
										C218,190.2,217.8,190.3,217.7,190.6z"/>
								</g>
							</g>
							<g class="st37">
								<path class="st18" d="M210.9,174.7c7.9-2.8,16.7-0.6,22.5,5.5c-0.2,0-0.4,0.1-0.5,0.2c-0.4,0.4-0.1,1.2,0.5,1.7
									c0.6,0.6,1.3,0.8,1.7,0.5c1.6,2.8,2.3,6.1,1.8,9.3c-0.5,3-1.6,5.9-3.4,8.4l0,0c-0.7-0.2-1.4,0-1.8,0.6
									c-0.6,0.6-0.7,1.4-0.3,1.7h0.1c-7.4,6.8-19.2,4.6-20.1,4.3c8.5,4.5,19,2.5,25.3-4.7c6.4-7.5,5.4-18.8-2.1-25.1
									c-0.4-0.4-0.8-0.7-1.3-1C226.8,171.3,218,170.8,210.9,174.7z"/>
								<path class="st36" d="M236.5,191.9c0-0.5-0.2-1-0.6-1c-0.4,0-0.7,0.4-0.7,0.9s0.1,0.9,0.4,1
									C236,192.8,236.4,192.5,236.5,191.9z"/>
							</g>
						</g>
					</g>
					<g>
						<path class="st38" d="M321,195.2c-4.5,9.3-16.1,10.3-20.2,9.6c-6.1-1.2-9.8-4.5-11.8-10.5c-0.5-1.5-0.7-3-0.6-4.5l0,0
							c0.1-4.9,2.5-10.2,7.3-11.4c5.2-1.2,8.9,3.1,8.9,3.1c1.7-0.9,3.6-1.6,5.5-2C320.7,177.3,324.8,187.4,321,195.2"/>
						<path class="st38" d="M297.5,178.2c-0.6,0-1.3,0.1-1.9,0.2c2.3-0.1,4.5,0.7,6.1,2.4c0.9,0.9,1.9,2.6,4.2,2.6
							c0.6,0,1.2-0.1,1.7-0.3c-0.9-0.1-1.8-0.5-2.5-1l4.9-2.6c-1.7,0.4-3.4,0.9-5,1.7c0,0,0,0.1,0,0.2c0.2,0,0.3,0,0.5,0
							c0.1,0,0.1,0,0.1,0s-0.5,0.6-1.2,0.6h-0.2c-0.6-0.1-0.9-0.7-0.8-0.9h0.1c0.1,0,0.3,0.1,0.4,0.2c0-0.1,0-0.2,0-0.4
							C302.3,179.3,299.9,178.3,297.5,178.2"/>
						<path class="st39" d="M303.5,181.1c-0.1,0.1,0.2,0.8,0.8,0.9c0.6,0.1,1.3-0.5,1.3-0.6s-0.3,0-0.6,0c-0.2,0-0.4,0.1-0.6,0.1
							C304.1,181.4,303.7,180.9,303.5,181.1"/>
						<path class="st40" d="M307.8,177c-1.4,1.2-2.3,2.8-2.8,4.5c0,0.2-0.2,0.3-0.5,0.3c-0.1,0-0.2,0-0.3,0
							c-0.2-0.1-0.3-0.2-0.2-0.4c0-1.9,0.7-3.7,1.9-5.1C306.5,175.6,308.2,176.2,307.8,177"/>
						<path class="st38" d="M312.9,179.2c-1,0-1.9,0.1-2.8,0.3c11.9,0.3,10.2,10.4,9.2,13.7c-1,3.4-5.6,10.2-16.5,10.2h-1
							c-11.6-0.4-13.3-13.4-13.4-13.7l0,0c0,0.1,0,0.2,0,0.4c0,1.4,0.2,2.8,0.6,4.1c2,6,5.7,9.5,11.8,10.5c0.8,0.1,1.7,0.2,2.5,0.2
							c5.2,0,13.9-2,17.7-9.8c0.9-1.8,1.4-3.9,1.4-5.9C322.4,184,319.1,179.2,312.9,179.2"/>
						<path class="st8" d="M294.7,182.4c-1.4,1.1-2.4,2.2-3,1.5s0-2.2,1.4-3.3s3.1-1.3,3.7-0.6C297.4,180.7,296.1,181.3,294.7,182.4
							z"/>
						<path class="st8" d="M291.7,185.6c0,0.4-0.2,0.7-0.6,0.7s-0.7-0.2-0.7-0.6c0-0.4,0.2-0.7,0.6-0.7l0,0
							C291.4,185,291.7,185.3,291.7,185.6L291.7,185.6z"/>
					</g>
					<g>
						<path class="st38" d="M176.6,199.7c-4.1,6.3,0.7,12.1,10.3,16.2c7.3,3.5,14.9,4.5,19.4,3.2c2.7-0.8,8.9-2.7,8.2-8
							c-0.6-2-3.5-1.5-5.1-0.8c-3.3-2.5-6.4-3.4-9.3-2.9C192.3,196.7,180.9,192.2,176.6,199.7z"/>
						<path class="st41" d="M198.3,210.5c-0.7,1.2-1.4,2.7-2.2,3.9C197,213.3,197.7,211.9,198.3,210.5z"/>
						<path class="st38" d="M211.6,209.6c1.6,0.1,1.8,1.1,1.8,1.5c0,4.4-10.8,6.6-20.2,4.2c-8-2-14.3-8.5-15.2-11.2
							c-1.1-3.4-1.1-4.1,0.5-6.6c-0.7,0.6-1.3,1.3-1.8,2.2c-4.1,6.3,0.7,12.1,10.3,16.2c7.3,3.5,14.9,4.5,19.4,3.2
							c2.7-0.8,8.9-2.7,8.2-8C214.2,209.8,212.9,209.5,211.6,209.6z"/>
						<path class="st32" d="M173.7,188.4c-0.7,3.2-0.8,6.5,2.5,9.8l3.5-1.9c0.2-0.1,0.3-0.1,0.4-0.1c0.3,0.2,0,1.4-0.3,2.1
							c0.2,0.7,0.1,1.5-0.3,2.2c-0.3,0.5-0.8,0.8-1.4,1c-0.3,0.1-0.6,0.2-0.9,0.2c-0.9,0.8-2.2,1.6-2.4,0.9c0-0.1,0-0.2,0-0.3
							l0.3-2.9c-3.3-3.5-5.3-6.6-4-11.6c0.1-0.6,0.7-0.9,1.2-0.8l0,0C173.2,187.1,173.9,187.6,173.7,188.4z"/>
					</g>
					<g>
						<path class="st32" d="M294.7,206.2c-0.2,11.9,10.3,13.8,22.6,12c6.4-0.9,10.6,0,16.7,1.8c0.8,0.2,1.4,0.4,1.7,0.5
							c21.1,4.3,26-15.6,21.2-27.2L294.7,206.2z"/>
						<path class="st42" d="M323.2,217.9c-1.4-0.1-2.9,0-4.3,0.1c0.4,0,0.9-0.1,1.3-0.1C321.2,217.8,322.2,217.8,323.2,217.9z"/>
						<g>
							<path class="st43" d="M295,206.2c-0.2-9.7,17.5-13,17.5-13c6.4-1.2,10.5-3.9,14.9-6.7c12.2-7.8,27.9-4.2,29.8,8.3
								c0,0,3.2,17.2-18.6,17.2c0,0-7.9-0.7-13.3-0.7c-1.6,0-3.1,0.2-4.6,0.6C314.8,213.4,297.1,217.2,295,206.2z"/>
							<path class="st44" d="M354.1,206.7c-3.2,3.5-8.4,5.4-15.6,5.4c-0.1,0-7.9-0.7-13.3-0.7c-1.5,0-3,0.2-4.5,0.6
								c-4.5,1.2-15.6,3.7-21.9,0.1c-2.2-1.2-3.8-3.4-4.2-5.9l0,0c-0.1-4.1,3-7.7,8.8-10.4c2.9-1.3,5.9-2.3,8.9-2.9
								c6.1-1.1,10-3.5,14.1-6.2l0.7-0.4c6.8-4.3,15-5.4,21.3-2.7c4.8,1.8,8.2,6.1,8.9,11.1c0.2,1.5,0.2,3,0,4.5
								C357.1,202,356,204.6,354.1,206.7z M295.2,206.1c0.4,2.3,1.9,4.4,3.9,5.5c6,3.5,17,1.1,21.4-0.1c1.5-0.4,3.1-0.6,4.7-0.6
								c5.4,0,13.3,0.7,13.3,0.7c6.9,0,12-1.8,15.1-5.2c4.4-4.9,3.2-11.6,3.2-11.7c-0.7-4.9-4-9-8.6-10.7
								c-6.2-2.6-14.2-1.5-20.8,2.7l-0.7,0.4c-4.2,2.7-8.1,5.2-14.3,6.3c-0.2,0-16.1,3.1-17.2,11.6
								C295.3,205.4,295.3,205.8,295.2,206.1z"/>
						</g>
						<path class="st45" d="M339.2,203.7c6.2-1.2,10.1-5.6,9.8-8.7c-0.4-4.1-5-9.3-13.4-7.7c-7.7,1.5-9.7,7.8-9.1,11.8
							C327,202.1,333,204.8,339.2,203.7z"/>
						<path class="st46" d="M331,203c3,0.5,6,0.2,8.8-0.9c3.4-1.5,6.4-4.4,6.1-8.3c-0.3-1.9-1.6-6.2-8.3-6.8
							c7.1-0.5,11.1,4.1,11.5,7.9c0.3,3.1-3.5,7.5-9.8,8.7C336.4,204.2,333.6,204,331,203z"/>
						<path class="st47" d="M333.2,201.7c3,0.3,5.5-0.6,5.7-2.1s-2.2-2-5.1-2.3c-3-0.3-5.4-0.5-5.6,1.1
							C328,199.8,330.2,201.4,333.2,201.7z"/>
					</g>
					<g>
						<g>
							<g>
								<path class="st48" d="M218.6,218.5c-0.4,0-0.7,0-1.1-0.1c-0.2,0-0.4,0-0.6-0.1c-8.3-1.2-14.3-7.9-13.9-15.9
									c0-0.1,0-0.2,0-0.3c0.6-6.7,5.4-12.2,11.9-13.8l0.5-0.1c1.5-0.4,3.1-0.5,4.7-0.4c9,0.4,16,7.6,15.6,16
									c-0.1,1.8-0.5,3.6-1.3,5.3l0,0l-0.1,0.2C231.4,215.3,225.2,218.9,218.6,218.5z"/>
								<g class="st35">
									<path class="st36" d="M226.8,213.3c0.5-0.1,0.9-0.4,1.1-0.8c0.1,0,0.2,0,0.3,0c0.2-0.1,0.4-0.3,0.4-0.5l0.3-0.1
										c0.2,0.1,0.5,0.1,0.7,0s0.4-0.3,0.4-0.6l0.3-0.2c0.2,0,0.5,0,0.6-0.2c0.2-0.2,0.3-0.4,0.3-0.6l0.3-0.3
										c0.2,0,0.4-0.2,0.5-0.3c0.1-0.2,0.2-0.4,0.2-0.6l0.1-0.2c0,0.2,0.1,0.3,0.2,0.5c0.3,0.2,0.7-0.1,1-0.7s0.2-1.2,0-1.4
										c-0.1-0.1-0.3-0.1-0.4,0l0.1-0.2c0.2-0.1,0.3-0.3,0.3-0.5c0.1-0.2,0.1-0.4,0-0.6c0-0.2,0.1-0.4,0.1-0.6
										c0.1-0.1,0.2-0.3,0.2-0.5s0-0.4-0.1-0.6c0-0.2,0-0.4,0-0.6c0.1-0.2,0.1-0.4,0.1-0.6c0-0.2-0.1-0.4-0.2-0.6
										c0-0.2,0-0.4-0.1-0.6c0-0.2,0-0.4,0-0.6c0-0.2-0.1-0.4-0.3-0.6l-0.2-0.6c0-0.1,0-0.2,0-0.3l0,0c0.3-0.1,0.2-0.9-0.1-1.6
										c-0.4-0.8-1-1.2-1.3-1c-0.1-0.1-0.2-0.3-0.3-0.4c0-0.2-0.1-0.5-0.2-0.6c-0.1-0.2-0.3-0.4-0.5-0.4l-0.3-0.4
										c0-0.2-0.2-0.5-0.4-0.6c-0.1-0.2-0.4-0.3-0.6-0.3l-0.3-0.3c-0.1-0.3-0.2-0.5-0.4-0.6c-0.3-0.2-0.5-0.3-0.7-0.2l-0.3-0.2
										c-0.1-0.3-0.3-0.5-0.5-0.6c-0.3-0.2-0.6-0.2-0.7,0l-0.4-0.2c0-0.2-0.2-0.4-0.6-0.5c-0.3-0.1-0.6,0-0.7,0.1
										c-0.1,0-0.2-0.1-0.3-0.1c0-0.2-0.3-0.4-0.6-0.4c-0.4,0-0.7,0.1-0.6,0.3h-0.3c0-0.2-0.3-0.4-0.7-0.4s-0.6,0.2-0.6,0.4l0,0
										h-0.3l0,0c-0.1-0.2-0.4-0.3-0.7-0.2c-0.4,0.1-0.6,0.4-0.5,0.6l0,0l-0.3,0.1v-0.1c-0.1-0.2-0.4-0.2-0.7-0.1
										c-0.3,0.2-0.5,0.5-0.4,0.6c0,0,0,0.1,0.1,0.1l-0.3,0.2v-0.1c-0.1-0.2-0.4-0.2-0.7,0s-0.4,0.6-0.3,0.7l0.1,0.1
										c-0.5,0.5-0.9,1-1.2,1.5c0-0.1,0-0.1-0.1-0.2h-0.1c0.2-0.1,0.4-0.3,0.5-0.5c0.4-0.5,0.6-1.1,0.4-1.4
										c-0.2-0.3-0.8-0.1-1.3,0.4s-0.5,1.2-0.3,1.5c0.1,0.1,0.3,0.1,0.4,0.1c-0.1,0.1-0.2,0.2-0.3,0.3c-0.2,0.3-0.2,0.7,0,0.9
										c0.1,0,0.1,0,0.2,0c-0.1,0.2-0.1,0.3-0.2,0.4c0-0.1,0-0.1-0.1-0.2c-0.2-0.1-0.4,0.1-0.6,0.5s-0.1,0.8,0.1,0.9
										c0.1,0,0.1,0,0.2,0l-0.1,0.5c0-0.1-0.1-0.2-0.1-0.2c-0.2-0.1-0.4,0.2-0.5,0.6c-0.1,0.4,0,0.8,0.2,0.9c0.1,0,0.2,0,0.2-0.1
										c0,0.2,0,0.4,0,0.6c0-0.1-0.1-0.2-0.2-0.2s-0.4,0.2-0.4,0.7s0.2,0.8,0.3,0.8c0.2,0,0.1,0,0.2-0.2c0,0.2,0,0.4,0,0.6
										c0-0.1-0.1-0.1-0.2-0.2c-0.2,0-0.3,0.3-0.2,0.8c0,0.4,0.3,0.8,0.4,0.8c0.2,0,0.1-0.1,0.2-0.2c0,0.2,0.1,0.4,0.1,0.6
										c0-0.1-0.1-0.1-0.2-0.1c-0.2,0-0.3,0.4-0.1,0.8c0.1,0.4,0.4,0.7,0.5,0.7c0.2-0.1,0.1-0.1,0.1-0.2c0-0.1,0,0,0,0.1
										s0.1,0.3,0.2,0.5c-0.1-0.1-0.1-0.1-0.2-0.1c-0.2,0-0.2,0.4,0,0.8s0.5,0.7,0.6,0.6c0.1-0.1,0.1-0.1,0.1-0.2l0.2,0.5
										c-0.1,0-0.1,0-0.2,0c-0.2,0.1-0.1,0.5,0.1,0.9s0.5,0.6,0.7,0.4c0-0.1,0-0.1,0-0.2l0.3,0.4c-0.1,0-0.1,0-0.2,0
										c-0.1,0.1,0,0.5,0.2,0.8s0.6,0.5,0.7,0.3c0-0.1,0-0.1,0-0.2l0.3,0.3h-0.1c-0.1,0.1,0,0.5,0.4,0.8s0.6,0.4,0.7,0.2v-0.1
										l0.3,0.2c0,0-0.1,0-0.1,0.1c-0.1,0.2,0.1,0.5,0.5,0.7c0.3,0.2,0.7,0.2,0.7,0v-0.1l0.3,0.2c0,0,0,0,0,0.1s0.2,0.5,0.6,0.6
										c0.4,0.2,0.7,0.1,0.7-0.1s0,0,0-0.1l0.3,0.1l0,0c0,0.2,0.2,0.4,0.6,0.5s0.7,0,0.7-0.2l0,0h0.3l0,0c0,0,0.3,0.4,0.7,0.4
										c0.1,0,0.2,0,0.3,0C225.7,213.2,226.3,213.4,226.8,213.3z"/>
									<path class="st36" d="M226.3,214.5c0-0.4-0.5-0.9-1.2-0.9c-0.7-0.1-1.3,0.1-1.4,0.5c-0.1,0.4,0.5,0.9,1.2,1.1
										C225.6,215.3,226.3,214.9,226.3,214.5z"/>
									<path class="st36" d="M214,201.3c0-0.4-0.1-0.8-0.3-0.8s-0.4,0.2-0.4,0.7c0,0.4,0.2,0.8,0.3,0.8
										C213.9,202,214,201.7,214,201.3z"/>
									<path class="st36" d="M217.9,210.1c-0.5-0.4-1-0.6-1.3-0.4c-0.2,0.2,0,0.6,0.5,1s1.2,0.6,1.3,0.4
										C218.6,210.9,218.4,210.5,217.9,210.1z"/>
									<path class="st36" d="M225.1,190.2c0-0.4-0.5-0.8-1.2-0.9c-0.7-0.1-1.2,0.2-1.2,0.6s0.6,0.7,1.2,0.8
										C224.5,190.8,225,190.6,225.1,190.2z"/>
									<path class="st36" d="M233.6,199.8c0.1,0.4,0.3,0.7,0.4,0.7c0.2,0,0.3-0.4,0.2-0.8s-0.3-0.8-0.5-0.7
										S233.5,199.4,233.6,199.8z"/>
									<path class="st36" d="M215.2,205.2c-0.1-0.4-0.3-0.7-0.5-0.7s-0.2,0.4-0.1,0.8c0.1,0.4,0.3,0.7,0.5,0.7
										C215.2,206,215.3,205.6,215.2,205.2z"/>
								</g>
								<g>
									<path class="st36" d="M227.6,205.8c0.2,0,0.5-0.2,0.6-0.4c0.1,0,0.1,0,0.2,0c0.1,0,0.2-0.1,0.2-0.3l0.1-0.1
										c0.1,0.1,0.2,0.1,0.3,0s0.2-0.2,0.2-0.3l0.1-0.1c0.1,0,0.2,0,0.3-0.1s0.1-0.2,0.1-0.3l0.1-0.2c0.1,0,0.2-0.1,0.3-0.2
										c0.1-0.1,0.1-0.2,0.1-0.3l0.1-0.1c0,0.1,0,0.2,0.1,0.2c0.1,0.1,0.4,0,0.5-0.3s0.1-0.6,0-0.7c-0.1,0-0.1,0-0.2,0v-0.1
										c0.1-0.1,0.1-0.2,0.2-0.3c0-0.1,0-0.2,0-0.3s0-0.2,0-0.3c0.1-0.1,0.1-0.2,0.1-0.3s0-0.2,0-0.3s0-0.2,0-0.3s0-0.2,0-0.3
										s0-0.2-0.1-0.3v-0.3c0-0.2,0-0.4-0.1-0.6c0-0.1-0.1-0.2-0.1-0.3s0-0.1,0-0.2l0,0c0.2-0.1,0.1-0.4-0.1-0.8
										c-0.2-0.4-0.5-0.6-0.6-0.5c0-0.1-0.1-0.2-0.1-0.2c0-0.1-0.1-0.2-0.1-0.3s-0.1-0.2-0.2-0.2l-0.2-0.2c0-0.1-0.1-0.2-0.2-0.3
										c-0.1-0.1-0.2-0.2-0.3-0.2l-0.2-0.1c0-0.1-0.1-0.2-0.2-0.3c-0.1-0.1-0.3-0.1-0.3-0.1l-0.2-0.1c0-0.1-0.1-0.2-0.3-0.3
										s-0.3-0.1-0.4,0h-0.2c0-0.1-0.2-0.2-0.3-0.3c-0.2-0.1-0.3,0-0.3,0.1h-0.2c0-0.1-0.2-0.2-0.3-0.2c-0.2,0-0.3,0-0.3,0.2h-0.1
										c0-0.1-0.2-0.2-0.4-0.2s-0.3,0.1-0.3,0.2l0,0h-0.1l0,0c0,0-0.2-0.2-0.4-0.1c-0.2,0-0.3,0.2-0.2,0.3l0,0h-0.1l0,0
										c0-0.1-0.2-0.1-0.4,0s-0.3,0.2-0.2,0.3l0,0l-0.1,0.1c0,0,0,0,0-0.1s-0.2-0.1-0.4,0c-0.1,0.1-0.2,0.3-0.1,0.4h0.1
										c-0.2,0.2-0.4,0.5-0.6,0.8v-0.1h-0.1c0.1-0.1,0.2-0.1,0.3-0.2c0.2-0.2,0.3-0.6,0.2-0.7s-0.4-0.1-0.6,0.2
										c-0.2,0.3-0.3,0.6-0.1,0.8c0.1,0,0.1,0,0.2,0c-0.1,0-0.1,0.1-0.1,0.1c-0.1,0.2-0.1,0.4,0,0.4c0.1,0.1,0.1,0,0.1,0l-0.1,0.2
										c0,0,0-0.1-0.1-0.1c-0.1-0.1-0.2,0-0.3,0.2s0,0.4,0,0.4h0.1l-0.1,0.3c0,0,0-0.1-0.1-0.1s-0.2,0.1-0.2,0.3s0,0.4,0.1,0.4
										s0.1,0,0.1,0s0,0.2,0,0.3l-0.1-0.1c-0.1,0-0.2,0.1-0.2,0.3s0.1,0.4,0.2,0.4s0.1,0,0.1-0.1s0,0.2,0,0.3l-0.1-0.1
										c-0.1,0-0.1,0.2-0.1,0.4s0.1,0.4,0.2,0.4c0,0,0.1,0,0.1-0.1c0,0.1,0,0.2,0.1,0.3s-0.1-0.1-0.1-0.1s-0.1,0.2-0.1,0.4
										c0.1,0.2,0.2,0.4,0.3,0.3l0.1-0.1l0,0c0,0.1,0.1,0.2,0.1,0.3h-0.1c-0.1,0-0.1,0.2,0,0.4s0.2,0.3,0.3,0.3v-0.1l0.1,0.3h-0.1
										c0,0,0,0.2,0.1,0.4s0.3,0.3,0.3,0.2c0.1-0.1,0,0,0-0.1l0.2,0.2h-0.1c-0.1,0.1,0,0.3,0.1,0.4c0.1,0.2,0.3,0.2,0.4,0.2v-0.1
										l0.2,0.2c0,0,0,0-0.1,0c-0.1,0.1,0,0.3,0.2,0.4s0.3,0.2,0.4,0.1c0,0,0,0,0-0.1l0.2,0.1l0,0c0,0.1,0.1,0.3,0.2,0.4
										c0.2,0.1,0.4,0.1,0.4,0s0,0,0,0l0.2,0.1l0,0c0,0,0.1,0.2,0.3,0.3s0.4,0,0.4,0l0,0h0.2l0,0c0,0,0.1,0.2,0.3,0.3
										s0.3,0,0.3-0.1l0,0h0.1l0,0c0,0.1,0.2,0.2,0.4,0.2h0.2C227,205.8,227.3,205.9,227.6,205.8z"/>
									<path class="st36" d="M227.3,206.4c0-0.2-0.3-0.4-0.6-0.5c-0.4,0-0.7,0-0.7,0.3s0.2,0.5,0.6,0.5
										C227,206.8,227.3,206.6,227.3,206.4z"/>
									<path class="st36" d="M221,199.7c0-0.2,0-0.4-0.1-0.4s-0.2,0.1-0.2,0.3s0.1,0.4,0.2,0.4C221,200,221,199.9,221,199.7z"/>
									<path class="st36" d="M223,204.2c-0.2-0.2-0.5-0.3-0.6-0.2s0,0.3,0.2,0.5s0.6,0.3,0.7,0.2S223.3,204.4,223,204.2z"/>
									<path class="st36" d="M226.7,194c0-0.2-0.3-0.4-0.6-0.5c-0.4,0-0.6,0.1-0.6,0.3s0.3,0.4,0.6,0.4
										C226.4,194.3,226.7,194.3,226.7,194z"/>
									<path class="st36" d="M231.1,198.9c0,0.2,0.1,0.4,0.2,0.4c0.1,0,0.1-0.2,0.1-0.4s-0.2-0.4-0.2-0.4
										C231,198.5,231,198.7,231.1,198.9z"/>
									<path class="st36" d="M221.7,201.7c0-0.2-0.2-0.4-0.3-0.4s-0.1,0.2-0.1,0.4s0.2,0.4,0.2,0.4
										C221.6,202.1,221.7,201.9,221.7,201.7z"/>
								</g>
							</g>
							<g class="st37">
								<path class="st49" d="M218.4,218.5l-0.9-0.1c-0.2,0-0.4,0-0.6-0.1c-8.3-1.2-14.3-7.9-13.9-15.9c0-0.1,0-0.2,0-0.3
									c0.6-6.7,5.4-12.2,11.9-13.8c-3,1.7-8,5.3-9.1,11h0.1c0.5,0,0.8,0.6,0.7,1.3s-0.4,1.2-0.9,1.3h-0.1c0.1,2.6,0.8,5.1,2.1,7.4
									c1.4,2.4,3.5,4.4,6.1,5.5c0.1-0.4,0.7-0.6,1.4-0.5s1.3,0.5,1.3,0.9c0,0.2-0.1,0.3-0.2,0.4c2.8,0.7,5.7,0.7,8.4,0
									c0.5-0.1,1-0.3,1.5-0.4c3.3-1.1,6.2-3.2,8.3-6l-0.1,0.2C231.3,215.3,225,218.9,218.4,218.5z"/>
								<path class="st36" d="M207.9,209.1c0.2,0.4,0.6,0.6,0.9,0.4c0.3-0.2,0.3-0.6,0-0.9c-0.3-0.4-0.5-0.6-0.8-0.5
									C207.8,208.2,207.7,208.7,207.9,209.1z"/>
							</g>
						</g>
						<g>
							<g>
								<path class="st50" d="M219.9,216.9c-4.1-0.2-7.9-2-10.6-5c-2.9-2.7-4.5-6.5-4.4-10.4c0.2-4.2,1.5-7.3,4.7-9.9
									c3.4-2.7,7.5-4.2,11.8-4.2c4.6,0.2,8.5,2.9,11.2,6c2.4,2.7,4,5.6,3.8,9.5c-0.2,3.6-1.7,6.9-4.2,9.5
									C228.9,215.5,224.5,217.2,219.9,216.9z"/>
								<path class="st43" d="M219.9,216.3c-3.9-0.2-7.5-1.9-10.2-4.7c-2.8-2.6-4.3-6.2-4.2-10c0.2-4.1,1.4-7,4.5-9.5
									c3.2-2.6,7.2-4,11.3-4c4.4,0.2,8.1,2.8,10.7,5.7c2.4,2.6,3.8,5.4,3.7,9c-0.2,3.4-1.6,6.6-4,9
									C228.5,214.9,224.3,216.5,219.9,216.3z"/>
								<g>
									<ellipse class="st8" cx="220.6" cy="202" rx="7.6" ry="7.1"/>
								</g>
								<g>
									<path class="st50" d="M233.6,198.3c1.8,0,1.5,8.8,0,8.7c-0.1,0-11.4-4-11.3-4.4c0-0.4,1.8,0.3,1.9-0.2c0-0.4-1.9,0-1.9-0.3
										C222.3,201.9,233.6,198.3,233.6,198.3z"/>
									<path class="st50" d="M207.6,206.4c-1.8,0-1.4-10,0.7-9.5c0.1,0,11,4.6,10.9,5c0,0.4-1.9,0-1.9,0.4s1.8,0.4,1.9,0.6
										C219.3,203.2,207.6,206.4,207.6,206.4z"/>
									<path class="st50" d="M225.1,214.5c0,1.7-9.8,1-9.7-0.3c0-0.1,4.6-10.3,4.8-10.3c0.4,0,0,1.6,0.1,1.6
										c0.1,0.1,0.2-1.4,0.5-1.3C221.2,204.1,225.1,214.5,225.1,214.5z"/>
									<path class="st50" d="M217.2,190c0-1.7,9.2-1.2,9.1,0.7c0,0.1-4.9,9.7-5.2,9.7C220.8,200.3,217.2,190,217.2,190z"/>
									<path class="st50" d="M233.3,207.8c1.5,1.1-6.5,7.5-7.4,6.5c-0.1-0.1-4.7-10.4-4.4-10.6c0.3-0.2,0.6,1.2,1,1
										s-0.8-1.2-0.6-1.3C222.1,203.2,232.5,207.2,233.3,207.8z"/>
									<path class="st50" d="M208.5,196.2c-1.3-1.3,6.9-7.2,7.9-6.1c0.1,0.1,4.1,10.5,3.9,10.6s-1.7-1.8-2-1.6s1.5,1.9,1.3,2.1
										C219.3,201.4,208.5,196.2,208.5,196.2z"/>
									<g>
										<path class="st50" d="M214.8,213.8c-1.4,1.2-8.5-6.5-7.1-6.9c0.9-0.2,12-3.5,12-3.5C219.9,203.7,214.8,213.8,214.8,213.8z
											"/>
										<path class="st50" d="M226.9,190.9c1.4-1.2,7.7,5.9,6.6,6.8c-0.1,0.1-11.4,4.2-11.7,4c-0.3-0.3,0.9-0.8,0.8-1
											c-0.1-0.2-1,0.8-1.2,0.5C221.3,201,226.9,190.9,226.9,190.9z"/>
									</g>
								</g>
							</g>
							<path class="st8" d="M224.3,199.8c-0.6,0.3-1.3,0.4-2,0.4c0.2-0.6,0.6-1.2,1.1-1.6c0.6-0.4,1.2-0.3,1.4,0
								S224.9,199.4,224.3,199.8z"/>
							<path class="st8" d="M224.5,203.4c-0.3-0.1-0.7-0.3-0.9-0.5c0.3-0.2,0.7-0.3,1-0.3c0.4,0,0.6,0.2,0.5,0.5
								C225.1,203.3,224.8,203.5,224.5,203.4z"/>
							<path class="st8" d="M218.5,197.6c0.1,0.3,0.2,0.7,0.2,1c-0.3-0.1-0.6-0.3-0.9-0.6c-0.2-0.3-0.1-0.6,0-0.7
								C217.9,197.3,218.3,197.3,218.5,197.6z"/>
							<path class="st8" d="M223.6,205.4c-0.4-0.4-0.7-0.8-0.9-1.4c0.6,0,1.2,0.1,1.7,0.3c0.5,0.3,0.6,0.7,0.4,1
								C224.6,205.7,224.1,205.7,223.6,205.4z"/>
							<path class="st8" d="M216.3,200.9c0.6,0.1,1.1,0.4,1.5,0.8c-0.5,0.3-1.1,0.5-1.6,0.5c-0.6,0-0.9-0.4-0.9-0.7
								S215.7,200.9,216.3,200.9z"/>
							<path class="st8" d="M216.7,204.5c0.5-0.2,1.1-0.4,1.7-0.4c-0.2,0.5-0.5,1-0.9,1.4c-0.5,0.3-1,0.3-1.2,0
								C216.2,205.2,216.2,204.8,216.7,204.5z"/>
						</g>
					</g>
					<g>
						<path class="st51" d="M234.1,197.7c0,0-0.8,5.7,6.1,8c0,0,1.3,6.1,9,9.6s21.6,2.7,30.7-3.3c9.1-6.1,14.3-18.9,13.2-26.2
							s2.8-12.2,2.8-15.2c-0.1-3-0.5-6.3-5.5-8.6C285.4,159.5,234.1,197.7,234.1,197.7z"/>
						<path class="st14" d="M241.4,203.8c0,0-11.8-1-6.7-19.5c1.3-5.7,3.1-14.2,17.3-21c9.2-4.5,17.7-2.7,25.1-5.9
							c4.5-1.9,10.6-3.8,12.2,2.1c0.2,1.3,1,2.4,2.1,3c1.8,1.2,5.1,3.3,2,9.5s-2.4,7-3.2,11.6c-0.8,4.6-4.6,17.1-19.6,25.1
							C256.6,216.4,241.9,213.4,241.4,203.8z"/>
						<path class="st52" d="M244.3,201.5c-1.6,1.6-14.5,1.6-8.7-17.2c1.3-5.5,3-13.6,16.7-20.3c8.9-4.3,17.1-2.6,24.3-5.7
							c4.3-1.8,10.2-3.7,11.8,2.1c0.2,1.2,0.9,2.3,2,2.9c1.8,1.2,5,3.2,1.9,9.2s-2.3,6.7-3.1,11.2c-0.8,4.5-4.4,16.5-18.9,24.3
							C256.9,215.2,241.4,212.2,244.3,201.5z"/>
						<path class="st50" d="M246.4,184.9c0.7-3.2,1.8-8,9.8-11.8c5.2-2.5,9.8-1.9,14.2-3.3c8.3-2.5,11,4.7,9.2,8.3s-1.3,3.9-1.8,6.6
							c-1,6.3-5.2,11.7-11.1,14.2C252.6,204.9,243.5,195.3,246.4,184.9z"/>
						<path class="st53" d="M251,184.5c0.5-2.4,1.3-5.7,7-8.5c3.7-1.8,7.1-1.4,10.2-2.4c5.9-1.8,7.9,3.4,6.6,5.9
							c-0.8,1.5-1.2,3.1-1.3,4.7c-0.7,4.6-3.7,8.4-8,10.2C255.5,198.9,249,192,251,184.5z"/>
						<path class="st54" d="M252.8,184.5c0.4-1.9,1.1-4.8,5.9-7.2c3.2-1.5,5.9-1.2,8.6-2c5-1.5,6.7,2.9,5.6,5c-0.7,1.2-1,2.6-1.1,4
							c-0.6,3.8-3.1,7.1-6.7,8.6C256.6,196.6,251.1,190.8,252.8,184.5z"/>
					</g>
					<g>
						<g>
							<path class="st55" d="M296.1,214c-0.2,1.1-0.7,1.7-1.3,1.7c-0.6-0.1-0.9-0.9-0.7-1.9C294.3,212.7,296.3,213,296.1,214z"/>
							<path class="st44" d="M301.8,208.9c-0.5,3.9-3.5,6-6.7,5.6s-5.5-3.1-4.9-7s3.3-7.4,6.9-7C301.2,201,302.3,205,301.8,208.9z"
								/>
							<path class="st56" d="M297.9,213.2c-5.8,2.2-7.9-5.2-6.3-9.6c-0.7,1.2-1.2,2.5-1.4,3.9c-0.6,3.9,1.7,6.6,4.9,7
								s6.2-1.7,6.7-5.6c0.1-0.7,0.2-1.5,0.1-2.2C301.4,210.5,299.9,212.3,297.9,213.2z"/>
							<path class="st43" d="M299,204.8c-0.5,0.5-1.2,0.4-1.7,0c-0.1-0.1-0.1-0.1-0.2-0.2c-0.1-0.4,0.3-1.4,1-1.3
								C298.8,203.3,299.3,204.5,299,204.8z"/>
							<path class="st55" d="M295.7,215.4c-0.3,0.7-0.4,1.6-0.1,2.4l0,0c0.1,0.2,0,0.4-0.3,0.5l0,0c-0.2,0.1-0.4,0-0.5-0.2
								c-0.5-1-0.7-2.1-0.4-3.1l0,0c0.1-0.3,0.5-0.5,0.8-0.4C295.6,214.6,295.8,215,295.7,215.4L295.7,215.4
								C295.7,215.3,295.7,215.4,295.7,215.4z"/>
						</g>
						<g>
							<path class="st55" d="M292.7,215.8c1,0.5,1.5,1.2,1.3,1.7c-0.3,0.5-1.2,0.5-2.2,0S291.7,215.3,292.7,215.8z"/>
							<path class="st44" d="M289.5,209.1c3.7,1.8,4.8,5.1,3.3,7.8s-5,3.8-8.7,1.9c-3.7-1.8-6.3-5.4-4.6-8.5
								C281.4,206.9,285.7,207.3,289.5,209.1z"/>
							<path class="st56" d="M292.4,214c0.2,5.8-7.9,5.2-11.8,2.3c1,1.1,2.2,2,3.5,2.6c3.7,1.8,7.2,0.7,8.7-1.9s0.4-6-3.3-7.8
								c-0.7-0.3-1.4-0.6-2.2-0.9C291,210,292.3,211.9,292.4,214z"/>
							<path class="st43" d="M284.4,210.1c0.3,0.5,0.2,1.1-0.3,1.4c-0.2,0.1-0.3,0.2-0.5,0.2c-0.5,0-1.3-0.7-1-1.3
								C283,209.8,283.8,209.7,284.4,210.1z"/>
							<path class="st55" d="M293.9,216.7c0.7,0.6,1.5,0.9,2.4,1l0,0c0.2,0,0.4,0.2,0.4,0.4s-0.2,0.4-0.4,0.4
								c-1.1,0.1-2.3-0.1-3.2-0.7l0,0c-0.3-0.2-0.4-0.6-0.2-0.9l0,0c0.2-0.3,0.6-0.4,0.9-0.2l0,0H293.9z"/>
						</g>
						<g>
							<path class="st55" d="M299.5,217.5c-1.1,0.2-2-0.1-2.1-0.6s0.6-1.1,1.7-1.3S300.6,217.3,299.5,217.5z"/>
							<path class="st44" d="M306.5,220.9c-4.1,0.7-7.2-1.2-7.8-4.2s1.4-5.9,5.6-6.6s8.6,0.6,9.2,3.9
								C314.3,218,310.6,220.1,306.5,220.9z"/>
							<path class="st56" d="M301,218.8c-4-4.5,2.8-8.7,7.8-8.7c-1.5-0.3-3-0.3-4.4,0c-4.1,0.7-6.2,3.6-5.6,6.6s3.6,5,7.8,4.2
								c0.8-0.2,1.5-0.4,2.3-0.6C304.7,221,302.4,220.3,301,218.8z"/>
							<path class="st43" d="M309.7,217.1c-0.5-0.2-0.8-0.7-0.6-1.2c0.1-0.2,0.2-0.3,0.3-0.5c0.4-0.3,1.5-0.2,1.6,0.4
								C311.2,216.5,310.1,217.3,309.7,217.1z"/>
							<path class="st55" d="M298,217.6c-0.9-0.1-1.8,0.1-2.5,0.6l0,0c-0.2,0.1-0.4,0.1-0.6-0.1c-0.1-0.1-0.1-0.4,0-0.5
								c0.8-0.8,1.9-1.2,3-1.3l0,0c0.4-0.1,0.7,0.2,0.8,0.5c0.1,0.4-0.2,0.7-0.5,0.8C298.1,217.5,298.1,217.6,298,217.6L298,217.6z"
								/>
						</g>
					</g>
				</g>
				<g>
					<path class="st9" d="M264.8,214c3.9,6.2,1.7,11.2-3.2,13.9c-4.9,2.8-10.6,2.2-14.6-3.9c-4-6.2-4.6-15.6,0.4-18.4
						C252.3,202.8,260.9,207.9,264.8,214z"/>
					<path class="st10" d="M262.6,211.2c1.5,2.5,2.7,4.8,1.9,8.1c-1.5,5.5-9.1,8.9-13.3,5.1c-6.1-5.6-6.9-13-3.5-18.9l-0.2,0.1
						c-4.9,2.8-4.3,12.2-0.4,18.4c3.9,6.2,9.7,6.7,14.6,3.9s7.1-7.7,3.2-13.9C264.2,213,263.5,212.1,262.6,211.2z"/>
				</g>
				<g>
					<path class="st9" d="M282.2,218.7c-0.3,7.2-5.1,10.2-10.8,10c-5.7-0.2-10.2-3.5-9.9-10.8c0.3-7.2,5.3-15.4,11-15.2
						C278.2,203,282.5,211.6,282.2,218.7z"/>
					<path class="st10" d="M282,215.2c-0.2,2.8-0.5,5.4-3.1,7.7c-4.4,3.8-12.8,2.8-14.1-2.5c-1.9-7,1.4-14.5,8-17.7h-0.3
						c-5.7-0.2-10.7,8-11,15.2s4.2,10.6,9.9,10.8s10.5-2.8,10.8-10C282.2,217.6,282.2,216.4,282,215.2z"/>
				</g>
			</g>
			<g>
				<circle class="st57" cx="293.6" cy="100.4" r="22.9"/>
				<path class="st8" d="M290.2,105.1l-1.9,5.9h-2.5l6.4-18.8h2.9l6.4,18.8h-2.6l-2-5.9H290.2z M296.4,103.2l-1.8-5.4
					c-0.4-1.2-0.7-2.4-1-3.4h-0.1c-0.3,1.1-0.6,2.2-0.9,3.4l-1.8,5.4H296.4z"/>
			</g>
			<circle class="st58" cx="358.1" cy="91.9" r="14.7"/>
			<g>
				<path class="st8" d="M350.9,86.7c1-0.2,1.9-0.3,2.9-0.3c1.2-0.1,2.4,0.2,3.4,0.9c0.7,0.5,1,1.3,1,2.2c0,1.3-0.9,2.3-2.1,2.7l0,0
					c1.5,0.3,2.5,1.6,2.5,3.1c0,0.9-0.4,1.8-1,2.5c-1.2,0.9-2.7,1.3-4.2,1.2c-0.8,0-1.6,0-2.4-0.2L350.9,86.7L350.9,86.7z
					 M352.5,91.7h1.4c1.7,0,2.6-0.9,2.6-2.1c0-1.4-1.1-2-2.7-2c-0.5,0-0.9,0-1.4,0.1v4H352.5z M352.5,97.6c0.4,0.1,0.9,0.1,1.3,0.1
					c1.6,0,3.1-0.6,3.1-2.4s-1.4-2.4-3.2-2.4h-1.3v4.7H352.5z"/>
				<path class="st8" d="M362.8,90.7L362.8,90.7l-1.6,0.9l-0.2-1l2-1.1h1.1v9.3h-1.2L362.8,90.7z"/>
			</g>
			<g>
				<ellipse class="st59" cx="418.3" cy="105.5" rx="11" ry="11"/>
				<g>
					<path class="st8" d="M413.4,101.4c0.7-0.1,1.5-0.2,2.2-0.2c0.9-0.1,1.8,0.2,2.5,0.7c0.5,0.4,0.8,1,0.7,1.7c0,0.9-0.7,1.8-1.6,2
						l0,0c1.1,0.2,1.9,1.2,1.9,2.4c0,0.7-0.3,1.4-0.8,1.9c-0.9,0.7-2.1,0.9-3.2,0.8c-0.6,0-1.2-0.1-1.9-0.1L413.4,101.4z
						 M414.5,109.7c0.3,0.1,0.7,0.1,1,0.1c1.3,0,2.4-0.4,2.4-1.8c0.1-1.4-1.1-1.8-2.4-1.8h-1V109.7z M414.6,105.2h1.1
						c1.3,0,2-0.6,2-1.5c0-1.1-0.8-1.5-2-1.6c-0.4,0-0.7,0-1.1,0V105.2z"/>
					<path class="st8" d="M420.2,110.8v-0.5l0.7-0.6c1.6-1.5,2.4-2.3,2.4-3.2c0-0.7-0.5-1.2-1.1-1.2c0,0,0,0-0.1,0
						c-0.5,0-1,0.2-1.3,0.5l-0.2-0.6c0.5-0.4,1.1-0.6,1.7-0.6c1-0.1,1.8,0.7,1.9,1.6c0,0.1,0,0.1,0,0.2c0,1.2-0.9,2.1-2.2,3.3
						l-0.5,0.4l0,0h2.8v0.7L420.2,110.8z"/>
				</g>
			</g>
			<g>
				
					<ellipse transform="matrix(0.2297 -0.9733 0.9733 0.2297 184.8025 556.8533)" class="st60" cx="444.2" cy="161.7" rx="25.3" ry="25.3"/>
				<g>
					<path class="st8" d="M433,151.7c1.6-0.3,3.3-0.4,5-0.4c2.7,0,4.5,0.5,5.8,1.5c1.2,0.9,1.8,2.3,1.8,3.7c-0.1,2.1-1.5,4-3.5,4.6
						l0,0c2.5,0.5,4.3,2.7,4.4,5.3c0,1.6-0.6,3.1-1.8,4.3c-1.5,1.3-3.9,2-7.3,2c-1.4,0-2.8-0.1-4.2-0.2L433,151.7z M435.8,160.4h2.5
						c2.9,0,4.6-1.5,4.6-3.5c0-2.5-1.9-3.5-4.6-3.5c-0.8,0-1.6,0-2.4,0.2v6.8H435.8z M435.8,170.5c0.8,0.1,1.5,0.1,2.3,0.1
						c2.8,0,5.4-1,5.4-4.1c0-2.9-2.5-4.1-5.5-4.1h-2.3v8.1H435.8z"/>
					<path class="st8" d="M457.3,159.7h-5.6l-0.6,3.7c0.4-0.1,0.8-0.1,1.2-0.1c1.1,0,2.2,0.2,3.1,0.8c1.4,0.7,2.2,2.2,2.2,3.7
						c0,2.8-2.3,5-5.1,5c-0.1,0-0.2,0-0.3,0c-1.3,0-2.5-0.3-3.6-0.9l0.5-1.5c1,0.5,2,0.8,3.1,0.8c1.8,0.1,3.3-1.2,3.4-3
						c0-0.1,0-0.1,0-0.2c0-1.9-1.3-3.2-4.2-3.2c-0.7,0-1.3,0.1-2,0.2l0.9-7h6.9L457.3,159.7z"/>
				</g>
			</g>
			<g>
				<ellipse class="st61" cx="126.9" cy="105" rx="14.4" ry="14.4"/>
				<g>
					<path class="st8" d="M120.5,99.3c0.9-0.2,1.9-0.3,2.8-0.2c1.2-0.1,2.3,0.2,3.3,0.9c0.7,0.5,1,1.3,1,2.1c0,1.2-0.9,2.3-2,2.6
						l0,0c1.4,0.3,2.5,1.5,2.5,3c0,0.9-0.4,1.8-1,2.4c-1.2,0.9-2.7,1.3-4.1,1.2c-0.8,0-1.6,0-2.4-0.1L120.5,99.3z M122,104.2h1.4
						c1.6,0,2.6-0.9,2.6-2c0-1.4-1.1-1.9-2.6-1.9c-0.5,0-0.9,0-1.4,0.1V104.2z M122,109.9c0.4,0.1,0.9,0.1,1.3,0.1
						c1.6,0,3.1-0.6,3.1-2.4s-1.4-2.4-3.1-2.4H122V109.9z"/>
					<path class="st8" d="M133.8,103.9c-0.3,0-0.5,0-0.8,0.1c-1.5,0.2-2.6,1.4-2.8,2.8l0,0c0.5-0.6,1.2-0.9,1.9-0.9
						c1.3,0,2.4,1,2.4,2.4c0,0.1,0,0.1,0,0.2c0.1,1.5-1,2.7-2.5,2.8h-0.1c-1.7,0-2.8-1.3-2.8-3.4c0-1.3,0.5-2.6,1.3-3.5
						c0.7-0.7,1.6-1.1,2.5-1.2c0.3,0,0.5-0.1,0.8-0.1L133.8,103.9z M133.5,108.5c0.1-0.9-0.5-1.7-1.4-1.8c-0.1,0-0.2,0-0.2,0
						c-0.7,0-1.3,0.4-1.5,1c-0.1,0.1-0.1,0.3-0.1,0.5c0,1.3,0.6,2.3,1.7,2.3C132.9,110.4,133.5,109.6,133.5,108.5z"/>
				</g>
			</g>
			<g>
				<circle class="st62" cx="457.6" cy="99.1" r="20.6"/>
				<g>
					<path class="st8" d="M446.9,91.9c1.3-0.2,2.6-0.4,4-0.4c1.6-0.2,3.3,0.3,4.6,1.2c0.9,0.7,1.4,1.8,1.4,3c0,1.7-1.2,3.2-2.8,3.7
						l0,0c2,0.4,3.5,2.2,3.5,4.2c0,1.3-0.5,2.5-1.4,3.4c-1.2,1.1-3.1,1.6-5.8,1.6c-1.1,0-2.3-0.1-3.4-0.2L446.9,91.9z M449.1,98.8h2
						c2.3,0,3.6-1.2,3.6-2.8c0-2-1.5-2.7-3.7-2.7c-0.6,0-1.3,0-1.9,0.2V98.8z M449.1,106.9c0.6,0.1,1.2,0.1,1.8,0.1
						c2.2,0,4.3-0.8,4.3-3.3c0-2.4-2-3.2-4.3-3.2h-1.8V106.9z"/>
					<path class="st8" d="M461.4,101.7L461.4,101.7l-1.3,0.7l-0.2-0.8l1.7-0.9h0.8v7.8h-1V101.7z"/>
					<path class="st8" d="M465.2,108.5v-0.6l0.8-0.8c2-1.9,2.9-2.9,2.9-4.1c0.1-0.8-0.5-1.4-1.2-1.5c-0.1,0-0.2,0-0.3,0
						c-0.6,0-1.2,0.3-1.6,0.6l-0.3-0.7c0.6-0.5,1.4-0.8,2.2-0.8c1.2-0.1,2.3,0.8,2.4,2c0,0.1,0,0.2,0,0.3c0,1.4-1,2.6-2.7,4.2
						l-0.6,0.6l0,0h3.5v0.9L465.2,108.5z"/>
				</g>
			</g>
			<g>
				
					<ellipse transform="matrix(0.1602 -0.9871 0.9871 0.1602 256.766 639.561)" class="st63" cx="504.2" cy="168.9" rx="29.1" ry="29.1"/>
				<g>
					<path class="st8" d="M491.3,160c1.8-0.3,3.7-0.5,5.5-0.5c3,0,4.9,0.5,6.4,1.7c1.3,1,2,2.5,1.9,4.1c-0.1,2.4-1.7,4.4-3.9,5.1
						v0.1c2.8,0.6,4.8,3,4.8,5.8c0,1.8-0.7,3.5-2,4.7c-1.6,1.5-4.2,2.2-8,2.2c-1.6,0-3.1-0.1-4.7-0.3L491.3,160L491.3,160z
						 M494.3,169.5h2.7c3.2,0,5-1.7,5-3.9c0-2.7-2.1-3.8-5.1-3.8c-0.9,0-1.8,0-2.7,0.2v7.5H494.3z M494.3,180.6
						c0.8,0.1,1.7,0.2,2.5,0.1c3.1,0,6-1.2,6-4.5c0-3.2-2.7-4.5-6-4.5h-2.5V180.6z"/>
					<path class="st8" d="M510.1,181.2c0.7,0,1.3,0,2-0.1c1.4-0.2,2.8-0.8,3.8-1.8c1.4-1.3,2.2-3,2.4-4.9h-0.1c-1.1,1.3-2.7,2-4.3,2
						c-2.9,0.1-5.4-2.3-5.4-5.2c0-0.1,0-0.3,0-0.4c-0.1-3.5,2.6-6.4,6.1-6.5c0.1,0,0.1,0,0.2,0c3.8,0,6.1,3,6.1,7.7
						c0.2,3.2-1,6.3-3.2,8.6c-1.5,1.4-3.3,2.2-5.3,2.5c-0.8,0.1-1.5,0.2-2.3,0.1L510.1,181.2L510.1,181.2z M511,170.5
						c-0.2,1.9,1.2,3.7,3.2,3.9c0.1,0,0.2,0,0.4,0c1.5,0.1,2.8-0.7,3.6-1.9c0.2-0.3,0.2-0.6,0.2-0.9c0-3.1-1.2-5.5-3.8-5.5
						c-2.1,0.1-3.6,1.9-3.6,4.6L511,170.5L511,170.5z"/>
				</g>
			</g>
			<g>
				<ellipse class="st64" cx="138.4" cy="159.4" rx="20.7" ry="20.7"/>
				<path class="st8" d="M133,150.4c1.6-0.2,3.2-0.4,4.8-0.4c3.3,0,5.6,0.8,7.1,2.2c1.7,1.6,2.6,3.9,2.5,6.3c0.1,2.5-0.8,5-2.5,6.8
					c-1.6,1.6-4.3,2.5-7.8,2.5c-1.4,0-2.7-0.1-4.1-0.2V150.4z M135.3,166c0.8,0.1,1.5,0.1,2.3,0.1c4.9,0,7.5-2.7,7.5-7.5
					c0-4.1-2.4-6.8-7.1-6.8c-0.9,0-1.8,0.1-2.7,0.2V166z"/>
			</g>
			<g>
				<circle class="st65" cx="81" cy="131.2" r="26.7"/>
				<path class="st8" d="M89,142c-1.9,0.8-3.8,1.1-5.8,1.1c-6.2,0-10.9-3.9-10.9-11.2c0-6.9,4.7-11.6,11.5-11.6
					c1.8-0.1,3.6,0.3,5.2,1l-0.7,2.4c-1.4-0.6-2.9-0.9-4.5-0.9c-5.2,0-8.6,3.3-8.6,9.1c0,5.4,3.1,8.9,8.5,8.9c1.6,0,3.2-0.3,4.7-0.9
					L89,142z"/>
			</g>
			<g>
				<circle class="st66" cx="171.9" cy="88.1" r="17.6"/>
				<path class="st8" d="M167.4,80.8h8.2v2.8h-5.4v2.7h5.4V89h-5.4v4h5.4v2.8h-8.2V80.8z"/>
			</g>
			<g>
				<ellipse class="st67" cx="223.7" cy="119.6" rx="15.2" ry="15.2"/>
				<path class="st8" d="M220,113.7h2.5v4.5l3.5-4.5h3l-4.6,5.9l5.1,7.2h-3l-4.1-5.8v5.8h-2.5L220,113.7z"/>
			</g>
			<g>
				<ellipse class="st68" cx="562.6" cy="158" rx="14.5" ry="14.5"/>
				<g>
					<path class="st8" d="M556.8,153.3c0.9-0.2,1.9-0.3,2.9-0.2c1.2-0.1,2.4,0.2,3.3,0.9c0.7,0.5,1.1,1.3,1,2.2
						c0,1.2-0.9,2.3-2.1,2.7l0,0c1.5,0.3,2.5,1.6,2.5,3.1c0,0.9-0.4,1.8-1,2.4c-1.2,0.9-2.7,1.3-4.2,1.2c-0.8,0-1.6,0-2.4-0.1V153.3
						z M558.3,158.3h1.4c1.7,0,2.6-0.9,2.6-2c0-1.4-1.1-2-2.7-2c-0.5,0-0.9,0-1.4,0.1v3.9H558.3z M558.3,164.2
						c0.4,0.1,0.9,0.1,1.3,0.1c1.6,0,3.1-0.6,3.1-2.4s-1.4-2.4-3.1-2.4h-1.3V164.2z"/>
					<path class="st8" d="M566.1,164c0.6,0.3,1.2,0.5,1.9,0.5c1.5,0,2-1,1.9-1.7c0-1.2-1.1-1.7-2.2-1.7H567v-0.9h0.6
						c0.8,0,1.9-0.4,1.9-1.5c0-0.7-0.4-1.3-1.5-1.3c-0.6,0-1.2,0.2-1.7,0.6l-0.3-0.8c0.7-0.4,1.4-0.7,2.2-0.7c1.7,0,2.5,1,2.5,2
						s-0.7,1.8-1.6,2l0,0c1.1,0.2,1.9,1.1,1.9,2.2c0,1.4-1.1,2.6-3.1,2.6c-0.8,0-1.5-0.2-2.2-0.6L566.1,164z"/>
				</g>
			</g>
			<g>
				<circle class="st59" cx="37.3" cy="149.5" r="14.4"/>
				<g>
					<path class="st8" d="M31,144.2c0.9-0.2,1.9-0.2,2.9-0.2c1.2-0.1,2.4,0.2,3.3,0.9c0.7,0.5,1,1.3,1,2.2c-0.1,1.2-0.9,2.3-2.1,2.6
						l0,0c1.5,0.3,2.5,1.7,2.4,3.2c0,0.9-0.4,1.8-1.1,2.4c-1.2,0.9-2.7,1.2-4.2,1.1c-0.8,0-1.6-0.1-2.4-0.2L31,144.2z M32.4,155
						c0.4,0.1,0.9,0.1,1.3,0.1c1.6,0,3.1-0.5,3.2-2.4c0-1.8-1.4-2.4-3.1-2.4h-1.3L32.4,155z M32.5,149.2h1.4c1.7,0,2.6-0.8,2.7-2
						c0-1.4-1-2-2.6-2c-0.5,0-0.9,0-1.4,0.1L32.5,149.2z"/>
					<path class="st8" d="M39.8,156.3v-0.7l0.9-0.8c2.1-1.9,3.1-3,3.1-4.2c0.1-0.8-0.5-1.5-1.3-1.6c-0.1,0-0.2,0-0.3,0
						c-0.6,0-1.3,0.2-1.7,0.6l-0.3-0.8c0.7-0.5,1.5-0.8,2.4-0.8c1.2-0.1,2.3,0.8,2.4,2.1c0,0.1,0,0.2,0,0.3c0,1.5-1.2,2.7-2.9,4.3
						l-0.7,0.6l0,0l3.6,0.1v1L39.8,156.3z"/>
				</g>
			</g>
		</g>
	</g>
</g>
</svg>
