<?xml version="1.0" encoding="utf-8"?>
<!-- Generator: Adobe Illustrator 23.1.0, SVG Export Plug-In . SVG Version: 6.00 Build 0)  -->
<svg version="1.1" id="Layer_1" xmlns="http://www.w3.org/2000/svg" xmlns:xlink="http://www.w3.org/1999/xlink" x="0px" y="0px"
	 viewBox="0 0 600 300" style="enable-background:new 0 0 600 300;" xml:space="preserve">
<style type="text/css">
	.st0{fill:#F2F2F2;}
	.st1{opacity:0.9608;}
	.st2{fill:#8E8E8E;}
	.st3{fill:#CDD6E0;}
	.st4{fill:#ACB3BA;}
	.st5{fill:#40596B;}
	.st6{fill:#FF7058;}
	.st7{fill:#FFAA48;}
	.st8{fill:#E04240;}
	.st9{opacity:0.3;fill:#FFFFFF;enable-background:new    ;}
	.st10{fill:#E0715B;}
	.st11{fill:#FF900D;}
	.st12{fill:#999999;}
	.st13{fill:#777777;}
	.st14{fill:#3A3A3A;}
	.st15{fill:#FFFDFF;}
	.st16{fill:#AFBCDA;}
	.st17{fill:#FFFFFF;}
	.st18{opacity:0.77;}
	.st19{fill:#7678A3;}
	.st20{fill:#72BA68;}
	.st21{fill:#FFC200;}
	.st22{fill:#8B47AA;}
	.st23{fill:none;stroke:#C2CEE9;stroke-width:0.75;stroke-linecap:round;stroke-linejoin:round;}
	.st24{fill:#FF5050;}
	.st25{opacity:0.65;}
	.st26{fill:#F6F6F6;}
	.st27{fill:none;stroke:#DDDDDD;stroke-width:2.4132;stroke-linecap:round;stroke-linejoin:round;}
	.st28{fill:#F58A1F;}
	.st29{fill-rule:evenodd;clip-rule:evenodd;fill:#887D7A;}
	.st30{fill-rule:evenodd;clip-rule:evenodd;fill:#989797;}
	.st31{fill:#C7C7C7;}
	.st32{fill:#A7A7A7;}
	.st33{fill:none;stroke:#AFBCDA;stroke-width:1.4986;stroke-miterlimit:10;}
</style>
<title>02fitslider1</title>
<g id="calorie">
	<g>
		<path class="st0" d="M129.8,113.3h110.5c11.3,0,20.5,10,20.5,22.3v28.3c0,12.3-9.2,22.3-20.5,22.3H129.8
			c-11.3,0-20.5-10-20.5-22.3v-28.3C109.3,123.4,118.4,113.3,129.8,113.3z"/>
		<g class="st1">
			<g>
				<path class="st2" d="M158.1,172.8v1.5l-3.2,8.3h-2.2l3-8H153v1.6h-1.7v-3.4L158.1,172.8L158.1,172.8z"/>
				<path class="st2" d="M162.5,172.8v9.8h-2v-8h-1.7v-1.8H162.5z"/>
				<path class="st2" d="M169.5,177.7c0.3,0.5,0.7,1.1,0.7,1.8c0,1.1-0.5,2.2-1.5,2.7c-0.7,0.4-1.3,0.5-2,0.4
					c-0.7,0-1.2-0.2-1.8-0.4c-0.5-0.2-1-0.4-1.5-0.7l0.8-1.8c0.3,0.4,0.7,0.5,1.2,0.7c0.3,0.2,0.8,0.2,1.3,0.2c0.3,0,0.8,0,1.2-0.4
					c0.3-0.2,0.5-0.5,0.5-0.9c0-0.7-0.5-1.3-1.5-1.3H166v-1.5l1.7-2.4h-3.5v-1.8h6v1.6l-1.8,2.5
					C168.5,176.8,169.2,177.1,169.5,177.7z"/>
			</g>
			<g>
				<path class="st2" d="M179,178.7l-1.2,1.5v2.5h-2v-9.8h2v4.5l3.7-4.5h2.2l-3.5,4.4l3.7,5.4h-2.3L179,178.7z"/>
				<path class="st2" d="M185.7,182.2c-0.5-0.4-1-0.7-1.3-1.5c-0.3-0.5-0.5-1.3-0.5-2s0.2-1.5,0.5-2s0.7-1.1,1.3-1.5
					c0.5-0.4,1.2-0.5,1.8-0.5c0.7,0,1.2,0.2,1.8,0.5c0.5,0.4,0.8,0.9,1.2,1.5l-1.5,0.9c-0.2-0.5-0.8-1.1-1.5-1.1
					c-0.5,0-0.8,0.2-1.2,0.5c-0.3,0.4-0.5,0.9-0.5,1.5s0.2,1.1,0.5,1.5s0.8,0.5,1.2,0.5c0.7,0,1.2-0.4,1.5-1.1l1.5,0.9
					c-0.2,0.5-0.7,1.1-1.2,1.5s-1.2,0.5-1.8,0.5C186.9,182.7,186.4,182.6,185.7,182.2z"/>
				<path class="st2" d="M196.5,175.8c0.5,0.7,0.8,1.6,0.8,2.5v4.4h-1.7v-0.9c-0.3,0.7-1.2,1.1-2,1.1c-0.5,0-0.8,0-1.3-0.4
					c-0.3-0.2-0.7-0.5-0.8-0.7c-0.2-0.4-0.3-0.7-0.3-1.3c0-0.7,0.2-1.3,0.7-1.6c0.7-0.4,1.3-0.7,2.2-0.5h1.5c0-0.4-0.2-0.7-0.3-1.1
					c-0.3-0.4-0.7-0.4-1.2-0.4c-0.3,0-0.7,0-1,0.2s-0.7,0.4-0.8,0.5l-0.7-1.5c0.3-0.4,0.8-0.5,1.3-0.7s1-0.2,1.5-0.2
					C195,174.9,195.9,175.3,196.5,175.8z M194.9,181.1c0.2-0.2,0.5-0.4,0.5-0.7v-0.9H194c-0.8,0-1.2,0.4-1.2,0.9
					c0,0.2,0.2,0.5,0.3,0.7c0.2,0.2,0.5,0.2,0.8,0.2C194.4,181.3,194.5,181.1,194.9,181.1L194.9,181.1z"/>
				<path class="st2" d="M199,172.2h1.8v10.3H199V172.2z"/>
			</g>
			<ellipse class="st3" cx="177.5" cy="142.3" rx="19.9" ry="21.6"/>
			<ellipse class="st4" cx="177.5" cy="142.3" rx="14.4" ry="15.6"/>
			<path class="st0" d="M178,120.7c-0.3,0-0.7,0.4-0.7,0.7v8.2c0,0.4-0.3,0.7-0.7,0.7l0,0c-0.3,0-0.7-0.4-0.7-0.7l0,0v-8.2
				c0-0.4-0.3-0.7-0.7-0.7l0,0c-0.3,0-0.8,0.4-0.8,0.7l0,0v8.2c0,0.4-0.3,0.7-0.7,0.7l0,0l0,0c-0.3,0-0.7-0.4-0.7-0.7l0,0v-8.2
				c0-0.4-0.3-0.7-0.7-0.7l0,0c-0.3,0-0.8,0.4-0.8,0.7l0,0v8.2c0,0.4-0.3,0.7-0.7,0.7l0,0l0,0c-0.3,0-0.7-0.4-0.7-0.7l0,0v-8.2
				c0-0.4-0.3-0.7-0.7-0.7l0,0c-0.3,0-0.8,0.4-0.8,0.7l0,0v9.1c0,1.5,0.5,2.9,1.5,4c1.5,1.6,2.3,3.8,2.2,6.2l-1.7,19.4v0.5
				c0.2,1.8,1.7,3.3,3.5,3.1c0.2,0,0.2,0,0.3,0c1.7-0.4,2.7-2,2.5-3.8l-1.5-19.2c-0.2-2.4,0.7-4.5,2.2-6.2c1-1.1,1.5-2.5,1.5-4v-8.9
				C178.7,121.1,178.3,120.9,178,120.7z"/>
			<path class="st5" d="M175.2,141H172l-1.5,19v0.5c0.2,1.8,1.7,3.3,3.5,3.1c0.2,0,0.2,0,0.3,0c1.7-0.4,2.7-2,2.5-3.8L175.2,141z"/>
			<path class="st0" d="M185,120.7c0,0-3.5,1.5-5,13.1c-0.5,4.7,0.2,9.4,2,13.8c0.2,0.5,0.3,1.1,0.2,1.5l-1,11.6v0.7
				c0.2,1.6,1.5,2.7,2.8,2.5l0,0c1.3-0.4,2.2-1.6,2.2-3.1L185,120.7z"/>
			<path class="st6" d="M182.3,149.2L182.3,149.2l-1,11.8v0.4c0.2,1.6,1.5,2.7,2.8,2.5l0,0c1.3-0.4,2.2-1.6,2.2-3.1l-0.3-11.6
				L182.3,149.2L182.3,149.2L182.3,149.2z"/>
		</g>
	</g>
	<g>
		<path class="st0" d="M360.4,30.9h91c9.7,0,17.5,8.5,17.5,19v3.6c0,10.5-7.8,19-17.5,19h-91c-9.7,0-17.5-8.5-17.5-19V50
			C342.9,39.5,350.7,30.9,360.4,30.9z"/>
		<g>
			<g>
				<path class="st2" d="M419.3,60.1v1.3l-2.5,6.9h-1.7l2.5-6.5h-2.5V63h-1.5v-2.9H419.3z"/>
				<path class="st2" d="M421.3,67.8c-0.5-0.4-0.8-0.9-1-1.5c-0.5-1.5-0.5-3.1,0-4.5c0.2-0.5,0.7-1.1,1-1.5c0.5-0.4,1-0.5,1.5-0.5
					s1,0.2,1.5,0.5c0.5,0.4,0.8,0.9,1,1.5c0.5,1.5,0.5,3.1,0,4.5c-0.2,0.5-0.5,1.1-1,1.5s-1,0.5-1.5,0.5
					C422.2,68.3,421.7,68.1,421.3,67.8z M423.8,66.1c0.3-0.5,0.3-1.3,0.3-2c0-0.7,0-1.3-0.3-2c-0.3-0.5-1-0.7-1.5-0.4
					c-0.2,0.2-0.3,0.2-0.3,0.4c-0.3,0.5-0.3,1.3-0.3,2c0,0.7,0,1.3,0.3,2c0.3,0.5,1,0.7,1.5,0.5C423.5,66.5,423.7,66.3,423.8,66.1z"
					/>
				<path class="st2" d="M432.3,65l-1,1.1v2h-1.7v-8h1.7v3.8l3-3.8h1.8l-2.8,3.6l3,4.5h-1.8L432.3,65z"/>
				<path class="st2" d="M437.8,67.8c-0.5-0.2-0.8-0.7-1-1.1c-0.3-0.5-0.3-1.1-0.3-1.6s0.2-1.1,0.3-1.6c0.2-0.5,0.7-0.9,1-1.1
					c0.5-0.4,1-0.4,1.5-0.4s1,0.2,1.5,0.4s0.7,0.7,0.8,1.1l-1.2,0.7c-0.2-0.5-0.7-0.9-1.2-0.9c-0.3,0-0.7,0.2-1,0.5
					c-0.3,0.4-0.3,0.7-0.3,1.3c0,0.5,0.2,0.9,0.3,1.3c0.3,0.4,0.7,0.5,1,0.5c0.5,0,1-0.4,1.2-0.9l1.2,0.7c-0.2,0.5-0.5,0.9-0.8,1.1
					c-0.5,0.4-1,0.4-1.5,0.4C438.8,68.3,438.2,68.1,437.8,67.8z"/>
				<path class="st2" d="M446.7,62.5c0.5,0.5,0.7,1.3,0.7,2v3.6h-1.5v-0.7c-0.3,0.5-1,0.9-1.7,0.9c-0.3,0-0.7,0-1-0.2
					c-0.5-0.4-1-0.9-0.8-1.6c0-0.5,0.2-1.1,0.5-1.5c0.5-0.4,1-0.5,1.7-0.5h1.2c0-0.4-0.2-0.7-0.3-0.9c-0.3-0.2-0.7-0.4-0.8-0.4
					c-0.3,0-0.5,0-0.8,0.2c-0.2,0.2-0.5,0.2-0.7,0.4l-0.5-1.3c0.3-0.2,0.7-0.4,1-0.5c0.3-0.2,0.8-0.2,1.3-0.2
					C445.4,61.8,446,61.9,446.7,62.5z M445.4,66.8c0.2-0.2,0.3-0.4,0.5-0.7v-0.7h-1c-0.7,0-1,0.2-1,0.7c0,0.2,0,0.4,0.2,0.5
					c0.2,0.2,0.3,0.2,0.7,0.2C444.9,67,445,67,445.4,66.8z"/>
				<path class="st2" d="M448.7,59.6h1.5v8.5h-1.5V59.6z"/>
			</g>
			<g>
				<path class="st7" d="M406.1,69.2c-1,0-2-0.5-2.7-1.3l-18.7-20.3c-0.8-1.1-2.2-1.3-3.3-0.4c-0.3,0.4-0.7,0.9-0.7,1.6
					c0,0.5,0.2,1.1,0.5,1.5l2.2,2.4l-0.7,0.7l-2.2-2.4c-0.5-0.5-0.8-1.5-0.8-2.2c0-0.9,0.3-1.6,0.8-2.2c1.3-1.3,3.3-0.9,4.5,0.4
					l18.7,20.1c0.7,1.1,1.8,1.5,2.8,0.7c1-0.7,1.3-2,0.7-3.1c-0.2-0.4-0.3-0.5-0.7-0.7l-22.9-24.8c-1.3-1.3-1.5-3.4-0.3-4.9
					c1.3-1.3,3.3-1.1,4.5,0.4L406.3,55c0.5,0.5,1.2,0.9,1.7,0.9s1.2-0.2,1.5-0.5c0.3-0.4,0.7-0.9,0.7-1.6c0-0.5-0.2-1.1-0.5-1.5
					l-2.2-2.4l0.7-0.7l2.2,2.4c0.5,0.5,0.8,1.5,0.8,2.2c0,0.9-0.3,1.6-0.8,2.2c-0.7,0.5-1.3,0.9-2.2,0.9c-0.8-0.2-1.7-0.5-2.3-1.3
					l-18.7-20.1c-0.8-1.1-2.2-1.3-3.3-0.4c-0.8,1.1-0.7,2.7,0.3,3.6l23.5,24.7c1.3,1.3,1.5,3.4,0.3,4.9
					C407.6,68.8,407,69.2,406.1,69.2z"/>
				<g>
					<path class="st8" d="M406.6,50.7c-2.5-4.2-5.8-7.6-9.8-10.3c-0.7-0.4-1-1.3-0.5-2c0-0.2,0.2-0.4,0.3-0.4l1-1.1
						c0.5-0.5,1.3-0.7,2-0.2c0.2,0.2,0.2,0.4,0.3,0.4c2.3,4.2,5.7,7.8,9.5,10.7L406.6,50.7z"/>
					<path class="st9" d="M407.5,49.8c-2.7-4.2-6.2-7.8-10.2-10.7c-0.3-0.2-0.7-0.5-0.7-1.1c-0.2,0.7,0,1.5,0.7,1.8
						c3.8,2.5,7.2,6.2,9.8,10.3C407.1,50.2,407.3,50,407.5,49.8z"/>
					<polygon class="st10" points="406.7,50.8 409.5,47.7 410.4,48.6 407.5,51.7 					"/>
					<polygon class="st9" points="407,50.4 407.5,49.9 408.3,50.8 407.8,51.3 					"/>
				</g>
				<g>
					<path class="st8" d="M382.4,55.1c3.8,2.7,7,6.3,9.5,10.7c0.3,0.7,1.2,1.1,1.8,0.7c0.2,0,0.3-0.2,0.3-0.4c0.3-0.4,0.7-0.7,1-1.1
						c0.7-0.5,0.7-1.5,0.2-2.2c-0.2-0.2-0.2-0.2-0.3-0.4c-3.8-2.5-7.2-6.2-9.8-10.3L382.4,55.1z"/>
					<path class="st9" d="M383.3,54.1c3.8,2.9,7.2,6.7,9.8,11.1c0.2,0.4,0.5,0.7,0.8,0.7c-0.7,0.2-1.3,0-1.7-0.7
						c-2.3-4.2-5.7-7.8-9.5-10.7L383.3,54.1z"/>
					<polygon class="st10" points="381.7,54.3 384.5,51.2 385.3,52.1 382.5,55.2 					"/>
					<polygon class="st9" points="382,53.9 382.5,53.3 383.3,54.2 382.8,54.8 					"/>
				</g>
			</g>
		</g>
	</g>
	<g>
		<path class="st0" d="M359.7,135h110.5c11.3,0,20.5,10,20.5,22.3v6.2c0,12.3-9.2,22.3-20.5,22.3H359.7c-11.3,0-20.5-10-20.5-22.3
			v-6.2C339.1,145,348.4,135,359.7,135z"/>
		<path class="st11" d="M439.8,149.4c-0.7,0-1.5,0-2.2,0.2c-1.5-4.9-5.5-8.2-10.2-8.3c-5.3,0.2-10,4.5-10.8,10.3
			c-1-0.5-2.3-0.9-3.5-0.9c-4.3,0.2-7.8,4-8,8.7l0,0c-3.8,0.4-6.7,3.8-6.3,8c0.2,3.8,3,6.7,6.3,6.9h34.7c6.3-0.5,11.2-6.3,10.7-13.2
			C450.2,154.8,445.7,149.9,439.8,149.4L439.8,149.4z"/>
	</g>
	<g>
		<path class="st0" d="M377.3,194.5H430c11.3,0,20.5,10,20.5,22.3v6.2c0,12.3-9.2,22.3-20.5,22.3h-52.7c-11.3,0-20.5-10-20.5-22.3
			v-6.2C356.7,204.5,365.9,194.5,377.3,194.5z"/>
		<g>
			<g>
				<path class="st12" d="M399.8,209c-2,0-4,0.7-5.5,2.2h-0.2l-0.5,0.4l0,0c-0.3,0.4-0.7,0.7-0.8,1.1l0,0l-0.3,0.5v0.2
					c-1.2,1.8-1.8,4.2-1.8,6.5c0.3,5.6,4.8,9.8,10,9.4c5.2-0.4,9-5.3,8.7-10.9C408.8,213.2,404.8,209,399.8,209L399.8,209z
					 M403.5,223.5c-0.2,0.2-0.3,0.2-0.5,0.4c-0.2,0-0.3,0-0.5-0.2l-3.2-3.1c-0.2-0.2-0.2-0.2-0.2-0.4l0,0V220v-0.2l0,0v-0.2l3.2-6.7
					c0.2-0.4,0.5-0.5,0.8-0.4l0,0c0.3,0.2,0.5,0.7,0.3,1.1l-3,6.2l2.8,2.7C403.6,222.8,403.6,223.2,403.5,223.5L403.5,223.5z"/>
				<path class="st12" d="M396,208.9c-1.5-1.3-3.5-1.1-4.8,0.4s-1.5,3.6-0.5,5.4C391.6,212.1,393.5,210.1,396,208.9z"/>
				<path class="st12" d="M409,214.5c0.8-1.6,0.7-3.8-0.5-5.3s-3.3-1.6-4.7-0.4C406,209.9,408,211.9,409,214.5z"/>
				<path class="st12" d="M393.8,230.4c-0.2,0.4,0,0.9,0.3,1.1c0.2,0,0.2,0.2,0.3,0.2c0.3,0,0.5-0.2,0.7-0.4l0.3-0.5
					c-0.5-0.2-0.8-0.5-1.2-0.9L393.8,230.4z"/>
				<path class="st12" d="M404.5,231.2c0.2,0.2,0.3,0.4,0.7,0.4c0.2,0,0.2,0,0.3-0.2c0.3-0.2,0.5-0.7,0.3-1.1l-0.2-0.5
					c-0.3,0.4-0.8,0.5-1.2,0.7v0.7H404.5z"/>
			</g>
			<g>
				<path class="st12" d="M419.8,221v1.5l-3,8.3h-2.2l3-8h-2.8v1.6h-1.7V221H419.8z"/>
				<path class="st12" d="M420.8,225.4c-0.2-0.2-0.3-0.5-0.3-0.9s0.2-0.7,0.3-0.9c0.2-0.2,0.5-0.4,0.8-0.4s0.7,0.2,0.8,0.4
					c0.2,0.2,0.3,0.5,0.3,0.9s-0.2,0.7-0.3,0.9c-0.2,0.2-0.5,0.4-0.8,0.4C421.3,225.9,421,225.7,420.8,225.4z M420.8,230.4
					c-0.2-0.2-0.3-0.5-0.3-0.9s0.2-0.7,0.3-0.9c0.2-0.2,0.5-0.4,0.8-0.4s0.7,0.2,0.8,0.4c0.2,0.2,0.3,0.5,0.3,0.9s-0.2,0.7-0.3,0.9
					c-0.2,0.2-0.5,0.4-0.8,0.4C421.3,230.8,421,230.8,420.8,230.4z"/>
				<path class="st12" d="M425.3,230.3c-0.7-0.4-1-1.1-1.3-1.8c-0.7-1.8-0.7-3.6,0-5.4c0.3-0.7,0.7-1.3,1.3-1.8
					c1.2-0.9,2.7-0.9,3.7,0c0.5,0.5,1,1.1,1.3,1.8c0.7,1.8,0.7,3.6,0,5.4c-0.2,0.7-0.7,1.5-1.3,1.8
					C428,231.2,426.5,231.2,425.3,230.3z M428.5,228.1c0.5-1.5,0.5-3.3,0-4.7c-0.2-0.5-0.7-0.7-1.2-0.7s-1,0.4-1.2,0.7
					c-0.7,1.5-0.7,3.3,0,4.7c0.2,0.5,0.7,0.7,1.2,0.7C427.8,229,428.2,228.6,428.5,228.1L428.5,228.1z"/>
				<path class="st12" d="M433.5,230.3c-0.7-0.4-1-1.1-1.3-1.8c-0.7-1.8-0.7-3.6,0-5.4c0.3-0.7,0.7-1.3,1.3-1.8
					c0.5-0.4,1.2-0.5,1.8-0.5c0.7,0,1.3,0.2,1.8,0.5c0.5,0.5,1,1.1,1.3,1.8c0.7,1.8,0.7,3.6,0,5.4c-0.2,0.7-0.7,1.5-1.3,1.8
					c-0.5,0.4-1.2,0.5-1.8,0.5C434.8,230.8,434.2,230.6,433.5,230.3z M436.7,228.1c0.7-1.5,0.7-3.3,0-4.7c-0.2-0.5-0.7-0.7-1.2-0.7
					s-1,0.4-1.2,0.7c-0.7,1.5-0.7,3.3,0,4.7c0.2,0.5,0.7,0.7,1.2,0.7C436,229,436.3,228.6,436.7,228.1L436.7,228.1z"/>
			</g>
		</g>
	</g>
	<g>
		<path class="st0" d="M159,200.9h81.6c11.3,0,20.5,10,20.5,22.3v6.2c0,12.3-9.2,22.3-20.5,22.3H159c-11.3,0-20.5-10-20.5-22.3v-6.2
			C138.5,211,147.6,200.9,159,200.9z"/>
		<g>
			<g>
				<path class="st13" d="M196.4,223.5v0.7l-3.5,9.1h-1l3.5-8.7H191v1.8h-0.8v-2.7h6.2V223.5z"/>
				<path class="st13" d="M198,232.1c0.2,0.2,0.2,0.4,0.2,0.5s0,0.2,0,0.4s0,0.4-0.2,0.4l-0.5,2H197l0.3-2c-0.2,0-0.2-0.2-0.3-0.2
					c-0.2-0.4-0.2-0.7,0-0.9C197.2,231.9,197.7,231.7,198,232.1C197.9,232.1,197.9,232.1,198,232.1L198,232.1z"/>
				<path class="st13" d="M200.9,232.8c-0.5-0.4-1-1.1-1.2-1.6c-0.5-1.6-0.5-3.6,0-5.3c0.2-0.7,0.7-1.3,1.2-1.6
					c0.5-0.4,1-0.5,1.7-0.5s1.2,0.2,1.7,0.5c0.5,0.4,1,1.1,1.2,1.6c0.5,1.6,0.5,3.6,0,5.3c-0.2,0.7-0.7,1.3-1.2,1.6
					c-0.5,0.4-1,0.5-1.7,0.5S201.4,233.2,200.9,232.8z M203.9,231.9c0.3-0.4,0.7-0.9,0.8-1.5c0.3-1.5,0.3-2.9,0-4.4
					c-0.2-0.5-0.5-1.1-0.8-1.5s-0.8-0.5-1.3-0.5s-0.8,0.2-1.3,0.5c-0.3,0.4-0.7,0.9-0.8,1.5c-0.5,1.5-0.5,2.9,0,4.4
					c0.2,0.5,0.5,1.1,0.8,1.5s0.8,0.5,1.3,0.5S203.5,232.2,203.9,231.9z"/>
				<path class="st13" d="M208.7,232.8c-0.5-0.4-1-1.1-1.2-1.6c-0.5-1.6-0.5-3.6,0-5.3c0.2-0.7,0.7-1.3,1.2-1.6
					c0.5-0.4,1-0.5,1.7-0.5s1.2,0.2,1.7,0.5c0.5,0.4,1,1.1,1.2,1.6c0.5,1.6,0.5,3.6,0,5.3c-0.2,0.7-0.7,1.3-1.2,1.6
					c-0.5,0.4-1,0.5-1.7,0.5C209.9,233.3,209.2,233.2,208.7,232.8z M211.7,231.9c0.3-0.4,0.7-0.9,0.8-1.5c0.5-1.5,0.5-2.9,0-4.4
					c-0.2-0.5-0.5-1.1-0.8-1.5s-0.8-0.5-1.3-0.5s-1,0.2-1.3,0.5c-0.3,0.4-0.7,0.9-0.8,1.5c-0.3,1.5-0.3,2.9,0,4.4
					c0.2,0.5,0.5,1.1,0.8,1.5s0.8,0.5,1.3,0.5S211.4,232.2,211.7,231.9z"/>
				<path class="st13" d="M216.6,232.8c-0.5-0.4-1-1.1-1.2-1.6c-0.5-1.6-0.5-3.6,0-5.3c0.2-0.7,0.7-1.3,1.2-1.6
					c0.5-0.4,1-0.5,1.7-0.5s1.2,0.2,1.7,0.5c0.5,0.4,1,1.1,1.2,1.6c0.5,1.6,0.5,3.6,0,5.3c-0.2,0.7-0.7,1.3-1.2,1.6
					c-0.5,0.4-1,0.5-1.7,0.5S217.1,233.2,216.6,232.8z M219.6,231.9c0.3-0.4,0.7-0.9,0.8-1.5c0.5-1.5,0.5-2.9,0-4.4
					c-0.2-0.5-0.5-1.1-0.8-1.5s-0.8-0.5-1.3-0.5s-1,0.2-1.3,0.5c-0.3,0.4-0.7,0.9-0.8,1.5c-0.3,1.5-0.3,2.9,0,4.4
					c0.2,0.5,0.5,1.1,0.8,1.5s0.8,0.5,1.3,0.5C218.7,232.4,219.2,232.2,219.6,231.9L219.6,231.9z"/>
			</g>
			<g>
				<path class="st13" d="M170.5,229.7c0,0-3.7-5.1-1.5-9.4c2.2-4.4,11.5-3.6,11.5,4.7c0,6.9-2.2,16.3-7.5,15.2
					C170.2,239.5,170.5,229.7,170.5,229.7z"/>
				<path class="st13" d="M166.2,217.2c-1-2.2,1-3.4,2.2-2.9c1,0.7,1.5,2,1.3,3.3C169.3,218.6,167.3,219.9,166.2,217.2z"/>
				<path class="st13" d="M170,215.6c-0.5-1.6,1-2.4,1.7-1.8c0.7,0.5,0.8,1.6,0.7,2.4C172.2,217,170.7,217.6,170,215.6z"/>
				<path class="st13" d="M173.2,214.7c0-0.7,0.5-1.3,1.2-1.5c0.5,0,0.8,0.2,1.2,0.5c0.3,0.7,0.3,1.8-0.3,2.5
					C174.7,216.8,173,216.8,173.2,214.7z"/>
				<path class="st13" d="M176.5,215.2c0.2-0.7,0.8-1.1,1.3-0.9c0.3,0.2,0.7,0.4,0.8,0.9c0.2,0.9-0.2,1.6-0.8,2.2
					C177.2,217.7,175.8,217.2,176.5,215.2z"/>
				<path class="st13" d="M179,217.2c0.2-0.5,0.7-0.9,1.2-0.7c0.3,0.2,0.7,0.4,0.7,0.7c0.2,0.7-0.2,1.5-0.8,1.8
					C179.5,219.4,178.3,218.8,179,217.2z"/>
			</g>
		</g>
	</g>
	<g>
		<path class="st14" d="M339.9,277.4h-69.6c-12.3,0-22.5-10.9-22.5-24.5V49.4c0-14.9,11-26.8,24.7-26.8h67.6
			c13.7,0,24.7,12,24.7,26.8v201.1C364.6,265.4,353.6,277.4,339.9,277.4z"/>
		<rect x="254.6" y="48.5" class="st15" width="103.1" height="203.3"/>
		<rect x="254.6" y="47.4" class="st11" width="103.1" height="22.5"/>
		<g>
			<path class="st16" d="M310.2,30.4c0,1.1,0.8,1.8,1.8,1.6c1,0,1.7-0.9,1.5-2c0-0.9-0.8-1.6-1.7-1.6S310.2,29.3,310.2,30.4
				C310.2,30.2,310.2,30.4,310.2,30.4z"/>
			<path class="st16" d="M291.2,28.4h15c1,0.2,1.7,1.1,1.7,2.2c0,0.9-0.8,1.6-1.7,1.8h-15c-1-0.2-1.7-1.1-1.7-2.2
				C289.7,29.3,290.3,28.6,291.2,28.4z"/>
		</g>
		<g>
			<path class="st15" d="M294.2,63c-0.5-0.4-1-0.9-1.2-1.6c-0.5-1.6-0.5-3.4,0-4.9c0.3-0.7,0.7-1.3,1.2-1.6c0.5-0.4,1.2-0.5,1.7-0.5
				c0.7,0,1.2,0.2,1.7,0.5c0.5,0.4,1,0.9,1.2,1.6c0.5,1.6,0.5,3.4,0,4.9c-0.3,0.7-0.7,1.3-1.2,1.6c-0.5,0.4-1.2,0.5-1.7,0.5
				C295.3,63.6,294.7,63.4,294.2,63z M297.2,61.2c0.3-0.7,0.5-1.5,0.5-2.2s-0.2-1.5-0.5-2.2s-1.2-0.9-1.8-0.5
				c-0.2,0.2-0.3,0.4-0.5,0.5c-0.3,0.7-0.5,1.5-0.5,2.2s0.2,1.5,0.5,2.2s1.2,0.9,1.8,0.5C296.8,61.6,297,61.4,297.2,61.2z"/>
			<path class="st15" d="M306.7,59.6c0.2,0.4,0.3,0.7,0.3,1.3c0,0.5-0.2,1.1-0.5,1.5s-0.7,0.7-1.2,0.9s-1.2,0.4-1.7,0.4
				c-0.7,0-1.2-0.2-1.7-0.4s-0.8-0.5-1.2-0.9c-0.3-0.4-0.5-0.9-0.5-1.5c0-0.4,0.2-0.9,0.3-1.3c0.2-0.4,0.5-0.7,0.8-0.9
				c-0.3-0.2-0.5-0.5-0.7-0.7c-0.2-0.4-0.2-0.7-0.2-1.1c0-0.5,0.2-0.9,0.3-1.5c0.3-0.4,0.7-0.7,1-0.9c1-0.4,2.2-0.4,3.2,0
				c0.5,0.2,0.8,0.5,1,0.9c0.3,0.4,0.3,0.9,0.3,1.5c0,0.4,0,0.7-0.2,1.1s-0.3,0.5-0.7,0.7C306.2,58.9,306.5,59.2,306.7,59.6z
				 M304.7,61.6c0.3-0.2,0.3-0.5,0.3-0.9s-0.2-0.7-0.3-0.9c-0.3-0.2-0.7-0.4-1.2-0.4c-0.3,0-0.8,0.2-1,0.4c-0.3,0.2-0.3,0.5-0.3,0.9
				s0.2,0.7,0.3,0.9c0.3,0.2,0.7,0.4,1,0.4C304,61.9,304.3,61.8,304.7,61.6z M302.7,56.1c-0.2,0.2-0.3,0.5-0.3,0.9s0.2,0.5,0.3,0.7
				c0.3,0.2,0.5,0.4,0.8,0.4s0.7,0,0.8-0.4c0.2-0.2,0.3-0.5,0.3-0.7c0-0.4-0.2-0.5-0.3-0.9c-0.3-0.2-0.7-0.4-0.8-0.4
				C303.2,55.8,302.8,56,302.7,56.1z"/>
			<path class="st15" d="M308,58.5c-0.5-0.5-0.5-1.3,0-1.6c0.2-0.2,0.5-0.4,0.8-0.4s0.5,0.2,0.8,0.4c0.5,0.5,0.5,1.3,0,1.8
				c-0.2,0.2-0.5,0.4-0.8,0.4C308.5,58.9,308.2,58.9,308,58.5z M308,63c-0.2-0.2-0.3-0.5-0.3-0.9s0.2-0.7,0.3-0.9s0.5-0.4,0.8-0.4
				c0.7,0,1.2,0.5,1.2,1.1l0,0c0,0.4-0.2,0.7-0.3,0.9c-0.2,0.2-0.5,0.4-0.8,0.4C308.5,63.4,308.2,63.4,308,63z"/>
			<path class="st15" d="M313.9,54.5v8.9H312v-7.3h-1.7v-1.6C310.3,54.5,313.9,54.5,313.9,54.5z"/>
			<path class="st15" d="M321.5,59.6c0.2,0.4,0.3,0.7,0.3,1.3c0,0.5-0.2,1.1-0.5,1.5s-0.7,0.7-1.2,0.9c-1.2,0.4-2.3,0.4-3.5,0
				c-0.5-0.2-0.8-0.5-1.2-0.9c-0.5-0.7-0.5-1.8-0.2-2.7c0.2-0.4,0.5-0.7,0.8-0.9c-0.3-0.2-0.5-0.5-0.7-0.7c-0.2-0.4-0.2-0.7-0.2-1.1
				c0-0.5,0.2-0.9,0.3-1.5c0.3-0.4,0.7-0.7,1-0.9c0.5-0.2,1.2-0.4,1.7-0.4s1.2,0,1.7,0.4c0.5,0.2,0.8,0.5,1,0.9
				c0.3,0.4,0.3,0.9,0.3,1.5c0,0.4,0,0.7-0.2,1.1s-0.3,0.5-0.7,0.7C321,58.9,321.4,59.2,321.5,59.6z M319.5,61.6
				c0.3-0.2,0.3-0.5,0.3-0.9s-0.2-0.7-0.3-0.9c-0.3-0.2-0.7-0.4-1.2-0.4c-0.3,0-0.8,0.2-1,0.4c-0.3,0.2-0.3,0.5-0.3,0.9
				s0.2,0.7,0.3,0.9c0.3,0.2,0.7,0.4,1,0.4C318.9,61.9,319.2,61.8,319.5,61.6z M317.5,56.1c-0.2,0.2-0.3,0.5-0.3,0.9
				s0.2,0.5,0.3,0.7c0.2,0.2,0.5,0.2,0.8,0.2s0.7,0,0.8-0.4c0.2-0.2,0.3-0.5,0.3-0.7c0-0.4-0.2-0.5-0.3-0.9
				c-0.3-0.2-0.5-0.4-0.8-0.4C318,55.8,317.7,56,317.5,56.1z"/>
		</g>
		<g>
			<g>
				<path class="st17" d="M338.2,55.4h1.3c0.3,0,0.5,0.2,0.5,0.5V61c0,0.4-0.2,0.5-0.5,0.5h-1.3c-0.3,0-0.5-0.2-0.5-0.5v-5
					C337.7,55.6,337.9,55.4,338.2,55.4z"/>
				<path class="st17" d="M341.7,55.4h1.3c0.3,0,0.5,0.2,0.5,0.5V61c0,0.4-0.2,0.5-0.5,0.5h-1.3c-0.3,0-0.5-0.2-0.5-0.5v-5
					C341.2,55.6,341.4,55.4,341.7,55.4z"/>
				<path class="st17" d="M345.2,55.4h1.3c0.3,0,0.5,0.2,0.5,0.5V61c0,0.4-0.2,0.5-0.5,0.5h-1.3c-0.3,0-0.5-0.2-0.5-0.5v-5
					C344.7,55.6,344.9,55.4,345.2,55.4z"/>
				<path class="st17" d="M348.7,55.4h1.3c0.3,0,0.5,0.2,0.5,0.5V61c0,0.4-0.2,0.5-0.5,0.5h-1.3c-0.3,0-0.5-0.2-0.5-0.5v-5
					C348.2,55.6,348.4,55.4,348.7,55.4z"/>
			</g>
			<path class="st17" d="M350.7,62.9h-13.2c-0.5,0-1-0.5-1-1.1l0,0v-6.3c0-0.5,0.5-1.1,1-1.1l0,0h13.2c0.5,0,1,0.5,1,1.1l0,0v6.2
				C351.9,62.1,351.4,62.7,350.7,62.9C350.9,62.9,350.7,62.9,350.7,62.9z M337.5,54.7c-0.3,0-0.5,0.4-0.5,0.5l0,0v6.3
				c0,0.4,0.2,0.7,0.5,0.7l0,0h13.2c0.3,0,0.7-0.4,0.7-0.7v-6.3c0-0.4-0.3-0.7-0.7-0.7l0,0L337.5,54.7z"/>
			<path class="st17" d="M352.1,57.1L352.1,57.1c0.3,0,0.5,0.2,0.5,0.5v2c0,0.2-0.2,0.5-0.5,0.5h-0.2c-0.2,0-0.5-0.2-0.5-0.5v-2
				C351.6,57.4,351.7,57.1,352.1,57.1z"/>
		</g>
		<g>
			<path class="st15" d="M259.4,63.2c-0.2,0-0.5-0.2-0.7-0.4l0.2-0.4c0.2,0.2,0.3,0.4,0.7,0.4c0.2,0.2,0.5,0.2,0.8,0.2
				s0.7,0,0.8-0.2s0.3-0.4,0.3-0.5c0-0.2,0-0.4-0.2-0.5s-0.2-0.2-0.3-0.2l-0.7-0.2c-0.3,0-0.5-0.2-0.8-0.2c-0.2,0-0.3-0.2-0.5-0.4
				s-0.2-0.4-0.2-0.7c0-0.2,0-0.4,0.2-0.7c0.2-0.2,0.3-0.4,0.5-0.5c0.3-0.2,0.5-0.2,0.8-0.2c0.2,0,0.5,0,0.7,0.2
				c0.2,0,0.3,0.2,0.7,0.4l-0.2,0.4c-0.2-0.2-0.3-0.2-0.5-0.4c-0.2,0-0.3-0.2-0.7,0c-0.3,0-0.5,0-0.8,0.2c-0.2,0.2-0.3,0.4-0.3,0.5
				s0,0.4,0.2,0.5c0.2,0.2,0.2,0.2,0.3,0.2l0.7,0.2c0.2,0,0.5,0.2,0.7,0.2s0.3,0.2,0.5,0.4s0.2,0.4,0.2,0.7c0,0.2,0,0.5-0.2,0.7
				s-0.3,0.4-0.5,0.5c-0.3,0.2-0.5,0.2-0.8,0.2C260.1,63.4,259.8,63.4,259.4,63.2z"/>
			<path class="st15" d="M265.6,59.8v3.6h-0.3v-0.7c-0.2,0.2-0.3,0.4-0.5,0.5c-0.2,0.2-0.5,0.2-0.7,0.2c-0.3,0-0.7-0.2-1-0.4
				c-0.2-0.4-0.3-0.7-0.3-1.1v-2.2h0.5v2c0,0.4,0,0.5,0.2,0.9c0.2,0.2,0.5,0.4,0.7,0.2c0.3,0,0.5-0.2,0.8-0.4
				c0.2-0.2,0.3-0.5,0.3-0.9v-1.8h0.3V59.8z"/>
			<path class="st15" d="M269.3,60.3c0.2,0.4,0.3,0.7,0.3,1.1v2h-0.5v-2c0-0.4,0-0.5-0.2-0.9c-0.2-0.2-0.5-0.4-0.7-0.4
				c-0.3,0-0.7,0.2-0.8,0.4c-0.2,0.2-0.3,0.5-0.3,0.9v1.8h-0.5v-3.4h0.3v0.7c0.2-0.2,0.3-0.4,0.5-0.5c0.2-0.2,0.5-0.2,0.7-0.2
				C268.6,59.8,269,60,269.3,60.3z"/>
			<path class="st15" d="M272.8,63c-0.3-0.2-0.5-0.5-0.7-0.9s-0.2-0.9-0.2-1.3s0-0.9,0.2-1.3c0.2-0.4,0.3-0.5,0.7-0.9
				c0.5-0.4,1.2-0.4,1.7,0c0.3,0.2,0.5,0.5,0.7,0.9s0.2,0.9,0.2,1.3s0,0.9-0.2,1.3c-0.2,0.4-0.3,0.5-0.7,0.9
				C274,63.4,273.3,63.4,272.8,63z M274.3,62.7c0.2-0.2,0.3-0.4,0.5-0.7c0.2-0.4,0.2-0.7,0.2-1.1s0-0.7-0.2-1.1
				c-0.2-0.2-0.2-0.5-0.5-0.7c-0.2-0.2-0.3-0.2-0.7-0.2c-0.2,0-0.5,0-0.7,0.2s-0.3,0.4-0.5,0.7c-0.2,0.4-0.2,0.7-0.2,1.1
				s0,0.7,0.2,1.1c0.2,0.2,0.2,0.5,0.5,0.7c0.2,0.2,0.3,0.2,0.7,0.2C274,63,274.1,62.9,274.3,62.7L274.3,62.7z"/>
			<path class="st15" d="M278.8,58.7V59l-1.7,4.4h-0.5l1.7-4.2h-2.2v0.9h-0.5v-1.3h3.2V58.7z"/>
		</g>
		<g class="st18">
			<g>
				<path class="st19" d="M269.1,180c-0.5-0.2-1-0.4-1.5-0.7l0.7-1.6c0.3,0.4,0.8,0.5,1.3,0.7s1,0.2,1.5,0.4c0.3,0,0.8,0,1.2-0.4
					c0.2-0.2,0.3-0.4,0.3-0.7c0-0.2-0.2-0.4-0.2-0.5c-0.2-0.2-0.3-0.4-0.7-0.4c-0.2,0-0.5-0.2-1-0.4s-1-0.4-1.5-0.5
					c-0.3-0.2-0.7-0.5-1-0.9s-0.5-0.9-0.5-1.5s0.2-1.1,0.3-1.5c0.3-0.5,0.7-0.9,1.2-1.1c0.7-0.4,1.3-0.4,1.8-0.4s1,0,1.5,0.2
					s0.8,0.4,1.3,0.5l-0.7,1.6c-0.7-0.5-1.5-0.7-2.3-0.7c-0.3,0-0.8,0-1.2,0.4c-0.2,0.2-0.3,0.5-0.3,0.7c0,0.4,0.2,0.5,0.5,0.7
					c0.5,0.2,0.8,0.4,1.3,0.5c0.5,0.2,1,0.4,1.5,0.5c0.3,0.2,0.7,0.5,1,0.7c0.3,0.4,0.5,0.9,0.5,1.5s-0.2,1.1-0.3,1.5
					c-0.3,0.5-0.7,0.9-1.2,1.1c-0.7,0.4-1.3,0.4-1.8,0.4C270.3,180.4,269.8,180.4,269.1,180z"/>
				<path class="st19" d="M279.8,179.8c-0.2,0.2-0.5,0.4-0.7,0.4c-0.3,0-0.5,0.2-0.8,0.2c-0.7,0-1.2-0.2-1.7-0.7s-0.7-1.3-0.7-2
					v-3.1h-1V173h1v-1.8h1.8v1.8h1.5v1.6h-1.5v3.1c0,0.2,0,0.5,0.2,0.7s0.3,0.2,0.7,0.2c0.3,0,0.5,0,0.7-0.4L279.8,179.8z"/>
				<path class="st19" d="M286.8,177.1H282c0,0.4,0.3,0.9,0.7,1.1c0.3,0.4,0.8,0.4,1.2,0.4c0.3,0,0.7,0,0.8-0.2
					c0.3-0.2,0.5-0.4,0.7-0.5l1,1.3c-0.7,0.9-1.7,1.3-2.7,1.3c-0.7,0-1.3-0.2-1.8-0.5c-0.5-0.4-1-0.7-1.3-1.3c-0.5-1.3-0.5-2.7,0-4
					c0.7-1.1,1.7-1.8,3-1.8c0.7,0,1.2,0.2,1.7,0.5c0.5,0.4,0.8,0.7,1.2,1.3c0.3,0.5,0.5,1.3,0.5,2
					C286.8,176.6,286.8,176.8,286.8,177.1z M282.5,174.8c-0.3,0.4-0.5,0.7-0.5,1.1h3.2c0-0.4-0.2-0.7-0.5-1.1
					C284,174.2,283.1,174.2,282.5,174.8z"/>
				<path class="st19" d="M293.3,173.3c0.5,0.4,0.8,0.7,1.2,1.3c0.3,0.5,0.3,1.3,0.3,2s-0.2,1.5-0.3,2c-0.5,1.1-1.5,1.8-2.7,1.8
					c-0.7,0-1.5-0.4-1.8-0.9v3.4h-1.8v-10h1.7v0.9c0.5-0.7,1.2-1.1,2-0.9C292.3,172.8,292.8,172.9,293.3,173.3z M292.5,178
					c0.3-0.4,0.5-0.9,0.5-1.5c0-0.5-0.2-1.1-0.5-1.5s-0.7-0.5-1.2-0.5s-0.8,0.2-1.2,0.5c-0.3,0.4-0.5,0.9-0.5,1.5
					c0,0.5,0.2,1.1,0.5,1.5s0.7,0.5,1.2,0.5C291.8,178.6,292.3,178.4,292.5,178L292.5,178z"/>
				<path class="st19" d="M296.7,180.2c-0.5-0.2-0.8-0.4-1.2-0.5l0.7-1.5c0.3,0.2,0.7,0.4,1,0.5c0.3,0.2,0.8,0.2,1.2,0.2
					c0.8,0,1.2-0.2,1.2-0.7c0-0.2-0.2-0.4-0.3-0.5c-0.3-0.2-0.7-0.2-1-0.2c-0.5,0-0.8-0.2-1.3-0.4c-0.3-0.2-0.7-0.4-0.8-0.5
					c-0.3-0.4-0.3-0.9-0.3-1.3c0-0.4,0.2-0.9,0.3-1.3c0.3-0.4,0.7-0.7,1-0.9c0.5-0.2,1-0.4,1.5-0.4s0.8,0,1.3,0.2
					c0.3,0,0.8,0.2,1.2,0.5l-0.7,1.5c-0.5-0.4-1.2-0.5-1.8-0.5c-0.3,0-0.7,0-0.8,0.2c-0.2,0-0.3,0.4-0.3,0.5c0,0.2,0.2,0.4,0.3,0.5
					c0.3,0.2,0.7,0.2,1,0.2c0.5,0.2,1,0.2,1.3,0.4s0.7,0.4,0.8,0.5c0.3,0.4,0.3,0.7,0.3,1.3c0,0.4-0.2,0.9-0.3,1.3
					c-0.3,0.4-0.7,0.7-1,0.7c-0.5,0.2-1.2,0.4-1.7,0.4C297.7,180.4,297.2,180.2,296.7,180.2z"/>
			</g>
			<g>
				<path class="st19" d="M274.3,186.7v1.5l-3,8.2h-2l3-7.8h-2.7v1.5H268v-3.3L274.3,186.7L274.3,186.7z"/>
				<path class="st19" d="M276.5,194.2c0.2,0.2,0.3,0.5,0.3,0.9c0,0.2,0,0.4,0,0.5c0,0.2-0.2,0.5-0.3,0.7l-0.7,2h-1.2l0.5-2.2
					c-0.2,0-0.3-0.2-0.5-0.5c-0.2-0.2-0.2-0.5-0.2-0.7c0-0.4,0.2-0.7,0.3-0.9s0.5-0.4,0.8-0.4C276,193.8,276.3,194,276.5,194.2z"/>
				<path class="st19" d="M279.1,196c-0.5-0.4-1-1.1-1.3-1.6c-0.3-0.9-0.5-1.8-0.5-2.7s0.2-1.8,0.5-2.7c0.3-0.7,0.7-1.3,1.3-1.6
					c1.2-0.7,2.5-0.7,3.7,0c0.5,0.4,1,1.1,1.3,1.6c0.3,0.9,0.5,1.8,0.5,2.7s-0.2,1.8-0.5,2.7c-0.3,0.7-0.7,1.3-1.3,1.6
					C281.6,196.7,280.3,196.7,279.1,196z M282.1,193.8c0.3-0.7,0.5-1.5,0.5-2.4c0-0.7-0.2-1.6-0.5-2.4c-0.2-0.5-0.7-0.7-1.2-0.7
					s-1,0.4-1.2,0.7c-0.5,1.5-0.5,3.1,0,4.7c0.2,0.5,0.7,0.7,1.2,0.7C281.5,194.7,282,194.3,282.1,193.8L282.1,193.8z"/>
				<path class="st19" d="M287.1,196c-0.5-0.4-1-1.1-1.3-1.6c-0.3-0.9-0.5-1.8-0.5-2.7s0.2-1.8,0.5-2.7c0.3-0.7,0.7-1.3,1.3-1.6
					c1.2-0.7,2.5-0.7,3.7,0c0.5,0.4,1,1.1,1.3,1.6c0.3,0.9,0.5,1.8,0.5,2.7s-0.2,1.8-0.5,2.7c-0.3,0.7-0.7,1.3-1.3,1.6
					C289.7,196.7,288.3,196.7,287.1,196z M290.2,193.8c0.3-0.7,0.5-1.5,0.5-2.4c0-0.7-0.2-1.6-0.5-2.4c-0.3-0.7-1.2-0.9-1.8-0.5
					c-0.2,0.2-0.5,0.4-0.5,0.5c-0.5,1.5-0.5,3.1,0,4.7c0.3,0.7,1.2,0.9,1.8,0.5C289.8,194.3,290,194.2,290.2,193.8z"/>
				<path class="st19" d="M295.2,196c-0.5-0.4-1-1.1-1.3-1.6c-0.3-0.9-0.5-1.8-0.5-2.7s0.2-1.8,0.5-2.7c0.3-0.7,0.7-1.3,1.3-1.6
					c1.2-0.7,2.5-0.7,3.7,0c0.5,0.4,1,1.1,1.3,1.6c0.3,0.9,0.5,1.8,0.5,2.7s-0.2,1.8-0.5,2.7c-0.3,0.7-0.7,1.3-1.3,1.6
					C297.7,196.7,296.2,196.7,295.2,196z M298.2,193.8c0.3-0.7,0.5-1.5,0.5-2.4c0-0.7-0.2-1.6-0.5-2.4c-0.3-0.7-1.2-0.9-1.8-0.5
					c-0.2,0.2-0.5,0.4-0.5,0.5c-0.5,1.5-0.5,3.1,0,4.7c0.3,0.7,1.2,0.9,1.8,0.5C297.8,194.3,298,194.2,298.2,193.8z"/>
			</g>
		</g>
		<g class="st18">
			<g>
				<path class="st19" d="M271.3,215.2l-1.2,1.3v2.4h-1.8v-9.6h1.8v4.5l3.7-4.5h2.2l-3.3,4.4l3.7,5.3h-2.2L271.3,215.2z"/>
				<path class="st19" d="M278,218.5c-0.5-0.4-1-0.7-1.3-1.3c-0.3-0.5-0.5-1.3-0.5-2s0.2-1.3,0.5-2c0.3-0.5,0.7-1.1,1.3-1.5
					c0.5-0.4,1.2-0.5,1.8-0.5c0.7,0,1.2,0.2,1.7,0.5c0.5,0.4,0.8,0.7,1,1.5l-1.5,0.9c-0.2-0.5-0.8-1.1-1.5-1.1
					c-0.5,0-0.8,0.2-1.2,0.5c-0.3,0.4-0.5,0.9-0.5,1.5s0.2,1.1,0.5,1.5s0.7,0.5,1.2,0.5c0.7,0,1.2-0.4,1.5-1.1l1.5,0.9
					c-0.2,0.5-0.7,1.1-1,1.5c-0.5,0.4-1,0.5-1.7,0.5C279.1,219,278.5,218.8,278,218.5z"/>
				<path class="st19" d="M288.5,212.3c0.5,0.7,0.8,1.6,0.8,2.5v4.2h-1.7v-0.9c-0.3,0.7-1.2,1.1-1.8,1.1c-0.5,0-0.8,0-1.3-0.4
					c-0.3-0.2-0.7-0.4-0.8-0.7c-0.2-0.4-0.3-0.7-0.3-1.1c0-0.5,0.2-1.3,0.7-1.6c0.7-0.4,1.3-0.5,2-0.5h1.5c0-0.4-0.2-0.7-0.3-1.1
					c-0.3-0.4-0.7-0.4-1-0.4s-0.7,0-1,0.2s-0.5,0.4-0.8,0.5l-0.7-1.5c0.3-0.4,0.8-0.5,1.3-0.7s1-0.2,1.5-0.2
					C287,211.4,287.8,211.6,288.5,212.3z M286.8,217.4c0.3-0.2,0.5-0.4,0.5-0.7v-0.9H286c-0.8,0-1.2,0.4-1.2,0.9
					c0,0.2,0.2,0.5,0.3,0.7c0.2,0.2,0.5,0.2,0.8,0.2C286.3,217.6,286.6,217.4,286.8,217.4z"/>
				<path class="st19" d="M290.8,208.7h1.8v10.2h-1.8V208.7z"/>
			</g>
			<g>
				<path class="st19" d="M274.3,225.4v1.5l-3,8.2h-2l3-7.8h-2.7v1.6H268v-3.4h6.3V225.4z"/>
				<path class="st19" d="M278.5,225.4v9.6h-1.8v-7.8H275v-1.8H278.5z"/>
				<path class="st19" d="M285.3,230.3c0.3,0.5,0.7,1.1,0.7,1.8c0,1.1-0.7,2.2-1.5,2.7c-0.7,0.4-1.2,0.4-1.8,0.4
					c-0.5,0-1.2-0.2-1.7-0.4s-1-0.4-1.5-0.7l0.8-1.6c0.3,0.4,0.7,0.5,1,0.5c0.3,0.2,0.8,0.2,1.3,0.2c0.3,0,0.8,0,1.2-0.4
					c0.3-0.2,0.5-0.5,0.5-0.9c0-0.7-0.5-1.3-1.5-1.3h-1.2v-1.5l1.7-2.2h-3.5v-1.8h5.8v1.5l-1.8,2.4
					C284.3,229.3,285,229.7,285.3,230.3z"/>
			</g>
		</g>
	</g>
	<g>
		<path class="st20" d="M384.8,76.5h2.3c2.2,0,3.8,1.8,3.8,4.2V84c0,2.4-1.7,4.2-3.8,4.2h-2.3c-2.2,0-3.8-1.8-3.8-4.2v-3.3
			C380.9,78.5,382.6,76.5,384.8,76.5z"/>
		<path class="st21" d="M384.8,96.8h2.3c2.2,0,3.8,1.8,3.8,4.2v3.3c0,2.4-1.7,4.2-3.8,4.2h-2.3c-2.2,0-3.8-1.8-3.8-4.2V101
			C380.9,98.6,382.6,96.8,384.8,96.8z"/>
		<path class="st22" d="M384.8,117.1h2.3c2.2,0,3.8,1.8,3.8,4.2v3.3c0,2.4-1.7,4.2-3.8,4.2h-2.3c-2.2,0-3.8-1.8-3.8-4.2v-3.3
			C380.9,118.9,382.6,117.1,384.8,117.1z"/>
		<g>
			<line class="st23" x1="397.5" y1="79.4" x2="427.8" y2="79.4"/>
			<line class="st23" x1="397.5" y1="85.3" x2="427.8" y2="85.3"/>
		</g>
		<g>
			<line class="st23" x1="397.5" y1="99.7" x2="427.8" y2="99.7"/>
			<line class="st23" x1="397.5" y1="105.5" x2="427.8" y2="105.5"/>
		</g>
		<g>
			<line class="st23" x1="397.5" y1="120" x2="427.8" y2="120"/>
			<line class="st23" x1="397.5" y1="125.8" x2="427.8" y2="125.8"/>
		</g>
	</g>
	<g>
		<g>
			<path class="st24" d="M191.4,110.4c2.5-1.8,4.8-4,6.8-6.3c3-3.3,5.7-6.7,8-10.5c2.5-4.5,3.8-11.4,2-16.1c-1.5-3.6-4.5-6.2-8-6.9
				c-3.3-0.4-7.8,0.7-11,6.7c-1.3-3.3-4-5.6-7.2-6.3c-5-0.4-9.5,3.1-11,8.2c-1.7,5.4,0.3,11.4,2.5,15.4c2.3,4.4,10.5,12.5,15.7,16
				C189.7,110.9,190.5,110.9,191.4,110.4z"/>
			<g class="st25">
				<path class="st26" d="M205.5,79.2h0.2c0.3-0.2,0.5-0.7,0.5-1.1c-0.3-1.1-1-2-1.7-2.9c-1.3-1.8-3.5-2.9-5.5-2.7
					c-0.3,0-0.7,0.4-0.7,0.9c0,0.4,0.3,0.7,0.7,0.7c4.2-0.2,5.8,4.5,5.8,4.7C204.9,79,205.2,79.4,205.5,79.2z"/>
			</g>
		</g>
		<polyline class="st27" points="194.9,98 214.2,98.2 217.1,85.9 221.4,105.1 226.9,66.8 233.7,95.1 237.9,86.8 246.1,98.9 
			251.6,72.6 256.8,97.3 263,84.8 268,96.2 272.8,71 280.6,98.8 300.2,98.8 		"/>
	</g>
	<g id="logo">
		<path class="st13" d="M388.6,235c-7.5-3.4-11.2-12.7-8-21c1.3-3.4,3.7-6.2,6.5-8c-8.2-0.5-15.2,6.2-15.7,15.1
			c-0.5,8.9,5.7,16.5,13.9,17c2.8,0.2,5.7-0.5,8-2C391.6,235.9,390.1,235.5,388.6,235z"/>
	</g>
	<g>
		<g id="O2_Ftt_Layer_5_Clipping_Path">
			<path class="st28" d="M306.8,142.8h3.8v-10.2h6.3v-4h-6.3v-4.2h6.3v-4.2h-10.2L306.8,142.8z M337,120.2h-3.8v6.2h-2v3.6h2v13h3.8
				v-13h2.3v-3.6H337V120.2z"/>
		</g>
		<g id="Shape_2">
			<path class="st29" d="M337,119.1c-0.8-2-2.3-3.6-4-4.9c-0.7-0.4-1.3,0.2-1.8,0.4c-0.3,0.2-0.5,0.5-0.3,0.9c0,0,0.2,0.4,0.3,0.9
				c0.5,0.9,1.2,0.4,1.7,0.2c0.3-0.2,0.5-0.5,0.3-0.9c0-0.2,0-0.4,0.2,0c0.7,0.9,1.2,1.8,1.5,2.9c0.5,1.3-0.2,1.8-1.5,1.5
				c-1-0.4-2,0-2.8,0.5c-0.5,0.5-1,0.7-1.7,0.7c-1.3,0-1.8,0.2-3.3,2.5c-1.8,3.3-2.5,7.1-1.8,10.9c1,4,6.3,9.6,8.3,13.2
				c1.5,2.7,2.3,5.6,2.5,8.7c0.8-7.8-4.2-14.3-7-20.1c-1.8-3.4-1.5-7.8,0.7-10.9c0.5-1.3,1.7-2,2.8-1.8c1.2,0,2.2-0.4,3-1.3
				c0.7-0.4,1.5-0.7,2.2-0.7c0.8-0.2,1.3-1.1,1.2-1.8C337.2,119.4,337.2,119.3,337,119.1z"/>
		</g>
		<g id="Shape_3">
			<path class="st30" d="M322.5,129.4c1.5-6.2,1.8-7.3,0.7-8s-3.8,0.5-5.2,5.8c0,0,2.8-4.7,4.2-4.4c1.3,0.4-0.5,4.5-1.5,7.6
				c-1,3.1-1.8,6.3,2.2,10.9c2.2,2.4,4.7,3.4,7,5.4C327.2,143.4,319.9,138.5,322.5,129.4z"/>
		</g>
		<g id="Ellipse_2">
			<ellipse class="st28" cx="325.7" cy="115.3" rx="3.3" ry="3.6"/>
		</g>
		<path class="st31" d="M284.8,150.3c-9,0-16.4-8-16.4-17.8s7.3-17.8,16.4-17.8c3.8,0,7.5,1.5,10.5,4.2c0.7,0,1.5,0,2.2,0
			c0.5,0,1,0.2,1.5,0.4c-6.8-8.5-18.7-9.4-26.5-2.2c-7.8,7.3-8.7,20.3-2,28.8c6.8,8.5,18.7,9.4,26.5,2.2c1.5-1.5,2.8-3.1,3.8-4.9h-3
			C294.8,147.6,290,150.3,284.8,150.3z"/>
		<g>
			<path class="st32" d="M289.2,143.4c0,0,0-0.5,0-0.7V139c0-0.2,0.2-0.5,0.3-0.7l1.7-1.8l1-1.1c0.5-0.5,1-1.1,1.7-1.6
				c0.8-0.9,1.8-1.8,2.7-2.7c0.5-0.5,1-1.1,1.5-1.6s0.8-1.3,1.2-2c0.2-0.5,0.3-1.3,0.2-2c0-0.5-0.3-1.1-0.7-1.5l-0.3-0.4
				c-0.5-0.4-1-0.7-1.7-0.7l0,0c-0.5,0-1,0-1.5,0.4s-1,0.9-1.2,1.6s-0.3,1.3-0.3,2v0.7H289v-1.1c0-0.5,0-0.9,0.2-1.5
				c0.2-0.5,0.3-1.3,0.5-1.8c0.7-1.8,1.8-3.3,3.3-4.2c0.7-0.4,1.3-0.7,2.2-0.9c0.5,0,0.8,0,1.3,0h1c0.5,0,1.2,0.2,1.7,0.4h0.3
				c0.7,0.2,1.3,0.7,2,1.3c0.3,0.4,0.7,0.5,0.8,0.9c0.2,0.2,0.2,0.4,0.3,0.4c0.5,0.5,0.7,1.1,1,1.8c0.3,0.7,0.5,1.6,0.5,2.4v0.5
				c0,0.4,0,0.7,0,0.9c0,0.9-0.2,1.6-0.5,2.5c-0.2,0.4-0.2,0.5-0.3,0.9c-0.3,0.7-0.8,1.5-1.2,2c-0.2,0.4-0.5,0.5-0.8,0.9l-2,2.2
				l-0.8,0.7c0,0-2.2,2-2.3,2.2h8v4.7h-14.9v0.6H289.2z"/>
			<path class="st17" d="M297.5,118.7c0.5,0,1,0.2,1.5,0.4h0.3c0.7,0.2,1.3,0.5,1.8,1.1c0.3,0.4,0.8,0.9,1.2,1.3
				c0.3,0.5,0.7,1.1,0.8,1.6c0.3,0.7,0.5,1.5,0.5,2.4c0,0.5,0.2,1.1,0.2,1.5c0,0.7-0.2,1.6-0.3,2.4c-0.2,0.4-0.2,0.5-0.3,0.7
				c-0.3,0.7-0.7,1.3-1.2,2c-0.2,0.4-0.5,0.5-0.7,0.9l-1,1.1l-1.2,1.3l-0.7,0.7l-1,0.9c-0.7,0.5-1.2,1.1-1.8,1.6
				c-0.2,0.2-0.2,0.2-0.2,0.4h8.5v4h-14.2v-0.2c0-1.3,0-2.4,0-3.6c0-0.2,0-0.2,0.2-0.4l2.2-2.2c0.7-0.7,1.5-1.5,2.2-2.2
				s1.8-1.8,2.7-2.7c0.5-0.5,1-1.1,1.5-1.8c0.5-0.5,1-1.3,1.3-2.2c0.3-0.7,0.3-1.5,0.2-2.2v-0.2c-0.2-0.5-0.3-1.1-0.7-1.5
				c-0.2-0.2-0.2-0.2-0.3-0.4c-0.5-0.5-1.3-0.7-2-0.9h-0.3c-0.5,0-1.2,0.2-1.7,0.4c-0.7,0.4-1.2,1.1-1.3,1.8
				c-0.2,0.7-0.3,1.6-0.3,2.4h-4c0-0.5,0-1.3,0.2-1.8s0.2-1.3,0.5-1.8c0.5-1.6,1.7-3.1,3-4c0.7-0.4,1.3-0.7,2.2-0.9l0,0
				c0.3,0,0.8,0,1.2,0L297.5,118.7 M297.5,117.8h-1c-0.5,0-0.8,0-1.3,0l0,0c-0.8,0.2-1.7,0.5-2.5,0.9c-1.7,1.1-2.8,2.5-3.5,4.5
				c-0.2,0.5-0.3,1.3-0.5,1.8c0,0.5-0.2,0.9-0.2,1.5s0,0.4,0,0.5v0.9h5.7V127v-0.4c0-0.5,0.2-1.3,0.3-1.8s0.5-1.1,1-1.3
				c0.3-0.2,0.8-0.4,1.2-0.4h0.2c0.5,0,1,0.2,1.5,0.5l0.2,0.2c0.2,0.4,0.3,0.7,0.5,1.1h0.8l-0.8,0.2c0.2,0.5,0,1.3-0.2,1.8
				c-0.3,0.7-0.7,1.3-1.2,1.8s-1,1.1-1.5,1.6c-0.8,0.9-1.7,1.8-2.7,2.7l-1.5,1.6l-0.7,0.5l-0.5,0.5l-1.7,1.6
				c-0.3,0.2-0.5,0.5-0.5,1.1c0,0.7,0,1.6,0,2.4v1.5v0.9h0.8h15v-5.8h-7.2l0.5-0.5l1-0.9l0.8-0.7l1-1.1c0.2-0.2,0.3-0.4,0.5-0.5
				l0.5-0.5c0.3-0.4,0.5-0.5,0.8-0.9c0.5-0.7,0.8-1.3,1.3-2c0.2-0.4,0.3-0.5,0.5-0.9c0.3-0.9,0.5-1.8,0.5-2.7c0-0.4,0-0.7,0-1.1V125
				c0-0.9-0.3-1.8-0.5-2.5s-0.7-1.3-1-1.8c-0.2-0.2-0.2-0.4-0.3-0.4c-0.3-0.4-0.5-0.7-1-1.1c-0.7-0.5-1.3-0.9-2.2-1.3l-0.3-0.2
				C298.8,118,298.2,117.8,297.5,117.8L297.5,117.8z"/>
		</g>
	</g>
</g>
<path class="st33" d="M314.6,270.8h-17c-2.6,0-4.8-2.1-4.8-4.8l0,0c0-2.6,2.1-4.8,4.8-4.8h17c2.6,0,4.8,2.1,4.8,4.8l0,0
	C319.4,268.6,317.3,270.8,314.6,270.8z"/>
</svg>
