<svg xmlns="http://www.w3.org/2000/svg" width="20.967" height="28" viewBox="0 0 20.967 28">
  <path id="ic_directions_run_24px" d="M16.695,6.689a2.6,2.6,0,1,0-2.6-2.6A2.612,2.612,0,0,0,16.695,6.689Zm-4.688,18.1,1.3-5.73,2.735,2.6V29.48h2.6V19.713l-2.735-2.6.781-3.907a9.536,9.536,0,0,0,7.163,3.256v-2.6a6.406,6.406,0,0,1-5.6-3.126l-1.3-2.084a2.686,2.686,0,0,0-2.214-1.3c-.391,0-.651.13-1.042.13L6.927,10.336v6.121h2.6V12.029l2.344-.912L9.792,21.666l-6.381-1.3-.521,2.6Z" transform="translate(-2.89 -1.48)" fill="#18a2b5"/>
</svg>
