<svg xmlns="http://www.w3.org/2000/svg" width="20.002" height="20" viewBox="0 0 20.002 20">
  <g id="Group_3498" data-name="Group 3498" transform="translate(0 -0.019)">
    <path id="Path_7946" data-name="Path 7946" d="M282.911,9.3h-5.2a.36.36,0,0,1-.35-.277,4.186,4.186,0,0,0-3.105-3.094.36.36,0,0,1-.279-.35V.38a.361.361,0,0,1,.4-.358A10.029,10.029,0,0,1,283.269,8.9.361.361,0,0,1,282.911,9.3Z" transform="translate(-263.273 0)" fill="#ff7258"/>
    <path id="Path_7947" data-name="Path 7947" d="M273.976,116v-1.07a5.54,5.54,0,0,1,4.807,4.792H277.71a.36.36,0,0,1-.35-.277,4.186,4.186,0,0,0-3.105-3.094A.36.36,0,0,1,273.976,116Z" transform="translate(-263.273 -110.421)" fill="#f95d48"/>
    <path id="Path_7948" data-name="Path 7948" d="M352.719,272.576a9.929,9.929,0,0,1-2.154,5.221.361.361,0,0,1-.536.03l-2.912-2.912-.766-.766a.361.361,0,0,1-.051-.445,4.146,4.146,0,0,0,.513-1.247.36.36,0,0,1,.351-.28h5.2A.361.361,0,0,1,352.719,272.576Z" transform="translate(-332.72 -261.525)" fill="#ffdc65"/>
    <path id="Path_7949" data-name="Path 7949" d="M348.236,272.175a5.506,5.506,0,0,1-1.119,2.739l-.766-.766a.361.361,0,0,1-.051-.445,4.145,4.145,0,0,0,.513-1.247.36.36,0,0,1,.351-.28h1.072Z" transform="translate(-332.72 -261.524)" fill="#ffc846"/>
    <path id="Path_7950" data-name="Path 7950" d="M16.355,17.259a.361.361,0,0,1-.029.536A10.028,10.028,0,0,1,2.937,2.9,9.951,9.951,0,0,1,8.952.022a.361.361,0,0,1,.4.358v5.2a.361.361,0,0,1-.279.351,4.173,4.173,0,1,0,3.16,7.6.361.361,0,0,1,.447.05Z" transform="translate(0 0)" fill="#00abe0"/>
    <path id="Path_7951" data-name="Path 7951" d="M122.866,123.936l.768.768a5.538,5.538,0,1,1-4.1-9.845v1.073a.361.361,0,0,1-.279.351,4.173,4.173,0,1,0,3.16,7.6A.361.361,0,0,1,122.866,123.936Z" transform="translate(-110.187 -110.353)" fill="#099dd1"/>
  </g>
</svg>
