<svg xmlns="http://www.w3.org/2000/svg" width="121.377" height="72.397" viewBox="0 0 121.377 72.397">
  <g id="barcode_lost" transform="translate(15.5 -5.314)">
    <path id="Path_6677" data-name="Path 6677" d="M8.139,67.748V32.569a2.069,2.069,0,1,0-4.139,0V67.748a2.069,2.069,0,0,0,4.139,0Z" transform="translate(1.366 7.893)" fill="#e2e2e2"/>
    <path id="Path_6678" data-name="Path 6678" d="M58.139,67.748V32.569a2.069,2.069,0,1,0-4.139,0V67.748a2.069,2.069,0,0,0,4.139,0Z" transform="translate(47.738 7.893)" fill="#e2e2e2"/>
    <path id="Path_6679" data-name="Path 6679" d="M10.069,30.5A2.069,2.069,0,0,0,8,32.569V51.194a2.069,2.069,0,0,0,4.139,0V32.569A2.069,2.069,0,0,0,10.069,30.5Z" transform="translate(5.643 10.801)" fill="#e2e2e2"/>
    <path id="Path_6680" data-name="Path 6680" d="M13.069,30.5A2.069,2.069,0,0,0,11,32.569V51.194a2.069,2.069,0,0,0,4.139,0V32.569A2.069,2.069,0,0,0,13.069,30.5Z" transform="translate(7.506 10.801)" fill="#e2e2e2"/>
    <path id="Path_6681" data-name="Path 6681" d="M20.139,51.194V32.569a2.069,2.069,0,1,0-4.139,0V51.194a2.069,2.069,0,0,0,4.139,0Z" transform="translate(12.241 10.801)" fill="#e2e2e2"/>
    <path id="Path_6682" data-name="Path 6682" d="M23.139,51.194V32.569a2.069,2.069,0,1,0-4.139,0V51.194a2.069,2.069,0,0,0,4.139,0Z" transform="translate(15.082 10.801)" fill="#e2e2e2"/>
    <path id="Path_6683" data-name="Path 6683" d="M26.139,51.194V32.569a2.069,2.069,0,1,0-4.139,0V51.194a2.069,2.069,0,0,0,4.139,0Z" transform="translate(17.923 10.801)" fill="#e2e2e2"/>
    <path id="Path_6684" data-name="Path 6684" d="M32.139,51.194V32.569a2.069,2.069,0,1,0-4.139,0V51.194a2.069,2.069,0,0,0,4.139,0Z" transform="translate(23.605 10.801)" fill="#e2e2e2"/>
    <path id="Path_6685" data-name="Path 6685" d="M37.139,32.569a2.069,2.069,0,1,0-4.139,0V51.194a2.069,2.069,0,0,0,4.139,0Z" transform="translate(28.34 10.801)" fill="#e2e2e2"/>
    <path id="Path_6686" data-name="Path 6686" d="M40.139,32.569a2.069,2.069,0,1,0-4.139,0V51.194a2.069,2.069,0,0,0,4.139,0Z" transform="translate(31.181 10.801)" fill="#e2e2e2"/>
    <path id="Path_6687" data-name="Path 6687" d="M43.069,30.5A2.069,2.069,0,0,0,41,32.569V51.194a2.069,2.069,0,0,0,4.139,0V32.569A2.069,2.069,0,0,0,43.069,30.5Z" transform="translate(35.916 10.801)" fill="#e2e2e2"/>
    <path id="Path_6688" data-name="Path 6688" d="M46.069,30.5A2.069,2.069,0,0,0,44,32.569V51.194a2.069,2.069,0,1,0,4.139,0V32.569A2.069,2.069,0,0,0,46.069,30.5Z" transform="translate(38.757 10.801)" fill="#e2e2e2"/>
    <path id="Path_6689" data-name="Path 6689" d="M52.069,53.263a2.069,2.069,0,0,0,2.069-2.069V32.569a2.069,2.069,0,1,0-4.139,0V51.194A2.069,2.069,0,0,0,52.069,53.263Z" transform="translate(43.461 10.801)" fill="#e2e2e2"/>
    <path id="Path_6690" data-name="Path 6690" d="M4,12.569V41.54a2.069,2.069,0,1,0,4.139,0V12.569a2.069,2.069,0,0,0-4.139,0Z" transform="translate(1.366 -5.186)" fill="#e2e2e2"/>
    <path id="Path_6691" data-name="Path 6691" d="M58.139,41.54V12.569a2.069,2.069,0,0,0-4.139,0V41.54a2.069,2.069,0,1,0,4.139,0Z" transform="translate(47.738 -5.186)" fill="#e2e2e2"/>
    <path id="Path_6692" data-name="Path 6692" d="M8,41.54a2.069,2.069,0,1,0,4.139,0V12.569a2.069,2.069,0,0,0-4.139,0Z" transform="translate(5.643 -5.186)" fill="#e2e2e2"/>
    <path id="Path_6693" data-name="Path 6693" d="M13.069,43.61a2.069,2.069,0,0,0,2.069-2.069V12.569a2.069,2.069,0,0,0-4.139,0V41.54A2.069,2.069,0,0,0,13.069,43.61Z" transform="translate(7.506 -5.186)" fill="#e2e2e2"/>
    <path id="Path_6694" data-name="Path 6694" d="M18.069,43.61a2.069,2.069,0,0,0,2.069-2.069V12.569a2.069,2.069,0,0,0-4.139,0V41.54A2.069,2.069,0,0,0,18.069,43.61Z" transform="translate(12.241 -5.186)" fill="#e2e2e2"/>
    <path id="Path_6695" data-name="Path 6695" d="M21.069,43.61a2.069,2.069,0,0,0,2.069-2.069V12.569a2.069,2.069,0,0,0-4.139,0V41.54A2.069,2.069,0,0,0,21.069,43.61Z" transform="translate(15.082 -5.186)" fill="#e2e2e2"/>
    <path id="Path_6696" data-name="Path 6696" d="M24.069,43.61a2.069,2.069,0,0,0,2.069-2.069V12.569a2.069,2.069,0,0,0-4.139,0V41.54A2.069,2.069,0,0,0,24.069,43.61Z" transform="translate(17.923 -5.186)" fill="#e2e2e2"/>
    <path id="Path_6697" data-name="Path 6697" d="M30.069,43.61a2.069,2.069,0,0,0,2.069-2.069V12.569a2.069,2.069,0,0,0-4.139,0V41.54A2.069,2.069,0,0,0,30.069,43.61Z" transform="translate(23.605 -5.186)" fill="#e2e2e2"/>
    <path id="Path_6698" data-name="Path 6698" d="M35.069,43.61a2.069,2.069,0,0,0,2.069-2.069V12.569a2.069,2.069,0,0,0-4.139,0V41.54A2.069,2.069,0,0,0,35.069,43.61Z" transform="translate(28.34 -5.186)" fill="#e2e2e2"/>
    <path id="Path_6699" data-name="Path 6699" d="M38.069,43.61a2.069,2.069,0,0,0,2.069-2.069V12.569a2.069,2.069,0,0,0-4.139,0V41.54A2.069,2.069,0,0,0,38.069,43.61Z" transform="translate(31.181 -5.186)" fill="#e2e2e2"/>
    <path id="Path_6700" data-name="Path 6700" d="M43.069,43.61a2.069,2.069,0,0,0,2.069-2.069V12.569a2.069,2.069,0,1,0-4.139,0V41.54A2.069,2.069,0,0,0,43.069,43.61Z" transform="translate(35.916 -5.186)" fill="#e2e2e2"/>
    <path id="Path_6701" data-name="Path 6701" d="M46.069,43.61a2.069,2.069,0,0,0,2.069-2.069V12.569a2.069,2.069,0,1,0-4.139,0V41.54A2.069,2.069,0,0,0,46.069,43.61Z" transform="translate(38.757 -5.186)" fill="#e2e2e2"/>
    <path id="Path_6702" data-name="Path 6702" d="M52.069,43.61a2.069,2.069,0,0,0,2.069-2.069V12.569a2.069,2.069,0,1,0-4.139,0V41.54A2.069,2.069,0,0,0,52.069,43.61Z" transform="translate(43.461 -5.186)" fill="#e2e2e2"/>
    <path id="Path_6703" data-name="Path 6703" d="M10.069,44.5A2.069,2.069,0,0,0,8,46.569v2.069a2.069,2.069,0,0,0,4.139,0V46.569A2.069,2.069,0,0,0,10.069,44.5Z" transform="translate(5.643 24.249)" fill="#e2e2e2"/>
    <path id="Path_6704" data-name="Path 6704" d="M13.069,44.5A2.069,2.069,0,0,0,11,46.569v2.069a2.069,2.069,0,0,0,4.139,0V46.569A2.069,2.069,0,0,0,13.069,44.5Z" transform="translate(7.506 24.249)" fill="#e2e2e2"/>
    <path id="Path_6705" data-name="Path 6705" d="M16.069,44.5A2.069,2.069,0,0,0,14,46.569v2.069a2.069,2.069,0,0,0,4.139,0V46.569A2.069,2.069,0,0,0,16.069,44.5Z" transform="translate(10.347 24.249)" fill="#e2e2e2"/>
    <path id="Path_6706" data-name="Path 6706" d="M19.069,44.5A2.069,2.069,0,0,0,17,46.569v2.069a2.069,2.069,0,0,0,4.139,0V46.569A2.069,2.069,0,0,0,19.069,44.5Z" transform="translate(13.188 24.249)" fill="#e2e2e2"/>
    <path id="Path_6707" data-name="Path 6707" d="M22.069,44.5A2.069,2.069,0,0,0,20,46.569v2.069a2.069,2.069,0,0,0,4.139,0V46.569A2.069,2.069,0,0,0,22.069,44.5Z" transform="translate(16.029 24.249)" fill="#e2e2e2"/>
    <path id="Path_6708" data-name="Path 6708" d="M25.069,44.5A2.069,2.069,0,0,0,23,46.569v2.069a2.069,2.069,0,0,0,4.139,0V46.569A2.069,2.069,0,0,0,25.069,44.5Z" transform="translate(18.87 24.249)" fill="#e2e2e2"/>
    <path id="Path_6709" data-name="Path 6709" d="M28.069,44.5A2.069,2.069,0,0,0,26,46.569v2.069a2.069,2.069,0,0,0,4.139,0V46.569A2.069,2.069,0,0,0,28.069,44.5Z" transform="translate(21.711 24.249)" fill="#e2e2e2"/>
    <path id="Path_6710" data-name="Path 6710" d="M31.069,44.5A2.069,2.069,0,0,0,29,46.569v2.069a2.069,2.069,0,0,0,4.139,0V46.569A2.069,2.069,0,0,0,31.069,44.5Z" transform="translate(24.552 24.249)" fill="#e2e2e2"/>
    <path id="Path_6711" data-name="Path 6711" d="M34.069,44.5A2.069,2.069,0,0,0,32,46.569v2.069a2.069,2.069,0,0,0,4.139,0V46.569A2.069,2.069,0,0,0,34.069,44.5Z" transform="translate(27.393 24.249)" fill="#e2e2e2"/>
    <path id="Path_6712" data-name="Path 6712" d="M37.069,44.5A2.069,2.069,0,0,0,35,46.569v2.069a2.069,2.069,0,0,0,4.139,0V46.569A2.069,2.069,0,0,0,37.069,44.5Z" transform="translate(30.234 24.249)" fill="#e2e2e2"/>
    <path id="Path_6713" data-name="Path 6713" d="M40.069,44.5A2.069,2.069,0,0,0,38,46.569v2.069a2.069,2.069,0,0,0,4.139,0V46.569A2.069,2.069,0,0,0,40.069,44.5Z" transform="translate(33.075 24.249)" fill="#e2e2e2"/>
    <path id="Path_6714" data-name="Path 6714" d="M43.069,44.5A2.069,2.069,0,0,0,41,46.569v2.069a2.069,2.069,0,0,0,4.139,0V46.569A2.069,2.069,0,0,0,43.069,44.5Z" transform="translate(35.916 24.249)" fill="#e2e2e2"/>
    <path id="Path_6715" data-name="Path 6715" d="M46.069,44.5A2.069,2.069,0,0,0,44,46.569v2.069a2.069,2.069,0,0,0,4.139,0V46.569A2.069,2.069,0,0,0,46.069,44.5Z" transform="translate(38.757 24.249)" fill="#e2e2e2"/>
    <path id="Path_6716" data-name="Path 6716" d="M49.069,44.5A2.069,2.069,0,0,0,47,46.569v2.069a2.069,2.069,0,0,0,4.139,0V46.569A2.069,2.069,0,0,0,49.069,44.5Z" transform="translate(41.598 24.249)" fill="#e2e2e2"/>
    <path id="Path_6717" data-name="Path 6717" d="M54.139,46.569a2.069,2.069,0,1,0-4.139,0v2.069a2.069,2.069,0,0,0,4.139,0Z" transform="translate(43.461 24.249)" fill="#e2e2e2"/>
    <path id="ic_error_outline_24px" d="M22.7,31.9h4.6v4.6H22.7Zm0-18.4h4.6V27.3H22.7ZM24.977,2A23,23,0,1,0,48,25,22.989,22.989,0,0,0,24.977,2ZM25,43.4A18.4,18.4,0,1,1,43.4,25,18.395,18.395,0,0,1,25,43.4Z" transform="translate(-17.5 29.314)" fill="red"/>
  </g>
</svg>
