<svg xmlns="http://www.w3.org/2000/svg" width="65.969" height="64.333" viewBox="0 0 65.969 64.333">
  <g id="blog_icon" data-name="blog icon" transform="translate(-6.16 -14.407)">
    <path id="Path_8457" data-name="Path 8457" d="M82.266,67.415H20.545V4.821A1.685,1.685,0,0,1,22.17,3.082H80.642a1.685,1.685,0,0,1,1.624,1.739V67.415Z" transform="translate(-14.385 11.325)" fill="#eff2fa"/>
    <path id="Path_8458" data-name="Path 8458" d="M77.06,23.863H28.333a1.624,1.624,0,0,1-1.624-1.624V10.87a1.624,1.624,0,0,1,1.624-1.624H77.06a1.624,1.624,0,0,1,1.624,1.624v11.37A1.624,1.624,0,0,1,77.06,23.863Z" transform="translate(-15.676 10.034)" fill="rgba(255,144,13,0.49)"/>
    <path id="Path_8459" data-name="Path 8459" d="M76.248,38.773h-47.1a2.436,2.436,0,0,1-2.436-2.436h0A2.436,2.436,0,0,1,29.145,33.9h47.1a2.436,2.436,0,0,1,2.436,2.436h0A2.436,2.436,0,0,1,76.248,38.773Z" transform="translate(-15.676 4.871)" fill="#ff900d"/>
    <g id="Group_3629" data-name="Group 3629" transform="translate(11.033 48.516)">
      <path id="Path_8472" data-name="Path 8472" d="M84.375,49.476H63.26a1.624,1.624,0,0,1-1.624-1.624h0a1.624,1.624,0,0,1,1.624-1.624H84.375A1.624,1.624,0,0,1,86,47.851h0A1.625,1.625,0,0,1,84.375,49.476Z" transform="translate(-34.024 -46.227)" fill="#afb9d2"/>
      <path id="Path_8473" data-name="Path 8473" d="M49.448,49.476H28.333a1.624,1.624,0,0,1-1.624-1.624h0a1.624,1.624,0,0,1,1.624-1.624H49.448a1.624,1.624,0,0,1,1.624,1.624h0A1.625,1.625,0,0,1,49.448,49.476Z" transform="translate(-26.709 -46.227)" fill="#afb9d2"/>
    </g>
    <g id="Group_3630" data-name="Group 3630" transform="translate(11.033 55.013)">
      <path id="Path_8474" data-name="Path 8474" d="M84.375,57.694H63.26a1.624,1.624,0,0,1-1.624-1.624h0a1.624,1.624,0,0,1,1.624-1.624H84.375A1.624,1.624,0,0,1,86,56.069h0A1.624,1.624,0,0,1,84.375,57.694Z" transform="translate(-34.024 -54.445)" fill="#c7cfe2"/>
      <path id="Path_8475" data-name="Path 8475" d="M49.448,57.694H28.333a1.624,1.624,0,0,1-1.624-1.624h0a1.624,1.624,0,0,1,1.624-1.624H49.448a1.624,1.624,0,0,1,1.624,1.624h0A1.624,1.624,0,0,1,49.448,57.694Z" transform="translate(-26.709 -54.445)" fill="#c7cfe2"/>
      <path id="Path_8476" data-name="Path 8476" d="M84.375,65.912H63.26a1.624,1.624,0,0,1-1.624-1.624h0a1.624,1.624,0,0,1,1.624-1.624H84.375A1.624,1.624,0,0,1,86,64.288h0A1.625,1.625,0,0,1,84.375,65.912Z" transform="translate(-34.024 -56.166)" fill="#c7cfe2"/>
      <path id="Path_8477" data-name="Path 8477" d="M84.375,74.13H63.26a1.624,1.624,0,0,1-1.624-1.624h0a1.624,1.624,0,0,1,1.624-1.624H84.375A1.624,1.624,0,0,1,86,72.506h0A1.625,1.625,0,0,1,84.375,74.13Z" transform="translate(-34.024 -57.888)" fill="#c7cfe2"/>
      <path id="Path_8478" data-name="Path 8478" d="M49.448,65.912H28.333a1.624,1.624,0,0,1-1.624-1.624h0a1.624,1.624,0,0,1,1.624-1.624H49.448a1.624,1.624,0,0,1,1.624,1.624h0A1.625,1.625,0,0,1,49.448,65.912Z" transform="translate(-26.709 -56.166)" fill="#c7cfe2"/>
    </g>
    <path id="Path_8460" data-name="Path 8460" d="M51.072,77.379H26.709V72.407a1.526,1.526,0,0,1,1.526-1.526H49.547a1.526,1.526,0,0,1,1.526,1.526v4.971Z" transform="translate(-15.676 -2.875)" fill="#e4eaf6"/>
    <path id="Path_8479" data-name="Path 8479" d="M0,0H6.5V40.606H0Z" transform="translate(65.633 33.262)" fill="#9e9e9e"/>
    <rect id="Rectangle_17356" data-name="Rectangle 17356" width="3.248" height="40.606" transform="translate(65.633 33.262)" fill="#828282"/>
    <path id="Path_8461" data-name="Path 8461" d="M94.509,55.515l2.776-11.1a.487.487,0,0,1,.946,0l2.776,11.1Z" transform="translate(-28.876 -22.254)" fill="#9e9e9e"/>
    <path id="Path_8462" data-name="Path 8462" d="M97.715,44.412l-1.152,4.606h3.248L98.66,44.412A.487.487,0,0,0,97.715,44.412Z" transform="translate(-29.306 -22.254)" fill="#828282"/>
    <path id="Path_8463" data-name="Path 8463" d="M99.382,114.791H96.133a1.624,1.624,0,0,1-1.624-1.624v-3.248h6.5v3.248A1.624,1.624,0,0,1,99.382,114.791Z" transform="translate(-28.876 -36.051)" fill="#ff900d"/>
    <path id="Path_8464" data-name="Path 8464" d="M97.757,113.166v-3.248H94.509v3.248a1.624,1.624,0,0,0,1.624,1.624h3.248A1.624,1.624,0,0,1,97.757,113.166Z" transform="translate(-28.876 -36.051)" fill="#ff900d"/>
  </g>
</svg>
