<svg xmlns="http://www.w3.org/2000/svg" width="30.559" height="25.581" viewBox="0 0 30.559 25.581">
  <path id="Path_7692" data-name="Path 7692" d="M128.514,119.847H122.2a14.949,14.949,0,0,1,2.183-3.537.56.56,0,0,0-.038-.794.566.566,0,0,0-.794.033,15.518,15.518,0,0,0-2.579,4.3h-10.8a.567.567,0,0,0-.563.569v7.231a.565.565,0,0,0,.563.561h10.13a14.6,14.6,0,0,0,1.917,4.388c.2.3.43.677.672,1.079a24.188,24.188,0,0,1-8.966,1.7h-.006a24.108,24.108,0,0,1-9.258-1.819c.214-.353.423-.683.6-.958,5.82-9.039-1.256-16.964-1.328-17.048a.571.571,0,0,0-.8-.033.565.565,0,0,0-.034.794c.271.3,6.553,7.373,1.212,15.673-1.1,1.7-3.129,4.855-2.788,8.454a.566.566,0,0,0,.562.512.177.177,0,0,0,.055-.006.558.558,0,0,0,.508-.611,10.349,10.349,0,0,1,1.443-5.782,25.177,25.177,0,0,0,9.827,1.951h.006a25.352,25.352,0,0,0,9.529-1.83,10.25,10.25,0,0,1,1.377,5.66.558.558,0,0,0,.508.611.164.164,0,0,0,.055.006.557.557,0,0,0,.556-.512c.348-3.6-1.692-6.757-2.782-8.46a13.507,13.507,0,0,1-1.7-3.77h7.043a.57.57,0,0,0,.567-.567V120.41a.565.565,0,0,0-.567-.563Zm-.563,7.231h-1.178v-2.308a.565.565,0,0,0-1.13,0v2.308h-1.576v-2.308a.562.562,0,1,0-1.124,0v2.308h-1.576v-2.308a.565.565,0,0,0-1.13,0v2.308H118.66v-2.308a.565.565,0,0,0-1.13,0v2.308h-1.572v-2.308a.564.564,0,0,0-1.129,0v2.308h-1.576v-2.308a.565.565,0,0,0-1.13,0v2.308H110.74v-6.1h17.211Zm-14.207,5.848Zm-12.6-7.38v-1.2H98.522v-3h2.622v-1.208l2.706,2.706Zm0,0" transform="translate(-98.522 -115.368)" fill="#ff900d"/>
</svg>
