<svg xmlns="http://www.w3.org/2000/svg" width="17" height="21.873" viewBox="0 0 17 21.873">
  <g id="Group_3510" data-name="Group 3510" transform="translate(-500 -356.676)">
    <path id="Path_8128" data-name="Path 8128" d="M516.789,367.867a10.276,10.276,0,0,0-2.01-4.109.983.983,0,0,0-.883-.4,1.034,1.034,0,0,0-.81.6l-.035.072a1.415,1.415,0,0,1-.169.294.192.192,0,0,1-.024.024.143.143,0,0,1-.141.025.118.118,0,0,1-.08-.108,10.751,10.751,0,0,0-.432-2.727l0-.015-.008-.026c-.009-.028-.018-.057-.03-.087a11.162,11.162,0,0,0-.959-2.176.825.825,0,0,0-.058-.107l-.023-.035-.017-.026-.046-.077h0c-.095-.153-.19-.326-.29-.508-.136-.248-.277-.5-.419-.709-.077-.111-.164-.215-.248-.316-.049-.059-.1-.12-.147-.181a1.5,1.5,0,0,0-.744-.565.715.715,0,0,0-.471.014,1.167,1.167,0,0,0-.791,1.173,3.1,3.1,0,0,1-1.13,2.317,5.976,5.976,0,0,0-2.309,4.205.273.273,0,0,1-.1.168.285.285,0,0,1-.139-.088,4.017,4.017,0,0,1-.364-.589.975.975,0,0,0-.783-.533.99.99,0,0,0-.884.382,9.4,9.4,0,0,0-1.571,9.55,7.8,7.8,0,0,0,2.342,3.35,8.507,8.507,0,0,0,3.739,1.7,9.169,9.169,0,0,0,1.839.19,8.59,8.59,0,0,0,4.013-1,7.774,7.774,0,0,0,4.05-5.117A9.617,9.617,0,0,0,516.789,367.867Zm-.809,3.523a7.79,7.79,0,0,1-.735,2.25,7.108,7.108,0,0,1-2.1,2.544,7.594,7.594,0,0,1-3.038,1.3,7.825,7.825,0,0,1-4.936-.558,6.9,6.9,0,0,1-3.967-4.852,8.864,8.864,0,0,1-.08-4.052,9.379,9.379,0,0,1,1.766-3.665c.079-.1.122-.112.136-.111s.064.018.144.155a5.417,5.417,0,0,0,.508.756.9.9,0,0,0,.983.286.949.949,0,0,0,.706-.761c.03-.133.059-.268.088-.4a12.191,12.191,0,0,1,.325-1.277,4.229,4.229,0,0,1,1.335-1.894,7.282,7.282,0,0,0,.947-.911,4.269,4.269,0,0,0,.783-2.353v-.022c.01-.168.028-.211.092-.218a.334.334,0,0,1,.232.117c.211.277.422.612.625.935.175.278.356.566.535.813l.019.032.029.049v0l0,.008,0,0a10.68,10.68,0,0,1,.934,2.085c.007.031.014.06.023.088.019.061.036.123.053.184l.012.046.011.046.02.082h0a9.534,9.534,0,0,1,.307,2.243.984.984,0,0,0,1.812.556,4.755,4.755,0,0,0,.278-.474l.031-.059c.04-.075.083-.12.117-.123s.078.03.126.09a9.074,9.074,0,0,1,1.868,7.052Z" transform="translate(0)" fill="#d10000"/>
    <g id="Group_3509" data-name="Group 3509" transform="translate(504.012 368.803)">
      <path id="Path_8129" data-name="Path 8129" d="M737.577,1073.309l-.568-.933-.349.33v.511a.393.393,0,0,1-.1.286.306.306,0,0,1-.225.1.291.291,0,0,1-.233-.1.438.438,0,0,1-.085-.292v-2.742a.545.545,0,0,1,.082-.326.275.275,0,0,1,.236-.112.3.3,0,0,1,.236.1.448.448,0,0,1,.087.3v1.559l.723-.759a1.8,1.8,0,0,1,.2-.193.283.283,0,0,1,.172-.052.278.278,0,0,1,.2.077.254.254,0,0,1,.08.192q0,.141-.261.377l-.341.313.659,1.036q.073.116.1.176a.244.244,0,0,1,.032.114.337.337,0,0,1-.084.241.289.289,0,0,1-.22.088.246.246,0,0,1-.181-.064A1.532,1.532,0,0,1,737.577,1073.309Z" transform="translate(-736.02 -1070.033)" fill="#d10000"/>
      <path id="Path_8130" data-name="Path 8130" d="M884.063,1127.83a.555.555,0,0,1-.072.257.885.885,0,0,1-.219.26,1.134,1.134,0,0,1-.371.2,1.573,1.573,0,0,1-.5.075,1.231,1.231,0,0,1-.93-.347,1.287,1.287,0,0,1-.334-.932,1.534,1.534,0,0,1,.153-.7,1.1,1.1,0,0,1,.443-.47,1.506,1.506,0,0,1,1.151-.093,1.2,1.2,0,0,1,.353.188.9.9,0,0,1,.221.246.487.487,0,0,1,.077.244.257.257,0,0,1-.086.2.3.3,0,0,1-.208.08.21.21,0,0,1-.133-.041.651.651,0,0,1-.119-.133.976.976,0,0,0-.246-.269.6.6,0,0,0-.786.133.963.963,0,0,0-.174.609,1.176,1.176,0,0,0,.045.333.758.758,0,0,0,.13.259.552.552,0,0,0,.2.162.622.622,0,0,0,.264.055.594.594,0,0,0,.331-.089.782.782,0,0,0,.244-.273.629.629,0,0,1,.127-.17.242.242,0,0,1,.167-.061.248.248,0,0,1,.2.089A.287.287,0,0,1,884.063,1127.83Z" transform="translate(-879.157 -1125.055)" fill="#d10000"/>
      <path id="Path_8131" data-name="Path 8131" d="M1051.176,1128.263a1.988,1.988,0,0,1-.451.272,1.262,1.262,0,0,1-.489.091.927.927,0,0,1-.435-.1.716.716,0,0,1-.289-.265.687.687,0,0,1-.1-.363.649.649,0,0,1,.167-.45.836.836,0,0,1,.459-.25l.3-.064q.243-.049.416-.091t.376-.1a.672.672,0,0,0-.1-.373.459.459,0,0,0-.376-.119.784.784,0,0,0-.369.068.6.6,0,0,0-.212.2,2.186,2.186,0,0,1-.125.18.2.2,0,0,1-.157.044.274.274,0,0,1-.187-.07.226.226,0,0,1-.079-.178.545.545,0,0,1,.12-.33.86.86,0,0,1,.375-.264,1.687,1.687,0,0,1,.634-.1,1.793,1.793,0,0,1,.667.1.619.619,0,0,1,.343.317,1.385,1.385,0,0,1,.1.575q0,.226,0,.384t0,.351a1.293,1.293,0,0,0,.06.378,1.194,1.194,0,0,1,.06.253.237.237,0,0,1-.093.18.312.312,0,0,1-.211.081.284.284,0,0,1-.2-.093A1.382,1.382,0,0,1,1051.176,1128.263Zm-.042-.93a3.218,3.218,0,0,1-.411.109q-.27.058-.373.085a.5.5,0,0,0-.2.106.271.271,0,0,0-.094.22.326.326,0,0,0,.111.248.41.41,0,0,0,.29.1.754.754,0,0,0,.352-.084.557.557,0,0,0,.237-.216.984.984,0,0,0,.087-.48Z" transform="translate(-1044.084 -1125.055)" fill="#d10000"/>
      <path id="Path_8132" data-name="Path 8132" d="M1226.195,1073.213v-2.789a.433.433,0,0,1,.086-.292.291.291,0,0,1,.232-.1.3.3,0,0,1,.235.1.421.421,0,0,1,.089.293v2.789a.418.418,0,0,1-.091.293.305.305,0,0,1-.234.1.291.291,0,0,1-.23-.1A.428.428,0,0,1,1226.195,1073.213Z" transform="translate(-1217.862 -1070.033)" fill="#d10000"/>
    </g>
  </g>
</svg>
