<svg xmlns="http://www.w3.org/2000/svg" width="77.575" height="41.333" viewBox="0 0 77.575 41.333">
  <g id="by_o2" data-name="by o2" transform="translate(-151.906 -612.667)">
    <path id="Path_7239" data-name="Path 7239" d="M1.934,0V-17.672H3.574v7.113A6.922,6.922,0,0,1,5.88-12.451a6.258,6.258,0,0,1,2.8-.627A6.216,6.216,0,0,1,13.3-11.115a6.571,6.571,0,0,1,1.914,4.764,6.478,6.478,0,0,1-1.932,4.723A6.3,6.3,0,0,1,8.632.328,5.945,5.945,0,0,1,5.81-.34a6.585,6.585,0,0,1-2.236-2V0ZM8.5-1.254a4.931,4.931,0,0,0,2.525-.674A4.936,4.936,0,0,0,12.863-3.82,5.189,5.189,0,0,0,13.547-6.4a5.22,5.22,0,0,0-.69-2.59A5.028,5.028,0,0,0,11-10.9,4.813,4.813,0,0,0,8.52-11.59a5.105,5.105,0,0,0-2.555.686A4.777,4.777,0,0,0,4.106-9.059a5.261,5.261,0,0,0-.649,2.613,5.086,5.086,0,0,0,1.456,3.7A4.816,4.816,0,0,0,8.5-1.254Zm8.332-11.5h1.734l4.382,9.818L27.2-12.75h1.746L21.34,4.664H19.607l2.455-5.63Z" transform="translate(149.973 644.236)" fill="#fff"/>
    <g id="Group_2927" data-name="Group 2927" transform="translate(19.366 455.113)">
      <path id="Path_7289" data-name="Path 7289" d="M189.278,196.173a17.921,17.921,0,1,1,11.49-31.674,17.989,17.989,0,0,1,2.437-.089,5.2,5.2,0,0,1,1.673.291,20.665,20.665,0,1,0,2.106,24.13h-3.241A17.9,17.9,0,0,1,189.278,196.173Z" transform="translate(0 0)" fill="#fff"/>
      <path id="Path_7290" data-name="Path 7290" d="M338.229,218.729q.548-.484,1.091-.975c.276-.25.551-.5.818-.76.4-.391.8-.789,1.2-1.186.351-.352.715-.693,1.069-1.044.281-.279.556-.564.808-.867a14.187,14.187,0,0,0,1.289-1.961,5.549,5.549,0,0,0,.383-.81,7.251,7.251,0,0,0,.44-2.351c.017-.5-.081-1.009-.106-1.515a7.224,7.224,0,0,0-.565-2.29,5.264,5.264,0,0,0-.971-1.644,10.747,10.747,0,0,0-1.251-1.354,6.441,6.441,0,0,0-2.041-1.114l-.3-.093a5.2,5.2,0,0,0-1.673-.291,18,18,0,0,0-2.437.089l-.085.013a7.78,7.78,0,0,0-2.4.84,7.171,7.171,0,0,0-2.08,1.756,7.008,7.008,0,0,0-1.284,2.288,13.1,13.1,0,0,0-.46,1.78c-.107.627-.122,1.27-.178,1.914h4.34a8.173,8.173,0,0,1,.438-2.4,3.451,3.451,0,0,1,1.5-1.8,3.625,3.625,0,0,1,1.935-.408,3.452,3.452,0,0,1,2.164.818,3.4,3.4,0,0,1,.333.327,3.042,3.042,0,0,1,.737,1.5c.012.062.024.123.033.187a4.286,4.286,0,0,1-.254,2.2,7.058,7.058,0,0,1-1.394,2.15q-.822.887-1.688,1.733-1.432,1.4-2.89,2.773c-.8.754-1.609,1.5-2.415,2.241-.781.723-1.559,1.449-2.35,2.162a.4.4,0,0,0-.154.338c0,1.223,0,2.446,0,3.669,0,.084.011.169.017.249h15.466v-4.08h-9.288a1.705,1.705,0,0,1,.245-.353C336.916,219.878,337.575,219.307,338.229,218.729Z" transform="translate(-135.209 -36.065)" fill="#fff"/>
    </g>
  </g>
</svg>
