<svg id="camera" xmlns="http://www.w3.org/2000/svg" width="34.373" height="30.936" viewBox="0 0 34.373 30.936">
  <ellipse id="Ellipse_14" data-name="Ellipse 14" cx="5.5" cy="5.5" rx="5.5" ry="5.5" transform="translate(11.687 11.687)" fill="#ff900d"/>
  <path id="Path_89" data-name="Path 89" d="M14.031,2,10.886,5.437H5.437A3.447,3.447,0,0,0,2,8.875V29.5a3.447,3.447,0,0,0,3.437,3.437h27.5A3.447,3.447,0,0,0,36.373,29.5V8.875a3.447,3.447,0,0,0-3.437-3.437H27.488L24.343,2Zm5.156,25.78a8.593,8.593,0,1,1,8.593-8.593A8.6,8.6,0,0,1,19.187,27.78Z" transform="translate(-2 -2)" fill="#ff900d"/>
</svg>
