<svg xmlns="http://www.w3.org/2000/svg" width="46.509" height="46.5" viewBox="0 0 46.509 46.5">
  <g id="cheet_day" data-name="cheet day" transform="translate(-27.458 -202)">
    <path id="Path_8276" data-name="Path 8276" d="M55.731,32.313V14.938a5.93,5.93,0,0,0-5.924-5.924h-3.2V7.646a1.368,1.368,0,0,0-2.736,0V9.014h-15.5V7.646a1.368,1.368,0,1,0-2.736,0V9.014h-3.2a5.93,5.93,0,0,0-5.924,5.924V43.215a5.93,5.93,0,0,0,5.924,5.924H44.606A10.481,10.481,0,1,0,55.731,32.313ZM22.442,46.4a3.192,3.192,0,0,1-3.188-3.188V14.939a3.192,3.192,0,0,1,3.188-3.188h3.2v1.368a1.368,1.368,0,1,0,2.736,0V11.75h15.5v1.368a1.368,1.368,0,1,0,2.736,0V11.75h3.2A3.192,3.192,0,0,1,53,14.939v16.9c-.152-.007-.3-.023-.456-.023h0a10.493,10.493,0,0,0-1.454.113,4.109,4.109,0,0,0-2.96-3.149v-.612a12.311,12.311,0,0,0-24.623,0v.823a4.084,4.084,0,0,0,.31,7.588v1.161A4.568,4.568,0,0,0,28.376,42.3H42.053a10.425,10.425,0,0,0,.838,4.1Zm19.984-6.84H28.375a1.829,1.829,0,0,1-1.827-1.827v-.909H43.61a10.421,10.421,0,0,0-1.183,2.736Zm4.641-8.207a1.366,1.366,0,0,1,1.361,1.3,10.486,10.486,0,0,0-2.4,1.438H25.18a1.368,1.368,0,1,1,0-2.736ZM26.239,28.621v-.456a9.575,9.575,0,0,1,19.151,0v.456Zm26.3,21.431a7.76,7.76,0,1,1,5.479-2.273,7.751,7.751,0,0,1-5.479,2.273Z" transform="translate(10.941 195.722)" fill="#ff900d"/>
    <path id="Path_8277" data-name="Path 8277" d="M69.68,55.535l-3.721,3.72-1.3-1.3a1.368,1.368,0,0,0-1.934,1.934l2.272,2.272a1.368,1.368,0,0,0,1.935,0l4.688-4.688h0a1.368,1.368,0,0,0-1.934-1.934Z" transform="translate(-4.144 179.632)" fill="#ff900d"/>
    <path id="Path_8278" data-name="Path 8278" d="M53.016,33.937a1.824,1.824,0,1,1-1.824-1.824,1.824,1.824,0,0,1,1.824,1.824" transform="translate(0.122 187.213)" fill="#ff900d"/>
    <path id="Path_8279" data-name="Path 8279" d="M46.217,28.5a1.824,1.824,0,1,1-1.824-1.824A1.824,1.824,0,0,1,46.217,28.5" transform="translate(2.361 189.004)" fill="#ff900d"/>
    <path id="Path_8280" data-name="Path 8280" d="M39.419,33.937a1.824,1.824,0,1,1-1.824-1.824,1.824,1.824,0,0,1,1.824,1.824" transform="translate(4.6 187.213)" fill="#ff900d"/>
  </g>
</svg>
