<svg xmlns="http://www.w3.org/2000/svg" width="26" height="23.373" viewBox="0 0 26 23.373">
  <g id="Group_3625" data-name="Group 3625" transform="translate(-665.333 -730.059)">
    <path id="Path_8454" data-name="Path 8454" d="M670.691,751.938a1.181,1.181,0,0,0,.239.293,2.051,2.051,0,0,0,.519.328,6.131,6.131,0,0,0,1.18.373,19.49,19.49,0,0,0,2.512.366c.968.086,2.053.134,3.2.134a30.537,30.537,0,0,0,5.124-.382q.5-.09.92-.2c.208-.055.4-.114.575-.179a2.66,2.66,0,0,0,.7-.367,1.266,1.266,0,0,0,.3-.318.975.975,0,0,0,.157-.525V744.7a6.291,6.291,0,0,0,5.215-5.77.705.705,0,0,0-.656-.751c-.015,0-.029,0-.044,0a.7.7,0,0,0-.707.655,4.882,4.882,0,0,1-4.557,4.535.705.705,0,0,0-.661.7v7.173l-.067.033a4.831,4.831,0,0,1-.9.278,18.107,18.107,0,0,1-2.324.336c-.922.082-1.967.128-3.074.128a29.22,29.22,0,0,1-4.876-.36c-.3-.054-.576-.114-.807-.175-.173-.046-.323-.093-.445-.138a1.93,1.93,0,0,1-.237-.1v-7.172a.705.705,0,0,0-.661-.7,4.881,4.881,0,1,1,2.093-9.416.7.7,0,0,0,.848-.27,4.915,4.915,0,0,1,1.73-1.606,4.885,4.885,0,0,1,4.713,0,4.915,4.915,0,0,1,1.73,1.606.7.7,0,0,0,.847.27,4.88,4.88,0,0,1,5.239,1.1.7.7,0,0,0,.962.031c.012-.01.024-.018.035-.029a.706.706,0,0,0,0-1,9.954,9.954,0,0,1-8.133-3.216,14.622,14.622,0,0,1-9.753,1.364,6.292,6.292,0,0,0-1.063,12.494v6.762A.968.968,0,0,0,670.691,751.938Z" fill="#fff"/>
    <path id="Path_8455" data-name="Path 8455" d="M1348.62,887.541q.031.071.058.143a.7.7,0,0,0,.871.412c.015,0,.029-.007.044-.012a.705.705,0,0,0,.4-.914q-.036-.093-.076-.184a.705.705,0,0,0-.926-.37c-.014.006-.027.015-.04.022A.7.7,0,0,0,1348.62,887.541Z" transform="translate(-659.078 -150.966)" fill="#fff"/>
  </g>
</svg>
