<svg xmlns="http://www.w3.org/2000/svg" width="101.124" height="101.353" viewBox="0 0 101.124 101.353">
  <g id="clock_error" data-name="clock error" transform="translate(32.891 585.875)">
    <path id="Path_8496" data-name="Path 8496" d="M102.233,51.741a47.074,47.074,0,0,1-94.147.222H1.109l10.464-15.7,10.458,15.7h-6.1A39.228,39.228,0,1,0,55.158,12.509a3.923,3.923,0,1,1,0-7.846A47.13,47.13,0,0,1,102.233,51.741ZM55.158,80.948A29.246,29.246,0,0,1,25.951,51.741a1.306,1.306,0,1,0-2.612,0A31.819,31.819,0,1,0,55.158,19.914a1.309,1.309,0,0,0,0,2.617,29.208,29.208,0,0,1,0,58.417Zm-15.1-10.121a3.9,3.9,0,0,0,2.78,1.152,3.936,3.936,0,0,0,2.774-1.152l12.323-12.32a3.9,3.9,0,0,0,1.152-2.777V33.536a3.923,3.923,0,0,0-7.846,0V54.1L40.055,65.281A3.922,3.922,0,0,0,40.055,70.826Z" transform="translate(-34 -583.34)" fill="#e60000"/>
    <g id="danger-alert-svgrepo-com" transform="translate(-29.362 -585.875)">
      <g id="Group_3645" data-name="Group 3645" transform="translate(0 0)">
        <g id="Group_3644" data-name="Group 3644" transform="translate(0 0)">
          <path id="Path_8497" data-name="Path 8497" d="M38.391,64,22.438,37.547a3.494,3.494,0,0,0-5.984,0L.5,64a3.494,3.494,0,0,0,2.992,5.3H35.4A3.494,3.494,0,0,0,38.391,64Zm-2.155,2.277a.963.963,0,0,1-.838.489H3.493a.962.962,0,0,1-.824-1.458L18.622,38.854a.962.962,0,0,1,1.647,0L36.222,65.311A.963.963,0,0,1,36.236,66.281Z" transform="translate(0 -35.857)" fill="#d10000"/>
        </g>
      </g>
      <g id="Group_3647" data-name="Group 3647" transform="translate(17.743 10.418)">
        <g id="Group_3646" data-name="Group 3646" transform="translate(0 0)">
          <path id="Path_8498" data-name="Path 8498" d="M235.293,173.005c-.963,0-1.715.517-1.715,1.433,0,2.8.329,6.813.329,9.608,0,.728.634,1.034,1.386,1.034.564,0,1.363-.305,1.363-1.034,0-2.8.329-6.813.329-9.608A1.51,1.51,0,0,0,235.293,173.005Z" transform="translate(-233.578 -173.005)" fill="#d10000"/>
        </g>
      </g>
      <g id="Group_3649" data-name="Group 3649" transform="translate(17.672 24.114)">
        <g id="Group_3648" data-name="Group 3648">
          <path id="Path_8499" data-name="Path 8499" d="M234.46,353.306a1.809,1.809,0,1,0,0,3.618,1.809,1.809,0,0,0,0-3.618Z" transform="translate(-232.651 -353.306)" fill="#d10000"/>
        </g>
      </g>
    </g>
  </g>
</svg>
