<svg xmlns="http://www.w3.org/2000/svg" width="124.91" height="101.82" viewBox="0 0 124.91 101.82">
  <g id="dinner-icon" transform="translate(0 -4.165)">
    <path id="Path_8792" data-name="Path 8792" d="M28.1,336.437h81.282a56.814,56.814,0,0,0,15.062-25.969l4.415-21.554H8.359l4.415,21.814A57.8,57.8,0,0,0,28.1,336.437Z" transform="translate(-6.282 -235.906)" fill="#cdd6e0"/>
    <rect id="Rectangle_17426" data-name="Rectangle 17426" width="81.023" height="5.453" transform="translate(21.814 100.531)" fill="#b9b9b9"/>
    <path id="Path_8793" data-name="Path 8793" d="M122.053,278.465H2.6a2.6,2.6,0,0,0-2.6,2.6v.52a2.6,2.6,0,0,0,2.6,2.6H122.313a2.6,2.6,0,0,0,2.6-2.6V280.8A2.826,2.826,0,0,0,122.053,278.465Z" transform="translate(0 -226.122)" fill="#f2f2f2"/>
    <path id="Path_8794" data-name="Path 8794" d="M281.2,126.92c16.62-12.984,36.1-30.643,36.1-42.589,0-2.6-4.934-7.531-7.531-7.531-15.841,0-41.29,33.5-52.717,49.86H281.2v.26Z" transform="translate(-193.162 -72.635)" fill="#ff900d"/>
  </g>
</svg>
