<?xml version="1.0" encoding="utf-8"?>
<!-- Generator: Adobe Illustrator 23.1.0, SVG Export Plug-In . SVG Version: 6.00 Build 0)  -->
<svg version="1.1" id="Capa_1" xmlns="http://www.w3.org/2000/svg" xmlns:xlink="http://www.w3.org/1999/xlink" x="0px" y="0px"
	 viewBox="0 0 35 35" style="enable-background:new 0 0 35 35;" xml:space="preserve">
<style type="text/css">
	.st0{fill:#00C221;}
</style>
<g>
	<g>
		<path class="st0" d="M29.3,17.4c-0.1-0.2-0.1-0.5,0-0.7l1.1-2.2c0.6-1.2,0.1-2.7-1.1-3.3L27.2,10c-0.2-0.1-0.4-0.3-0.4-0.6L26.3,7
			c-0.2-1.3-1.5-2.2-2.8-2l-2.4,0.3c-0.3,0-0.5,0-0.7-0.2l-1.8-1.7c-1-0.9-2.5-0.9-3.5,0L13.4,5c-0.2,0.2-0.4,0.3-0.7,0.2l-2.4-0.3
			C8.9,4.7,7.7,5.6,7.5,7L7.1,9.4C7,9.6,6.9,9.9,6.6,10l-2.2,1.1c-1.2,0.6-1.7,2.1-1.1,3.3l1.1,2.2c0.1,0.2,0.1,0.5,0,0.7l-1.1,2.2
			c-0.6,1.2-0.1,2.7,1.1,3.3L6.6,24c0.2,0.1,0.4,0.3,0.4,0.6L7.5,27c0.2,1.2,1.3,2.1,2.5,2.1c0.1,0,0.2,0,0.4,0l2.4-0.3
			c0.3,0,0.5,0,0.7,0.2l1.8,1.7c0.5,0.5,1.1,0.7,1.7,0.7c0.6,0,1.3-0.2,1.7-0.7l1.8-1.7c0.2-0.2,0.4-0.3,0.7-0.2l2.4,0.3
			c1.3,0.2,2.6-0.7,2.8-2l0.4-2.4c0-0.3,0.2-0.5,0.4-0.6l2.2-1.1c1.2-0.6,1.7-2.1,1.1-3.3L29.3,17.4z M13.6,9.5c1.7,0,3,1.4,3,3
			s-1.4,3-3,3s-3-1.4-3-3S11.9,9.5,13.6,9.5z M12,23c-0.2,0.2-0.4,0.2-0.6,0.2S11,23.2,10.9,23c-0.3-0.3-0.3-0.8,0-1.2l10.9-10.9
			c0.3-0.3,0.8-0.3,1.2,0s0.3,0.8,0,1.2L12,23z M20.2,24.4c-1.7,0-3-1.4-3-3c0-1.7,1.4-3,3-3c1.7,0,3,1.4,3,3
			C23.2,23.1,21.9,24.4,20.2,24.4z"/>
	</g>
</g>
<g>
	<g>
		<path class="st0" d="M20.2,20c-0.8,0-1.4,0.6-1.4,1.4c0,0.8,0.6,1.4,1.4,1.4c0.8,0,1.4-0.6,1.4-1.4C21.6,20.6,21,20,20.2,20z"/>
	</g>
</g>
<g>
	<g>
		<path class="st0" d="M13.6,11.2c-0.8,0-1.4,0.6-1.4,1.4c0,0.8,0.6,1.4,1.4,1.4c0.8,0,1.4-0.6,1.4-1.4C15,11.8,14.4,11.2,13.6,11.2
			z"/>
	</g>
</g>
</svg>
