<svg id="Layer_1" data-name="Layer 1" xmlns="http://www.w3.org/2000/svg" viewBox="0 0 94.81 73.14"><defs><style>.cls-1{opacity:0.5;}.cls-2{fill:none;}.cls-3{fill:#231f20;fill-rule:evenodd;}.cls-4{fill:#ff4e00;}.cls-5{fill:#bababa;}</style></defs><title>distance300</title><g class="cls-1"><path class="cls-2" d="M31.36,75.78l.26-.36.37-.5c.25-.33.53-.67.8-1,.56-.67,1.15-1.34,1.76-2A43.67,43.67,0,0,1,38.4,68.3L28.89,56.71a56.37,56.37,0,0,0-5.28,4.95c-.82.88-1.62,1.78-2.39,2.71-.39.47-.77.95-1.15,1.44l-.57.76c-.2.29-.35.49-.64.92Z" transform="translate(-2.22 -3)"/><path class="cls-3" d="M30.84,64.27l1,1.09c.55-.52,1.12-1,1.7-1.52l-1-1.14C32,63.21,31.41,63.73,30.84,64.27Z" transform="translate(-2.22 -3)"/><path class="cls-3" d="M27.9,67.29l1.12,1c.5-.56,1-1.12,1.56-1.66l-1.07-1C29,66.14,28.42,66.71,27.9,67.29Z" transform="translate(-2.22 -3)"/><path class="cls-3" d="M25.23,70.55l1.21.89c.45-.61.92-1.2,1.4-1.79l-1.15-1C26.19,69.3,25.7,69.91,25.23,70.55Z" transform="translate(-2.22 -3)"/><path class="cls-2" d="M38.4,68.3a29.93,29.93,0,0,1,8.58-5L41.84,49.16a44.79,44.79,0,0,0-13,7.55Z" transform="translate(-2.22 -3)"/><path class="cls-3" d="M41.19,57l.65,1.35c.68-.32,1.36-.64,2.07-.91l-.56-1.39C42.62,56.33,41.9,56.66,41.19,57Z" transform="translate(-2.22 -3)"/><path class="cls-3" d="M37.49,59.06l.81,1.27c.63-.42,1.29-.78,1.94-1.16l-.72-1.32C38.84,58.25,38.15,58.63,37.49,59.06Z" transform="translate(-2.22 -3)"/><path class="cls-3" d="M34.06,61.5,35,62.68c.59-.47,1.2-.93,1.82-1.36L36,60.09C35.3,60.54,34.68,61,34.06,61.5Z" transform="translate(-2.22 -3)"/><path class="cls-2" d="M47,63.25a19.77,19.77,0,0,1,9-1.16L57.5,47.17a34.84,34.84,0,0,0-15.66,2Z" transform="translate(-2.22 -3)"/><path class="cls-3" d="M53.48,54l0,1.5c.74,0,1.49,0,2.24,0l.1-1.5C55.06,54,54.27,53.92,53.48,54Z" transform="translate(-2.22 -3)"/><path class="cls-3" d="M49.25,54.36l.26,1.48c.73-.12,1.47-.24,2.22-.29l-.13-1.49A23.22,23.22,0,0,0,49.25,54.36Z" transform="translate(-2.22 -3)"/><path class="cls-3" d="M45.14,55.39l.47,1.43c.71-.24,1.44-.43,2.16-.62l-.35-1.46C46.66,54.94,45.89,55.14,45.14,55.39Z" transform="translate(-2.22 -3)"/><path class="cls-2" d="M56,62.09a22.5,22.5,0,0,1,2.26.35,37,37,0,0,0,3.92.62,27.23,27.23,0,0,0,8.58-.4L67.58,48a12.64,12.64,0,0,1-3.89.15c-.72-.06-1.42-.22-2.26-.37a39.65,39.65,0,0,0-3.93-.61Z" transform="translate(-2.22 -3)"/><path class="cls-3" d="M65.91,55.19l0,1.5a18.15,18.15,0,0,0,2.44-.23L68.16,55A16.8,16.8,0,0,1,65.91,55.19Z" transform="translate(-2.22 -3)"/><path class="cls-3" d="M61.85,55l-.22,1.48c.8.08,1.59.22,2.4.24l.08-1.5C63.36,55.15,62.6,55,61.85,55Z" transform="translate(-2.22 -3)"/><path class="cls-3" d="M57.75,54.21l-.2,1.48c.74.1,1.47.27,2.21.39l.32-1.46C59.31,54.48,58.53,54.31,57.75,54.21Z" transform="translate(-2.22 -3)"/><path class="cls-2" d="M70.73,62.66A23.58,23.58,0,0,0,79.1,59.1,26.21,26.21,0,0,0,85.37,53L73.32,44.07a11.36,11.36,0,0,1-2.65,2.63A8.73,8.73,0,0,1,67.58,48Z" transform="translate(-2.22 -3)"/><path class="cls-3" d="M76.84,50.61l1,1.07a11.77,11.77,0,0,0,.85-.88c.27-.29.54-.6.79-.92l-1.17-1a10,10,0,0,1-.73.86A10.2,10.2,0,0,1,76.84,50.61Z" transform="translate(-2.22 -3)"/><path class="cls-3" d="M73.64,53.05l.75,1.3a19.73,19.73,0,0,0,2-1.38l-.93-1.18A16.42,16.42,0,0,1,73.64,53.05Z" transform="translate(-2.22 -3)"/><polygon class="cls-3" points="67.72 51.6 68.11 53.05 69.29 52.69 70.44 52.23 69.83 50.85 68.79 51.27 67.72 51.6"/><path class="cls-2" d="M85.37,53a33.58,33.58,0,0,0,3.95-7c.5-1.21.93-2.42,1.31-3.66.19-.62.36-1.25.52-1.89l.23-1,.1-.52.12-.67L76.78,36c0-.08,0,0,0,0l0,.1-.05.24-.13.54c-.09.37-.19.75-.31,1.13a23.77,23.77,0,0,1-.8,2.24,18.08,18.08,0,0,1-2.15,3.87Z" transform="translate(-2.22 -3)"/><path class="cls-3" d="M82.91,40.09l1.43.44c.24-.77.45-1.54.62-2.33l-1.47-.32C83.33,38.62,83.13,39.36,82.91,40.09Z" transform="translate(-2.22 -3)"/><path class="cls-3" d="M81.45,43.92l1.36.63c.34-.73.64-1.47.92-2.22l-1.4-.52C82.06,42.52,81.77,43.23,81.45,43.92Z" transform="translate(-2.22 -3)"/><path class="cls-3" d="M79.46,47.47l1.24.84q.67-1,1.26-2.07l-1.32-.72C80.27,46.19,79.88,46.84,79.46,47.47Z" transform="translate(-2.22 -3)"/></g><path class="cls-4" d="M25,9.16A22.68,22.68,0,0,0,2.22,31.76c0,6.39,6.27,17.83,6.27,17.83L24.14,76.14,40.47,49.9S47.72,39,47.72,31.76A22.67,22.67,0,0,0,25,9.16Zm-.11,35.05a13,13,0,1,1,13-13A13,13,0,0,1,24.87,44.21Z" transform="translate(-2.22 -3)"/><path class="cls-5" d="M84,3A13,13,0,0,0,70.86,16c0,3.68,3.61,10.26,3.61,10.26l9,15.27,9.39-15.09S97,20.16,97,16A13,13,0,0,0,84,3Zm-.06,20.16a7.49,7.49,0,1,1,7.5-7.49A7.49,7.49,0,0,1,83.89,23.16Z" transform="translate(-2.22 -3)"/></svg>