<svg xmlns="http://www.w3.org/2000/svg" width="127.521" height="101.82" viewBox="0 0 127.521 101.82">
  <g id="eftar-icon" transform="translate(-192.665 -363.133)">
    <path id="Path_8783" data-name="Path 8783" d="M31.846,43.7C37.256,31.119,35.2-.2,17.237,0-.732-.2-2.781,31.118,2.628,43.7c4.087,9.5,25.13,9.5,29.217,0ZM17.238,3.673c2.583,0,4.678,1.293,4.678,2.886s-2.094,2.886-4.678,2.886S12.56,8.152,12.56,6.559,14.654,3.673,17.238,3.673Z" transform="translate(192.665 453.477) rotate(-90)" fill="#7b7a7a" fill-rule="evenodd"/>
    <g id="cup" transform="translate(218.077 363.133)">
      <path id="Path_8784" data-name="Path 8784" d="M81.419,28H5.782A3.573,3.573,0,0,0,2,31.782a3.573,3.573,0,0,0,3.782,3.782H81.419A3.573,3.573,0,0,0,85.2,31.782,3.573,3.573,0,0,0,81.419,28Z" transform="translate(-2 66.256)" fill="#b9b9b9"/>
      <path id="Path_8785" data-name="Path 8785" d="M86.2,13.782a13.636,13.636,0,0,0-7.564,2.269V13.782A3.573,3.573,0,0,0,74.855,10H6.782A3.573,3.573,0,0,0,3,13.782V37.229C3,57.651,20.018,74.292,40.819,74.292A37.9,37.9,0,0,0,75.99,51.222,13.965,13.965,0,0,0,86.2,55.382a15.172,15.172,0,0,0,15.127-15.127V28.909A15.172,15.172,0,0,0,86.2,13.782Zm7.564,26.473a7.564,7.564,0,1,1-15.127,0V28.909a7.564,7.564,0,1,1,15.127,0Z" transform="translate(0.782 16.183)" fill="#ff900d"/>
      <path id="Path_8786" data-name="Path 8786" d="M16.914,19.217a5.64,5.64,0,0,0,1.87-.453c1.558-.68,1.869-2.04.935-3.173a7.764,7.764,0,0,1,0-11.1c.935-1.133.623-2.493-.935-3.173a3.787,3.787,0,0,0-4.362.68c-4.362,4.986-4.362,11.331,0,16.09A3.482,3.482,0,0,0,16.914,19.217Z" transform="translate(24.382 2.978)" fill="#e5e5e5"/>
      <path id="Path_8787" data-name="Path 8787" d="M14.146,23.005a6.845,6.845,0,0,0,2.269-.55c1.891-.825,2.269-2.476,1.135-3.851-3.782-4.126-3.782-9.352,0-13.478,1.135-1.375.756-3.026-1.135-3.851C14.525.725,12.256,1,11.121,2.1c-5.295,6.051-5.295,13.753,0,19.53A4.226,4.226,0,0,0,14.146,23.005Z" transform="translate(12.327 -0.811)" fill="#e5e5e5"/>
      <path id="Path_8788" data-name="Path 8788" d="M22.146,23.125a6.845,6.845,0,0,0,2.269-.55c1.891-.825,2.269-2.476,1.135-3.851-3.782-4.126-3.782-9.352,0-13.478,1.135-1.375.756-3.026-1.135-3.851s-4.16-.55-5.295.825c-5.295,6.051-5.295,13.753,0,19.53A4.226,4.226,0,0,0,22.146,23.125Z" transform="translate(34.583 -0.931)" fill="#e5e5e5"/>
    </g>
  </g>
</svg>
