<svg xmlns="http://www.w3.org/2000/svg" width="16.126" height="31.679" viewBox="0 0 16.126 31.679">
  <g id="eggplant-svgrepo-com" transform="translate(-12.274)">
    <path id="Path_8145" data-name="Path 8145" d="M25.9,18.428c-.156-7.179-3.017-11.86-5.774-11.86-2.7,0-5.462,5.462-5.774,12.432a12.705,12.705,0,0,0-2.081,7.179c0,5.878,3.641,7.907,8.063,7.907,4.474,0,8.063-1.977,8.063-7.907A12.345,12.345,0,0,0,25.9,18.428Z" transform="translate(0 -2.407)" fill="#515151"/>
    <path id="Path_8147" data-name="Path 8147" d="M23.674,2.445l.468-1.3a1.2,1.2,0,0,0-2.393,0l.416,1.3a3.506,3.506,0,0,0-2.913,3.381V8.011l1.509-1.4,1.04,1.04,1.04-1.04,1.04,1.04,1.092-1.04,1.561,1.4V5.826A3.509,3.509,0,0,0,23.674,2.445Z" transform="translate(-2.557)" fill="#31bd8c"/>
    <path id="Path_8148" data-name="Path 8148" d="M25,6.606l1.04,1.04,1.092-1.04,1.509,1.4V5.826A3.554,3.554,0,0,0,25.78,2.445l.468-1.3A1.167,1.167,0,0,0,25.052,0" transform="translate(-4.663)" fill="#3aad1a"/>
    <ellipse id="Ellipse_554" data-name="Ellipse 554" cx="2.705" cy="0.884" rx="2.705" ry="0.884" transform="matrix(0.214, -0.977, 0.977, 0.214, 13.273, 23.262)" fill="#858585"/>
  </g>
</svg>
