<svg xmlns="http://www.w3.org/2000/svg" xmlns:xlink="http://www.w3.org/1999/xlink" width="16" height="19" viewBox="0 0 16 19">
  <defs>
    <clipPath id="clip-path">
      <path id="_Icon_小olor" data-name=" Icon 小olor" d="M8,19H7.991a7.9,7.9,0,0,1-5.656-2.368A8.1,8.1,0,0,1,2.326,5.261L3.376,4.213A1.068,1.068,0,0,1,4.135,3.9a1.091,1.091,0,0,1,.278.036,1.062,1.062,0,0,1,.755.754,3.774,3.774,0,0,0,.7,1.576c.411-.429,1.065-2.082,1.065-4.69,0-.155,0-.3-.01-.449A1.049,1.049,0,0,1,7.251.3,1.094,1.094,0,0,1,8,0,1.054,1.054,0,0,1,8.76.311l4.9,4.951a8.086,8.086,0,0,1,.01,11.37A7.928,7.928,0,0,1,8,19ZM8.037,8.443h0a.509.509,0,0,0-.353.138L5.377,10.764a3.475,3.475,0,0,0-.044,5.052,3.8,3.8,0,0,0,2.635,1.073H8a3.8,3.8,0,0,0,2.626-1.032,3.475,3.475,0,0,0,.044-5.052L8.4,8.587a.514.514,0,0,0-.354-.143Z" transform="translate(0 -0.333)" fill="#d10000"/>
    </clipPath>
  </defs>
  <g id="_27_Icon_fire-fill" data-name="27) Icon/fire-fill" transform="translate(-4 -2.667)">
    <g id="Group_494" data-name="Group 494" transform="translate(4 3)">
      <path id="_Icon_小olor-2" data-name=" Icon 小olor" d="M8,19H7.991a7.9,7.9,0,0,1-5.656-2.368A8.1,8.1,0,0,1,2.326,5.261L3.376,4.213A1.068,1.068,0,0,1,4.135,3.9a1.091,1.091,0,0,1,.278.036,1.062,1.062,0,0,1,.755.754,3.774,3.774,0,0,0,.7,1.576c.411-.429,1.065-2.082,1.065-4.69,0-.155,0-.3-.01-.449A1.049,1.049,0,0,1,7.251.3,1.094,1.094,0,0,1,8,0,1.054,1.054,0,0,1,8.76.311l4.9,4.951a8.086,8.086,0,0,1,.01,11.37A7.928,7.928,0,0,1,8,19ZM8.037,8.443h0a.509.509,0,0,0-.353.138L5.377,10.764a3.475,3.475,0,0,0-.044,5.052,3.8,3.8,0,0,0,2.635,1.073H8a3.8,3.8,0,0,0,2.626-1.032,3.475,3.475,0,0,0,.044-5.052L8.4,8.587a.514.514,0,0,0-.354-.143Z" transform="translate(0 -0.333)" fill="#d10000"/>
    </g>
  </g>
</svg>
