<svg xmlns="http://www.w3.org/2000/svg" width="34.173" height="28.803" viewBox="0 0 34.173 28.803">
  <g id="reciep_design" transform="translate(0 0)">
    <g id="Group_2804" data-name="Group 2804" transform="translate(0 0)">
      <g id="Group_2827" data-name="Group 2827" transform="translate(0 0)">
        <path id="Path_6996" data-name="Path 6996" d="M29.868,3.389A5.972,5.972,0,0,0,25.93,1.922a5.762,5.762,0,0,0-.8.054,6,6,0,0,0-1.461.386A11.056,11.056,0,0,0,19.4.341h0Q19.055.26,18.7.2l-.014,0q-.351-.062-.709-.105l-.031,0C17.74.062,17.53.043,17.318.03L17.161.02C16.935.008,16.708,0,16.479,0A11.519,11.519,0,0,0,8.9,2.688,5.983,5.983,0,0,0,7.241,2.06l-.007,0C7.1,2.03,6.962,2,6.824,1.985l-.018,0c-.12-.017-.241-.03-.363-.039l-.091-.007c-.13-.008-.261-.014-.393-.014A5.914,5.914,0,0,0,0,7.79a5.914,5.914,0,0,0,5.959,5.868c.165,0,.327-.008.489-.021l.04,0q.247-.021.487-.062h0a6.027,6.027,0,0,0,.766-.18V27.207q1.672-.369,3.361-.588a39,39,0,0,1,11.83.257q.823.144,1.641.322l.039.009V13.544l.026-.027.11.024.033.006q.156.03.315.052l.105.013q.13.016.262.026l.106.008c.12.007.24.012.362.012.1,0,.2,0,.292-.009A5.9,5.9,0,0,0,31.887,7.79,5.808,5.808,0,0,0,29.868,3.389Z" transform="translate(2.285 1.596)" fill="#535a5d" opacity="0.45"/>
        <g id="Group_2826" data-name="Group 2826" transform="translate(0 0)">
          <g id="Group_2825" data-name="Group 2825" transform="translate(19.971 1.922)">
            <path id="Path_6997" data-name="Path 6997" d="M11.917,5.868a5.9,5.9,0,0,1-5.666,5.859c-.1.007-.194.009-.292.009A5.972,5.972,0,0,1,3,10.961,5.841,5.841,0,0,1,5.156.054,5.793,5.793,0,0,1,5.959,0,5.971,5.971,0,0,1,9.9,1.467,5.807,5.807,0,0,1,11.917,5.868Z" transform="translate(0 0)" fill="#fff"/>
          </g>
          <path id="Path_6998" data-name="Path 6998" d="M16.871,0V15.889l-.039-.009q-.819-.179-1.641-.322A39,39,0,0,0,3.361,15.3Q1.673,15.52,0,15.889V.744A9.885,9.885,0,0,0,4.843,2.851a17.834,17.834,0,0,0,3.28.3A14.868,14.868,0,0,0,14.8,1.735a5.876,5.876,0,0,0,1.741-1.3A3.322,3.322,0,0,0,16.871,0Z" transform="translate(7.74 11.318)" fill="#fff"/>
          <path id="Path_6999" data-name="Path 6999" d="M8.951,4.4A5.9,5.9,0,0,1,3.285,10.26c-.1.007-.194.009-.292.009A5.972,5.972,0,0,1,.037,9.494c-.191-.512.333-.788,1.985-.623C7.6,9.431,7.346,3,6.931,0A5.807,5.807,0,0,1,8.951,4.4Z" transform="translate(22.937 3.389)" fill="#dadcdf"/>
          <path id="Path_7000" data-name="Path 7000" d="M16.832,13.685q-.819-.18-1.641-.322a39,39,0,0,0-8.638-.543A3.051,3.051,0,0,1,3.36,9.762c0-1.608.014-3.289.038-3.759a11.1,11.1,0,0,1,1.445-3.9A9.885,9.885,0,0,1,0,0V15.145q1.672-.369,3.361-.588a39,39,0,0,1,11.83.257q.823.144,1.641.322l.039.009V13.694Z" transform="translate(7.74 12.063)" fill="#dadcdf"/>
          <path id="Path_7001" data-name="Path 7001" d="M2.7,0V15.454l-.039-.009q-.819-.179-1.641-.322c.091-3.87.239-9.984.287-11.2A6.855,6.855,0,0,0,.629,1.3C.311.557,0,0,0,0Z" transform="translate(21.912 11.754)" fill="#dadcdf"/>
          <path id="Path_7002" data-name="Path 7002" d="M8.217,6.4a8.254,8.254,0,0,1-1.965,5.269c-.1.007-.194.009-.292.009A5.914,5.914,0,0,1,0,5.814,5.9,5.9,0,0,1,5.156,0,8.572,8.572,0,0,1,8.217,6.4Z" transform="translate(19.971 1.976)" fill="#dadcdf"/>
          <ellipse id="Ellipse_405" data-name="Ellipse 405" cx="5.959" cy="5.868" rx="5.959" ry="5.868" transform="translate(0 1.923)" fill="#fff"/>
          <path id="Path_7003" data-name="Path 7003" d="M2.7,6.02A5.9,5.9,0,0,1,7.642.239,6.043,6.043,0,0,0,5.959,0,5.914,5.914,0,0,0,0,5.868a5.914,5.914,0,0,0,5.959,5.868,6.081,6.081,0,0,0,1.016-.087A5.882,5.882,0,0,1,2.7,6.02Z" transform="translate(0 1.923)" fill="#dadcdf"/>
          <ellipse id="Ellipse_406" data-name="Ellipse 406" cx="10.33" cy="8.38" rx="10.33" ry="8.38" transform="translate(6.149 0)" fill="#fff"/>
          <path id="Path_7004" data-name="Path 7004" d="M4.68,8.6c0-4.141,3.7-7.578,8.569-8.256A12.57,12.57,0,0,0,10.33,0C4.625,0,0,3.752,0,8.38s4.625,8.38,10.33,8.38a12.739,12.739,0,0,0,1.761-.124C7.808,15.614,4.68,12.4,4.68,8.6Z" transform="translate(6.149 0)" fill="#dadcdf"/>
        </g>
      </g>
    </g>
  </g>
</svg>
