<svg xmlns="http://www.w3.org/2000/svg" width="23.084" height="26.812" viewBox="0 0 23.084 26.812">
  <g id="garlic" transform="translate(-98.833 -41)">
    <rect id="Rectangle_17347" data-name="Rectangle 17347" width="4.794" height="7.546" transform="translate(107.967 41)" fill="#dedede"/>
    <path id="Path_8413" data-name="Path 8413" d="M255.723,187.912l-.683-.449-.583.573a16.9,16.9,0,0,0-1.361,1.574l-.53.684.593.63c1.8,1.91,4.716,5.732,4.069,9.874-.377,2.413-1.368,4.122-2.867,4.94l-1.957,1.068,2.092.771a6.874,6.874,0,0,0,2.266.442h0c.047,0,.122.005.22.005a7.223,7.223,0,0,0,3.027-.691c1.547-.739,3.511-2.408,4.079-6.161C265.149,194.193,256.109,188.165,255.723,187.912Z" transform="translate(-142.26 -140.449)" fill="#efefef"/>
    <path id="Path_8414" data-name="Path 8414" d="M85.717,205.739c-1.5-.818-2.49-2.527-2.867-4.94-.647-4.142,2.272-7.964,4.069-9.874l.593-.63-.53-.684a16.886,16.886,0,0,0-1.361-1.574l-.583-.573-.683.449c-.385.253-9.426,6.281-8.368,13.26.569,3.753,2.533,5.422,4.079,6.161a7.224,7.224,0,0,0,3.027.691c.1,0,.173,0,.22-.005h0a6.878,6.878,0,0,0,2.266-.442l2.092-.771Z" transform="translate(22.932 -140.45)" fill="#d4d4d4"/>
    <path id="Path_8415" data-name="Path 8415" d="M164.586,204.351c-.6,3.865-2.453,5.616-3.9,6.405a5.862,5.862,0,0,1-2.678.746h-.039a5.862,5.862,0,0,1-2.678-.746c-1.445-.789-3.293-2.541-3.9-6.405-.78-4.993,2.545-9.4,4.6-11.574a17.43,17.43,0,0,1,1.348-1.3l.64-.538.011-.009.651.547a17.4,17.4,0,0,1,1.348,1.3C162.042,194.956,165.366,199.358,164.586,204.351Z" transform="translate(-47.616 -143.69)" fill="#efefef"/>
    <path id="Path_8416" data-name="Path 8416" d="M262.437,204.35c-.6,3.865-2.453,5.616-3.9,6.405a5.861,5.861,0,0,1-2.678.746h-.03V190.934l.011-.009.651.547a17.4,17.4,0,0,1,1.348,1.3C259.892,194.955,263.216,199.357,262.437,204.35Z" transform="translate(-145.467 -143.689)" fill="#d4d4d4"/>
  </g>
</svg>
