<svg xmlns="http://www.w3.org/2000/svg" width="78.885" height="102.632" viewBox="0 0 78.885 102.632">
  <g id="glass" transform="translate(0.538 0.5)">
    <path id="Path_6646" data-name="Path 6646" d="M23.005,376.271l1.183,16.156L30.435,477.9H93.384l6.247-85.476,1.183-16.156Z" transform="translate(-23.005 -376.271)" fill="none" stroke="#34b1ed" stroke-width="1" opacity="0.7"/>
    <path id="Path_6647" data-name="Path 6647" d="M25.529,386.928l5.826,79.7c18.6-7.988,37.7-7.6,57.228,0l5.826-79.7Z" transform="translate(-21.065 -368.078)" fill="#34b1ed"/>
    <g id="Group_2679" data-name="Group 2679" transform="translate(7.007 56.105)" opacity="0.05">
      <g id="Group_2677" data-name="Group 2677">
        <path id="Path_6664" data-name="Path 6664" d="M26.967,447.742l.423,5.775H90.338l3.327-45.528C84.929,431.855,50.31,447.94,26.967,447.742Z" transform="translate(-26.967 -407.99)" fill="#1d1d1b"/>
      </g>
      <g id="Group_2678" data-name="Group 2678">
        <path id="Path_6665" data-name="Path 6665" d="M26.967,447.742l.423,5.775H90.338l3.327-45.528C84.929,431.855,50.31,447.94,26.967,447.742Z" transform="translate(-26.967 -407.99)" fill="#45ecff" opacity="0.7"/>
      </g>
    </g>
    <g id="Group_2663" data-name="Group 2663" transform="translate(11.482 22.239)">
      <path id="Path_6643" data-name="Path 6643" d="M36.164,392.176a3.333,3.333,0,1,1-3.334-3.332A3.333,3.333,0,0,1,36.164,392.176Z" transform="translate(-29.497 -388.844)" fill="#8fdaff"/>
      <path id="Path_6644" data-name="Path 6644" d="M31.36,391.14c0,.6-.347,1.095-.777,1.095s-.777-.49-.777-1.095.348-1.095.777-1.095S31.36,390.535,31.36,391.14Z" transform="translate(-29.259 -387.921)" fill="#fff"/>
    </g>
    <g id="Group_2664" data-name="Group 2664" transform="translate(13.607 42.723)">
      <circle id="Ellipse_386" data-name="Ellipse 386" cx="1.916" cy="1.916" r="1.916" fill="#8fdaff"/>
      <path id="Path_6645" data-name="Path 6645" d="M31.768,401.745c0,.349-.2.63-.446.63s-.446-.281-.446-.63.2-.63.446-.63S31.768,401.4,31.768,401.745Z" transform="translate(-30.561 -399.894)" fill="#fff"/>
    </g>
    <g id="Group_2665" data-name="Group 2665" transform="translate(64.201 30.526)">
      <circle id="Ellipse_387" data-name="Ellipse 387" cx="1.916" cy="1.916" r="1.916" fill="#8fdaff"/>
      <ellipse id="Ellipse_388" data-name="Ellipse 388" cx="0.446" cy="0.63" rx="0.446" ry="0.63" transform="translate(0.316 1.221)" fill="#fff"/>
    </g>
  </g>
</svg>
