<svg id="Layer_1" data-name="Layer 1" xmlns="http://www.w3.org/2000/svg" xmlns:xlink="http://www.w3.org/1999/xlink" viewBox="0 0 282 124.49"><defs><style>.cls-1{stroke-width:2px;fill:url(#linear-gradient);stroke:url(#linear-gradient-2);}.cls-1,.cls-3,.cls-4{fill-rule:evenodd;}.cls-2{fill:#f47f20;}.cls-3{fill:#887d7a;}.cls-4{fill:#989797;}.cls-5{fill:#c1bfbf;}</style><linearGradient id="linear-gradient" x1="-847.9" y1="1074.14" x2="-847.9" y2="1073.92" gradientTransform="matrix(478, 0, 0, -418.93, 405358, 450016.46)" gradientUnits="userSpaceOnUse"><stop offset="0" stop-color="#ff61ad"/><stop offset="1" stop-color="#ff2719"/></linearGradient><linearGradient id="linear-gradient-2" x1="-847.9" y1="1074.17" x2="-847.9" y2="1073.21" gradientTransform="matrix(478, 0, 0, -418.93, 405358, 450016.46)" gradientUnits="userSpaceOnUse"><stop offset="0" stop-color="#fd4c94"/><stop offset="1" stop-color="red"/></linearGradient></defs><title>Healthkit-to-O2Fit300</title><path id="Health-Icon" class="cls-1" d="M86.42,27.45c-10.58,0-19.13,3.6-24.44,11.29L61.8,39l-.18-.27c-5.3-7.69-13.85-11.29-22.54-11.29A29.6,29.6,0,0,0,9,57.6c0,12.32,5.74,24.75,14.88,35.54A96.89,96.89,0,0,0,61.8,120c12-4.09,26.32-14.43,37-27C108.05,82,114.6,69.39,114.6,57.6a31,31,0,0,0-8.22-21.27A27.39,27.39,0,0,0,86.42,27.45Z" transform="translate(-8 -14.97)"/><g id="O2_Ftt_Layer_5_Clipping_Path" data-name="O2     Ftt + Layer 5 Clipping Path"><path class="cls-2" d="M191.59,101.59h11.76v-28h19.12V62.16H203.35V50.86h19.12V39.29H191.59Zm91.56-63.06H271.6v17h-5.93v10h5.93v36.12h11.55V65.47H290v-10h-6.85Z" transform="translate(-8 -14.97)"/></g><g id="Shape_2" data-name="Shape 2"><path class="cls-3" d="M283,35.41c-4.77-8.92-10.09-12.28-12-13.44s-4,.4-5.62,1.14a1.89,1.89,0,0,0-1.13,2.27s.3,1,.94,2.65c1.58,2.62,3.64,1.09,4.88.38a2.6,2.6,0,0,0,1.12-2.65c0-.72.05-.79.56-.19,1.83,1.61,2.68,4.82,4.32,8.13s-.42,4.92-4.69,3.79A9.94,9.94,0,0,0,262.89,39c-1.36.85-1.27,1.8-5.25,1.89s-5.4.57-9.95,7.19c-7.08,12.58-7.17,23.27-5.44,30.27,3,11.29,18.95,26.57,25.47,37.06,6.89,11.08,7.36,24.06,7.36,24.06,2.53-22-12.87-39.72-21.38-56.2s.79-27.32,2.06-30.08,3.14-5.25,8.63-5.3,6.3-1.56,9-3.4,5.36-1.79,6.75-2.08S285.38,40.22,283,35.41Z" transform="translate(-8 -14.97)"/></g><g id="Shape_3" data-name="Shape 3"><path class="cls-4" d="M239.25,64.35c4.39-17.1,5.46-19.93,1.88-22.32s-11.63,1.42-15.57,15.89c0,0,8.46-13.22,12.57-11.92,3.77,1.4-1.69,12.58-4.5,21s-5.52,17.81,6.75,30.09c6.63,6.41,14.35,9.36,21,15.13C253.13,103.05,230.85,89.25,239.25,64.35Z" transform="translate(-8 -14.97)"/></g><g id="Ellipse_2" data-name="Ellipse 2"><ellipse class="cls-2" cx="240.97" cy="10.13" rx="10.05" ry="10.13"/></g><path class="cls-5" d="M168.13,83.15a1.36,1.36,0,0,0-1.36-1.37H120.26l8.17-8.17a1.36,1.36,0,0,0-1.92-1.92L116,82.18a1.34,1.34,0,0,0,0,1.92l10.49,10.5a1.35,1.35,0,0,0,1,.4,1.36,1.36,0,0,0,1-2.32l-8.18-8.18h46.52A1.35,1.35,0,0,0,168.13,83.15Z" transform="translate(-8 -14.97)"/><path class="cls-5" d="M182.6,54.89,172.1,44.4a1.36,1.36,0,1,0-1.92,1.92l8.18,8.18H131.84a1.37,1.37,0,1,0,0,2.73h46.52l-8.18,8.15a1.36,1.36,0,0,0,1,2.32,1.32,1.32,0,0,0,1-.4l10.5-10.49A1.37,1.37,0,0,0,182.6,54.89Z" transform="translate(-8 -14.97)"/></svg>