<svg id="women_body" xmlns="http://www.w3.org/2000/svg" width="182.944" height="436.968" viewBox="0 0 182.944 436.968">
  <path id="Path_7023" data-name="Path 7023" d="M449.732,380.348a11.416,11.416,0,0,1-3.491-5.306c-.838-2.234-1.536-2.793-3.351-5.445s-4.242-4.121-5.865-5.446a4.782,4.782,0,0,0-2.234-1.117,1.634,1.634,0,0,1,0-1.257c.28-.7-.279-1.954-.7-3.49s-3.072-8.517-4.887-16.2-5.306-28.762-7.679-34.068-4.887-7.54-4.887-7.54-.14-1.117-.558-6.563-2.793-16.755-3.212-23.457-.838-15.917-.558-24.295-1.117-13.823-2.234-16.755-4.468-5.585-8.936-6.842-9.355-3.63-13.4-5.026-6.562-3.491-10.332-5.725-3.351-3.909-3.351-5.864v-8.518a27.774,27.774,0,0,0,4.189-7.54c1.536-4.328.838-6.422.838-6.422a5.167,5.167,0,0,0,4.049-3.77c.838-2.234,2.088-3.328,2.793-5.724.7-2.374-.057-4.874-1.675-5.306a2.7,2.7,0,0,0-3.072,1.256s2.255-11.276-.7-15.917c-3.909-6.143-8.8-9.682-18.291-9.682s-13.94,3.539-17.85,9.682c-2.953,4.641-.7,15.917-.7,15.917a2.7,2.7,0,0,0-3.072-1.256c-1.618.431-2.374,2.932-1.675,5.306.705,2.4,1.955,3.49,2.793,5.724a5.167,5.167,0,0,0,4.049,3.77s-.7,2.095.838,6.422a27.774,27.774,0,0,0,4.189,7.54v8.518c0,1.954.418,3.63-3.351,5.864s-6.283,4.329-10.332,5.725-8.936,3.77-13.4,5.026-7.819,3.91-8.936,6.842-2.513,8.377-2.234,16.755-.14,17.593-.558,24.295-2.793,18.012-3.211,23.457-.559,6.563-.559,6.563-2.514,2.234-4.887,7.54-5.864,26.389-7.679,34.068-4.468,14.661-4.887,16.2-.977,2.792-.7,3.49a1.633,1.633,0,0,1,0,1.257,4.782,4.782,0,0,0-2.234,1.117c-1.622,1.325-4.049,2.793-5.865,5.446s-2.513,3.211-3.351,5.445a11.417,11.417,0,0,1-3.491,5.306c-1.536,1.117-2.653,2.094-2.653,2.094s0,1.675,2.234,1.117a12.433,12.433,0,0,0,5.585-2.793c1.536-1.4,2.513-1.815,3.211-1.257s.433,3,.014,5.516-3.267,17.423-3.267,17.423-.3,2.178.99,2.377,1.984-.462,2.4-1.718,3.736-14.122,3.736-14.122l-1.584,15.345s.1,1.8,1.584,1.881a1.52,1.52,0,0,0,1.781-1.485l2.673-15.542V403.24s.189,2.173,1.782,2.079c1.683-.1,1.683-1.98,1.683-1.98l.891-13.86,1.485,11.88s.1,2.771,1.683,2.574c1.668-.208,1.286-2.771,1.286-2.771V383.342a59.5,59.5,0,0,0,1.011-7.044,36.609,36.609,0,0,0-.419-9.215c-.14-.977-.14-.977.558-2.653s7.4-17.314,9.913-22.619,10.054-23.038,12.008-28.2a35.476,35.476,0,0,0,2.374-9.076,13.163,13.163,0,0,0-.418-5.166s.558-1.256,1.815-11.03,1.815-22.9,1.815-22.9,1.257,13.125,2.653,18.151,3.351,11.03,4.049,13.823,2.234,10.612,2.234,10.612-4.468,7.958-7.26,13.823-8.377,23.6-11.31,37.419c-1.768,8.332-3.079,24.623-1.963,32.163s3.2,28.355,5.15,38.567,3.827,21.538,3.085,28.206a113.182,113.182,0,0,1-3.414,16.979c-1.549,6.19-3.439,15.3-2.005,24.913s6.272,42.842,6.554,44.821,1.358,6.672.588,9.7a21.8,21.8,0,0,1-1.413,4.241,23.465,23.465,0,0,0-.591,2.478,25.452,25.452,0,0,1-2.586,5c-1.418,2.281-2.364,1.8-3.373,4.245s-.669,3.593-.03,4.476A4.012,4.012,0,0,0,321.5,576.3s.221.855,1.835,1.807,2.828,1.6,3.953,1.534,5.6-.033,5.6-.033a2.448,2.448,0,0,0,1.3,1.49c.956.347,4.328.16,5.451.1s1.806-1.835,2.023-2.939a11.648,11.648,0,0,0-.2-3.233,14.592,14.592,0,0,0,.352-3.054c-.053-1.264-1.988-3.636-1.857-7.547a34.668,34.668,0,0,1,1.434-8.578,15.088,15.088,0,0,0-.195-7.291c-.633-2.983-1.723-5.438-1.385-10.313s2.963-18.549,4.046-24.073,2.646-18.012,1.875-25.063-.938-10.7-.428-14.026,1.869-4.769,3.225-8.174,2.149-8.808,3.088-16.3,2.638-21.931,2.621-29.77.572-20.394.766-27.238,4.414-17.854,4.414-17.854l2.77-.14,3.211.14s4.22,11.009,4.414,17.854.783,19.4.766,27.238,1.682,22.278,2.621,29.77,1.732,12.9,3.088,16.3,2.715,4.851,3.225,8.174.343,6.974-.428,14.026.793,19.539,1.875,25.063,3.708,19.2,4.046,24.073-.753,7.33-1.386,10.313a15.1,15.1,0,0,0-.195,7.291,34.664,34.664,0,0,1,1.434,8.578c.13,3.91-1.8,6.283-1.857,7.547a14.6,14.6,0,0,0,.352,3.054,11.648,11.648,0,0,0-.2,3.233c.217,1.1.9,2.877,2.023,2.939s4.5.249,5.451-.1a2.451,2.451,0,0,0,1.3-1.49s4.476-.03,5.6.033,2.339-.582,3.953-1.534,1.835-1.807,1.835-1.807a4.008,4.008,0,0,0,1.873-1.249c.638-.884.979-2.027-.03-4.476s-1.955-1.964-3.373-4.245a25.491,25.491,0,0,1-2.586-5,23.285,23.285,0,0,0-.591-2.478,21.792,21.792,0,0,1-1.413-4.241c-.769-3.025.306-7.719.588-9.7s5.121-35.2,6.554-44.821-.456-18.723-2.005-24.913a113.166,113.166,0,0,1-3.414-16.979c-.741-6.667,1.133-17.994,3.086-28.206s4.033-31.027,5.15-38.567-.195-23.831-1.963-32.163c-2.932-13.823-8.517-31.555-11.31-37.419s-7.26-13.823-7.26-13.823,1.536-7.82,2.234-10.612,2.653-8.8,4.049-13.823,2.653-18.151,2.653-18.151.558,13.125,1.815,22.9,1.815,11.03,1.815,11.03a13.162,13.162,0,0,0-.419,5.166,35.482,35.482,0,0,0,2.374,9.076c1.955,5.166,9.494,22.9,12.008,28.2s9.215,20.944,9.913,22.619.7,1.675.559,2.653a36.559,36.559,0,0,0-.419,9.215,59.663,59.663,0,0,0,1.011,7.044v17.819s-.381,2.563,1.286,2.771c1.584.2,1.683-2.574,1.683-2.574l1.485-11.88.891,13.86s0,1.881,1.683,1.98c1.593.093,1.782-2.079,1.782-2.079V389.183l2.673,15.542a1.52,1.52,0,0,0,1.781,1.485c1.483-.083,1.584-1.881,1.584-1.881l-1.584-15.345s3.317,12.865,3.736,14.122,1.13,1.913,2.4,1.718c1.287-.2.99-2.377.99-2.377s-2.848-14.91-3.267-17.423-.684-4.957.014-5.516,1.675-.139,3.211,1.257a12.433,12.433,0,0,0,5.585,2.793c2.234.558,2.234-1.117,2.234-1.117S451.268,381.464,449.732,380.348Z" transform="translate(-272.431 -144.333)" fill="#9e9e9e"/>
  <path id="Path_7224" data-name="Path 7224" d="M11.026,0A11.026,11.026,0,1,1,0,11.026,11.026,11.026,0,0,1,11.026,0Z" transform="translate(48.422 41.049)" fill="#ff8b00"/>
  <path id="Path_7218" data-name="Path 7218" d="M-2.066.512H-3.131V-6.544l-2.134.785v-.963l3.031-1.136h.168Z" transform="translate(62.885 55.45)" fill="#fff"/>
  <line id="Line_242" data-name="Line 242" x2="87.463" transform="translate(45.742 80.16)" fill="none" stroke="#fff" stroke-width="1"/>
  <circle id="Ellipse_410" data-name="Ellipse 410" cx="11.026" cy="11.026" r="11.026" transform="translate(133.177 62.887)" fill="#ff8b00"/>
  <line id="Line_243" data-name="Line 243" x2="18.715" y2="4.319" transform="translate(38.15 130.625)" fill="none" stroke="#fff" stroke-width="2"/>
  <path id="Path_7219" data-name="Path 7219" d="M-.063.517H-5.519V-.242l2.883-3.2a6.854,6.854,0,0,0,.884-1.182,1.976,1.976,0,0,0,.242-.942A1.5,1.5,0,0,0-1.9-6.641a1.379,1.379,0,0,0-1.052-.418,1.638,1.638,0,0,0-1.228.448,1.717,1.717,0,0,0-.438,1.253h-1.06a2.462,2.462,0,0,1,.741-1.862A2.747,2.747,0,0,1-2.956-7.93a2.633,2.633,0,0,1,1.836.611A2.08,2.08,0,0,1-.445-5.7,4.755,4.755,0,0,1-2.014-2.769L-4.245-.349H-.063Z" transform="translate(146.549 77.282)" fill="#fff"/>
  <path id="Path_7024" data-name="Path 7024" d="M-1466.429,845l17.173,3.908" transform="translate(1506.121 -720.853)" fill="none" stroke="#fff" stroke-width="1" stroke-dasharray="1"/>
  <circle id="Ellipse_411" data-name="Ellipse 411" cx="11.026" cy="11.026" r="11.026" transform="translate(78.736 93.269)" fill="#ff8b00"/>
  <path id="Path_7025" data-name="Path 7025" d="M-1454.5,845.25s28.425,4.911,65.863,0" transform="translate(1511.366 -723.623)" fill="none" stroke="#fff" stroke-width="1"/>
  <path id="Path_7220" data-name="Path 7220" d="M-3.981-4.165h.795a1.751,1.751,0,0,0,1.179-.392,1.313,1.313,0,0,0,.43-1.034A1.3,1.3,0,0,0-3.038-7.058a1.515,1.515,0,0,0-1.093.392,1.372,1.372,0,0,0-.41,1.039H-5.6a2.13,2.13,0,0,1,.723-1.645A2.63,2.63,0,0,1-3.038-7.93a2.6,2.6,0,0,1,1.849.624A2.259,2.259,0,0,1-.522-5.571,1.833,1.833,0,0,1-.873-4.516a2.108,2.108,0,0,1-.958.759,2.058,2.058,0,0,1,1.062.721,2,2,0,0,1,.374,1.23A2.271,2.271,0,0,1-1.126-.028a2.738,2.738,0,0,1-1.9.657,2.817,2.817,0,0,1-1.91-.634,2.1,2.1,0,0,1-.734-1.673h1.06a1.359,1.359,0,0,0,.43,1.052,1.633,1.633,0,0,0,1.149.395,1.6,1.6,0,0,0,1.174-.4,1.543,1.543,0,0,0,.4-1.149A1.406,1.406,0,0,0-1.9-2.9a1.934,1.934,0,0,0-1.286-.4h-.795Z" transform="translate(93.173 107.665)" fill="#fff"/>
  <path id="Path_7026" data-name="Path 7026" d="M-1454.5,847.6s28.425-5.3,65.863,0" transform="translate(1511.366 -726.5)" fill="none" stroke="#fff" stroke-width="1" stroke-dasharray="1"/>
  <circle id="Ellipse_412" data-name="Ellipse 412" cx="11.026" cy="11.026" r="11.026" transform="translate(9.494 112.258)" fill="#ff8b00"/>
  <path id="Path_7027" data-name="Path 7027" d="M-1454.5,845.25s21.261,3.732,49.264,0" transform="translate(1519.682 -681.557)" fill="none" stroke="#fff" stroke-width="1"/>
  <path id="Path_7221" data-name="Path 7221" d="M-1.037-2.287H.119v.861H-1.037V.51H-2.1V-1.426h-3.79v-.622L-2.163-7.82h1.126Zm-3.658,0H-2.1V-6.373l-.127.229Z" transform="translate(22.852 126.661)" fill="#fff"/>
  <path id="Path_7028" data-name="Path 7028" d="M-1454.5,848.4s21.261-7.077,49.264,0" transform="translate(1519.682 -685.225)" fill="none" stroke="#fff" stroke-width="1" stroke-dasharray="1"/>
  <circle id="Ellipse_413" data-name="Ellipse 413" cx="11.026" cy="11.026" r="11.026" transform="translate(78.736 131.342)" fill="#ff8b00"/>
  <path id="Path_7029" data-name="Path 7029" d="M-1454.5,845.25s33.9,10.065,78.556,0" transform="translate(1505.036 -645.392)" fill="none" stroke="#fff" stroke-width="1"/>
  <path id="Path_7222" data-name="Path 7222" d="M-5.056-3.668l.423-4.152H-.364v.978H-3.732l-.255,2.272A2.7,2.7,0,0,1-2.6-4.931,2.3,2.3,0,0,1-.785-4.18a2.947,2.947,0,0,1,.67,2.035A2.84,2.84,0,0,1-.81-.117,2.54,2.54,0,0,1-2.754.622,2.637,2.637,0,0,1-4.557.01a2.437,2.437,0,0,1-.795-1.691h1A1.706,1.706,0,0,0-3.841-.6a1.577,1.577,0,0,0,1.088.364,1.427,1.427,0,0,0,1.159-.5,2.108,2.108,0,0,0,.42-1.391A1.931,1.931,0,0,0-1.63-3.477a1.548,1.548,0,0,0-1.21-.507,1.725,1.725,0,0,0-1.085.306l-.28.229Z" transform="translate(92.128 145.744)" fill="#fff"/>
  <path id="Path_7030" data-name="Path 7030" d="M-1454.5,847.536s33.443-5.143,77.491,0" transform="translate(1505.036 -647.678)" fill="none" stroke="#fff" stroke-width="1" stroke-dasharray="1"/>
  <circle id="Ellipse_414" data-name="Ellipse 414" cx="11.026" cy="11.026" r="11.026" transform="translate(118.723 158.113)" fill="#ff8b00"/>
  <path id="Path_7031" data-name="Path 7031" d="M-1454.5,845.25a132.888,132.888,0,0,0,23.9,0" transform="translate(1532.816 -787.488)" fill="none" stroke="#fff" stroke-width="1"/>
  <path id="Path_7223" data-name="Path 7223" d="M-1.381-7.824v.9h-.194a2.8,2.8,0,0,0-1.969.734,3.058,3.058,0,0,0-.848,2,2.264,2.264,0,0,1,1.8-.759A2.157,2.157,0,0,1-.856-4.19,2.971,2.971,0,0,1-.209-2.205,2.941,2.941,0,0,1-.909-.15,2.411,2.411,0,0,1-2.787.622,2.381,2.381,0,0,1-4.728-.3a3.633,3.633,0,0,1-.744-2.364v-.408a5.489,5.489,0,0,1,.981-3.515A3.593,3.593,0,0,1-1.569-7.824ZM-2.771-4.075a1.687,1.687,0,0,0-1,.326,1.7,1.7,0,0,0-.637.82v.387A2.739,2.739,0,0,0-3.943-.878a1.39,1.39,0,0,0,1.156.629A1.346,1.346,0,0,0-1.663-.776a2.181,2.181,0,0,0,.41-1.378,2.19,2.19,0,0,0-.415-1.391A1.331,1.331,0,0,0-2.771-4.075Z" transform="translate(132.108 172.515)" fill="#fff"/>
  <path id="Path_7032" data-name="Path 7032" d="M-1454.5,845.25s28.425,4.93,65.863,0" transform="translate(1511.366 -664.515)" fill="none" stroke="#fff" stroke-width="1"/>
  <circle id="Ellipse_415" data-name="Ellipse 415" cx="11.026" cy="11.026" r="11.026" transform="translate(104.439 204.796)" fill="#ff8b00"/>
  <path id="Path_7033" data-name="Path 7033" d="M-1454.5,847.862s28.425-5.878,65.863,0" transform="translate(1511.366 -667.649)" fill="none" stroke="#fff" stroke-width="1" stroke-dasharray="1"/>
  <path id="Path_7225" data-name="Path 7225" d="M-.134-7.224-3.587.51H-4.7l3.439-7.458H-5.768V-7.82H-.134Z" transform="translate(118.87 220.264)" fill="#fff"/>
  <path id="Path_7034" data-name="Path 7034" d="M-1454.5,847.546s16.6-5.166,38.472,0" transform="translate(1550.712 -585.365)" fill="none" stroke="#fff" stroke-width="1" stroke-dasharray="1"/>
  <circle id="Ellipse_423" data-name="Ellipse 423" cx="11.026" cy="11.026" r="11.026" transform="translate(160.893 189.884)" fill="#ff900d"/>
  <path id="Path_7035" data-name="Path 7035" d="M-1454.5,845.25s15.948,4.42,36.954,0" transform="translate(1550.712 -583.069)" fill="none" stroke="#fff" stroke-width="1"/>
  <path id="Path_7226" data-name="Path 7226" d="M-1.466-3.146a2.552,2.552,0,0,1-.792.637A2.161,2.161,0,0,1-3.27-2.27a2.218,2.218,0,0,1-1.253-.354,2.308,2.308,0,0,1-.828-1,3.4,3.4,0,0,1-.293-1.424,3.447,3.447,0,0,1,.318-1.5,2.352,2.352,0,0,1,.9-1.024A2.56,2.56,0,0,1-3.061-7.93,2.325,2.325,0,0,1-1.115-7,4.026,4.026,0,0,1-.4-4.486v.311a5.4,5.4,0,0,1-.96,3.551A3.679,3.679,0,0,1-4.263.522h-.2V-.37h.219A2.926,2.926,0,0,0-2.23-1.055,2.931,2.931,0,0,0-1.466-3.146Zm-1.63,0a1.635,1.635,0,0,0,.983-.326,1.91,1.91,0,0,0,.652-.8V-4.7a2.923,2.923,0,0,0-.451-1.7,1.346,1.346,0,0,0-1.144-.652,1.358,1.358,0,0,0-1.121.535A2.21,2.21,0,0,0-4.6-5.1,2.3,2.3,0,0,0-4.192-3.7,1.294,1.294,0,0,0-3.1-3.146Z" transform="translate(175.332 204.279)" fill="#fff"/>
  <line id="Line_244" data-name="Line 244" y1="4.495" x2="11.394" transform="translate(150.985 215.947)" fill="none" stroke="#fff" stroke-width="2"/>
  <path id="Path_7036" data-name="Path 7036" d="M0,0,13.246,3.908" transform="translate(148.651 216.608) rotate(-41)" fill="none" stroke="#fff" stroke-width="1" stroke-dasharray="1"/>
  <circle id="Ellipse_441" data-name="Ellipse 441" cx="11.026" cy="11.026" r="11.026" transform="translate(104.439 269.771)" fill="#ff8b00"/>
  <path id="Path_7227" data-name="Path 7227" d="M-.472-5.637A1.923,1.923,0,0,1-.8-4.529a2.258,2.258,0,0,1-.891.762A2.4,2.4,0,0,1-.661-2.95,2.054,2.054,0,0,1-.278-1.73,2.169,2.169,0,0,1-1.01-.011,2.808,2.808,0,0,1-2.928.629,2.8,2.8,0,0,1-4.853-.013,2.181,2.181,0,0,1-5.577-1.73a2.118,2.118,0,0,1,.369-1.22,2.3,2.3,0,0,1,1.021-.823,2.19,2.19,0,0,1-.876-.762,1.958,1.958,0,0,1-.321-1.1,2.159,2.159,0,0,1,.675-1.673,2.531,2.531,0,0,1,1.78-.619,2.535,2.535,0,0,1,1.775.619A2.151,2.151,0,0,1-.472-5.637Zm-.866,3.882a1.536,1.536,0,0,0-.443-1.139,1.569,1.569,0,0,0-1.156-.441A1.542,1.542,0,0,0-4.086-2.9a1.557,1.557,0,0,0-.43,1.144A1.482,1.482,0,0,0-4.1-.64a1.609,1.609,0,0,0,1.169.408,1.6,1.6,0,0,0,1.167-.41A1.479,1.479,0,0,0-1.338-1.755Zm-1.589-5.3a1.362,1.362,0,0,0-1.011.387,1.423,1.423,0,0,0-.385,1.049A1.409,1.409,0,0,0-3.944-4.6a1.354,1.354,0,0,0,1.016.39A1.355,1.355,0,0,0-1.914-4.6a1.4,1.4,0,0,0,.382-1.026,1.412,1.412,0,0,0-.395-1.037A1.347,1.347,0,0,0-2.928-7.058Z" transform="translate(117.817 284.167)" fill="#fff"/>
</svg>
