<svg xmlns="http://www.w3.org/2000/svg" width="21.421" height="19.257" viewBox="0 0 21.421 19.257">
  <g id="Group_3625" data-name="Group 3625" transform="translate(-666.333 -726.847)">
    <path id="Path_8454" data-name="Path 8454" d="M669.747,748.085a.974.974,0,0,0,.2.242,1.691,1.691,0,0,0,.428.27,5.05,5.05,0,0,0,.972.307,16.055,16.055,0,0,0,2.07.3c.8.071,1.691.11,2.635.11a25.146,25.146,0,0,0,4.222-.315q.414-.074.758-.165c.171-.045.329-.094.474-.148a2.2,2.2,0,0,0,.579-.3,1.043,1.043,0,0,0,.245-.262.8.8,0,0,0,.13-.433V742.12a5.183,5.183,0,0,0,4.3-4.754.581.581,0,0,0-.541-.619c-.012,0-.024,0-.036,0a.58.58,0,0,0-.583.539,4.022,4.022,0,0,1-3.755,3.736.581.581,0,0,0-.544.58v5.909l-.055.027a3.985,3.985,0,0,1-.742.229,14.929,14.929,0,0,1-1.915.277c-.76.067-1.621.106-2.532.106a24.077,24.077,0,0,1-4.018-.3c-.251-.045-.475-.094-.665-.144-.143-.038-.266-.077-.367-.114a1.593,1.593,0,0,1-.2-.085V741.6a.581.581,0,0,0-.544-.58,4.022,4.022,0,1,1,1.724-7.758.581.581,0,0,0,.7-.223,4.051,4.051,0,0,1,1.425-1.323,4.025,4.025,0,0,1,3.883,0,4.048,4.048,0,0,1,1.425,1.323.581.581,0,0,0,.7.223,4.021,4.021,0,0,1,4.316.907.579.579,0,0,0,.793.025c.01-.008.02-.015.029-.024a.581.581,0,0,0,0-.822,8.2,8.2,0,0,1-6.7-2.649,12.048,12.048,0,0,1-8.035,1.124,5.184,5.184,0,0,0-.876,10.294v5.571A.8.8,0,0,0,669.747,748.085Z" transform="translate(1 -3.212)" fill="#28b1bb"/>
    <path id="Path_8455" data-name="Path 8455" d="M1348.61,887.367c.017.039.033.078.048.118a.58.58,0,0,0,.718.339c.012,0,.024-.005.036-.01a.581.581,0,0,0,.329-.753c-.02-.051-.041-.1-.062-.152a.581.581,0,0,0-.763-.305c-.012.005-.022.013-.033.018A.58.58,0,0,0,1348.61,887.367Z" transform="translate(-664.591 -154.023)" fill="#28b1bb"/>
  </g>
</svg>
