<svg xmlns="http://www.w3.org/2000/svg" width="26.969" height="27.002" viewBox="0 0 26.969 27.002">
  <g id="kiwi" transform="translate(-1.729 -1.667)">
    <path id="Path_8417" data-name="Path 8417" d="M17.762,28.669c-21.377,0-21.377-27,0-27v27" transform="translate(0 0)" fill="#9e7658"/>
    <ellipse id="Ellipse_561" data-name="Ellipse 561" cx="10.936" cy="13.501" rx="10.936" ry="13.501" transform="translate(6.826 1.667)" fill="#89664c"/>
    <ellipse id="Ellipse_562" data-name="Ellipse 562" cx="10.306" cy="12.736" rx="10.306" ry="12.736" transform="translate(7.456 2.432)" fill="#b2d921"/>
    <ellipse id="Ellipse_563" data-name="Ellipse 563" cx="9.001" cy="11.116" rx="9.001" ry="11.116" transform="translate(8.761 4.052)" fill="#c7e755"/>
    <path id="Path_8419" data-name="Path 8419" d="M32.266,20.381l-3.645.765,2.835,2.925L27.991,22.5l1.26,4.275-2.34-3.465-.63,4.455-.675-4.455-2.34,3.465,1.26-4.275L21.06,24.071,23.9,21.146l-3.645-.765,3.645-.765L21.06,16.69l3.465,1.575-1.26-4.275,2.34,3.465L26.281,13l.63,4.455,2.34-3.465-1.26,4.275,3.465-1.575-2.835,2.925Z" transform="translate(-8.519 -5.213)" fill="#ecffad"/>
    <path id="Path_8420" data-name="Path 8420" d="M28.93,14.5l-.18,1.08.585.855.18-1.08Z" transform="translate(-12.428 -5.902)" fill="#3e4347"/>
    <path id="Path_8421" data-name="Path 8421" d="M26.808,11.667l-.225,1.08.585.855.225-1.08Z" transform="translate(-11.432 -4.599)" fill="#3e4347"/>
    <path id="Path_8422" data-name="Path 8422" d="M33.772,14.083l-.765.585-.09,1.125.765-.63Z" transform="translate(-14.345 -5.711)" fill="#3e4347"/>
    <path id="Path_8423" data-name="Path 8423" d="M33.168,37.185l.225-1.08-.63-.855-.18,1.08Z" transform="translate(-14.191 -15.446)" fill="#3e4347"/>
    <path id="Path_8424" data-name="Path 8424" d="M35.3,40.019l.18-1.08-.585-.855-.225,1.08Z" transform="translate(-15.15 -16.749)" fill="#3e4347"/>
    <path id="Path_8425" data-name="Path 8425" d="M28.25,37.793l.765-.585.09-1.125-.765.63Z" transform="translate(-12.198 -15.829)" fill="#3e4347"/>
    <path id="Path_8426" data-name="Path 8426" d="M39.908,23.642l-.855-.225-.72.72.9.225Z" transform="translate(-16.836 -10.004)" fill="#3e4347"/>
    <path id="Path_8427" data-name="Path 8427" d="M42.242,21.02l-.9-.27-.675.72.855.27Z" transform="translate(-17.909 -8.777)" fill="#3e4347"/>
    <path id="Path_8428" data-name="Path 8428" d="M40.433,29.618l-.45-.945-.9-.09.45.945Z" transform="translate(-17.181 -12.38)" fill="#3e4347"/>
    <path id="Path_8429" data-name="Path 8429" d="M21.5,28.887l.9.225.675-.72-.9-.225Z" transform="translate(-9.094 -12.188)" fill="#3e4347"/>
    <path id="Path_8430" data-name="Path 8430" d="M19.25,31.47l.855.27.675-.72-.855-.27Z" transform="translate(-8.059 -13.376)" fill="#3e4347"/>
    <path id="Path_8431" data-name="Path 8431" d="M21.167,22.833l.45.945.9.09-.45-.945Z" transform="translate(-8.94 -9.735)" fill="#3e4347"/>
    <path id="Path_8432" data-name="Path 8432" d="M38.26,18.833l-.9.27-.36.99.855-.225Z" transform="translate(-16.223 -7.896)" fill="#3e4347"/>
    <path id="Path_8433" data-name="Path 8433" d="M39.382,15.25l-.855.27-.36,1.035.855-.27Z" transform="translate(-16.759 -6.247)" fill="#3e4347"/>
    <path id="Path_8434" data-name="Path 8434" d="M22.333,36.972l.855-.27.405-1.035-.9.27Z" transform="translate(-9.477 -15.638)" fill="#3e4347"/>
    <path id="Path_8435" data-name="Path 8435" d="M25,16.917,25.225,18l.81.45-.18-1.08Z" transform="translate(-10.703 -7.014)" fill="#3e4347"/>
    <path id="Path_8436" data-name="Path 8436" d="M22.167,15.5l.18,1.08.855.45-.225-1.08Z" transform="translate(-9.4 -6.362)" fill="#3e4347"/>
    <path id="Path_8437" data-name="Path 8437" d="M39.74,36.53l-.18-1.08L38.75,35l.18,1.08Z" transform="translate(-17.028 -15.331)" fill="#3e4347"/>
  </g>
</svg>
