<svg xmlns="http://www.w3.org/2000/svg" width="293" height="164.235" viewBox="0 0 293 164.235">
  <g id="lang_top" data-name="lang top" transform="translate(-34.5 -31.637)">
    <path id="Shape" d="M58.3,0A58.326,58.326,0,0,0,1.12,69.874v.117a1.768,1.768,0,0,0,.253.894,58.326,58.326,0,0,0,82.2,39.934,74.851,74.851,0,0,0,31.3,5.833,1.944,1.944,0,0,0,1.089-3.441c-6.3-5.21-9.06-14.056-10.168-21.036A58.323,58.323,0,0,0,58.3,0Zm54.126,52.493H83.106a4.841,4.841,0,0,1-4.821-4.86,8.729,8.729,0,0,0-8.71-8.749H67.319a4.861,4.861,0,1,1,0-9.721H78.6a8.749,8.749,0,0,0,8.71-8.749,4.822,4.822,0,0,1,4.627-4.86,54.437,54.437,0,0,1,20.492,36.939ZM11.19,31.107H40.353a4.861,4.861,0,1,1,0,9.721H31.235a8.749,8.749,0,0,0,0,17.5H49.277a4.861,4.861,0,1,1,0,9.721H4.755A54.03,54.03,0,0,1,11.19,31.107Zm-5.6,40.828H49.277a8.749,8.749,0,0,0,0-17.5H31.235a4.86,4.86,0,1,1,0-9.721h9.021a8.749,8.749,0,0,0,0-17.5H13.582A54.437,54.437,0,0,1,88.005,12.754a8.612,8.612,0,0,0-4.588,7.66,4.841,4.841,0,0,1-4.822,4.86H67.319a8.749,8.749,0,0,0,0,17.5h2.255A4.841,4.841,0,0,1,74.4,47.633a8.749,8.749,0,0,0,8.71,8.749h29.629a53.409,53.409,0,0,1-1.672,15.553H74.124a8.73,8.73,0,0,0-8.71,8.749,4.841,4.841,0,0,1-4.86,4.861H49.277a8.65,8.65,0,0,0-6.163,2.566,8.768,8.768,0,0,0,6.163,14.931h2.255a4.841,4.841,0,0,1,4.822,4.86v4.86A54.437,54.437,0,0,1,5.591,71.935Zm104.5,40.828c-15.359-.564-25.547-5.988-26.616-5.988-1.5,0-8.982,5.4-23.33,5.833v-4.7a8.749,8.749,0,0,0-8.613-8.749H49.277a4.861,4.861,0,0,1,0-9.721H60.554a8.749,8.749,0,0,0,8.71-8.749,4.861,4.861,0,0,1,4.822-4.86h35.773a54.008,54.008,0,0,1-7.777,14.717,1.944,1.944,0,0,0-.35,1.439c1.089,6.357,3.325,14.64,8.36,20.783Z" transform="translate(129.036 79.186)" fill="#ff900d"/>
    <path id="Path_3441" data-name="Path 3441" d="M548.241,218.612a6.96,6.96,0,0,0-5.255,2.394,5.566,5.566,0,0,0-7.569-4.573,7.516,7.516,0,0,0-10.211-6.6,14.293,14.293,0,0,0-26.3,5.72,10.267,10.267,0,0,0-12.559,12.823h68.292a6.976,6.976,0,0,0-6.4-9.769Z" transform="translate(-228.221 -118.43)" fill="none" stroke="#bebebe" stroke-width="1"/>
    <path id="Path_3442" data-name="Path 3442" d="M100.729,208.134a8.225,8.225,0,0,0-6.212,2.832,6.58,6.58,0,0,0-8.949-5.407,8.886,8.886,0,0,0-12.072-7.8,16.9,16.9,0,0,0-31.1,6.762,12.141,12.141,0,0,0-14.848,15.161h80.741a8.249,8.249,0,0,0-7.563-11.55Z" transform="translate(7.95 -67.624)" fill="none" stroke="#bebebe" stroke-width="1"/>
    <path id="Path_3443" data-name="Path 3443" d="M649.895,161.605a9.918,9.918,0,0,1,7.492,3.415,7.936,7.936,0,0,1,10.793-6.521,10.718,10.718,0,0,1,14.559-9.4,20.379,20.379,0,0,1,37.5,8.154,14.641,14.641,0,0,1,17.907,18.285H640.775a9.947,9.947,0,0,1,9.12-13.929Z" transform="translate(-506.461 -107.362)" fill="none" stroke="#bebebe" stroke-width="1"/>
  </g>
</svg>
