<svg xmlns="http://www.w3.org/2000/svg" width="191.467" height="108.28" viewBox="0 0 191.467 108.28">
  <g id="logo_lang" transform="translate(-160.6 -152.43)">
    <g id="O2_Ftt_Layer_5_Clipping_Path" data-name="O2     Ftt + Layer 5 Clipping Path" transform="translate(266.472 172.92)">
      <g id="Group_2911" data-name="Group 2911" transform="translate(0 0)">
        <path id="Path_7230" data-name="Path 7230" d="M402.041,274.4h10.23V250.011H428.9V240.1H412.271v-9.835H428.9V220.211H402.041Zm79.633-54.849H471.628v14.771h-5.152v8.657h5.152V274.4h10.046V242.976h5.962v-8.657h-5.962Z" transform="translate(-402.041 -219.548)" fill="#fff"/>
      </g>
    </g>
    <g id="Shape_2" data-name="Shape 2" transform="translate(309.726 158.158)">
      <g id="Group_2912" data-name="Group 2912" transform="translate(0 0)">
        <path id="Path_7231" data-name="Path 7231" d="M521.547,203.166c-4.145-7.753-8.77-10.677-10.442-11.684s-3.495.348-4.894.987a1.639,1.639,0,0,0-.979,1.975s.257.9.815,2.3c1.375,2.285,3.167.952,4.242.329a2.247,2.247,0,0,0,.979-2.3c-.013-.623.04-.686.489-.165,1.591,1.4,2.325,4.2,3.753,7.076s-.367,4.279-4.079,3.291a8.662,8.662,0,0,0-7.342,1.316c-1.183.741-1.1,1.563-4.568,1.646s-4.69.493-8.647,6.253c-6.159,10.943-6.241,20.241-4.732,26.33,2.6,9.813,16.479,23.1,22.15,32.226,5.989,9.635,6.4,20.926,6.4,20.926,2.2-19.089-11.2-34.546-18.6-48.874s.694-23.767,1.795-26.165,2.733-4.569,7.5-4.608,5.48-1.36,7.831-2.962,4.665-1.552,5.874-1.81S523.653,207.354,521.547,203.166Z" transform="translate(-485.33 -191.122)" fill="#fff" fill-rule="evenodd"/>
      </g>
    </g>
    <g id="Shape_3" data-name="Shape 3" transform="translate(296.018 175.385)">
      <g id="Group_2913" data-name="Group 2913" transform="translate(0 0)">
        <path id="Path_7232" data-name="Path 7232" d="M470.846,244.289c3.818-14.875,4.748-17.337,1.631-19.418s-10.115,1.234-13.541,13.823c0,0,7.361-11.5,10.931-10.367,3.284,1.216-1.469,10.943-3.916,18.266s-4.793,15.487,5.874,26.165c5.772,5.577,12.481,8.146,18.272,13.165C482.919,277.942,463.54,265.939,470.846,244.289Z" transform="translate(-458.936 -224.295)" fill="#fff" fill-rule="evenodd"/>
      </g>
    </g>
    <g id="Ellipse_2" data-name="Ellipse 2" transform="translate(307.641 152.43)">
      <g id="Group_2914" data-name="Group 2914" transform="translate(0 0)">
        <ellipse id="Ellipse_443" data-name="Ellipse 443" cx="8.739" cy="8.813" rx="8.739" ry="8.813" fill="#fff"/>
      </g>
    </g>
    <path id="Path_7234" data-name="Path 7234" d="M210.721,245.95a43.4,43.4,0,1,1,27.825-76.7,43.589,43.589,0,0,1,5.9-.217,12.586,12.586,0,0,1,4.05.705,50.043,50.043,0,1,0,5.1,58.435H245.75A43.335,43.335,0,0,1,210.721,245.95Z" transform="translate(0 0)" fill="#fff"/>
    <path id="Path_7235" data-name="Path 7235" d="M367.682,219.116q.974,1.771,1.784,3.64A7.362,7.362,0,0,0,367.682,219.116Z" transform="translate(-116.277 -37.444)" fill="#fff"/>
    <path id="Path_7236" data-name="Path 7236" d="M323.683,234.493q1.328-1.173,2.643-2.36c.668-.605,1.334-1.212,1.98-1.84.975-.947,1.936-1.91,2.9-2.872.851-.852,1.733-1.679,2.588-2.527.681-.676,1.346-1.365,1.956-2.1a34.339,34.339,0,0,0,3.123-4.749,13.449,13.449,0,0,0,.928-1.962,17.564,17.564,0,0,0,1.065-5.694c.041-1.219-.2-2.444-.255-3.669a17.511,17.511,0,0,0-1.369-5.546,12.74,12.74,0,0,0-2.35-3.98,26.059,26.059,0,0,0-3.029-3.279,15.611,15.611,0,0,0-4.941-2.7l-.733-.225a12.585,12.585,0,0,0-4.05-.705,43.586,43.586,0,0,0-5.9.217c-.069.011-.137.018-.206.031a18.835,18.835,0,0,0-5.82,2.034,17.367,17.367,0,0,0-5.038,4.253,16.983,16.983,0,0,0-3.109,5.541,31.74,31.74,0,0,0-1.114,4.31c-.258,1.519-.3,3.076-.431,4.634h10.51a19.783,19.783,0,0,1,1.06-5.8,8.359,8.359,0,0,1,3.642-4.362,8.779,8.779,0,0,1,4.686-.987,8.254,8.254,0,0,1,6.047,2.772,7.364,7.364,0,0,1,1.784,3.64c.028.15.059.3.079.452a10.374,10.374,0,0,1-.615,5.318,17.075,17.075,0,0,1-3.375,5.206q-1.992,2.148-4.089,4.2-3.467,3.391-7,6.716c-1.932,1.827-3.9,3.62-5.849,5.426-1.892,1.751-3.775,3.51-5.69,5.236a.969.969,0,0,0-.372.82c.011,2.962.006,5.924.008,8.886,0,.2.027.409.04.6h37.452v-9.881H318.343a4.124,4.124,0,0,1,.592-.856C320.5,237.274,322.1,235.891,323.683,234.493Z" transform="translate(-79.685 -21.255)" fill="#fff"/>
  </g>
</svg>
