<svg xmlns="http://www.w3.org/2000/svg" width="19.105" height="33" viewBox="0 0 19.105 33">
  <g id="milk-svgrepo-com" transform="translate(-10.526)">
    <path id="Path_8155" data-name="Path 8155" d="M18.632,38.368l-8.105-3.474V15.789l8.105,2.895Z" transform="translate(0 -5.368)" fill="#c6c6c6"/>
    <path id="Path_8156" data-name="Path 8156" d="M33.807,35.474l-11,2.895V18.684l11-2.895Z" transform="translate(-4.175 -5.368)" fill="#e6e6e6"/>
    <path id="Path_8157" data-name="Path 8157" d="M27.667,2.316l-11,2.316V2.316L27.667,0Z" transform="translate(-2.088)" fill="#e2e2e2"/>
    <path id="Path_8158" data-name="Path 8158" d="M18.632,15.7l-8.105-2.895,4.053-5.789h0Z" transform="translate(0 -2.386)" fill="#d1d1d1"/>
    <path id="Path_8159" data-name="Path 8159" d="M31.719,11.614l-11,2.895L16.667,5.825l11-2.316Z" transform="translate(-2.088 -1.193)" fill="#eaeaea"/>
    <path id="Path_8160" data-name="Path 8160" d="M33.807,27.684l-11,8.684V27.684l11-9.263Z" transform="translate(-4.175 -6.263)" fill="#3dabef"/>
    <path id="Path_8161" data-name="Path 8161" d="M10.526,35.877l8.105,3.474V30.667l-8.105-3.474Z" transform="translate(0 -9.246)" fill="#2b9dd6"/>
    <path id="Path_8162" data-name="Path 8162" d="M28.952,12.752h0c-1.284.336-1.711-.824-1.913-1.594h0c-.2-.77-.4-1.991.888-2.327h0c1.284-.336,1.711.824,1.913,1.594h0C30.041,11.2,30.236,12.416,28.952,12.752Z" transform="translate(-5.564 -2.982)" fill="#fff"/>
    <path id="Path_8163" data-name="Path 8163" d="M29.825,2.929l1.158-.244V.369L29.825.613Z" transform="translate(-6.561 -0.126)" fill="#ededed"/>
    <path id="Path_8164" data-name="Path 8164" d="M26.316,3.667l1.158-.244V1.108l-1.158.244Z" transform="translate(-5.368 -0.377)" fill="#ededed"/>
    <path id="Path_8165" data-name="Path 8165" d="M22.807,4.406l1.158-.244V1.846l-1.158.244Z" transform="translate(-4.175 -0.628)" fill="#ededed"/>
    <path id="Path_8166" data-name="Path 8166" d="M19.3,5.145,20.456,4.9V2.585L19.3,2.829Z" transform="translate(-2.982 -0.879)" fill="#ededed"/>
  </g>
</svg>
