<svg xmlns="http://www.w3.org/2000/svg" width="46" height="40" viewBox="0 0 46 40">
  <g id="no_avatar" transform="translate(-4.031 19)">
    <path id="Path_8079" data-name="Path 8079" d="M23,26.331C10.3,26.331,0,37.107,0,50.4a24.658,24.658,0,0,0,5.214,15.26c.5-4.211,4.522-7.773,10.159-9.46a10.633,10.633,0,0,0,15.113.146c5.685,1.834,9.618,5.6,9.748,9.986A24.62,24.62,0,0,0,46,50.4C46,37.107,35.7,26.331,23,26.331Zm0,30.244a7.939,7.939,0,0,1-4.08-1.153,11.014,11.014,0,0,1-5-9.535C13.921,39.993,17.994,35.2,23,35.2s9.079,4.795,9.079,10.689A10.975,10.975,0,0,1,26.943,55.5,7.915,7.915,0,0,1,23,56.575Z" transform="translate(4.031 -45.331)" fill="#9e9e9e"/>
  </g>
</svg>
