<?xml version="1.0" encoding="utf-8"?>
<!-- Generator: Adobe Illustrator 23.1.0, SVG Export Plug-In . SVG Version: 6.00 Build 0)  -->
<svg version="1.1" id="icons" xmlns="http://www.w3.org/2000/svg" xmlns:xlink="http://www.w3.org/1999/xlink" x="0px" y="0px"
	 viewBox="0 0 35.5 35.5" style="enable-background:new 0 0 35.5 35.5;" xml:space="preserve">
<style type="text/css">
	.st0{fill:#262626;}
	.st1{fill:#BDBDBD;}
	.st2{fill:#546E7A;}
	.st3{fill:#455A64;}
</style>
<title>Driving</title>
<g>
	<path class="st0" d="M3.1,20.8H1.8c-0.4,0-0.7-0.2-0.7-0.5v-3.1c0-0.3,0.3-0.5,0.7-0.5h1.3L3.1,20.8L3.1,20.8z"/>
	<path class="st1" d="M11.5,17.4h12.4v2.7H11.5L11.5,17.4z"/>
	<g>
		<path class="st2" d="M6.4,24.3H4.1c-0.5,0-1-0.3-1-0.7V13.5c0-0.4,0.4-0.7,1-0.7h2.3c0.5,0,1,0.3,1,0.7v10.1
			C7.4,24,6.9,24.3,6.4,24.3z"/>
		<path class="st3" d="M6.4,12.7H4.3c0.5,0,1,0.3,1,0.7v10.1c0,0.4-0.4,0.7-1,0.7h2.1c0.5,0,1-0.3,1-0.7V13.5
			C7.4,13.1,6.9,12.7,6.4,12.7z"/>
		<path class="st3" d="M31.3,24.3H29c-0.5,0-1-0.3-1-0.7V13.5c0-0.4,0.4-0.7,1-0.7h2.3c0.5,0,1,0.3,1,0.7v10.1
			C32.3,24,31.8,24.3,31.3,24.3z"/>
		<path class="st2" d="M31.3,12.7h-2.1c0.5,0,1,0.3,1,0.7v10.1c0,0.4-0.4,0.7-1,0.7h2.1c0.5,0,1-0.3,1-0.7V13.5
			C32.3,13.1,31.8,12.7,31.3,12.7z"/>
		<path class="st2" d="M11.3,25.9H8.6c-0.8,0-1.5-0.5-1.5-1.1V12.3c0-0.6,0.7-1.1,1.5-1.1h2.7c0.8,0,1.5,0.5,1.5,1.1v12.5
			C12.7,25.4,12.1,25.9,11.3,25.9z"/>
		<path class="st2" d="M26.8,25.9h-2.7c-0.8,0-1.5-0.5-1.5-1.1V12.3c0-0.6,0.7-1.1,1.5-1.1h2.7c0.8,0,1.5,0.5,1.5,1.1v12.5
			C28.3,25.4,27.6,25.9,26.8,25.9z"/>
	</g>
	<path class="st0" d="M33.6,20.8h-1.3v-4.1h1.3c0.4,0,0.7,0.2,0.7,0.5v3.1C34.3,20.6,34,20.8,33.6,20.8z"/>
</g>
</svg>
