<svg xmlns="http://www.w3.org/2000/svg" width="176.639" height="185.821" viewBox="0 0 176.639 185.821">
  <g id="reciep_design" transform="translate(-87.439 -166.253)">
    <g id="Group_2804" data-name="Group 2804" transform="translate(-50.772 70.855)">
      <g id="Group_2786" data-name="Group 2786" transform="translate(178.397 163.577)">
        <g id="Group_2778" data-name="Group 2778">
          <g id="Group_2762" data-name="Group 2762" transform="translate(117.071 56.929)">
            <g id="Group_2760" data-name="Group 2760" transform="translate(0 0.213)">
              <path id="Path_6955" data-name="Path 6955" d="M268.873,199.122l7.815-2.2a8.49,8.49,0,0,1,1.435-.332c.717.079,1.111,1.827.394,2.556a13.9,13.9,0,0,1-6.479,3.535,1.342,1.342,0,0,1-.339.043h-9.274a3.553,3.553,0,0,1-2.911-1.459v-.854C261.667,200.423,267.033,201.058,268.873,199.122Z" transform="translate(-259.514 -196.588)" fill="#231f20"/>
            </g>
            <g id="Group_2761" data-name="Group 2761">
              <path id="Path_6956" data-name="Path 6956" d="M270.535,196.44h7.085a1.138,1.138,0,0,1,.9,1.918,13.9,13.9,0,0,1-6.479,3.533,1.341,1.341,0,0,1-.339.043h-9.274a3.553,3.553,0,0,1-2.911-1.459C263.769,199.964,267.759,199.36,270.535,196.44Z" transform="translate(-259.514 -196.44)" fill="#3d3230"/>
            </g>
          </g>
          <g id="Group_2763" data-name="Group 2763" transform="translate(10.836 38.978)">
            <path id="Path_6957" data-name="Path 6957" d="M303.929,184v52.11c0,9.078-6.369,13.523-14.366,14.912l-.992.172q-11.171,1.892-22.471,2.822-3.438.286-6.884.476a263.573,263.573,0,0,1-45.508-1.394c-11.207-1.321-27.8-1.668-27.8-16.987V184Z" transform="translate(-185.905 -184.002)" fill="#6d6e71"/>
          </g>
          <g id="Group_2764" data-name="Group 2764" transform="translate(91.031 38.978)">
            <path id="Path_6958" data-name="Path 6958" d="M279.3,184v52.11c0,9.078-6.369,13.523-14.366,14.912l-.992.172q-11.171,1.892-22.471,2.822l.143-.224a79.43,79.43,0,0,0,12.663-43.027V184Z" transform="translate(-241.471 -184.002)" fill="#3f3f3f"/>
          </g>
          <g id="Group_2765" data-name="Group 2765" transform="translate(10.836 31.06)">
            <path id="Path_6959" data-name="Path 6959" d="M304.155,186.434c0,1.907-5.024,3.653-13.393,5.02-3.37.551-7.283,1.039-11.631,1.45-9.637.912-21.4,1.449-34.1,1.449s-24.464-.537-34.1-1.449c-4.347-.411-8.261-.9-11.63-1.45-8.369-1.367-13.393-3.113-13.393-5.02,0-4.373,26.473-7.918,59.125-7.918S304.155,182.061,304.155,186.434Z" transform="translate(-185.905 -178.516)" fill="#a7a9ac"/>
          </g>
          <g id="Group_2766" data-name="Group 2766" transform="translate(12.53 32.643)">
            <path id="Path_6960" data-name="Path 6960" d="M301.941,185.94c-.488.456-2.506,1.782-10.279,3.177q-.8.143-1.676.287c-3.328.544-7.206,1.028-11.524,1.436-9.97.944-21.712,1.443-33.952,1.443s-23.982-.5-33.952-1.443c-4.318-.408-8.2-.892-11.524-1.436q-.879-.143-1.676-.287c-7.773-1.394-9.791-2.72-10.279-3.177.918-.9,5.4-2.725,17.313-4.213a340.084,340.084,0,0,1,40.118-2.114,340.084,340.084,0,0,1,40.118,2.114C296.537,183.215,301.021,185.035,301.941,185.94Z" transform="translate(-187.079 -179.613)" fill="#414042"/>
          </g>
          <g id="Group_2769" data-name="Group 2769" transform="translate(0 56.929)">
            <g id="Group_2767" data-name="Group 2767" transform="translate(0 0.213)">
              <path id="Path_6961" data-name="Path 6961" d="M191.318,199.122l-10.075-2.2a13.678,13.678,0,0,0-1.849-.332c-.925.079-1.432,1.827-.508,2.556a19.8,19.8,0,0,0,8.352,3.535,2.2,2.2,0,0,0,.437.043h11.957a5.11,5.11,0,0,0,3.752-1.459v-.856C200.61,200.423,193.692,201.058,191.318,199.122Z" transform="translate(-178.397 -196.588)" fill="#231f20"/>
            </g>
            <g id="Group_2768" data-name="Group 2768" transform="translate(0.072)">
              <path id="Path_6962" data-name="Path 6962" d="M189.155,196.44h-9.133c-1.374,0-2.081,1.188-1.157,1.918a19.819,19.819,0,0,0,8.352,3.533,2.2,2.2,0,0,0,.437.043h11.957a5.105,5.105,0,0,0,3.752-1.461C197.879,199.964,192.734,199.36,189.155,196.44Z" transform="translate(-178.447 -196.44)" fill="#3d3230"/>
            </g>
          </g>
          <g id="Group_2770" data-name="Group 2770" transform="translate(22.809 38.978)">
            <path id="Path_6963" data-name="Path 6963" d="M288.505,187.171q-.8.143-1.676.287c-3.328.544-7.206,1.028-11.524,1.436-9.97.944-21.712,1.443-33.952,1.443s-23.982-.5-33.952-1.443c-4.318-.408-8.2-.892-11.524-1.436q-.879-.143-1.676-.287c1.989-.359,4.318-.716,7.034-1.055A340.4,340.4,0,0,1,241.353,184a340.4,340.4,0,0,1,40.118,2.114C284.187,186.456,286.516,186.812,288.505,187.171Z" transform="translate(-194.201 -184.002)" fill="#3bc8e0"/>
          </g>
          <g id="Group_2771" data-name="Group 2771" transform="translate(42.716 27.33)">
            <circle id="Ellipse_404" data-name="Ellipse 404" cx="3.772" cy="3.772" r="3.772" fill="#47d3ea"/>
          </g>
          <g id="Group_2772" data-name="Group 2772" transform="translate(84.258 19.54)">
            <path id="Path_6964" data-name="Path 6964" d="M244.323,174.307a3.773,3.773,0,1,1-3.773-3.773A3.773,3.773,0,0,1,244.323,174.307Z" transform="translate(-236.778 -170.534)" fill="#47d3ea"/>
          </g>
          <g id="Group_2773" data-name="Group 2773" transform="translate(60.506 21.598)">
            <path id="Path_6965" data-name="Path 6965" d="M223.75,173.675a1.715,1.715,0,1,1-1.715-1.715A1.715,1.715,0,0,1,223.75,173.675Z" transform="translate(-220.321 -171.96)" fill="#3bc8e0"/>
          </g>
          <g id="Group_2774" data-name="Group 2774" transform="translate(74.309)">
            <path id="Path_6966" data-name="Path 6966" d="M233.316,158.71a1.715,1.715,0,1,1-1.716-1.715A1.717,1.717,0,0,1,233.316,158.71Z" transform="translate(-229.885 -156.995)" fill="#3bc8e0"/>
          </g>
          <g id="Group_2775" data-name="Group 2775" transform="translate(60.506 4.415)">
            <path id="Path_6967" data-name="Path 6967" d="M227.866,163.825a3.773,3.773,0,1,1-3.773-3.771A3.773,3.773,0,0,1,227.866,163.825Z" transform="translate(-220.321 -160.054)" fill="#3bc8e0"/>
          </g>
          <g id="Group_2776" data-name="Group 2776" transform="translate(65.351 34.554)">
            <path id="Path_6968" data-name="Path 6968" d="M231.223,184.71a3.773,3.773,0,1,1-3.773-3.773A3.773,3.773,0,0,1,231.223,184.71Z" transform="translate(-223.678 -180.937)" fill="#47d3ea"/>
          </g>
          <g id="Group_2777" data-name="Group 2777" transform="translate(30.269 44.906)">
            <path id="Path_6969" data-name="Path 6969" d="M204.468,188.651q-2.661-.253-5.1-.541v62.276c2.729.361,5.431.6,7.876.891q5.113.6,10.248,1v-62.7C212.843,189.344,208.471,189.031,204.468,188.651Z" transform="translate(-199.37 -188.11)" fill="#d1d3d4"/>
          </g>
        </g>
        <g id="Group_2780" data-name="Group 2780" transform="translate(42.868 93.564)">
          <path id="Path_6971" data-name="Path 6971" d="M262.175,236.751c-.876,1.547-2.367,3.594-3.719,4.236-3.387,1.6-4.383,4.859-16.421,4.9-2.282.009-4.758-.025-7.444-.105,0,0-1.45.032-3.741.029-9.056-.01-17.3-.817-19.387-5.675-1.585-3.683-1.937-7.255-3.168-8.934-1.409-1.918,5.279.509,4.751,3.765-.342,2.109,2.135,5.486,4.643,4.279s-5.594-7.138-1.993-11.01,9.9-2.422,7.423-1.452.312,6.945,4.359,7.069c3.61.108,7.174-2.65,5.854-11.7-.036-.263.264-.345.359-.332a11.494,11.494,0,0,1,7.593,9.678c.036.391.055.794.055,1.214a6.507,6.507,0,0,0,.042.719c.785,6.466,12.66-1.582,15.707-2.049,1.481-.227,1.068.668.456,1.735h0a5.672,5.672,0,0,0-1.019,2.3c.019.279.179.481.566.563,1.668.359,4.083-.753,5.769-1.1h0a.089.089,0,0,0,.027,0C263.07,234.91,262.76,235.719,262.175,236.751Z" transform="translate(-208.1 -221.824)" fill="#f07b20"/>
        </g>
        <g id="Group_2781" data-name="Group 2781" transform="translate(55.377 106.114)">
          <path id="Path_6972" data-name="Path 6972" d="M242.558,237.133c.655-2.465,1.026,2.329.791,2.481-2.019,1.3-3.513,2.413-5.87,2.423-6.209.027-12.474.136-18.484-1.648a3.708,3.708,0,0,1-1.717-.879,1.989,1.989,0,0,1-.289-2.243c.944-1.742,2.135-.092,3.076-.748.352-.245.206-3.357.131-3.7.245,1.087,4.637,2.934,5.58,3.009a2.242,2.242,0,0,0,.193-.964,8.794,8.794,0,0,1,1.143-3.2c.658-.957,2.85-1.6,2.569-.755-1.38,4.123,1.221,6.291,2.885,7.222,1.146.641,3.112-.573,3.92-1.847.791-1.251,3.888-1.813,4.476-2.12,2.012-1.055-3.236,2.358-2.1,3.967C239.743,239.384,241.9,239.614,242.558,237.133Z" transform="translate(-216.767 -230.52)" fill="#ef651f"/>
        </g>
        <g id="Group_2782" data-name="Group 2782" transform="translate(68.099 93.564)">
          <path id="Path_6973" data-name="Path 6973" d="M254.427,236.751c-.072-.137-.147-.273-.227-.408a24.716,24.716,0,0,1-3.731.3,12.987,12.987,0,0,1-5.362-.843c-.5-.3-.535-.615-.44-.935a20.844,20.844,0,0,1-4.906,1.267,24.077,24.077,0,0,1-6.835-.051,7.226,7.226,0,0,1-3.647-1.449,2.57,2.57,0,0,1-.831-1.883,16.294,16.294,0,0,1-.014-2.314c.134-2.775.514-5.629-2.852-8.283.143-.224.264-.345.359-.332a11.494,11.494,0,0,1,7.593,9.678,3.826,3.826,0,0,0,.051,1.846.664.664,0,0,0,.046.087c.785,6.466,12.66-1.582,15.707-2.049,1.481-.227,1.068.668.456,1.735h0a3.173,3.173,0,0,0-1.293,2c-.009.128.079.227.274.3.019.279.179.481.566.563,1.668.359,4.083-.753,5.769-1.1h0a.089.089,0,0,0,.027,0C255.321,234.91,255.011,235.719,254.427,236.751Z" transform="translate(-225.582 -221.824)" fill="#ef651f"/>
        </g>
      </g>
      <g id="Group_2824" data-name="Group 2824" transform="matrix(0.914, -0.407, 0.407, 0.914, -242.874, 6.002)">
        <g id="Group_2819" data-name="Group 2819" transform="translate(314.505 331.885)">
          <path id="Path_6991" data-name="Path 6991" d="M432.495,332.617c0,1.9-5.013,3.645-13.364,5.01-3.363.55-7.267,1.035-11.605,1.446-.131.013-.264.024-.4.036-9.54.888-21.131,1.411-33.63,1.411-12.671,0-24.41-.537-34.027-1.447-4.337-.41-8.241-.9-11.6-1.446-8.352-1.365-13.364-3.108-13.364-5.01,0-.534.4-1.057,1.154-1.562,5.413-3.615,29.255-6.339,57.841-6.339,9.578,0,18.624.305,26.622.848,15.872,1.077,27.619,3.088,31.219,5.491C432.1,331.56,432.495,332.082,432.495,332.617Z" transform="translate(-314.505 -324.715)" fill="#3d3230"/>
        </g>
        <g id="Group_2820" data-name="Group 2820" transform="translate(314.505 315.447)">
          <path id="Path_6992" data-name="Path 6992" d="M432.495,337.64H314.505s.369-.58,1.154-1.562C319.95,330.7,336.692,313.3,373.5,313.3q2.1,0,4.107.073c33.955,1.231,49.606,17.534,53.734,22.7C432.126,337.06,432.495,337.64,432.495,337.64Z" transform="translate(-314.505 -313.3)" fill="#3d3230"/>
        </g>
        <g id="Group_2821" data-name="Group 2821" transform="translate(377.607 315.521)">
          <path id="Path_6993" data-name="Path 6993" d="M413.212,337.617c0,1.9-5.013,3.645-13.364,5.01-3.363.55-7.267,1.035-11.605,1.446-.131.013-.264.025-.4.036q-.581-1.7-1.257-3.371-.689-1.581-1.465-3.121a62.976,62.976,0,0,0-3.711-6.407q-.285-.324-.575-.647a81.587,81.587,0,0,0-10.214-9.578,80.184,80.184,0,0,0-12.151-7.6l-.15-.036c33.955,1.231,49.606,17.534,53.734,22.7C412.814,336.56,413.212,337.083,413.212,337.617Z" transform="translate(-358.324 -313.351)" fill="#231f20"/>
        </g>
        <g id="Group_2822" data-name="Group 2822" transform="translate(369.831 308.421)">
          <path id="Path_6994" data-name="Path 6994" d="M360.7,312.309a3.887,3.887,0,0,1-3.164,3.819,3.758,3.758,0,0,1-.724.069,3.888,3.888,0,0,1,0-7.776,3.746,3.746,0,0,1,.628.052A3.888,3.888,0,0,1,360.7,312.309Z" transform="translate(-352.924 -308.421)" fill="#6d6e71"/>
        </g>
        <g id="Group_2823" data-name="Group 2823" transform="translate(374.347 308.473)">
          <path id="Path_6995" data-name="Path 6995" d="M359.32,312.293a3.887,3.887,0,0,1-3.164,3.819,3.143,3.143,0,0,1,.347-.346,8.475,8.475,0,0,0,.733-.7c.135-.212.262-.433.38-.658a8.863,8.863,0,0,0,.243-.9,10.084,10.084,0,0,0,0-1.043,11.464,11.464,0,0,0-.373-1.342,13.053,13.053,0,0,0-.854-1.47,4.428,4.428,0,0,1-.569-1.2A3.888,3.888,0,0,1,359.32,312.293Z" transform="translate(-356.06 -308.457)" fill="#3f3f3f"/>
        </g>
      </g>
      <g id="Group_2827" data-name="Group 2827" transform="translate(89.714 121.203) rotate(-41)">
        <path id="Path_6996" data-name="Path 6996" d="M92.21,54.678a11.3,11.3,0,0,0-7.45-2.776,10.9,10.9,0,0,0-1.52.1,11.356,11.356,0,0,0-2.765.731A20.919,20.919,0,0,0,72.4,48.912h0q-.648-.154-1.313-.273l-.027-.005q-.664-.118-1.342-.2l-.06-.006c-.393-.045-.791-.08-1.191-.106l-.3-.018c-.427-.022-.856-.038-1.29-.038a21.8,21.8,0,0,0-14.341,5.086A11.32,11.32,0,0,0,49.4,52.164l-.014,0c-.256-.055-.514-.1-.775-.139l-.034,0c-.227-.032-.456-.056-.688-.074l-.171-.013c-.246-.016-.494-.027-.744-.027a11.1,11.1,0,1,0,0,22.2c.312,0,.62-.016.925-.04l.076-.005q.467-.04.921-.118h0a11.4,11.4,0,0,0,1.449-.341V99.746q3.163-.7,6.359-1.112a73.8,73.8,0,0,1,22.383.486q1.557.272,3.106.61l.074.016V73.894l.049-.05c.069.015.138.032.207.045l.062.011q.3.057.6.1c.066.009.133.017.2.025q.247.03.5.049l.2.015c.227.013.455.022.686.022.185,0,.371,0,.552-.016a11.171,11.171,0,0,0,10.72-11.087A10.989,10.989,0,0,0,92.21,54.678Z" transform="translate(-5.977 -4.175)" fill="#535a5d" opacity="0.45"/>
        <g id="Group_2826" data-name="Group 2826" transform="translate(25.395 41.071)">
          <g id="Group_2825" data-name="Group 2825" transform="translate(37.787 3.637)">
            <path id="Path_6997" data-name="Path 6997" d="M137.96,60.837a11.171,11.171,0,0,1-10.72,11.087c-.181.013-.366.017-.552.017a11.3,11.3,0,0,1-5.593-1.466,11.121,11.121,0,0,1,5.593-20.74,11.3,11.3,0,0,1,7.45,2.776A10.987,10.987,0,0,1,137.96,60.837Z" transform="translate(-115.412 -49.734)" fill="#fff"/>
          </g>
          <path id="Path_6998" data-name="Path 6998" d="M92.206,92.088v30.064l-.074-.017q-1.55-.339-3.105-.61a73.785,73.785,0,0,0-22.384-.486q-3.194.414-6.359,1.112V93.5c1.94,1.816,5.2,3.245,9.164,3.987a33.744,33.744,0,0,0,6.206.56A28.133,28.133,0,0,0,88.289,95.37a11.118,11.118,0,0,0,3.294-2.459A6.285,6.285,0,0,0,92.206,92.088Z" transform="translate(-45.638 -70.672)" fill="#fff"/>
          <path id="Path_6999" data-name="Path 6999" d="M145.718,64.674A11.171,11.171,0,0,1,135,75.761c-.181.013-.366.017-.552.017a11.3,11.3,0,0,1-5.593-1.466c-.362-.968.63-1.491,3.756-1.178,10.547,1.058,10.074-11.1,9.287-16.786A10.987,10.987,0,0,1,145.718,64.674Z" transform="translate(-85.383 -49.934)" fill="#dadcdf"/>
          <path id="Path_7000" data-name="Path 7000" d="M92.132,121.337q-1.55-.34-3.105-.61A73.8,73.8,0,0,0,72.683,119.7a5.773,5.773,0,0,1-6.042-5.785c.007-3.043.026-6.223.072-7.112.107-2.055,1.466-5.021,2.735-7.372-3.962-.741-7.224-2.17-9.164-3.987V124.1q3.163-.7,6.359-1.112a73.785,73.785,0,0,1,22.384.486q1.557.272,3.105.61l.074.017v-2.746Z" transform="translate(-45.638 -72.619)" fill="#dadcdf"/>
          <path id="Path_7001" data-name="Path 7001" d="M129.27,94.05v29.241l-.074-.017q-1.55-.339-3.105-.61c.173-7.322.453-18.891.544-21.2a12.97,12.97,0,0,0-1.281-4.955c-.6-1.4-1.19-2.459-1.19-2.459Z" transform="translate(-82.702 -71.811)" fill="#dadcdf"/>
          <path id="Path_7002" data-name="Path 7002" d="M130.959,62.1a15.617,15.617,0,0,1-3.719,9.971c-.181.013-.366.017-.552.017a11.093,11.093,0,0,1-1.52-22.1A16.219,16.219,0,0,1,130.959,62.1Z" transform="translate(-77.625 -46.24)" fill="#dadcdf"/>
          <ellipse id="Ellipse_405" data-name="Ellipse 405" cx="11.275" cy="11.102" rx="11.275" ry="11.102" transform="translate(0 3.638)" fill="#fff"/>
          <path id="Path_7003" data-name="Path 7003" d="M30.5,61.129a11.154,11.154,0,0,1,9.353-10.938,11.434,11.434,0,0,0-3.185-.453,11.1,11.1,0,1,0,0,22.2,11.505,11.505,0,0,0,1.922-.164A11.13,11.13,0,0,1,30.5,61.129Z" transform="translate(-25.395 -46.1)" fill="#dadcdf"/>
          <ellipse id="Ellipse_406" data-name="Ellipse 406" cx="19.546" cy="15.856" rx="19.546" ry="15.856" transform="translate(11.634)" fill="#fff"/>
          <path id="Path_7004" data-name="Path 7004" d="M61.965,57.339C61.965,49.5,68.973,43,78.18,41.717a23.784,23.784,0,0,0-5.523-.646c-10.795,0-19.546,7.1-19.546,15.856s8.751,15.856,19.546,15.856a24.1,24.1,0,0,0,3.332-.234C67.885,70.615,61.965,64.539,61.965,57.339Z" transform="translate(-41.476 -41.071)" fill="#dadcdf"/>
        </g>
      </g>
    </g>
    <g id="Group_2818" data-name="Group 2818" transform="translate(-8.039 -64.535)">
      <g id="Group_2813" data-name="Group 2813" transform="translate(226.038 288.535)">
        <g id="Group_2809" data-name="Group 2809" transform="translate(0 32.944)">
          <g id="Group_2805" data-name="Group 2805">
            <path id="Path_6983" data-name="Path 6983" d="M241.454,316.009q.232.667.44,1.308c6.316,19.682-7.7,21.427-11.737,19.2l-.006,0C225.989,334.216,219.848,320.957,241.454,316.009Z" transform="translate(-226.038 -316.009)" fill="#b2a286"/>
          </g>
          <g id="Group_2806" data-name="Group 2806" transform="translate(4.113 0.814)">
            <path id="Path_6984" data-name="Path 6984" d="M229.468,336.382l10.847-19.694.9.494c6.316,19.682-7.7,21.427-11.737,19.2Z" transform="translate(-229.468 -316.688)" fill="#c2b59b"/>
          </g>
          <g id="Group_2807" data-name="Group 2807" transform="translate(1.907 2.278)">
            <path id="Path_6985" data-name="Path 6985" d="M230.831,322.117a23.784,23.784,0,0,1,9.042-4.205l.008,0a23.75,23.75,0,0,1,1.277,9.885,8.188,8.188,0,0,1-2.667,5.391,7.825,7.825,0,0,1-7.732,1.284l-.006,0a7.836,7.836,0,0,1-3.058-7.217A8.18,8.18,0,0,1,230.831,322.117Z" transform="translate(-227.629 -317.909)" fill="#a39278"/>
          </g>
          <g id="Group_2808" data-name="Group 2808" transform="translate(5.032 2.278)">
            <path id="Path_6986" data-name="Path 6986" d="M230.235,334.467l9.119-16.556.008,0a23.75,23.75,0,0,1,1.277,9.885,8.188,8.188,0,0,1-2.667,5.391,7.825,7.825,0,0,1-7.732,1.284Z" transform="translate(-230.235 -317.909)" fill="#b2a286"/>
          </g>
        </g>
        <g id="Group_2812" data-name="Group 2812" transform="translate(12.974)">
          <g id="Group_2810" data-name="Group 2810" transform="translate(1.206 0.292)">
            <path id="Path_6987" data-name="Path 6987" d="M257.084,288.778h0l-19.22,34.9,1.207.664,18.908-32.317A2.352,2.352,0,0,0,257.084,288.778Z" transform="translate(-237.864 -288.778)" fill="#c2b59b"/>
          </g>
          <g id="Group_2811" data-name="Group 2811">
            <path id="Path_6988" data-name="Path 6988" d="M257.285,288.826h0l-19.22,34.9-1.206-.664L254.065,289.8A2.349,2.349,0,0,1,257.285,288.826Z" transform="translate(-236.858 -288.535)" fill="#b2a286"/>
          </g>
        </g>
      </g>
      <g id="Group_2817" data-name="Group 2817" transform="translate(237.868 307.481)">
        <g id="Group_2814" data-name="Group 2814" transform="translate(0 0.773)">
          <path id="Path_6989" data-name="Path 6989" d="M245.052,312.994a21.485,21.485,0,0,1-6.275-.765c-1.311-.417-2.872-1.239-2.873-2.77,0-2.884,7.889-4.324,8.788-4.479l.1.591a33.843,33.843,0,0,0-4.232,1.065c-2.618.867-4.059,1.869-4.059,2.823,0,2.166,4.416,2.935,8.55,2.935h.013c6.631,0,13.141-1.734,13.141-3.5,0-.711-.662-1.745-3.808-2.632l.162-.577c2.817.794,4.246,1.874,4.246,3.209,0,2.633-8.125,4.094-13.741,4.095Z" transform="translate(-235.904 -304.98)" fill="#3d3230"/>
        </g>
        <g id="Group_2816" data-name="Group 2816" transform="translate(15.068)">
          <g id="Group_2815" data-name="Group 2815">
            <path id="Path_6990" data-name="Path 6990" d="M254.081,304.335l-1.386,1.974.457,2.368L248.47,305.4Z" transform="translate(-248.47 -304.335)" fill="#3d3230"/>
          </g>
        </g>
      </g>
    </g>
  </g>
</svg>
