<svg xmlns="http://www.w3.org/2000/svg" xmlns:xlink="http://www.w3.org/1999/xlink" width="202.171" height="215.359" viewBox="0 0 202.171 215.359">
  <defs>
    <linearGradient id="linear-gradient" x1="0.504" y1="-0.076" x2="0.495" y2="1.04" gradientUnits="objectBoundingBox">
      <stop offset="0" stop-color="#ff8561"/>
      <stop offset="1" stop-color="#ef4c43"/>
    </linearGradient>
    <linearGradient id="linear-gradient-2" x1="0.497" y1="0.002" x2="0.506" y2="0.917" gradientUnits="objectBoundingBox">
      <stop offset="0.004" stop-color="#fff"/>
      <stop offset="1" stop-color="#f5f0ff"/>
    </linearGradient>
  </defs>
  <g id="ref-svg" transform="translate(-89.014 -96.78)">
    <rect id="Rectangle_17399" data-name="Rectangle 17399" width="104.757" height="193.863" rx="8.571" transform="translate(147.812 109.913)" fill="#263681"/>
    <path id="Rectangle_17400" data-name="Rectangle 17400" d="M2.615,0H182.659a2.615,2.615,0,0,1,2.615,2.615V93.553a2.614,2.614,0,0,1-2.614,2.614H2.614A2.614,2.614,0,0,1,0,93.553V2.615A2.615,2.615,0,0,1,2.615,0Z" transform="translate(248.273 114.208) rotate(90)" fill="#f6f6f6"/>
    <path id="Path_8576" data-name="Path 8576" d="M191.928,302.638h0q-1.447-.015-2.892-.062a.36.36,0,0,1-.348-.373.374.374,0,0,1,.372-.348q1.436.047,2.874.062a.361.361,0,0,1,0,.721Zm4.325-.028a.361.361,0,0,1-.009-.721q1.437-.034,2.875-.1a.354.354,0,0,1,.376.344.36.36,0,0,1-.344.376q-1.445.067-2.89.1Zm-11.53-.255H184.7q-1.444-.1-2.883-.234a.36.36,0,0,1-.325-.393.364.364,0,0,1,.392-.325q1.431.134,2.866.232a.361.361,0,0,1-.025.72Zm18.729-.1a.361.361,0,0,1-.027-.72q1.434-.108,2.865-.247a.365.365,0,0,1,.394.324.36.36,0,0,1-.324.394q-1.438.139-2.88.249Zm-25.9-.615a.358.358,0,0,1-.048,0q-1.434-.189-2.862-.416a.361.361,0,0,1,.112-.712q1.42.226,2.844.413a.361.361,0,0,1-.047.718Zm33.074-.108a.36.36,0,0,1-.045-.718q1.428-.18,2.852-.385a.361.361,0,1,1,.1.714q-1.431.205-2.865.386A.329.329,0,0,1,210.626,301.528Zm7.13-1.063a.361.361,0,0,1-.061-.716q1.419-.243,2.832-.513a.361.361,0,0,1,.136.709q-1.42.27-2.845.516A.349.349,0,0,1,217.756,300.465Zm-47.316-.009a.342.342,0,0,1-.071-.007q-1.311-.263-2.615-.559l-.214-.049a.36.36,0,0,1,.159-.7l.218.051q1.29.292,2.593.553a.36.36,0,0,1-.071.714Zm54.394-1.367a.36.36,0,0,1-.076-.712q1.407-.305,2.808-.633a.361.361,0,1,1,.164.7q-1.406.329-2.82.635A.349.349,0,0,1,224.834,299.09Zm-61.407-.3a.34.34,0,0,1-.1-.014q-1.4-.385-2.779-.813a.36.36,0,0,1,.213-.689q1.373.424,2.759.808a.36.36,0,0,1-.1.707Zm-6.874-2.177a.353.353,0,0,1-.121-.021q-1.363-.488-2.71-1.017a.361.361,0,0,1,.263-.672q1.338.527,2.69,1.01a.36.36,0,0,1-.122.7Zm-6.69-2.684a.366.366,0,0,1-.146-.031q-1.322-.59-2.624-1.221a.361.361,0,0,1,.314-.65q1.292.626,2.6,1.211a.361.361,0,0,1-.147.69Zm-6.463-3.192a.365.365,0,0,1-.172-.043q-1.273-.694-2.521-1.425a.361.361,0,0,1,.365-.622q1.238.727,2.5,1.413a.36.36,0,0,1-.173.677Zm-6.186-3.7a.357.357,0,0,1-.2-.059c-.808-.529-1.614-1.076-2.394-1.627a.361.361,0,1,1,.415-.59c.774.546,1.572,1.089,2.374,1.614a.36.36,0,0,1-.2.662Zm-5.856-4.2a.361.361,0,0,1-.223-.077c-.758-.6-1.513-1.211-2.245-1.829a.36.36,0,1,1,.465-.55c.726.612,1.474,1.222,2.226,1.812a.361.361,0,0,1,.061.507A.358.358,0,0,1,131.358,282.838Zm-5.462-4.7a.357.357,0,0,1-.247-.1c-.7-.661-1.4-1.343-2.07-2.027a.36.36,0,0,1,.514-.505c.666.678,1.357,1.353,2.051,2.008a.36.36,0,0,1-.247.622Zm-5-5.186a.358.358,0,0,1-.271-.123c-.634-.723-1.262-1.469-1.867-2.217a.361.361,0,0,1,.561-.453c.6.74,1.221,1.48,1.848,2.2a.361.361,0,0,1-.271.6ZM116.42,267.3a.36.36,0,0,1-.294-.151c-.57-.8-1.119-1.606-1.631-2.4a.36.36,0,0,1,.6-.392c.507.782,1.05,1.58,1.613,2.371a.361.361,0,0,1-.293.57Zm-3.836-6.1a.361.361,0,0,1-.317-.187c-.468-.862-.909-1.733-1.314-2.591a.361.361,0,0,1,.652-.307c.4.846.833,1.705,1.295,2.553a.36.36,0,0,1-.317.533Zm-2.953-6.569a.361.361,0,0,1-.34-.24c-.327-.924-.62-1.858-.869-2.778a.36.36,0,1,1,.7-.188c.244.9.531,1.818.852,2.725a.361.361,0,0,1-.219.461A.369.369,0,0,1,109.631,254.631Zm-1.732-6.986a.36.36,0,0,1-.357-.31c-.106-.764-.185-1.532-.235-2.286q-.021-.309-.034-.619a.36.36,0,1,1,.72-.031c.009.2.019.4.033.6.048.736.125,1.487.229,2.233a.361.361,0,0,1-.307.407Zm24.239-7.129h-.011c-.425-.012-.858-.042-1.286-.087-.542-.058-1.092-.142-1.635-.249a.36.36,0,1,1,.139-.707c.523.1,1.052.182,1.572.239.409.043.823.071,1.23.083a.361.361,0,0,1-.01.721Zm-24.353-.06-.041,0a.361.361,0,0,1-.318-.4,27.916,27.916,0,0,1,.48-2.881.361.361,0,0,1,.7.156,27.054,27.054,0,0,0-.468,2.806A.361.361,0,0,1,107.784,240.456Zm28.617-.526a.36.36,0,0,1-.115-.7,7.8,7.8,0,0,0,2.414-1.3.36.36,0,1,1,.454.56,8.515,8.515,0,0,1-2.636,1.422A.361.361,0,0,1,136.4,239.93Zm-11.243-1.042a.367.367,0,0,1-.145-.03,20.961,20.961,0,0,1-2.593-1.369.361.361,0,1,1,.381-.613,20.054,20.054,0,0,0,2.5,1.322.361.361,0,0,1-.146.691ZM141.24,235a.348.348,0,0,1-.094-.012.361.361,0,0,1-.255-.442,7.93,7.93,0,0,0,.264-2.066q0-.335-.025-.673a.361.361,0,0,1,.333-.386.365.365,0,0,1,.386.333q.027.365.027.726a8.677,8.677,0,0,1-.288,2.253A.361.361,0,0,1,141.24,235Zm-22.035-.115a.361.361,0,0,1-.25-.1A20.22,20.22,0,0,1,117,232.6a.36.36,0,1,1,.571-.44,19.425,19.425,0,0,0,1.885,2.109.36.36,0,0,1-.251.619Zm-9.671-1.4a.353.353,0,0,1-.135-.026.36.36,0,0,1-.2-.469,24.557,24.557,0,0,1,1.255-2.643.361.361,0,0,1,.632.349,23.636,23.636,0,0,0-1.218,2.564A.359.359,0,0,1,109.534,233.484Zm5.526-4.443a.361.361,0,0,1-.329-.211,19.685,19.685,0,0,1-.818-2.123q-.216.239-.425.485a.361.361,0,0,1-.551-.466q.386-.456.8-.888a.364.364,0,0,1,.185-.192c.345-.354.7-.694,1.069-1.017a.36.36,0,1,1,.477.54c-.336.3-.665.609-.984.934a19.07,19.07,0,0,0,.906,2.428.359.359,0,0,1-.179.477A.352.352,0,0,1,115.06,229.04ZM140.322,228a.361.361,0,0,1-.323-.2,11.077,11.077,0,0,0-1.544-2.319.361.361,0,1,1,.544-.474,11.809,11.809,0,0,1,1.645,2.471.361.361,0,0,1-.161.484A.368.368,0,0,1,140.322,228Zm-4.929-5.12a.358.358,0,0,1-.181-.049,14.578,14.578,0,0,0-2.555-1.167.361.361,0,0,1,.236-.682,15.3,15.3,0,0,1,2.681,1.226.36.36,0,0,1-.181.672Zm-16.615-.076a.361.361,0,0,1-.166-.681,18.113,18.113,0,0,1,2.712-1.134.36.36,0,1,1,.224.685,17.584,17.584,0,0,0-2.6,1.089A.363.363,0,0,1,118.778,222.808Zm-5.437-.729a.361.361,0,0,1-.36-.337q-.041-.655-.041-1.312c0-.539.022-1.084.063-1.622a.361.361,0,0,1,.719.057c-.04.518-.061,1.044-.061,1.565q0,.633.04,1.265a.361.361,0,0,1-.337.383Zm12.325-1.239a.36.36,0,0,1-.03-.72,15.547,15.547,0,0,1,1.582-.066c.451,0,.908.017,1.356.05a.36.36,0,0,1,.332.386.367.367,0,0,1-.386.332c-.435-.032-.861-.028-1.315-.048-.5,0-1.009.021-1.508.063Zm-11.506-5.886a.381.381,0,0,1-.105-.015.361.361,0,0,1-.24-.45,19.511,19.511,0,0,1,1.063-2.737.361.361,0,0,1,.65.312A18.776,18.776,0,0,0,114.5,214.7.36.36,0,0,1,114.159,214.954Zm3.325-6.35a.36.36,0,0,1-.283-.583,22.268,22.268,0,0,1,1.955-2.182.361.361,0,0,1,.5.516,21.518,21.518,0,0,0-1.891,2.11A.361.361,0,0,1,117.484,208.6Zm5.269-4.879a.361.361,0,0,1-.2-.659,28.5,28.5,0,0,1,2.5-1.517.361.361,0,1,1,.343.634,27.444,27.444,0,0,0-2.432,1.479A.364.364,0,0,1,122.753,203.725Zm6.405-3.275a.361.361,0,0,1-.125-.7c.9-.333,1.834-.632,2.776-.89a.361.361,0,1,1,.19.7c-.921.252-1.835.544-2.716.87A.362.362,0,0,1,129.158,200.45Zm31.351-.281a.4.4,0,0,1-.058,0q-1.42-.233-2.846-.459a.361.361,0,0,1,.113-.712q1.429.226,2.849.459a.361.361,0,0,1-.058.717Zm-7.126-1.094a.385.385,0,0,1-.049,0q-1.425-.194-2.853-.353a.36.36,0,1,1,.079-.717q1.437.158,2.872.355a.36.36,0,0,1-.048.717Zm-17.245-.377a.36.36,0,0,1-.05-.717c.939-.133,1.912-.239,2.89-.312a.36.36,0,1,1,.054.719c-.963.072-1.919.176-2.843.307A.316.316,0,0,1,136.138,198.7Zm10.072-.342h-.021c-.981-.056-1.946-.089-2.865-.1a.36.36,0,0,1,0-.721h0c.932.01,1.906.044,2.9.1a.36.36,0,0,1-.02.72Z" transform="translate(-18.258 -32.938)" fill="#515151"/>
    <path id="Path_8577" data-name="Path 8577" d="M315.444,267.548a.36.36,0,0,1-.239-.63c.7-.624,1.412-1.279,2.105-1.948a.361.361,0,0,1,.5.518c-.7.677-1.417,1.339-2.129,1.969A.355.355,0,0,1,315.444,267.548Zm5.131-5.061a.361.361,0,0,1-.266-.6c.645-.706,1.279-1.433,1.888-2.16a.361.361,0,0,1,.554.463c-.616.735-1.257,1.469-1.909,2.183A.358.358,0,0,1,320.574,262.486Zm4.573-5.57a.36.36,0,0,1-.29-.575c.565-.766,1.123-1.553,1.658-2.342a.361.361,0,1,1,.6.406c-.541.8-1.1,1.591-1.675,2.364A.359.359,0,0,1,325.148,256.917Zm3.986-6a.357.357,0,0,1-.185-.05.361.361,0,0,1-.125-.495c.482-.811.961-1.65,1.42-2.495a.361.361,0,0,1,.634.345c-.464.852-.946,1.7-1.433,2.518A.361.361,0,0,1,329.134,250.914Zm3.381-6.365a.361.361,0,0,1-.327-.514c.4-.856.8-1.738,1.174-2.62a.361.361,0,0,1,.663.283c-.378.89-.777,1.779-1.185,2.644A.36.36,0,0,1,332.515,244.549Zm2.758-6.658a.362.362,0,0,1-.34-.482c.323-.9.633-1.813.921-2.72a.361.361,0,0,1,.688.218c-.291.914-.6,1.839-.929,2.745A.361.361,0,0,1,335.273,237.89ZM337.391,231a.346.346,0,0,1-.089-.012.361.361,0,0,1-.26-.438c.239-.927.461-1.867.662-2.793a.36.36,0,1,1,.7.152c-.2.935-.426,1.884-.667,2.82A.361.361,0,0,1,337.391,231Zm1.464-7.058a.372.372,0,0,1-.057,0,.362.362,0,0,1-.3-.412c.15-.94.283-1.9.4-2.844a.361.361,0,0,1,.716.087c-.115.955-.248,1.921-.4,2.87A.361.361,0,0,1,338.855,223.943Zm.787-7.165h-.022a.36.36,0,0,1-.338-.381c.059-.957.1-1.921.121-2.868a.361.361,0,1,1,.721.017c-.022.955-.063,1.929-.123,2.895A.36.36,0,0,1,339.642,216.778Zm.092-7.206a.361.361,0,0,1-.36-.348c-.035-.946-.089-1.91-.161-2.865a.36.36,0,0,1,.332-.386.354.354,0,0,1,.387.332c.072.964.128,1.938.162,2.893a.36.36,0,0,1-.347.373Zm-.623-7.18a.36.36,0,0,1-.356-.311c-.129-.932-.281-1.885-.451-2.834a.36.36,0,1,1,.709-.128c.172.957.325,1.921.455,2.862a.36.36,0,0,1-.308.407A.375.375,0,0,1,339.111,202.392Zm-1.356-7.078a.362.362,0,0,1-.35-.275c-.229-.929-.481-1.861-.746-2.769a.36.36,0,1,1,.691-.2c.269.918.523,1.86.755,2.8a.361.361,0,0,1-.264.436A.327.327,0,0,1,337.754,195.314Zm-18.771-4.407a.36.36,0,0,1-.03-.72,11.11,11.11,0,0,0,2.722-.585.36.36,0,1,1,.239.68,11.8,11.8,0,0,1-2.9.623Zm-4.257-.533a.388.388,0,0,1-.126-.022,7.787,7.787,0,0,1-2.57-1.554.36.36,0,1,1,.487-.531,7.058,7.058,0,0,0,2.335,1.409.361.361,0,0,1-.126.7Zm20.915-1.949a.361.361,0,0,1-.337-.233c-.351-.926-.725-1.81-1.11-2.63a.36.36,0,1,1,.652-.307c.394.836.774,1.739,1.133,2.682a.36.36,0,0,1-.209.464A.348.348,0,0,1,335.641,188.425Zm-10.154-.322a.36.36,0,0,1-.242-.627,14.159,14.159,0,0,0,1.878-2.086.361.361,0,0,1,.58.428,14.877,14.877,0,0,1-1.975,2.192A.357.357,0,0,1,325.487,188.1Zm-15.326-2.909a.362.362,0,0,1-.352-.279,8.152,8.152,0,0,1-.21-1.838,8.387,8.387,0,0,1,.082-1.159.36.36,0,0,1,.714.1,7.876,7.876,0,0,0-.075,1.06,7.374,7.374,0,0,0,.192,1.673.361.361,0,0,1-.27.433A.354.354,0,0,1,310.162,185.194Zm19.374-2.988a.354.354,0,0,1-.143-.03.36.36,0,0,1-.188-.474,26.594,26.594,0,0,0,.975-2.671.361.361,0,0,1,.705.1,21.413,21.413,0,0,1,1.808,2.307.36.36,0,1,1-.6.405,21.024,21.024,0,0,0-1.455-1.9c-.239.715-.5,1.4-.776,2.039A.36.36,0,0,1,329.536,182.206Zm-17.84-3.823a.361.361,0,0,1-.288-.578,9.148,9.148,0,0,1,1.366-1.443q.389-.331.795-.615a.361.361,0,1,1,.414.59q-.377.265-.743.574a8.437,8.437,0,0,0-1.257,1.329A.36.36,0,0,1,311.7,178.384Zm15.651-1.459a.355.355,0,0,1-.2-.058,15.078,15.078,0,0,0-2.493-1.3.361.361,0,0,1,.273-.668,15.848,15.848,0,0,1,2.611,1.367.36.36,0,0,1-.2.663Zm4.208-1.627a.361.361,0,0,1-.355-.429l.094-.5q.213-1.157.383-2.324a.361.361,0,0,1,.714.1q-.172,1.178-.387,2.349l-.1.51A.361.361,0,0,1,331.556,175.3Zm-13.822-.556a.361.361,0,0,1-.066-.715,11.8,11.8,0,0,1,2.963-.161.36.36,0,0,1,.334.385.364.364,0,0,1-.385.334,11.069,11.069,0,0,0-2.781.151A.34.34,0,0,1,317.734,174.742Zm14.791-6.586h-.03a.361.361,0,0,1-.33-.389c.077-.953.134-1.916.169-2.863a.355.355,0,0,1,.374-.347.361.361,0,0,1,.348.373c-.036.957-.094,1.931-.172,2.895A.359.359,0,0,1,332.524,168.156Zm.195-7.2a.361.361,0,0,1-.361-.351c-.025-.946-.071-1.911-.136-2.865a.361.361,0,1,1,.72-.05c.066.965.112,1.94.138,2.9a.361.361,0,0,1-.35.37Zm-77.694-5.93a8.73,8.73,0,0,1-1.668-.161.36.36,0,1,1,.138-.707,8.052,8.052,0,0,0,1.531.147h.006a8.258,8.258,0,0,0,1.212-.09.36.36,0,0,1,.105.713,8.983,8.983,0,0,1-1.317.1Zm77.121-1.255a.36.36,0,0,1-.356-.312c-.127-.945-.275-1.9-.442-2.835a.361.361,0,0,1,.71-.125c.168.945.318,1.909.446,2.865a.36.36,0,0,1-.309.405A.367.367,0,0,1,332.146,153.768Zm-71.894-.476a.361.361,0,0,1-.215-.65,8.207,8.207,0,0,0,1.908-1.98.36.36,0,1,1,.6.406,8.911,8.911,0,0,1-2.074,2.154A.362.362,0,0,1,260.252,153.292Zm-10.7-.255a.365.365,0,0,1-.214-.07,21.224,21.224,0,0,1-2.233-1.9.36.36,0,1,1,.5-.516,20.442,20.442,0,0,0,2.157,1.835.36.36,0,0,1-.214.65Zm-4.958-5.186a.359.359,0,0,1-.3-.159,20.591,20.591,0,0,1-1.456-2.546.36.36,0,1,1,.649-.312,20.146,20.146,0,0,0,1.406,2.456.36.36,0,0,1-.3.561Zm19.122-.65a.347.347,0,0,1-.061-.005.36.36,0,0,1-.3-.415,27.528,27.528,0,0,0,.322-2.827.356.356,0,0,1,.382-.337.36.36,0,0,1,.337.383,28.38,28.38,0,0,1-.33,2.9A.361.361,0,0,1,263.715,147.2Zm67.091-.513a.361.361,0,0,1-.35-.275c-.229-.927-.48-1.859-.748-2.768a.36.36,0,1,1,.691-.2c.271.919.526,1.861.756,2.8a.361.361,0,0,1-.35.447Zm-89.095-5.4a.36.36,0,0,1-.35-.274,23.089,23.089,0,0,1-.52-2.881.36.36,0,0,1,.716-.083,22.5,22.5,0,0,0,.5,2.791.361.361,0,0,1-.264.436A.356.356,0,0,1,241.711,141.283Zm22.267-1.268a.36.36,0,0,1-.358-.329c-.083-.937-.213-1.887-.386-2.822a.36.36,0,1,1,.708-.132c.178.958.311,1.931.4,2.89a.361.361,0,0,1-.327.391Zm64.713-.218a.36.36,0,0,1-.338-.235c-.329-.891-.686-1.788-1.058-2.665a.36.36,0,1,1,.663-.282c.377.888.737,1.795,1.071,2.7a.36.36,0,0,1-.213.463A.349.349,0,0,1,328.691,139.8Zm-87.606-5.67h-.022a.36.36,0,0,1-.338-.381,26.618,26.618,0,0,1,.337-2.9.36.36,0,0,1,.71.122,26.066,26.066,0,0,0-.327,2.824A.36.36,0,0,1,241.085,134.127ZM325.8,133.2a.361.361,0,0,1-.321-.2c-.433-.846-.893-1.694-1.368-2.518a.361.361,0,1,1,.625-.36c.48.835.946,1.692,1.385,2.549a.36.36,0,0,1-.322.524Zm-63.3-.221a.361.361,0,0,1-.341-.244c-.3-.895-.656-1.785-1.046-2.648a.36.36,0,1,1,.656-.3c.4.884.761,1.8,1.073,2.713a.361.361,0,0,1-.225.458A.367.367,0,0,1,262.494,132.977Zm-20.007-5.9a.371.371,0,0,1-.117-.019.36.36,0,0,1-.224-.458,27.725,27.725,0,0,1,1.089-2.71.361.361,0,0,1,.654.3,27.055,27.055,0,0,0-1.061,2.639A.36.36,0,0,1,242.487,127.077ZM322.122,127a.358.358,0,0,1-.3-.157c-.54-.792-1.1-1.573-1.676-2.324a.36.36,0,0,1,.573-.437c.58.761,1.151,1.554,1.7,2.356a.361.361,0,0,1-.3.563Zm-62.812-.464a.359.359,0,0,1-.295-.154,21.269,21.269,0,0,0-1.777-2.2.361.361,0,0,1,.531-.489,22.19,22.19,0,0,1,1.836,2.28.36.36,0,0,1-.3.567Zm-5.016-5.129a.355.355,0,0,1-.216-.073c-.726-.546-1.519-1.084-2.355-1.6a.36.36,0,1,1,.377-.614c.857.526,1.668,1.076,2.412,1.637a.36.36,0,0,1-.217.648Zm63.388-.079a.361.361,0,0,1-.268-.12c-.539-.6-1.1-1.2-1.663-1.771l-.3-.308a.36.36,0,1,1,.508-.51l.311.312c.572.583,1.14,1.187,1.685,1.8a.36.36,0,0,1-.268.6Zm-72-.691a.361.361,0,0,1-.3-.561c.532-.8,1.115-1.588,1.73-2.348a.361.361,0,0,1,.561.454c-.6.743-1.172,1.514-1.691,2.293A.362.362,0,0,1,245.683,120.637Zm2.429-2.915a.359.359,0,0,1-.159-.037c-.783-.382-1.635-.777-2.6-1.207a.361.361,0,1,1,.293-.659c.976.433,1.836.831,2.628,1.218a.361.361,0,0,1-.159.684Zm64.4-1.4a.359.359,0,0,1-.231-.084c-.725-.606-1.48-1.2-2.249-1.773a.361.361,0,0,1,.431-.579c.778.579,1.545,1.185,2.28,1.8a.361.361,0,0,1-.231.637Zm-62.175-1.17a.36.36,0,0,1-.248-.622c.7-.659,1.433-1.3,2.194-1.916a.361.361,0,1,1,.452.562c-.746.6-1.469,1.232-2.15,1.877A.359.359,0,0,1,250.333,115.148Zm-8.815-.337a.363.363,0,0,1-.139-.028l-1.163-.487q-.741-.309-1.5-.58a.361.361,0,0,1,.243-.679q.772.277,1.531.593l1.163.487a.361.361,0,0,1-.139.694ZM217.6,113.466a.36.36,0,0,1-.114-.7c.91-.3,1.854-.57,2.808-.791a.361.361,0,0,1,.162.7c-.932.216-1.854.475-2.742.772A.373.373,0,0,1,217.6,113.466Zm17.085-.9a.335.335,0,0,1-.075-.008c-.921-.195-1.868-.351-2.813-.466a.361.361,0,0,1,.086-.716c.966.118,1.934.278,2.875.477a.36.36,0,0,1-.074.713Zm71.985-.462a.365.365,0,0,1-.19-.054c-.81-.5-1.642-.988-2.474-1.442a.36.36,0,1,1,.345-.633c.844.461,1.688.952,2.51,1.462a.361.361,0,0,1-.19.667ZM224.64,112a.361.361,0,0,1-.033-.72c.958-.091,1.937-.141,2.911-.149h0a.361.361,0,0,1,0,.721c-.952.008-1.911.056-2.849.145Zm31.383-1.258a.361.361,0,0,1-.193-.665c.813-.514,1.658-1.008,2.513-1.467a.36.36,0,1,1,.34.635c-.839.451-1.669.935-2.468,1.441A.355.355,0,0,1,256.023,110.737ZM300.3,108.73a.361.361,0,0,1-.146-.031c-.868-.387-1.759-.755-2.648-1.094a.361.361,0,0,1,.257-.674c.9.344,1.8.717,2.684,1.109a.361.361,0,0,1-.146.69Zm-37.876-1.292a.361.361,0,0,1-.137-.694c.889-.365,1.806-.7,2.728-1.009a.36.36,0,0,1,.226.684c-.9.3-1.807.634-2.681.992A.349.349,0,0,1,262.424,107.438Zm31.111-1.186a.37.37,0,0,1-.1-.014c-.917-.267-1.849-.51-2.772-.725a.36.36,0,1,1,.163-.7c.935.216,1.881.464,2.81.735a.36.36,0,0,1-.1.707Zm-24.24-.968a.36.36,0,0,1-.079-.712c.939-.21,1.9-.392,2.857-.541a.361.361,0,0,1,.111.713c-.941.146-1.886.326-2.81.532A.37.37,0,0,1,269.295,105.284Zm17.2-.565a.331.331,0,0,1-.053,0c-.942-.137-1.9-.249-2.844-.332a.36.36,0,1,1,.063-.718c.958.084,1.929.2,2.885.337a.361.361,0,0,1-.052.717Zm-10.067-.437a.36.36,0,0,1-.022-.72c.96-.058,1.937-.089,2.9-.089a.36.36,0,0,1,0,.721c-.953,0-1.916.03-2.861.087Z" transform="translate(-48.939 -6.694)" fill="#515151"/>
    <path id="Rectangle_17401" data-name="Rectangle 17401" d="M2.873,0H70.484a2.874,2.874,0,0,1,2.874,2.874V15.236a2.874,2.874,0,0,1-2.874,2.874H2.873A2.873,2.873,0,0,1,0,15.236V2.873A2.873,2.873,0,0,1,2.873,0Z" transform="translate(163.511 183.073)" fill="#eee"/>
    <path id="Path_8578" data-name="Path 8578" d="M221.986,228.056l1.614,3.27,3.608.524-2.611,2.545.616,3.594-3.227-1.7-3.227,1.7.616-3.594-2.611-2.545,3.608-.524Z" transform="translate(-48.807 -41.453)" fill="#ff8b00"/>
    <path id="Path_8579" data-name="Path 8579" d="M240.717,228.056l1.614,3.27,3.608.524-2.611,2.545.616,3.594-3.227-1.7-3.227,1.7.616-3.594L235.5,231.85l3.608-.524Z" transform="translate(-54.033 -41.453)" fill="#ff8b00"/>
    <path id="Path_8580" data-name="Path 8580" d="M259.449,228.056l1.614,3.27,3.608.524-2.611,2.545.616,3.594-3.227-1.7-3.227,1.7.616-3.594-2.611-2.545,3.608-.524Z" transform="translate(-59.259 -41.453)" fill="#ff8b00"/>
    <path id="Path_8581" data-name="Path 8581" d="M278.18,228.056l1.614,3.27,3.608.524-2.611,2.545.616,3.594-3.227-1.7-3.227,1.7.616-3.594-2.611-2.545,3.608-.524Z" transform="translate(-64.485 -41.453)" fill="#ff8b00"/>
    <path id="Path_8582" data-name="Path 8582" d="M296.911,228.056l1.614,3.27,3.608.524-2.611,2.545.616,3.594-3.227-1.7-3.227,1.7.616-3.594-2.611-2.545,3.608-.524Z" transform="translate(-69.711 -41.453)" fill="#ff8b00"/>
    <path id="Path_8583" data-name="Path 8583" d="M211.862,199.507h-3.2l.01,6.689-7.757-6.689h-15.23a3.64,3.64,0,0,1-3.64-3.64V181.586a3.64,3.64,0,0,1,3.64-3.64h26.177a3.64,3.64,0,0,1,3.64,3.64v14.281A3.64,3.64,0,0,1,211.862,199.507Z" transform="translate(-39.12 -27.472)" fill="url(#linear-gradient)"/>
    <path id="Path_8584" data-name="Path 8584" d="M202.558,186.713c-3.549-3.548-7.912-.959-6.761,3.069s6.761,6.713,6.761,6.713,5.61-2.685,6.761-6.713S206.106,183.165,202.558,186.713Z" transform="translate(-42.904 -29.45)" fill="url(#linear-gradient-2)"/>
    <path id="Path_8585" data-name="Path 8585" d="M349.656,372.279H295.072l5.985-55.3h42.614Z" transform="translate(-70.654 -66.261)" fill="#cd00ff"/>
    <path id="Path_8586" data-name="Path 8586" d="M338.146,318.254a.917.917,0,0,1-.918-.918V301.679a8.18,8.18,0,0,0-16.36,0v15.657a.917.917,0,1,1-1.835,0V301.679a10.015,10.015,0,1,1,20.03,0v15.657A.918.918,0,0,1,338.146,318.254Z" transform="translate(-77.34 -59.2)" fill="#b200dd"/>
    <path id="Path_8587" data-name="Path 8587" d="M319.1,380.769H264.519l5.985-55.3h42.614Z" transform="translate(-62.13 -68.631)" fill="#ff8b00"/>
    <rect id="Rectangle_17402" data-name="Rectangle 17402" width="16.677" height="7.162" transform="translate(220.509 270.663)" fill="#dd7300"/>
    <path id="Path_8588" data-name="Path 8588" d="M307.593,326.744a.917.917,0,0,1-.917-.917V310.17a8.18,8.18,0,0,0-16.36,0v15.657a.918.918,0,0,1-1.836,0V310.17a10.015,10.015,0,0,1,20.03,0v15.657A.917.917,0,0,1,307.593,326.744Z" transform="translate(-68.816 -61.568)" fill="#dd7300"/>
  </g>
</svg>
