<svg xmlns="http://www.w3.org/2000/svg" width="24" height="24" viewBox="0 0 24 24">
  <g id="Group_3498" data-name="Group 3498" transform="translate(0.815 33.01)">
    <g id="XMLID_1612_" transform="translate(-0.815 -33.01)">
      <path id="XMLID_596_" d="M172.452,30.492h0a1.031,1.031,0,0,1,0-1.458l8.762-8.762a1.031,1.031,0,0,1,1.458,0h0a1.031,1.031,0,0,1,0,1.458l-8.762,8.762A1.031,1.031,0,0,1,172.452,30.492Z" transform="translate(-159.544 -18.459)" fill="#ff5959"/>
      <g id="XMLID_1613_">
        <path id="XMLID_593_" d="M85.991,4.051c-.215,2.09-2.983,3.518-2.983,3.518S80.588,5.609,80.8,3.518,83.785,0,83.785,0,86.205,1.961,85.991,4.051Z" transform="translate(-75.756)" fill="#ffe165"/>
        <path id="XMLID_590_" d="M17.785,62.234c2.09.215,4.051-2.205,4.051-2.205s-1.428-2.768-3.518-2.983-4.051,2.205-4.051,2.205S15.695,62.019,17.785,62.234Z" transform="translate(-14.267 -52.717)" fill="#ffe165"/>
      </g>
      <g id="XMLID_1614_" transform="translate(0.511 3.066)">
        <path id="XMLID_1617_" d="M41.744,45.491A4.706,4.706,0,0,0,37.463,42.8a4.849,4.849,0,0,0-.607.039,4.764,4.764,0,0,0-8.182,0,4.845,4.845,0,0,0-.607-.039,4.7,4.7,0,0,0-4.281,2.688,4.561,4.561,0,0,0-2.765,4.161c0,2.521,2.1,2.916,4.7,2.916,1.905,0,3.544.547,4.282-1.038a12.872,12.872,0,0,1,5.53,0c.737,1.585,2.376,1.038,4.281,1.038,2.594,0,4.7-.395,4.7-2.916a4.561,4.561,0,0,0-2.765-4.161Z" transform="translate(-21.021 -40.521)" fill="#fffeb9"/>
        <path id="XMLID_1620_" d="M22.9,176.92v-.07a11.475,11.475,0,0,0,11.6,11.273h0A11.475,11.475,0,0,0,46.1,176.85v.07Z" transform="translate(-22.758 -168.034)" fill="#28b1bb"/>
        <path id="XMLID_585_" d="M118.269,300.854H110.73a.928.928,0,0,1-.928-.928v-1.1a.928.928,0,0,1,.928-.928h7.538a.928.928,0,0,1,.928.928v1.1A.928.928,0,0,1,118.269,300.854Z" transform="translate(-102.755 -279.92)" fill="#00abb8"/>
      </g>
      <circle id="XMLID_1621_" cx="1.017" cy="1.017" r="1.017" transform="translate(13.134 5.319)" fill="#ffa250"/>
      <circle id="XMLID_1622_" cx="1.017" cy="1.017" r="1.017" transform="translate(11.754 8.991)" fill="#ff5959"/>
      <circle id="XMLID_1623_" cx="1.017" cy="1.017" r="1.017" transform="translate(8.032 5.911)" fill="#ffe165"/>
      <circle id="XMLID_1624_" cx="1.017" cy="1.017" r="1.017" transform="translate(17.187 9.686)" fill="#ffe165"/>
      <circle id="XMLID_1625_" cx="1.017" cy="1.017" r="1.017" transform="translate(5.141 9.231)" fill="#ffa250"/>
    </g>
  </g>
</svg>
