<svg id="weight_scale_icon" xmlns="http://www.w3.org/2000/svg" width="28.967" height="28.967" viewBox="0 0 28.967 28.967">
  <path id="Path_6674" data-name="Path 6674" d="M26.421,0H2.546A2.549,2.549,0,0,0,0,2.546V26.421a2.549,2.549,0,0,0,2.546,2.546H26.421a2.549,2.549,0,0,0,2.546-2.546V2.546A2.549,2.549,0,0,0,26.421,0Zm.849,26.421a.85.85,0,0,1-.849.849H2.546a.85.85,0,0,1-.849-.849V2.546A.85.85,0,0,1,2.546,1.7H26.421a.85.85,0,0,1,.849.849Zm0,0" fill="#00c221"/>
  <path id="Path_6675" data-name="Path 6675" d="M96.915,65.261a16.316,16.316,0,0,0-19.576,0,.849.849,0,0,0-.169,1.189l4.48,5.96a.849.849,0,0,0,1.188.169,7.151,7.151,0,0,1,8.579,0A.848.848,0,0,0,92.6,72.41l4.48-5.96a.849.849,0,0,0-.169-1.189Zm-5.182,5.483a8.748,8.748,0,0,0-3.757-1.251V66.907a.849.849,0,1,0-1.7,0v2.587a8.748,8.748,0,0,0-3.757,1.251l-3.47-4.616a14.623,14.623,0,0,1,16.15,0Zm0,0" transform="translate(-72.643 -58.492)" fill="#00c221"/>
</svg>
