<svg xmlns="http://www.w3.org/2000/svg" width="93.11" height="65.947" viewBox="0 0 93.11 65.947">
  <g id="shoe" transform="translate(1 1.2)">
    <line id="Line_390" data-name="Line 390" x2="28.169" transform="translate(3.408 49.644)" fill="none" stroke="#28b1bb" stroke-linecap="round" stroke-width="2"/>
    <line id="Line_392" data-name="Line 392" x2="37.662" transform="translate(0 56.32)" fill="none" stroke="#28b1bb" stroke-linecap="round" stroke-width="2"/>
    <path id="Path_7691" data-name="Path 7691" d="M1.6,13.618,37.939,49.674a12.721,12.721,0,0,0,8.732,2.817c5.352-.282,36.62,0,36.62,0" transform="translate(7.583 4.618)" fill="none" stroke="#9e9e9e" stroke-width="2"/>
    <path id="Path_7688" data-name="Path 7688" d="M84.181,121.268v4.512a3.258,3.258,0,0,1-3.259,3.259H45.683a14.6,14.6,0,0,1-10.325-4.274c-4.779-4.776-14.347-14.34-33.512-33.5C-.07,89.343-.724,85.9,1,84.175l5.358-5.358L42.5,114.961a6.455,6.455,0,0,0,4.564,1.891h36.5A16.063,16.063,0,0,1,84.181,121.268Z" transform="translate(6.929 -65.292)" fill="none" stroke="#9e9e9e" stroke-width="2"/>
    <path id="Path_7684" data-name="Path 7684" d="M68.169,40.634H61.862a5.869,5.869,0,0,1-5.247-3.259A95.628,95.628,0,0,0,45.114,20.4a4.276,4.276,0,0,0-2.559-1.468L31.6,17.063a11.672,11.672,0,0,1-8.456-12.3l.161-1.276a2.521,2.521,0,0,0-.712-2.128,2.441,2.441,0,0,0-3.427.025L1,19.554c-1.722,1.722-1.068,5.168.847,7.083C21.01,45.8,30.58,55.368,35.358,60.144a14.6,14.6,0,0,0,10.323,4.274H80.922a3.259,3.259,0,0,0,3.259-3.259V56.647A16.013,16.013,0,0,0,68.169,40.634Z" transform="translate(6.929 -0.671)" fill="none" stroke="#28b1bb" stroke-width="2"/>
    <g id="Group_3090" data-name="Group 3090" transform="translate(49.382 20.036)">
      <path id="Path_7685" data-name="Path 7685" d="M245.5,123.177a1.393,1.393,0,0,1,.446-1.918l7.407-4.613a1.393,1.393,0,0,1,1.472,2.364l-7.407,4.613A1.392,1.392,0,0,1,245.5,123.177Z" transform="translate(-245.29 -116.436)" fill="#9e9e9e"/>
      <path id="Path_7686" data-name="Path 7686" d="M266.845,157.454a1.393,1.393,0,0,1,.446-1.918l7.407-4.613a1.393,1.393,0,1,1,1.472,2.364l-7.407,4.613A1.392,1.392,0,0,1,266.845,157.454Z" transform="translate(-262.94 -144.781)" fill="#9e9e9e"/>
      <path id="Path_7687" data-name="Path 7687" d="M288.189,191.731a1.392,1.392,0,0,1,.446-1.918l7.407-4.613a1.393,1.393,0,1,1,1.472,2.364l-7.407,4.613A1.392,1.392,0,0,1,288.189,191.731Z" transform="translate(-280.59 -173.125)" fill="#9e9e9e"/>
    </g>
  </g>
</svg>
