<svg xmlns="http://www.w3.org/2000/svg" width="388.477" height="275.408" viewBox="0 0 388.477 275.408">
  <path id="no_internet" data-name="no internet" d="M376.391,633.487c-.08,0-.163,0-.243-.007a5,5,0,0,1-4.753-4.743L361.22,425.594l-10.379,93.941a5,5,0,0,1-4.966,4.45h-21.7a5,5,0,0,1,0-10h17.223l16.728-151.452a5,5,0,0,1,9.962.3L378.844,577.6l13.832-93.728a5,5,0,0,1,4.706-4.26,4.91,4.91,0,0,1,5.093,3.79L415.5,535.94l12.982-125.308a5,5,0,0,1,9.916-.237l18.252,119.921,17.632-67.467a5,5,0,0,1,9.816.823l5.643,63.66,9.232-83.772a5,5,0,0,1,4.753-4.45,4.944,4.944,0,0,1,5.119,4.016l15.1,75.689H702.649a5,5,0,1,1,0,10H519.844a5,5,0,0,1-4.9-4.02l-9.569-47.982-11.2,101.61a5,5,0,0,1-4.966,4.453h-.057a5,5,0,0,1-4.926-4.56l-7.543-85.1L460.2,556.3a4.928,4.928,0,0,1-5.1,3.73,5,5,0,0,1-4.68-4.243L434.4,450.568,422.507,565.4a5,5,0,0,1-9.826.687L398.869,510.4,381.334,629.217A5,5,0,0,1,376.391,633.487Z" transform="translate(-319.172 -358.078)" fill="#ff8b00"/>
</svg>
