<svg xmlns="http://www.w3.org/2000/svg" width="76.669" height="54.352" viewBox="0 0 76.669 54.352">
  <g id="Group_3096" data-name="Group 3096" transform="translate(0 -52.578)">
    <path id="Path_7693" data-name="Path 7693" d="M232.735,96.706V94.118h-2.86l3.684-6.583h-7.466v2.588h3.052l-3.684,6.583Z" transform="translate(-191.7 -31.116)" fill="#9e9e9e"/>
    <path id="Path_7694" data-name="Path 7694" d="M335.619,50.833V48.246H333.44L336.376,43h-6.335v2.588h1.922l-2.936,5.246Z" transform="translate(-286.333 9.578)" fill="#9e9e9e"/>
    <path id="Path_7695" data-name="Path 7695" d="M100.391,265.126A5.391,5.391,0,1,0,95,259.735,5.4,5.4,0,0,0,100.391,265.126Z" transform="translate(-82.774 -179.697)" fill="#9e9e9e"/>
    <path id="Path_7696" data-name="Path 7696" d="M229.723,272.545v-.979a8.821,8.821,0,0,0-8.812-8.811H185.939a9.85,9.85,0,0,1-.88,9.791Z" transform="translate(-159.348 -186.847)" fill="#ff900d"/>
    <path id="Path_7697" data-name="Path 7697" d="M0,358.137v16.74H4.492v-5.742H72.176v5.742h4.492v-16.74Z" transform="translate(0 -267.947)" fill="#9e9e9e"/>
    <path id="Path_7698" data-name="Path 7698" d="M0,135.93H8.333v28.782H0Z" transform="translate(0 -79.014)" fill="#9e9e9e"/>
  </g>
</svg>
