<svg xmlns="http://www.w3.org/2000/svg" width="96.864" height="101.823" viewBox="0 0 96.864 101.823">
  <g id="snack-icon" transform="translate(-12)">
    <path id="Path_8804" data-name="Path 8804" d="M79.607,81.6a46.467,46.467,0,0,0-19.175,4.463A46.467,46.467,0,0,0,41.258,81.6C21.753,81.6,12,96.807,12,115.486s20,51.077,39.506,51.077a17.33,17.33,0,0,0,8.926-2.479,19.082,19.082,0,0,0,8.926,2.479c19.505,0,39.506-32.4,39.506-51.077C108.864,96.642,99.112,81.6,79.607,81.6Z" transform="translate(0 -64.74)" fill="#d6270f"/>
    <path id="Path_8805" data-name="Path 8805" d="M163.848,166.563a17.33,17.33,0,0,0,8.926-2.479,19.082,19.082,0,0,0,8.926,2.479c19.505,0,39.506-32.4,39.506-51.077S211.454,81.6,191.949,81.6a46.467,46.467,0,0,0-19.175,4.463A46.467,46.467,0,0,0,153.6,81.6" transform="translate(-112.342 -64.74)" fill="#d6270f"/>
    <path id="Path_8807" data-name="Path 8807" d="M105.193,122.4a39.861,39.861,0,0,0-16.2,3.637,39.861,39.861,0,0,0-16.2-3.637C56.265,122.4,48,134.632,48,149.509,48,164.551,64.86,190.5,81.39,190.5a15.357,15.357,0,0,0,7.6-1.984,16.764,16.764,0,0,0,7.6,1.984c16.53,0,33.39-25.952,33.39-40.994S121.723,122.4,105.193,122.4Z" transform="translate(-28.562 -97.109)" fill="#fcf7c5"/>
    <path id="Path_8809" data-name="Path 8809" d="M165.721,252.909h0l8.6,5.455-1.818-9.587h0a6.907,6.907,0,0,0-.661-1.653,4.463,4.463,0,0,0-6.116-1.157,3.986,3.986,0,0,0-1.322,5.785A4.456,4.456,0,0,0,165.721,252.909Z" transform="translate(-120.331 -194.558)" fill="#773d0e"/>
    <path id="Path_8810" data-name="Path 8810" d="M182.2,258.363l-1.818-9.587h0a6.909,6.909,0,0,0-.661-1.653,4.463,4.463,0,0,0-6.116-1.157" transform="translate(-128.21 -194.558)" fill="#441f06"/>
    <path id="Path_8811" data-name="Path 8811" d="M286.2,252.909h0l-8.6,5.455,1.818-9.587h0a6.906,6.906,0,0,1,.661-1.653,4.463,4.463,0,0,1,6.116-1.157,3.986,3.986,0,0,1,1.322,5.785A4.455,4.455,0,0,1,286.2,252.909Z" transform="translate(-210.721 -194.558)" fill="#773d0e"/>
    <g id="Group_3840" data-name="Group 3840" transform="translate(66.879 50.67)">
      <path id="Path_8812" data-name="Path 8812" d="M277.6,258.363l1.818-9.587h0a6.906,6.906,0,0,1,.661-1.653,4.463,4.463,0,0,1,6.116-1.157" transform="translate(-277.6 -245.228)" fill="#441f06"/>
    </g>
    <path id="Path_8813" data-name="Path 8813" d="M246.4,27.333V4.522s3.8-2.975,6.612,0l-3.8,21.158Z" transform="translate(-185.968 -2.539)" fill="#a50c00"/>
    <path id="Path_8814" data-name="Path 8814" d="M160.636,18.348h0c1.653-5.29,2.645-10.083-.661-13.554C154.354-.992,147.908,2.81,140.8,0h0" transform="translate(-102.187 0)" fill="#5ea304"/>
    <path id="Path_8815" data-name="Path 8815" d="M152.47,26.183h0c-5.785,1.653-10.744,2.645-14.546-.331-6.281-5.29-2.149-11.24-5.124-17.852h0" transform="translate(-95.84 -6.347)" fill="#80c11a"/>
  </g>
</svg>
