<svg xmlns="http://www.w3.org/2000/svg" width="36.71" height="26.063" viewBox="0 0 36.71 26.063">
  <g id="Group_2636" data-name="Group 2636" transform="matrix(0.974, 0.225, -0.225, 0.974, -126.514, -244.02)">
    <g id="Group_2635" data-name="Group 2635" transform="translate(181.379 204.773)">
      <g id="Group_2634" data-name="Group 2634" transform="translate(0)">
        <g id="Group_2650" data-name="Group 2650" transform="translate(0)">
          <g id="Group_2649" data-name="Group 2649" transform="translate(0)">
            <g id="Group_2648" data-name="Group 2648" transform="translate(0)">
              <g id="Group_2644" data-name="Group 2644" transform="translate(3.366 3.036)">
                <path id="Path_6597" data-name="Path 6597" d="M351.979,332.6a6,6,0,1,1-5.988-6.407A6.208,6.208,0,0,1,351.979,332.6Z" transform="translate(-340.002 -326.194)" fill="#dd4b51"/>
                <g id="Group_2643" data-name="Group 2643" transform="translate(0.264 0.459)">
                  <path id="Path_6620" data-name="Path 6620" d="M5.013-.007a4.623,4.623,0,0,1,4.864,4.58,5,5,0,0,1-5.02,4.735A4.623,4.623,0,0,1-.007,4.728,5,5,0,0,1,5.013-.007Z" transform="translate(0 9.583) rotate(-75.707)" fill="#c0012b"/>
                </g>
                <path id="Path_6598" data-name="Path 6598" d="M359.834,343.723a2.482,2.482,0,1,1-2.476-2.649A2.568,2.568,0,0,1,359.834,343.723Z" transform="translate(-351.369 -337.316)" fill="#dd4b51"/>
                <path id="Path_6599" data-name="Path 6599" d="M352.307,339.471s-2.229.626-2.386-.385c-.028-.181,2-3.163,2.626-2.681S353.995,338.652,352.307,339.471Z" transform="translate(-347.579 -333.787)" fill="#dd4b51"/>
                <path id="Path_6600" data-name="Path 6600" d="M356.737,357.583a1.865,1.865,0,0,1,.128,2.2c-.111.14-2.875-.619-2.71-1.43A1.45,1.45,0,0,1,356.737,357.583Z" transform="translate(-350.808 -349.225)" fill="#dd4b51"/>
                <path id="Path_6601" data-name="Path 6601" d="M370.727,343.288s.651-1.7,1.573-1.419c.165.051,1.346,2.593.668,2.993S370.688,345.271,370.727,343.288Z" transform="translate(-363.474 -337.887)" fill="#dd4b51"/>
              </g>
              <g id="Group_2646" data-name="Group 2646" transform="translate(16.423)">
                <path id="Path_6602" data-name="Path 6602" d="M405.322,325.33a5.718,5.718,0,0,1-8.458-.458,6.726,6.726,0,0,1,.428-9.049,5.718,5.718,0,0,1,8.458.458A6.725,6.725,0,0,1,405.322,325.33Z" transform="translate(-395.319 -314.17)" fill="#dd4b51"/>
                <g id="Group_2645" data-name="Group 2645" transform="translate(1.351 1.445)">
                  <path id="Path_6603" data-name="Path 6603" d="M408.789,328.536a4.428,4.428,0,0,1-6.55-.355,5.208,5.208,0,0,1,.331-7.008,4.428,4.428,0,0,1,6.55.354A5.209,5.209,0,0,1,408.789,328.536Z" transform="translate(-401.042 -319.893)" fill="#c0012b"/>
                </g>
                <path id="Path_6604" data-name="Path 6604" d="M414.335,333.665a2.365,2.365,0,0,1-3.5-.189,2.781,2.781,0,0,1,.177-3.742,2.365,2.365,0,0,1,3.5.189A2.782,2.782,0,0,1,414.335,333.665Z" transform="translate(-406.687 -325.292)" fill="#dd4b51"/>
                <path id="Path_6605" data-name="Path 6605" d="M414.549,326.636s-1.929-1.349-1.333-2.153c.106-.144,3.531-.537,3.62.287S416.249,327.427,414.549,326.636Z" transform="translate(-408.905 -321.714)" fill="#dd4b51"/>
                <path id="Path_6606" data-name="Path 6606" d="M406.848,339.319s-.192,1.533-1.439,1.576c-.171.006-1.5-2.7-.826-3.11S406.855,337.336,406.848,339.319Z" transform="translate(-402.252 -331.652)" fill="#dd4b51"/>
                <path id="Path_6607" data-name="Path 6607" d="M425.034,340.232s1.618-.625,2.038.3c.075.165-.9,2.808-1.628,2.537A1.614,1.614,0,0,1,425.034,340.232Z" transform="translate(-417.5 -333.496)" fill="#dd4b51"/>
              </g>
              <g id="Group_2647" data-name="Group 2647" transform="translate(0 3.202)">
                <path id="Path_6608" data-name="Path 6608" d="M3.445,18.289s-3.8.632-3.4-.636a10.022,10.022,0,0,1,1.4-2.577S-.823,12.709.315,12.166a4.107,4.107,0,0,1,2.674-.013s-2.1-1.448-1.026-3.333S4.45,8,4.918,6.5s.4-3.211,1.86-3.263a9.387,9.387,0,0,1,2.554.249S12.063-.033,13.5.1s2.68,1.8,2.973,1.654S19.2-.422,20.259.067s2.064,2.641,2.064,2.641S23.8.428,24.965,1.141s.527,1.574,2.227,2,3.293,1.512,2.889,2.694,1.9-.058,2.12,2,2.571,2.307,1.928,3.308,1.245,1.28-1.926,2.1S3.445,18.289,3.445,18.289Z" transform="matrix(0.998, -0.07, 0.07, 0.998, 0, 2.404)" fill="#518c4b"/>
                <path id="Path_6609" data-name="Path 6609" d="M340.743,330.229c-.023-.188-.186-.358-.277-.633a2.074,2.074,0,0,1-.091-.347,1.886,1.886,0,0,1,.132-1.024c.376-.884,1.181-1,1.883-1.436,1.007-.628.426-1.606.939-2.463a1.822,1.822,0,0,1,1.647-.707,3.011,3.011,0,0,0,1.525-.283,6.935,6.935,0,0,0,1.159-.987,4.187,4.187,0,0,1,2.05-1.149,2.837,2.837,0,0,1,1.445.162,3.077,3.077,0,0,0-1.466-.679c-1.187-.118-3.429,2.751-3.429,2.751a7.856,7.856,0,0,0-2.11-.214c-1.2.037-1.143,1.437-1.524,2.659s-1.553.345-2.432,1.882A1.967,1.967,0,0,0,340.743,330.229Z" transform="translate(-335.406 -317.247)" fill="#599752"/>
                <path id="Path_6610" data-name="Path 6610" d="M420.2,324.49a1.256,1.256,0,0,1,.233-.155.828.828,0,0,1,.668-.019c.617.243.85,1.009,1.393,1.359a13.1,13.1,0,0,0,1.6.543,3.966,3.966,0,0,1,.969.607,1.587,1.587,0,0,1,.535.784c.074.334-.2.947.071,1.189.184.166.656.093.882.225a.987.987,0,0,1,.411.462c.257.558.138,1.1.7,1.521.333.249.72.415,1.069.635a2.718,2.718,0,0,1,.462.364c-.079-.587-1.529-.948-1.69-2.393-.188-1.686-2.088-.682-1.758-1.646s-.991-1.858-2.4-2.213-.879-1.056-1.846-1.644c-.539-.328-1.153.1-1.591.552A2.588,2.588,0,0,0,420.2,324.49Z" transform="translate(-397.746 -319.781)" fill="#599752"/>
                <path id="Path_6611" data-name="Path 6611" d="M400.184,321a4.815,4.815,0,0,1,1.882.916,1.542,1.542,0,0,0,.382.146,4.112,4.112,0,0,0-1.4-1.584c-.582-.267-1.655.367-2.384.861A4.249,4.249,0,0,1,400.184,321Z" transform="translate(-381.181 -317.042)" fill="#599752"/>
                <path id="Path_6612" data-name="Path 6612" d="M334.875,363.6c-.082-.353-.362-.472-.316-.881.087-.777.886-.533,1.248-1a.609.609,0,0,0,.1-.167,3.072,3.072,0,0,0-1.877.09c-.82.384.513,1.921.859,2.3A.86.86,0,0,0,334.875,363.6Z" transform="translate(-330.587 -348.404)" fill="#599752"/>
              </g>
              <path id="Path_6613" data-name="Path 6613" d="M343.772,342.225l25.32-5.832s-2.4-11.288-15.649-9.156S343.772,342.225,343.772,342.225Z" transform="translate(-338.047 -318.852)" fill="#f6e09d"/>
              <path id="Path_6615" data-name="Path 6615" d="M363.085,361.695a1.385,1.385,0,1,1-1.334-1.013A1.207,1.207,0,0,1,363.085,361.695Z" transform="translate(-351.488 -344.1)" fill="#d1b773"/>
              <path id="Path_6616" data-name="Path 6616" d="M387.181,352.533c0,1.227-1.348,2.222-3.011,2.222s-3.012-1-3.012-2.222,1.348-2.222,3.012-2.222S387.181,351.306,387.181,352.533Z" transform="translate(-366.412 -336.944)" fill="#d1b773"/>
              <path id="Path_6617" data-name="Path 6617" d="M407.779,346.87a1.05,1.05,0,1,1-1.045-.947A1,1,0,0,1,407.779,346.87Z" transform="translate(-383.327 -334.026)" fill="#d1b773"/>
              <path id="Path_6618" data-name="Path 6618" d="M395.978,338.31c0,.091-.147.165-.33.165s-.329-.074-.329-.165.148-.164.329-.164S395.978,338.219,395.978,338.31Z" transform="translate(-378.575 -327.393)" fill="#d1b773"/>
              <path id="Path_6619" data-name="Path 6619" d="M446.859,363.075h0Z" transform="translate(-418.378 -346.443)" fill="#d1b773"/>
            </g>
          </g>
        </g>
      </g>
    </g>
  </g>
</svg>
