<svg xmlns="http://www.w3.org/2000/svg" width="40.442" height="46.762" viewBox="0 0 40.442 46.762">
  <g id="sleep" transform="translate(151.517 -12)">
    <path id="Icon" d="M4,28.258c0-9.166,6.3-16.808,12.509-18.6a34.089,34.089,0,0,0-1.251,8.374c0,5.958,1.747,11.749,6.255,15.213,3.526,2.71,9.261,3.787,13.737,3.787a18.055,18.055,0,0,0,3.776-.4,18.406,18.406,0,0,1-16.56,10.633C12.267,47.262,4,38.754,4,28.258ZM24.993,27.2h9.2V25.3H27.863v-.044l6.267-8.373V15.239h-9.1v1.906h6.388v.033l-6.421,8.473Zm12.292-7.521h7.157V18.2H39.517v-.034l4.874-6.513V10.377h-7.08v1.482h4.968v.026l-4.994,6.59ZM32.064,7.147h5.112V6.088H33.658V6.064L37.14,1.412V.5H32.082V1.559h3.549v.018L32.064,6.284Z" transform="translate(-155.517 11.5)" fill="#828282" fill-rule="evenodd"/>
  </g>
</svg>
