<svg xmlns="http://www.w3.org/2000/svg" width="17" height="17" viewBox="0 0 17 17">
  <g id="Support" transform="translate(1 0)">
    <path id="Path_8080" data-name="Path 8080" d="M15.571,16.789a4.7,4.7,0,0,0-7.072.187,4.7,4.7,0,0,0-7.076-.187,5.433,5.433,0,0,0,.126,7.468,1.852,1.852,0,0,0,.963,3.107,1.78,1.78,0,0,0,1.7,1.938,1.728,1.728,0,0,0,2.135,1.631,1.677,1.677,0,0,0,2.856.812,2.409,2.409,0,0,0,.963-1.737,1.771,1.771,0,0,0,1.624-1.748,1.771,1.771,0,0,0,1.644-1.748,1.782,1.782,0,0,0,1.647-1.861l.495-.526A5.433,5.433,0,0,0,15.571,16.789ZM2.3,25.1l.465-.494a.6.6,0,0,1,.435-.191.663.663,0,0,1,.435,1.119l-.465.494c-.6.59-1.424-.286-.87-.929Zm1.3,2.387a.667.667,0,0,1,.179-.463l.465-.494a.6.6,0,0,1,.435-.191.662.662,0,0,1,.435,1.119L4.7,27.9a.633.633,0,0,1-.491.251A.646.646,0,0,1,3.595,27.487Zm1.879,2.154a.691.691,0,0,1,0-.929l.412-.438a.6.6,0,0,1,.926-.06.691.691,0,0,1,0,.929l-.465.494a.587.587,0,0,1-.873,0Zm3.423.787-.465.494a.591.591,0,0,1-.87,0,.691.691,0,0,1,0-.929l.465-.494a.6.6,0,0,1,.873,0,.694.694,0,0,1,0,.929Zm4.911-5.265a.6.6,0,0,1-.873,0l-2.424-2.578-.77.819,2.424,2.578a.691.691,0,0,1,0,.929.592.592,0,0,1-.873,0L8.907,24.377l-.04-.042-.774.816.04.042,2.384,2.535a.691.691,0,0,1,0,.929.6.6,0,0,1-.873,0h0a1.636,1.636,0,0,0-1.62-.448A1.738,1.738,0,0,0,6.38,26.866,1.778,1.778,0,0,0,4.9,25.192a1.724,1.724,0,0,0-2.537-1.709A4.233,4.233,0,0,1,2.19,17.6a3.657,3.657,0,0,1,5.532.187L6.374,19.225l1.079,1.148a2.362,2.362,0,0,0,3.061.364l3.287,3.5a.688.688,0,0,1,.007.932ZM14.8,23.3l-.166.177-.06-.064-4.011-4.269-.385.41a1.318,1.318,0,0,1-1.946,0l-.309-.328,1.524-1.621c3.7-3.623,8.759,1.762,5.352,5.7Z" transform="translate(-0.999 -15.273)" fill="#9e9e9e"/>
  </g>
</svg>
