<svg xmlns="http://www.w3.org/2000/svg" width="31.608" height="32.105" viewBox="0 0 31.608 32.105">
  <g id="walnut-5" transform="translate(-14.022 0.781) rotate(-30)">
    <path id="Path_8289" data-name="Path 8289" d="M10.609,30.269a5.256,5.256,0,0,1,3.378-4.3,3.923,3.923,0,0,0,1.5-1.028A4.826,4.826,0,0,1,19.1,23.448a4.6,4.6,0,0,0,1.658-.319c3.478-1.335,5.4,1.072,4.459,2.7l-.009.013c.941-1.623,3.982-1.164,4.568,2.516a4.661,4.661,0,0,0,.551,1.593,4.817,4.817,0,0,1,.516,3.877,4.036,4.036,0,0,0-.14,1.811,5.247,5.247,0,0,1-2.035,5.076,2.3,2.3,0,0,0-.8,1.238,4.634,4.634,0,0,1-3.75,3.579,1.044,1.044,0,0,0-.551.293c-.442.455-1.689,1.356-4.27.674a1.616,1.616,0,0,0-.805.022c-2.039.709-4.782-.473-3.776-2.525l.009-.013c-1.269,1.9-3.662.109-4.069-2.008a1.537,1.537,0,0,0-.381-.709c-1.886-1.89-1.733-3.426-1.558-4.034A1.019,1.019,0,0,0,8.7,36.6,4.633,4.633,0,0,1,9.93,31.56a2.153,2.153,0,0,0,.678-1.291Z" transform="translate(-1.536 -6.602)" fill="#f2a951"/>
    <path id="Path_8290" data-name="Path 8290" d="M23.512,33.387a.53.53,0,0,1-.49-.722,2.839,2.839,0,0,0,.166-2.192,1.236,1.236,0,0,0-.381-.49.525.525,0,0,1,.525-.91,2.173,2.173,0,0,1,.814.967A3.962,3.962,0,0,1,24,33.059.531.531,0,0,1,23.512,33.387ZM20.305,29.1a.612.612,0,0,1-.149-.022.526.526,0,0,1-.359-.652,2.676,2.676,0,0,1,2.949-1.768.525.525,0,0,1-.1,1.046,1.771,1.771,0,0,0-1.5.468,1.621,1.621,0,0,0-.346.543A.5.5,0,0,1,20.305,29.1Zm-3.382,5.019a.5.5,0,0,1-.149.031.528.528,0,0,1-.56-.49A2.68,2.68,0,0,1,18.38,30.99.524.524,0,1,1,18.642,32a1.78,1.78,0,0,0-1.251.954,1.676,1.676,0,0,0-.14.63.5.5,0,0,1-.328.529ZM14.617,39.43a.638.638,0,0,1-.131.074.53.53,0,0,1-.683-.3,2.673,2.673,0,0,1,1.273-3.194.525.525,0,0,1,.551.893,1.763,1.763,0,0,0-.91,1.282,1.619,1.619,0,0,0,.053.643A.491.491,0,0,1,14.617,39.43Zm14.618-6.261a1.613,1.613,0,0,0,.376-.521,1.765,1.765,0,0,0-.118-1.566.526.526,0,0,1,.936-.481,2.678,2.678,0,0,1-.551,3.4.528.528,0,0,1-.739-.092.666.666,0,0,1-.074-.131A.491.491,0,0,1,29.235,33.169Zm-2.853,5.29a1.65,1.65,0,0,0,.534-.363,1.765,1.765,0,0,0,.424-1.514.525.525,0,1,1,1.041-.131,2.675,2.675,0,0,1-1.68,3,.524.524,0,0,1-.661-.341.627.627,0,0,1-.026-.149A.5.5,0,0,1,26.383,38.459Zm-3.912,4.275a1.639,1.639,0,0,0,.617-.188,1.754,1.754,0,0,0,.853-1.321.524.524,0,1,1,1.033.184,2.673,2.673,0,0,1-2.5,2.363.527.527,0,0,1-.529-.521.555.555,0,0,1,.018-.149.515.515,0,0,1,.508-.368Zm-1.628-4.717a.53.53,0,0,1-.49-.722,2.839,2.839,0,0,0,.166-2.192,1.236,1.236,0,0,0-.381-.49.525.525,0,0,1,.525-.91,2.173,2.173,0,0,1,.814.967,3.962,3.962,0,0,1-.149,3.019.524.524,0,0,1-.486.328Zm-2.722,4.638a.53.53,0,0,1-.49-.722,2.839,2.839,0,0,0,.166-2.192,1.236,1.236,0,0,0-.381-.49.525.525,0,0,1,.525-.91,2.173,2.173,0,0,1,.814.967,3.962,3.962,0,0,1-.149,3.019A.524.524,0,0,1,18.122,42.655Z" transform="translate(-3.177 -7.821)" fill="#ac6e00"/>
    <path id="Path_8291" data-name="Path 8291" d="M25.4,33.962A3.951,3.951,0,0,1,28.1,32.584a2.15,2.15,0,0,1,1.216.346.526.526,0,0,1-.617.853,1.191,1.191,0,0,0-.6-.144,2.82,2.82,0,0,0-1.93,1.054.534.534,0,0,1-.744.013.512.512,0,0,1-.118-.162A.55.55,0,0,1,25.4,33.962ZM22.767,38.3a3.951,3.951,0,0,1,2.691-1.378,2.15,2.15,0,0,1,1.216.346.526.526,0,1,1-.617.853,1.191,1.191,0,0,0-.6-.144,2.82,2.82,0,0,0-1.93,1.054.534.534,0,0,1-.744.013.512.512,0,0,1-.118-.162A.543.543,0,0,1,22.767,38.3ZM19.923,43.26a3.951,3.951,0,0,1,2.691-1.378,2.15,2.15,0,0,1,1.216.346.526.526,0,0,1-.617.853,1.246,1.246,0,0,0-.6-.144,2.82,2.82,0,0,0-1.93,1.054.534.534,0,0,1-.744.013.512.512,0,0,1-.118-.162A.541.541,0,0,1,19.923,43.26Z" transform="translate(-5.087 -9.677)" fill="#ac6e00"/>
    <path id="Path_8292" data-name="Path 8292" d="M17.173,45.779a.525.525,0,0,1-.455-.788L27.543,26.234a.525.525,0,0,1,.91.525L17.628,45.517A.526.526,0,0,1,17.173,45.779Z" transform="translate(-4.11 -7.611)" fill="#ac6e00"/>
  </g>
</svg>
