<svg xmlns="http://www.w3.org/2000/svg" width="73.929" height="76.03" viewBox="0 0 73.929 76.03">
  <g id="diet-chart" transform="translate(-2.525)">
    <path id="Path_8133" data-name="Path 8133" d="M59.512,13.534V69.749a2.917,2.917,0,0,1-2.918,2.918H5.443a2.917,2.917,0,0,1-2.918-2.918V2.918A2.917,2.917,0,0,1,5.443,0H45.966Z" fill="#eff3f5"/>
    <path id="Path_8134" data-name="Path 8134" d="M83.623,13.534v.011H73a2.917,2.917,0,0,1-2.918-2.918V0Z" transform="translate(-24.112)" fill="#e5e5e5"/>
    <rect id="Rectangle_17327" data-name="Rectangle 17327" width="39.229" height="3.054" transform="translate(11.404 58.951)" fill="#d4d4d6"/>
    <rect id="Rectangle_17328" data-name="Rectangle 17328" width="39.229" height="3.054" transform="translate(11.404 49.289)" fill="#d4d4d6"/>
    <rect id="Rectangle_17329" data-name="Rectangle 17329" width="39.229" height="3.054" transform="translate(11.404 39.638)" fill="#d4d4d6"/>
    <rect id="Rectangle_17330" data-name="Rectangle 17330" width="39.229" height="3.054" transform="translate(11.404 29.975)" fill="#d4d4d6"/>
    <rect id="Rectangle_17331" data-name="Rectangle 17331" width="39.229" height="3.054" transform="translate(11.404 20.324)" fill="#d4d4d6"/>
    <rect id="Rectangle_17332" data-name="Rectangle 17332" width="26.671" height="3.054" transform="translate(11.404 10.662)" fill="#687d87"/>
    <g id="rice-svgrepo-com_1_" data-name="rice-svgrepo-com (1)" transform="translate(23.002 23)">
      <path id="Path_8298" data-name="Path 8298" d="M44.846,37.92a2.95,2.95,0,0,1,1.573,2.362,2.946,2.946,0,0,1,4.133,2.7c0,.092-.006.183-.014.274.079-.008.159-.012.241-.012a2.949,2.949,0,0,1,2.949,2.949L32.243,51.025,11.361,46.192a2.949,2.949,0,0,1,2.949-2.949c.082,0,.162,0,.241.012-.008-.091-.014-.181-.014-.274a2.948,2.948,0,0,1,4.135-2.7,2.942,2.942,0,0,1,4.464-2.265,2.946,2.946,0,0,1,4.717-1.34,2.946,2.946,0,0,1,4.693-.767,2.945,2.945,0,0,1,4.691.767,2.945,2.945,0,0,1,4.717,1.34,2.938,2.938,0,0,1,2.893-.1Z" transform="translate(-2.387 -18.609)" fill="#f2f2f2"/>
      <path id="Path_8299" data-name="Path 8299" d="M51.341,58.775h2.111A23.284,23.284,0,0,1,41.846,78.928l-11.84,2.979L18.469,78.928A23.282,23.282,0,0,1,6.863,58.775H51.341Z" transform="translate(0 -31.192)" fill="#ff900d"/>
      <g id="Group_3556" data-name="Group 3556" transform="translate(8.974 16.456)">
        <path id="Path_8300" data-name="Path 8300" d="M24.971,43.243c.082,0,.162,0,.241.012-.008-.091-.014-.181-.014-.274a2.948,2.948,0,0,1,4.135-2.7A2.942,2.942,0,0,1,33.8,38.016,2.951,2.951,0,0,1,36.6,35.972c.046,0,.09,0,.136.006a2.941,2.941,0,0,0-4.194-.068,2.946,2.946,0,0,0-4.693.767,2.946,2.946,0,0,0-4.717,1.34,2.942,2.942,0,0,0-4.464,2.265,2.948,2.948,0,0,0-4.135,2.7c0,.092.006.183.014.274-.079-.008-.159-.012-.24-.012a2.949,2.949,0,0,0-2.949,2.949H22.022A2.949,2.949,0,0,1,24.971,43.243Z" transform="translate(-11.361 -35.065)" fill="#e6e6e6"/>
        <path id="Path_8301" data-name="Path 8301" d="M53.937,101.718v.324a4.971,4.971,0,0,1-4.971,4.971H19.732a4.971,4.971,0,0,1-4.971-4.971v-.324H53.937Z" transform="translate(-13.166 -70.438)" fill="#e6e6e6"/>
      </g>
      <path id="Path_8302" data-name="Path 8302" d="M23.532,102.042v-.324H14.761v.324a4.972,4.972,0,0,0,4.971,4.971H28.5A4.972,4.972,0,0,1,23.532,102.042Z" transform="translate(-4.192 -53.982)" fill="#ccc"/>
      <path id="Path_8303" data-name="Path 8303" d="M18.658,58.775H6.863A23.282,23.282,0,0,0,18.469,78.928h11.8A23.282,23.282,0,0,1,18.658,58.775Z" transform="translate(0 -31.192)" fill="#e67d00"/>
      <g id="Group_3557" data-name="Group 3557" transform="translate(35.051 0)">
        <path id="Path_8304" data-name="Path 8304" d="M68.063,23.24a1.135,1.135,0,0,1-1.04-1.585L76.1.684a1.134,1.134,0,1,1,2.082.9L69.1,22.556A1.135,1.135,0,0,1,68.063,23.24Z" transform="translate(-66.929 0)" fill="#666"/>
        <path id="Path_8305" data-name="Path 8305" d="M74.881,29.292a1.134,1.134,0,0,1-.94-1.768L86.7,8.568a1.134,1.134,0,0,1,1.882,1.267L75.823,28.791A1.133,1.133,0,0,1,74.881,29.292Z" transform="translate(-70.548 -4.281)" fill="#666"/>
      </g>
    </g>
  </g>
</svg>
